<svg id="Layer_3" data-name="Layer 3" xmlns="http://www.w3.org/2000/svg" viewBox="0 0 223.7 335.65"><title>backArrow</title><path d="M346.33,78.05,149.38,228.2l197,150.73V337.3L208.43,233.09h0A5.77,5.77,0,0,1,207.3,225a5.83,5.83,0,0,1,1.4-1.32l137.63-104V78.05ZM136.43,223.63,348.3,62.1a5.76,5.76,0,0,1,9.55,4.34v56.07a5.79,5.79,0,0,1-2.29,4.65l-3.47-4.6,3.46,4.59L221.44,228.5,355.3,329.66a5.76,5.76,0,0,1,2.55,4.79v56.12a5.76,5.76,0,0,1-9.26,4.57h0L136.74,233a6.06,6.06,0,0,1-1.41-1.32,5.77,5.77,0,0,1,1.09-8.08Z" transform="translate(-134.15 -60.68)"/></svg>