<svg xmlns="http://www.w3.org/2000/svg" viewBox="0 0 237.62 203.64"><defs><style>.a{fill:#bebbbb;}.b{fill:#503748;}.c{fill:#dbdadb;}.d{fill:#d59557;}.e{fill:#953816;}.f{fill:#f6b600;}.g{fill:#00a898;}.h{fill:none;stroke:#edc19d;stroke-linecap:round;stroke-linejoin:round;stroke-width:8.8px;}</style></defs><rect class="a" x="4.4" y="71.96" width="228.82" height="127.27" rx="29.79"/><path class="b" d="M418.58,512.51A25.38,25.38,0,0,1,444,537.89v67.7A25.39,25.39,0,0,1,418.58,631H249.34A25.39,25.39,0,0,1,224,605.59v-67.7a25.38,25.38,0,0,1,25.39-25.38H418.58m0-8.81H249.34a34.23,34.23,0,0,0-34.19,34.19v67.7a34.23,34.23,0,0,0,34.19,34.19H418.58a34.23,34.23,0,0,0,34.19-34.19v-67.7a34.23,34.23,0,0,0-34.19-34.19Z" transform="translate(-215.15 -436.14)"/><path class="c" d="M39.27,55H198.35A34.87,34.87,0,0,1,233.22,89.9v57.54a34.86,34.86,0,0,1-34.86,34.86H39.26A34.86,34.86,0,0,1,4.4,147.45V89.9A34.87,34.87,0,0,1,39.27,55Z"/><path class="b" d="M413.51,495.58A30.47,30.47,0,0,1,444,526.05v57.54a30.46,30.46,0,0,1-30.46,30.46H254.41A30.46,30.46,0,0,1,224,583.59V526.05a30.47,30.47,0,0,1,30.46-30.47h159.1m0-8.8H254.41a39.3,39.3,0,0,0-39.26,39.27v57.54a39.3,39.3,0,0,0,39.26,39.26h159.1a39.3,39.3,0,0,0,39.26-39.26V526.05a39.3,39.3,0,0,0-39.26-39.27Z" transform="translate(-215.15 -436.14)"/><path class="d" d="M300.11,576.13c-30.94,0-55.17-13.08-55.17-29.78V529.42a4.4,4.4,0,0,1,4.4-4.4H350.88a4.4,4.4,0,0,1,4.4,4.4v16.93C355.28,563.05,331.05,576.13,300.11,576.13Z" transform="translate(-215.15 -436.14)"/><path class="b" d="M350.88,529.42v16.93c0,14-22.73,25.38-50.77,25.38s-50.77-11.36-50.77-25.38V529.42H350.88m0-8.8H249.34a8.8,8.8,0,0,0-8.8,8.8v16.93c0,19.49,25.61,34.18,59.57,34.18s59.58-14.69,59.58-34.18V529.42a8.81,8.81,0,0,0-8.81-8.8Z" transform="translate(-215.15 -436.14)"/><path class="e" d="M300.11,559.21c-30.94,0-55.17-13.08-55.17-29.79s24.23-29.78,55.17-29.78,55.17,13.08,55.17,29.78S331.05,559.21,300.11,559.21Z" transform="translate(-215.15 -436.14)"/><path class="b" d="M300.11,504c28,0,50.77,11.36,50.77,25.38s-22.73,25.39-50.77,25.39-50.77-11.37-50.77-25.39S272.07,504,300.11,504m0-8.8c-34,0-59.57,14.69-59.57,34.18s25.61,34.19,59.57,34.19,59.58-14.7,59.58-34.19-25.62-34.18-59.58-34.18Z" transform="translate(-215.15 -436.14)"/><path class="f" d="M346.63,562.52a9.07,9.07,0,0,1-3.42-.68,8.47,8.47,0,0,1-5.21-7.92v-2.06a8.64,8.64,0,0,1-8.29,6.24,9.07,9.07,0,0,1-3.42-.68,8.46,8.46,0,0,1-5.21-7.92v-17l-8.3.17a8.65,8.65,0,0,1-8.63-8.64v-8.29c0-5.68,3.94-11.82,10.31-11.82,1.93,0,7,.07,11.48.14a29.78,29.78,0,0,1,29.32,29.78v20a8.62,8.62,0,0,1-8.63,8.63Z" transform="translate(-215.15 -436.14)"/><path class="b" d="M314.46,508.37c1.92,0,7,.07,11.41.14a25.36,25.36,0,0,1,14.47,4.8h0a25.39,25.39,0,0,1,10.53,20.58v20a4.23,4.23,0,0,1-4.24,4.23,4.75,4.75,0,0,1-1.76-.35,4.14,4.14,0,0,1-2.47-3.85v-4.45a4.23,4.23,0,0,0-4.23-4.23l-.41,0a4.35,4.35,0,0,0-3.82,4.39v-.18a4.23,4.23,0,0,1-4.23,4.23,4.71,4.71,0,0,1-1.76-.35,4.14,4.14,0,0,1-2.47-3.85v-17a4.23,4.23,0,0,0-4.23-4.23h-8.47a4.24,4.24,0,0,1-4.23-4.24v-8.29c0-3.54,2.36-7.42,5.91-7.42m0-8.8c-8.11,0-14.71,7.28-14.71,16.22v8.29a13.05,13.05,0,0,0,13,13h3.9V549.5a12.83,12.83,0,0,0,7.95,12,13.38,13.38,0,0,0,5.08,1,13,13,0,0,0,6-1.45,12.56,12.56,0,0,0,5.86,4.86,13.38,13.38,0,0,0,5.08,1,13,13,0,0,0,13-13v-20A34.18,34.18,0,0,0,326,499.71c-4.51-.07-9.61-.14-11.55-.14Z" transform="translate(-215.15 -436.14)"/><path class="f" d="M346.63,579.45a8.64,8.64,0,1,1,8.63-8.63A8.64,8.64,0,0,1,346.63,579.45Z" transform="translate(-215.15 -436.14)"/><path class="b" d="M346.63,566.58a4.24,4.24,0,1,1-4.23,4.23,4.23,4.23,0,0,1,4.23-4.23m0-8.8a13,13,0,1,0,13,13,13,13,0,0,0-13-13Z" transform="translate(-215.15 -436.14)"/><path class="g" d="M300.11,542.62c-3.11,0-5.6-1.66-7.6-3a11.39,11.39,0,0,0-2.5-1.43h0a11,11,0,0,0-3,.93,16.14,16.14,0,0,1-6,1.49,8.3,8.3,0,0,1-1.81-.19c-3.18-.69-5.27-2.95-7-4.76a12.67,12.67,0,0,0-2-1.9,3.89,3.89,0,0,0-1.19-.13c-.72,0-1.45.07-2.18.14-1,.08-1.9.15-2.79.15a9.74,9.74,0,0,1-5.19-1.28c-3.23-2-4.35-5.43-5.16-7.93a12.31,12.31,0,0,0-.89-2.32,16.11,16.11,0,0,0-2.35-2.06c-2.33-1.82-5.53-4.32-5.53-8.49V495.58a4.39,4.39,0,0,1,4.4-4.4H350.88a4.39,4.39,0,0,1,4.4,4.4v16.27c0,4.18-3.2,6.67-5.53,8.49a16.11,16.11,0,0,0-2.35,2.06,12.31,12.31,0,0,0-.89,2.32c-.81,2.51-1.93,5.94-5.16,7.93a9.76,9.76,0,0,1-5.19,1.29h0c-.89,0-1.83-.08-2.79-.16-.73-.07-1.46-.14-2.18-.14a3.56,3.56,0,0,0-1.2.14,12.4,12.4,0,0,0-2,1.88c-1.69,1.82-3.79,4.08-7,4.77a8.32,8.32,0,0,1-1.82.19,16.24,16.24,0,0,1-6-1.49,11,11,0,0,0-3-.93,10.52,10.52,0,0,0-2.55,1.43C305.71,541,303.22,542.62,300.11,542.62Z" transform="translate(-215.15 -436.14)"/><path class="b" d="M350.88,495.58v16.27c0,3.19-4.7,5-6.92,7.82-1.85,2.31-1.83,7.33-4.92,9.23a5.45,5.45,0,0,1-2.88.64c-1.56,0-3.31-.3-5-.3a7.89,7.89,0,0,0-2.73.41c-2.92,1.08-5,5.74-8.36,6.48a4.31,4.31,0,0,1-.88.09c-2.76,0-6-2.42-9-2.42a4.36,4.36,0,0,0-.51,0c-3.17.32-6.27,4.39-9.64,4.39s-6.46-4.07-9.64-4.39a4.36,4.36,0,0,0-.51,0c-2.94,0-6.19,2.42-9,2.42a4.31,4.31,0,0,1-.88-.09c-3.36-.74-5.44-5.4-8.36-6.48a7.89,7.89,0,0,0-2.73-.41c-1.66,0-3.41.29-5,.29a5.45,5.45,0,0,1-2.88-.63c-3.09-1.9-3.07-6.92-4.92-9.24-2.22-2.79-6.92-4.62-6.92-7.81V495.58H350.88m0-8.8H249.34a8.8,8.8,0,0,0-8.8,8.8v16.27c0,6.32,4.7,10,7.23,12,.42.32,1,.78,1.37,1.1.12.33.27.79.39,1.15.9,2.8,2.42,7.48,7,10.33a13.93,13.93,0,0,0,7.49,1.94c1,0,2.08-.09,3.17-.18.4,0,.81-.08,1.21-.1l.56.6c1.89,2,4.73,5.08,9.24,6.07A13.26,13.26,0,0,0,281,545a20,20,0,0,0,7.59-1.8l.87-.34.61.41c2.23,1.48,5.6,3.73,10,3.73s7.81-2.25,10-3.73l.62-.41.86.34a20.13,20.13,0,0,0,7.59,1.8,13.26,13.26,0,0,0,2.76-.29c4.51-1,7.36-4.05,9.24-6.07l.56-.59c.44,0,.82.06,1.21.09,1.09.09,2.16.18,3.17.18a13.93,13.93,0,0,0,7.49-1.94c4.62-2.84,6.14-7.53,7-10.33.12-.36.27-.82.39-1.15.35-.31.94-.77,1.37-1.1,2.53-2,7.24-5.64,7.24-12V495.58a8.81,8.81,0,0,0-8.81-8.8Z" transform="translate(-215.15 -436.14)"/><path class="d" d="M300.11,523.67c-30.94,0-55.17-13.08-55.17-29.79,0-.05,0-.48,0-.53a52.94,52.94,0,0,1,52.94-52.81h4.44a53,53,0,0,1,52.95,53C355.28,510.59,331.05,523.67,300.11,523.67Z" transform="translate(-215.15 -436.14)"/><path class="b" d="M302.33,444.94a48.55,48.55,0,0,1,48.55,48.56h0c0,.12,0,.25,0,.38,0,14-22.73,25.39-50.77,25.39s-50.77-11.37-50.77-25.39c0-.13,0-.26,0-.38h0a48.56,48.56,0,0,1,48.55-48.56h4.44m0-8.8h-4.44a57.42,57.42,0,0,0-57.35,57.36v.38c0,19.49,25.61,34.19,59.57,34.19s59.58-14.7,59.58-34.19v-.15c0-.08,0-.16,0-.23a57.42,57.42,0,0,0-57.36-57.36Z" transform="translate(-215.15 -436.14)"/><path class="h" d="M288.68,458.84a35.46,35.46,0,0,1,9.21-1.2M262,493.07a35.82,35.82,0,0,1,13.22-27.36M262,493.92" transform="translate(-215.15 -436.14)"/><rect class="f" x="156.72" y="41.42" width="17.26" height="59.57" rx="4.4"/><path class="b" d="M384.73,482v50.77h-8.46V482h8.46m0-8.8h-8.46a8.8,8.8,0,0,0-8.8,8.8v50.77a8.8,8.8,0,0,0,8.8,8.81h8.46a8.8,8.8,0,0,0,8.8-8.81V482a8.8,8.8,0,0,0-8.8-8.8Z" transform="translate(-215.15 -436.14)"/><rect class="f" x="156.72" y="16.03" width="17.26" height="59.57" rx="4.4"/><path class="b" d="M384.73,456.57v50.78h-8.46V456.57h8.46m0-8.8h-8.46a8.8,8.8,0,0,0-8.8,8.8v50.78a8.8,8.8,0,0,0,8.8,8.8h8.46a8.8,8.8,0,0,0,8.8-8.8V456.57a8.8,8.8,0,0,0-8.8-8.8Z" transform="translate(-215.15 -436.14)"/><rect class="f" x="156.72" y="58.34" width="17.26" height="59.57" rx="4.4"/><path class="b" d="M384.73,498.89v50.77h-8.46V498.89h8.46m0-8.81h-8.46a8.8,8.8,0,0,0-8.8,8.81v50.77a8.8,8.8,0,0,0,8.8,8.8h8.46a8.8,8.8,0,0,0,8.8-8.8V498.89a8.8,8.8,0,0,0-8.8-8.81Z" transform="translate(-215.15 -436.14)"/><rect class="f" x="156.72" y="32.96" width="17.26" height="59.57" rx="4.4"/><path class="b" d="M384.73,473.5v50.77h-8.46V473.5h8.46m0-8.8h-8.46a8.8,8.8,0,0,0-8.8,8.8v50.77a8.8,8.8,0,0,0,8.8,8.8h8.46a8.8,8.8,0,0,0,8.8-8.8V473.5a8.8,8.8,0,0,0-8.8-8.8Z" transform="translate(-215.15 -436.14)"/><rect class="f" x="190.57" y="41.42" width="17.26" height="59.57" rx="4.4"/><path class="b" d="M418.58,482v50.77h-8.46V482h8.46m0-8.8h-8.46a8.8,8.8,0,0,0-8.8,8.8v50.77a8.8,8.8,0,0,0,8.8,8.81h8.46a8.8,8.8,0,0,0,8.8-8.81V482a8.8,8.8,0,0,0-8.8-8.8Z" transform="translate(-215.15 -436.14)"/><rect class="f" x="190.57" y="16.03" width="17.26" height="59.57" rx="4.4"/><path class="b" d="M418.58,456.57v50.78h-8.46V456.57h8.46m0-8.8h-8.46a8.8,8.8,0,0,0-8.8,8.8v50.78a8.8,8.8,0,0,0,8.8,8.8h8.46a8.8,8.8,0,0,0,8.8-8.8V456.57a8.8,8.8,0,0,0-8.8-8.8Z" transform="translate(-215.15 -436.14)"/><rect class="f" x="190.57" y="58.34" width="17.26" height="59.57" rx="4.4"/><path class="b" d="M418.58,498.89v50.77h-8.46V498.89h8.46m0-8.81h-8.46a8.8,8.8,0,0,0-8.8,8.81v50.77a8.8,8.8,0,0,0,8.8,8.8h8.46a8.8,8.8,0,0,0,8.8-8.8V498.89a8.8,8.8,0,0,0-8.8-8.81Z" transform="translate(-215.15 -436.14)"/><rect class="f" x="190.57" y="32.96" width="17.26" height="59.57" rx="4.4"/><path class="b" d="M418.58,473.5v50.77h-8.46V473.5h8.46m0-8.8h-8.46a8.8,8.8,0,0,0-8.8,8.8v50.77a8.8,8.8,0,0,0,8.8,8.8h8.46a8.8,8.8,0,0,0,8.8-8.8V473.5a8.8,8.8,0,0,0-8.8-8.8Z" transform="translate(-215.15 -436.14)"/><rect class="f" x="173.65" y="66.81" width="17.26" height="59.57" rx="4.4"/><path class="b" d="M401.66,507.35v50.77H393.2V507.35h8.46m0-8.8H393.2a8.8,8.8,0,0,0-8.8,8.8v50.77a8.8,8.8,0,0,0,8.8,8.8h8.46a8.8,8.8,0,0,0,8.8-8.8V507.35a8.8,8.8,0,0,0-8.8-8.8Z" transform="translate(-215.15 -436.14)"/><rect class="f" x="173.65" y="41.42" width="17.26" height="59.57" rx="4.4"/><path class="b" d="M401.66,482v50.77H393.2V482h8.46m0-8.8H393.2a8.8,8.8,0,0,0-8.8,8.8v50.77a8.8,8.8,0,0,0,8.8,8.81h8.46a8.8,8.8,0,0,0,8.8-8.81V482a8.8,8.8,0,0,0-8.8-8.8Z" transform="translate(-215.15 -436.14)"/><rect class="f" x="173.65" y="83.73" width="17.26" height="59.57" rx="4.4"/><path class="b" d="M401.66,524.27v50.78H393.2V524.27h8.46m0-8.8H393.2a8.8,8.8,0,0,0-8.8,8.8v50.78a8.8,8.8,0,0,0,8.8,8.8h8.46a8.8,8.8,0,0,0,8.8-8.8V524.27a8.8,8.8,0,0,0-8.8-8.8Z" transform="translate(-215.15 -436.14)"/><rect class="f" x="173.65" y="58.34" width="17.26" height="59.57" rx="4.4"/><path class="b" d="M401.66,498.89v50.77H393.2V498.89h8.46m0-8.81H393.2a8.8,8.8,0,0,0-8.8,8.81v50.77a8.8,8.8,0,0,0,8.8,8.8h8.46a8.8,8.8,0,0,0,8.8-8.8V498.89a8.8,8.8,0,0,0-8.8-8.81Z" transform="translate(-215.15 -436.14)"/></svg>