<svg id="Layer_2" data-name="Layer 2" xmlns="http://www.w3.org/2000/svg" viewBox="0 0 62 56"><title>foodIcon</title><path d="M314.76,399.15a7,7,0,0,1-6.93-6H283.76v-40h7v2h-5v36h24v1a5,5,0,0,0,10,0v-1h24v-36h-5v-2h7v40H321.69A7,7,0,0,1,314.76,399.15Z" transform="translate(-283.76 -343.15)"/><path d="M339.76,387.15h-50v-44H305.1a14.54,14.54,0,0,1,9.66,3.63,14.54,14.54,0,0,1,9.66-3.63h15.34Zm-48-2h46v-40H324.42a12.58,12.58,0,0,0-8.95,3.71l-.71.7-.71-.7a12.58,12.58,0,0,0-8.95-3.71H291.76Z" transform="translate(-283.76 -343.15)"/><rect x="30" y="5" width="2" height="19"/><rect x="30" y="26" width="2" height="17"/><path d="M301.76,383.15a3,3,0,0,1-3-3v-18a1.05,1.05,0,0,0-.48-.85,6,6,0,0,1-2.52-4.88c0-3.27,2.28-9.27,6-9.27s6,6,6,9.27a6,6,0,0,1-2.52,4.88,1.05,1.05,0,0,0-.48.85v18A3,3,0,0,1,301.76,383.15Zm0-34c-2.19,0-4,4.81-4,7.27a4,4,0,0,0,1.68,3.25,3.07,3.07,0,0,1,1.32,2.48v18a1,1,0,0,0,2,0v-18a3.07,3.07,0,0,1,1.32-2.48,4,4,0,0,0,1.68-3.25C305.76,354,304,349.15,301.76,349.15Z" transform="translate(-283.76 -343.15)"/><rect x="45" y="4" width="2" height="10.2"/><rect x="41" y="4" width="2" height="10.2"/><path d="M327.76,383.15a3,3,0,0,1-3-3v-14.6a8.13,8.13,0,0,0-1.78-5.07,10.19,10.19,0,0,1-2.22-6.33v-7h2v7a8.16,8.16,0,0,0,1.78,5.08,10.16,10.16,0,0,1,2.22,6.32v14.6a1,1,0,0,0,2,0v-14.6a10.16,10.16,0,0,1,2.22-6.32,8.16,8.16,0,0,0,1.78-5.08v-7h2v7a10.19,10.19,0,0,1-2.22,6.33,8.13,8.13,0,0,0-1.78,5.07v14.6A3,3,0,0,1,327.76,383.15Z" transform="translate(-283.76 -343.15)"/></svg>