<svg id="Layer_2" data-name="Layer 2" xmlns="http://www.w3.org/2000/svg" viewBox="0 0 276.26 368.64"><title>foodPlan</title><path d="M133.92,104.85h19.42a5.76,5.76,0,0,1,5.76,5.76v12.28H322.9V110.61a5.76,5.76,0,0,1,5.76-5.76h19.42a31.12,31.12,0,0,1,31.05,31V390.21a31.14,31.14,0,0,1-31.05,31.05H133.92a31.14,31.14,0,0,1-31-31.05V135.89a31.12,31.12,0,0,1,31-31Zm13.66,11.52H133.92a19.58,19.58,0,0,0-19.53,19.52V390.21a19.6,19.6,0,0,0,19.53,19.53H348.08a19.6,19.6,0,0,0,19.53-19.53V135.89a19.58,19.58,0,0,0-19.53-19.52H334.42v12.28a5.76,5.76,0,0,1-5.76,5.76H153.34a5.76,5.76,0,0,1-5.76-5.76Z" transform="translate(-102.87 -52.62)"/><path d="M241,134.41H153.34a5.76,5.76,0,0,1-5.76-5.76V97.35a5.76,5.76,0,0,1,5.76-5.77,4.19,4.19,0,0,1,.5,0c1.9,0,9.47-.27,15.54-2.83,7.67-3.23,6.9-13.3,6.23-22.25-.22-2.86-.43-5.62-.43-8.15a5.76,5.76,0,0,1,5.76-5.76H301.06a5.76,5.76,0,0,1,5.76,5.76c0,2.53-.21,5.29-.42,8.15-.68,9-1.45,19,6.22,22.25,6.87,2.89,15.65,2.83,16,2.83v0a5.76,5.76,0,0,1,5.82,5.7v.06h0v31.3a5.76,5.76,0,0,1-5.76,5.76Zm-81.9-11.52H322.9V102.78a52.38,52.38,0,0,1-14.74-3.43c-15.3-6.44-14.21-20.87-13.24-33.68l.11-1.53H187l.11,1.53c1,12.81,2.06,27.24-13.24,33.68a52.38,52.38,0,0,1-14.74,3.43Z" transform="translate(-102.87 -52.62)"/><path d="M169.62,168.44A5.75,5.75,0,1,0,161,176l11,12.49h0a5.75,5.75,0,0,0,8.13.51,3.92,3.92,0,0,0,.46-.45l25.14-24a5.75,5.75,0,0,0-7.92-8.33l-21.12,20.17Z" transform="translate(-102.87 -52.62)"/><path d="M264.9,166.82a5.76,5.76,0,1,0,0,11.52h51.8a5.76,5.76,0,0,0,0-11.52Z" transform="translate(-102.87 -52.62)"/><path d="M169.62,228.75a5.75,5.75,0,1,0-8.63,7.6l11,12.5h0a5.76,5.76,0,0,0,8.13.52,5,5,0,0,0,.46-.46l25.14-24a5.74,5.74,0,1,0-7.92-8.32l-21.12,20.16Z" transform="translate(-102.87 -52.62)"/><path d="M264.9,227.14a5.76,5.76,0,1,0,0,11.52h51.8a5.76,5.76,0,0,0,0-11.52Z" transform="translate(-102.87 -52.62)"/><path d="M169.62,289.06a5.75,5.75,0,1,0-8.63,7.61l11,12.49,4.32-3.81L172,309.16a5.76,5.76,0,0,0,8.13.52,5,5,0,0,0,.46-.46l25.14-24a5.74,5.74,0,0,0-7.92-8.32l-21.12,20.16Z" transform="translate(-102.87 -52.62)"/><path d="M264.9,287.45a5.76,5.76,0,1,0,0,11.52h51.8a5.76,5.76,0,0,0,0-11.52Z" transform="translate(-102.87 -52.62)"/><path d="M169.62,349.37A5.75,5.75,0,1,0,161,357l11,12.49h0a5.76,5.76,0,0,0,8.13.52,4.91,4.91,0,0,0,.46-.45l25.14-24a5.74,5.74,0,0,0-7.92-8.32l-21.12,20.16Z" transform="translate(-102.87 -52.62)"/><path d="M264.9,347.76a5.76,5.76,0,0,0,0,11.52h51.8a5.76,5.76,0,0,0,0-11.52Z" transform="translate(-102.87 -52.62)"/></svg>