<svg id="Warstwa_2" data-name="Warstwa 2" xmlns="http://www.w3.org/2000/svg" viewBox="0 0 563.25 559.85"><defs><style>.cls-1{fill:#6e6465;}.cls-2{fill:#503748;}.cls-3{fill:#e2393d;}.cls-4{fill:#dbdadb;}.cls-5{fill:#f3d16a;}.cls-6{fill:#fcd3ab;}.cls-7{fill:#00a898;}</style></defs><path class="cls-1" d="M809.39,912.74c-93.58,0-166.88-41.59-166.88-94.68V762.37c0-6.16,4.67-11.14,10.43-11.14h312.9c5.76,0,10.43,5,10.43,11.14v55.69C976.27,871.15,903,912.74,809.39,912.74Z" transform="translate(-527.43 -364.03)"/><path class="cls-2" d="M965.85,762.37v55.69c0,46.14-70.05,83.54-156.46,83.54s-156.45-37.4-156.45-83.54V762.37H965.85m0-22.28H652.94c-11.52,0-20.86,10-20.86,22.28v55.69c0,60.33,76.23,105.82,177.31,105.82s177.32-45.49,177.32-105.82V762.37c0-12.31-9.34-22.28-20.86-22.28Z" transform="translate(-527.43 -364.03)"/><path class="cls-3" d="M809,856.82c-149.53,0-271.18-129.92-271.18-289.61,0-6.15,4.67-11.14,10.43-11.14s10.43,5,10.43,11.14c0,69.43,114.63,128.09,250.32,128.09s250.29-58.64,250.32-128c0-6.15,4.67-11.14,10.43-11.14h0c5.76,0,10.42,5,10.42,11.14C1080.2,726.92,958.55,856.82,809,856.82Z" transform="translate(-527.43 -364.03)"/><path class="cls-2" d="M548.29,567.21c0,76.9,116.74,139.23,260.75,139.23s260.71-62.31,260.75-139.19C1069.77,721,953,845.68,809,845.68h0c-144,0-260.75-124.68-260.75-278.47h0m521.5,0h.06M548.29,544.93c-11.52,0-20.86,10-20.86,22.28,0,80.33,29.29,155.86,82.48,212.66S733.82,868,809,868c154.9,0,281-134.26,281.61-299.54q0-.58,0-1.17c0-12.3-9.31-22.28-20.83-22.28h0c-10.87,0-19.8,8.88-20.78,20.21h0v0h0v0h0v0h0v0h0v0h0v0h0v0h0v0h0v0h0v0h0v0h0v0h0v0h0v0h0v.08h0v0h0v0h0v0h0V566h0V566h0v.08h0v.06h0v.06h0v.08h0v.08h0v.08h0v.06h0v.1h0v0h0v.08h0v0h0v0h0V567h0v0h0v0h0v0h0v0h0v0c0,68.91-126.45,116.93-239.89,116.93s-239.89-48-239.89-117c0-12.3-9.34-22.28-20.86-22.28Z" transform="translate(-527.43 -364.03)"/><ellipse class="cls-4" cx="281.61" cy="203.18" rx="271.18" ry="150.37"/><path class="cls-2" d="M809,428c144,0,260.75,62.33,260.75,139.23S953.05,706.44,809,706.44,548.29,644.11,548.29,567.21,665,428,809,428m0-22.28c-157.91,0-281.61,70.94-281.61,161.51S651.13,728.72,809,728.72s281.62-70.94,281.62-161.51S967,405.7,809,405.7Z" transform="translate(-527.43 -364.03)"/><path class="cls-5" d="M809,717.58c-96.4,0-183.28-27-232.4-72.32a11.5,11.5,0,0,1-3.61-8.43c0-72.55,88.28-147.59,236-147.59,92.36,0,148,27.15,178.43,49.93,36.06,27,57.58,63.51,57.58,97.66a11.5,11.5,0,0,1-3.61,8.43C992.32,690.55,905.44,717.58,809,717.58Z" transform="translate(-527.43 -364.03)"/><path class="cls-2" d="M809,500.38c159.06,0,225.59,82.29,225.59,136.45C989.52,678.4,905.5,706.44,809,706.44s-180.48-28-225.58-69.61c0-63.08,79.56-136.45,225.58-136.45m0-22.28c-90,0-146.92,26.17-178.84,48.12-43,29.54-67.6,69.85-67.6,110.61a22.91,22.91,0,0,0,7.23,16.86c51,47,140.39,75,239.21,75s188.25-28.05,239.22-75a22.94,22.94,0,0,0,7.23-16.86c0-61.37-66.91-158.73-246.45-158.73Z" transform="translate(-527.43 -364.03)"/><path class="cls-5" d="M809,673c-70.84,0-139.6-16.95-184-45.34a11.56,11.56,0,0,1-3.76-15c18.9-36.42,79.41-79,187.72-79,136.13,0,178,60.53,187.55,79.08a11.57,11.57,0,0,1-3.78,14.94C948.45,656.12,879.75,673,809,673Z" transform="translate(-527.43 -364.03)"/><path class="cls-2" d="M809,544.93c112.74,0,163,43.5,178.42,73.32-42.23,27-108.92,43.64-178.42,43.64s-136.38-16.73-178.6-43.75C647,586.23,703.31,544.93,809,544.93m0-22.27c-70.53,0-164.4,22.17-196.84,84.68-5.45,10.5-2.13,23.73,7.52,29.9,45.9,29.39,116.68,46.93,189.32,46.93s143.22-17.5,189.12-46.8c9.65-6.16,13-19.37,7.57-29.88-10.28-19.9-54.85-84.83-196.69-84.83Z" transform="translate(-527.43 -364.03)"/><path class="cls-5" d="M809,628.47a390.11,390.11,0,0,1-97.61-12.18,11,11,0,0,1-7.92-10.15,11.18,11.18,0,0,1,6.72-11.09c27.46-11.08,60.71-16.7,98.81-16.7,38.94,0,72.48,5.53,99.68,16.46a11.19,11.19,0,0,1,6.74,11.07,11,11,0,0,1-7.9,10.16C877,624.18,842.89,628.47,809,628.47Z" transform="translate(-527.43 -364.03)"/><path class="cls-2" d="M809,589.49c42.12,0,73.48,6.7,96,15.74-29.2,7.76-62.51,12.1-96,12.1a380.89,380.89,0,0,1-95.13-11.86c22.34-9,53.4-16,95.13-16m0-22.28c-39.36,0-73.84,5.86-102.5,17.42-8.55,3.45-14,12.43-13.45,22.18s7,18,15.84,20.29c31.17,8.19,65.79,12.51,100.11,12.51,34.68,0,69.62-4.41,101-12.76,8.86-2.35,15.26-10.59,15.79-20.32s-4.93-18.71-13.48-22.15C884,573,849.25,567.21,809,567.21Z" transform="translate(-527.43 -364.03)"/><path class="cls-5" d="M809,717.58c-13,0-26.43-.55-39.95-1.65a10.27,10.27,0,0,1-7.54-4.39,11.71,11.71,0,0,1-1.88-8.95C776,617.24,863.82,553.28,983.32,539.66a8.27,8.27,0,0,1,1.11-.07,10,10,0,0,1,6.17,2.16c34.1,26.73,54.45,62.27,54.45,95.08a11.5,11.5,0,0,1-3.61,8.43C992.32,690.55,905.44,717.58,809,717.58Z" transform="translate(-527.43 -364.03)"/><path class="cls-2" d="M984.43,550.73c34.35,26.92,50.2,59.8,50.2,86.1C989.52,678.4,905.5,706.44,809,706.44c-13.32,0-26.38-.58-39.16-1.61,13.62-71,87.52-139.62,214.55-154.1m0-22.28a18.08,18.08,0,0,0-2.21.13c-124.11,14.15-215.48,81.58-232.77,171.78a23.46,23.46,0,0,0,3.79,17.89A20.52,20.52,0,0,0,768.31,727c13.81,1.12,27.52,1.68,40.73,1.68,98.82,0,188.25-28.05,239.22-75a22.94,22.94,0,0,0,7.23-16.86c0-36.34-22-75.24-58.72-104.06a20,20,0,0,0-12.34-4.32Z" transform="translate(-527.43 -364.03)"/><path class="cls-5" d="M809,717.58c-96.4,0-183.28-27-232.4-72.32a11.5,11.5,0,0,1-3.61-8.43c0-33.9,20.09-68.69,55.14-95.44a10,10,0,0,1,6.06-2.08,9.77,9.77,0,0,1,1.08.06c142.59,15.84,209.23,97.72,223,163a11.73,11.73,0,0,1-1.79,9.07,10.29,10.29,0,0,1-7.6,4.48C835.39,717,822,717.58,809,717.58Z" transform="translate(-527.43 -364.03)"/><path class="cls-2" d="M634.23,550.44c138.1,15.35,200.91,92.75,213.88,154.4-12.75,1-25.78,1.6-39.07,1.6-96.46,0-180.48-28-225.58-69.61,0-29.41,17.51-61,50.77-86.39m0-22.27a20,20,0,0,0-12.13,4.15c-37.82,28.88-59.5,67-59.5,104.51a22.91,22.91,0,0,0,7.23,16.86c51,47,140.39,75,239.21,75,13.19,0,26.87-.56,40.64-1.67a20.58,20.58,0,0,0,15.2-9A23.46,23.46,0,0,0,868.47,700c-8.35-39.66-32.32-77.73-67.5-107.2-42.17-35.33-97.54-57-164.58-64.46a19.55,19.55,0,0,0-2.16-.12Z" transform="translate(-527.43 -364.03)"/><path class="cls-5" d="M805.47,717.52c-94.93-.67-180.47-27.69-228.83-72.26a11.5,11.5,0,0,1-3.61-8.43c0-16.52,4.77-33.31,14.18-49.91a10.3,10.3,0,0,1,8.92-5.37h.28C732.58,585.49,799.52,649.44,815.48,703a11.77,11.77,0,0,1-1.54,10,10.23,10.23,0,0,1-8.4,4.53Z" transform="translate(-527.43 -364.03)"/><path class="cls-2" d="M596.13,592.69c129.7,3.75,194.46,63.48,209.41,113.69-95-.67-177.53-28.48-222.08-69.55,0-14.52,4.4-29.56,12.67-44.14m0-22.28a20.62,20.62,0,0,0-17.85,10.74c-10.41,18.37-15.68,37.1-15.68,55.68a22.91,22.91,0,0,0,7.23,16.86C620,699.94,708.07,728,805.4,728.66h.14a20.44,20.44,0,0,0,16.8-9.07,23.53,23.53,0,0,0,3.08-20c-17-57-87.09-125.12-228.72-129.21Z" transform="translate(-527.43 -364.03)"/><path class="cls-5" d="M757.08,714.84c-75.38-8-141.16-33.37-180.44-69.58a11.65,11.65,0,0,1-3-12.32,10.48,10.48,0,0,1,9.78-7.25c123.43,0,169.26,50.15,183.23,71.73a11.75,11.75,0,0,1,.42,12,10.35,10.35,0,0,1-9,5.49C757.78,714.89,757.43,714.87,757.08,714.84Z" transform="translate(-527.43 -364.03)"/><path class="cls-2" d="M583.46,636.83c104.91,0,155.7,37.66,174.66,66.92-74.63-7.92-137.71-32.86-174.66-66.92m0-22.28c-8.72,0-16.52,5.79-19.56,14.51a23.3,23.3,0,0,0,5.93,24.63c40.87,37.68,108.75,64,186.22,72.23a20.15,20.15,0,0,0,20-10.86,23.53,23.53,0,0,0-.82-24c-14.91-23-63.45-76.53-191.81-76.53Z" transform="translate(-527.43 -364.03)"/><path class="cls-5" d="M812.37,717.52A10.23,10.23,0,0,1,804,713a11.74,11.74,0,0,1-1.61-9.9c16.46-57.68,90.59-117.65,219.06-121.59h.3a10.29,10.29,0,0,1,8.92,5.36c9.41,16.55,14.38,33.82,14.38,49.93a11.5,11.5,0,0,1-3.61,8.43c-48.39,44.61-134,71.62-229,72.26Z" transform="translate(-527.43 -364.03)"/><path class="cls-2" d="M1021.75,592.68c8.72,15.32,12.88,30.61,12.88,44.15C990,677.92,907.42,705.74,812.37,706.38c15.67-54.89,88.23-110,209.38-113.7m0-22.28h-.6c-96.31,3-204.39,44.14-228.75,129.48a23.54,23.54,0,0,0,3.23,19.81,20.46,20.46,0,0,0,16.73,9h.13c97.41-.65,185.54-28.68,235.76-75a22.94,22.94,0,0,0,7.23-16.86c0-18.16-5.5-37.42-15.91-55.72a20.6,20.6,0,0,0-17.82-10.71Z" transform="translate(-527.43 -364.03)"/><path class="cls-5" d="M859.72,714.91a10.31,10.31,0,0,1-9-5.53,11.75,11.75,0,0,1,.48-12c22.87-34.65,83-71.67,183.42-71.67a10.48,10.48,0,0,1,9.78,7.25,11.65,11.65,0,0,1-3,12.32c-39.33,36.26-105.19,61.62-180.68,69.6A9.05,9.05,0,0,1,859.72,714.91Z" transform="translate(-527.43 -364.03)"/><path class="cls-2" d="M1034.63,636.83h0m0,0c-37,34.09-100.17,59-174.9,66.94,20.32-30.79,76-66.94,174.9-66.94m0-22.28h0c-131.34,0-180.13,58.47-192,76.39a23.55,23.55,0,0,0-1,24,20.65,20.65,0,0,0,18,11.06,17.77,17.77,0,0,0,2.06-.11c77.3-8.16,145.06-34.33,186-71.84a22.8,22.8,0,0,0,7.7-17.27c0-12.31-9.31-22.28-20.83-22.28Z" transform="translate(-527.43 -364.03)"/><path class="cls-3" d="M990.32,817.3c-10.42,0-19.31-8.33-20.67-19.37l-49-397.57a23.19,23.19,0,0,1,4.13-16.47,20.5,20.5,0,0,1,13.82-8.53,19.62,19.62,0,0,1,2.74-.19c10.42,0,19.31,8.33,20.67,19.37l49,397.57a23.25,23.25,0,0,1-4.13,16.47,20.48,20.48,0,0,1-13.82,8.52A19.76,19.76,0,0,1,990.32,817.3Z" transform="translate(-527.43 -364.03)"/><path class="cls-2" d="M941.33,386.31A10.69,10.69,0,0,1,951.66,396l49,397.56c.75,6.1-3.27,11.7-9,12.5a10.29,10.29,0,0,1-11.7-9.59L931,398.9c-.76-6.09,3.27-11.69,9-12.49a9.12,9.12,0,0,1,1.37-.1m0-22.28a30.08,30.08,0,0,0-4.1.29,30.77,30.77,0,0,0-20.74,12.79,34.9,34.9,0,0,0-6.2,24.7l49,397.57c2,16.56,15.37,29,31,29a29.8,29.8,0,0,0,4.09-.28,30.75,30.75,0,0,0,20.74-12.79,34.88,34.88,0,0,0,6.2-24.71l-49-397.56c-2-16.57-15.37-29.06-31-29.06Z" transform="translate(-527.43 -364.03)"/><path class="cls-3" d="M1038.49,807.06c-9.41,0-17.69-6.79-20.14-16.5L921.17,403.22a23.46,23.46,0,0,1,2.08-16.91,21,21,0,0,1,12.66-10.37,19.61,19.61,0,0,1,5.42-.77c9.41,0,17.7,6.79,20.14,16.51L1058.65,779c3,11.86-3.64,24.1-14.74,27.28A19.54,19.54,0,0,1,1038.49,807.06Z" transform="translate(-527.43 -364.03)"/><path class="cls-2" d="M941.32,386.31a10.56,10.56,0,0,1,10.07,8.26l97.19,387.33c1.49,5.94-1.82,12.05-7.38,13.64a9.74,9.74,0,0,1-2.7.39,10.58,10.58,0,0,1-10.07-8.26L931.24,400.34c-1.49-5.95,1.82-12,7.38-13.65a9.72,9.72,0,0,1,2.7-.38m0-22.28h0a29.73,29.73,0,0,0-8.1,1.14,31.45,31.45,0,0,0-19,15.57,35.2,35.2,0,0,0-3.13,25.36l97.19,387.33c3.66,14.59,16.08,24.77,30.22,24.77a29.35,29.35,0,0,0,8.1-1.14c16.67-4.77,26.59-23.13,22.13-40.92L971.54,388.8C967.88,374.22,955.46,364,941.32,364Z" transform="translate(-527.43 -364.03)"/><path class="cls-6" d="M631.65,572.78a30.8,30.8,0,0,1-24.76-13.14,34.9,34.9,0,0,1-5.36-28.95l31.6-126c3.66-14.58,16.12-24.78,30.31-24.78a30.05,30.05,0,0,1,22,9.81L771.82,482a34.62,34.62,0,0,1,8.1,32.28c-2.93,11.67-11.2,20.5-22.13,23.63L639.85,571.61A29.49,29.49,0,0,1,631.65,572.78Z" transform="translate(-527.43 -364.03)"/><path class="cls-2" d="M663.44,391.09a19.91,19.91,0,0,1,14.66,6.54l86.34,92.21c11.36,12.12,6.16,32.83-9.35,37.27L637.15,560.86a20,20,0,0,1-5.5.78c-13.15,0-23.71-13.49-20-28.07l31.6-126c2.63-10.46,11.32-16.53,20.24-16.53m0-22.27h0c-18.9,0-35.51,13.58-40.39,33l-31.6,126a46.58,46.58,0,0,0,7.17,38.61c7.87,11,20.22,17.5,33,17.5a39.75,39.75,0,0,0,10.9-1.54l117.94-33.75c14.57-4.17,25.6-16,29.5-31.51a46.14,46.14,0,0,0-10.8-43l-86.34-92.2a40,40,0,0,0-29.41-13.06Z" transform="translate(-527.43 -364.03)"/><ellipse class="cls-6" cx="164.35" cy="111.2" rx="31.29" ry="33.42"/><path class="cls-2" d="M691.77,453c11.52,0,20.86,10,20.86,22.28s-9.34,22.28-20.86,22.28-20.86-10-20.86-22.28S680.25,453,691.77,453m0-22.28c-23,0-41.72,20-41.72,44.56s18.72,44.55,41.72,44.55,41.72-20,41.72-44.55-18.71-44.56-41.72-44.56Z" transform="translate(-527.43 -364.03)"/><path class="cls-6" d="M673.37,572.78a30.8,30.8,0,0,1-24.76-13.14,34.9,34.9,0,0,1-5.36-28.95l31.6-126C678.51,390.15,691,380,705.16,380a30.05,30.05,0,0,1,22,9.81L813.54,482a34.62,34.62,0,0,1,8.1,32.28c-2.93,11.67-11.2,20.5-22.13,23.63L681.57,571.61A29.49,29.49,0,0,1,673.37,572.78Z" transform="translate(-527.43 -364.03)"/><path class="cls-2" d="M705.16,391.09a19.91,19.91,0,0,1,14.66,6.54l86.34,92.21c11.36,12.12,6.16,32.83-9.35,37.27L678.87,560.86a20,20,0,0,1-5.49.78c-13.16,0-23.72-13.49-20.06-28.07l31.6-126c2.63-10.46,11.32-16.53,20.24-16.53m0-22.27h0c-18.9,0-35.51,13.58-40.39,33l-31.6,126a46.58,46.58,0,0,0,7.17,38.61c7.87,11,20.22,17.5,33,17.5a39.73,39.73,0,0,0,10.89-1.54l117.94-33.75c14.57-4.17,25.6-16,29.5-31.51a46.14,46.14,0,0,0-10.8-43l-86.34-92.2a40,40,0,0,0-29.41-13.06Z" transform="translate(-527.43 -364.03)"/><ellipse class="cls-6" cx="206.07" cy="111.2" rx="31.29" ry="33.42"/><path class="cls-2" d="M733.49,453c11.52,0,20.86,10,20.86,22.28s-9.34,22.28-20.86,22.28-20.86-10-20.86-22.28S722,453,733.49,453m0-22.28c-23,0-41.72,20-41.72,44.56s18.72,44.55,41.72,44.55,41.72-20,41.72-44.55-18.71-44.56-41.72-44.56Z" transform="translate(-527.43 -364.03)"/><path class="cls-7" d="M823.47,617.38c-9.34,0-18.12-3.71-23.84-6.83a28.85,28.85,0,0,1-12.24-13.07c-4.19-8.78-8.51-22-5.26-34.94,4.82-19.2,22.8-29.39,24.83-30.49a9.77,9.77,0,0,1,4.7-1.21,10.25,10.25,0,0,1,8.74,5c.14.23.68,1.13,1.42,2.56a70.23,70.23,0,0,1,25.54-4.84c1.4,0,2.19,0,2.19,0a10.85,10.85,0,0,1,9.84,10.51,84.72,84.72,0,0,1-4.5,29.6c1.35.8,2.2,1.37,2.41,1.53a11.58,11.58,0,0,1,3.61,14.36c-1,2.17-10.58,21.37-28.56,26.51A32.44,32.44,0,0,1,823.47,617.38Z" transform="translate(-527.43 -364.03)"/><path class="cls-2" d="M811.67,542a53.44,53.44,0,0,1,5,11.79c11.29-8.29,25.88-9,30.7-9,1,0,1.63,0,1.63,0s1,19.87-8.42,34.52a47.35,47.35,0,0,1,11,5.32s-8,16.79-22,20.79a22.12,22.12,0,0,1-6.18.83c-7.34,0-14.54-3.13-19.1-5.61a18.2,18.2,0,0,1-7.68-8.21c-3-6.24-7-17.12-4.49-27,3.76-15,19.47-23.45,19.47-23.45m0-22.28a19.8,19.8,0,0,0-9.41,2.4c-2.46,1.33-24.2,13.68-30.2,37.56-4.11,16.38,1,32.36,6.05,42.89a39.66,39.66,0,0,0,16.79,17.92c6.74,3.67,17.17,8,28.58,8a41.89,41.89,0,0,0,11.58-1.59c22.36-6.4,33.92-29.62,35.16-32.25a23.47,23.47,0,0,0-3.15-25,96.6,96.6,0,0,0,2.75-26.09c-.58-11.28-9.14-20.32-19.69-21,0,0-1-.07-2.77-.07a82.37,82.37,0,0,0-21.67,3,20.19,20.19,0,0,0-14-5.77Z" transform="translate(-527.43 -364.03)"/></svg>