<svg id="Warstwa_2" data-name="Warstwa 2" xmlns="http://www.w3.org/2000/svg" xmlns:xlink="http://www.w3.org/1999/xlink" viewBox="0 0 309.33 396.5"><defs><style>.clsa-1{fill:#d1d3d4;}.clsa-2{fill:#231f20;}.clsa-3{fill:url(#linear-gradient);}.clsa-4{fill:url(#linear-gradient-2);}.clsa-5{fill:#e0b088;}.clsa-6{fill:#58595b;}.clsa-7{fill:#99775e;}.clsa-8{fill:#6d6e71;}.clsa-9{fill:#e86436;}.clsa-10{fill:#414042;}</style><linearGradient id="linear-gradient" x1="37" y1="99.99" x2="37" y2="23.33" gradientUnits="userSpaceOnUse"><stop offset="0"/><stop offset="0.5" stop-color="#6d6e71"/><stop offset="1"/></linearGradient><linearGradient id="linear-gradient-2" x1="272.33" y1="99.99" x2="272.33" y2="23.33" xlink:href="#linear-gradient"/></defs><ellipse class="a-1" cx="155.42" cy="376.68" rx="101.11" ry="19.82"/><rect class="clsa-2" y="56.83" width="309.33" height="9.67" rx="4.83"/><rect class="clsa-3" x="30" y="23.33" width="14" height="76.67" rx="5.58"/><rect class="clsa-4" x="265.33" y="23.33" width="14" height="76.67" rx="5.58"/><rect class="clsa-2" x="279.33" y="51.66" width="5.33" height="20"/><rect class="clsa-2" x="24.67" y="51.66" width="5.33" height="20"/><path class="clsa-5" d="M615.41,303.62s-.9,7.16,2.33,7.16c0,0,1.79,5.92,4.48,1.26,0,0,.89,4.12,3.22.36a5,5,0,0,0,3.47-3.6s-1.5-1.24,3-1.78c0,0-.54-7.13-4.66-4.46,0,0-2.33-3-4.67,0,0,0-2.33-3.57-3.76,0C618.81,302.56,615.51,300.93,615.41,303.62Z" transform="translate(-536.88 -251.17)"/><path class="clsa-5" d="M617.74,310.78s.17-5,.71-6.09" transform="translate(-536.88 -251.17)"/><path class="clsa-5" d="M622.22,312a47.73,47.73,0,0,1,0-7.35" transform="translate(-536.88 -251.17)"/><path class="clsa-5" d="M625.8,310.78s-.18-5.91,0-6.81" transform="translate(-536.88 -251.17)"/><path class="clsa-5" d="M644.63,494.41s.71,18.91,1.07,24.29c0,0-4,8.24,0,13.26,0,0-6.35,22.61-4.63,46.6a109,109,0,0,1-.3,12.9h16.79s0-13.62,2.86-20.07,11.71-23.66,8.49-35.49c0,0,8.72-7,12.66-36.14S646.79,481.44,644.63,494.41Z" transform="translate(-536.88 -251.17)"/><path d="M657.53,591.46s-.72,9.32,0,12.19S664,626.59,661.3,628s-10.94,1.43-10.94,1.43,1.26,4.3-7.8,4.3H623.83s-2.87-5.73,5.38-12.9,9.09-15.06,11.53-16.13,0-13.27,0-13.27Z" transform="translate(-536.88 -251.17)"/><path class="clsa-2" d="M642.56,634.3H623.83a.53.53,0,0,1-.48-.3c-.13-.25-3-6.19,5.5-13.55a35.23,35.23,0,0,0,8.75-12.06c1-2.12,1.79-3.66,2.93-4.15s.82-7-.32-12.67a.54.54,0,0,1,.53-.64h16.79a.52.52,0,0,1,.39.17.56.56,0,0,1,.14.41c0,.09-.7,9.26,0,12,.08.32.22.85.41,1.55,4.16,15.6,5.06,22.39,3.09,23.43-2.38,1.27-8.62,1.46-10.6,1.49a3.18,3.18,0,0,1-.65,1.93C649.11,633.5,646.51,634.3,642.56,634.3Zm-18.37-1.07h18.37c4.45,0,6.19-1.05,6.86-1.93a2.05,2.05,0,0,0,.42-1.69.56.56,0,0,1,.09-.47.53.53,0,0,1,.43-.22c.08,0,8.14,0,10.68-1.37.61-.32,1.47-3.13-3.62-22.2-.19-.71-.34-1.24-.42-1.57-.63-2.53-.2-9.67,0-11.78H641.39c.68,3.52,2,12.13-.43,13.22-.77.34-1.49,1.8-2.39,3.65a36.3,36.3,0,0,1-9,12.39C622.72,627.22,623.76,632,624.19,633.23Z" transform="translate(-536.88 -251.17)"/><path class="clsa-6" d="M625.26,631.61s2.51-7.52,4.66-7.52,3.59,1.79,5.74,3.76,4,3.76,7,3.76Z" transform="translate(-536.88 -251.17)"/><path class="clsa-5" d="M769.84,314.55c-5.2-.9-10.22,1.79-10.22,1.79-1.08-1.79-7-2.51-7-2.51.54-.89-1.08-2.87-1.08-2.87,2.51-.35,3.05-3.4,3.05-3.4s1.79-.72-3.4-.54-3.23,3.41-3.77,7.89,8.25,10.57,8.25,10.57c-3.93,5.89-8.43,17.21-7.35,23.3-2.87-6.45-6.63-9-6.63-9,0-25.63-21.15-24.38-21.15-24.38-7.43-15.2-26.79-13.19-29-12.91-2.21-.28-21.57-2.29-29,12.91,0,0-21.15-1.25-21.15,24.38,0,0-3.76,2.51-6.63,9,1.08-6.09-3.42-17.41-7.35-23.3,0,0,8.79-6.09,8.25-10.57s1.43-7.71-3.76-7.89-3.41.54-3.41.54.54,3.05,3,3.4c0,0-1.62,2-1.08,2.87,0,0-5.91.72-7,2.51,0,0-5-2.69-10.22-1.79,0,0-.35,8.78,3.59,10.39,0,0-5.2,30.12,9.5,43.2,0,0-1.79,12.19,4.48,7.89,0,0,21.33,1.25,23.48-16.85,0,0,3.07,17.2,5.58,24.73s3,12.91,1.8,15.42-3.08,17.56-3.08,17.56h65.89s-1.82-15.05-3.08-17.56-.71-7.89,1.8-15.42,5.58-24.73,5.58-24.73c2.15,18.1,23.48,16.85,23.48,16.85,6.27,4.3,4.48-7.89,4.48-7.89,14.7-13.08,9.5-43.2,9.5-43.2C770.19,323.33,769.84,314.55,769.84,314.55Z" transform="translate(-536.88 -251.17)"/><path class="clsa-5" d="M767.69,303.62s.89,7.16-2.33,7.16c0,0-1.8,5.92-4.49,1.26,0,0-.89,4.12-3.22.36a5,5,0,0,1-3.47-3.6s1.5-1.24-3-1.78c0,0,.53-7.13,4.66-4.46,0,0,2.33-3,4.66,0,0,0,2.33-3.57,3.76,0C764.28,302.56,767.58,300.93,767.69,303.62Z" transform="translate(-536.88 -251.17)"/><path class="clsa-5" d="M738.88,493.91s-1.13,19.41-1.49,24.79c0,0,4,8.24,0,13.26,0,0,6.34,22.61,4.62,46.6a109,109,0,0,0,.3,12.9H725.57s0-13.62-2.87-20.07-11.38-23.66-8.15-35.49c0,0-9.06-7-13-36.14S736.71,480.94,738.88,493.91Z" transform="translate(-536.88 -251.17)"/><path d="M725.57,591.46s.71,9.32,0,12.19-6.47,22.94-3.78,24.38,10.94,1.43,10.94,1.43-1.26,4.3,7.8,4.3h18.73s2.87-5.73-5.38-12.9-9.09-15.06-11.53-16.13,0-13.27,0-13.27Z" transform="translate(-536.88 -251.17)"/><path class="clsa-2" d="M759.26,634.3H740.53c-3.95,0-6.55-.8-7.74-2.38a3.18,3.18,0,0,1-.65-1.93c-2,0-8.22-.22-10.6-1.49-2-1-1.07-7.83,3.09-23.42.19-.7.33-1.24.41-1.56.69-2.75,0-11.92,0-12a.56.56,0,0,1,.14-.41.54.54,0,0,1,.39-.17h16.79a.54.54,0,0,1,.53.64c-1.14,5.66-1.58,12.11-.32,12.67s1.89,2,2.93,4.15a35.23,35.23,0,0,0,8.75,12.06c8.46,7.36,5.63,13.3,5.5,13.55A.52.52,0,0,1,759.26,634.3ZM726.14,592c.15,2.11.58,9.25,0,11.78-.08.33-.23.87-.42,1.57-5.09,19.07-4.23,21.88-3.62,22.2,2.54,1.36,10.6,1.37,10.68,1.37a.56.56,0,0,1,.44.22.52.52,0,0,1,.08.47,2.05,2.05,0,0,0,.42,1.69c.67.88,2.41,1.93,6.86,1.93H758.9c.43-1.23,1.48-6-5.37-12a36.3,36.3,0,0,1-9-12.39c-.9-1.85-1.62-3.31-2.39-3.65-2.47-1.09-1.11-9.7-.44-13.22Z" transform="translate(-536.88 -251.17)"/><path class="clsa-6" d="M757.83,631.61s-2.51-7.52-4.66-7.52-3.59,1.79-5.74,3.76-4,3.76-7,3.76Z" transform="translate(-536.88 -251.17)"/><path class="clsa-2" d="M735.42,453.28c-1.61-15.6-10.93-28-10.93-28,.9-2.16,0-8.43,0-8.43H658.6s-.9,6.27,0,8.43c0,0-9.32,12.36-10.93,28,0,0-7.53,32.26-4.3,46.24,0,0,37.1.54,40.86,0s.72-6.45,2.51-12.37c1.52-5,4.07-11.56,4.81-13.44.73,1.88,3.28,8.42,4.8,13.44,1.79,5.92-1.25,11.83,2.51,12.37s40.86,0,40.86,0C743,485.54,735.42,453.28,735.42,453.28Z" transform="translate(-536.88 -251.17)"/><path class="clsa-5" d="M704.05,287.92H679l-1.74,23.41s10.83.33,14.25,6.33c3.41-6,14.25-6.33,14.25-6.33Z" transform="translate(-536.88 -251.17)"/><path class="clsa-7" d="M691.55,304.69c7.33,0,11-7.29,12.78-13l-.28-3.81H679l-.28,3.81C680.52,297.4,684.21,304.69,691.55,304.69Z" transform="translate(-536.88 -251.17)"/><path class="clsa-5" d="M708.8,277.83c-.43,2.45-1.13,4.71-2.71,4.43s-2.51-2.48-2.09-4.93,2.06-4.21,3.63-3.93S709.22,275.38,708.8,277.83Z" transform="translate(-536.88 -251.17)"/><path class="clsa-5" d="M673.57,277.83c.42,2.45,1.12,4.71,2.7,4.43s2.51-2.48,2.09-4.93-2.06-4.21-3.63-3.93S673.14,275.38,673.57,277.83Z" transform="translate(-536.88 -251.17)"/><path class="clsa-5" d="M704.3,260.25,691.55,258l-12.75,2.25-1.5,20.25s2.25,19.5,14.25,19.5,14.25-19.5,14.25-19.5Z" transform="translate(-536.88 -251.17)"/><path class="clsa-5" d="M704.3,260.25,691.55,258l-12.75,2.25-1.5,20.25s2.25,19.5,14.25,19.5,14.25-19.5,14.25-19.5Z" transform="translate(-536.88 -251.17)"/><path class="clsa-6" d="M706.3,258.5c-.5-3.34-9.84-11-23.75-5.25-4,1.63-9-1-9-1s1.75,5.5,3.25,6.25c0,0-4.5,8.75-3.25,12.75s2.5,1.25,2.5,5.5,1.25,3.75,1.25,3.75.75-14.5,4.75-17.5c0,0,6.25,1.75,9.5,0,3.25,1.75,9.5,0,9.5,0,4,3,4.75,17.5,4.75,17.5s1.25.5,1.25-3.75,1.25-1.5,2.5-5.5S706.3,258.5,706.3,258.5Z" transform="translate(-536.88 -251.17)"/><path class="clsa-7" d="M669.32,328.08s22.23-1.35,22.23,11.76c0,0,3.85-16.53-23-13.44S669.32,328.08,669.32,328.08Z" transform="translate(-536.88 -251.17)"/><path class="clsa-7" d="M714,328.08s-22.22-1.35-22.22,11.76c0,0-3.85-16.53,23-13.44S714,328.08,714,328.08Z" transform="translate(-536.88 -251.17)"/><path class="clsa-8" d="M654.3,359.18a7.72,7.72,0,0,0-.28,1.73C654.13,360.35,654.23,359.78,654.3,359.18Z" transform="translate(-536.88 -251.17)"/><path class="clsa-8" d="M729.07,360.91a7.72,7.72,0,0,0-.28-1.73C728.86,359.78,729,360.35,729.07,360.91Z" transform="translate(-536.88 -251.17)"/><path class="clsa-9" d="M726.15,316.1a21,21,0,0,0-5.6-.66c-2.67,1.72-4.67,33.56-29,33.56s-26.34-31.84-29-33.56a21,21,0,0,0-5.6.66c-4.93,6.6-2.64,43.08-2.64,43.08s3.07,17.2,5.58,24.73,3,12.91,1.8,15.42-3.08,17.56-3.08,17.56h65.89s-1.82-15.05-3.08-17.56-.71-7.89,1.8-15.42,5.58-24.73,5.58-24.73S731.08,322.7,726.15,316.1Z" transform="translate(-536.88 -251.17)"/><polygon class="clsa-7" points="147.83 49.8 150.33 64.26 144.54 46.77 147.83 49.8"/><polygon class="clsa-7" points="161.5 49.8 159 64.26 164.8 46.77 161.5 49.8"/><polygon class="clsa-7" points="141 52.28 140.59 57.87 139.26 52.8 141 52.28"/><polygon class="clsa-7" points="168.42 52.28 168.84 57.87 170.16 52.8 168.42 52.28"/><path class="clsa-7" d="M638.88,367.91a17,17,0,0,0,11.75-16.75S654.88,364.91,638.88,367.91Z" transform="translate(-536.88 -251.17)"/><path class="clsa-7" d="M743.81,367.91a17,17,0,0,1-11.75-16.75S727.81,364.91,743.81,367.91Z" transform="translate(-536.88 -251.17)"/><path class="clsa-7" d="M634.76,348.78s-1.11,6.13,0,9.13c0,0,1-7.84,1.57-12.17A9.93,9.93,0,0,0,634.76,348.78Z" transform="translate(-536.88 -251.17)"/><path class="clsa-7" d="M748.29,348.78s1.11,6.13,0,9.13c0,0-1-7.84-1.58-12.17A9.89,9.89,0,0,1,748.29,348.78Z" transform="translate(-536.88 -251.17)"/><path class="clsa-7" d="M617.74,334.58s.11,18.33,7.26,22.33A86.44,86.44,0,0,1,617.74,334.58Z" transform="translate(-536.88 -251.17)"/><path class="clsa-7" d="M764.77,334.58s-.12,18.33-7.27,22.33A86.22,86.22,0,0,0,764.77,334.58Z" transform="translate(-536.88 -251.17)"/><path class="clsa-7" d="M645.67,532s6.54,18.36,14.21,4.28C659.88,536.24,651.12,557.09,645.67,532Z" transform="translate(-536.88 -251.17)"/><path class="clsa-7" d="M738,532s-6.55,18.36-14.21,4.28C723.75,536.24,732.51,557.09,738,532Z" transform="translate(-536.88 -251.17)"/><path class="clsa-7" d="M710.13,504.41s-1,16.25,4,23.25C714.13,527.66,705.88,521.91,710.13,504.41Z" transform="translate(-536.88 -251.17)"/><path class="clsa-7" d="M675,504.41s1,16.25-4,23.25C671,527.66,679.2,521.91,675,504.41Z" transform="translate(-536.88 -251.17)"/><path class="clsa-10" d="M691.56,387.41s-14.38,2.75-13.82-8.5C677.74,378.91,673.05,391.91,691.56,387.41Z" transform="translate(-536.88 -251.17)"/><path class="clsa-10" d="M691.56,396.86s-14.38,2.75-13.82-8.5C677.74,388.36,673.05,401.36,691.56,396.86Z" transform="translate(-536.88 -251.17)"/><path class="clsa-10" d="M691.56,406.31s-14.38,2.75-13.82-8.5C677.74,397.81,673.05,410.81,691.56,406.31Z" transform="translate(-536.88 -251.17)"/><path class="clsa-10" d="M693.47,387.41s14.38,2.75,13.82-8.5C707.29,378.91,712,391.91,693.47,387.41Z" transform="translate(-536.88 -251.17)"/><path class="clsa-10" d="M693.47,396.86s14.38,2.75,13.82-8.5C707.29,388.36,712,401.36,693.47,396.86Z" transform="translate(-536.88 -251.17)"/><path class="clsa-10" d="M693.47,406.31s14.38,2.75,13.82-8.5C707.29,397.81,712,410.81,693.47,406.31Z" transform="translate(-536.88 -251.17)"/><path class="clsa-10" d="M665.88,385.5s-3-12.67,0-14.67,12,2.67,17,2c0,0-9.67.88-14,0C665.35,372.11,665.88,385.5,665.88,385.5Z" transform="translate(-536.88 -251.17)"/><path class="clsa-10" d="M718.49,385.5s3-12.67,0-14.67-12,2.67-17,2c0,0,9.67.88,14,0C719,372.11,718.49,385.5,718.49,385.5Z" transform="translate(-536.88 -251.17)"/><path class="clsa-10" d="M692.55,366.16s0,5.84-4,6.34c0,0,4.5-1.84,7.5,0A8.65,8.65,0,0,1,692.55,366.16Z" transform="translate(-536.88 -251.17)"/></svg>