<svg id="Layer_1" data-name="Layer 1" xmlns="http://www.w3.org/2000/svg" viewBox="0 0 350.99 391.66"><defs><style>.cls-1s{fill:#f6c49f;}.cls-2s{fill:#ae8d6e;}.cls-3s{fill:#fcf9ce;}.cls-4s{fill:#9e1919;}.cls-5s{fill:#86cebc;}.cls-6s{fill:#a37474;}.cls-7s{fill:#723138;}.cls-8s{fill:none;}.cls-9s{fill:#625144;}.cls-10s{fill:#5f5e5b;}</style></defs><path class="cls-1s" d="M1100.3,267.65v10.9L1139.5,328l41.92-48.39.34-12.27s-26.59,19.77-38.86,23.17S1100.3,267.65,1100.3,267.65Z" transform="translate(-974.12 -66.43)"/><path class="cls-2s" d="M1140.13,284.48c-10,0-22.44-7.49-35.83-17.77-1.32-1-2.66-2.06-4-3.13v4.07s30.33,26.24,42.6,22.83,38.86-23.17,38.86-23.17v-5.13c-2,1.54-4.08,3.09-6.25,4.64C1162.76,275.91,1147.79,284.48,1140.13,284.48Z" transform="translate(-974.12 -66.43)"/><polygon class="cls-3s" points="199.25 297.58 191.2 391.43 186.99 391.43 175.49 291.42 181.89 278.13 199.25 297.58"/><polygon class="cls-3s" points="157.87 292.96 144.84 391.43 139.93 391.43 131.95 297.43 149.97 278.13 157.87 292.96"/><path class="cls-4s" d="M1106.07,363.86l8,94H974.12S978,360.16,994,346.32c12.3-10.58,66.22-39.14,91-52,6.12-3.18,10.45-5.41,11.93-6.16l0,0,.53-.27v0l8.43,76.12Z" transform="translate(-974.12 -66.43)"/><polygon class="cls-5s" points="144.84 391.43 157.87 292.96 149.97 278.13 166.3 260.65 181.89 278.13 175.49 291.42 186.99 391.43 144.84 391.43"/><path class="cls-4s" d="M1325.11,457.86H1165.32l8-93.85,8.43-74.62,1.77.77c1.78.77,4.81,2.09,8.75,3.83l1.24.55c23.81,10.57,76.63,34.75,90.16,47.16,17.63,16.15,32.19,63.85,36.79,90Z" transform="translate(-974.12 -66.43)"/><polygon class="cls-6s" points="207.68 208.7 207.68 222.96 199.25 297.58 181.89 278.13 166.3 260.65 207.68 208.7"/><polygon class="cls-6s" points="166.3 260.65 149.97 278.13 131.95 297.43 131.81 297.58 123.38 221.46 123.38 221.42 126.45 208.7 166.3 260.65"/><polygon class="cls-7s" points="144.84 391.43 157.87 292.96 149.97 278.13 166.3 260.65 181.89 278.13 175.49 291.42 186.99 391.43 144.84 391.43"/><path class="cls-1s" d="M1073.92,215.88c-.49-.3-8.62-5.33-12.76-13.69l0,0a22.18,22.18,0,0,1-2.36-9.77c0-.45,0-.86,0-1.29v0a12.63,12.63,0,0,1,6.9-11l.17.28C1067.57,194.37,1070.12,207.42,1073.92,215.88Z" transform="translate(-974.12 -66.43)"/><path class="cls-1s" d="M1217.9,203.18v0c-.82,1.34-1.69,2.62-2.53,3.76a179.62,179.62,0,0,0,.52-22.48l1.6-2.1a12.72,12.72,0,0,1,4.27,8.51C1222.07,194.93,1220.21,199.38,1217.9,203.18Z" transform="translate(-974.12 -66.43)"/><path class="cls-8s" d="M1074,215.91c3.41,7.53,3.88,15.87,4.14,23.93A48.65,48.65,0,0,1,1074,215.91Z" transform="translate(-974.12 -66.43)"/><path class="cls-8s" d="M1169.21,247.64v16.83s-20.7,8.4-32.34,9.69-22-9.69-22-9.69c-4-3.53,2.57-22.64,7.11-22.64s15.51-4.54,20-5.19S1169.21,247.64,1169.21,247.64Z" transform="translate(-974.12 -66.43)"/><path class="cls-8s" d="M1206.15,197.11s1.88,24-10.42,39.53-17.47,19.42-17.47,19.42-.63-16.18-7.11-22-25.21-10.34-25.21-10.34l-5.27,3.86-3.15-4.51s-24.56,9-27.15,12.27-3.24,20.71-3.24,20.71-15.51-8.42-20.7-20.71-10.54-38.24-10.54-38.24,7.32-73.64,27.37-62.64c0,0,6.46,5.18,23.91,5.18s38.82-18.77,47.22-18.77,23.94,25.23,21.34,36.23c-2.52,10.71,11.13,23.28,11.82,23.93,0,0,0,0,0,0l0,.11A88.83,88.83,0,0,1,1206.15,197.11Z" transform="translate(-974.12 -66.43)"/><path class="cls-8s" d="M1207.55,181c-.69-.65-14.34-13.22-11.82-23.93,2.6-11-12.93-36.23-21.34-36.23s-29.74,18.77-47.22,18.77-23.91-5.18-23.91-5.18c-20-11-27.37,62.64-27.37,62.64s-1.94-19.09,0-35.06v0c0-.32.09-.65.15-1,.11-.65.22-1.32.32-2a.06.06,0,0,1,0-.06c2.8-14.26,12.74-23.72,19.31-30.29,7-7,2.57-15.61,23.67-23.67,100.21-38.32,72.76,56.12,82.39,60.48C1206.17,167.56,1207.46,174.28,1207.55,181Z" transform="translate(-974.12 -66.43)"/><path class="cls-9s" d="M1171.15,76.27c-31-10.34-42.68-12.94-68.54-5.83s-40.09,30.91-40.09,47.48c0,10.54.37,38,3.37,62.49,1.68,14,4.23,27,8,35.47l0,0c3.41,7.53,3.88,15.87,4.14,23.93a43.6,43.6,0,0,0,11.78,15.49c4.73,4,9.41,7.82,14,11.34,13.73,10.54,26.52,18.23,36.76,18.23,7.86,0,23.22-8.79,36.31-18.12,9.66-6.89,18.06-14.09,21.3-18.28,7.58-9.85,12.14-35.62,12.14-35.62a58.54,58.54,0,0,0,5-5.92,179.62,179.62,0,0,0,.52-22.48c-.22-4.65-.65-9.64-1.41-15.08,0,0,0-54.33,3.89-55.63S1202.19,86.62,1171.15,76.27Z" transform="translate(-974.12 -66.43)"/><path class="cls-1s" d="M1207.57,181v0l0,.11-1.4,15.92s1.88,24-10.42,39.53-17.47,19.42-17.47,19.42-.63-16.18-7.11-22-25.21-10.34-25.21-10.34l-5.27,3.86-3.15-4.51s-24.56,9-27.15,12.27-3.24,20.71-3.24,20.71-15.51-8.42-20.7-20.71-10.54-38.24-10.54-38.24,7.32-73.64,27.37-62.64c0,0,6.46,5.18,23.91,5.18s38.82-18.77,47.22-18.77,23.94,25.23,21.34,36.23c-2.52,10.71,11.13,23.28,11.82,23.93Z" transform="translate(-974.12 -66.43)"/><path class="cls-1s" d="M1169.21,247.64v16.83s-20.7,8.4-32.34,9.69-22-9.69-22-9.69c-4-3.53,2.57-22.64,7.11-22.64s15.51-4.54,20-5.19S1169.21,247.64,1169.21,247.64Z" transform="translate(-974.12 -66.43)"/><polygon class="cls-10s" points="247.68 306.43 213.03 391.43 191.2 391.43 199.25 297.58 207.68 222.96 209.45 223.73 218.2 227.56 219.44 228.11 244.73 266.31 219.44 297.58 247.68 306.43"/><polygon class="cls-10s" points="139.95 391.66 118.12 391.66 118.03 391.43 83.47 305.76 111.71 296.82 86.42 265.23 110.89 227.87 111.71 226.62 122.82 221.71 122.85 221.69 123.38 221.46 123.47 221.42 131.9 296.82 131.95 297.43 139.93 391.43 139.95 391.66"/></svg>