<svg id="Layer_3" data-name="Layer 3" xmlns="http://www.w3.org/2000/svg" viewBox="0 0 380.16 368.64"><defs><style>.cls-111{fill:#d90b00;}.cls-111,.cls-222,.cls-333{fill-rule:evenodd;}.cls-222{fill:#fdb301;}.cls-333{fill:#1c0100;}</style></defs><title>addingIcon</title><path class="cls-111" d="M173.59,155.52V55.43h74.32V155.52H348v74.32H247.91V329.93H173.59V229.84H73.5V155.52H173.59ZM330.47,75.83A172.81,172.81,0,1,0,381.08,198,172.26,172.26,0,0,0,330.47,75.83Z" transform="translate(-0.92 -2.18)"/><polygon class="cls-222" points="184.19 64.77 184.19 159.1 184.19 164.86 178.43 164.86 84.1 164.86 84.1 216.14 178.43 216.14 184.19 216.14 184.19 221.9 184.19 316.23 235.47 316.23 235.47 221.9 235.47 216.14 241.23 216.14 335.56 216.14 335.56 164.86 241.23 164.86 235.47 164.86 235.47 159.1 235.47 64.77 184.19 64.77"/><path class="cls-333" d="M156.31,43.91h68.56V144H325v74.32H224.87V318.41H150.55V218.32H50.46V144H150.55V43.91Zm57,11.52H162.07V155.52H62V206.8H162.07V306.89h51.28V206.8H313.44V155.52H213.35V55.43Z" transform="translate(-0.92 -2.18)"/><path class="cls-333" d="M185.24,2.18a184.33,184.33,0,1,1-130.33,54,183.71,183.71,0,0,1,130.33-54ZM307.43,64.31A172.81,172.81,0,1,0,358,186.5,172.26,172.26,0,0,0,307.43,64.31Z" transform="translate(-0.92 -2.18)"/></svg>