<svg id="Layer_2" data-name="Layer 2" xmlns="http://www.w3.org/2000/svg" viewBox="0 0 99.6 130.62"><defs><style>.cls-1{fill:#74c169;stroke:#191818;}.cls-1,.cls-2,.cls-3{stroke-miterlimit:10;stroke-width:0.75px;}.cls-2{fill:#e9eda5;}.cls-2,.cls-3{stroke:#231f20;}.cls-3{fill:#eda76e;}</style></defs><title>avocadoIcon</title><path class="cls-1" d="M647.24,445.86c33.6-4.68,49.51-55.21,40.15-90.77s-29-38.55-29-38.55l-17.32,49.77-42.2,55.22s14.78,29,48.38,24.33" transform="translate(-590.82 -316.12)"/><path class="cls-2" d="M653.85,316.72s-8.56-2.81-17.45,14-8,22.46-27.61,37.44-22.66,35.56-9.93,53.34,53,23.39,68.92-20.59S677.39,314.85,653.85,316.72Z" transform="translate(-590.82 -316.12)"/><path class="cls-3" d="M646.53,402.4c-5.95,10.76-18.34,15.29-27.69,10.13s-12.11-18.07-6.16-28.83,18.34-15.3,27.68-10.13S652.47,391.64,646.53,402.4Z" transform="translate(-590.82 -316.12)"/></svg>