<svg id="Layer_2" data-name="Layer 2" xmlns="http://www.w3.org/2000/svg" viewBox="0 0 149.09 143.23"><defs><style>.cls-1{fill:#3c415b;}.cls-1,.cls-2,.cls-3,.cls-4{stroke:#100f10;stroke-linejoin:round;stroke-width:0.75px;}.cls-2{fill:#ea722f;}.cls-3{fill:#242838;}.cls-4{fill:#232020;}</style></defs><title>blueberryIcon</title><path class="cls-1" d="M701.87,430.78a2.6,2.6,0,0,0,1.72,1.21c1.29.32,1.53,2.16-.29,2.78s-2.49.57-2.52,1.67-.45,2.73-1.67,2.5-2.24-.49-2.94.7-2.27,2.5-3.37,1.45.59-2.81-.13-3.73S699.54,429.24,701.87,430.78Z" transform="translate(-566.66 -308.91)"/><path class="cls-1" d="M681.35,434.72a13.1,13.1,0,1,1,18.51.73A13.1,13.1,0,0,1,681.35,434.72Z" transform="translate(-566.66 -308.91)"/><path class="cls-1" d="M709.35,372.28a3,3,0,0,0,2.36-.73c1.22-1,3.1.12,2.37,2.25s-1.25,2.72-.26,3.54,2.22,2.37,1.13,3.33-2.05,1.73-1.45,3.23.69,3.9-1.07,4.17-2.18-2.56-3.55-2.55S706.26,373.34,709.35,372.28Z" transform="translate(-566.66 -308.91)"/><path class="cls-1" d="M698.33,394.14a15.35,15.35,0,1,1,13.91-16.66A15.35,15.35,0,0,1,698.33,394.14Z" transform="translate(-566.66 -308.91)"/><path class="cls-1" d="M683.82,425.06a2.57,2.57,0,0,0,1.73,1.21c1.29.32,1.52,2.16-.29,2.78s-2.49.57-2.53,1.67-.45,2.73-1.66,2.5-2.24-.48-3,.7-2.27,2.5-3.37,1.45.6-2.8-.13-3.73S681.49,423.52,683.82,425.06Z" transform="translate(-566.66 -308.91)"/><path class="cls-1" d="M663.3,429a13.1,13.1,0,1,1,18.51.73A13.1,13.1,0,0,1,663.3,429Z" transform="translate(-566.66 -308.91)"/><path class="cls-1" d="M695.5,361.11A13,13,0,1,1,707.27,347,13,13,0,0,1,695.5,361.11Z" transform="translate(-566.66 -308.91)"/><path class="cls-2" d="M691.79,341s0,1.76,1.57,1.8,2.42.25,2.6.88-1.22,1.45-1,2.14,1.55,2.26,1.17,3.17-1.76,0-2.76,0-1.68.79-2.25,1.66-2.42.46-2.15-.51.28-1.43-1-2-2.08-2.86-.88-3.21,1.77.08,1.78-1.74S690.33,338.41,691.79,341Z" transform="translate(-566.66 -308.91)"/><path class="cls-3" d="M691.45,347.45a1.64,1.64,0,1,1,1.48-1.78A1.63,1.63,0,0,1,691.45,347.45Z" transform="translate(-566.66 -308.91)"/><path class="cls-1" d="M660.5,389.47a15.35,15.35,0,1,1,13.91-16.66A15.35,15.35,0,0,1,660.5,389.47Z" transform="translate(-566.66 -308.91)"/><path class="cls-2" d="M656.12,365.67s0,2.07,1.85,2.12,2.86.29,3.07,1-1.44,1.73-1.23,2.54,1.83,2.67,1.38,3.75-2.07.05-3.25,0-2,.94-2.67,2-2.85.53-2.54-.6.33-1.7-1.19-2.39-2.45-3.38-1-3.78,2.09.09,2.1-2.06S654.39,362.64,656.12,365.67Z" transform="translate(-566.66 -308.91)"/><path class="cls-3" d="M655.71,373.32a1.93,1.93,0,1,1,1.75-2.1A1.93,1.93,0,0,1,655.71,373.32Z" transform="translate(-566.66 -308.91)"/><path class="cls-1" d="M701,390.56a14.4,14.4,0,1,1-15.39,13.33A14.41,14.41,0,0,1,701,390.56Z" transform="translate(-566.66 -308.91)"/><path class="cls-2" d="M707.65,416.32s.27-1.93-1.4-2.24-2.61-.71-2.69-1.43,1.59-1.38,1.52-2.16-1.29-2.75-.71-3.69,1.93.27,3,.48,2-.57,2.76-1.42,2.73-.07,2.27.94-.57,1.51.73,2.39,1.76,3.5.39,3.66-1.92-.4-2.26,1.59S708.79,419.38,707.65,416.32Z" transform="translate(-566.66 -308.91)"/><path class="cls-3" d="M709.17,409.29a1.81,1.81,0,1,1-1.93,1.68A1.81,1.81,0,0,1,709.17,409.29Z" transform="translate(-566.66 -308.91)"/><path class="cls-1" d="M695.09,373.58a12,12,0,1,1,10.83-13A12,12,0,0,1,695.09,373.58Z" transform="translate(-566.66 -308.91)"/><path class="cls-4" d="M688.57,368.54c-1.11.59-2.88-.6-4-2.65s-1-4.18.06-4.76,2.88.61,4,2.65S689.68,368,688.57,368.54Z" transform="translate(-566.66 -308.91)"/><path class="cls-1" d="M684.49,417.88a14.19,14.19,0,1,1,12.86-15.4A14.19,14.19,0,0,1,684.49,417.88Z" transform="translate(-566.66 -308.91)"/><path class="cls-4" d="M693.55,401.62c-1.31.69-3.42-.72-4.69-3.15s-1.25-5,.07-5.65,3.42.72,4.69,3.15S694.87,400.93,693.55,401.62Z" transform="translate(-566.66 -308.91)"/><path class="cls-1" d="M650.18,394.3a14.19,14.19,0,1,1,11,16.81A14.19,14.19,0,0,1,650.18,394.3Z" transform="translate(-566.66 -308.91)"/><path class="cls-4" d="M663.08,407.73c-.28-1.46,1.69-3.06,4.38-3.57s5.11.26,5.38,1.72-1.68,3.06-4.38,3.57S663.35,409.19,663.08,407.73Z" transform="translate(-566.66 -308.91)"/><path class="cls-1" d="M655,351.07a14.19,14.19,0,1,1,11,16.81A14.19,14.19,0,0,1,655,351.07Z" transform="translate(-566.66 -308.91)"/><path class="cls-4" d="M667.93,364.5c-.28-1.46,1.68-3.06,4.38-3.57s5.11.26,5.38,1.73-1.68,3-4.38,3.56S668.2,366,667.93,364.5Z" transform="translate(-566.66 -308.91)"/><path class="cls-1" d="M680.39,392.72a15.35,15.35,0,1,1,13.91-16.66A15.35,15.35,0,0,1,680.39,392.72Z" transform="translate(-566.66 -308.91)"/><path class="cls-2" d="M676,368.92s0,2.08,1.85,2.12,2.87.3,3.07,1-1.44,1.72-1.22,2.53,1.83,2.68,1.37,3.76-2.07,0-3.25,0-2,.95-2.66,2-2.86.54-2.55-.6.33-1.69-1.19-2.38-2.44-3.38-1-3.79,2.09.09,2.1-2.06S674.28,365.89,676,368.92Z" transform="translate(-566.66 -308.91)"/><path class="cls-3" d="M675.61,376.58a1.93,1.93,0,1,1,1.75-2.1A1.93,1.93,0,0,1,675.61,376.58Z" transform="translate(-566.66 -308.91)"/><path class="cls-1" d="M627.81,438.82a2.63,2.63,0,0,0,1.73,1.22c1.29.32,1.53,2.16-.29,2.77s-2.49.58-2.53,1.67-.45,2.73-1.66,2.5-2.24-.48-2.95.7-2.27,2.5-3.37,1.45.6-2.8-.13-3.73S625.49,437.29,627.81,438.82Z" transform="translate(-566.66 -308.91)"/><path class="cls-1" d="M607.29,442.76a13.1,13.1,0,1,1,18.51.73A13.1,13.1,0,0,1,607.29,442.76Z" transform="translate(-566.66 -308.91)"/><path class="cls-1" d="M632.61,376.12a3,3,0,0,0,2.36-.73c1.22-1,3.1.13,2.37,2.26s-1.25,2.72-.26,3.54,2.22,2.37,1.13,3.33-2.05,1.73-1.45,3.23.69,3.89-1.06,4.17-2.19-2.56-3.56-2.55S629.52,377.19,632.61,376.12Z" transform="translate(-566.66 -308.91)"/><path class="cls-1" d="M621.59,398a15.35,15.35,0,1,1,13.91-16.66A15.35,15.35,0,0,1,621.59,398Z" transform="translate(-566.66 -308.91)"/><path class="cls-1" d="M607.08,428.91a2.6,2.6,0,0,0,1.73,1.21c1.29.32,1.52,2.16-.29,2.78s-2.5.57-2.53,1.67-.45,2.73-1.66,2.49-2.24-.48-3,.7-2.27,2.5-3.37,1.46.59-2.81-.13-3.74S604.76,427.37,607.08,428.91Z" transform="translate(-566.66 -308.91)"/><path class="cls-1" d="M586.56,432.85a13.1,13.1,0,1,1,18.51.72A13.1,13.1,0,0,1,586.56,432.85Z" transform="translate(-566.66 -308.91)"/><path class="cls-1" d="M618.76,365a13,13,0,1,1,11.77-14.09A13,13,0,0,1,618.76,365Z" transform="translate(-566.66 -308.91)"/><path class="cls-2" d="M615.05,344.82s0,1.75,1.57,1.79,2.42.25,2.6.88-1.22,1.46-1,2.14,1.55,2.27,1.17,3.18-1.76,0-2.76,0-1.68.8-2.25,1.67-2.42.45-2.15-.51.28-1.43-1-2-2.07-2.86-.87-3.2,1.77.08,1.78-1.74S613.59,342.26,615.05,344.82Z" transform="translate(-566.66 -308.91)"/><path class="cls-3" d="M614.71,351.29a1.63,1.63,0,1,1,1.48-1.77A1.63,1.63,0,0,1,614.71,351.29Z" transform="translate(-566.66 -308.91)"/><path class="cls-1" d="M583.76,393.31a15.35,15.35,0,1,1,13.91-16.66A15.35,15.35,0,0,1,583.76,393.31Z" transform="translate(-566.66 -308.91)"/><path class="cls-2" d="M579.38,369.51s0,2.08,1.85,2.12,2.86.3,3.07,1-1.44,1.72-1.23,2.54,1.84,2.67,1.38,3.75-2.07.05-3.25,0-2,.95-2.67,2-2.85.54-2.54-.6.33-1.69-1.19-2.38-2.45-3.38-1-3.79,2.09.09,2.1-2.05S577.65,366.48,579.38,369.51Z" transform="translate(-566.66 -308.91)"/><path class="cls-3" d="M579,377.17a1.93,1.93,0,1,1,1.75-2.1A1.93,1.93,0,0,1,579,377.17Z" transform="translate(-566.66 -308.91)"/><path class="cls-1" d="M624.29,394.41a14.4,14.4,0,1,1-15.39,13.33A14.4,14.4,0,0,1,624.29,394.41Z" transform="translate(-566.66 -308.91)"/><path class="cls-2" d="M630.91,420.16s.27-1.92-1.4-2.24-2.61-.7-2.69-1.42,1.6-1.38,1.52-2.16-1.29-2.76-.71-3.69,1.93.27,3,.48,2-.57,2.76-1.43,2.73-.06,2.27.94-.57,1.52.73,2.39,1.76,3.5.39,3.66-1.92-.39-2.25,1.59S632.05,423.23,630.91,420.16Z" transform="translate(-566.66 -308.91)"/><path class="cls-3" d="M632.43,413.14a1.81,1.81,0,1,1-1.93,1.67A1.81,1.81,0,0,1,632.43,413.14Z" transform="translate(-566.66 -308.91)"/><path class="cls-1" d="M618.35,377.42a12,12,0,1,1,10.83-13A12,12,0,0,1,618.35,377.42Z" transform="translate(-566.66 -308.91)"/><path class="cls-4" d="M611.83,372.39c-1.11.58-2.88-.6-4-2.65s-1-4.18.06-4.76,2.88.6,3.95,2.65S612.94,371.81,611.83,372.39Z" transform="translate(-566.66 -308.91)"/><path class="cls-1" d="M607.75,421.73a14.19,14.19,0,1,1,12.86-15.41A14.19,14.19,0,0,1,607.75,421.73Z" transform="translate(-566.66 -308.91)"/><path class="cls-4" d="M616.81,405.46c-1.31.7-3.42-.71-4.69-3.14s-1.25-5,.07-5.65,3.42.71,4.69,3.15S618.13,404.77,616.81,405.46Z" transform="translate(-566.66 -308.91)"/><path class="cls-1" d="M573.44,398.15a14.19,14.19,0,1,1,11,16.8A14.19,14.19,0,0,1,573.44,398.15Z" transform="translate(-566.66 -308.91)"/><path class="cls-4" d="M586.34,411.57c-.28-1.46,1.68-3.05,4.38-3.56s5.11.26,5.38,1.72-1.68,3.06-4.38,3.57S586.61,413,586.34,411.57Z" transform="translate(-566.66 -308.91)"/><path class="cls-1" d="M578.29,354.92a14.19,14.19,0,1,1,11,16.8A14.19,14.19,0,0,1,578.29,354.92Z" transform="translate(-566.66 -308.91)"/><path class="cls-4" d="M591.19,368.35c-.28-1.46,1.68-3.06,4.38-3.57s5.11.26,5.38,1.72-1.68,3.06-4.38,3.57S591.46,369.81,591.19,368.35Z" transform="translate(-566.66 -308.91)"/><path class="cls-1" d="M603.65,396.57a15.35,15.35,0,1,1,13.91-16.66A15.35,15.35,0,0,1,603.65,396.57Z" transform="translate(-566.66 -308.91)"/><path class="cls-2" d="M599.27,372.77s.05,2.07,1.85,2.12,2.87.29,3.07,1-1.44,1.72-1.22,2.53,1.83,2.67,1.37,3.75-2.07.05-3.25,0-2,.94-2.66,2-2.86.54-2.55-.6.33-1.69-1.18-2.39-2.45-3.38-1-3.78,2.09.09,2.1-2.06S597.54,369.74,599.27,372.77Z" transform="translate(-566.66 -308.91)"/><path class="cls-3" d="M598.87,380.42a1.93,1.93,0,1,1,1.75-2.09A1.93,1.93,0,0,1,598.87,380.42Z" transform="translate(-566.66 -308.91)"/><path class="cls-1" d="M681.39,330.09a2.59,2.59,0,0,0,1.36-1.61c.43-1.26,2.29-1.33,2.74.54s.35,2.53,1.44,2.66,2.67.7,2.33,1.88-.68,2.19.44,3,2.28,2.48,1.14,3.49-2.74-.85-3.73-.21S679.65,332.27,681.39,330.09Z" transform="translate(-566.66 -308.91)"/><path class="cls-1" d="M683.47,350.88a13.1,13.1,0,1,1,2.38-18.37A13.1,13.1,0,0,1,683.47,350.88Z" transform="translate(-566.66 -308.91)"/><path class="cls-1" d="M619.37,319.69a3,3,0,0,0-.52-2.41c-.86-1.3.4-3.07,2.46-2.16s2.6,1.49,3.5.57,2.56-2,3.42-.82,1.54,2.19,3.09,1.74,3.94-.35,4.06,1.43-2.75,1.94-2.86,3.31S620.15,322.87,619.37,319.69Z" transform="translate(-566.66 -308.91)"/><path class="cls-1" d="M640.16,332.63a15.35,15.35,0,1,1-15.35-15.35A15.34,15.34,0,0,1,640.16,332.63Z" transform="translate(-566.66 -308.91)"/><path class="cls-1" d="M638.33,423.29a3,3,0,0,0-.51-2.42c-.86-1.3.4-3.07,2.46-2.15s2.6,1.48,3.5.57,2.56-2,3.42-.83,1.54,2.2,3.08,1.74,4-.34,4.06,1.43-2.74,1.95-2.86,3.32S639.12,426.46,638.33,423.29Z" transform="translate(-566.66 -308.91)"/><path class="cls-1" d="M659.13,436.22a15.35,15.35,0,1,1-15.35-15.35A15.35,15.35,0,0,1,659.13,436.22Z" transform="translate(-566.66 -308.91)"/><path class="cls-1" d="M669.65,349.85a2.59,2.59,0,0,0,1.37-1.61c.43-1.26,2.28-1.33,2.74.54s.34,2.53,1.43,2.66,2.68.7,2.34,1.88-.68,2.19.43,3,2.29,2.48,1.15,3.49-2.74-.85-3.73-.21S667.91,352,669.65,349.85Z" transform="translate(-566.66 -308.91)"/><path class="cls-1" d="M671.74,370.64a13.1,13.1,0,1,1,2.38-18.37A13.1,13.1,0,0,1,671.74,370.64Z" transform="translate(-566.66 -308.91)"/><path class="cls-1" d="M659.27,403a2.59,2.59,0,0,0,1.36-1.61c.43-1.25,2.29-1.33,2.74.54s.35,2.53,1.44,2.66,2.68.7,2.33,1.89-.67,2.18.44,3,2.28,2.49,1.15,3.49-2.75-.84-3.74-.21S657.53,405.22,659.27,403Z" transform="translate(-566.66 -308.91)"/><path class="cls-1" d="M661.35,423.83a13.1,13.1,0,1,1,2.39-18.37A13.09,13.09,0,0,1,661.35,423.83Z" transform="translate(-566.66 -308.91)"/><path class="cls-1" d="M607,332.49a13,13,0,1,1-13-13A13,13,0,0,1,607,332.49Z" transform="translate(-566.66 -308.91)"/><path class="cls-2" d="M586.62,334.38s1.75.11,1.92-1.4.47-2.39,1.11-2.51,1.34,1.34,2,1.22,2.39-1.34,3.27-.87-.12,1.75-.23,2.74.64,1.75,1.46,2.39.23,2.45-.71,2.1-1.4-.41-2.09.82-3,1.81-3.27.58.23-1.75-1.58-1.92S583.93,335.6,586.62,334.38Z" transform="translate(-566.66 -308.91)"/><path class="cls-3" d="M593,335.3a1.64,1.64,0,1,1-1.64-1.64A1.64,1.64,0,0,1,593,335.3Z" transform="translate(-566.66 -308.91)"/><path class="cls-1" d="M632.11,369.89a15.35,15.35,0,1,1-15.34-15.35A15.34,15.34,0,0,1,632.11,369.89Z" transform="translate(-566.66 -308.91)"/><path class="cls-2" d="M608,372.12s2.07.14,2.27-1.65.55-2.83,1.31-3,1.59,1.59,2.42,1.45,2.82-1.58,3.86-1-.14,2.06-.28,3.24.76,2.07,1.73,2.82.27,2.9-.83,2.49-1.66-.48-2.48,1-3.59,2.14-3.87.69.28-2.07-1.86-2.27S604.85,373.57,608,372.12Z" transform="translate(-566.66 -308.91)"/><path class="cls-3" d="M615.6,373.21a1.93,1.93,0,1,1-1.93-1.93A1.92,1.92,0,0,1,615.6,373.21Z" transform="translate(-566.66 -308.91)"/><path class="cls-1" d="M637.12,321.37A14.4,14.4,0,1,1,649,337.9,14.4,14.4,0,0,1,637.12,321.37Z" transform="translate(-566.66 -308.91)"/><path class="cls-2" d="M663.37,317.09s-1.9-.44-2.36,1.19-.94,2.54-1.66,2.55-1.23-1.71-2-1.7-2.85,1-3.73.37.44-1.89.74-3-.39-2-1.17-2.88.18-2.72,1.14-2.17,1.46.7,2.45-.52,3.64-1.44,3.68-.06-.57,1.88,1.38,2.39S666.52,316.23,663.37,317.09Z" transform="translate(-566.66 -308.91)"/><path class="cls-3" d="M656.5,314.94A1.81,1.81,0,1,1,658,317,1.82,1.82,0,0,1,656.5,314.94Z" transform="translate(-566.66 -308.91)"/><path class="cls-1" d="M648.84,435.05a14.4,14.4,0,1,1,11.9,16.52A14.4,14.4,0,0,1,648.84,435.05Z" transform="translate(-566.66 -308.91)"/><path class="cls-2" d="M675.09,430.77s-1.9-.44-2.36,1.19-.94,2.53-1.66,2.55-1.23-1.71-2-1.71-2.86,1.05-3.73.38.44-1.89.74-3-.39-2-1.17-2.88.18-2.72,1.14-2.17,1.46.69,2.45-.53,3.64-1.43,3.68-.05-.57,1.87,1.38,2.39S678.24,429.91,675.09,430.77Z" transform="translate(-566.66 -308.91)"/><path class="cls-3" d="M668.22,428.62a1.81,1.81,0,1,1,1.5,2.08A1.82,1.82,0,0,1,668.22,428.62Z" transform="translate(-566.66 -308.91)"/><path class="cls-1" d="M619.39,334a12,12,0,1,1-12-12A12,12,0,0,1,619.39,334Z" transform="translate(-566.66 -308.91)"/><path class="cls-4" d="M613.79,340.05c.48,1.16-.86,2.82-3,3.71s-4.26.67-4.74-.49.86-2.81,3-3.7S613.31,338.9,613.79,340.05Z" transform="translate(-566.66 -308.91)"/><circle class="cls-1" cx="81.71" cy="39.63" r="14.19"/><path class="cls-4" d="M647.18,338.06c.57,1.37-1,3.34-3.56,4.39s-5,.8-5.62-.58,1-3.34,3.56-4.39S646.6,336.69,647.18,338.06Z" transform="translate(-566.66 -308.91)"/><path class="cls-1" d="M636,380.6a14.19,14.19,0,1,1,17.72-9.42A14.2,14.2,0,0,1,636,380.6Z" transform="translate(-566.66 -308.91)"/><path class="cls-4" d="M650.53,369c-1.48.14-2.89-2-3.16-4.69s.72-5.06,2.2-5.21,2.9,2,3.16,4.69S652,368.81,650.53,369Z" transform="translate(-566.66 -308.91)"/><path class="cls-1" d="M637.28,408.51A14.19,14.19,0,1,1,655,399.09,14.2,14.2,0,0,1,637.28,408.51Z" transform="translate(-566.66 -308.91)"/><path class="cls-4" d="M651.81,396.87c-1.48.14-2.89-2-3.16-4.69s.72-5.06,2.2-5.21,2.9,2,3.16,4.69S653.29,396.72,651.81,396.87Z" transform="translate(-566.66 -308.91)"/><path class="cls-1" d="M593.38,371.9a14.19,14.19,0,1,1,17.72-9.42A14.2,14.2,0,0,1,593.38,371.9Z" transform="translate(-566.66 -308.91)"/><path class="cls-4" d="M607.91,360.25c-1.48.15-2.89-1.95-3.16-4.68s.72-5.06,2.2-5.21,2.9,2,3.16,4.69S609.39,360.11,607.91,360.25Z" transform="translate(-566.66 -308.91)"/><path class="cls-1" d="M626.43,436.74a14.19,14.19,0,1,1,17.72-9.42A14.19,14.19,0,0,1,626.43,436.74Z" transform="translate(-566.66 -308.91)"/><path class="cls-4" d="M641,425.1c-1.48.14-2.9-2-3.16-4.69s.72-5.06,2.2-5.21,2.89,2,3.16,4.69S642.44,425,641,425.1Z" transform="translate(-566.66 -308.91)"/><circle class="cls-1" cx="621.79" cy="350.37" r="15.35" transform="translate(-311.46 653.82) rotate(-88.49)"/><path class="cls-2" d="M613,352.6s2.07.14,2.28-1.65.55-2.83,1.31-3,1.58,1.59,2.41,1.45,2.83-1.59,3.86-1-.13,2.06-.27,3.24.76,2.07,1.72,2.82.28,2.9-.83,2.49-1.65-.49-2.48,1-3.59,2.14-3.86.69.27-2.07-1.86-2.27S609.87,354.05,613,352.6Z" transform="translate(-566.66 -308.91)"/><path class="cls-3" d="M620.63,353.69a1.93,1.93,0,1,1-1.93-1.93A1.93,1.93,0,0,1,620.63,353.69Z" transform="translate(-566.66 -308.91)"/></svg>