<svg id="Layer_2" data-name="Layer 2" xmlns="http://www.w3.org/2000/svg" viewBox="0 0 243.25 250.51"><defs><style>.cls-1{fill:#f2d6b6;}.cls-2{fill:#b7784e;}</style></defs><title>breadIcon</title><path class="cls-1" d="M671.47,446.33c0-39.86-41.17-60.37-105.31-60.37s-120.58,20.51-120.58,60.37c0,16.63,15.34,37.76,15.34,37.76a28.67,28.67,0,0,1,4.71,14.26v112c0,4.33,3.34,8.47,7.68,8.47H638.66c4.33,0,7-4.14,7-8.47v-110c0-4.33,2.78-10.54,5.63-13.81C651.26,486.58,671.47,463.9,671.47,446.33Z" transform="translate(-436.81 -377.34)"/><path class="cls-2" d="M638.66,627.85H473.31c-9.64,0-17.68-8.93-17.68-17.47v-112c0-2.78-1-7.34-2.39-9.21-1.74-2.46-16.43-24-16.43-42.81,0-47.66,65-69,129.28-69,72.41,0,114,25.14,114,69,0,20.35-20.92,43.52-23.29,46.1-2.1,2.41-4.14,6.61-4.14,8v110C652.63,623.14,645.77,627.85,638.66,627.85Zm-164.43-17H635.62s0,0,0-.47v-110c0-7.77,5.53-16.14,8.43-19.47,7.35-8,18.77-24.29,18.77-34.59,0-46.7-67.61-51.74-96.68-51.74-53.92,0-111.94,16.19-111.94,51.74,0,11.33,10.23,27.5,14,32.78s6.47,13.73,6.47,19.24v112C474.63,610.61,473.89,610.85,474.23,610.85Z" transform="translate(-436.81 -377.34)"/><path class="cls-2" d="M524.63,427.92c-8,0-8,11.68,0,11.68C531.63,439.6,531.63,427.92,524.63,427.92Z" transform="translate(-436.81 -377.34)"/><path class="cls-2" d="M596.63,433.37c-6,0-6,11.68,0,11.68C605.63,445.05,605.63,433.37,596.63,433.37Z" transform="translate(-436.81 -377.34)"/><path class="cls-2" d="M556.63,474.62c-7,0-7,11.68,0,11.68C564.63,486.3,564.63,474.62,556.63,474.62Z" transform="translate(-436.81 -377.34)"/><path class="cls-2" d="M607.63,499.53c-8,0-8,11.67,0,11.67C614.63,511.2,614.63,499.53,607.63,499.53Z" transform="translate(-436.81 -377.34)"/><path class="cls-2" d="M552.63,533c-9,0-9,11.67,0,11.67C558.63,544.67,558.63,533,552.63,533Z" transform="translate(-436.81 -377.34)"/><path class="cls-2" d="M493.63,499.53c-8,0-8,11.67,0,11.67S501.63,499.53,493.63,499.53Z" transform="translate(-436.81 -377.34)"/><path class="cls-2" d="M609.63,571.91c-8,0-8,11.68,0,11.68C616.63,583.59,616.63,571.91,609.63,571.91Z" transform="translate(-436.81 -377.34)"/><path class="cls-2" d="M514.63,577.36c-8,0-8,11.67,0,11.67S522.63,577.36,514.63,577.36Z" transform="translate(-436.81 -377.34)"/></svg>