<svg xmlns="http://www.w3.org/2000/svg" xmlns:xlink="http://www.w3.org/1999/xlink" viewBox="0 0 66.32 52.71"><defs><style>.cls-1{mask:url(#mask);}.cls-10,.cls-101,.cls-102,.cls-103,.cls-105,.cls-106,.cls-108,.cls-109,.cls-110,.cls-111,.cls-12,.cls-124,.cls-126,.cls-127,.cls-128,.cls-129,.cls-131,.cls-136,.cls-137,.cls-138,.cls-14,.cls-140,.cls-141,.cls-142,.cls-143,.cls-144,.cls-145,.cls-146,.cls-147,.cls-148,.cls-149,.cls-150,.cls-151,.cls-16,.cls-18,.cls-2,.cls-20,.cls-22,.cls-24,.cls-26,.cls-28,.cls-30,.cls-32,.cls-34,.cls-36,.cls-38,.cls-4,.cls-40,.cls-42,.cls-44,.cls-46,.cls-48,.cls-51,.cls-52,.cls-53,.cls-55,.cls-58,.cls-6,.cls-60,.cls-62,.cls-63,.cls-65,.cls-66,.cls-68,.cls-69,.cls-71,.cls-72,.cls-8,.cls-91,.cls-92,.cls-93,.cls-94,.cls-95{mix-blend-mode:multiply;}.cls-2{fill:url(#linear-gradient);}.cls-3{mask:url(#mask-2);}.cls-4{fill:url(#radial-gradient);}.cls-5{mask:url(#mask-3);}.cls-6{fill:url(#linear-gradient-2);}.cls-7{mask:url(#mask-4);}.cls-8{fill:url(#linear-gradient-3);}.cls-9{mask:url(#mask-5);}.cls-10{fill:url(#linear-gradient-4);}.cls-11{mask:url(#mask-6);}.cls-12{fill:url(#linear-gradient-5);}.cls-13{mask:url(#mask-7);}.cls-14{fill:url(#linear-gradient-6);}.cls-15{mask:url(#mask-8);}.cls-16{fill:url(#linear-gradient-7);}.cls-17{mask:url(#mask-9);}.cls-18{fill:url(#linear-gradient-8);}.cls-19{mask:url(#mask-10);}.cls-20{fill:url(#linear-gradient-9);}.cls-21{mask:url(#mask-11);}.cls-22{fill:url(#linear-gradient-10);}.cls-23{mask:url(#mask-12);}.cls-24{fill:url(#linear-gradient-11);}.cls-25{mask:url(#mask-13);}.cls-26{fill:url(#linear-gradient-12);}.cls-27{mask:url(#mask-14);}.cls-28{fill:url(#linear-gradient-13);}.cls-29{mask:url(#mask-15);}.cls-30{fill:url(#radial-gradient-2);}.cls-31{mask:url(#mask-17);}.cls-32{fill:url(#linear-gradient-14);}.cls-33{mask:url(#mask-18);}.cls-34{fill:url(#linear-gradient-15);}.cls-35{mask:url(#mask-19);}.cls-36{fill:url(#linear-gradient-16);}.cls-37{mask:url(#mask-20);}.cls-38{fill:url(#linear-gradient-17);}.cls-39{mask:url(#mask-21);}.cls-40{fill:url(#linear-gradient-18);}.cls-41{mask:url(#mask-22);}.cls-42{fill:url(#linear-gradient-19);}.cls-43{mask:url(#mask-23);}.cls-44{fill:url(#linear-gradient-20);}.cls-45{mask:url(#mask-24);}.cls-46{fill:url(#linear-gradient-21);}.cls-47{mask:url(#mask-25);}.cls-48{fill:url(#linear-gradient-22);}.cls-49{isolation:isolate;}.cls-50{fill:url(#linear-gradient-23);}.cls-51{fill:url(#linear-gradient-24);}.cls-52{fill:url(#linear-gradient-25);}.cls-54{fill:url(#linear-gradient-26);}.cls-136,.cls-55{opacity:0.3;}.cls-55{fill:url(#linear-gradient-27);}.cls-56{mask:url(#mask-26);}.cls-123,.cls-124,.cls-137,.cls-145,.cls-146,.cls-57,.cls-62,.cls-65,.cls-68,.cls-74,.cls-76,.cls-78,.cls-80,.cls-85,.cls-87,.cls-92,.cls-94,.cls-95,.cls-97{opacity:0.5;}.cls-100,.cls-113,.cls-115,.cls-117,.cls-119,.cls-121,.cls-123,.cls-132,.cls-153,.cls-155,.cls-157,.cls-159,.cls-161,.cls-163,.cls-57,.cls-74,.cls-76,.cls-78,.cls-80,.cls-82,.cls-85,.cls-87,.cls-89,.cls-97{mix-blend-mode:screen;}.cls-57{fill:url(#linear-gradient-28);}.cls-58{fill:url(#linear-gradient-29);}.cls-59{fill:url(#linear-gradient-30);}.cls-126,.cls-127,.cls-128,.cls-129,.cls-143,.cls-148,.cls-151,.cls-60,.cls-71,.cls-82{opacity:0.6;}.cls-61{fill:url(#linear-gradient-31);}.cls-62{fill:url(#linear-gradient-32);}.cls-63{fill:url(#linear-gradient-33);}.cls-64{fill:url(#linear-gradient-34);}.cls-65{fill:url(#linear-gradient-35);}.cls-66{fill:url(#linear-gradient-36);}.cls-67,.cls-68{fill:url(#linear-gradient-37);}.cls-69{fill:url(#linear-gradient-39);}.cls-70{fill:url(#linear-gradient-40);}.cls-71{fill:url(#linear-gradient-41);}.cls-72{fill:url(#linear-gradient-42);}.cls-73{mask:url(#mask-27);}.cls-74{fill:url(#linear-gradient-43);}.cls-75{mask:url(#mask-28);}.cls-76{fill:url(#linear-gradient-44);}.cls-77{mask:url(#mask-29);}.cls-78{fill:url(#linear-gradient-45);}.cls-79{mask:url(#mask-30);}.cls-80{fill:url(#linear-gradient-46);}.cls-81{mask:url(#mask-31);}.cls-82{fill:url(#radial-gradient-4);}.cls-83{fill:url(#linear-gradient-47);}.cls-84{mask:url(#mask-32);}.cls-85{fill:url(#linear-gradient-48);}.cls-86{mask:url(#mask-33);}.cls-87{fill:url(#linear-gradient-49);}.cls-88{mask:url(#mask-34);}.cls-89{fill:url(#linear-gradient-50);}.cls-90{fill:url(#linear-gradient-51);}.cls-91{fill:url(#linear-gradient-52);}.cls-92{fill:url(#linear-gradient-53);}.cls-140,.cls-142,.cls-93{opacity:0.7;}.cls-93{fill:url(#linear-gradient-54);}.cls-94{fill:url(#linear-gradient-55);}.cls-95{fill:url(#linear-gradient-56);}.cls-96{mask:url(#mask-35);}.cls-97{fill:url(#linear-gradient-57);}.cls-98{fill:url(#linear-gradient-58);}.cls-99{mask:url(#mask-36);}.cls-100{fill:url(#linear-gradient-59);}.cls-101{fill:url(#linear-gradient-60);}.cls-102{fill:url(#linear-gradient-61);}.cls-103{fill:url(#radial-gradient-5);}.cls-104{fill:url(#linear-gradient-62);}.cls-105{fill:url(#radial-gradient-6);}.cls-106{fill:url(#linear-gradient-63);}.cls-107{fill:url(#linear-gradient-64);}.cls-108{fill:url(#linear-gradient-65);}.cls-109{fill:url(#linear-gradient-66);}.cls-110{fill:url(#radial-gradient-7);}.cls-111{fill:url(#radial-gradient-8);}.cls-112{mask:url(#mask-37);}.cls-113{fill:url(#linear-gradient-67);}.cls-114{mask:url(#mask-38);}.cls-115{fill:url(#linear-gradient-68);}.cls-116{mask:url(#mask-39);}.cls-117{fill:url(#linear-gradient-69);}.cls-118{mask:url(#mask-40);}.cls-119{fill:url(#linear-gradient-70);}.cls-120{mask:url(#mask-41);}.cls-121{fill:url(#linear-gradient-71);}.cls-122{mask:url(#mask-42);}.cls-123{fill:url(#linear-gradient-72);}.cls-124{fill:url(#linear-gradient-73);}.cls-125{fill:url(#linear-gradient-74);}.cls-126{fill:url(#linear-gradient-75);}.cls-127{fill:url(#linear-gradient-76);}.cls-128{fill:url(#linear-gradient-77);}.cls-129{fill:url(#linear-gradient-78);}.cls-130{fill:url(#linear-gradient-79);}.cls-131,.cls-138{opacity:0.4;}.cls-132{opacity:0.8;}.cls-133{mask:url(#mask-43);}.cls-134{fill:url(#radial-gradient-9);}.cls-135{fill:url(#linear-gradient-81);}.cls-136{fill:url(#linear-gradient-82);}.cls-137{fill:url(#linear-gradient-83);}.cls-138{fill:url(#linear-gradient-84);}.cls-139{fill:url(#linear-gradient-85);}.cls-140{fill:url(#linear-gradient-86);}.cls-141{opacity:0.9;fill:url(#linear-gradient-87);}.cls-142{fill:url(#linear-gradient-88);}.cls-143{fill:url(#linear-gradient-89);}.cls-144{fill:url(#linear-gradient-90);}.cls-145{fill:url(#linear-gradient-91);}.cls-146{fill:url(#linear-gradient-92);}.cls-147{fill:url(#linear-gradient-93);}.cls-148{fill:url(#linear-gradient-94);}.cls-149{fill:url(#linear-gradient-95);}.cls-150{fill:url(#linear-gradient-96);}.cls-151{fill:url(#linear-gradient-97);}.cls-152{mask:url(#mask-45);}.cls-153{fill:url(#linear-gradient-98);}.cls-154{mask:url(#mask-46);}.cls-155{fill:url(#linear-gradient-99);}.cls-156{mask:url(#mask-47);}.cls-157{fill:url(#linear-gradient-100);}.cls-158{mask:url(#mask-48);}.cls-159{fill:url(#linear-gradient-101);}.cls-160{mask:url(#mask-49);}.cls-161{fill:url(#linear-gradient-102);}.cls-162{mask:url(#mask-50);}.cls-163{fill:url(#linear-gradient-103);}.cls-164{filter:url(#luminosity-noclip-50);}.cls-165{filter:url(#luminosity-noclip-49);}.cls-166{filter:url(#luminosity-noclip-48);}.cls-167{filter:url(#luminosity-noclip-47);}.cls-168{filter:url(#luminosity-noclip-46);}.cls-169{filter:url(#luminosity-noclip-45);}.cls-170{filter:url(#luminosity-noclip-43);}.cls-171{filter:url(#luminosity-noclip-42);}.cls-172{filter:url(#luminosity-noclip-41);}.cls-173{filter:url(#luminosity-noclip-40);}.cls-174{filter:url(#luminosity-noclip-39);}.cls-175{filter:url(#luminosity-noclip-38);}.cls-176{filter:url(#luminosity-noclip-37);}.cls-177{filter:url(#luminosity-noclip-36);}.cls-178{filter:url(#luminosity-noclip-35);}.cls-179{filter:url(#luminosity-noclip-34);}.cls-180{filter:url(#luminosity-noclip-33);}.cls-181{filter:url(#luminosity-noclip-32);}.cls-182{filter:url(#luminosity-noclip-31);}.cls-183{filter:url(#luminosity-noclip-30);}.cls-184{filter:url(#luminosity-noclip-29);}.cls-185{filter:url(#luminosity-noclip-28);}.cls-186{filter:url(#luminosity-noclip-27);}.cls-187{filter:url(#luminosity-noclip-26);}.cls-188{filter:url(#luminosity-noclip-25);}.cls-189{filter:url(#luminosity-noclip-24);}.cls-190{filter:url(#luminosity-noclip-23);}.cls-191{filter:url(#luminosity-noclip-22);}.cls-192{filter:url(#luminosity-noclip-21);}.cls-193{filter:url(#luminosity-noclip-20);}.cls-194{filter:url(#luminosity-noclip-19);}.cls-195{filter:url(#luminosity-noclip-18);}.cls-196{filter:url(#luminosity-noclip-17);}.cls-197{filter:url(#luminosity-noclip-15);}.cls-198{filter:url(#luminosity-noclip-14);}.cls-199{filter:url(#luminosity-noclip-13);}.cls-200{filter:url(#luminosity-noclip-12);}.cls-201{filter:url(#luminosity-noclip-11);}.cls-202{filter:url(#luminosity-noclip-10);}.cls-203{filter:url(#luminosity-noclip-9);}.cls-204{filter:url(#luminosity-noclip-8);}.cls-205{filter:url(#luminosity-noclip-7);}.cls-206{filter:url(#luminosity-noclip-6);}.cls-207{filter:url(#luminosity-noclip-5);}.cls-208{filter:url(#luminosity-noclip-4);}.cls-209{filter:url(#luminosity-noclip-3);}.cls-210{filter:url(#luminosity-noclip-2);}.cls-211{filter:url(#luminosity-noclip);}</style><filter id="luminosity-noclip" x="212.96" y="-8369" width="30.01" height="32766" filterUnits="userSpaceOnUse" color-interpolation-filters="sRGB"><feFlood flood-color="#fff" result="bg"/><feBlend in="SourceGraphic" in2="bg"/></filter><mask id="mask" x="212.96" y="-8369" width="30.01" height="32766" maskUnits="userSpaceOnUse"><g class="cls-211"/></mask><linearGradient id="linear-gradient" x1="221.85" y1="294.77" x2="231.69" y2="264.24" gradientUnits="userSpaceOnUse"><stop offset="0.27" stop-color="#1a1a1a"/><stop offset="0.65" stop-color="#fff"/><stop offset="1" stop-color="#fff"/></linearGradient><filter id="luminosity-noclip-2" x="187.2" y="-8369" width="15.01" height="32766" filterUnits="userSpaceOnUse" color-interpolation-filters="sRGB"><feFlood flood-color="#fff" result="bg"/><feBlend in="SourceGraphic" in2="bg"/></filter><mask id="mask-2" x="187.2" y="-8369" width="15.01" height="32766" maskUnits="userSpaceOnUse"><g class="cls-210"/></mask><radialGradient id="radial-gradient" cx="191.2" cy="284.37" r="9.21" gradientUnits="userSpaceOnUse"><stop offset="0" stop-color="#fff"/><stop offset="0.35" stop-color="#fff"/><stop offset="0.68" stop-color="gray"/><stop offset="0.91" stop-color="#4d4d4d"/></radialGradient><filter id="luminosity-noclip-3" x="190.84" y="-8369" width="1.82" height="32766" filterUnits="userSpaceOnUse" color-interpolation-filters="sRGB"><feFlood flood-color="#fff" result="bg"/><feBlend in="SourceGraphic" in2="bg"/></filter><mask id="mask-3" x="190.84" y="-8369" width="1.82" height="32766" maskUnits="userSpaceOnUse"><g class="cls-209"/></mask><linearGradient id="linear-gradient-2" x1="192.31" y1="292.47" x2="191.01" y2="290.54" gradientUnits="userSpaceOnUse"><stop offset="0.09" stop-color="#4d4d4d"/><stop offset="0.44" stop-color="gray"/><stop offset="0.71" stop-color="#fff"/><stop offset="1" stop-color="#fff"/></linearGradient><filter id="luminosity-noclip-4" x="189.17" y="-8369" width="1.27" height="32766" filterUnits="userSpaceOnUse" color-interpolation-filters="sRGB"><feFlood flood-color="#fff" result="bg"/><feBlend in="SourceGraphic" in2="bg"/></filter><mask id="mask-4" x="189.17" y="-8369" width="1.27" height="32766" maskUnits="userSpaceOnUse"><g class="cls-208"/></mask><linearGradient id="linear-gradient-3" x1="189.23" y1="291.88" x2="190.11" y2="289.93" xlink:href="#linear-gradient-2"/><filter id="luminosity-noclip-5" x="187.69" y="-8369" width="1.05" height="32766" filterUnits="userSpaceOnUse" color-interpolation-filters="sRGB"><feFlood flood-color="#fff" result="bg"/><feBlend in="SourceGraphic" in2="bg"/></filter><mask id="mask-5" x="187.69" y="-8369" width="1.05" height="32766" maskUnits="userSpaceOnUse"><g class="cls-207"/></mask><linearGradient id="linear-gradient-4" x1="187.55" y1="291.11" x2="188.44" y2="289.17" xlink:href="#linear-gradient-2"/><filter id="luminosity-noclip-6" x="187.5" y="-8369" width="5.13" height="32766" filterUnits="userSpaceOnUse" color-interpolation-filters="sRGB"><feFlood flood-color="#fff" result="bg"/><feBlend in="SourceGraphic" in2="bg"/></filter><mask id="mask-6" x="187.5" y="-8369" width="5.13" height="32766" maskUnits="userSpaceOnUse"><g class="cls-206"/></mask><linearGradient id="linear-gradient-5" x1="187.5" y1="290" x2="192.64" y2="290" xlink:href="#linear-gradient-2"/><filter id="luminosity-noclip-7" x="189.63" y="-8369" width="4.87" height="32766" filterUnits="userSpaceOnUse" color-interpolation-filters="sRGB"><feFlood flood-color="#fff" result="bg"/><feBlend in="SourceGraphic" in2="bg"/></filter><mask id="mask-7" x="189.63" y="-8369" width="4.87" height="32766" maskUnits="userSpaceOnUse"><g class="cls-205"/></mask><linearGradient id="linear-gradient-6" x1="190.67" y1="368.37" x2="187.87" y2="365.78" gradientTransform="matrix(0.95, -0.15, 0.13, 0.79, -33.06, 27.18)" gradientUnits="userSpaceOnUse"><stop offset="0" stop-color="#fff"/><stop offset="0.29" stop-color="#fff"/><stop offset="0.56" stop-color="gray"/><stop offset="0.91" stop-color="#4d4d4d"/></linearGradient><filter id="luminosity-noclip-8" x="193.11" y="-8369" width="9.59" height="32766" filterUnits="userSpaceOnUse" color-interpolation-filters="sRGB"><feFlood flood-color="#fff" result="bg"/><feBlend in="SourceGraphic" in2="bg"/></filter><mask id="mask-8" x="193.11" y="-8369" width="9.59" height="32766" maskUnits="userSpaceOnUse"><g class="cls-204"/></mask><linearGradient id="linear-gradient-7" x1="197.71" y1="288.62" x2="198.97" y2="294.22" xlink:href="#linear-gradient-2"/><filter id="luminosity-noclip-9" x="183.34" y="-8369" width="18.36" height="32766" filterUnits="userSpaceOnUse" color-interpolation-filters="sRGB"><feFlood flood-color="#fff" result="bg"/><feBlend in="SourceGraphic" in2="bg"/></filter><mask id="mask-9" x="183.34" y="-8369" width="18.36" height="32766" maskUnits="userSpaceOnUse"><g class="cls-203"/></mask><linearGradient id="linear-gradient-8" x1="192.92" y1="287.09" x2="189.44" y2="279.24" xlink:href="#linear-gradient-2"/><filter id="luminosity-noclip-10" x="180.13" y="-8369" width="15.88" height="32766" filterUnits="userSpaceOnUse" color-interpolation-filters="sRGB"><feFlood flood-color="#fff" result="bg"/><feBlend in="SourceGraphic" in2="bg"/></filter><mask id="mask-10" x="180.13" y="-8369" width="15.88" height="32766" maskUnits="userSpaceOnUse"><g class="cls-202"/></mask><linearGradient id="linear-gradient-9" x1="187.39" y1="282.75" x2="184.93" y2="279.02" xlink:href="#linear-gradient-2"/><filter id="luminosity-noclip-11" x="178.35" y="-8369" width="13.22" height="32766" filterUnits="userSpaceOnUse" color-interpolation-filters="sRGB"><feFlood flood-color="#fff" result="bg"/><feBlend in="SourceGraphic" in2="bg"/></filter><mask id="mask-11" x="178.35" y="-8369" width="13.22" height="32766" maskUnits="userSpaceOnUse"><g class="cls-201"/></mask><linearGradient id="linear-gradient-10" x1="184.62" y1="281.54" x2="182.07" y2="278.76" xlink:href="#linear-gradient-2"/><filter id="luminosity-noclip-12" x="176.9" y="-8369" width="8.5" height="32766" filterUnits="userSpaceOnUse" color-interpolation-filters="sRGB"><feFlood flood-color="#fff" result="bg"/><feBlend in="SourceGraphic" in2="bg"/></filter><mask id="mask-12" x="176.9" y="-8369" width="8.5" height="32766" maskUnits="userSpaceOnUse"><g class="cls-200"/></mask><linearGradient id="linear-gradient-11" x1="181.55" y1="280.97" x2="179.45" y2="279.02" xlink:href="#linear-gradient-2"/><filter id="luminosity-noclip-13" x="186.18" y="-8369" width="16.58" height="32766" filterUnits="userSpaceOnUse" color-interpolation-filters="sRGB"><feFlood flood-color="#fff" result="bg"/><feBlend in="SourceGraphic" in2="bg"/></filter><mask id="mask-13" x="186.18" y="-8369" width="16.58" height="32766" maskUnits="userSpaceOnUse"><g class="cls-199"/></mask><linearGradient id="linear-gradient-12" x1="194.66" y1="289.73" x2="192.43" y2="279.62" xlink:href="#linear-gradient-2"/><filter id="luminosity-noclip-14" x="192.21" y="-8369" width="1.84" height="32766" filterUnits="userSpaceOnUse" color-interpolation-filters="sRGB"><feFlood flood-color="#fff" result="bg"/><feBlend in="SourceGraphic" in2="bg"/></filter><mask id="mask-14" x="192.21" y="-8369" width="1.84" height="32766" maskUnits="userSpaceOnUse"><g class="cls-198"/></mask><linearGradient id="linear-gradient-13" x1="193.23" y1="290.84" x2="192.95" y2="291.58" xlink:href="#linear-gradient-2"/><filter id="luminosity-noclip-15" x="207.11" y="-8369" width="14.82" height="32766" filterUnits="userSpaceOnUse" color-interpolation-filters="sRGB"><feFlood flood-color="#fff" result="bg"/><feBlend in="SourceGraphic" in2="bg"/></filter><mask id="mask-15" x="207.11" y="-8369" width="14.82" height="32766" maskUnits="userSpaceOnUse"><g class="cls-197"/></mask><radialGradient id="radial-gradient-2" cx="208.93" cy="279.77" r="9.64" gradientUnits="userSpaceOnUse"><stop offset="0" stop-color="#fff"/><stop offset="0.25" stop-color="#fff"/><stop offset="0.79" stop-color="gray"/><stop offset="1" stop-color="#4d4d4d"/></radialGradient><filter id="luminosity-noclip-17" x="205.12" y="-8369" width="20.84" height="32766" filterUnits="userSpaceOnUse" color-interpolation-filters="sRGB"><feFlood flood-color="#fff" result="bg"/><feBlend in="SourceGraphic" in2="bg"/></filter><mask id="mask-17" x="205.12" y="-8369" width="20.84" height="32766" maskUnits="userSpaceOnUse"><g class="cls-196"/></mask><linearGradient id="linear-gradient-14" x1="215.26" y1="294.11" x2="214.77" y2="296.38" xlink:href="#linear-gradient-2"/><filter id="luminosity-noclip-18" x="186.96" y="-8369" width="4.87" height="32766" filterUnits="userSpaceOnUse" color-interpolation-filters="sRGB"><feFlood flood-color="#fff" result="bg"/><feBlend in="SourceGraphic" in2="bg"/></filter><mask id="mask-18" x="186.96" y="-8369" width="4.87" height="32766" maskUnits="userSpaceOnUse"><g class="cls-195"/></mask><linearGradient id="linear-gradient-15" x1="187.97" y1="367.5" x2="185.17" y2="364.91" xlink:href="#linear-gradient-6"/><filter id="luminosity-noclip-19" x="206.15" y="-8369" width="19.97" height="32766" filterUnits="userSpaceOnUse" color-interpolation-filters="sRGB"><feFlood flood-color="#fff" result="bg"/><feBlend in="SourceGraphic" in2="bg"/></filter><mask id="mask-19" x="206.15" y="-8369" width="19.97" height="32766" maskUnits="userSpaceOnUse"><g class="cls-194"/></mask><linearGradient id="linear-gradient-16" x1="216.02" y1="297.41" x2="215.72" y2="299.59" xlink:href="#linear-gradient-2"/><filter id="luminosity-noclip-20" x="205.49" y="-8369" width="21.11" height="32766" filterUnits="userSpaceOnUse" color-interpolation-filters="sRGB"><feFlood flood-color="#fff" result="bg"/><feBlend in="SourceGraphic" in2="bg"/></filter><mask id="mask-20" x="205.49" y="-8369" width="21.11" height="32766" maskUnits="userSpaceOnUse"><g class="cls-193"/></mask><linearGradient id="linear-gradient-17" x1="215.54" y1="289.68" x2="214.8" y2="292.29" xlink:href="#linear-gradient-2"/><filter id="luminosity-noclip-21" x="206.45" y="-8369" width="20.83" height="32766" filterUnits="userSpaceOnUse" color-interpolation-filters="sRGB"><feFlood flood-color="#fff" result="bg"/><feBlend in="SourceGraphic" in2="bg"/></filter><mask id="mask-21" x="206.45" y="-8369" width="20.83" height="32766" maskUnits="userSpaceOnUse"><g class="cls-192"/></mask><linearGradient id="linear-gradient-18" x1="217.21" y1="282.79" x2="215.88" y2="288.05" xlink:href="#linear-gradient-2"/><filter id="luminosity-noclip-22" x="214.45" y="-8369" width="7.67" height="32766" filterUnits="userSpaceOnUse" color-interpolation-filters="sRGB"><feFlood flood-color="#fff" result="bg"/><feBlend in="SourceGraphic" in2="bg"/></filter><mask id="mask-22" x="214.45" y="-8369" width="7.67" height="32766" maskUnits="userSpaceOnUse"><g class="cls-191"/></mask><linearGradient id="linear-gradient-19" x1="222.17" y1="282.51" x2="217.83" y2="279.95" gradientTransform="matrix(1, 0, 0, 1, 0, 0)" xlink:href="#linear-gradient-6"/><filter id="luminosity-noclip-23" x="220.53" y="-8369" width="1.82" height="32766" filterUnits="userSpaceOnUse" color-interpolation-filters="sRGB"><feFlood flood-color="#fff" result="bg"/><feBlend in="SourceGraphic" in2="bg"/></filter><mask id="mask-23" x="220.53" y="-8369" width="1.82" height="32766" maskUnits="userSpaceOnUse"><g class="cls-190"/></mask><linearGradient id="linear-gradient-20" x1="219.55" y1="285.9" x2="222.57" y2="283.93" gradientTransform="matrix(1, 0, 0, 1, 0, 0)" xlink:href="#linear-gradient-6"/><filter id="luminosity-noclip-24" x="194.65" y="-8369" width="6.35" height="32766" filterUnits="userSpaceOnUse" color-interpolation-filters="sRGB"><feFlood flood-color="#fff" result="bg"/><feBlend in="SourceGraphic" in2="bg"/></filter><mask id="mask-24" x="194.65" y="-8369" width="6.35" height="32766" maskUnits="userSpaceOnUse"><g class="cls-189"/></mask><linearGradient id="linear-gradient-21" x1="200.27" y1="290.59" x2="197.24" y2="287.79" gradientTransform="matrix(1, 0, 0, 1, 0, 0)" xlink:href="#linear-gradient-6"/><filter id="luminosity-noclip-25" x="192.73" y="-8369" width="4.73" height="32766" filterUnits="userSpaceOnUse" color-interpolation-filters="sRGB"><feFlood flood-color="#fff" result="bg"/><feBlend in="SourceGraphic" in2="bg"/></filter><mask id="mask-25" x="192.73" y="-8369" width="4.73" height="32766" maskUnits="userSpaceOnUse"><g class="cls-188"/></mask><linearGradient id="linear-gradient-22" x1="178.85" y1="338.2" x2="176.05" y2="335.61" gradientTransform="matrix(0.99, -0.16, 0.16, 0.99, -33.3, -16.16)" xlink:href="#linear-gradient-6"/><linearGradient id="linear-gradient-23" x1="186.5" y1="275.14" x2="240.39" y2="265.92" gradientUnits="userSpaceOnUse"><stop offset="0" stop-color="#ffee91"/><stop offset="0.42" stop-color="#fff1aa"/><stop offset="1" stop-color="#fff"/></linearGradient><linearGradient id="linear-gradient-24" x1="214.93" y1="251.89" x2="206.91" y2="286.32" gradientUnits="userSpaceOnUse"><stop offset="0" stop-color="#ffee91"/><stop offset="0.67" stop-color="#fff1aa"/><stop offset="1" stop-color="#f1ebd5"/></linearGradient><linearGradient id="linear-gradient-25" x1="183.2" y1="255.84" x2="237.08" y2="246.62" xlink:href="#linear-gradient-24"/><linearGradient id="linear-gradient-26" x1="212.11" y1="267.12" x2="184.33" y2="277.59" gradientUnits="userSpaceOnUse"><stop offset="0" stop-color="#f1dc63"/><stop offset="0.67" stop-color="#f1e084"/><stop offset="1" stop-color="#e0d8bc"/></linearGradient><linearGradient id="linear-gradient-27" x1="221.85" y1="294.77" x2="231.69" y2="264.24" gradientUnits="userSpaceOnUse"><stop offset="0.27" stop-color="#ffee91"/><stop offset="0.54" stop-color="#fff1aa"/><stop offset="1" stop-color="#fff"/></linearGradient><filter id="luminosity-noclip-26" x="212.96" y="262.51" width="30.01" height="30.86" filterUnits="userSpaceOnUse" color-interpolation-filters="sRGB"><feFlood flood-color="#fff" result="bg"/><feBlend in="SourceGraphic" in2="bg"/></filter><mask id="mask-26" x="36.28" y="13.2" width="30.01" height="30.86" maskUnits="userSpaceOnUse"><g class="cls-187"><g transform="translate(-176.68 -249.31)"><g class="cls-1"><path class="cls-2" d="M243,262.69l-.07,0c-.63-.09-1.26-.07-1.88-.16-1.54,0-3.05.26-4.58.34-.78,0-1.56,0-2.34,0s-1.5.1-2.25.19c-2.08.24-4.14.59-6.23.72s-4.34.1-6.5.36c-.86.11-1.71.23-2.58.3a4.44,4.44,0,0,0-2,.48c-1.6,1-1.36,3.12-1.62,4.79,0,.91.14,1.81.23,2.73q.34,3.33.36,6.66c0,2.19,0,4.37,0,6.56a59.62,59.62,0,0,0,.41,6.26c.06.48.13.95.18,1.43a18.68,18.68,0,0,1,2.57-.45c1.24-.05,2.49,0,3.73-.11a32,32,0,0,0,4-.44c1.24-.23,2.45-.61,3.68-.86a25.05,25.05,0,0,1,3.94-.54,36.71,36.71,0,0,0,3.79-.21,18.2,18.2,0,0,0,5.41-2.14,4.66,4.66,0,0,1,.28-.67,3.68,3.68,0,0,1-.23-.82,8.14,8.14,0,0,1,.6-2.91,18.13,18.13,0,0,0,.1-3.9c0-1.24.15-2.45.25-3.68.2-2.58.41-5.17.46-7.75,0-1.27-.06-2.53-.06-3.79a7.62,7.62,0,0,1,.09-1.65C242.85,263.2,242.93,263,243,262.69Z"/></g></g></g></mask><linearGradient id="linear-gradient-28" x1="221.85" y1="294.77" x2="231.69" y2="264.24" gradientUnits="userSpaceOnUse"><stop offset="0.27" stop-color="#ffee91"/><stop offset="0.65" stop-color="#fff1aa"/><stop offset="1" stop-color="#fff"/></linearGradient><linearGradient id="linear-gradient-29" x1="241.77" y1="284.53" x2="212.95" y2="294.29" xlink:href="#linear-gradient-24"/><linearGradient id="linear-gradient-30" x1="196.55" y1="282.27" x2="192.13" y2="294.88" gradientUnits="userSpaceOnUse"><stop offset="0.1" stop-color="#ffec72"/><stop offset="0.5" stop-color="#ffeb62"/><stop offset="0.71" stop-color="#fff4b8"/><stop offset="1" stop-color="#fff7d3"/></linearGradient><linearGradient id="linear-gradient-31" x1="190.36" y1="286.47" x2="193.87" y2="286.68" gradientUnits="userSpaceOnUse"><stop offset="0.31" stop-color="#f5ebab"/><stop offset="0.6" stop-color="#fae64f"/><stop offset="0.9" stop-color="#f9e762"/></linearGradient><linearGradient id="linear-gradient-32" x1="190.36" y1="286.47" x2="193.87" y2="286.68" gradientUnits="userSpaceOnUse"><stop offset="0.31" stop-color="#f5ebab"/><stop offset="0.65" stop-color="#fae64f"/><stop offset="0.9" stop-color="#f9e762"/></linearGradient><linearGradient id="linear-gradient-33" x1="190.37" y1="286.32" x2="193.88" y2="286.52" xlink:href="#linear-gradient-32"/><linearGradient id="linear-gradient-34" x1="193.25" y1="286.47" x2="196.49" y2="286.78" xlink:href="#linear-gradient-31"/><linearGradient id="linear-gradient-35" x1="193.25" y1="286.47" x2="196.49" y2="286.78" xlink:href="#linear-gradient-32"/><linearGradient id="linear-gradient-36" x1="193.25" y1="286.47" x2="196.49" y2="286.78" xlink:href="#linear-gradient-32"/><linearGradient id="linear-gradient-37" x1="198.28" y1="287.47" x2="202.07" y2="288.81" xlink:href="#linear-gradient-32"/><linearGradient id="linear-gradient-39" x1="198.3" y1="287.48" x2="202.08" y2="288.81" xlink:href="#linear-gradient-32"/><linearGradient id="linear-gradient-40" x1="195.71" y1="286.93" x2="201.11" y2="288.16" xlink:href="#linear-gradient-31"/><linearGradient id="linear-gradient-41" x1="195.79" y1="286.61" x2="201.18" y2="287.84" xlink:href="#linear-gradient-32"/><linearGradient id="linear-gradient-42" x1="195.8" y1="286.53" x2="201.2" y2="287.76" xlink:href="#linear-gradient-32"/><filter id="luminosity-noclip-27" x="189.63" y="284.48" width="4.87" height="5.82" filterUnits="userSpaceOnUse" color-interpolation-filters="sRGB"><feFlood flood-color="#fff" result="bg"/><feBlend in="SourceGraphic" in2="bg"/></filter><mask id="mask-27" x="12.94" y="35.17" width="4.87" height="5.82" maskUnits="userSpaceOnUse"><g class="cls-186"><g transform="translate(-176.68 -249.31)"><g class="cls-13"><path class="cls-14" d="M192.88,284.48s1.21,2.43.39,3.95a3.73,3.73,0,0,1-3.64,1.83s3.11.44,4.37-1.79C194.93,286.83,194.51,284.61,192.88,284.48Z"/></g></g></g></mask><linearGradient id="linear-gradient-43" x1="190.67" y1="368.37" x2="187.87" y2="365.78" gradientTransform="matrix(0.95, -0.15, 0.13, 0.79, -33.06, 27.18)" gradientUnits="userSpaceOnUse"><stop offset="0" stop-color="#fff"/><stop offset="0.29" stop-color="#fff4b8"/><stop offset="0.56" stop-color="#ffeb62"/><stop offset="0.91" stop-color="#ffec72"/></linearGradient><filter id="luminosity-noclip-28" x="186.96" y="284.21" width="4.87" height="5.82" filterUnits="userSpaceOnUse" color-interpolation-filters="sRGB"><feFlood flood-color="#fff" result="bg"/><feBlend in="SourceGraphic" in2="bg"/></filter><mask id="mask-28" x="10.28" y="34.9" width="4.87" height="5.82" maskUnits="userSpaceOnUse"><g class="cls-185"><g transform="translate(-176.68 -249.31)"><g class="cls-33"><path class="cls-34" d="M190.21,284.21s1.21,2.42.4,4A3.75,3.75,0,0,1,187,290s3.12.43,4.38-1.79C192.27,286.56,191.85,284.34,190.21,284.21Z"/></g></g></g></mask><linearGradient id="linear-gradient-44" x1="187.97" y1="367.5" x2="185.17" y2="364.91" xlink:href="#linear-gradient-43"/><filter id="luminosity-noclip-29" x="194.65" y="284.03" width="6.35" height="7.72" filterUnits="userSpaceOnUse" color-interpolation-filters="sRGB"><feFlood flood-color="#fff" result="bg"/><feBlend in="SourceGraphic" in2="bg"/></filter><mask id="mask-29" x="17.96" y="34.72" width="6.35" height="7.72" maskUnits="userSpaceOnUse"><g class="cls-184"><g transform="translate(-176.68 -249.31)"><g class="cls-45"><path class="cls-46" d="M199.63,284a4.77,4.77,0,0,1-.31,5.26,5.21,5.21,0,0,1-4.67,2.08s2.86,1.57,5.46-1.67C202.18,287.11,200,284.54,199.63,284Z"/></g></g></g></mask><linearGradient id="linear-gradient-45" x1="200.27" y1="290.59" x2="197.24" y2="287.79" gradientTransform="matrix(1, 0, 0, 1, 0, 0)" xlink:href="#linear-gradient-43"/><filter id="luminosity-noclip-30" x="192.73" y="283.33" width="4.73" height="7.48" filterUnits="userSpaceOnUse" color-interpolation-filters="sRGB"><feFlood flood-color="#fff" result="bg"/><feBlend in="SourceGraphic" in2="bg"/></filter><mask id="mask-30" x="16.04" y="34.02" width="4.73" height="7.48" maskUnits="userSpaceOnUse"><g class="cls-183"><g transform="translate(-176.68 -249.31)"><g class="cls-47"><path class="cls-48" d="M195.69,283.33s1.35,3.06.54,4.92a3.87,3.87,0,0,1-3.5,2.56,4.46,4.46,0,0,0,4.27-2.48C197.93,286.32,197.41,283.55,195.69,283.33Z"/></g></g></g></mask><linearGradient id="linear-gradient-46" x1="178.85" y1="338.2" x2="176.05" y2="335.61" gradientTransform="matrix(0.99, -0.16, 0.16, 0.99, -33.3, -16.16)" xlink:href="#linear-gradient-43"/><filter id="luminosity-noclip-31" x="187.2" y="281.16" width="15.01" height="12.28" filterUnits="userSpaceOnUse" color-interpolation-filters="sRGB"><feFlood flood-color="#fff" result="bg"/><feBlend in="SourceGraphic" in2="bg"/></filter><mask id="mask-31" x="10.52" y="31.85" width="15.01" height="12.28" maskUnits="userSpaceOnUse"><g class="cls-182"><g transform="translate(-176.68 -249.31)"><g class="cls-3"><path class="cls-4" d="M199.22,281.16c-3.93-.07-11.06,1.64-11.06,1.64s3,2.39,2.28,4.91-2.59,1.54-3.24,1.3a4,4,0,0,0,2.43,1.74c2,.72,4.78,2.87,7.68,2.67s5-2.22,4.85-4.65S203.15,281.23,199.22,281.16Z"/></g></g></g></mask><radialGradient id="radial-gradient-4" cx="191.2" cy="284.37" r="9.21" gradientUnits="userSpaceOnUse"><stop offset="0" stop-color="#fff"/><stop offset="0.35" stop-color="#fff4b8"/><stop offset="0.68" stop-color="#ffeb62"/><stop offset="0.91" stop-color="#ffec72"/></radialGradient><linearGradient id="linear-gradient-47" x1="190.75" y1="292.53" x2="191.64" y2="290.59" gradientTransform="translate(-0.22 0.07) rotate(-0.02)" gradientUnits="userSpaceOnUse"><stop offset="0.1" stop-color="#fbe42c"/><stop offset="0.3" stop-color="#f4dd2a"/><stop offset="0.71" stop-color="#ffeb65"/><stop offset="1" stop-color="#f4e78f"/></linearGradient><filter id="luminosity-noclip-32" x="190.84" y="290.65" width="1.82" height="1.76" filterUnits="userSpaceOnUse" color-interpolation-filters="sRGB"><feFlood flood-color="#fff" result="bg"/><feBlend in="SourceGraphic" in2="bg"/></filter><mask id="mask-32" x="14.16" y="41.35" width="1.82" height="1.76" maskUnits="userSpaceOnUse"><g class="cls-181"><g transform="translate(-176.68 -249.31)"><g class="cls-5"><path class="cls-6" d="M192.66,292.41a3.72,3.72,0,0,1-1.18-1.76l-.18,0-.46.08A2.9,2.9,0,0,0,192.66,292.41Z"/></g></g></g></mask><linearGradient id="linear-gradient-48" x1="192.31" y1="292.47" x2="191.01" y2="290.54" gradientUnits="userSpaceOnUse"><stop offset="0.09" stop-color="#fbe42c"/><stop offset="0.44" stop-color="#f4dd2a"/><stop offset="0.71" stop-color="#ffeb65"/><stop offset="1" stop-color="#d6d6d6"/></linearGradient><filter id="luminosity-noclip-33" x="189.17" y="289.88" width="1.27" height="1.42" filterUnits="userSpaceOnUse" color-interpolation-filters="sRGB"><feFlood flood-color="#fff" result="bg"/><feBlend in="SourceGraphic" in2="bg"/></filter><mask id="mask-33" x="12.49" y="40.57" width="1.27" height="1.42" maskUnits="userSpaceOnUse"><g class="cls-180"><g transform="translate(-176.68 -249.31)"><g class="cls-7"><path class="cls-8" d="M190.45,291.3a2.8,2.8,0,0,1-.86-1.42,2.12,2.12,0,0,0-.42,0C189.49,290.47,189.8,291.12,190.45,291.3Z"/></g></g></g></mask><linearGradient id="linear-gradient-49" x1="189.23" y1="291.88" x2="190.11" y2="289.93" xlink:href="#linear-gradient-48"/><filter id="luminosity-noclip-34" x="187.69" y="288.89" width="1.05" height="1.51" filterUnits="userSpaceOnUse" color-interpolation-filters="sRGB"><feFlood flood-color="#fff" result="bg"/><feBlend in="SourceGraphic" in2="bg"/></filter><mask id="mask-34" x="11.01" y="39.59" width="1.05" height="1.51" maskUnits="userSpaceOnUse"><g class="cls-179"><g transform="translate(-176.68 -249.31)"><g class="cls-9"><path class="cls-10" d="M188.27,289.52a4.63,4.63,0,0,1-.58-.63,2.64,2.64,0,0,0,1.05,1.51A2.15,2.15,0,0,1,188.27,289.52Z"/></g></g></g></mask><linearGradient id="linear-gradient-50" x1="187.55" y1="291.11" x2="188.44" y2="289.17" xlink:href="#linear-gradient-48"/><linearGradient id="linear-gradient-51" x1="187.79" y1="291.22" x2="188.68" y2="289.27" gradientTransform="matrix(1, 0, 0, 1, 0, 0)" xlink:href="#linear-gradient-47"/><linearGradient id="linear-gradient-52" x1="188.82" y1="290.82" x2="188.2" y2="289.54" gradientUnits="userSpaceOnUse"><stop offset="0.1" stop-color="#f0da2a"/><stop offset="0.3" stop-color="#ead228"/><stop offset="0.8" stop-color="#f2e261"/></linearGradient><linearGradient id="linear-gradient-53" x1="192.97" y1="292.59" x2="192.24" y2="290.35" xlink:href="#linear-gradient-52"/><linearGradient id="linear-gradient-54" x1="192.97" y1="292.59" x2="192.24" y2="290.35" xlink:href="#linear-gradient-52"/><linearGradient id="linear-gradient-55" x1="189.48" y1="291.99" x2="190.37" y2="290.05" xlink:href="#linear-gradient-52"/><linearGradient id="linear-gradient-56" x1="189.62" y1="292.05" x2="190.5" y2="290.11" xlink:href="#linear-gradient-52"/><filter id="luminosity-noclip-35" x="187.5" y="288.63" width="5.13" height="2.74" filterUnits="userSpaceOnUse" color-interpolation-filters="sRGB"><feFlood flood-color="#fff" result="bg"/><feBlend in="SourceGraphic" in2="bg"/></filter><mask id="mask-35" x="10.82" y="39.32" width="5.13" height="2.74" maskUnits="userSpaceOnUse"><g class="cls-178"><g transform="translate(-176.68 -249.31)"><g class="cls-11"><path class="cls-12" d="M187.51,288.63l.18.21.21.24.28.28a2.84,2.84,0,0,0,.37.3,1.26,1.26,0,0,0,.47.21c.17,0,.37,0,.57,0a.83.83,0,0,1,.54.27c.14.15.24.33.36.47l.1.08a.2.2,0,0,0,.11,0l.27,0a4.94,4.94,0,0,1,.53-.1,1.19,1.19,0,0,1,.5,0,.69.69,0,0,1,.37.23,1.5,1.5,0,0,1,.17.28,1.6,1.6,0,0,1,.07.19l0,.07h0l0-.06-.1-.18a1.24,1.24,0,0,0-.19-.24.67.67,0,0,0-.32-.18,1.19,1.19,0,0,0-.46,0l-.53.1a1.42,1.42,0,0,1-.3,0,.33.33,0,0,1-.16,0,.69.69,0,0,1-.13-.11c-.13-.17-.21-.34-.33-.5a1,1,0,0,0-.21-.19.65.65,0,0,0-.27-.08.94.94,0,0,0-.29,0,2.58,2.58,0,0,1-.29,0,1.15,1.15,0,0,1-.53-.18,2.43,2.43,0,0,1-.38-.31,3.54,3.54,0,0,1-.27-.32l-.19-.25-.14-.24Z"/></g></g></g></mask><linearGradient id="linear-gradient-57" x1="187.5" y1="290" x2="192.64" y2="290" gradientUnits="userSpaceOnUse"><stop offset="0.09" stop-color="#ffec72"/><stop offset="0.44" stop-color="#ffeb62"/><stop offset="0.71" stop-color="#fff4b8"/><stop offset="1" stop-color="#fff"/></linearGradient><linearGradient id="linear-gradient-58" x1="190.68" y1="295.68" x2="189.13" y2="273.82" gradientUnits="userSpaceOnUse"><stop offset="0.1" stop-color="#ffec72"/><stop offset="0.3" stop-color="#ffeb62"/><stop offset="0.71" stop-color="#fff4b8"/><stop offset="1" stop-color="#fff7d3"/></linearGradient><filter id="luminosity-noclip-36" x="193.11" y="286.67" width="9.59" height="6.67" filterUnits="userSpaceOnUse" color-interpolation-filters="sRGB"><feFlood flood-color="#fff" result="bg"/><feBlend in="SourceGraphic" in2="bg"/></filter><mask id="mask-36" x="16.43" y="37.36" width="9.59" height="6.67" maskUnits="userSpaceOnUse"><g class="cls-177"><g transform="translate(-176.68 -249.31)"><g class="cls-15"><path class="cls-16" d="M202.51,286.67a6.36,6.36,0,0,1-.1,2.46,4.79,4.79,0,0,1-2.32,2.88,5.47,5.47,0,0,1-3.51.7,4.59,4.59,0,0,1-1.45-.64,7.73,7.73,0,0,1-1.14-.7.27.27,0,0,0-.14-.07c-.17-.09-.44,0-.61.11l-.13,0a5.51,5.51,0,0,0,6.75,1.32,4.81,4.81,0,0,0,2.62-3A6.11,6.11,0,0,0,202.51,286.67Z"/></g></g></g></mask><linearGradient id="linear-gradient-59" x1="197.71" y1="288.62" x2="198.97" y2="294.22" xlink:href="#linear-gradient-57"/><linearGradient id="linear-gradient-60" x1="187.69" y1="282.66" x2="185.17" y2="278.9" gradientUnits="userSpaceOnUse"><stop offset="0.1" stop-color="#f9e762"/><stop offset="0.3" stop-color="#fae64f"/><stop offset="0.8" stop-color="#f5ebab"/></linearGradient><linearGradient id="linear-gradient-61" x1="184.85" y1="281.1" x2="182.8" y2="277.93" xlink:href="#linear-gradient-60"/><radialGradient id="radial-gradient-5" cx="182.25" cy="283.51" r="10.52" gradientUnits="userSpaceOnUse"><stop offset="0.1" stop-color="#f9e762"/><stop offset="0.3" stop-color="#fae64f"/><stop offset="0.45" stop-color="#f5ebab"/><stop offset="1" stop-color="#f2f2f2"/></radialGradient><linearGradient id="linear-gradient-62" x1="182.15" y1="280.54" x2="179.9" y2="277.64" xlink:href="#linear-gradient-60"/><radialGradient id="radial-gradient-6" cx="181.05" cy="281.64" r="9" xlink:href="#radial-gradient-5"/><linearGradient id="linear-gradient-63" x1="192.85" y1="286.77" x2="189.94" y2="279.72" gradientUnits="userSpaceOnUse"><stop offset="0.1" stop-color="#f9e762"/><stop offset="0.59" stop-color="#fae64f"/><stop offset="0.97" stop-color="#f5ebab"/></linearGradient><linearGradient id="linear-gradient-64" x1="185.33" y1="296.2" x2="187.05" y2="283.4" xlink:href="#linear-gradient-60"/><linearGradient id="linear-gradient-65" x1="193.3" y1="294.78" x2="197.04" y2="279.8" xlink:href="#linear-gradient-60"/><linearGradient id="linear-gradient-66" x1="195.86" y1="293.73" x2="197.96" y2="289.76" xlink:href="#linear-gradient-60"/><radialGradient id="radial-gradient-7" cx="187.23" cy="283.62" r="11.49" xlink:href="#radial-gradient-5"/><radialGradient id="radial-gradient-8" cx="190.37" cy="285.17" r="11.41" xlink:href="#radial-gradient-5"/><filter id="luminosity-noclip-37" x="183.34" y="277.73" width="18.36" height="14.52" filterUnits="userSpaceOnUse" color-interpolation-filters="sRGB"><feFlood flood-color="#fff" result="bg"/><feBlend in="SourceGraphic" in2="bg"/></filter><mask id="mask-37" x="6.66" y="28.42" width="18.36" height="14.52" maskUnits="userSpaceOnUse"><g class="cls-176"><g transform="translate(-176.68 -249.31)"><g class="cls-17"><path class="cls-18" d="M201.36,280.17c-2.53-3-7.32-2.84-10.7-1.65a11.24,11.24,0,0,0-7.27,9.55,21.92,21.92,0,0,0,.13,4.13,0,0,0,0,0,.09,0c0-2.83.14-5.74,1.52-8.27a10.82,10.82,0,0,1,5.25-4.72,11,11,0,0,1,11.31,1.38C201.77,280.65,201.42,280.25,201.36,280.17Z"/></g></g></g></mask><linearGradient id="linear-gradient-67" x1="192.92" y1="287.09" x2="189.44" y2="279.24" xlink:href="#linear-gradient-57"/><filter id="luminosity-noclip-38" x="180.13" y="275.84" width="15.88" height="15.15" filterUnits="userSpaceOnUse" color-interpolation-filters="sRGB"><feFlood flood-color="#fff" result="bg"/><feBlend in="SourceGraphic" in2="bg"/></filter><mask id="mask-38" x="3.45" y="26.54" width="15.88" height="15.15" maskUnits="userSpaceOnUse"><g class="cls-175"><g transform="translate(-176.68 -249.31)"><g class="cls-19"><path class="cls-20" d="M196,276.57c-1.84-1.1-4.21-.78-6.16-.17a13.48,13.48,0,0,0-5.13,3.15,15.36,15.36,0,0,0-4.56,11.38c0,.09.13.07.14,0a16.83,16.83,0,0,1,1.13-5.83,15.23,15.23,0,0,1,3.35-4.93,14,14,0,0,1,4.83-3.16,13.09,13.09,0,0,1,2.94-.81,7.61,7.61,0,0,1,3.43.49C196,276.7,196,276.6,196,276.57Z"/></g></g></g></mask><linearGradient id="linear-gradient-68" x1="187.39" y1="282.75" x2="184.93" y2="279.02" xlink:href="#linear-gradient-57"/><filter id="luminosity-noclip-39" x="178.35" y="274.4" width="13.22" height="14.76" filterUnits="userSpaceOnUse" color-interpolation-filters="sRGB"><feFlood flood-color="#fff" result="bg"/><feBlend in="SourceGraphic" in2="bg"/></filter><mask id="mask-39" x="1.67" y="25.09" width="13.22" height="14.76" maskUnits="userSpaceOnUse"><g class="cls-174"><g transform="translate(-176.68 -249.31)"><g class="cls-21"><path class="cls-22" d="M190.33,274.43a4.33,4.33,0,0,0-2.31.49,24,24,0,0,0-2.3,1.07,14,14,0,0,0-4.14,3.57,15.18,15.18,0,0,0-3.22,9.55c0,.08.12.07.12,0a16.4,16.4,0,0,1,3.28-9.1c2-2.63,7-5.86,9.8-5.31Z"/></g></g></g></mask><linearGradient id="linear-gradient-69" x1="184.62" y1="281.54" x2="182.07" y2="278.76" xlink:href="#linear-gradient-57"/><filter id="luminosity-noclip-40" x="176.9" y="275" width="8.5" height="11.21" filterUnits="userSpaceOnUse" color-interpolation-filters="sRGB"><feFlood flood-color="#fff" result="bg"/><feBlend in="SourceGraphic" in2="bg"/></filter><mask id="mask-40" x="0.21" y="25.69" width="8.5" height="11.21" maskUnits="userSpaceOnUse"><g class="cls-173"><g transform="translate(-176.68 -249.31)"><g class="cls-23"><path class="cls-24" d="M184.35,275.39a11.14,11.14,0,0,0-5.29,4.47,11.53,11.53,0,0,0-2.16,6.33,0,0,0,1,0,0,0,16.55,16.55,0,0,1,.76-3.18,12.67,12.67,0,0,1,1.63-2.95,20.72,20.72,0,0,1,2.14-2.36,22.5,22.5,0,0,1,3.92-2.69C185.5,275,184.46,275.35,184.35,275.39Z"/></g></g></g></mask><linearGradient id="linear-gradient-70" x1="181.55" y1="280.97" x2="179.45" y2="279.02" xlink:href="#linear-gradient-57"/><filter id="luminosity-noclip-41" x="186.18" y="279.7" width="16.58" height="13" filterUnits="userSpaceOnUse" color-interpolation-filters="sRGB"><feFlood flood-color="#fff" result="bg"/><feBlend in="SourceGraphic" in2="bg"/></filter><mask id="mask-41" x="9.5" y="30.39" width="16.58" height="13" maskUnits="userSpaceOnUse"><g class="cls-172"><g transform="translate(-176.68 -249.31)"><g class="cls-25"><path class="cls-26" d="M186.39,292.7s-1.27-5.74,2.46-9.84,9.24-3.68,11.43-1.73a7.91,7.91,0,0,1,2.46,6.52s-.23-4.74-3.1-6.38a8.67,8.67,0,0,0-10.29,1.87C186.48,286.23,186.21,290.52,186.39,292.7Z"/></g></g></g></mask><linearGradient id="linear-gradient-71" x1="194.66" y1="289.73" x2="192.43" y2="279.62" xlink:href="#linear-gradient-57"/><filter id="luminosity-noclip-42" x="192.21" y="290.8" width="1.84" height="0.71" filterUnits="userSpaceOnUse" color-interpolation-filters="sRGB"><feFlood flood-color="#fff" result="bg"/><feBlend in="SourceGraphic" in2="bg"/></filter><mask id="mask-42" x="15.53" y="41.49" width="1.84" height="0.71" maskUnits="userSpaceOnUse"><g class="cls-171"><g transform="translate(-176.68 -249.31)"><g class="cls-27"><path class="cls-28" d="M194.05,291.41a.5.5,0,0,0-.6-.15,1,1,0,0,1-.69.06c-.18-.07-.25-.28-.37-.42s-.19-.11-.18-.09c.29.28.24.59.5.67.43.14.85-.33,1.26-.13Z"/></g></g></g></mask><linearGradient id="linear-gradient-72" x1="193.23" y1="290.84" x2="192.95" y2="291.58" xlink:href="#linear-gradient-57"/><linearGradient id="linear-gradient-73" x1="205.1" y1="289.15" x2="228.43" y2="289.15" xlink:href="#linear-gradient-60"/><linearGradient id="linear-gradient-74" x1="207.11" y1="283.33" x2="221.93" y2="283.33" gradientUnits="userSpaceOnUse"><stop offset="0.1" stop-color="#ffec72"/><stop offset="0.51" stop-color="#fff4b8"/><stop offset="1" stop-color="#ffeb62"/></linearGradient><linearGradient id="linear-gradient-75" x1="207.11" y1="283.33" x2="221.93" y2="283.33" gradientUnits="userSpaceOnUse"><stop offset="0.1" stop-color="#f9e762"/><stop offset="0.3" stop-color="#fae64f"/><stop offset="0.8" stop-color="#f5ebab"/><stop offset="1" stop-color="#f9e762"/></linearGradient><linearGradient id="linear-gradient-76" x1="207.07" y1="282.85" x2="221.93" y2="282.85" xlink:href="#linear-gradient-75"/><linearGradient id="linear-gradient-77" x1="207.11" y1="282.12" x2="221.93" y2="282.12" xlink:href="#linear-gradient-75"/><linearGradient id="linear-gradient-78" x1="207.42" y1="284.89" x2="221.89" y2="284.89" xlink:href="#linear-gradient-75"/><linearGradient id="linear-gradient-79" x1="207.11" y1="283.33" x2="221.93" y2="283.33" gradientUnits="userSpaceOnUse"><stop offset="0.1" stop-color="#ffe62d"/><stop offset="0.51" stop-color="#f2e266"/><stop offset="1" stop-color="#f8e02b"/></linearGradient><filter id="luminosity-noclip-43" x="207.11" y="279.11" width="14.82" height="8.45" filterUnits="userSpaceOnUse" color-interpolation-filters="sRGB"><feFlood flood-color="#fff" result="bg"/><feBlend in="SourceGraphic" in2="bg"/></filter><mask id="mask-43" x="30.43" y="29.8" width="14.82" height="8.45" maskUnits="userSpaceOnUse"><g class="cls-170"><g transform="translate(-176.68 -249.31)"><g class="cls-29"><path class="cls-30" d="M221.73,287.56s.82-6-.87-6.84a13.17,13.17,0,0,0-10.65-.86c-5.15,1.78-3.14,5.65.68,6.47A96.24,96.24,0,0,0,221.73,287.56Z"/></g></g></g></mask><radialGradient id="radial-gradient-9" cx="208.93" cy="279.77" r="9.64" gradientUnits="userSpaceOnUse"><stop offset="0" stop-color="#fff"/><stop offset="0.25" stop-color="#fff4b8"/><stop offset="0.79" stop-color="#ffeb62"/><stop offset="1" stop-color="#ffec72"/></radialGradient><linearGradient id="linear-gradient-81" x1="220.93" y1="285.81" x2="224.65" y2="282.19" xlink:href="#linear-gradient-74"/><linearGradient id="linear-gradient-82" x1="220.93" y1="285.81" x2="224.65" y2="282.19" xlink:href="#linear-gradient-75"/><linearGradient id="linear-gradient-83" x1="220.08" y1="284.93" x2="223.8" y2="281.31" xlink:href="#linear-gradient-75"/><linearGradient id="linear-gradient-84" x1="220.89" y1="285.77" x2="224.61" y2="282.15" xlink:href="#linear-gradient-75"/><linearGradient id="linear-gradient-85" x1="205.1" y1="290.39" x2="228.43" y2="290.39" xlink:href="#linear-gradient-74"/><linearGradient id="linear-gradient-86" x1="205.13" y1="283.06" x2="228.12" y2="283.06" xlink:href="#linear-gradient-60"/><linearGradient id="linear-gradient-87" x1="204.91" y1="286.48" x2="228.43" y2="286.48" xlink:href="#linear-gradient-75"/><linearGradient id="linear-gradient-88" x1="205.1" y1="286.17" x2="228.43" y2="286.17" xlink:href="#linear-gradient-75"/><linearGradient id="linear-gradient-89" x1="205.1" y1="287.22" x2="228.43" y2="287.22" xlink:href="#linear-gradient-60"/><linearGradient id="linear-gradient-90" x1="205.1" y1="291.54" x2="228.43" y2="291.54" gradientUnits="userSpaceOnUse"><stop offset="0.1" stop-color="#f9e762"/><stop offset="0.3" stop-color="#fae64f"/><stop offset="0.54" stop-color="#f9eead"/><stop offset="0.8" stop-color="#f5ebab"/><stop offset="1" stop-color="#f9e762"/></linearGradient><linearGradient id="linear-gradient-91" x1="205.1" y1="290.84" x2="228.43" y2="290.84" xlink:href="#linear-gradient-90"/><linearGradient id="linear-gradient-92" x1="205.09" y1="290.54" x2="230.12" y2="290.54" xlink:href="#linear-gradient-60"/><linearGradient id="linear-gradient-93" x1="205.1" y1="295.68" x2="228.43" y2="295.68" xlink:href="#linear-gradient-90"/><linearGradient id="linear-gradient-94" x1="205.08" y1="295.42" x2="229.06" y2="295.42" xlink:href="#linear-gradient-60"/><linearGradient id="linear-gradient-95" x1="205.1" y1="298.7" x2="228.43" y2="298.7" xlink:href="#linear-gradient-90"/><linearGradient id="linear-gradient-96" x1="205.1" y1="299.79" x2="228.43" y2="299.79" xlink:href="#linear-gradient-90"/><linearGradient id="linear-gradient-97" x1="205.09" y1="298.43" x2="228.87" y2="298.43" xlink:href="#linear-gradient-60"/><filter id="luminosity-noclip-45" x="205.12" y="291.25" width="20.84" height="5.09" filterUnits="userSpaceOnUse" color-interpolation-filters="sRGB"><feFlood flood-color="#fff" result="bg"/><feBlend in="SourceGraphic" in2="bg"/></filter><mask id="mask-45" x="28.44" y="41.95" width="20.84" height="5.09" maskUnits="userSpaceOnUse"><g class="cls-169"><g transform="translate(-176.68 -249.31)"><g class="cls-31"><path class="cls-32" d="M218,295.6a24.09,24.09,0,0,1-8.81-1.53c-1.52-.59-3.45-1.4-4.11-2.82.32,1.62,1.92,2.63,3.3,3.24a22.7,22.7,0,0,0,5.75,1.67A21.81,21.81,0,0,0,226,294.42,25,25,0,0,1,218,295.6Z"/></g></g></g></mask><linearGradient id="linear-gradient-98" x1="215.26" y1="294.11" x2="214.77" y2="296.38" xlink:href="#linear-gradient-57"/><filter id="luminosity-noclip-46" x="206.15" y="295.76" width="19.97" height="3.8" filterUnits="userSpaceOnUse" color-interpolation-filters="sRGB"><feFlood flood-color="#fff" result="bg"/><feBlend in="SourceGraphic" in2="bg"/></filter><mask id="mask-46" x="29.47" y="46.45" width="19.97" height="3.8" maskUnits="userSpaceOnUse"><g class="cls-168"><g transform="translate(-176.68 -249.31)"><g class="cls-35"><path class="cls-36" d="M222.19,298.43a32,32,0,0,1-6.1.56,19.25,19.25,0,0,1-5.85-.83,17.85,17.85,0,0,1-4.09-2.4c1.95,2.69,5.85,3.52,9,3.76a22.62,22.62,0,0,0,5.63-.37,15.68,15.68,0,0,0,5.33-1.6.12.12,0,0,0,.05-.07A23,23,0,0,1,222.19,298.43Z"/></g></g></g></mask><linearGradient id="linear-gradient-99" x1="216.02" y1="297.41" x2="215.72" y2="299.59" xlink:href="#linear-gradient-57"/><filter id="luminosity-noclip-47" x="205.49" y="286.66" width="21.11" height="5.26" filterUnits="userSpaceOnUse" color-interpolation-filters="sRGB"><feFlood flood-color="#fff" result="bg"/><feBlend in="SourceGraphic" in2="bg"/></filter><mask id="mask-47" x="28.81" y="37.35" width="21.11" height="5.26" maskUnits="userSpaceOnUse"><g class="cls-167"><g transform="translate(-176.68 -249.31)"><g class="cls-37"><path class="cls-38" d="M226.6,289.06c-4.47,2.39-10.47,2.57-15.3,1.46a12.76,12.76,0,0,1-3.87-1.37c-1.79-1.18-2-1.83-1.93-2.49-.32,3.44,5.16,4.57,7.53,4.95a24.3,24.3,0,0,0,8.29-.09A10.8,10.8,0,0,0,226.6,289.06Z"/></g></g></g></mask><linearGradient id="linear-gradient-100" x1="215.54" y1="289.68" x2="214.8" y2="292.29" xlink:href="#linear-gradient-57"/><filter id="luminosity-noclip-48" x="206.45" y="279.88" width="20.83" height="7.73" filterUnits="userSpaceOnUse" color-interpolation-filters="sRGB"><feFlood flood-color="#fff" result="bg"/><feBlend in="SourceGraphic" in2="bg"/></filter><mask id="mask-48" x="29.77" y="30.58" width="20.83" height="7.73" maskUnits="userSpaceOnUse"><g class="cls-166"><g transform="translate(-176.68 -249.31)"><g class="cls-39"><path class="cls-40" d="M227.17,285.58a30.7,30.7,0,0,1-7,1.35,36.29,36.29,0,0,1-7-.52,10.8,10.8,0,0,1-5.36-2.33c-.81-.7-1.25-1.5-.53-2.46.48-.64,1.27-1,1.69-1.67,0,0,0-.08,0-.06a5.63,5.63,0,0,0-1.92,1.51,1.91,1.91,0,0,0-.47,2.09,5.06,5.06,0,0,0,2.08,2,10.54,10.54,0,0,0,2.85,1.26,26.18,26.18,0,0,0,8,.81,18.19,18.19,0,0,0,7.74-1.84C227.33,285.69,227.25,285.56,227.17,285.58Z"/></g></g></g></mask><linearGradient id="linear-gradient-101" x1="217.21" y1="282.79" x2="215.88" y2="288.05" xlink:href="#linear-gradient-57"/><filter id="luminosity-noclip-49" x="214.45" y="278.83" width="7.67" height="4.56" filterUnits="userSpaceOnUse" color-interpolation-filters="sRGB"><feFlood flood-color="#fff" result="bg"/><feBlend in="SourceGraphic" in2="bg"/></filter><mask id="mask-49" x="37.77" y="29.53" width="7.67" height="4.56" maskUnits="userSpaceOnUse"><g class="cls-165"><g transform="translate(-176.68 -249.31)"><g class="cls-41"><path class="cls-42" d="M214.45,278.83s5.13,0,6.9,1.95-.08,2.61-.08,2.61,1.14-.93-.15-2.57S214.45,278.83,214.45,278.83Z"/></g></g></g></mask><linearGradient id="linear-gradient-102" x1="222.17" y1="282.51" x2="217.83" y2="279.95" gradientTransform="matrix(1, 0, 0, 1, 0, 0)" xlink:href="#linear-gradient-43"/><filter id="luminosity-noclip-50" x="220.53" y="284.09" width="1.82" height="0.96" filterUnits="userSpaceOnUse" color-interpolation-filters="sRGB"><feFlood flood-color="#fff" result="bg"/><feBlend in="SourceGraphic" in2="bg"/></filter><mask id="mask-50" x="43.84" y="34.79" width="1.82" height="0.96" maskUnits="userSpaceOnUse"><g class="cls-164"><g transform="translate(-176.68 -249.31)"><g class="cls-43"><path class="cls-44" d="M222.34,284.09a1.9,1.9,0,0,1-1.72.67s-.34.17.27.27A1.2,1.2,0,0,0,222.34,284.09Z"/></g></g></g></mask><linearGradient id="linear-gradient-103" x1="219.55" y1="285.9" x2="222.57" y2="283.93" gradientTransform="matrix(1, 0, 0, 1, 0, 0)" xlink:href="#linear-gradient-43"/></defs><title>butterIcon</title><g class="cls-49"><g id="Layer_2" data-name="Layer 2"><path class="cls-50" d="M242.8,263.39a7.5,7.5,0,0,0-.1,1.64c0,1.27.1,2.53.07,3.8-.05,2.59-.26,5.19-.47,7.77-.1,1.23-.25,2.45-.25,3.7a18.14,18.14,0,0,1-.1,3.9c-.23,1-.76,1.86-.61,2.92a3.23,3.23,0,0,0,.24.82,5,5,0,0,0-.29.66,18,18,0,0,1-5.47,2.15A35,35,0,0,1,232,291a28.33,28.33,0,0,0-4,.54c-1.24.26-2.47.63-3.72.87a33,33,0,0,1-4.09.44c-1.26.06-2.52.06-3.78.11a25,25,0,0,0-2.85.49l-.23-.08a7.89,7.89,0,0,1-2.32-1.16,9.9,9.9,0,0,0-3.55-1.86c-.78-.22-2-.9-2.79-1.06a12.34,12.34,0,0,1-2.52-1.12c-.72-.34-1.48-.53-2.21-.81a17.15,17.15,0,0,1-2.36-1.15c-1.48-.85-2.9-1.81-4.37-2.68s-3.12-1.69-4.7-2.51-2.77-1.43-4.34-2.21a30.78,30.78,0,0,1-3.69-1.58c-1.08-.19-.58-1.74-.54-2.45.12-2.41-.12-4.84-.14-7.24,0-2.81.22-5.75,0-8.54a58.59,58.59,0,0,1-.1-6.23s0-.06,0-.09a5.22,5.22,0,0,1,2.41-.79c1.26-.18,2.51-.43,3.77-.61a90.13,90.13,0,0,1,9.56-.91c3.24-.11,6.47-.49,9.72-.5a28.36,28.36,0,0,0,4.51-.25l1.68-.27c.56.38,1.09.81,1.84.59a2,2,0,0,0,.49-.22h.42c.77-.05.53.53,1.87.75.51.09.95.6,1.39.88a11.1,11.1,0,0,0,2,.82c1.3.48,2.37,1,3.7,1.35a36.09,36.09,0,0,1,4.24,1.59c1.31.58,2.61,1.21,4,1.7s2.65.81,4,1.27a25.75,25.75,0,0,1,3.54,1.73,12.47,12.47,0,0,0,3.24.84,1.86,1.86,0,0,1,.21.51,2.36,2.36,0,0,0,.53.92,1.54,1.54,0,0,1,.22.39A6.56,6.56,0,0,1,242.8,263.39Z" transform="translate(-176.68 -249.31)"/><path class="cls-51" d="M243,262.43a1.54,1.54,0,0,0-.22-.39,2.36,2.36,0,0,1-.53-.92,1.86,1.86,0,0,0-.21-.51h0a.45.45,0,0,1,0,.28.83.83,0,0,1-.48.57A7,7,0,0,1,239,262c-1.08.11-2.16.15-3.25.17-2.84,0-5.68.32-8.52.6-2.22.22-4.41.57-6.62.87-1.12.16-2.25.3-3.37.45a10.75,10.75,0,0,1-2.65.22,4.17,4.17,0,0,1-1.79-.71,9.77,9.77,0,0,0-2.53-1.14c-.88-.26-1.77-.46-2.66-.68a28.85,28.85,0,0,1-2.9-.94c-3.95-1.46-7.7-3.4-11.65-4.89a62.59,62.59,0,0,0-6-1.85c-.49-.13-1-.19-1.47-.35s-.83-.33-1.26-.47a19.5,19.5,0,0,1-2.47-.86.08.08,0,0,1,0-.1,3.06,3.06,0,0,1,.71-.58l-.45.07a5.22,5.22,0,0,0-2.41.79s0,.06,0,.09a58.59,58.59,0,0,0,.1,6.23c.22,2.79,0,5.73,0,8.54,0,2.4.26,4.83.14,7.24,0,.71-.54,2.26.54,2.45a30.78,30.78,0,0,0,3.69,1.58c1.57.78,2.78,1.4,4.34,2.21s3.16,1.62,4.7,2.51,2.89,1.83,4.37,2.68a17.15,17.15,0,0,0,2.36,1.15c.73.28,1.49.47,2.21.81a12.34,12.34,0,0,0,2.52,1.12c.79.16,2,.84,2.79,1.06a9.9,9.9,0,0,1,3.55,1.86,7.89,7.89,0,0,0,2.32,1.16l.23.08a25,25,0,0,1,2.85-.49c1.26-.05,2.52-.05,3.78-.11a33,33,0,0,0,4.09-.44c1.25-.24,2.48-.61,3.72-.87a28.33,28.33,0,0,1,4-.54,35,35,0,0,0,3.84-.21,18,18,0,0,0,5.47-2.15,5,5,0,0,1,.29-.66,3.23,3.23,0,0,1-.24-.82c-.15-1.06.38-1.91.61-2.92a18.14,18.14,0,0,0,.1-3.9c0-1.25.15-2.47.25-3.7.21-2.58.42-5.18.47-7.77,0-1.27-.06-2.53-.07-3.8a7.5,7.5,0,0,1,.1-1.64A6.56,6.56,0,0,0,243,262.43Z" transform="translate(-176.68 -249.31)"/><path class="cls-52" d="M211.54,249.6c.46.18.85.5,1.3.71a2.08,2.08,0,0,0,1,.24c.26,0,.51-.08.76-.12a2.45,2.45,0,0,1,1.48.41,11.77,11.77,0,0,0,1.91.78,3.69,3.69,0,0,1-.63-.31c-.44-.28-.88-.79-1.39-.88-1.34-.22-1.1-.8-1.87-.75h-.42a2,2,0,0,1-.49.22c-.75.22-1.28-.21-1.84-.59l-.73.11A2.69,2.69,0,0,1,211.54,249.6Z" transform="translate(-176.68 -249.31)"/><g class="cls-53"><path class="cls-54" d="M213.56,292.47c-.22-1.66-.37-3.31-.44-5-.14-3.7,0-7.4-.13-11.1-.05-1.11-.13-2.22-.23-3.33a30.1,30.1,0,0,1-.3-3.27c0-1,.13-2,.1-3.07a2.68,2.68,0,0,1,0-1.13c0-.12.14-.24.06-.37a.62.62,0,0,0-.42-.34c-.62-.1-1.26-.07-1.62-.68a2.38,2.38,0,0,0-1.76-1.69c-.93-.31-1.82-.73-2.75-1.07s-2-.67-2.95-1-1.88-.8-2.82-1.2-2.1-.87-3.16-1.29c-2-.81-4.09-1.58-6.15-2.33s-4.08-1.43-6.18-2c-1.46-.42-2.92-.84-4.34-1.38a3.64,3.64,0,0,0-.8.43s0,.06,0,.09a58.59,58.59,0,0,0,.1,6.23c.22,2.79,0,5.73,0,8.53,0,2.41.26,4.84.14,7.24,0,.72-.54,2.27.54,2.46a30.69,30.69,0,0,0,3.69,1.57c1.57.79,2.78,1.41,4.34,2.22s3.16,1.61,4.7,2.51,2.89,1.83,4.37,2.68a18.38,18.38,0,0,0,2.36,1.15c.73.28,1.49.47,2.21.8a11.85,11.85,0,0,0,2.52,1.13c.79.16,2,.84,2.79,1.06a9.75,9.75,0,0,1,3.55,1.86,7.89,7.89,0,0,0,2.32,1.16l.23.08.12,0C213.63,293.07,213.6,292.77,213.56,292.47Z" transform="translate(-176.68 -249.31)"/></g><path class="cls-55" d="M243,262.69l-.07,0c-.63-.09-1.26-.07-1.88-.16-1.54,0-3.05.26-4.58.34-.78,0-1.56,0-2.34,0s-1.5.1-2.25.19c-2.08.24-4.14.59-6.23.72s-4.34.1-6.5.36c-.86.11-1.71.23-2.58.3a4.44,4.44,0,0,0-2,.48c-1.6,1-1.36,3.12-1.62,4.79,0,.91.14,1.81.23,2.73q.34,3.33.36,6.66c0,2.19,0,4.37,0,6.56a59.62,59.62,0,0,0,.41,6.26c.06.48.13.95.18,1.43a18.68,18.68,0,0,1,2.57-.45c1.24-.05,2.49,0,3.73-.11a32,32,0,0,0,4-.44c1.24-.23,2.45-.61,3.68-.86a25.05,25.05,0,0,1,3.94-.54,36.71,36.71,0,0,0,3.79-.21,18.2,18.2,0,0,0,5.41-2.14,4.66,4.66,0,0,1,.28-.67,3.68,3.68,0,0,1-.23-.82,8.14,8.14,0,0,1,.6-2.91,18.13,18.13,0,0,0,.1-3.9c0-1.24.15-2.45.25-3.68.2-2.58.41-5.17.46-7.75,0-1.27-.06-2.53-.06-3.79a7.62,7.62,0,0,1,.09-1.65C242.85,263.2,242.93,263,243,262.69Z" transform="translate(-176.68 -249.31)"/><g class="cls-56"><path class="cls-57" d="M243,262.69l-.07,0c-.63-.09-1.26-.07-1.88-.16-1.54,0-3.05.26-4.58.34-.78,0-1.56,0-2.34,0s-1.5.1-2.25.19c-2.08.24-4.14.59-6.23.72s-4.34.1-6.5.36c-.86.11-1.71.23-2.58.3a4.44,4.44,0,0,0-2,.48c-1.6,1-1.36,3.12-1.62,4.79,0,.91.14,1.81.23,2.73q.34,3.33.36,6.66c0,2.19,0,4.37,0,6.56a59.62,59.62,0,0,0,.41,6.26c.06.48.13.95.18,1.43a18.68,18.68,0,0,1,2.57-.45c1.24-.05,2.49,0,3.73-.11a32,32,0,0,0,4-.44c1.24-.23,2.45-.61,3.68-.86a25.05,25.05,0,0,1,3.94-.54,36.71,36.71,0,0,0,3.79-.21,18.2,18.2,0,0,0,5.41-2.14,4.66,4.66,0,0,1,.28-.67,3.68,3.68,0,0,1-.23-.82,8.14,8.14,0,0,1,.6-2.91,18.13,18.13,0,0,0,.1-3.9c0-1.24.15-2.45.25-3.68.2-2.58.41-5.17.46-7.75,0-1.27-.06-2.53-.06-3.79a7.62,7.62,0,0,1,.09-1.65C242.85,263.2,242.93,263,243,262.69Z" transform="translate(-176.68 -249.31)"/></g><path class="cls-58" d="M241.88,283.77a5.21,5.21,0,0,1-.51,1.36,6.86,6.86,0,0,0-.59,1.22,8.39,8.39,0,0,1-.58,2.06c-.75,1.13-2.26,1.27-3.49,1.22a25.75,25.75,0,0,0-6.13.58q-1.53.33-3,.75c-1,.28-2,.67-3,.87a22,22,0,0,1-3.71.31,18,18,0,0,1-2.32.2,10.36,10.36,0,0,1-1.93.06,9.94,9.94,0,0,0-2,0,2.71,2.71,0,0,1-.57,0c-.34-.85-.19-1.76-.58-2.58l0-.07c.06.72.13,1.44.22,2.15.06.48.13,1,.18,1.44a19.37,19.37,0,0,1,2.6-.45c1.26-.05,2.52-.05,3.78-.11a33,33,0,0,0,4.09-.44c1.25-.24,2.48-.61,3.72-.87a28.33,28.33,0,0,1,4-.54,35,35,0,0,0,3.84-.21,18,18,0,0,0,5.47-2.15,5,5,0,0,1,.29-.66,3.23,3.23,0,0,1-.24-.82c-.15-1.06.38-1.91.61-2.92a11.54,11.54,0,0,0,.13-2.82A12.64,12.64,0,0,1,241.88,283.77Z" transform="translate(-176.68 -249.31)"/><path class="cls-59" d="M188.16,282.8s3,2.39,2.28,4.91-2.59,1.54-3.24,1.3a4,4,0,0,0,2.43,1.74c2,.72,4.78,2.87,7.68,2.67s5-2.22,4.85-4.65,1-7.54-2.94-7.61S188.16,282.8,188.16,282.8Z" transform="translate(-176.68 -249.31)"/><g class="cls-60"><path class="cls-61" d="M193.27,287.87c.48-2.19-.25-4.17-2.86-5.57-1.35.28-2.25.5-2.25.5s3,2.39,2.28,4.91-2.59,1.54-3.24,1.3a3.71,3.71,0,0,0,2,1.57l-.06-.29S192.68,290.56,193.27,287.87Z" transform="translate(-176.68 -249.31)"/><path class="cls-62" d="M190.41,282.3c-1.35.28-2.25.5-2.25.5s2.34,1.89,2.38,4.08a1.91,1.91,0,0,1,.4-1.37c1-1.12,1.37,1.62,1.19,2.19a3.8,3.8,0,0,1-2.8,2.33,5.72,5.72,0,0,1-.93.14,5.61,5.61,0,0,0,.78.41l-.06-.29s3.56.27,4.15-2.42C193.75,285.68,193,283.7,190.41,282.3Z" transform="translate(-176.68 -249.31)"/><path class="cls-63" d="M190.41,282.3l-1.31.28a5.1,5.1,0,0,1,2.44,1.31,5.21,5.21,0,0,1,1.26,3.31c-.05,1.76-1.19,2.84-3.18,3.09,1,0,3.19-.35,3.65-2.42S193,283.7,190.41,282.3Z" transform="translate(-176.68 -249.31)"/><path class="cls-64" d="M190.11,291c3.41-.23,5.81-.6,6-4.26a6,6,0,0,0-2.63-5c-1.13.19-2.21.4-3.1.58,2.61,1.4,3.34,3.38,2.86,5.57-.59,2.69-4.15,2.42-4.15,2.42l.06.29a4.7,4.7,0,0,0,.45.17Z" transform="translate(-176.68 -249.31)"/><path class="cls-65" d="M193.51,281.72c-1.13.19-2.21.4-3.1.58,2.12,1.14,3,2.65,3,4.36a10.09,10.09,0,0,0-.11-1.34c0-.2-.09-.93.33-.8s.84.77,1,1.2a3.78,3.78,0,0,1,.25,1.88c-.32,2.39-3,3.13-5.16,3.2l.37.15c3.41-.23,5.81-.6,6-4.26A6,6,0,0,0,193.51,281.72Z" transform="translate(-176.68 -249.31)"/><path class="cls-66" d="M193.51,281.72l-1.27.23a8.78,8.78,0,0,1,.77.54c3.12,2.28,3.64,7.08-.77,8.09a13.86,13.86,0,0,1-2.14.36h0c3.41-.23,5.81-.6,6-4.26A6,6,0,0,0,193.51,281.72Z" transform="translate(-176.68 -249.31)"/><path class="cls-67" d="M199.22,281.16a25.41,25.41,0,0,0-3.21.2l1.13.55s3.1,1.68,3.05,4.51-2,5.42-8.33,4.73l-.43.45c1.73.88,3.78,2,5.88,1.82,2.9-.21,5-2.22,4.85-4.65S203.15,281.23,199.22,281.16Z" transform="translate(-176.68 -249.31)"/><path class="cls-68" d="M199.22,281.16a25.41,25.41,0,0,0-3.21.2l1.13.55s3.07,1.67,3.05,4.47c-.14-1.28.32-1.9.77-.46a5.24,5.24,0,0,1-.2,3.46,5.49,5.49,0,0,1-3.1,2.65,7.37,7.37,0,0,1-3.61.2,4.78,4.78,0,0,1-2.29-1l-.33.35c1.73.88,3.78,2,5.88,1.82,2.9-.21,5-2.22,4.85-4.65S203.15,281.23,199.22,281.16Z" transform="translate(-176.68 -249.31)"/><path class="cls-69" d="M199.22,281.16a17.55,17.55,0,0,0-3.16.21c2,1.14,4.15,1.77,5,4.09a5.49,5.49,0,0,1-2.22,6.35,8.14,8.14,0,0,1-5.45.67l-.32-.05a8.86,8.86,0,0,0,4.2,1c2.9-.21,5-2.22,4.85-4.65S203.15,281.23,199.22,281.16Z" transform="translate(-176.68 -249.31)"/><path class="cls-70" d="M200.19,286.42c.05-2.83-3.05-4.51-3.05-4.51l-1.13-.55c-.83.1-1.68.23-2.5.36a6,6,0,0,1,2.63,5c-.22,3.66-2.62,4-6,4.26.41.18.86.4,1.32.65l.43-.45C198.23,291.84,200.14,289.24,200.19,286.42Z" transform="translate(-176.68 -249.31)"/><path class="cls-71" d="M197.14,281.91l-1.13-.55c-.83.1-1.68.23-2.5.36a6.45,6.45,0,0,1,2.59,4c0-.29,0-.58,0-.87a3.14,3.14,0,0,1,0-.81c.21-1.06,1.48,0,1.86.63a4.64,4.64,0,0,1,.58,2.14,3.1,3.1,0,0,1-.64,2,6.34,6.34,0,0,1-3.75,2.07l-1.23.29c5.59.33,7.31-2.14,7.35-4.81C200.24,283.59,197.14,281.91,197.14,281.91Z" transform="translate(-176.68 -249.31)"/><path class="cls-72" d="M197.14,281.91l-1.13-.55-1,.14a9.48,9.48,0,0,1,1.94,1,5.31,5.31,0,0,1,2.49,4,4.14,4.14,0,0,1-2,3.89,5.66,5.66,0,0,1-2.65.79c-.37,0-.74.1-1.12.16,5,.05,6.51-2.3,6.55-4.84C200.24,283.59,197.14,281.91,197.14,281.91Z" transform="translate(-176.68 -249.31)"/></g><g class="cls-73"><path class="cls-74" d="M192.88,284.48s1.21,2.43.39,3.95a3.73,3.73,0,0,1-3.64,1.83s3.11.44,4.37-1.79C194.93,286.83,194.51,284.61,192.88,284.48Z" transform="translate(-176.68 -249.31)"/></g><g class="cls-75"><path class="cls-76" d="M190.21,284.21s1.21,2.42.4,4A3.75,3.75,0,0,1,187,290s3.12.43,4.38-1.79C192.27,286.56,191.85,284.34,190.21,284.21Z" transform="translate(-176.68 -249.31)"/></g><g class="cls-77"><path class="cls-78" d="M199.63,284a4.77,4.77,0,0,1-.31,5.26,5.21,5.21,0,0,1-4.67,2.08s2.86,1.57,5.46-1.67C202.18,287.11,200,284.54,199.63,284Z" transform="translate(-176.68 -249.31)"/></g><g class="cls-79"><path class="cls-80" d="M195.69,283.33s1.35,3.06.54,4.92a3.87,3.87,0,0,1-3.5,2.56,4.46,4.46,0,0,0,4.27-2.48C197.93,286.32,197.41,283.55,195.69,283.33Z" transform="translate(-176.68 -249.31)"/></g><g class="cls-81"><path class="cls-82" d="M199.22,281.16c-3.93-.07-11.06,1.64-11.06,1.64s3,2.39,2.28,4.91-2.59,1.54-3.24,1.3a4,4,0,0,0,2.43,1.74c2,.72,4.78,2.87,7.68,2.67s5-2.22,4.85-4.65S203.15,281.23,199.22,281.16Z" transform="translate(-176.68 -249.31)"/></g><path class="cls-83" d="M187.51,288.64s.89,1.36,1.64,1.26a.94.94,0,0,1,1.16.55c.27.41.31.37,1,.24s1-.07,1.33.68,1.16.44,1.16.44l1.4,1.54a8.68,8.68,0,0,0-1.4-.48c-.34,0-2.52,0-3-1.16a1.88,1.88,0,0,1-1.64-1S187.75,291,187.51,288.64Z" transform="translate(-176.68 -249.31)"/><g class="cls-84"><path class="cls-85" d="M192.66,292.41a3.72,3.72,0,0,1-1.18-1.76l-.18,0-.46.08A2.9,2.9,0,0,0,192.66,292.41Z" transform="translate(-176.68 -249.31)"/></g><g class="cls-86"><path class="cls-87" d="M190.45,291.3a2.8,2.8,0,0,1-.86-1.42,2.12,2.12,0,0,0-.42,0C189.49,290.47,189.8,291.12,190.45,291.3Z" transform="translate(-176.68 -249.31)"/></g><g class="cls-88"><path class="cls-89" d="M188.27,289.52a4.63,4.63,0,0,1-.58-.63,2.64,2.64,0,0,0,1.05,1.51A2.15,2.15,0,0,1,188.27,289.52Z" transform="translate(-176.68 -249.31)"/></g><path class="cls-90" d="M188.9,289.89c-.69-.17-1.39-1.25-1.39-1.25.24,2.32,1.67,2.05,1.67,2.05a1.54,1.54,0,0,0,.17.31l0-.09A3.84,3.84,0,0,1,188.9,289.89Z" transform="translate(-176.68 -249.31)"/><path class="cls-91" d="M189.3,290.91a3.84,3.84,0,0,1-.4-1,1.09,1.09,0,0,1-.23-.09c0,.16.05.32.07.48a.07.07,0,0,1-.09.06,1.79,1.79,0,0,1-1-.82c.46,1.36,1.49,1.17,1.49,1.17a1.54,1.54,0,0,0,.17.31Z" transform="translate(-176.68 -249.31)"/><path class="cls-92" d="M193.79,291.81s-.85.31-1.16-.44c-.23-.57-.48-.74-.88-.74.48.39.47,1.09.8,1.59a.07.07,0,0,1,0,.1.29.29,0,0,1-.24,0,1.9,1.9,0,0,1-1.08-.56,4.77,4.77,0,0,1-.57-1c-.12,0-.19-.12-.32-.3a4.94,4.94,0,0,0,.55,1.33l.14.23c.68.83,2.48.81,2.78.84a9.8,9.8,0,0,1,1.4.48Z" transform="translate(-176.68 -249.31)"/><path class="cls-93" d="M193.79,291.81s-.85.31-1.16-.44a1.2,1.2,0,0,0-.49-.66c.09.24.18.48.28.72s.38.66.52,1a.07.07,0,0,1-.05.11,2.43,2.43,0,0,1-1.66-.43,4.27,4.27,0,0,1-.86-1.49,5.09,5.09,0,0,0,.5,1.17l.14.23c.68.83,2.48.81,2.78.84a9.8,9.8,0,0,1,1.4.48Z" transform="translate(-176.68 -249.31)"/><path class="cls-94" d="M190.87,291.8a4.94,4.94,0,0,1-.55-1.33v0a1.42,1.42,0,0,0-.44-.49,3.72,3.72,0,0,1,.63,1.38c0,.06-.29-.13-.35-.15-.59-.27-.76-.76-1-1.29a.74.74,0,0,1-.21,0,3.84,3.84,0,0,0,.4,1l0,.09a2.06,2.06,0,0,0,1.47.71,1.29,1.29,0,0,0,.19.32Z" transform="translate(-176.68 -249.31)"/><path class="cls-95" d="M190.87,291.8a4.94,4.94,0,0,1-.55-1.33h0a7.77,7.77,0,0,1,.19.91.07.07,0,0,1-.08.08,1.9,1.9,0,0,1-1.4-1.13,3.86,3.86,0,0,0,.27.59l0,.09a2.06,2.06,0,0,0,1.47.71,1.29,1.29,0,0,0,.19.32Z" transform="translate(-176.68 -249.31)"/><g class="cls-96"><path class="cls-97" d="M187.51,288.63l.18.21.21.24.28.28a2.84,2.84,0,0,0,.37.3,1.26,1.26,0,0,0,.47.21c.17,0,.37,0,.57,0a.83.83,0,0,1,.54.27c.14.15.24.33.36.47l.1.08a.2.2,0,0,0,.11,0l.27,0a4.94,4.94,0,0,1,.53-.1,1.19,1.19,0,0,1,.5,0,.69.69,0,0,1,.37.23,1.5,1.5,0,0,1,.17.28,1.6,1.6,0,0,1,.07.19l0,.07h0l0-.06-.1-.18a1.24,1.24,0,0,0-.19-.24.67.67,0,0,0-.32-.18,1.19,1.19,0,0,0-.46,0l-.53.1a1.42,1.42,0,0,1-.3,0,.33.33,0,0,1-.16,0,.69.69,0,0,1-.13-.11c-.13-.17-.21-.34-.33-.5a1,1,0,0,0-.21-.19.65.65,0,0,0-.27-.08.94.94,0,0,0-.29,0,2.58,2.58,0,0,1-.29,0,1.15,1.15,0,0,1-.53-.18,2.43,2.43,0,0,1-.38-.31,3.54,3.54,0,0,1-.27-.32l-.19-.25-.14-.24Z" transform="translate(-176.68 -249.31)"/></g><path class="cls-98" d="M201.37,280.14a6.66,6.66,0,0,0-3.67-2.3,5.32,5.32,0,0,0-4.16-2,5.55,5.55,0,0,0-3.06-1.43,6.15,6.15,0,0,0-2.63.31,8.18,8.18,0,0,0-4.54,1.08,13.75,13.75,0,0,0-4.37,4,11.38,11.38,0,0,0-2.17,5.73c-.06.82-.08,1.67-.09,2.5a1.55,1.55,0,0,0,.24.93,0,0,0,0,0,0,0,.65.65,0,0,0,.67.59l0,0c.42.16.34.52.44.88a1.26,1.26,0,0,0,.51.75,1.07,1.07,0,0,0,.7.15c.26.18.29.53.54.76a1.62,1.62,0,0,0,.91.48,1.79,1.79,0,0,0,1-.28,2.27,2.27,0,0,1,1.45.74,2.16,2.16,0,0,0,1.09.61,2.44,2.44,0,0,0,1.43-.41c.75.27,1.1,1.22,1.61,1.77a1.17,1.17,0,0,0,1.91-.06.15.15,0,0,0,0-.17v0a12.11,12.11,0,0,1,.65-7.81,7.63,7.63,0,0,1,6.62-4.41,4.93,4.93,0,0,1,4.27,1.72,5.42,5.42,0,0,1,.8,4.35,5,5,0,0,1-2.88,3.69,4.77,4.77,0,0,1-4.65-.93.27.27,0,0,0-.14-.07c-.17-.09-.44,0-.61.11a1.29,1.29,0,0,1-.83-.14c1.48,4,7.43,2.83,8.83,1a11,11,0,0,0,2.17-5.9A9,9,0,0,0,201.37,280.14Z" transform="translate(-176.68 -249.31)"/><g class="cls-99"><path class="cls-100" d="M202.51,286.67a6.36,6.36,0,0,1-.1,2.46,4.79,4.79,0,0,1-2.32,2.88,5.47,5.47,0,0,1-3.51.7,4.59,4.59,0,0,1-1.45-.64,7.73,7.73,0,0,1-1.14-.7.27.27,0,0,0-.14-.07c-.17-.09-.44,0-.61.11l-.13,0a5.51,5.51,0,0,0,6.75,1.32,4.81,4.81,0,0,0,2.62-3A6.11,6.11,0,0,0,202.51,286.67Z" transform="translate(-176.68 -249.31)"/></g><path class="cls-101" d="M197.7,277.84a5.15,5.15,0,0,0-.43-.5,5,5,0,0,0-1.38-.71,7.23,7.23,0,0,0-3.4-.23,12.92,12.92,0,0,0-5.07,1.84,13.65,13.65,0,0,0-3.92,3.33,13.88,13.88,0,0,0-2.05,3.82,14.31,14.31,0,0,0-.75,5.49,9.11,9.11,0,0,1-.06,1.56c0,.06-.11.06-.16.09l.23.05a1.79,1.79,0,0,0,1-.28,2.16,2.16,0,0,1,1.36.67,18.38,18.38,0,0,1-.2-3.68c.1-3.19,1.6-7.61,5.29-9.8a14.91,14.91,0,0,1,10.28-1.44A4.61,4.61,0,0,0,197.7,277.84Z" transform="translate(-176.68 -249.31)"/><g class="cls-60"><path class="cls-102" d="M193.54,275.79a7.15,7.15,0,0,0-.77-.59c-1.85-.91-4-.29-5.74.59a16.6,16.6,0,0,0-4.68,3.59,18.58,18.58,0,0,0-2.73,4.58,23.12,23.12,0,0,0-.72,2.42,16.71,16.71,0,0,0-.41,3c0,.52-.27,1.4.06,1.83h0a1.07,1.07,0,0,0,.7.15c.26.18.29.53.54.76l.09.08a17.39,17.39,0,0,1,1.4-8.31,14.13,14.13,0,0,1,13-8A5.83,5.83,0,0,0,193.54,275.79Z" transform="translate(-176.68 -249.31)"/></g><path class="cls-103" d="M179.3,289a13.28,13.28,0,0,0,.08,2.44.61.61,0,0,1,.07.1,17,17,0,0,1,2.4-9.06,15.48,15.48,0,0,1,3.77-3.93,19.07,19.07,0,0,1,3-1.86,10.53,10.53,0,0,1,1.82-.74A14,14,0,0,0,179.3,289Z" transform="translate(-176.68 -249.31)"/><g class="cls-53"><path class="cls-104" d="M187.85,274.67a7.37,7.37,0,0,0-.94,0,5.36,5.36,0,0,0-1.32.27,15,15,0,0,0-2.32,1.2,13.55,13.55,0,0,0-5.19,6,17.08,17.08,0,0,0-1.13,6c0,.2.1.9,0,.87a.63.63,0,0,0,.64.48l0,0a.52.52,0,0,1,.35.39,18.59,18.59,0,0,1,.14-2.62A16.15,16.15,0,0,1,185,276.26a10.2,10.2,0,0,1,4.26-1.9A7.53,7.53,0,0,0,187.85,274.67Z" transform="translate(-176.68 -249.31)"/></g><path class="cls-105" d="M186.15,275.35a11.63,11.63,0,0,0-1.31.69,12.12,12.12,0,0,0-2.48,1.64,20.18,20.18,0,0,0-1.74,1.95,12.84,12.84,0,0,0-2.37,5,10.83,10.83,0,0,0-.37,2.83c0,.47.05.95.09,1.43,0-.44.07-.95.13-1.53A16.15,16.15,0,0,1,185,276.26a18.34,18.34,0,0,1,2.08-1.21A6.92,6.92,0,0,0,186.15,275.35Z" transform="translate(-176.68 -249.31)"/><g class="cls-60"><path class="cls-106" d="M203.12,283.53a7.55,7.55,0,0,0-4.13-4.34,11.45,11.45,0,0,0-8.23.08,12.54,12.54,0,0,0-3,1.86,9,9,0,0,0-3.05,4.33,13.85,13.85,0,0,0-.59,6.65c0,.3.31,1.31,0,1.48h0l.2.06a2.33,2.33,0,0,0,1.3-.33,25.79,25.79,0,0,1,.56-5.49,10.48,10.48,0,0,1,10.7-8c5.27.27,6.81,5.83,5.9,9.76a10.21,10.21,0,0,0,.69-3.21A9.56,9.56,0,0,0,203.12,283.53Z" transform="translate(-176.68 -249.31)"/></g><g class="cls-53"><path class="cls-107" d="M186,292.93a5.36,5.36,0,0,1-.12-1v-.09a14.83,14.83,0,0,1,.3-4.1v.05a25.79,25.79,0,0,0-.56,5.49l.13-.08a1.38,1.38,0,0,1,.42.25C186.05,293.3,186,293.12,186,292.93Z" transform="translate(-176.68 -249.31)"/></g><path class="cls-108" d="M198.93,281.92a7.35,7.35,0,0,0-7.89,1.26,10.6,10.6,0,0,0-2.72,3.8,14.28,14.28,0,0,0-1,7.22.48.48,0,0,1-.26.48c.09.12.17.23.26.33a1.17,1.17,0,0,0,1.91-.06.15.15,0,0,0,0-.17v0a12.11,12.11,0,0,1,.65-7.81,7.63,7.63,0,0,1,6.62-4.41,4.93,4.93,0,0,1,4.27,1.72,5.42,5.42,0,0,1,.8,4.35,5,5,0,0,1-2.88,3.69,4,4,0,0,1-2.73.08,4.36,4.36,0,0,0,2.86.15c2.06-.33,3.08-2.69,3.21-4.52A6.16,6.16,0,0,0,198.93,281.92Z" transform="translate(-176.68 -249.31)"/><path class="cls-109" d="M202.44,290a7.05,7.05,0,0,1-.91,1.51,5.68,5.68,0,0,1-8.1.52,3,3,0,0,0-.81-.67l-.21-.09c1.48,4,7.43,2.83,8.83,1a11.14,11.14,0,0,0,1.48-2.69c.06-.24.1-.49.14-.74A6.5,6.5,0,0,1,202.44,290Z" transform="translate(-176.68 -249.31)"/><path class="cls-110" d="M182.35,292s-.51-7.13,3.59-11.06,9.7-3.38,11.57-3.14c0,0-6.88-2.11-12.22,3C181.19,284.64,182.35,292,182.35,292Z" transform="translate(-176.68 -249.31)"/><path class="cls-111" d="M185.49,293.26s-.55-7,3.54-10.94a9.51,9.51,0,0,1,11.73-1.23c-.75-1.13-6.94-4.3-12.09,1C184.07,286.73,185.49,293.26,185.49,293.26Z" transform="translate(-176.68 -249.31)"/><g class="cls-112"><path class="cls-113" d="M201.36,280.17c-2.53-3-7.32-2.84-10.7-1.65a11.24,11.24,0,0,0-7.27,9.55,21.92,21.92,0,0,0,.13,4.13,0,0,0,0,0,.09,0c0-2.83.14-5.74,1.52-8.27a10.82,10.82,0,0,1,5.25-4.72,11,11,0,0,1,11.31,1.38C201.77,280.65,201.42,280.25,201.36,280.17Z" transform="translate(-176.68 -249.31)"/></g><g class="cls-114"><path class="cls-115" d="M196,276.57c-1.84-1.1-4.21-.78-6.16-.17a13.48,13.48,0,0,0-5.13,3.15,15.36,15.36,0,0,0-4.56,11.38c0,.09.13.07.14,0a16.83,16.83,0,0,1,1.13-5.83,15.23,15.23,0,0,1,3.35-4.93,14,14,0,0,1,4.83-3.16,13.09,13.09,0,0,1,2.94-.81,7.61,7.61,0,0,1,3.43.49C196,276.7,196,276.6,196,276.57Z" transform="translate(-176.68 -249.31)"/></g><g class="cls-116"><path class="cls-117" d="M190.33,274.43a4.33,4.33,0,0,0-2.31.49,24,24,0,0,0-2.3,1.07,14,14,0,0,0-4.14,3.57,15.18,15.18,0,0,0-3.22,9.55c0,.08.12.07.12,0a16.4,16.4,0,0,1,3.28-9.1c2-2.63,7-5.86,9.8-5.31Z" transform="translate(-176.68 -249.31)"/></g><g class="cls-118"><path class="cls-119" d="M184.35,275.39a11.14,11.14,0,0,0-5.29,4.47,11.53,11.53,0,0,0-2.16,6.33,0,0,0,1,0,0,0,16.55,16.55,0,0,1,.76-3.18,12.67,12.67,0,0,1,1.63-2.95,20.72,20.72,0,0,1,2.14-2.36,22.5,22.5,0,0,1,3.92-2.69C185.5,275,184.46,275.35,184.35,275.39Z" transform="translate(-176.68 -249.31)"/></g><g class="cls-120"><path class="cls-121" d="M186.39,292.7s-1.27-5.74,2.46-9.84,9.24-3.68,11.43-1.73a7.91,7.91,0,0,1,2.46,6.52s-.23-4.74-3.1-6.38a8.67,8.67,0,0,0-10.29,1.87C186.48,286.23,186.21,290.52,186.39,292.7Z" transform="translate(-176.68 -249.31)"/></g><g class="cls-122"><path class="cls-123" d="M194.05,291.41a.5.5,0,0,0-.6-.15,1,1,0,0,1-.69.06c-.18-.07-.25-.28-.37-.42s-.19-.11-.18-.09c.29.28.24.59.5.67.43.14.85-.33,1.26-.13Z" transform="translate(-176.68 -249.31)"/></g><path class="cls-124" d="M227.6,288.69c-.08-.29.33-.49.61-.76a15.1,15.1,0,0,1-3.29,1.45,21.59,21.59,0,0,1-5,1h-.21c.45,0,.9,0,1.35,0a23.9,23.9,0,0,0,5.9-1.23c.24-.11.47-.24.71-.36Z" transform="translate(-176.68 -249.31)"/><path class="cls-125" d="M221.73,287.56s.82-6-.87-6.84a13.17,13.17,0,0,0-10.65-.86c-5.15,1.78-3.14,5.65.68,6.47A96.24,96.24,0,0,0,221.73,287.56Z" transform="translate(-176.68 -249.31)"/><path class="cls-126" d="M220.86,280.72a13.17,13.17,0,0,0-10.65-.86c-3.79,1.31-3.7,3.75-1.87,5.28a2.72,2.72,0,0,1-.2-2.34,4.19,4.19,0,0,1,2.84-2.12,13.76,13.76,0,0,1,3.83-.41,10.53,10.53,0,0,1,4.89,1.18c.9.48,2.27,1.76,1.06,2.61,0,0-.1,0-.09,0,.1-.58-.57-1.42-1.17-1.86-1.75-1.27-5.69-1.62-7.7-1.05-1.25.36-3.48,1.21-3.53,2.81,0,.49.57,1.18.87,1.56a2.72,2.72,0,0,1,1.18-2.64c2.23-1.46,6.79-1.45,8.88.23a3.54,3.54,0,0,1,1.35,2.05,5.17,5.17,0,0,0-2.74-1.59,14.53,14.53,0,0,0-5.45-.27c-2.67.43-3.46,1.56-1.51,2.27a13.76,13.76,0,0,0,2,.55,21.78,21.78,0,0,0,3.22.39c.94.05,1.89,0,2.83.1a4.19,4.19,0,0,0,1.8-.07c.22-.09.52-.36.22-.54a1.72,1.72,0,0,0-.62-.19c-1.21-.22-2.47-.09-3.69-.21-.85-.08-3.85-.24-4.31-.62,0,0,0-.08,0-.09,1.76-1.07,5.13-.43,6.65.16a3.79,3.79,0,0,1,2.39,1.91c.15.38.27.21.26.61h.13S222.55,281.54,220.86,280.72Z" transform="translate(-176.68 -249.31)"/><path class="cls-127" d="M210.82,282.26a8.51,8.51,0,0,1,3.87-.73c2.43.15,5.23.74,6,3a3.39,3.39,0,0,0-.63-1.41,5.26,5.26,0,0,0-2.42-1.47,12.23,12.23,0,0,0-3.13-.48,8.44,8.44,0,0,0-3.52.54c-.88.37-2.69,1.4-2.35,2.62a1.08,1.08,0,0,1,0,.18A4.23,4.23,0,0,1,210.82,282.26Z" transform="translate(-176.68 -249.31)"/><path class="cls-128" d="M208,283.11c.13-.39.22-.62.38-1.06.57-1.51,3.59-2.16,5.36-2.19a12.59,12.59,0,0,1,5.78,1c1.11.6,1.77,1.3,1.79,2.28,0,.31.36.5.5.79l.14.3c0-1.54-.26-3.11-1.07-3.51a13.17,13.17,0,0,0-10.65-.86c-3.79,1.31-3.7,3.75-1.87,5.28C208,284.31,207.71,283.94,208,283.11Z" transform="translate(-176.68 -249.31)"/><path class="cls-129" d="M212.66,285.68c-.29-.15-1.2-.51-1.23-.88-.05-.62,1.36-.76,1.77-.82a13.24,13.24,0,0,1,2.67-.11,9,9,0,0,1,4.53,1.35c-1.08-1.35-4.58-1.77-5.63-1.74-1.62,0-4.67.34-4.72,1.5.11.27.2.35.8.57a13.76,13.76,0,0,0,2,.55c.39.08.77.14,1.16.2A9.09,9.09,0,0,1,212.66,285.68Z" transform="translate(-176.68 -249.31)"/><g class="cls-60"><path class="cls-130" d="M221.73,287.56s.82-6-.87-6.84a13.17,13.17,0,0,0-10.65-.86c-5.15,1.78-3.14,5.65.68,6.47A96.24,96.24,0,0,0,221.73,287.56Z" transform="translate(-176.68 -249.31)"/></g><g class="cls-131"><path class="cls-130" d="M220.86,280.72a13.17,13.17,0,0,0-10.65-.86c-5.15,1.78-3.14,5.65.68,6.47a96.24,96.24,0,0,0,10.84,1.23S222.55,281.54,220.86,280.72Zm-2.11,4.15c-.14.5-1.9.39-2.39.34-.69-.07-1.37-.12-2.06-.22-.26,0-2.13-.31-1.25-.8a8.45,8.45,0,0,1,3.1-.37,15.08,15.08,0,0,0-4-.45c-.52,0-1.76.43-2.11.1-.53-.49.57-1.25,1-1.51a5.21,5.21,0,0,1,1.92-.69,6.88,6.88,0,0,0-1.26.2c-.41.1-.79.26-1.19.4s-1.51.54-1.42-.23,1-1.21,1.62-1.47a7.29,7.29,0,0,1,1.74-.52l0,0a8.52,8.52,0,0,1,4.06.42,8.69,8.69,0,0,1,1.57.58,1.69,1.69,0,0,1,.9.8s0,.07,0,.08a2.93,2.93,0,0,1-1.5.06,12.52,12.52,0,0,0-1.73-.07c1.24.39,3,1,3.08,2.46,0,0,0,.05-.05.06a2.58,2.58,0,0,1-1.14,0C218,284.08,218.86,284.47,218.75,284.87Z" transform="translate(-176.68 -249.31)"/></g><g class="cls-132"><g class="cls-133"><path class="cls-134" d="M221.73,287.56s.82-6-.87-6.84a13.17,13.17,0,0,0-10.65-.86c-5.15,1.78-3.14,5.65.68,6.47A96.24,96.24,0,0,0,221.73,287.56Z" transform="translate(-176.68 -249.31)"/></g></g><g class="cls-132"><g class="cls-133"><path class="cls-134" d="M221.73,287.56s.82-6-.87-6.84a13.17,13.17,0,0,0-10.65-.86c-5.15,1.78-3.14,5.65.68,6.47A96.24,96.24,0,0,0,221.73,287.56Z" transform="translate(-176.68 -249.31)"/></g></g><path class="cls-135" d="M221.87,282.36s-.23,1.78-1.14,2.05,0,1.28,0,1.28-.59.5.09.82,2.19.54,2-.23-.45-.91-.45-.91.5-.87.18-1.41S222.82,283.23,221.87,282.36Z" transform="translate(-176.68 -249.31)"/><path class="cls-136" d="M222.28,285.37a2.55,2.55,0,0,0,.27-.78.56.56,0,0,1-.3.32,1.52,1.52,0,0,1-1.45.09c-.33-.23.43-.27.57-.31a1.56,1.56,0,0,0,1-.8c-.23-.49.36-.7-.55-1.53,0,0-.23,1.78-1.14,2.05s0,1.28,0,1.28-.59.5.09.82,2.19.54,2-.23S222.28,285.37,222.28,285.37Z" transform="translate(-176.68 -249.31)"/><path class="cls-137" d="M222.38,283.46c0-.27.1-.55-.51-1.1,0,0-.23,1.78-1.14,2.05l-.1,0A2.52,2.52,0,0,0,222.38,283.46Z" transform="translate(-176.68 -249.31)"/><path class="cls-138" d="M221.18,286.58c-.13-.1-.4-.31-.35-.51s.28-.22.47-.22a2.56,2.56,0,0,0,1.13-.3.65.65,0,0,0-.15-.18,2.15,2.15,0,0,0,.14-.31,1.73,1.73,0,0,1-.74.34,1.54,1.54,0,0,1-1.36-.45,1.71,1.71,0,0,0,.36.74s-.59.5.09.82a3.46,3.46,0,0,0,.57.19A1,1,0,0,1,221.18,286.58Z" transform="translate(-176.68 -249.31)"/><path class="cls-139" d="M227.24,283.64s-1.21,3.86-13.62,2c-.91-.13-5.46-1.36-5.55-3.28s3.5-2.73,6.37-2.87,5.82.71,6.65,2.24a1.71,1.71,0,0,1-.18,1.73s.32,0,.27.54.6.32,1-.54,0-2.74-2.32-3.78-8.47-1.69-12.11.91-1.51,4.32-1.51,4.32a3.37,3.37,0,0,0-.54,4.28s-1.64,2.46.32,4.42a2.67,2.67,0,0,0,.72,3.87s-.91,1.55,3.14,3.14,9.25,1.87,12.3.6,4.28-2.42,4.92-2.46.36-1.05-.05-1.37-.13-.77.05-1.14-.14-.23.32-.95.86-1.69.23-2.37-.1-1-.78-1.28-.27-.45-1-.77-.09-.5.68-1,1.14-.77,1-1.23.91-.68.82-1.27a1.66,1.66,0,0,0-.41-1.05.9.9,0,0,1,0-1.09C228.24,284.87,228.88,284,227.24,283.64Z" transform="translate(-176.68 -249.31)"/><path class="cls-140" d="M227.23,283.64c-.76,1.94-3.8,2.25-5.54,2.42a32.11,32.11,0,0,1-8.07-.42c-.91-.13-5.46-1.36-5.55-3.28s3.5-2.73,6.37-2.87,5.82.71,6.65,2.24a1.71,1.71,0,0,1-.18,1.73s.32,0,.27.54.6.32,1-.54a1.77,1.77,0,0,0-.14-1.69,1.36,1.36,0,0,1-.72,1.7.07.07,0,0,1-.1-.08,4.27,4.27,0,0,0,.33-1.16,2.05,2.05,0,0,0-.34-1.07c-.93-1.35-2.58-1.72-4.07-1.92a16.47,16.47,0,0,0-5.29-.05,10.07,10.07,0,0,0-2.88.91,3.65,3.65,0,0,0-1.73,1.9c-.42,1.23.48,2.26,1.47,2.88,3.9,2.45,9.84,2.58,14.23,1.89C224.1,286.6,229.78,285.23,227.23,283.64Z" transform="translate(-176.68 -249.31)"/><path class="cls-141" d="M217,291.24c8.74-.18,11.3-3.27,11.38-3.66a.43.43,0,0,0,0-.16,1.66,1.66,0,0,0-.41-1.05.88.88,0,0,1-.15-.31,13.09,13.09,0,0,1-5.13,1.78,21.27,21.27,0,0,1-11.88-.8,11.44,11.44,0,0,1-4.39-2.72,1.92,1.92,0,0,1,0-2.61c-1.76,2-.22,3.2-.22,3.2a4.15,4.15,0,0,0-.59.77c-.68,1,.37,2.56,1.23,3.1a18.27,18.27,0,0,0,5,2A22.61,22.61,0,0,0,217,291.24Z" transform="translate(-176.68 -249.31)"/><path class="cls-142" d="M206.29,284.91a4.15,4.15,0,0,0-.55.7,2.38,2.38,0,0,1,1.26.75,9.88,9.88,0,0,0,1.95,1.39,19.67,19.67,0,0,0,10,1.91,23.23,23.23,0,0,0,5-.8c.41-.11,4.44-1.47,4.36-1.82a1.5,1.5,0,0,0-.35-.67.75.75,0,0,1-.07-.12c-3.39,2.48-9.57,3-13.56,2.28-3-.53-8.76-2.21-8.5-5.89A1.88,1.88,0,0,0,206.29,284.91Z" transform="translate(-176.68 -249.31)"/><path class="cls-143" d="M221.32,289.18a15.89,15.89,0,0,0,2.34-.64,23.39,23.39,0,0,1-13.51-.93,9.09,9.09,0,0,1-3.9-2.65,2.13,2.13,0,0,0-.3.35c2.07,2.41,5.29,3.33,8.3,3.87A20.72,20.72,0,0,0,221.32,289.18Z" transform="translate(-176.68 -249.31)"/><path class="cls-144" d="M227.7,292.93l-.13-.15a1.47,1.47,0,0,1-.27-.78h0s0,0,0-.05h0a.05.05,0,0,0,0,0v0l0,0,0,0,0,0,0,0-.06,0,0,0-.11-.05-.1,0c-.54-.25-.21-.43-.9-.73-.35-.15-.39-.28-.24-.41a21.79,21.79,0,0,1-6.91,1.72c-4.08.42-8.46.18-11.88-2.35a4.36,4.36,0,0,1-1.71-2.21,3.18,3.18,0,0,0,.57,1.56,4.31,4.31,0,0,0-.58,1.49h0c.3-.41.06.36.68,1.07,3.84,4.49,10.54,4,16,3.15a21.15,21.15,0,0,0,4.44-1.13c.45-.17.83-.38,1.54-.62A1.37,1.37,0,0,0,227.7,292.93Z" transform="translate(-176.68 -249.31)"/><path class="cls-145" d="M227.21,291.83l0,0,0,0,0,0-.06,0,0,0-.11-.05-.1,0c-.54-.25-.21-.43-.9-.73-.35-.15-.39-.28-.24-.41-.37.17-.75.33-1.13.47h0a20.5,20.5,0,0,1-10.75,1.58,15.25,15.25,0,0,1-5.28-1.47,6.76,6.76,0,0,1-2.17-1.5,5,5,0,0,1-.63-.9,3.36,3.36,0,0,1-.43-.79l-.06-.12a3.16,3.16,0,0,0,.55,1.44,4,4,0,0,0-.39.8h0c.29,0,.21.61,1.29,1.39,4.64,3.38,10.73,3,16.87,1.31.54-.15,1.06-.34,1.59-.54a6.15,6.15,0,0,1,1.32-.42,1.24,1.24,0,0,1,.8.16h0Z" transform="translate(-176.68 -249.31)"/><path class="cls-146" d="M205.63,289.4c1.58,2.19,4.58,3.05,7.12,3.49a23.38,23.38,0,0,0,9.21-.37,24.61,24.61,0,0,1-10.32-.17,14.29,14.29,0,0,1-4.43-2.09,5.41,5.41,0,0,1-2-2.36,3.25,3.25,0,0,0,.53,1.29Z" transform="translate(-176.68 -249.31)"/><path class="cls-147" d="M205.58,294.72c.1-.05.08.08.17.2a7.22,7.22,0,0,0,2.08,2.05c7.38,4.79,18.95,0,19.32-.71h0c.18-.36-.14-.23.32-.95l.24-.42c-.34.66-8.74,2.88-15.85,1.27a15.25,15.25,0,0,1-3.52-1.26c-.83-.42-2.8-1.64-3.1-2.61a3.19,3.19,0,0,0,.83,1.33A2.82,2.82,0,0,0,205.58,294.72Z" transform="translate(-176.68 -249.31)"/><path class="cls-148" d="M205.83,294c4.24,3.69,10.72,3.76,15.9,3a35.44,35.44,0,0,1-7.07,0,20.91,20.91,0,0,1-7.24-2.45,7.58,7.58,0,0,1-1.5-1.06l.15.15A1.94,1.94,0,0,0,205.83,294Z" transform="translate(-176.68 -249.31)"/><path class="cls-149" d="M227.13,297.42a17.12,17.12,0,0,1-2.09,1.07,17.48,17.48,0,0,1-5.19,1.23,26.76,26.76,0,0,1-8.92-.69c-2.15-.59-4.31-1.68-5.39-3.65a2.92,2.92,0,0,0,1.25,2.1s-.91,1.55,3.14,3.14,9.25,1.87,12.3.6,4.28-2.42,4.92-2.46S227.53,297.76,227.13,297.42Z" transform="translate(-176.68 -249.31)"/><path class="cls-150" d="M224.62,299.18a23.16,23.16,0,0,1-5.57,1.37,17.71,17.71,0,0,1-6-.36,19.22,19.22,0,0,1-4.89-1.72,10.08,10.08,0,0,1-1.42-.92c-.12.32-.37,1.68,3.17,3.07,4.06,1.6,9.25,1.87,12.3.6s4.28-2.42,4.92-2.46c.42,0,.44-.49.29-.88A23.15,23.15,0,0,1,224.62,299.18Z" transform="translate(-176.68 -249.31)"/><path class="cls-151" d="M206.79,297.48a.73.73,0,0,0-.07.23,17.76,17.76,0,0,0,8.68,3.13,23.57,23.57,0,0,0,5.1-.22,11.15,11.15,0,0,0,3.42-1.09,22.78,22.78,0,0,1-5.25.94,19.44,19.44,0,0,1-6-.55c-2.6-.6-5.48-1.67-7-4A3.3,3.3,0,0,0,206.79,297.48Z" transform="translate(-176.68 -249.31)"/><g class="cls-152"><path class="cls-153" d="M218,295.6a24.09,24.09,0,0,1-8.81-1.53c-1.52-.59-3.45-1.4-4.11-2.82.32,1.62,1.92,2.63,3.3,3.24a22.7,22.7,0,0,0,5.75,1.67A21.81,21.81,0,0,0,226,294.42,25,25,0,0,1,218,295.6Z" transform="translate(-176.68 -249.31)"/></g><g class="cls-154"><path class="cls-155" d="M222.19,298.43a32,32,0,0,1-6.1.56,19.25,19.25,0,0,1-5.85-.83,17.85,17.85,0,0,1-4.09-2.4c1.95,2.69,5.85,3.52,9,3.76a22.62,22.62,0,0,0,5.63-.37,15.68,15.68,0,0,0,5.33-1.6.12.12,0,0,0,.05-.07A23,23,0,0,1,222.19,298.43Z" transform="translate(-176.68 -249.31)"/></g><g class="cls-156"><path class="cls-157" d="M226.6,289.06c-4.47,2.39-10.47,2.57-15.3,1.46a12.76,12.76,0,0,1-3.87-1.37c-1.79-1.18-2-1.83-1.93-2.49-.32,3.44,5.16,4.57,7.53,4.95a24.3,24.3,0,0,0,8.29-.09A10.8,10.8,0,0,0,226.6,289.06Z" transform="translate(-176.68 -249.31)"/></g><g class="cls-158"><path class="cls-159" d="M227.17,285.58a30.7,30.7,0,0,1-7,1.35,36.29,36.29,0,0,1-7-.52,10.8,10.8,0,0,1-5.36-2.33c-.81-.7-1.25-1.5-.53-2.46.48-.64,1.27-1,1.69-1.67,0,0,0-.08,0-.06a5.63,5.63,0,0,0-1.92,1.51,1.91,1.91,0,0,0-.47,2.09,5.06,5.06,0,0,0,2.08,2,10.54,10.54,0,0,0,2.85,1.26,26.18,26.18,0,0,0,8,.81,18.19,18.19,0,0,0,7.74-1.84C227.33,285.69,227.25,285.56,227.17,285.58Z" transform="translate(-176.68 -249.31)"/></g><g class="cls-160"><path class="cls-161" d="M214.45,278.83s5.13,0,6.9,1.95-.08,2.61-.08,2.61,1.14-.93-.15-2.57S214.45,278.83,214.45,278.83Z" transform="translate(-176.68 -249.31)"/></g><g class="cls-162"><path class="cls-163" d="M222.34,284.09a1.9,1.9,0,0,1-1.72.67s-.34.17.27.27A1.2,1.2,0,0,0,222.34,284.09Z" transform="translate(-176.68 -249.31)"/></g></g></g></svg>