<svg id="Layer_2" data-name="Layer 2" xmlns="http://www.w3.org/2000/svg" viewBox="0 0 476.44 263.12"><defs><style>.cls-1{fill:#f2efdb;}.cls-2{fill:#926036;}.cls-3{fill:#cb9e68;}.cls-4{fill:#7e4f25;}</style></defs><title>chocolateIcon</title><path class="cls-1" d="M740.41,432.08h0l-63.27-41.93-70.45,14.28-.05.06h0l-4,4.41-1.7,1.86-4.81,1.1L591,407.59,519.76,422l-53.44-14.77-62.53,35.45,0,.07h0l-2.77,6.1-.75,1.65L396,453.08l-6.13-2.48L315.17,493l-1.45,9.68L293,515.1l-6.74,20.22,98.6,45L379.67,596l98.71,45h0l.46.2L662.73,522.81l-3.24-22.69L758,474.29l4.52-25.73.19-1.09-22.39-14.2ZM493.63,511.19l-4.23,2.55-.1,0,4.51-2.9Z" transform="translate(-286.29 -378.11)"/><polygon class="cls-2" points="181 20.03 6.74 124.97 0 145.18 99.16 190.43 283.05 72.02 279.2 45.06 181 20.03"/><polygon class="cls-3" points="6.74 124.97 0 145.18 98.67 190.21 100.13 162.51 7.79 124.34 6.74 124.97"/><polygon class="cls-4" points="180.04 17.14 117.51 52.58 112.32 63.99 103.6 60.47 28.88 102.82 25.99 122.08 98.42 148.66 257.06 51.8 253.21 37.36 180.04 17.14"/><polygon class="cls-3" points="28.88 102.82 25.99 122.08 98.2 148.55 101.09 128.82 36.54 98.49 28.88 102.82"/><polygon class="cls-4" points="100.13 162.51 98.7 190.23 99.16 190.43 283.05 72.02 279.36 46.16 100.13 162.51"/><polygon class="cls-2" points="180.04 17.14 117.51 52.58 112.32 63.99 103.6 60.47 28.88 102.82 101.09 128.82 253.21 37.37 253.21 37.36 180.04 17.14"/><polygon class="cls-3" points="117.47 52.66 112.45 63.7 172.01 86.14 175.15 101.81 185.81 95.3 184.53 76.51 117.47 52.66"/><polygon class="cls-2" points="173.32 92.69 175.15 101.81 185.81 95.3 185.8 95.18 173.32 92.69"/><polygon class="cls-2" points="274.39 80.68 100.13 185.62 93.39 205.84 192.55 251.09 376.44 132.67 372.59 105.71 274.39 80.68"/><polygon class="cls-3" points="100.13 185.62 93.39 205.84 192.06 250.86 193.51 223.17 101.17 184.99 100.13 185.62"/><polygon class="cls-4" points="273.42 77.79 210.9 113.24 205.71 124.65 196.99 121.12 122.27 163.48 119.38 182.73 191.81 209.31 350.44 112.45 346.59 98.01 273.42 77.79"/><polygon class="cls-3" points="122.27 163.48 119.38 182.73 191.59 209.21 194.48 189.47 129.92 159.14 122.27 163.48"/><polygon class="cls-4" points="193.51 223.17 192.09 250.88 192.55 251.09 376.44 132.67 372.74 106.81 193.51 223.17"/><polygon class="cls-2" points="273.42 77.79 210.9 113.24 205.71 124.65 196.99 121.12 122.27 163.48 194.48 189.47 346.6 98.02 346.59 98.01 273.42 77.79"/><polygon class="cls-3" points="210.86 113.31 205.84 124.36 265.4 146.79 268.53 162.47 279.2 155.95 277.92 137.16 210.86 113.31"/><polygon class="cls-2" points="266.71 153.34 268.53 162.47 279.2 155.95 279.19 155.84 266.71 153.34"/><polygon class="cls-2" points="192.64 48.7 179.95 65.82 260.17 139.63 471.73 84.15 476.44 57.33 390.87 3.04 192.64 48.7"/><polygon class="cls-3" points="192.64 48.7 179.95 65.82 259.77 139.26 269.75 113.38 193.83 48.42 192.64 48.7"/><polygon class="cls-4" points="320.4 14.28 311.93 23.52 304.74 17.46 220.56 34.52 211.84 51.93 272.43 99.68 453.3 56.86 454.12 41.94 390.85 0 320.4 14.28"/><polygon class="cls-3" points="220.56 34.52 211.84 51.93 272.25 99.52 281.13 81.65 229.18 32.77 220.56 34.52"/><polygon class="cls-4" points="259.8 139.28 260.17 139.63 471.73 84.15 476.25 58.42 269.75 113.38 259.8 139.28"/><polygon class="cls-2" points="320.4 14.28 311.93 23.52 304.74 17.46 220.56 34.52 281.13 81.65 454.12 41.95 454.12 41.94 390.85 0 320.4 14.28"/><polygon class="cls-3" points="312.15 23.28 361.8 63.1 359.91 78.97 372.07 76.09 376.69 57.83 320.35 14.34 312.15 23.28"/><polygon class="cls-2" points="359.91 78.97 372.07 76.09 372.1 75.98 361.01 69.73 359.91 78.97"/></svg>