<svg id="Layer_2" data-name="Layer 2" xmlns="http://www.w3.org/2000/svg" viewBox="0 0 299.43 543.39"><defs><style>.cls-1{fill:#469238;}.cls-1,.cls-2,.cls-3,.cls-4,.cls-5,.cls-6,.cls-7{fill-rule:evenodd;}.cls-2{fill:#56ae33;}.cls-3{fill:#f8efb1;}.cls-4{fill:#99c845;}.cls-5{fill:#8cba36;}.cls-6{fill:#e98200;}.cls-7{fill:#f9bc00;}</style></defs><title>cornIcon</title><path class="cls-1" d="M673.83,673.62c-6.58,17.39-19.66,28-29.08,47.23-9.3,19-12.6,31.29-17.35,52.33-7,31.12-25.09,91.15-18.8,121.64,2.57,22.64-1.31,7-3.86,32.61-1.44,14.53-.14,24.27,2.17,38l-22.69-.81L590.9,981l79.51.1c-11.5-46.2-12-32.52,4-58.13,8-12.79,15.53-31.16,19.27-50.92,7-37.28-1.85-88.33,3.24-126.16,55.41-28.75,95.51-45.2,81.89-130C722.37,625.61,707.1,652,673.83,673.62Z" transform="translate(-482.07 -463.66)"/><path class="cls-2" d="M608.6,894.82c2.57,22.64-1.31,7-3.86,32.61-1.44,14.53-.14,24.27,2.17,38l-22.69-.81L590.9,981l79.51.1c-11.5-46.2-12-32.52,4-58.13,8-12.79,15.53-31.16,19.27-50.92,7-37.28-1.85-88.33,3.24-126.16,55.41-28.75,95.51-45.2,81.89-130C772.32,727,597.46,720.21,608.6,894.82Z" transform="translate(-482.07 -463.66)"/><path class="cls-1" d="M627.4,933.47c-1.22-17.15,13.28-69,18-87.34,7-27.39,20.48-51.78,29.09-77.2l1-66.47-8.1,37.69c-.34-.52-1-2.12-1.12-1.71L664,734.93c-6.88-13.25-12.55-45.39-33-60.44-28-20.63-43.14,32.68-52,41.37L567,693.28c-11.3,18.88-10.4,51-15.39,68.92a12.91,12.91,0,0,1-.73,2.1c-6.74-4-11.36-7.49-18-10.1-2.31,39,6.85,102,16,138.57,11,44,26.87,80.46,58.07,99.87,8.78,6.31,12.87,9.17,25.16,7.83Z" transform="translate(-482.07 -463.66)"/><path class="cls-1" d="M604.72,977c5.46.64-.44-.12,4.39,1.55,5,1.73-1.32,1.23,4.16,1.42,5.31.19,5-1.25,10.9-4.75,74.47-55.32,75.14-133,80.89-221.32-1.67-1-3.3-2-4.91-3l-4.31-.86a41.16,41.16,0,0,1-30.21-25.18c-8.81,26-23.84,74-32.1,125.75-1.84,11.51-6.3,39.92-11.28,48.41-19.29-45.83-20-104-62.78-183.51-11.12-11.79-18.42-21.89-31.81-15.07-24.78,12.62-45.94,83.63-45.59,117.35,14.55-19.22,25.8-70.38,47.69-79.75,7.92,10.15,5.9,14.88,5.77,27.25-.28,27.61,1.37,68,7.26,94.45C564.92,959.17,595.31,963.58,604.72,977Z" transform="translate(-482.07 -463.66)"/><path class="cls-3" d="M609.54,548.29c7.72-3.1,9.21-4.77,17.46,5.9l2.34,3.34c18.12-15.15,47.25-4.44,67.07-3.92-29.93-23.94-21.69-10.91-33.67-20.33,5.72-7.57,14.77-6.22,24.32-13.45-15.77-6.48-25.16-2.05-39.29,4-1.95-18.68,11.89-28.67,19.07-38-19.59,1-26.31,25.48-32.92,29.62-2.71-17.88,2.41-33.15,4.53-49.18-18.92,14.91-11.32,26.94-20.31,44.43-10.59-8.28-9.81-28.75-11.42-47C593.26,499.12,609.25,519,609.54,548.29Z" transform="translate(-482.07 -463.66)"/><path class="cls-4" d="M707.32,723.56s9.57,214.11-71.91,241.93a55.27,55.27,0,0,1-18.1,2.91C619.79,832.68,635.27,784.92,707.32,723.56Z" transform="translate(-482.07 -463.66)"/><path class="cls-4" d="M617.31,968.4a56.25,56.25,0,0,1-18.21-2.91C516.61,937.67,532.46,739,532.46,739,594,789.8,610.85,849.9,617.31,968.4Z" transform="translate(-482.07 -463.66)"/><path class="cls-5" d="M529.76,738S516.61,937.67,599.1,965.49a56.25,56.25,0,0,0,18.21,2.91s-.29-5.19-1.09-14.1C539.12,887.12,615.41,808.84,529.76,738Z" transform="translate(-482.07 -463.66)"/><path class="cls-5" d="M666.27,795.18c22.5-45.46,19.46-16,41.1-34.46,0,0,8.12,181.62-61,205.21A46.92,46.92,0,0,1,631,968.4s.08-4.41.49-12C665.42,925.93,668,844.11,666.27,795.18Z" transform="translate(-482.07 -463.66)"/><path class="cls-4" d="M617.31,968.4a55.27,55.27,0,0,0,18.1-2.91l.54,29.63H599.63l-.53-29.63A56.25,56.25,0,0,0,617.31,968.4Z" transform="translate(-482.07 -463.66)"/><path class="cls-2" d="M674.49,768.93c-8.61,25.42-22,49.81-29.09,77.2-4.72,18.38-19.22,70.19-18,87.34l4.74,67c-12.29,1.34-16.38-1.52-25.16-7.83l-.27,13.2,40.15,1.22c0-38.27,4.93-10.21,23.48-48.6,24.44-50.59,23-144.32,17-199-4.39,2,.49-1-5.08,3.07-12.11,8.78,8.45-6.72-2.92,2.27Z" transform="translate(-482.07 -463.66)"/><path class="cls-2" d="M540.36,765.9c12.22,25.43,29.12,49.82,40,77.21,7.33,18.38,29.17,70.18,30.39,87.33l4.75,67c12.49,1.34,16.18-1.52,24.06-7.83l2.14,13.19-40,1.22c-5.45-38.26-6.37-10.2-30.36-48.59-31.63-50.6-43.48-144.32-45.24-199,4.67,2-.63-1,5.51,3.06,13.36,8.79-9.4-6.72,3.24,2.28Z" transform="translate(-482.07 -463.66)"/><path class="cls-6" d="M577.27,561.59c2.66,2.61,5.41,4.65,6.74,9.15a15.68,15.68,0,0,1-1.57,12.55c-4.4,7.62-12.07,8.48-21.72,5.22a65.82,65.82,0,0,0-3.73,9.64c4.85,2.07,9.18-1.5,15.48,4.8a16.41,16.41,0,0,1,3.8,15.58c-3.11,11-15.75,13.09-28.66,10-.63,2.75-1.68,5.62-1.79,8.3,4,2.19,16.14-.89,22.42,2.11,13.15,6.26,10.79,26.44-3.85,29.17-4.95.93-18.57.52-23.68-.44-.12,1.68-.72,8.54-1.38,9.56,6.29-1.08,19.07-2.17,25.8-.64,16.22,3.7,15.41,28.44-1.76,30.48-8.4,1-18.31.42-25.42-1.8v10.89l.37.71c5.4-2.76,12.25-1.92,18.94-1.93,7.2,0,10.87.28,15.18,4.66,8.18,8.32,3.64,23.15-6,25.32,1.53,2.87,2.82,3.61,4.82,6.2,1.58,2,3.06,3.83,4.6,5.75,1.85,2.29,7.19,10,9,11.45-.13-9.52,8-14.58,17.88-14.58,11.46,0,20.16-1.22,25.6,6.5,6,8.49,2,17.91-4.31,22.07-6.43,4.26-20.2,2.42-28.52,2.18l5,8.18a128.79,128.79,0,0,1,16.08-.06c6.42.5,7.47,3.16,11.14,5.05,2.26-2.79,4.6-7.42,6.74-10.48,1.6-2.3,6.2-7.87,6.91-9.65A15.62,15.62,0,0,1,645,756.91c5.09-3.75,18.13-4.35,25.49-2.79a17,17,0,0,0,6.79-2.83c.08-3.55.53-4.37.73-7.1-48.94,12.56-45-27-25.3-29.18,7.83-.86,18.72-.64,25.3,1.82V705.22c-10.57,3.24-37.69,6.62-38.93-12.54-1.33-20.64,25-17.62,37.55-15.5-.65-1-1.26-7.88-1.38-9.55-5.2.94-18.66,1.37-23.68.44-14.61-2.71-17-22.88-3.86-29.19,6.31-3,18.41.11,22.41-2.1-.07-2.67-1.14-5.55-1.77-8.31-13.15,3.18-26,1-28.81-10.5a16.27,16.27,0,0,1,4.3-15.35c6.46-5.92,10.37-2.45,15.1-4.47a59.94,59.94,0,0,0-3.7-9.65c-9.76,3.35-17.64,2.37-22-5.63a16.44,16.44,0,0,1-1.16-12.65c1.4-4.26,4-6.15,6.54-8.63-5.48-8.61-18.93-17.49-30.38-17.81S583.13,552.85,577.27,561.59Z" transform="translate(-482.07 -463.66)"/><path class="cls-7" d="M678,705.22c4.25-3.43,8-6.6,7.63-14.63-.39-8.27-5.65-10.76-9-13.41-12.59-2.12-38.88-5.14-37.55,15.5C640.3,711.84,667.42,708.46,678,705.22Z" transform="translate(-482.07 -463.66)"/><path class="cls-7" d="M678,744.19c1.88-2.06,3-1.88,5.14-5,1.76-2.59,2.51-4.43,2.51-8.59A15.68,15.68,0,0,0,678,716.83c-6.58-2.46-17.47-2.68-25.3-1.82C633,717.17,629.05,756.75,678,744.19Z" transform="translate(-482.07 -463.66)"/><path class="cls-7" d="M539.33,677.18c-3.39,2.67-8.62,5.16-9,13.41a14.8,14.8,0,0,0,2.13,9c2,3.56,2.48,3.23,5.51,5.67,7.11,2.22,17,2.79,25.42,1.8,17.17-2,18-26.78,1.76-30.48C558.4,675,545.62,676.1,539.33,677.18Z" transform="translate(-482.07 -463.66)"/><path class="cls-7" d="M675.23,667.63c6-2.18,11.45-8,10.29-17.67a15.08,15.08,0,0,0-4.95-8.86c-4.5-3.86-5.49-2.4-10.47-4.32-4,2.21-16.1-.91-22.41,2.1-13.19,6.31-10.75,26.48,3.86,29.19C656.57,669,670,668.57,675.23,667.63Z" transform="translate(-482.07 -463.66)"/><path class="cls-7" d="M540.71,667.62c5.11,1,18.73,1.37,23.68.44,14.64-2.73,17-22.91,3.85-29.17-6.28-3-18.43.08-22.42-2.11-4.78,1.86-5.6.43-10.07,4a15.08,15.08,0,0,0-5.33,9.17C529.26,659.57,534.73,665.5,540.71,667.62Z" transform="translate(-482.07 -463.66)"/><path class="cls-7" d="M596.76,676.61c-17.93,4.58-15.34,29.91,3.93,30.55,4.27.14,15.32.39,18.87-.49,16.43-4.09,16.05-29.92-4.31-30.59C610.58,675.93,600.73,675.6,596.76,676.61Z" transform="translate(-482.07 -463.66)"/><path class="cls-7" d="M597.49,715.23c-18.48,3.69-16.32,29.65,2.51,30.71,4.23.24,15.33.4,19.15-.39,16.51-3.4,16.32-29.75-3.25-30.64C611.75,714.72,601,714.53,597.49,715.23Z" transform="translate(-482.07 -463.66)"/><path class="cls-7" d="M596.08,638c-10,2.78-15.36,14.59-8,24.57,6,8.19,27.57,6.4,31.91,5.19,9.23-2.57,15.75-14.89,8-24.37-2.93-3.59-6.55-6-13.41-6.12C609.25,637.14,600.76,636.69,596.08,638Z" transform="translate(-482.07 -463.66)"/><path class="cls-7" d="M595.47,599.44c-16.18,5.55-14.63,29.92,6.6,30.15,4.8,0,14.2.49,18.28-.74,9.29-2.81,15.1-15.37,7.45-24.65C621.15,596.13,600.56,597.69,595.47,599.44Z" transform="translate(-482.07 -463.66)"/><path class="cls-7" d="M584.91,768.27c.68,1.84,9.38,14.68,10.65,16.17,8.32.24,22.09,2.08,28.52-2.18,6.28-4.16,10.31-13.58,4.31-22.07-5.44-7.72-14.14-6.5-25.6-6.5C592.93,753.69,584.78,758.75,584.91,768.27Z" transform="translate(-482.07 -463.66)"/><path class="cls-7" d="M547.61,628.48c12.91,3.14,25.55,1,28.66-10a16.41,16.41,0,0,0-3.8-15.58c-6.3-6.3-10.63-2.73-15.48-4.8-10.57,0-15.5,3.42-18.29,11.09-1.66,4.55-.73,8.28,1.06,11.94C541.73,625.18,543.92,626.6,547.61,628.48Z" transform="translate(-482.07 -463.66)"/><path class="cls-7" d="M668.33,628.47c6.75-3.42,11.76-10.39,9.1-18.72-2.84-8.87-9.39-11.6-18.51-11.6-4.73,2-8.64-1.45-15.1,4.47a16.27,16.27,0,0,0-4.3,15.35C642.3,629.44,655.18,631.65,668.33,628.47Z" transform="translate(-482.07 -463.66)"/><path class="cls-7" d="M560.72,588.51c9.65,3.26,17.32,2.4,21.72-5.22A15.68,15.68,0,0,0,584,570.74c-1.33-4.5-4.08-6.54-6.74-9.15C557.59,552.13,544.59,577.38,560.72,588.51Z" transform="translate(-482.07 -463.66)"/><path class="cls-7" d="M638.63,561.59c-2.55,2.48-5.14,4.37-6.54,8.63a16.44,16.44,0,0,0,1.16,12.65c4.33,8,12.21,9,22,5.63C671,577.8,658.83,552.17,638.63,561.59Z" transform="translate(-482.07 -463.66)"/><path class="cls-7" d="M605.15,560.07c-20.81,4.45-14,34.71,6.38,30.24C631.1,586,624.59,555.9,605.15,560.07Z" transform="translate(-482.07 -463.66)"/><path class="cls-7" d="M538.33,716.82l21,20.62c2.7,2.45,3.69,5.46,7.08,7.43,9.63-2.17,14.17-17,6-25.32-4.31-4.38-8-4.68-15.18-4.66C550.58,714.9,543.73,714.06,538.33,716.82Z" transform="translate(-482.07 -463.66)"/><path class="cls-7" d="M627.76,797.61c-3.67-1.89-4.72-4.55-11.14-5.05a128.79,128.79,0,0,0-16.08.06c2,4.77,5.37,10.2,7.92,15.11,1.93,3.71,5.57,12.84,7.43,15.29C619.44,813.7,623.94,806,627.76,797.61Z" transform="translate(-482.07 -463.66)"/><path class="cls-7" d="M641.41,777.48c4.93-4.5,7.78-8.3,13.18-13a79.56,79.56,0,0,1,7.58-5.54c2.58-1.74,5.81-2.93,8.3-4.81-7.36-1.56-20.4-1-25.49,2.79A15.62,15.62,0,0,0,641.41,777.48Z" transform="translate(-482.07 -463.66)"/></svg>