<svg id="Layer_2" data-name="Layer 2" xmlns="http://www.w3.org/2000/svg" viewBox="0 0 240.05 214.23"><defs><style>.cls-1{fill:#ffc600;}.cls-2{fill:#ffb300;}</style></defs><title>croassaintIcon</title><path class="cls-1" d="M900.54,411c-18.13,32.86-55.52,53.25-73.65,39.09a61.8,61.8,0,0,1-13-13.85c24-8.46,27.49-30,49.16-81.27,4.69-11.09,6.39-20.26,5.89-27.84C881.63,341.63,915.37,384.09,900.54,411Z" transform="translate(-674.74 -291.72)"/><path class="cls-1" d="M775.67,436.22a61.8,61.8,0,0,1-13,13.85C744.5,464.23,707.11,443.84,689,411c-14.83-26.89,18.91-69.35,31.65-83.87-.51,7.58,1.19,16.75,5.88,27.84C748.18,406.23,751.66,427.76,775.67,436.22Z" transform="translate(-674.74 -291.72)"/><path class="cls-2" d="M775.67,436.22a61.8,61.8,0,0,1-13,13.85C744.5,464.23,707.11,443.84,689,411c-4.1-7.43-4.49-16.05-2.64-25a32.38,32.38,0,0,0,2.2,4.94c20.52,37.19,62.85,60.28,83.37,44.25l.41-.33C773.39,435.36,774.51,435.8,775.67,436.22Z" transform="translate(-674.74 -291.72)"/><path class="cls-2" d="M813.85,436.22a61.8,61.8,0,0,0,13,13.85c18.13,14.16,55.52-6.23,73.65-39.09,4.1-7.43,4.49-16.05,2.64-25A31.49,31.49,0,0,1,901,391c-20.51,37.19-62.84,60.28-83.36,44.25l-.41-.33C816.13,435.36,815,435.8,813.85,436.22Z" transform="translate(-674.74 -291.72)"/><path class="cls-1" d="M740.32,453.72c-3.1,7.93-5,19.17-5.3,35.81-.72,43.22-58.18-9.55-60.18-36.56-1-13.43,5.62-31.88,12.17-46.42a28.63,28.63,0,0,0,2,4.43C701.25,433.22,722.34,449.75,740.32,453.72Z" transform="translate(-674.74 -291.72)"/><path class="cls-1" d="M794.76,292.2c-7.51-.68-98-7.51-68.25,62.75,26.31,62.25,25.81,80.65,67.76,85.06v.1l.49-.05.49.05V440C837.2,435.6,836.7,417.2,863,355,892.71,284.69,802.27,291.52,794.76,292.2Z" transform="translate(-674.74 -291.72)"/><path class="cls-2" d="M846.73,298.49c1.9,8.78,1.3,20.28-3.24,35.32-18.79,62.18-18.43,80.57-48.38,85v.1l-.35-.05-.35.05v-.1c-29.95-4.41-29.59-22.8-48.38-85-4.54-15-5.14-26.54-3.24-35.32C725,306.16,712.64,322.16,726.51,355c26.31,62.25,25.81,80.65,67.76,85.06v.1l.49-.05.49.05V440C837.2,435.6,836.7,417.2,863,355,876.88,322.16,864.56,306.16,846.73,298.49Z" transform="translate(-674.74 -291.72)"/><path class="cls-1" d="M835.8,417.9A45.24,45.24,0,0,1,825.45,430C825.6,427.11,829.71,422.78,835.8,417.9Z" transform="translate(-674.74 -291.72)"/><path class="cls-1" d="M914.68,453c-2,27-59.46,79.78-60.18,36.56-.28-16.64-2.2-27.88-5.3-35.81,18-4,39.07-20.5,51.34-42.74a29.06,29.06,0,0,0,2-4.43C909.06,421.09,915.68,439.54,914.68,453Z" transform="translate(-674.74 -291.72)"/><path class="cls-2" d="M735,489.53c0-.16,0-.31,0-.47-26.33,2.53-47.76-21.31-60.28-39.88,0,1.3,0,2.57.09,3.79C676.84,480,734.3,532.75,735,489.53Z" transform="translate(-674.74 -291.72)"/><path class="cls-2" d="M854.5,489.53c0-.16,0-.31,0-.47,26.33,2.53,47.76-21.31,60.28-39.88a36.35,36.35,0,0,1-.09,3.79C912.68,480,855.22,532.75,854.5,489.53Z" transform="translate(-674.74 -291.72)"/></svg>