<svg id="Layer_2" data-name="Layer 2" xmlns="http://www.w3.org/2000/svg" viewBox="0 0 416.95 485.92"><defs><style>.cls-1{fill:#006837;}.cls-2{fill:#009245;}.cls-3{fill:#39b54a;}.cls-4{fill:#ebffa1;}.cls-5{fill:#b1c658;}</style></defs><title>cucumberIcon</title><path class="cls-1" d="M897.44,278.13s16.74-13.49,34.89-1.88c0,0,18.57-15.16,10-21.06,0,0-31.42-19.85-65.07,12Z" transform="translate(-527.65 -249.08)"/><path class="cls-2" d="M883.81,352c-.8,3.05-132.51,231.55-197.7,318.29S519.06,696.8,528.23,636.38,787.8,198.39,880.05,262C930.19,296.51,889.54,330.23,883.81,352Z" transform="translate(-527.65 -249.08)"/><path class="cls-1" d="M716.88,387.19S546.59,611.66,552,664.51C552,664.51,528.3,573.28,716.88,387.19Z" transform="translate(-527.65 -249.08)"/><path class="cls-3" d="M891.44,323.31S657.24,743.19,662,666C662.55,656.35,762.16,500.16,891.44,323.31Z" transform="translate(-527.65 -249.08)"/><path class="cls-1" d="M593.1,688.58S805.86,433.11,833.19,361C833.19,361,647.54,558,593.1,688.58Z" transform="translate(-527.65 -249.08)"/><path class="cls-1" d="M578.59,665.42s122-183.31,124.83-204.24C703.42,461.18,630.77,544.59,578.59,665.42Z" transform="translate(-527.65 -249.08)"/><path class="cls-1" d="M580,678.29c-7.16-1.63-14,1.4-15.18,6.77s3.58,11.05,10.75,12.69,14-1.4,15.18-6.77S587.15,679.93,580,678.29Z" transform="translate(-527.65 -249.08)"/><ellipse class="cls-2" cx="303.41" cy="396.96" rx="87.94" ry="88.97"/><ellipse class="cls-4" cx="303.41" cy="396.96" rx="79.21" ry="80.13"/><path class="cls-5" d="M853.09,609.4c-2.27,2.74-4.8,10.3-2.09,12.6s9.63-1.54,11.9-4.28a6.52,6.52,0,0,0-.79-9.12A6.35,6.35,0,0,0,853.09,609.4Z" transform="translate(-527.65 -249.08)"/><path class="cls-5" d="M831.06,646" transform="translate(-527.65 -249.08)"/><path class="cls-5" d="M871.21,632.29c-3.48.63-10.22,4.77-9.6,8.3s8.35,5.08,11.83,4.46a6.48,6.48,0,0,0-2.23-12.76Z" transform="translate(-527.65 -249.08)"/><path class="cls-5" d="M831.06,646" transform="translate(-527.65 -249.08)"/><path class="cls-5" d="M870.55,661.62c-3.06-1.79-10.86-3-12.63.1s3.17,9.33,6.23,11.12a6.35,6.35,0,0,0,8.74-2.37A6.52,6.52,0,0,0,870.55,661.62Z" transform="translate(-527.65 -249.08)"/><path class="cls-5" d="M831.06,646" transform="translate(-527.65 -249.08)"/><path class="cls-5" d="M851.41,683.65c-1.21-3.36-6.42-9.35-9.74-8.13s-3.5,9.2-2.3,12.56a6.39,6.39,0,0,0,8.21,3.88A6.51,6.51,0,0,0,851.41,683.65Z" transform="translate(-527.65 -249.08)"/><path class="cls-5" d="M831.06,646" transform="translate(-527.65 -249.08)"/><path class="cls-5" d="M822.74,688.08c1.21-3.36,1-11.33-2.29-12.56s-8.53,4.77-9.74,8.13a6.5,6.5,0,0,0,3.83,8.31A6.38,6.38,0,0,0,822.74,688.08Z" transform="translate(-527.65 -249.08)"/><path class="cls-5" d="M831.06,646" transform="translate(-527.65 -249.08)"/><path class="cls-5" d="M798,672.84c3.06-1.79,8-8,6.22-11.12s-9.56-1.89-12.62-.1a6.53,6.53,0,0,0-2.35,8.85A6.36,6.36,0,0,0,798,672.84Z" transform="translate(-527.65 -249.08)"/><path class="cls-5" d="M831.06,646" transform="translate(-527.65 -249.08)"/><path class="cls-5" d="M788.68,645.05c3.48.62,11.22-.94,11.83-4.46s-6.12-7.67-9.61-8.3a6.48,6.48,0,0,0-2.22,12.76Z" transform="translate(-527.65 -249.08)"/><path class="cls-5" d="M831.06,646" transform="translate(-527.65 -249.08)"/><path class="cls-5" d="M799.22,617.72c2.27,2.74,9.19,6.57,11.9,4.28s.18-9.86-2.09-12.6a6.35,6.35,0,0,0-9-.8A6.52,6.52,0,0,0,799.22,617.72Z" transform="translate(-527.65 -249.08)"/><path class="cls-5" d="M831.06,646" transform="translate(-527.65 -249.08)"/><path class="cls-5" d="M824.66,603.64c0,3.58,2.86,11,6.4,11s6.4-7.43,6.4-11a6.4,6.4,0,1,0-12.8,0Z" transform="translate(-527.65 -249.08)"/><path class="cls-5" d="M831.06,646" transform="translate(-527.65 -249.08)"/><ellipse class="cls-2" cx="230.56" cy="370.5" rx="87.94" ry="88.96"/><ellipse class="cls-4" cx="230.56" cy="370.5" rx="79.21" ry="80.13"/><path class="cls-5" d="M780.24,582.94c-2.28,2.74-4.8,10.3-2.09,12.6s9.62-1.53,11.9-4.27a6.54,6.54,0,0,0-.79-9.13A6.35,6.35,0,0,0,780.24,582.94Z" transform="translate(-527.65 -249.08)"/><path class="cls-5" d="M758.21,619.58" transform="translate(-527.65 -249.08)"/><path class="cls-5" d="M798.36,605.84c-3.48.62-10.22,4.77-9.6,8.29s8.34,5.09,11.83,4.47a6.48,6.48,0,0,0,5.19-7.51A6.41,6.41,0,0,0,798.36,605.84Z" transform="translate(-527.65 -249.08)"/><path class="cls-5" d="M758.21,619.58" transform="translate(-527.65 -249.08)"/><path class="cls-5" d="M797.7,635.17c-3.06-1.79-10.86-3-12.63.1s3.16,9.32,6.23,11.11A6.35,6.35,0,0,0,800,644,6.51,6.51,0,0,0,797.7,635.17Z" transform="translate(-527.65 -249.08)"/><path class="cls-5" d="M758.21,619.58" transform="translate(-527.65 -249.08)"/><path class="cls-5" d="M778.56,657.2c-1.21-3.36-6.42-9.36-9.74-8.13s-3.51,9.2-2.3,12.56a6.39,6.39,0,0,0,8.21,3.87A6.51,6.51,0,0,0,778.56,657.2Z" transform="translate(-527.65 -249.08)"/><path class="cls-5" d="M758.21,619.58" transform="translate(-527.65 -249.08)"/><path class="cls-5" d="M749.89,661.63c1.21-3.36,1-11.34-2.29-12.56s-8.53,4.77-9.74,8.13a6.49,6.49,0,0,0,3.83,8.3A6.38,6.38,0,0,0,749.89,661.63Z" transform="translate(-527.65 -249.08)"/><path class="cls-5" d="M758.21,619.58" transform="translate(-527.65 -249.08)"/><path class="cls-5" d="M725.12,646.38c3.06-1.79,8-8,6.22-11.11s-9.56-1.89-12.62-.1a6.5,6.5,0,0,0-2.35,8.84A6.36,6.36,0,0,0,725.12,646.38Z" transform="translate(-527.65 -249.08)"/><path class="cls-5" d="M758.21,619.58" transform="translate(-527.65 -249.08)"/><path class="cls-5" d="M715.83,618.6c3.48.62,11.21-1,11.83-4.47s-6.13-7.67-9.61-8.29a6.42,6.42,0,0,0-7.42,5.25A6.49,6.49,0,0,0,715.83,618.6Z" transform="translate(-527.65 -249.08)"/><path class="cls-5" d="M758.21,619.58" transform="translate(-527.65 -249.08)"/><path class="cls-5" d="M726.37,591.27c2.27,2.74,9.19,6.57,11.9,4.27s.18-9.86-2.09-12.6a6.35,6.35,0,0,0-9-.8A6.53,6.53,0,0,0,726.37,591.27Z" transform="translate(-527.65 -249.08)"/><path class="cls-5" d="M758.21,619.58" transform="translate(-527.65 -249.08)"/><path class="cls-5" d="M751.8,577.19c0,3.57,2.87,11,6.41,11s6.4-7.44,6.4-11a6.41,6.41,0,1,0-12.81,0Z" transform="translate(-527.65 -249.08)"/><path class="cls-5" d="M758.21,619.58" transform="translate(-527.65 -249.08)"/><ellipse class="cls-2" cx="282.24" cy="323.89" rx="87.94" ry="88.96"/><ellipse class="cls-4" cx="282.24" cy="323.89" rx="79.21" ry="80.13"/><path class="cls-5" d="M831.92,536.33c-2.27,2.74-4.8,10.3-2.09,12.6s9.63-1.54,11.9-4.28a6.52,6.52,0,0,0-.79-9.12A6.35,6.35,0,0,0,831.92,536.33Z" transform="translate(-527.65 -249.08)"/><path class="cls-5" d="M809.89,573" transform="translate(-527.65 -249.08)"/><path class="cls-5" d="M850,559.22c-3.48.63-10.22,4.77-9.6,8.3s8.35,5.08,11.83,4.46A6.48,6.48,0,0,0,850,559.22Z" transform="translate(-527.65 -249.08)"/><path class="cls-5" d="M809.89,573" transform="translate(-527.65 -249.08)"/><path class="cls-5" d="M849.38,588.55c-3.06-1.79-10.86-3-12.63.1s3.16,9.33,6.23,11.12a6.35,6.35,0,0,0,8.74-2.37A6.52,6.52,0,0,0,849.38,588.55Z" transform="translate(-527.65 -249.08)"/><path class="cls-5" d="M809.89,573" transform="translate(-527.65 -249.08)"/><path class="cls-5" d="M830.24,610.58c-1.21-3.36-6.42-9.35-9.74-8.13s-3.51,9.2-2.3,12.56a6.39,6.39,0,0,0,8.21,3.88A6.51,6.51,0,0,0,830.24,610.58Z" transform="translate(-527.65 -249.08)"/><path class="cls-5" d="M809.89,573" transform="translate(-527.65 -249.08)"/><path class="cls-5" d="M801.57,615c1.21-3.36,1-11.33-2.29-12.56s-8.53,4.77-9.74,8.13a6.5,6.5,0,0,0,3.83,8.31A6.38,6.38,0,0,0,801.57,615Z" transform="translate(-527.65 -249.08)"/><path class="cls-5" d="M809.89,573" transform="translate(-527.65 -249.08)"/><path class="cls-5" d="M776.8,599.77c3.06-1.79,8-8,6.22-11.12s-9.56-1.89-12.62-.1a6.52,6.52,0,0,0-2.35,8.85A6.36,6.36,0,0,0,776.8,599.77Z" transform="translate(-527.65 -249.08)"/><path class="cls-5" d="M809.89,573" transform="translate(-527.65 -249.08)"/><path class="cls-5" d="M767.51,572c3.48.62,11.22-.94,11.83-4.46s-6.12-7.67-9.61-8.3A6.48,6.48,0,0,0,767.51,572Z" transform="translate(-527.65 -249.08)"/><path class="cls-5" d="M809.89,573" transform="translate(-527.65 -249.08)"/><path class="cls-5" d="M778.05,544.65c2.27,2.74,9.19,6.57,11.9,4.28s.18-9.86-2.09-12.6a6.35,6.35,0,0,0-9-.8A6.52,6.52,0,0,0,778.05,544.65Z" transform="translate(-527.65 -249.08)"/><path class="cls-5" d="M809.89,573" transform="translate(-527.65 -249.08)"/><path class="cls-5" d="M803.49,530.57c0,3.58,2.86,11,6.4,11s6.4-7.43,6.4-11a6.4,6.4,0,1,0-12.8,0Z" transform="translate(-527.65 -249.08)"/><path class="cls-5" d="M809.89,573" transform="translate(-527.65 -249.08)"/></svg>