<svg id="Layer_2" data-name="Layer 2" xmlns="http://www.w3.org/2000/svg" viewBox="0 0 147.95 249.09"><defs><style>.cls-1{fill:#aae0f8;}.cls-2{fill:#9dcee3;}.cls-3{fill:#8ec6e3;}.cls-4{fill:#97d2f2;}.cls-5{fill:#f0f0f0;}.cls-6{fill:#fff;}</style></defs><title>dairyIcon</title><path class="cls-1" d="M670.05,525.63l-7.47-166.3-3-66.52h-2.66c-6.49,0-11.76,4.83-11.76,10.79l10.36,229c0,5.12,4.53,9.28,10.11,9.28h28.24l4.87-16.28Z" transform="translate(-645.18 -292.81)"/><path class="cls-2" d="M781.38,292.81h-2.66l-3,66.52-7.46,166.3H698.76l-4.87,16.28h78.78c5.58,0,10.11-4.16,10.11-9.28l10.36-229C793.14,297.64,787.87,292.81,781.38,292.81Z" transform="translate(-645.18 -292.81)"/><polygon class="cls-3" points="130.55 66.52 133.54 0 123.17 0 103.28 66.52 130.55 66.52"/><polygon class="cls-4" points="103.28 66.52 123.17 0 14.41 0 17.4 66.52 103.28 66.52"/><polygon class="cls-5" points="53.58 232.81 73.98 232.81 123.09 232.81 130.55 66.52 103.28 66.52 53.58 232.81"/><polygon class="cls-6" points="17.4 66.52 24.86 232.81 53.58 232.81 103.28 66.52 17.4 66.52"/></svg>