<svg id="Warstwa_3" data-name="Warstwa 3" xmlns="http://www.w3.org/2000/svg" viewBox="0 0 613 850.6"><defs><style>.cls-1{fill:none;}.cls-2{fill:#dbaa46;}.cls-3{fill:#d0eaee;}.cls-4{fill:#c5e0d0;}.cls-5{fill:#e9c92e;}.cls-6{fill:#fff;}</style></defs><path class="cls-1" d="M1787.66,770.66c-19.72-32.33-46.57-50.7-78-50.7-11.55,0-23.7,2.48-36.35,7.66a190.78,190.78,0,0,0-69,48.25V886.13a272.39,272.39,0,0,1,121.55,81.69c24.38-20.15,45.31-43.87,60.07-72.55C1806.33,855.75,1811.8,810.24,1787.66,770.66Z" transform="translate(-1246.99 -528.06)"/><path class="cls-2" d="M1517.58,528.06A61.65,61.65,0,0,0,1456,588.14H1579.2A61.65,61.65,0,0,0,1517.58,528.06Z" transform="translate(-1246.99 -528.06)"/><path class="cls-3" d="M1805.33,968.43c34-41.89,58.16-94.27,54.25-149.26-4-56.42-39.4-115.87-92.5-138.82a117.3,117.3,0,0,0-46.89-9.78c-37.64,0-73.93,17.89-102.48,44.88-4.59,4.34-9,8.91-13.34,13.64V599.59a55.15,55.15,0,0,0-1.22-11.45h-23.93c0,.52,0,1.05,0,1.58v47.43a61.45,61.45,0,0,1-1.38,13c.47,7.78.68,15.6.8,23.39-4.2.5-8.39,1.07-12.56,1.68a61.65,61.65,0,0,1-110.19-38V589.72c0-.53,0-1.06,0-1.58h-21a55.83,55.83,0,0,0-1.21,11.45V886.13C1325.28,921.92,1247,1024.08,1247,1144.54a271.91,271.91,0,0,0,133.43,234.12H1657.7A272.21,272.21,0,0,0,1758,1014.39,279.87,279.87,0,0,0,1805.33,968.43ZM1642.5,1362.85H1385.87c-68.34-44.16-113.8-122.52-113.8-211.86a254.31,254.31,0,0,1,39-136h360.81c-.27-.53-.51-1.07-.79-1.6-12.29-23.82-28-45.21-48.42-62.69a142.52,142.52,0,0,0-33.18-21.38A101.93,101.93,0,0,0,1578,925c-5-1.61-10.11-3-15.21-4.35a68.14,68.14,0,0,1-1.23-9.32c-.19-3.67-.26-7.34-.3-11,0-2.66,0-5.31-.06-8-.1-13.7-.2-27.4-.17-41.1q.06-39.53.51-79c.22-21.37.52-42.74,1-64.11,5.52-.9,11.05-1.66,16.61-2.33.49,23.2,1,46.4,1.2,69.6q.42,39.52.48,79c0,13.7-.1,27.4-.19,41.11,0,2.9-.12,5.73-.28,8.52,19.83,6,38.92,17.76,53.8,30,22.12,18.2,39.41,42.79,51.84,68.44,2,4.13,3.84,8.33,5.62,12.55h25.66a254.31,254.31,0,0,1,39,136C1756.31,1240.33,1710.85,1318.69,1642.5,1362.85Zm83.42-395a272.39,272.39,0,0,0-121.55-81.69V775.87a190.78,190.78,0,0,1,69-48.25c12.65-5.18,24.8-7.66,36.35-7.66,31.41,0,58.26,18.37,78,50.7,24.14,39.58,18.67,85.09-1.67,124.61C1771.23,924,1750.3,947.67,1725.92,967.82Z" transform="translate(-1246.99 -528.06)"/><path class="cls-4" d="M1455.91,637.15a61.65,61.65,0,0,0,110.19,38c-.92.14-1.85.26-2.77.41.33-19.82.78-39.91,5.12-59a2.61,2.61,0,0,1,5,0,208,208,0,0,1,4.41,33.53,61.45,61.45,0,0,0,1.38-13V589.72c0-.53,0-1.06,0-1.58H1455.93c0,.52,0,1.05,0,1.58Z" transform="translate(-1246.99 -528.06)"/><path class="cls-5" d="M1691.66,1015c.77,1.82,1.55,3.63,2.28,5.46q-7.07,5.71-14.21,11.32-3.64-8.52-7.86-16.78H1311.06a254.31,254.31,0,0,0-39,136c0,89.34,45.46,167.7,113.8,211.86H1642.5c68.35-44.16,113.81-122.52,113.81-211.86a254.31,254.31,0,0,0-39-136Zm17.91,152.41c-.17,1.34-2.24,1.43-2.16,0,1.41-25.9-3.76-51.57-9.14-76.8q-2.91-13.61-7-27,6.69-5.18,13.32-10.44a304.73,304.73,0,0,1,6.78,33.79C1715.23,1113.87,1713.15,1140.64,1709.57,1167.43Z" transform="translate(-1246.99 -528.06)"/><path class="cls-6" d="M1704.62,1053.23q-6.63,5.25-13.32,10.44,4,13.33,7,27c5.38,25.23,10.55,50.9,9.14,76.8-.08,1.43,2,1.34,2.16,0,3.58-26.79,5.66-53.56,1.83-80.41A304.73,304.73,0,0,0,1704.62,1053.23Z" transform="translate(-1246.99 -528.06)"/><path class="cls-6" d="M1693.94,1020.48c-.73-1.83-1.51-3.64-2.28-5.46-1.78-4.22-3.62-8.42-5.62-12.55-12.43-25.65-29.72-50.24-51.84-68.44-14.88-12.24-34-24-53.8-30,.16-2.79.26-5.62.28-8.52.09-13.71.22-27.41.19-41.11q-.06-39.52-.48-79c-.24-23.2-.71-46.4-1.2-69.6-5.56.67-11.09,1.43-16.61,2.33-.52,21.37-.82,42.74-1,64.11q-.42,39.52-.51,79c0,13.7.07,27.4.17,41.1,0,2.66,0,5.31.06,8,0,3.67.11,7.34.3,11a68.14,68.14,0,0,0,1.23,9.32c5.1,1.38,10.18,2.74,15.21,4.35a101.93,101.93,0,0,1,11.48,4.36,142.52,142.52,0,0,1,33.18,21.38c20.42,17.48,36.13,38.87,48.42,62.69.28.53.52,1.07.79,1.6q4.2,8.26,7.86,16.78Q1686.89,1026.19,1693.94,1020.48Z" transform="translate(-1246.99 -528.06)"/><path class="cls-6" d="M1568.45,616.57c-4.34,19.1-4.79,39.19-5.12,59,.92-.15,1.85-.27,2.77-.41,4.17-.61,8.36-1.18,12.56-1.68-.12-7.79-.33-15.61-.8-23.39a208,208,0,0,0-4.41-33.53A2.61,2.61,0,0,0,1568.45,616.57Z" transform="translate(-1246.99 -528.06)"/></svg>