<svg id="Layer_2" data-name="Layer 2" xmlns="http://www.w3.org/2000/svg" viewBox="0 0 537.7 530.32"><defs><style>.cls-1{fill:#f9d5a4;}.cls-2{fill:#eab26e;}.cls-3{fill:#feebda;}.cls-4{fill:#53353a;}</style></defs><title>flourIcon</title><path class="cls-1" d="M1269.94,910.56a2.54,2.54,0,0,1,.29.4,1.3,1.3,0,0,0,0-.15c0-.13,0-1,0-.59-.13-.76-.12-.87-.52-1.3a2.07,2.07,0,0,0-.06,1C1269.71,909.57,1269.85,910.26,1269.94,910.56Z" transform="translate(-841.2 -758.99)"/><polygon class="cls-1" points="428.28 149.75 428.28 149.75 428.27 149.75 428.28 149.75 428.28 149.75"/><path class="cls-1" d="M1139.78,858.63c0-.28.12.41.21.71,0,0,.17.22.29.4a1.57,1.57,0,0,0,0-.16c0-.12,0-1,0-.59-.13-.75-.12-.87-.52-1.31A2.11,2.11,0,0,0,1139.78,858.63Z" transform="translate(-841.2 -758.99)"/><path class="cls-1" d="M1241.22,934.34s.17.25.29.42c0,0,0-.1,0-.17s0-.9,0-.63a2.1,2.1,0,0,0-.52-1.32,2.51,2.51,0,0,0-.07.93C1241,933.38,1241.13,934.08,1241.22,934.34Z" transform="translate(-841.2 -758.99)"/><polygon class="cls-1" points="298.32 98.5 298.32 98.5 298.32 98.5 298.32 98.5"/><path class="cls-1" d="M1256.54,916.8a2.75,2.75,0,0,0,0-.95,3.35,3.35,0,0,0-.57-1.48,2.82,2.82,0,0,0,0,1A3.35,3.35,0,0,0,1256.54,916.8Z" transform="translate(-841.2 -758.99)"/><polygon class="cls-1" points="431.79 169.05 431.79 169.05 431.8 169.05 431.8 169.05 431.79 169.05"/><path class="cls-1" d="M1272,925.65h0Z" transform="translate(-841.2 -758.99)"/><path class="cls-1" d="M1272.31,925.76Z" transform="translate(-841.2 -758.99)"/><polygon class="cls-1" points="431.84 169.03 431.85 169.03 431.84 169.03 431.84 169.03"/><path class="cls-1" d="M1270.61,911.2h0C1270.87,911.23,1270.88,911.23,1270.61,911.2Z" transform="translate(-841.2 -758.99)"/><polygon class="cls-1" points="429.37 152.21 429.37 152.21 429.37 152.21 429.37 152.21"/><path class="cls-1" d="M1272.64,926.37c0-.06,0-.09-.05-.13a2.71,2.71,0,0,0-.24-.35l-.07-.08a2.23,2.23,0,0,0,0,.94c0-.46.12.44.16.55a.73.73,0,0,0,0,.12,2.25,2.25,0,0,0,.24.36l.06.07a2,2,0,0,0,.06-.93C1272.83,927.37,1272.68,926.48,1272.64,926.37Z" transform="translate(-841.2 -758.99)"/><path class="cls-1" d="M1139.49,789.84a3.23,3.23,0,0,0,.33-.74,4.53,4.53,0,0,0,.13-2.42,3.79,3.79,0,0,0-1.86-2.64,1.89,1.89,0,0,0-.17.35,4.58,4.58,0,0,0,1.57,5.45Z" transform="translate(-841.2 -758.99)"/><path class="cls-1" d="M1141.89,800.51a4.27,4.27,0,0,0-.28.49,3.81,3.81,0,0,0-.24,2c.19,1.08.77,2.41,1.85,2.74a4,4,0,0,0,.3-.51,3.81,3.81,0,0,0,.24-2A3.29,3.29,0,0,0,1141.89,800.51Z" transform="translate(-841.2 -758.99)"/><polygon class="cls-1" points="299.44 101 299.44 101 299.44 101 299.44 101"/><path class="cls-1" d="M1123.1,799.06s.09-.06.17-.09a1.51,1.51,0,0,0,.18-.25,3.16,3.16,0,0,0,.31-1.73c-.24-1.39-.75-2.07-1.75-2.27-.1,0-.15,0-.15,0l0,0a3.41,3.41,0,0,0-.46,2A2.35,2.35,0,0,0,1123.1,799.06Z" transform="translate(-841.2 -758.99)"/><path class="cls-1" d="M1117,841.14a4.64,4.64,0,0,0,.32-.72,4.86,4.86,0,0,0,.1-2.51,4.47,4.47,0,0,0-1.86-2.79,4,4,0,0,0-.31.7,4.82,4.82,0,0,0-.1,2.5A4.65,4.65,0,0,0,1117,841.14Z" transform="translate(-841.2 -758.99)"/><path class="cls-1" d="M1116.58,841.85c-.73.26-.46.52,0,0Z" transform="translate(-841.2 -758.99)"/><path class="cls-1" d="M1140,825.87c-.06.12-.12.24-.17.36a4.53,4.53,0,0,0-.29,2.41,4.65,4.65,0,0,0,1.87,3.09,3.89,3.89,0,0,0,.33-.76,4.67,4.67,0,0,0,.13-2.43A3.93,3.93,0,0,0,1140,825.87Z" transform="translate(-841.2 -758.99)"/><path class="cls-1" d="M1156,848.37a2.49,2.49,0,0,0-.54-1.38,1.82,1.82,0,0,0-.08.62,2.68,2.68,0,0,0,.56,1.6A2.5,2.5,0,0,0,1156,848.37Z" transform="translate(-841.2 -758.99)"/><path class="cls-1" d="M1140.65,860c.27,0,.28,0,0,0Z" transform="translate(-841.2 -758.99)"/><path class="cls-1" d="M1156.44,849.65h0l.14.07Z" transform="translate(-841.2 -758.99)"/><path class="cls-1" d="M1158.53,875.61a2.69,2.69,0,0,0,0,1,3.29,3.29,0,0,0,.58,1.51,2.74,2.74,0,0,0,0-1A3.35,3.35,0,0,0,1158.53,875.61Z" transform="translate(-841.2 -758.99)"/><path class="cls-1" d="M957,920.59Z" transform="translate(-841.2 -758.99)"/><polygon class="cls-1" points="115.77 161.6 115.76 161.6 115.77 161.6 115.77 161.6"/><path class="cls-1" d="M968,906.87a2.81,2.81,0,0,0,0,1,3.23,3.23,0,0,0,.57,1.48,2.58,2.58,0,0,0,0-1A3.22,3.22,0,0,0,968,906.87Z" transform="translate(-841.2 -758.99)"/><path class="cls-1" d="M957.91,883.07a2.58,2.58,0,0,0,0-1,3.22,3.22,0,0,0-.56-1.47,2.75,2.75,0,0,0,0,1A3.23,3.23,0,0,0,957.91,883.07Z" transform="translate(-841.2 -758.99)"/><path class="cls-2" d="M1336.81,1285.44a44.2,44.2,0,0,1,19.89-1.45c3.73.51,10.58,2.57,13.4,1.77-.48.14,1.14-1.66,1.44-2.57a19,19,0,0,0,.73-7c-.46-9.56-3.06-19.07-5.62-28.24-4.44-15.92-10.11-31.49-13.81-47.62a302.31,302.31,0,0,1-6.67-43.25c-1.85-23.1-.64-46.44-3.26-69.47-2.33-20.56-9.12-39.15-21.79-55.34-5.32,3-10.77,5.67-16,8.22-43.59,21-91.48,35-139,43.57-22.32,4.05-45.21,7.14-68,6.54-23.5-.61-46.88-4.53-69.78-9.64-44.44-9.92-88-24.15-130.53-40.26-7.95-3-15.88-6.09-23.76-9.3-4.55,32.68-3.78,65.76.38,98.47.81,6.37,1.74,12.72,2.71,19.06a166.08,166.08,0,0,0,22.34,57.56c1.8,2.9-4.47,5.37-6,2.88a176.64,176.64,0,0,1-11.26-21.29,42.63,42.63,0,0,1-.48,5.63c-1.75,11.44-8.28,22.13-15.55,30.92-2.88,3.48-8.8,8.47-10.53,11.25-3.14,5-2.62,11.21,2.57,14.74,10.34,7,23.75,6.28,35.36,3.5a172.81,172.81,0,0,0,17.37-5.22l-1-.28c-2.07-.64,3.8-3.13,5.37-2.65l1.91.57A216.87,216.87,0,0,0,940.14,1236c1.16-.62,7.79-1.38,5,.11-7.59,4.08-15.7,8.09-24.1,11.59,31.59,9.56,63.69,17.92,96,24.48,26.63,5.41,53.07,7.75,80.15,9.62,33.43,2.3,67.34,4.74,100.8,1.6,28.35-2.66,55.76-11.44,82.6-20.56,15.14-5.14,30.21-10.53,45.09-16.38,2.56-1,6.66,0,2.32,1.68-17.38,6.84-35,13.12-52.76,18.95l-3.52,1.15a167,167,0,0,0,20.92,10.09C1305.57,1283.54,1322.9,1289.93,1336.81,1285.44Zm-369.16-67.69c-9.69,5-18.67-6.7-24.37-13-22.76-25.27-34.34-57.62-39.53-90.83-.33-2.1,6.28-3.59,6.57-1.76,4.63,29.63,14.18,59.32,33.09,83.07a140.52,140.52,0,0,0,9.9,11.22c3,3.07,6.74,7.73,10.94,9.07a1.36,1.36,0,0,1,.4.19,3.88,3.88,0,0,1,.31-.61,9.78,9.78,0,0,0,1-2.12,25.63,25.63,0,0,0,1.19-5.27,42.91,42.91,0,0,0,.32-6.8c-.09-2.23,6.51-3.44,6.57-1.76C974.3,1205.38,974,1214.47,967.65,1217.75ZM1259.42,1238c-2.88,1.3-6.74-.67-2.55-2.55,7.4-3.34,16.56-10.23,23.11-16.52a95.76,95.76,0,0,0,28.61-55.21c.33-2.14,6.94-3.34,6.56-.86C1310.38,1194.45,1289,1224.67,1259.42,1238Z" transform="translate(-841.2 -758.99)"/><path class="cls-1" d="M941.08,911.9a3.8,3.8,0,0,0-.06-1.3,4,4,0,0,0-.56-1.32,3.8,3.8,0,0,0,.06,1.3A4.4,4.4,0,0,0,941.08,911.9Z" transform="translate(-841.2 -758.99)"/><polygon class="cls-1" points="114.64 159.09 114.64 159.1 114.64 159.09 114.64 159.09"/><path class="cls-2" d="M901.21,1036.88c42.74,16.22,86.46,30.71,131.15,40.56,23.22,5.12,47,9.37,70.86,9.54,23.38.17,46.8-3.13,69.7-7.62a610.16,610.16,0,0,0,75.07-19.8c21.59-7.19,43.18-15.36,63.26-26.17,2.47-1.33,4.94-2.7,7.39-4.12l-.37-.45c-.85-1,3.33-2.76,5.33-2.57a98.23,98.23,0,0,0,8.91-6.33c4.25-3.41,9.14-7.51,11.27-12.69,2.66-6.46,2-15,2.21-21.82a300.88,300.88,0,0,0-1.11-34.1,207.62,207.62,0,0,0-5.45-33.7c-2.37-9.1-5.39-18.84-11.26-26.36-7.73-9.88-21.15-12.56-33-14.29a114.91,114.91,0,0,0-22.88-1.3A158.61,158.61,0,0,1,1286,894.72c5.08,8.31,11.58,19.33,10.65,29.69a26.86,26.86,0,0,0,5.73-3.65c6.4-5.78-.06-15.19-4.73-19.93-2.4-2.44,3.8-5.2,6-3a32.51,32.51,0,0,1,6.2,8.9c4.65,10-.58,16.14-9.3,20.82-9.27,5-17.31,12.41-25.38,19.07-8.84,7.28-18.51,16.26-29.34,21.65a220.71,220.71,0,0,0,61.4-14.94c2.65-1.06,6.7.19,2.39,1.92a233.73,233.73,0,0,1-72.86,16.51,36.32,36.32,0,0,1-9.85,1.28c-39.14-.42-79-1.82-117.7-8-8.16-1.29-16.46-2.73-24.32-5.38-7.54-2.55-14.64-5.63-22.44-7.49-23.55-5.59-47.66-8.57-71.51-12.57-22.68-3.81-45-8.06-66-17.75a80.7,80.7,0,0,1-11.62-6.4,109.62,109.62,0,0,1-15.58-12.15c-2.12-2,4.09-4.57,6-2.75s4,3.52,6,5.19c2.87-10.12,17.08-14.28,27.72-15.86-2.19-5.56-.58-13.31,1-19.19-13.78,3.1-28.58,6.18-42.52,5-.29,0-.5-.06-.64-.09a13.09,13.09,0,0,0-2.12,1.81,46.68,46.68,0,0,0-5,6.31,167.4,167.4,0,0,0-11.25,19.76,363.91,363.91,0,0,0-21.89,55c-4.68,15.3-11.14,34.8-5.09,50.58,2.91,7.6,8.77,13.7,16.78,15.81,2.36.62,5.27.41,7.5,1.34C883.26,1030,892.22,1033.47,901.21,1036.88Z" transform="translate(-841.2 -758.99)"/><path class="cls-1" d="M956.32,919.94a3.11,3.11,0,0,1,.28.4s0-.09,0-.15,0-1,0-.6c-.13-.75-.12-.88-.52-1.31a2.11,2.11,0,0,0-.06,1C956.08,919,956.23,919.65,956.32,919.94Z" transform="translate(-841.2 -758.99)"/><path class="cls-3" d="M916,909.12a1.77,1.77,0,0,1-.22.83,6.68,6.68,0,0,0,.91.85c1,.64,1.92,1.26,2.9,1.86a134.56,134.56,0,0,0,27,11.87c19.48,6.28,40.08,9.14,60.22,12.35,20.72,3.31,41.73,6.07,62,11.4,6.58,1.73,12.63,4.41,19,6.57a131.71,131.71,0,0,0,21.23,4.88c38.88,6.34,79,7.91,118.31,8.29,8.34.08,14.92-3.22,21.77-7.91,9.88-6.77,19-14.62,28.22-22.18,4-3.28,8.07-6.57,12.33-9.55,2.46-11.17-5.34-24.08-11-33a169.48,169.48,0,0,0-14.37-19.56c-5.05-2.66-10.23-5.16-15.5-7.34-4.9-2-11.46-2.73-15.28-6.69-8.87-9.23-12.8-22.25-22-31.36-2.59-2.57-5.48-5.05-9-6.31a36.37,36.37,0,0,1-7.77-3.34c-5-3.25-8.79-8.39-11.85-13.43-3.47-5.73-6.38-11.74-9.56-17.63-1.73-3.21-4.57-10-8.57-11.09-11.57-3.3-20.2-13.22-32.23-15.53-10.16-1.95-18.44,4.46-26.34,10.17-9.75,7-18.93,14.82-28.21,22.45-7.27,6-14.82,13.09-23.51,17a45,45,0,0,1-18.3,3.83c-6.77,0-11.7.44-17.87,3.53-9.51,4.77-20.12,3.16-30.19,5.55-20.52,4.87-37.52,21.33-42.34,42.07l0,0a2.77,2.77,0,0,1-.11.82c-1.72,5.83-4.85,16.84-.16,21.81,1.82,1.93-1.82,3.89-3.25,4C933.72,895.11,916,897.83,916,909.12Zm363.49,17.63a7.11,7.11,0,0,1-7.22,6.38c-3.59-.13-6.94-2.21-6.71-6.21.21-3.56,3.25-6,6.62-6.34a3,3,0,0,1,.6,0,4.19,4.19,0,0,1,1.1.11C1277,921.12,1279.68,923.16,1279.48,926.75Zm-16.42-16.69c.21-3.75,3.64-6.22,7.22-6.35l.62,0h.23a5.88,5.88,0,0,1,5.83,6.38c-.47,4-4.24,6.2-8.06,6.07A5.88,5.88,0,0,1,1263.06,910.06Zm-13.68,5.58c.39-3.39,3.71-5,6.81-5.48a6.09,6.09,0,0,1,1.37-.13,2.77,2.77,0,0,1,.49,0c3,.28,5.49,2.16,5.11,5.46-.43,3.75-4.79,5.73-8.18,5.61C1251.81,921,1249,919.12,1249.38,915.64Zm-15.05,18.2c.21-3.72,3.75-6.11,7.25-6.24a5.24,5.24,0,0,1,.55,0h.3c3.32.12,6.18,2.73,5.78,6.2-.46,4-4.36,6.11-8.08,6A5.72,5.72,0,0,1,1234.33,933.84Zm-87.32-75c-.47,4-4.26,6.2-8.06,6.06a5.85,5.85,0,0,1-5.84-6.1c.21-3.76,3.66-6.22,7.23-6.34a3.2,3.2,0,0,1,.61,0h.23A5.87,5.87,0,0,1,1147,858.88Zm1.41-29.89c-.76,4.3-6,6-9.83,5.89-3.42-.12-6.07-2.5-5.66-6.06.49-4.29,5.38-6.08,9.15-6.21a2.67,2.67,0,0,1,.48,0h.23C1146.31,822.73,1149.06,825.32,1148.42,829Zm17.27,47.77c-.43,3.7-4.87,5.65-8.21,5.53-3.13-.11-6-1.86-5.55-5.35s3.82-5,6.92-5.42a6.51,6.51,0,0,1,1.28-.11,3.28,3.28,0,0,1,.52,0C1163.57,871.72,1166.07,873.47,1165.69,876.76ZM1156,842.18h.84c3.28.12,6.13,2.54,5.73,6-.46,3.91-4.48,6-8.12,5.87-3.23-.11-5.94-2.37-5.74-5.75C1149,844.62,1152.61,842.3,1156,842.18Zm-5.67-39c-.5,4.3-5,6.7-9.06,6.56-3.77-.13-7-2.69-6.55-6.74s4-5.93,7.65-6.43a6.33,6.33,0,0,1,1.41-.13,2.67,2.67,0,0,1,.48,0C1147.86,796.84,1150.82,799.35,1150.37,803.22Zm-19.32-16.28c.5-4.3,5.35-6.1,9.14-6.23a4.75,4.75,0,0,1,.52,0h.2c3.53.12,6.28,2.76,5.64,6.42-.76,4.33-6,6.05-9.83,5.92C1133.29,792.94,1130.64,790.5,1131.05,786.94Zm-16.34,10c.24-4.28,4-7.11,8.13-7.25l.62,0h.23a6.76,6.76,0,0,1,6.73,7.38c-.52,4.53-4.65,7.06-9,6.91A6.76,6.76,0,0,1,1114.71,797Zm-6.09,40.95c.66-3.8,5-5.25,8.54-5.62l.58-.06.74,0a2.51,2.51,0,0,1,.51,0c3.24.32,5.66,2.56,5,6.09-.72,4.14-6.22,5.85-9.86,5.72S1108,841.63,1108.62,837.91ZM975.15,908c-.44,3.73-4.81,5.71-8.19,5.59-3.16-.11-6-2-5.59-5.47s3.74-5,6.84-5.47a6.44,6.44,0,0,1,1.35-.12,2.85,2.85,0,0,1,.49,0C973,902.87,975.53,904.73,975.15,908Zm7.08-30.4h.3a5.72,5.72,0,0,1,5.78,6.21c-.46,4-4.35,6.11-8.08,6a5.72,5.72,0,0,1-5.8-6c.21-3.72,3.74-6.12,7.25-6.24A5.14,5.14,0,0,1,982.23,877.63Zm-17-12c.58-3.31,4.38-4.56,7.49-4.92a7.39,7.39,0,0,1,1.47-.11,2.37,2.37,0,0,1,.48,0c2.67.29,4.71,2.14,4.2,5.06-.66,3.71-5.75,5.14-9,5C967,870.56,964.65,868.67,965.19,865.58Zm-14.44,16.33c.39-3.4,3.71-5,6.81-5.49a6,6,0,0,1,1.37-.12,2.8,2.8,0,0,1,.49,0c3,.28,5.49,2.16,5.11,5.46-.44,3.75-4.79,5.73-8.19,5.61C953.17,887.29,950.35,885.39,950.75,881.91Zm-1.32,37.53c.22-3.75,3.66-6.21,7.23-6.33a4.24,4.24,0,0,1,.61,0h.24a5.86,5.86,0,0,1,5.82,6.35c-.46,4-4.26,6.19-8.06,6.06A5.86,5.86,0,0,1,949.43,919.44ZM934,910.6c.58-3.33,4.43-4.58,7.57-4.93a7.47,7.47,0,0,1,1.4-.11,2.21,2.21,0,0,1,.48,0c2.64.28,4.7,2.07,4.19,5-.65,3.71-5.75,5.15-9,5C935.76,915.51,933.4,913.69,934,910.6Z" transform="translate(-841.2 -758.99)"/><path class="cls-1" d="M981.32,884.36a2.87,2.87,0,0,1,.29.42.72.72,0,0,0,0-.17c0-.13,0-.9,0-.63a2,2,0,0,0-.52-1.32,2.75,2.75,0,0,0-.07.93C981.07,883.4,981.23,884.1,981.32,884.36Z" transform="translate(-841.2 -758.99)"/><path class="cls-1" d="M972.31,866.91a3.5,3.5,0,0,0,0-1.29,4.09,4.09,0,0,0-.56-1.31,3.68,3.68,0,0,0,0,1.28A4.56,4.56,0,0,0,972.31,866.91Z" transform="translate(-841.2 -758.99)"/><path class="cls-1" d="M971.57,868.65c-.42.25-.38.4,0,0Z" transform="translate(-841.2 -758.99)"/><path class="cls-4" d="M1308.59,1163.71a95.76,95.76,0,0,1-28.61,55.21c-6.55,6.29-15.71,13.18-23.11,16.52-4.19,1.88-.33,3.85,2.55,2.55,29.55-13.32,51-43.54,55.73-75.14C1315.53,1160.37,1308.92,1161.57,1308.59,1163.71Z" transform="translate(-841.2 -758.99)"/><path class="cls-4" d="M967.47,1200.88a42.91,42.91,0,0,1-.32,6.8A25.63,25.63,0,0,1,966,1213a9.78,9.78,0,0,1-1,2.12,3.88,3.88,0,0,0-.31.61,1.36,1.36,0,0,0-.4-.19c-4.2-1.34-7.9-6-10.94-9.07a140.52,140.52,0,0,1-9.9-11.22c-18.91-23.75-28.46-53.44-33.09-83.07-.29-1.83-6.9-.34-6.57,1.76,5.19,33.21,16.77,65.56,39.53,90.83,5.7,6.33,14.68,18.08,24.37,13,6.31-3.28,6.65-12.37,6.39-18.63C974,1197.44,967.38,1198.65,967.47,1200.88Z" transform="translate(-841.2 -758.99)"/><path class="cls-4" d="M1339.09,1287c4.45-1.4,9.37-.84,13.89-.16,7.26,1.09,17.18,4,23.25-1.86,3-2.94,2.78-8.14,2.53-12-.67-10.15-3.7-20.25-6.45-30-6.56-23.16-14.12-45.54-17.56-69.47-2.75-19.19-3.23-38.57-3.68-57.92-.36-15.59-.86-31.28-4.43-46.52a99.77,99.77,0,0,0-20.08-40,85.83,85.83,0,0,0,18.49-14.85c9.68-10.64,7.68-26.77,7.58-40.2-.15-22.27-2.13-45.34-9.08-66.61-2.62-8-6.31-16.13-12.28-22.2-8.23-8.36-22.94-10.51-33.94-12.12a110.76,110.76,0,0,0-28.3-.74,142.4,142.4,0,0,0-25.14-10.73c-7.57-2.26-11.85-13.33-15.65-19.51-5.1-8.32-11-17.19-20.34-21.16-4.44-1.9-8-3.08-11.53-6.59-3.92-3.87-6.84-8.76-9.52-13.52-4.23-7.52-7.38-16.34-13.21-22.83-2.29-2.54-5.39-3-8.38-4.35-5.63-2.57-10.69-6.39-16.12-9.35-8.85-4.81-18.67-7.17-28.33-3.73-9,3.21-17.11,9.56-24.66,15.28-13,9.87-25,21.21-38.35,30.62a32.56,32.56,0,0,1-13.85,6c-4.68.74-9.47.09-14.18.5-8.43.75-14.9,6-23.17,7-8.1,1-16,1.24-23.89,3.58a64.34,64.34,0,0,0-26.12,15.18A63.18,63.18,0,0,0,939.75,867c-6.48,1.4-13,2.57-19.56,3.56a134.76,134.76,0,0,1-16.28,1.62c-3.14.09-6.41-.77-9.48.12-4.92,1.44-8.38,6-11.25,10-5,6.9-9,14.58-12.74,22.19a366.05,366.05,0,0,0-23.24,59.71c-4.86,16.66-10.46,37.44-.37,53.25,3.74,5.87,10.06,9.5,16.65,11.23a28.92,28.92,0,0,0,4.54.78c-4.91,32.29-4.49,64.92-.77,97.31.64,5.57,1.4,11.13,2.21,16.67,0,0,0,0,0,.08.28,2.18.62,4.36,1,6.55q1,6.72,2.11,13.45c1.43,9,3.44,18.33,3.11,27.49-.44,12.54-7.64,24.34-15.19,33.91-3.32,4.21-8.22,7.67-11.2,12-10.89,16,15.89,22.16,26.71,21.83,13-.4,26.23-3.79,38.95-8.6,32.33,9.8,65.18,18.3,98.27,25,25.81,5.24,51.49,7.5,77.73,9.34,32.85,2.3,65.93,4.43,98.84,2.18,25.91-1.78,50.86-8.49,75.49-16.33a150.82,150.82,0,0,0,44,17.42C1319.21,1289.88,1329.36,1290,1339.09,1287ZM942.39,894.38c1.43-.13,5.07-2.09,3.25-4-4.69-5-1.56-16,.16-21.81a2.77,2.77,0,0,0,.11-.82l0,0c4.82-20.74,21.82-37.2,42.34-42.07,10.07-2.39,20.68-.78,30.19-5.55,6.17-3.09,11.1-3.5,17.87-3.53a45,45,0,0,0,18.3-3.83c8.69-3.86,16.24-11,23.51-17,9.28-7.63,18.46-15.42,28.21-22.45,7.9-5.71,16.18-12.12,26.34-10.17,12,2.31,20.66,12.23,32.23,15.53,4,1.14,6.84,7.88,8.57,11.09,3.18,5.89,6.09,11.9,9.56,17.63,3.06,5,6.81,10.18,11.85,13.43a36.37,36.37,0,0,0,7.77,3.34c3.48,1.26,6.37,3.74,9,6.31,9.17,9.11,13.1,22.13,22,31.36,3.82,4,10.38,4.66,15.28,6.69,5.27,2.18,10.45,4.68,15.5,7.34a169.48,169.48,0,0,1,14.37,19.56c5.64,8.88,13.44,21.79,11,33-4.26,3-8.31,6.27-12.33,9.55-9.27,7.56-18.34,15.41-28.22,22.18-6.85,4.69-13.43,8-21.77,7.91-39.36-.38-79.43-1.95-118.31-8.29a131.71,131.71,0,0,1-21.23-4.88c-6.41-2.16-12.46-4.84-19-6.57-20.32-5.33-41.33-8.09-62-11.4-20.14-3.21-40.74-6.07-60.22-12.35a134.56,134.56,0,0,1-27-11.87c-1-.6-2-1.22-2.9-1.86a6.68,6.68,0,0,1-.91-.85,1.77,1.77,0,0,0,.22-.83C916,897.83,933.72,895.11,942.39,894.38Zm-75.5,130.55c-8-2.11-13.87-8.21-16.78-15.81-6.05-15.78.41-35.28,5.09-50.58a363.91,363.91,0,0,1,21.89-55,167.4,167.4,0,0,1,11.25-19.76,46.68,46.68,0,0,1,5-6.31,13.09,13.09,0,0,1,2.12-1.81c.14,0,.35.06.64.09,13.94,1.21,28.74-1.87,42.52-5-1.62,5.88-3.23,13.63-1,19.19-10.64,1.58-24.85,5.74-27.72,15.86-2.08-1.67-4.1-3.4-6-5.19s-8.17.79-6,2.75a109.62,109.62,0,0,0,15.58,12.15,80.7,80.7,0,0,0,11.62,6.4c21,9.69,43.28,13.94,66,17.75,23.85,4,48,7,71.51,12.57,7.8,1.86,14.9,4.94,22.44,7.49,7.86,2.65,16.16,4.09,24.32,5.38,38.7,6.15,78.56,7.55,117.7,8a36.32,36.32,0,0,0,9.85-1.28,233.73,233.73,0,0,0,72.86-16.51c4.31-1.73.26-3-2.39-1.92a220.71,220.71,0,0,1-61.4,14.94c10.83-5.39,20.5-14.37,29.34-21.65,8.07-6.66,16.11-14.08,25.38-19.07,8.72-4.68,14-10.79,9.3-20.82a32.51,32.51,0,0,0-6.2-8.9c-2.2-2.23-8.4.53-6,3,4.67,4.74,11.13,14.15,4.73,19.93a26.86,26.86,0,0,1-5.73,3.65c.93-10.36-5.57-21.38-10.65-29.69a158.61,158.61,0,0,0-13.69-19.06,114.91,114.91,0,0,1,22.88,1.3c11.85,1.73,25.27,4.41,33,14.29,5.87,7.52,8.89,17.26,11.26,26.36a207.62,207.62,0,0,1,5.45,33.7,300.88,300.88,0,0,1,1.11,34.1c-.16,6.85.45,15.36-2.21,21.82-2.13,5.18-7,9.28-11.27,12.69a98.23,98.23,0,0,1-8.91,6.33c-2-.19-6.18,1.57-5.33,2.57l.37.45c-2.45,1.42-4.92,2.79-7.39,4.12-20.08,10.81-41.67,19-63.26,26.17a610.16,610.16,0,0,1-75.07,19.8c-22.9,4.49-46.32,7.79-69.7,7.62-23.85-.17-47.64-4.42-70.86-9.54-44.69-9.85-88.41-24.34-131.15-40.56-9-3.41-18-6.91-26.82-10.61C872.16,1025.34,869.25,1025.55,866.89,1024.93Zm404.86,243.34,3.52-1.15c17.74-5.83,35.38-12.11,52.76-18.95,4.34-1.7.24-2.69-2.32-1.68-14.88,5.85-30,11.24-45.09,16.38-26.84,9.12-54.25,17.9-82.6,20.56-33.46,3.14-67.37.7-100.8-1.6-27.08-1.87-53.52-4.21-80.15-9.62-32.33-6.56-64.43-14.92-96-24.48,8.4-3.5,16.51-7.51,24.1-11.59,2.78-1.49-3.85-.73-5-.11a216.87,216.87,0,0,1-22.89,10.55l-1.91-.57c-1.57-.48-7.44,2-5.37,2.65l1,.28a172.81,172.81,0,0,1-17.37,5.22c-11.61,2.78-25,3.53-35.36-3.5-5.19-3.53-5.71-9.72-2.57-14.74,1.73-2.78,7.65-7.77,10.53-11.25,7.27-8.79,13.8-19.48,15.55-30.92a42.63,42.63,0,0,0,.48-5.63,176.64,176.64,0,0,0,11.26,21.29c1.55,2.49,7.82,0,6-2.88A166.08,166.08,0,0,1,877.13,1149c-1-6.34-1.9-12.69-2.71-19.06-4.16-32.71-4.93-65.79-.38-98.47,7.88,3.21,15.81,6.29,23.76,9.3,42.56,16.11,86.09,30.34,130.53,40.26,22.9,5.11,46.28,9,69.78,9.64,22.74.6,45.63-2.49,68-6.54,47.53-8.62,95.42-22.53,139-43.57,5.28-2.55,10.73-5.23,16-8.22,12.67,16.19,19.46,34.78,21.79,55.34,2.62,23,1.41,46.37,3.26,69.47a302.31,302.31,0,0,0,6.67,43.25c3.7,16.13,9.37,31.7,13.81,47.62,2.56,9.17,5.16,18.68,5.62,28.24a19,19,0,0,1-.73,7c-.3.91-1.92,2.71-1.44,2.57-2.82.8-9.67-1.26-13.4-1.77a44.2,44.2,0,0,0-19.89,1.45c-13.91,4.49-31.24-1.9-44.14-7.08A167,167,0,0,1,1271.75,1268.27Z" transform="translate(-841.2 -758.99)"/><path class="cls-4" d="M1121.46,804c4.31.15,8.44-2.38,9-6.91a6.76,6.76,0,0,0-6.73-7.38h-.23l-.62,0c-4.1.14-7.89,3-8.13,7.25A6.76,6.76,0,0,0,1121.46,804Zm.38-9.26,0,0s.05,0,.15,0c1,.2,1.51.88,1.75,2.27a3.16,3.16,0,0,1-.31,1.73,1.51,1.51,0,0,1-.18.25c-.08,0-.17.07-.17.09a2.35,2.35,0,0,1-1.72-2.25A3.41,3.41,0,0,1,1121.84,794.77Z" transform="translate(-841.2 -758.99)"/><path class="cls-4" d="M1136.72,793.06c3.87.13,9.07-1.59,9.83-5.92.64-3.66-2.11-6.3-5.64-6.42h-.2a4.75,4.75,0,0,0-.52,0c-3.79.13-8.64,1.93-9.14,6.23C1130.64,790.5,1133.29,792.94,1136.72,793.06Zm1.2-8.67a1.89,1.89,0,0,1,.17-.35,3.79,3.79,0,0,1,1.86,2.64,4.53,4.53,0,0,1-.13,2.42,3.23,3.23,0,0,1-.33.74,4.58,4.58,0,0,1-1.57-5.45Z" transform="translate(-841.2 -758.99)"/><path class="cls-4" d="M1143.82,796.48a6.33,6.33,0,0,0-1.41.13c-3.61.5-7.19,2.46-7.65,6.43s2.78,6.61,6.55,6.74c4,.14,8.56-2.26,9.06-6.56.45-3.87-2.51-6.38-6.07-6.7A2.67,2.67,0,0,0,1143.82,796.48Zm-.3,8.78a4,4,0,0,1-.3.51c-1.08-.33-1.66-1.66-1.85-2.74a3.81,3.81,0,0,1,.24-2,4.27,4.27,0,0,1,.28-.49,3.29,3.29,0,0,1,1.87,2.72A3.81,3.81,0,0,1,1143.52,805.26Z" transform="translate(-841.2 -758.99)"/><path class="cls-4" d="M1142.79,822.61h-.23a2.67,2.67,0,0,0-.48,0c-3.77.13-8.66,1.92-9.15,6.21-.41,3.56,2.24,5.94,5.66,6.06,3.84.14,9.07-1.59,9.83-5.89C1149.06,825.32,1146.31,822.73,1142.79,822.61ZM1141.7,831a3.89,3.89,0,0,1-.33.76,4.65,4.65,0,0,1-1.87-3.09,4.53,4.53,0,0,1,.29-2.41c0-.12.11-.24.17-.36a3.93,3.93,0,0,1,1.87,2.67A4.67,4.67,0,0,1,1141.7,831Z" transform="translate(-841.2 -758.99)"/><path class="cls-4" d="M1114.17,844c3.64.13,9.14-1.58,9.86-5.72.62-3.53-1.8-5.77-5-6.09a2.51,2.51,0,0,0-.51,0l-.74,0-.58.06c-3.54.37-7.88,1.82-8.54,5.62S1110.67,843.92,1114.17,844Zm2.41-2.19c-.46.52-.73.26,0,0Zm-1.29-6a4,4,0,0,1,.31-.7,4.47,4.47,0,0,1,1.86,2.79,4.86,4.86,0,0,1-.1,2.51,1.8,1.8,0,1,1-2.17-2.1A4.82,4.82,0,0,1,1115.29,835.82Z" transform="translate(-841.2 -758.99)"/><path class="cls-4" d="M1154.49,854.05c3.64.13,7.66-2,8.12-5.87.4-3.47-2.45-5.89-5.73-6H1156c-3.43.12-7.08,2.44-7.29,6.12C1148.55,851.68,1151.26,853.94,1154.49,854.05Zm2-4.4.13.07-.14-.07Zm-1-2.66a2.64,2.64,0,0,1,.48,2.22,2.68,2.68,0,0,1-.56-1.6A1.82,1.82,0,0,1,1155.44,847Z" transform="translate(-841.2 -758.99)"/><path class="cls-4" d="M1141.18,852.52H1141a3.2,3.2,0,0,0-.61,0c-3.57.12-7,2.58-7.23,6.34a5.85,5.85,0,0,0,5.84,6.1c3.8.14,7.59-2,8.06-6.06A5.87,5.87,0,0,0,1141.18,852.52Zm-1.66,5Zm.79,2.09a1.57,1.57,0,0,1,0,.16c-.12-.18-.28-.44-.29-.4-.09-.3-.23-1-.21-.71a2.11,2.11,0,0,1,.06-1c.4.44.39.56.52,1.31C1140.29,858.61,1140.33,859.46,1140.31,859.58Zm.33.41Zm0,0h0C1140.93,860,1140.92,860,1140.65,860Z" transform="translate(-841.2 -758.99)"/><path class="cls-4" d="M1160.13,871.41a6.51,6.51,0,0,0-1.28.11c-3.1.43-6.53,2.05-6.92,5.42s2.42,5.24,5.55,5.35c3.34.12,7.78-1.83,8.21-5.53.38-3.29-2.12-5-5-5.31A3.28,3.28,0,0,0,1160.13,871.41Zm-1,6.69a3.29,3.29,0,0,1-.58-1.51,2.69,2.69,0,0,1,0-1,3.35,3.35,0,0,1,.57,1.5A2.74,2.74,0,0,1,1159.09,878.1Z" transform="translate(-841.2 -758.99)"/><path class="cls-4" d="M1268.9,916.19c3.82.13,7.59-2,8.06-6.07a5.88,5.88,0,0,0-5.83-6.38h-.23l-.62,0c-3.58.13-7,2.6-7.22,6.35A5.88,5.88,0,0,0,1268.9,916.19Zm1.71-5c.27,0,.26,0,0,0Zm0,0Zm-.78-2.28c.4.43.39.54.52,1.3-.07-.39,0,.46,0,.59a1.3,1.3,0,0,1,0,.15,2.54,2.54,0,0,0-.29-.4c-.09-.3-.23-1-.21-.69A2.07,2.07,0,0,1,1269.79,908.92Zm-.31-.19Z" transform="translate(-841.2 -758.99)"/><path class="cls-4" d="M1255,921.14c3.39.12,7.75-1.86,8.18-5.61.38-3.3-2.14-5.18-5.11-5.46a2.77,2.77,0,0,0-.49,0,6.09,6.09,0,0,0-1.37.13c-3.1.45-6.42,2.09-6.81,5.48S1251.81,921,1255,921.14Zm1-6.77a3.35,3.35,0,0,1,.57,1.48,2.75,2.75,0,0,1,0,.95,3.35,3.35,0,0,1-.57-1.47A2.82,2.82,0,0,1,1256,914.37Z" transform="translate(-841.2 -758.99)"/><path class="cls-4" d="M1272.77,920.54a3,3,0,0,0-.6,0c-3.37.37-6.41,2.78-6.62,6.34-.23,4,3.12,6.08,6.71,6.21a7.11,7.11,0,0,0,7.22-6.38c.2-3.59-2.47-5.63-5.61-6.1A4.19,4.19,0,0,0,1272.77,920.54Zm-.79,5.11h0Zm.33.11h0Zm.43,2.09-.06-.07a2.25,2.25,0,0,1-.24-.36.73.73,0,0,1,0-.12c0-.11-.19-1-.16-.55a2.23,2.23,0,0,1,0-.94l.07.08a2.71,2.71,0,0,1,.24.35s0,.07.05.13.19,1,.16.55A2,2,0,0,1,1272.74,927.85Zm.25.19Zm0,0Z" transform="translate(-841.2 -758.99)"/><path class="cls-4" d="M1240.13,939.8c3.72.12,7.62-2,8.08-6,.4-3.47-2.46-6.08-5.78-6.2h-.3a5.24,5.24,0,0,0-.55,0c-3.5.13-7,2.52-7.25,6.24A5.72,5.72,0,0,0,1240.13,939.8Zm.92-7.16a2.1,2.1,0,0,1,.52,1.32c0-.27,0,.5,0,.63s0,.13,0,.17c-.12-.17-.29-.45-.29-.42-.09-.26-.25-1-.24-.77A2.51,2.51,0,0,1,1241.05,932.64Z" transform="translate(-841.2 -758.99)"/><path class="cls-4" d="M938.62,915.61c3.22.12,8.32-1.32,9-5,.51-2.91-1.55-4.7-4.19-5a2.21,2.21,0,0,0-.48,0,7.47,7.47,0,0,0-1.4.11c-3.14.35-7,1.6-7.57,4.93C933.4,913.69,935.76,915.51,938.62,915.61Zm1.84-6.33a4,4,0,0,1,.56,1.32,3.8,3.8,0,0,1,.06,1.3,4.4,4.4,0,0,1-.56-1.32A3.8,3.8,0,0,1,940.46,909.28Z" transform="translate(-841.2 -758.99)"/><path class="cls-4" d="M970.05,902.6a2.85,2.85,0,0,0-.49,0,6.44,6.44,0,0,0-1.35.12c-3.1.45-6.45,2.08-6.84,5.47s2.43,5.36,5.59,5.47c3.38.12,7.75-1.86,8.19-5.59C975.53,904.73,973,902.87,970.05,902.6Zm-1.52,6.71a3.23,3.23,0,0,1-.57-1.48,2.81,2.81,0,0,1,0-1,3.22,3.22,0,0,1,.56,1.48A2.58,2.58,0,0,1,968.53,909.31Z" transform="translate(-841.2 -758.99)"/><path class="cls-4" d="M955.27,925.54c3.8.13,7.6-2,8.06-6.06a5.86,5.86,0,0,0-5.82-6.35h-.24a4.24,4.24,0,0,0-.61,0c-3.57.12-7,2.58-7.23,6.33A5.86,5.86,0,0,0,955.27,925.54Zm1.71-4.95Zm0,0Zm-.81-2.31c.4.43.39.56.52,1.31-.06-.38,0,.47,0,.6s0,.11,0,.15a3.11,3.11,0,0,0-.28-.4c-.09-.29-.24-1-.22-.71A2.11,2.11,0,0,1,956.16,918.28Zm-.32-.2Z" transform="translate(-841.2 -758.99)"/><path class="cls-4" d="M956.34,887.4c3.4.12,7.75-1.86,8.19-5.61.38-3.3-2.15-5.18-5.11-5.46a2.8,2.8,0,0,0-.49,0,6,6,0,0,0-1.37.12c-3.1.45-6.42,2.09-6.81,5.49S953.17,887.29,956.34,887.4Zm1-6.76a3.22,3.22,0,0,1,.56,1.47,2.58,2.58,0,0,1,0,1,3.23,3.23,0,0,1-.57-1.48A2.75,2.75,0,0,1,957.37,880.64Z" transform="translate(-841.2 -758.99)"/><path class="cls-4" d="M969.87,870.66c3.21.12,8.3-1.31,9-5,.51-2.92-1.53-4.77-4.2-5.06a2.37,2.37,0,0,0-.48,0,7.39,7.39,0,0,0-1.47.11c-3.11.36-6.91,1.61-7.49,4.92C964.65,868.67,967,870.56,969.87,870.66Zm1.83-6.35a4.09,4.09,0,0,1,.56,1.31,3.5,3.5,0,0,1,0,1.29,4.56,4.56,0,0,1-.56-1.32A3.68,3.68,0,0,1,971.7,864.31Zm-.13,4.34,0,0C971.19,869.05,971.15,868.9,971.57,868.65Z" transform="translate(-841.2 -758.99)"/><path class="cls-4" d="M974.43,883.86a5.72,5.72,0,0,0,5.8,6c3.73.13,7.62-2,8.08-6a5.72,5.72,0,0,0-5.78-6.21h-.3a5.14,5.14,0,0,0-.55,0C978.17,877.74,974.64,880.14,974.43,883.86Zm6.72-1.2a2,2,0,0,1,.52,1.32c0-.27,0,.5,0,.63a.72.72,0,0,1,0,.17,2.87,2.87,0,0,0-.29-.42c-.09-.26-.25-1-.24-.77A2.75,2.75,0,0,1,981.15,882.66Z" transform="translate(-841.2 -758.99)"/></svg>