<svg xmlns="http://www.w3.org/2000/svg" viewBox="0 0 519.15 382.14"><defs><style>.cls-1{isolation:isolate;}.cls-2{fill:#d7ccc8;}.cls-3{fill:#5acc54;}.cls-4{fill:#90d83d;}.cls-5{fill:#70b22d;}.cls-6{fill:#5a9b32;}.cls-7{fill:#95b453;}.cls-8{fill:#9b0b23;}.cls-9{fill:#d0cabb;}.cls-10{fill:#edd098;}.cls-11{fill:#ab1f30;}.cls-11,.cls-54{mix-blend-mode:multiply;}.cls-12{fill:#b7b7b7;}.cls-12,.cls-42{mix-blend-mode:screen;}.cls-13{fill:#7cb342;}.cls-14{fill:#9ccc65;}.cls-15{fill:#683c11;}.cls-16{fill:#f4144a;}.cls-17{fill:#ff1744;}.cls-18{fill:#ff5252;}.cls-19{fill:#ff8a80;}.cls-20{fill:#6d6c69;}.cls-21{fill:#95c11f;}.cls-22{fill:#063;}.cls-23{fill:#008d36;}.cls-24{fill:#39a935;}.cls-25{fill:#ffea67;}.cls-26{fill:#ffdc48;}.cls-27{fill:#e19e34;}.cls-28{fill:#b17f49;}.cls-29{fill:#fcce83;}.cls-30{fill:#cc061a;}.cls-31{fill:#e00613;}.cls-32{fill:#c2cbd8;}.cls-33{fill:#d0d8e2;}.cls-34{fill:#e2e1dc;}.cls-35{fill:#edebe2;}.cls-36,.cls-37,.cls-44{fill:#fff;}.cls-36{opacity:0.57;}.cls-37{opacity:0.74;}.cls-38{fill:#0d8438;}.cls-39{fill:#07a03d;}.cls-40{fill:#db426e;}.cls-41{fill:#e25685;}.cls-42{fill:#eab7c8;}.cls-43{fill:#b71c1c;}.cls-45{fill:#fc3565;}.cls-46{fill:#f94377;}.cls-47{fill:#f94e87;}.cls-48{fill:#fc5997;}.cls-49,.cls-50,.cls-55{fill:#ffebee;}.cls-50{opacity:0.85;}.cls-51,.cls-54{fill:#ce93d8;}.cls-52{fill:#ba68c8;}.cls-53{fill:#d50000;}.cls-55{opacity:0.83;}.cls-56{fill:#fbd9b1;}.cls-57{fill:#f8cea0;}.cls-58{fill:#efc59c;}.cls-59{fill:#8faa21;}.cls-60{fill:#93b723;}.cls-61{fill:#9ec624;}.cls-62{fill:#f5e3b9;}.cls-63{fill:#f6ca91;}.cls-64{fill:#fcbd32;}.cls-65{fill:#f9ebcf;}.cls-66{fill:#e2cfaa;}</style></defs><g class="cls-1"><g id="bag_all"><path id="cabbage_shade" class="cls-2" d="M513,461.17c0,2.76-14.62,5-32.67,5s-32.66-2.24-32.66-5,14.62-5,32.66-5S513,458.41,513,461.17Z" transform="translate(-4.34 -98.03)"/><path id="cheese_shade" class="cls-2" d="M480.33,473.17c0,3.86-29.25,7-65.33,7s-67.75-4-65.33-7c17.33-21.67,29.25-7,65.33-7S480.33,469.3,480.33,473.17Z" transform="translate(-4.34 -98.03)"/><path id="apple_shade" class="cls-2" d="M191.26,464.58c0,4.14-27.11,7.5-60.55,7.5s-60.54-3.36-60.54-7.5,27.1-7.5,60.54-7.5S191.26,460.44,191.26,464.58Z" transform="translate(-4.34 -98.03)"/><path id="jam_shade" class="cls-2" d="M111.55,465.08c0,2.81-22.74,5.08-50.79,5.08S10,467.89,10,465.08,32.72,460,60.76,460,111.55,462.28,111.55,465.08Z" transform="translate(-4.34 -98.03)"/><path id="bag_shade" class="cls-2" d="M416.08,456.79c0,2.37-71.52,4.29-159.74,4.29S96.6,459.16,96.6,456.79s71.52-4.29,159.74-4.29S416.08,454.42,416.08,456.79Z" transform="translate(-4.34 -98.03)"/><g id="cabbage"><path class="cls-3" d="M519.45,377.55a74.64,74.64,0,1,1-74.64-74.64A74.64,74.64,0,0,1,519.45,377.55Z" transform="translate(-4.34 -98.03)"/><path class="cls-4" d="M454.36,399.56a5.74,5.74,0,0,0,2.94,1.89c3.78,1,7.91-2.38,9.2-7.47a11.62,11.62,0,0,0,0-6.12,9.27,9.27,0,0,0,8.91-7c.07-.29.13-.58.17-.87a9.26,9.26,0,0,0,5.16-13.71A9.22,9.22,0,0,0,483,354.56a9.27,9.27,0,0,0,.21-18l-.5-.1a9.28,9.28,0,0,0-3.28-9.06,9.16,9.16,0,0,0,2.06-3.87,9.26,9.26,0,0,0-11.21-11.28,9.08,9.08,0,0,0-6.68-8.38,8.8,8.8,0,0,0-7.47,1.54c-20.43-8.13-47.57.87-65.34,23.24-20.78,26.17-20.86,60.69-.19,77.11C407.81,419.45,434.07,416.21,454.36,399.56Z" transform="translate(-4.34 -98.03)"/><path class="cls-5" d="M424.38,378.26a5.72,5.72,0,0,1-2.9-1.95c-2.38-3.1-.94-8.21,3.22-11.41a11.71,11.71,0,0,1,5.64-2.39,9.28,9.28,0,0,1,2.88-10.94,8.59,8.59,0,0,1,.73-.5,9.25,9.25,0,0,1,10.55-10.16,9.25,9.25,0,0,1,9.91-6.71,9.26,9.26,0,0,1,16.46-7.3c.11.14.2.28.29.42a9.26,9.26,0,0,1,9.62-.58A9.25,9.25,0,0,1,496.51,325a9.13,9.13,0,0,1,1.8,4.15A9.08,9.08,0,0,1,508.65,332a8.82,8.82,0,0,1,1.54,7.48c15.54,15.54,18,44,4.48,69.2-15.82,29.43-47.49,43.16-70.75,30.65C424.51,428.88,417.11,403.48,424.38,378.26Z" transform="translate(-4.34 -98.03)"/><path class="cls-6" d="M413.16,398.75a5.72,5.72,0,0,1-2.9-1.95c-2.38-3.1-.94-8.21,3.22-11.41a11.71,11.71,0,0,1,5.64-2.39A9.26,9.26,0,0,1,422,372.06a8.59,8.59,0,0,1,.73-.5,9.25,9.25,0,0,1,10.55-10.16,9.25,9.25,0,0,1,9.91-6.71,9.26,9.26,0,0,1,16.46-7.3,3.93,3.93,0,0,1,.29.42,9.26,9.26,0,0,1,9.61-.58,9.27,9.27,0,0,1,15.74-1.73,9.24,9.24,0,0,1,1.8,4.15,9.07,9.07,0,0,1,10.34,2.83A8.79,8.79,0,0,1,499,360c15.54,15.54,18,44,4.48,69.2-15.82,29.43-47.49,43.16-70.75,30.66C413.29,449.37,405.89,424,413.16,398.75Z" transform="translate(-4.34 -98.03)"/><path class="cls-5" d="M447,392.86a5.68,5.68,0,0,0,3.45-.57c3.45-1.82,4.26-7.07,1.8-11.71a11.67,11.67,0,0,0-4.13-4.52A9.28,9.28,0,0,0,450,364.91c-.15-.26-.3-.51-.46-.76a9.24,9.24,0,0,0-5.38-13.61A9.24,9.24,0,0,0,438,340.32a9.27,9.27,0,0,0-12-13.48l-.44.26a9.23,9.23,0,0,0-8.5-4.51,9.42,9.42,0,0,0-1.07-4.25,9.27,9.27,0,0,0-15.89-.83,9.08,9.08,0,0,0-10.58-1.72A8.81,8.81,0,0,0,385,322c-20.59,7.69-34.66,32.59-32.8,61.1,2.17,33.34,25.29,59,51.64,57.25C425.87,438.87,443.15,418.83,447,392.86Z" transform="translate(-4.34 -98.03)"/><path class="cls-7" d="M438.34,404.81a4.23,4.23,0,0,1-1.4-2.17c-.71-2.79,1.76-5.83,5.52-6.79a8.53,8.53,0,0,1,4.52,0,6.83,6.83,0,0,1,5.15-6.58c.21-.05.43-.1.64-.13a6.83,6.83,0,0,1,10.12-3.8,6.81,6.81,0,0,1,8.68-1.66,6.84,6.84,0,0,1,13.29-.15c0,.13.05.25.08.37a6.83,6.83,0,0,1,6.68,2.42c.8-.7,3.06-7.78,4.16-8.06,3.66-.93,7.2,3.17,8.13,6.83.29,1.13,4.42-5.45,7.81-2.6,6,5.06-.4,4.63.32,7.48.5,2,2.79-2,7.48,3.9,5.21,6.51-3.61,23.39-27,50.42-20.82,24.06-46.65,22.86-58.77,7.6C423.65,439.17,426.05,419.79,438.34,404.81Z" transform="translate(-4.34 -98.03)"/><path class="cls-6" d="M435.61,410.49c-16.91-4.88-6,5.53-20.82-10.08-1.71-1.81-9.45-2.44-11.12-.84a9.25,9.25,0,0,0-8.23-5c-5.12,0-9.25,9.61-9.24,9.78-3.55.18.46-9.45-10.44-14.33-4.67-2.1-10.66,3.24-9.95,4.54a9.09,9.09,0,0,0-6.47,8.55c0,2.74-4.48-.44-2.44,1.22,5.6,25.58,35.12,46.84,52.36,52.36,22.33,7.16,43.75,15.83,65.38-3.9C490.92,437.92,457.43,416.78,435.61,410.49Z" transform="translate(-4.34 -98.03)"/></g><g id="wine"><polygon class="cls-8" points="436.54 106.12 435.16 108.11 435.94 145.34 410.51 145.34 411.29 108.13 409.91 106.14 409.76 101.55 411.29 100.32 411.29 95.73 413.12 93.89 423.08 93.89 423.38 93.87 433.33 93.87 435.16 95.71 435.16 100.3 436.7 101.53 436.54 106.12"/><path d="M460.17,445.94c-.07,2.16-1,6.21-3.67,7.81-8.23,5-28.74,6.12-28.94,6.13h0s-20.67-1.07-28.94-6.12C396,452.16,395,448.11,395,446c-.28-7.74-.31-38-.2-70,0-1.56,0-3.12,0-4.67,0-1,0-1.95,0-2.91.07-17,.16-34,.26-47.93q0-1.49,0-2.91c0-1.6,0-3.17,0-4.68.11-11.74.22-20.4.32-23.57.46-14.24,9-22.82,13.78-26.8,4.3-3.6,5.51-11.79,5.51-11.79l.15-7.35h25.42l.15,7.33s1.22,8.19,5.51,11.79c4.75,4,13.32,12.56,13.78,26.8.1,3.16.21,11.84.31,23.59,0,1.51,0,3.08,0,4.68q0,1.43,0,2.91c.1,14,.09,33,.25,47.93,0,1,0,1.94,0,2.91,0,1.55,0,3.11,0,4.67C460.47,408,460.46,438.2,460.17,445.94Z" transform="translate(-4.34 -98.03)"/><path class="cls-9" d="M460.37,376H394.75c0-1.56,0-3.12,0-4.67,0-1,0-1.95,0-2.91.07-17,.16-34,.26-47.93q0-1.49,0-2.91c0-1.6,0-3.17,0-4.68H460c0,1.51,0,3.08,0,4.68q0,1.43,0,2.91c.1,14,.2,31,.25,47.93,0,1,0,1.94,0,2.91C460.36,372.86,460.36,374.42,460.37,376Z" transform="translate(-4.34 -98.03)"/><path class="cls-10" d="M460.34,368.4H394.77c0,1,0,1.94,0,2.91h65.6C460.36,370.34,460.36,369.36,460.34,368.4Zm-.25-47.93q0-1.49,0-2.91h-65q0,1.43,0,2.91Z" transform="translate(-4.34 -98.03)"/><path class="cls-11" d="M436.68,238a5.25,5.25,0,0,1-5.28,5.22h0a5.25,5.25,0,0,1-5.29-5.22V198.82a5.26,5.26,0,0,1,5.29-5.22h0a5.26,5.26,0,0,1,5.28,5.22Z" transform="translate(-4.34 -98.03)"/><path class="cls-12" d="M414.09,448.26c0,2.7-2.88,4.9-6.43,4.9h0c-3.55,0-6.43-2.2-6.43-4.9v-166c0-2.7,2.88-4.9,6.43-4.9h0c3.55,0,6.43,2.2,6.43,4.9Z" transform="translate(-4.34 -98.03)"/></g><g id="redApple"><path class="cls-13" d="M269.7,171.48c-10.13-.55-17.89-9.08-17.89-9.08l36.68,2S279.84,172,269.7,171.48Z" transform="translate(-4.34 -98.03)"/><path class="cls-14" d="M288.49,164.41l-36.68-2s8.65-7.64,18.78-7.08S288.49,164.41,288.49,164.41Z" transform="translate(-4.34 -98.03)"/><path class="cls-15" d="M258,149.26a15,15,0,0,1,.14,2.17,18.52,18.52,0,0,1-.12,2.11A14,14,0,0,1,257,157.6a9.41,9.41,0,0,1-2.42,3.37,9.12,9.12,0,0,1-3.53,1.86,8.73,8.73,0,0,0,3-2.4,8.39,8.39,0,0,0,1.5-3.32,12.21,12.21,0,0,0,.18-3.62,15.3,15.3,0,0,0-.26-1.8A11.63,11.63,0,0,0,255,150Z" transform="translate(-4.34 -98.03)"/><path class="cls-16" d="M269.4,206.05c-8.5,12.72-20.24,17.91-29,18.56S203.34,206.3,200.6,198a36.65,36.65,0,0,1-1.4-17,38.79,38.79,0,0,0,15.44,20.55c18.12,12.11,42.81,6.94,55.16-11.54a40.85,40.85,0,0,0,5.64-12.64,13.29,13.29,0,0,1,1,2.36C279.21,188,276.94,194.77,269.4,206.05Z" transform="translate(-4.34 -98.03)"/><path class="cls-17" d="M269.8,190c-12.35,18.48-37,23.65-55.16,11.54A38.79,38.79,0,0,1,199.2,181a41.47,41.47,0,0,1,5.63-15.19,31.48,31.48,0,0,0,9.84,10.51c14.76,9.86,34.89,5.66,45-9.41.52-.78,1-1.57,1.45-2.37,5.92,3.8,11.62,7.78,14.36,12.83A40.85,40.85,0,0,1,269.8,190Z" transform="translate(-4.34 -98.03)"/><path class="cls-18" d="M259.63,166.9c-10.07,15.07-30.2,19.27-45,9.41a31.48,31.48,0,0,1-9.84-10.51c.41-.68.83-1.35,1.29-2,1.51-2.1,3-4,4.39-5.67a30.62,30.62,0,0,0,2.48,1.84,32.25,32.25,0,0,0,38.15-2q1.56,1.13,3.15,2.19c2.19,1.46,4.51,2.9,6.79,4.36C260.63,165.33,260.15,166.12,259.63,166.9Z" transform="translate(-4.34 -98.03)"/><path class="cls-19" d="M251.14,158a32.25,32.25,0,0,1-38.15,2,30.62,30.62,0,0,1-2.48-1.84c5.81-6.85,11.2-10.29,18.19-10.8C236.37,146.72,243.57,152.59,251.14,158Z" transform="translate(-4.34 -98.03)"/></g><g id="green"><polygon class="cls-20" points="164.68 144.85 153.44 125 142.19 105.15 161.04 103.49 179.88 101.83 172.28 123.34 164.68 144.85"/><path class="cls-21" d="M184.12,146a9.69,9.69,0,0,0-6.78,4.94c-2.5,4.56-1.11,10.11,3.09,12.41a8.11,8.11,0,0,0,4.13,1c-1.15,4.88.65,9.86,4.77,12.11,4.44,2.44,10.11.88,13.58-3.42a11.09,11.09,0,0,0,1.39.91c4.55,2.49,9.95,1.39,12.06-2.46a7.07,7.07,0,0,0,.74-4.62,6.82,6.82,0,0,0,6.83-3.19c1.83-3.33,0-7.81-4-10-.33-.18-.66-.33-1-.47,0,0,0,0,0-.06a8.13,8.13,0,0,0-3.48-11,8.4,8.4,0,0,0-7-.52,6.23,6.23,0,0,0-9-5.66,8.17,8.17,0,0,0-2.73-2.45c-4.2-2.3-9.63-.47-12.12,4.08A9.62,9.62,0,0,0,184.12,146Z" transform="translate(-4.34 -98.03)"/><path class="cls-22" d="M182.9,170.22a9.63,9.63,0,0,0,2.9-7.87c-.46-5.17-4.7-9-9.47-8.6a8.11,8.11,0,0,0-4,1.46c-1.76-4.69-6-7.84-10.69-7.43-5.06.45-8.91,4.89-9.4,10.39a11.53,11.53,0,0,0-1.66,0c-5.17.45-9,4.37-8.67,8.74a7.1,7.1,0,0,0,1.95,4.25,6.84,6.84,0,0,0-3.91,6.45c.33,3.78,4.31,6.51,8.89,6.11a9.18,9.18,0,0,0,1.07-.16s0,0,0,.07a8.13,8.13,0,0,0,9,7.19,8.43,8.43,0,0,0,6.16-3.49,6.23,6.23,0,0,0,10.61-.28,8.19,8.19,0,0,0,3.63.52c4.77-.42,8.27-5,7.82-10.12A9.66,9.66,0,0,0,182.9,170.22Z" transform="translate(-4.34 -98.03)"/><path class="cls-23" d="M189.51,146.42a9.65,9.65,0,0,0,2.9-7.88c-.45-5.17-4.69-9-9.47-8.6a8.15,8.15,0,0,0-4,1.47c-1.76-4.7-6-7.84-10.69-7.43-5.05.44-8.9,4.89-9.4,10.39a11.53,11.53,0,0,0-1.66,0c-5.17.45-9.05,4.37-8.66,8.74a7.07,7.07,0,0,0,1.95,4.25,6.84,6.84,0,0,0-3.92,6.45c.34,3.77,4.31,6.51,8.89,6.11a9.35,9.35,0,0,0,1.08-.17s0,0,0,.07a8.14,8.14,0,0,0,9,7.2,8.43,8.43,0,0,0,6.15-3.49,6.23,6.23,0,0,0,10.61-.28,8.19,8.19,0,0,0,3.63.52c4.78-.42,8.28-4.95,7.82-10.12A9.6,9.6,0,0,0,189.51,146.42Z" transform="translate(-4.34 -98.03)"/><path class="cls-22" d="M212.42,167.62a9.63,9.63,0,0,0,2.9-7.87c-.45-5.17-4.69-9-9.47-8.6a8.09,8.09,0,0,0-4,1.47c-1.76-4.7-6-7.85-10.69-7.44-5.05.45-8.9,4.89-9.4,10.39a11.53,11.53,0,0,0-1.66,0c-5.17.45-9.05,4.37-8.66,8.75a7,7,0,0,0,1.95,4.24A6.81,6.81,0,0,0,169.5,175c.33,3.78,4.3,6.51,8.88,6.11a9.36,9.36,0,0,0,1.08-.16v.07a8.14,8.14,0,0,0,9,7.19,8.45,8.45,0,0,0,6.15-3.48,6.24,6.24,0,0,0,10.61-.29,7.91,7.91,0,0,0,3.63.52c4.78-.42,8.28-5,7.82-10.12A9.63,9.63,0,0,0,212.42,167.62Z" transform="translate(-4.34 -98.03)"/><path class="cls-23" d="M205.65,171.33a9.65,9.65,0,0,0-3.22-7.75c-3.85-3.48-9.57-3.43-12.79.12a8.14,8.14,0,0,0-1.93,3.78c-4.48-2.25-9.75-1.67-12.89,1.81-3.41,3.76-3.22,9.63.16,14a10,10,0,0,0-1.21,1.14c-3.49,3.84-3.67,9.35-.42,12.3a7,7,0,0,0,4.31,1.79,6.83,6.83,0,0,0,1.51,7.39c2.81,2.55,7.59,1.86,10.68-1.54.24-.28.47-.57.68-.85l0,0a8.14,8.14,0,0,0,11.48-.82A8.43,8.43,0,0,0,204.2,196a6.23,6.23,0,0,0,7.59-7.42,8.08,8.08,0,0,0,3-2.08c3.22-3.55,2.71-9.25-1.14-12.74A9.63,9.63,0,0,0,205.65,171.33Z" transform="translate(-4.34 -98.03)"/><path class="cls-21" d="M189.88,186.3a9.66,9.66,0,0,0,2.9-7.88c-.46-5.17-4.7-9-9.47-8.6a8.15,8.15,0,0,0-4,1.47c-1.76-4.7-6-7.84-10.69-7.43-5,.44-8.91,4.89-9.4,10.39a10.24,10.24,0,0,0-1.66,0c-5.17.46-9.05,4.37-8.67,8.75a7.12,7.12,0,0,0,2,4.24A6.85,6.85,0,0,0,147,193.7c.34,3.78,4.31,6.52,8.89,6.12.37,0,.72-.1,1.08-.17,0,0,0,0,0,.07a8.13,8.13,0,0,0,9,7.19,8.45,8.45,0,0,0,6.16-3.48,6.23,6.23,0,0,0,10.61-.29,8.05,8.05,0,0,0,3.63.53c4.77-.42,8.27-5,7.82-10.13A9.63,9.63,0,0,0,189.88,186.3Z" transform="translate(-4.34 -98.03)"/><path class="cls-23" d="M161.6,189.27a9.63,9.63,0,0,0,2.89-7.87c-.45-5.17-4.69-9-9.46-8.61a8.12,8.12,0,0,0-4,1.47c-1.76-4.7-6-7.84-10.7-7.43-5,.45-8.9,4.89-9.39,10.39a11.52,11.52,0,0,0-1.66,0c-5.17.45-9.05,4.37-8.67,8.74a7.07,7.07,0,0,0,2,4.25,6.83,6.83,0,0,0-3.91,6.45c.33,3.78,4.31,6.51,8.88,6.11a9.36,9.36,0,0,0,1.08-.16v.07a8.15,8.15,0,0,0,9,7.19,8.43,8.43,0,0,0,6.16-3.49,6.16,6.16,0,0,0,5.76,2.8,6.22,6.22,0,0,0,4.85-3.08,8.19,8.19,0,0,0,3.63.52c4.77-.42,8.27-4.95,7.82-10.12A9.68,9.68,0,0,0,161.6,189.27Z" transform="translate(-4.34 -98.03)"/><path class="cls-21" d="M170.73,147.35a9.69,9.69,0,0,0,2.9-7.88c-.46-5.17-4.7-9-9.47-8.6a8.12,8.12,0,0,0-4,1.47c-1.76-4.7-6-7.85-10.7-7.43-5,.44-8.9,4.89-9.39,10.39a10.23,10.23,0,0,0-1.66,0c-5.18.46-9.05,4.37-8.67,8.75a7.1,7.1,0,0,0,2,4.24,6.84,6.84,0,0,0-3.91,6.45c.33,3.78,4.31,6.52,8.88,6.12.37,0,.73-.1,1.08-.17v.07a8.14,8.14,0,0,0,9,7.19,8.45,8.45,0,0,0,6.16-3.48,6.23,6.23,0,0,0,10.61-.29,8.05,8.05,0,0,0,3.63.53c4.77-.42,8.27-4.95,7.81-10.13A9.62,9.62,0,0,0,170.73,147.35Z" transform="translate(-4.34 -98.03)"/><path class="cls-21" d="M144.1,177.27a9.69,9.69,0,0,0,2.89-7.88c-.46-5.17-4.69-9-9.47-8.6a8.06,8.06,0,0,0-4,1.47c-1.76-4.7-6-7.85-10.69-7.44-5,.45-8.9,4.9-9.4,10.4a10.24,10.24,0,0,0-1.66,0c-5.17.46-9.05,4.37-8.66,8.75a7,7,0,0,0,2,4.24,6.83,6.83,0,0,0-3.91,6.45c.33,3.78,4.3,6.52,8.88,6.12.37,0,.73-.1,1.08-.17v.07a8.14,8.14,0,0,0,9,7.19,8.43,8.43,0,0,0,6.15-3.48,6.23,6.23,0,0,0,10.61-.29,8.05,8.05,0,0,0,3.63.53c4.78-.42,8.28-5,7.82-10.13A9.62,9.62,0,0,0,144.1,177.27Z" transform="translate(-4.34 -98.03)"/><path class="cls-22" d="M154.74,155.29a9.65,9.65,0,0,0,2.89-7.88c-.45-5.17-4.69-9-9.46-8.6a8.09,8.09,0,0,0-4,1.47c-1.75-4.7-6-7.85-10.69-7.44-5.05.45-8.9,4.89-9.39,10.39a11.52,11.52,0,0,0-1.66,0c-5.18.46-9,4.37-8.67,8.75a7,7,0,0,0,2,4.24,6.84,6.84,0,0,0-3.91,6.45c.33,3.78,4.31,6.52,8.88,6.11a9.36,9.36,0,0,0,1.08-.16v.07a8.15,8.15,0,0,0,9,7.19,8.45,8.45,0,0,0,6.16-3.48,6.23,6.23,0,0,0,10.61-.29,7.91,7.91,0,0,0,3.63.52c4.77-.42,8.27-5,7.81-10.12A9.62,9.62,0,0,0,154.74,155.29Z" transform="translate(-4.34 -98.03)"/><path class="cls-24" d="M186,277l-28.21,2.69s-.36-32.84-2.48-43.57c-1.39-7-9.46-27.42-9.46-27.42l6-.53,8,13.77.08-14.48,11.76-1,1.08,16.07,6.31-16.72,7.13-.62s-5.38,21.48-5.39,28C180.76,244.57,186,277,186,277Z" transform="translate(-4.34 -98.03)"/><rect class="cls-21" x="172.03" y="231.93" width="2.89" height="43.61" transform="translate(-25.94 -81.82) rotate(-5.04)"/></g><g id="bananas"><path class="cls-25" d="M72,197.35c3.74-3.14,22.11-8.15,44.54-6.55s48.75,9.56,66.42,29.93c18.25,19.88,23.28,47,22.21,69.39s-8,40.16-11.56,43.52c-4.39,3.72-4.51-7.56-8.75-25.39s-12.38-42-30.62-61.88c-17.68-20.38-40.87-31.33-58-37.45S67.79,201.28,72,197.35Z" transform="translate(-4.34 -98.03)"/><path class="cls-26" d="M73.2,195.59c3-2.49,31.84-7.78,51.11-5s42.26,11.34,58.64,30.14c16.82,18.4,22.81,42.31,23.29,61.68s-8.86,45-11.68,47.7c-3.52,3-2.91-16.84-4.56-33.21-1.72-17.06-8.88-40.46-25.71-58.86-16.37-18.8-39.79-29.68-56.22-33C90.91,201.66,69.86,198.76,73.2,195.59Z" transform="translate(-4.34 -98.03)"/><path class="cls-25" d="M69.9,196.17c2.79-4,19.23-13.62,41.3-17.93s49.56-3.47,71.93,11.6c22.79,14.43,34.72,39.33,39.52,61.21s2.73,40.85.18,45c-3.27,4.73-6.33-6.12-15.07-22.23s-22.9-37.34-45.69-51.77C139.7,207,114.46,202.48,96.31,201S66.88,201.07,69.9,196.17Z" transform="translate(-4.34 -98.03)"/><path class="cls-26" d="M70.62,194.16c2.25-3.19,28.71-15.8,48.05-18.14s43.75-.07,64.46,13.82c21,13.38,33.05,34.9,38.56,53.47s3.17,45.76,1.15,49.1c-2.62,3.78-7.19-15.51-13.05-30.88-6.11-16-19.12-36.74-40.16-50.12-20.7-13.89-46.15-18.29-62.86-17.17C89.31,195.4,68.22,198.09,70.62,194.16Z" transform="translate(-4.34 -98.03)"/><polygon class="cls-26" points="72.71 97.9 68.96 102.84 49.7 95.31 56.27 86.64 72.71 97.9"/></g><g id="bagiette"><path class="cls-27" d="M343.25,277c-50.17,105.52-89.93,189.16-116.94,178.27-34.88-14.07,14.35-96.94,61.6-203.8C339.48,134.83,368,87.8,396.44,99.86,426.78,112.74,393.41,171.49,343.25,277Z" transform="translate(-4.34 -98.03)"/><path class="cls-28" d="M338.1,151.09c.48,4,15.35,5.57,33.21,3.44s31.95-7.14,31.47-11.18-15.35-5.57-33.22-3.43S337.61,147.06,338.1,151.09Z" transform="translate(-4.34 -98.03)"/><path class="cls-29" d="M337.64,152c.49,4,15.36,5.57,33.22,3.43s31.95-7.13,31.47-11.17-15.36-5.57-33.22-3.43S337.16,148,337.64,152Z" transform="translate(-4.34 -98.03)"/><path class="cls-28" d="M322.76,183.36c.48,4,15.35,5.57,33.21,3.43s31.95-7.14,31.47-11.17-15.35-5.57-33.22-3.44S322.27,179.32,322.76,183.36Z" transform="translate(-4.34 -98.03)"/><path class="cls-29" d="M322.31,184.31c.48,4,15.35,5.57,33.21,3.43s32-7.14,31.47-11.17-15.36-5.57-33.22-3.44S321.82,180.27,322.31,184.31Z" transform="translate(-4.34 -98.03)"/><path class="cls-28" d="M307.42,215.62c.48,4,15.35,5.57,33.21,3.43s31.95-7.14,31.47-11.17-15.35-5.57-33.22-3.43S306.94,211.59,307.42,215.62Z" transform="translate(-4.34 -98.03)"/><path class="cls-29" d="M307,216.57c.48,4,15.35,5.57,33.21,3.43s31.95-7.14,31.47-11.17-15.35-5.57-33.22-3.43S306.48,212.54,307,216.57Z" transform="translate(-4.34 -98.03)"/><path class="cls-28" d="M292.08,247.88c.48,4,15.35,5.58,33.21,3.44s31.95-7.14,31.47-11.17-15.35-5.58-33.21-3.44S291.6,243.85,292.08,247.88Z" transform="translate(-4.34 -98.03)"/><path class="cls-29" d="M291.63,248.83c.48,4,15.35,5.58,33.21,3.44s32-7.14,31.47-11.18-15.35-5.57-33.21-3.43S291.15,244.8,291.63,248.83Z" transform="translate(-4.34 -98.03)"/><path class="cls-28" d="M276.74,280.15c.48,4,15.35,5.57,33.22,3.43s31.94-7.14,31.46-11.17-15.35-5.57-33.21-3.43S276.26,276.12,276.74,280.15Z" transform="translate(-4.34 -98.03)"/><path class="cls-29" d="M276.29,281.1c.48,4,15.35,5.57,33.21,3.43s31.95-7.14,31.47-11.17-15.35-5.57-33.21-3.44S275.81,277.07,276.29,281.1Z" transform="translate(-4.34 -98.03)"/><path class="cls-28" d="M261.4,312.41c.48,4,15.35,5.58,33.22,3.44s31.95-7.14,31.46-11.18-15.35-5.56-33.21-3.43S260.92,308.38,261.4,312.41Z" transform="translate(-4.34 -98.03)"/><path class="cls-29" d="M261,313.36c.48,4,15.35,5.57,33.21,3.44s32-7.15,31.47-11.18-15.35-5.57-33.21-3.43S260.47,309.33,261,313.36Z" transform="translate(-4.34 -98.03)"/><path class="cls-28" d="M246.06,344.68c.48,4,15.36,5.57,33.22,3.43s32-7.14,31.47-11.17-15.36-5.57-33.22-3.43S245.58,340.64,246.06,344.68Z" transform="translate(-4.34 -98.03)"/><path class="cls-29" d="M245.61,345.63c.48,4,15.35,5.57,33.22,3.43s31.95-7.14,31.46-11.17-15.35-5.57-33.21-3.43S245.13,341.59,245.61,345.63Z" transform="translate(-4.34 -98.03)"/><path class="cls-28" d="M230.72,376.94c.48,4,15.36,5.57,33.22,3.43s31.95-7.13,31.47-11.17-15.36-5.57-33.22-3.43S230.24,372.91,230.72,376.94Z" transform="translate(-4.34 -98.03)"/><path class="cls-29" d="M230.27,377.89c.48,4,15.36,5.57,33.22,3.43s31.95-7.13,31.47-11.17-15.36-5.57-33.22-3.43S229.79,373.86,230.27,377.89Z" transform="translate(-4.34 -98.03)"/><path class="cls-28" d="M218.42,409.84c.42,3.55,14.59,4.77,31.65,2.73s30.54-6.57,30.11-10.12-14.59-4.78-31.65-2.73S218,406.29,218.42,409.84Z" transform="translate(-4.34 -98.03)"/><path class="cls-29" d="M218,410.68c.42,3.55,14.59,4.77,31.65,2.73s30.54-6.57,30.12-10.12-14.6-4.78-31.66-2.74S217.55,407.13,218,410.68Z" transform="translate(-4.34 -98.03)"/></g><g id="bottle"><path class="cls-30" d="M109.37,267.8a3,3,0,0,0-.31.19H89.81v-9.61c8.71,0,17.44.32,18.89.95C110.62,260.16,109.37,267.8,109.37,267.8Z" transform="translate(-4.34 -98.03)"/><path class="cls-31" d="M89.81,258.38V268H70.57a2.46,2.46,0,0,0-.32-.19s-1.25-7.64.66-8.47C72.38,258.7,81.08,258.38,89.81,258.38Z" transform="translate(-4.34 -98.03)"/><path class="cls-32" d="M106,278.41a89.35,89.35,0,0,0,1.51,8.91H89.81V268h19.25C108.09,268.65,105.34,271.2,106,278.41Z" transform="translate(-4.34 -98.03)"/><path class="cls-33" d="M89.81,268v19.33H72.14a90,90,0,0,0,1.52-8.91c.63-7.21-2.12-9.76-3.09-10.42Z" transform="translate(-4.34 -98.03)"/><path class="cls-34" d="M118.85,351.91c-.76,19.71-1.89,86-1.89,86s2.09,20.79-13.08,23.67a85.7,85.7,0,0,1-14.07.92V287.32h17.68c2.7,13.07,8,33.15,8,33.15S119.6,332.21,118.85,351.91Z" transform="translate(-4.34 -98.03)"/><path class="cls-35" d="M89.81,287.32V462.51a85.81,85.81,0,0,1-14.06-.92c-15.15-2.88-13.07-23.67-13.07-23.67s-1.14-66.3-1.9-86,3.41-31.44,3.41-31.44,5.25-20.08,8-33.15Z" transform="translate(-4.34 -98.03)"/><path class="cls-36" d="M109.48,459.48s-7.59,4.38-7.59-.86c0,0,2.09-110.27,1.33-124.37-1.32-24.58-3.85-35.15-4.73-47-.39-5.18,0-19.48,3.44-19.84,2.73-.29,2.27,14.66,2.64,19.84.83,11.55,3.32,22.72,5.43,45.3C112.05,354.53,111.16,459.48,109.48,459.48Z" transform="translate(-4.34 -98.03)"/><path class="cls-37" d="M107.07,263c0,2-1.31,3.56-2.91,3.56h0c-1.61,0-2.91-1.59-2.91-3.56h0c0-2,1.3-3.55,2.91-3.55h0c1.6,0,2.91,1.59,2.91,3.55Z" transform="translate(-4.34 -98.03)"/></g><g id="radish"><path class="cls-38" d="M318,172.71c-2.2,3.08-11.84,3-17.61,6.49-2.75,1.64-13.13,7.73-13.13,7.73L330,119.78c8.76,5.58-2.48,13.23-2.48,13.23s8.85-1.54,9.66,3.08c1,5.46-10.75,11.28-10.75,11.28s4.38,1.12,4.8,9.87c.28,6-15.14,7-15.14,7S321,168.49,318,172.71Z" transform="translate(-4.34 -98.03)"/><path class="cls-39" d="M330,119.78l-42.79,67.15s1.14-12,1.47-15.16c.68-6.68-3.42-15.41-1.57-18.71,2.55-4.53,8.42-1.87,8.42-1.87s-5.56-14.42,0-16.69c8.11-3.33,11,.17,11,.17s.33-13.08,5.67-14.51c4.54-1.21,6.87,7.45,6.87,7.45S321.32,114.24,330,119.78Z" transform="translate(-4.34 -98.03)"/><path class="cls-38" d="M304.07,157.82c0,3.79-7.84,9.39-10.51,15.56-1.27,2.94-6.14,13.94-6.14,13.94l-4.51-79.49c10.38-.59,5.73,12.18,5.73,12.18s6.28-6.42,9.64-3.14c4,3.86-2.14,15.43-2.14,15.43s4.21-1.65,9.66,5.21c3.73,4.7-8.17,14.57-8.17,14.57S304.06,152.62,304.07,157.82Z" transform="translate(-4.34 -98.03)"/><path class="cls-39" d="M282.91,107.83l4.51,79.49s-6.07-10.39-7.66-13.16c-3.35-5.82-11.78-10.5-12.2-14.27-.59-5.16,5.74-6.43,5.74-6.43s-12.94-8.46-9.77-13.55c4.65-7.44,9-6.27,9-6.27s-7.37-10.8-3.87-15.09c3-3.63,9.93,2,9.93,2S272.62,108.41,282.91,107.83Z" transform="translate(-4.34 -98.03)"/><path class="cls-38" d="M313.25,201.32c-3.26-.1-7.91-7.46-13.16-10.09-2.5-1.25-11.88-6-11.88-6l68.63-1.9c.27,9.55-10.63,4.92-10.63,4.92s5.38,5.94,2.48,8.94c-3.42,3.54-13.25-2.4-13.25-2.4s1.32,3.91-4.72,8.72c-4.14,3.3-12.36-7.91-12.36-7.91S317.73,201.46,313.25,201.32Z" transform="translate(-4.34 -98.03)"/><path class="cls-39" d="M356.84,183.3l-68.63,1.9s9.1-5.28,11.53-6.67c5.09-2.91,9.33-10.52,12.58-10.8,4.47-.39,5.41,5.45,5.41,5.45s7.6-11.64,11.91-8.58c6.3,4.47,5.2,8.45,5.2,8.45s9.48-6.47,13.1-3.13c3.06,2.83-2,9.06-2,9.06S356.58,173.83,356.84,183.3Z" transform="translate(-4.34 -98.03)"/><path class="cls-40" d="M297.77,214.06c7.24-9.94,3.59-24.92-8.15-33.47s-27.12-7.44-34.35,2.49c-5.63,7.73-3.18,17.58,1.55,26.94,1.13,2.25,3,5.38,2.81,7.28-.31,2.93-4.81,9.15-4.81,9.15s5.16-3.64,9.09-6.79c1.32-1.06,4.16.21,7.18,1C281.49,223.26,292,221.93,297.77,214.06Z" transform="translate(-4.34 -98.03)"/><path class="cls-41" d="M294.49,214.93c-5.34,7.34-16.7,8.16-25.37,1.85s-11.36-17.38-6-24.72,16.71-8.16,25.37-1.84S299.84,207.6,294.49,214.93Z" transform="translate(-4.34 -98.03)"/><path class="cls-42" d="M275.08,179.87c1.83,3.51-4.86.87-8.45,2.86-2.65,1.48-4.72,8.48-6.55,5s.05-8.1,4.19-10.27S273.25,176.37,275.08,179.87Z" transform="translate(-4.34 -98.03)"/></g><g id="jam"><path class="cls-17" d="M78,381l-3,64.8c-.32,6.74-4.43,12.38-9.68,13.95C62,455.47,54,452.47,44.6,452.47s-17.37,3-20.66,7.21c-5.21-1.61-9.27-7.23-9.58-13.92l-3-64.8a14.4,14.4,0,0,1,.32-3.86h66A14.4,14.4,0,0,1,78,381Z" transform="translate(-4.34 -98.03)"/><path class="cls-43" d="M80.92,384.32v65a14.45,14.45,0,0,1-14.45,14.45h-43A14.46,14.46,0,0,1,9,449.32v-65a14.25,14.25,0,0,1,1.94-7.22,13.63,13.63,0,0,1,1.23-1.8,11.68,11.68,0,0,0-.52,1.8,14.4,14.4,0,0,0-.32,3.86l3,64.8c.31,6.69,4.37,12.31,9.58,13.92,3.29-4.22,11.28-7.21,20.66-7.21s17.41,3,20.68,7.24c5.25-1.57,9.36-7.21,9.68-13.95L78,381a14.4,14.4,0,0,0-.32-3.86,13.55,13.55,0,0,0-1-3.05A13.9,13.9,0,0,1,79,377.1,14.31,14.31,0,0,1,80.92,384.32Z" transform="translate(-4.34 -98.03)"/><path class="cls-17" d="M59.65,459.76H29.55c1.74-2.54,7.82-4.42,15.05-4.42S57.91,457.22,59.65,459.76Z" transform="translate(-4.34 -98.03)"/><path class="cls-44" d="M50.17,457.45c0,.49-1.69.9-3.76.9s-3.77-.41-3.77-.9,1.69-.91,3.77-.91S50.17,457,50.17,457.45Z" transform="translate(-4.34 -98.03)"/><path class="cls-45" d="M75.29,421.63c-1.66,57.94-22.87,20.77-32.19,22.88C26,448.36,14,474.4,16.44,423.5c.55-11.32-14.87-62.35,20.94-32,10.9,9.25,31-23.47,37.61-1.5C76.75,395.86,75.72,407,75.29,421.63Z" transform="translate(-4.34 -98.03)"/><path class="cls-46" d="M72.38,419.44c-2,53.83-28.23-2-35.91,18.75-4.27,11.55-21.67,19-19.25-16.43.54-7.88-10.2-54.59,19-20.29C51.52,419.53,75,347.79,72.38,419.44Z" transform="translate(-4.34 -98.03)"/><path class="cls-47" d="M69.67,419.11C67.9,462.5,41,414.41,35,430.32c-3.54,9.34-17.41,19.21-15.22-9.34C20.25,414.63,9.63,379.5,35,407.9,55.31,430.69,72,361.37,69.67,419.11Z" transform="translate(-4.34 -98.03)"/><path class="cls-48" d="M63.83,419.52c-1.45,22.23-17.73-16.84-28.38,5.74-2.27,4.82-14.24,9.84-12.45-4.78.4-3.26-8.28-21.25,12.45-6.7C52.08,425.46,65.76,389.94,63.83,419.52Z" transform="translate(-4.34 -98.03)"/><path class="cls-49" d="M75.23,391.69c0,2.88-2.18,6.58-2.18,6.58s.16-3.27.16-6.15-1.37-4.3-.16-4.3S75.23,388.8,75.23,391.69Z" transform="translate(-4.34 -98.03)"/><path class="cls-49" d="M24.18,451.5c0,2.61-4.18,4.53-5.39,3.47s-2.55-4.92-2.73-7.22c-.16-2.13,1.38-7.95,2.84-7.86,2.14.14.9,6.55,1.67,8.3C21.53,450.36,24.14,449,24.18,451.5Z" transform="translate(-4.34 -98.03)"/><path class="cls-50" d="M26,383a12.53,12.53,0,0,0-5.87-2.71,4.34,4.34,0,0,0-3,.63,5.69,5.69,0,0,0-1.9,2.39,19.13,19.13,0,0,0-1.38,6.27,59.86,59.86,0,0,0-.1,6.58c.05,4.43.08,8.86-.06,13.29a105.21,105.21,0,0,1-1,13.27c.14-2.21.13-4.42.11-6.63s0-4.43-.07-6.64l-.21-13.27a55.63,55.63,0,0,1,.17-6.7,18.39,18.39,0,0,1,1.69-6.58,6.46,6.46,0,0,1,2.32-2.63,5,5,0,0,1,3.44-.56A9.64,9.64,0,0,1,23.33,381,13.74,13.74,0,0,1,26,383Z" transform="translate(-4.34 -98.03)"/><path class="cls-51" d="M73.85,360.54v1.51H16.07v-1.51a6,6,0,0,1,6-6H67.83A6,6,0,0,1,73.85,360.54Z" transform="translate(-4.34 -98.03)"/><path class="cls-52" d="M73.85,362.05v1.5a6,6,0,0,1-6,6H22.09a6,6,0,0,1-6-6v-1.5Z" transform="translate(-4.34 -98.03)"/><path class="cls-51" d="M85.59,376.49s-6.32,9.94-18.66,7.83c-1.68-.29-2.35-4.68-4.82-4.82-2.72-.15-4.81,4.22-12.33,4.47-6,.2-11.11-4.93-12.34-2.06-1.81,4.22-8.46,3-12,2.11-1.83-.45-3-6-6.62-3.61-7.17,4.78-14.44-3.62-14.44-3.62l13.24-9.92,54.31-.31Z" transform="translate(-4.34 -98.03)"/><rect class="cls-53" x="11.89" y="267.63" width="57.48" height="2.41"/><path class="cls-54" d="M25.56,377.74c.24-3.28,2.49-7.72,4.71-7.56s3.78,4.89,3.54,8.17-2.15,3.88-4.42,3.71S25.32,381,25.56,377.74Z" transform="translate(-4.34 -98.03)"/><path class="cls-54" d="M12.33,372.39c2.11-2.52,6.53-4.82,8.23-3.39s.22,6.18-1.9,8.7-4,1.9-5.75.43S10.21,374.91,12.33,372.39Z" transform="translate(-4.34 -98.03)"/><path class="cls-54" d="M66.77,379c-1.64-2.86-2.18-7.67-.32-8.91,2.35-1.55,8.72,1.64,10.35,4.5s.48,5-1.51,6.17S68.4,381.8,66.77,379Z" transform="translate(-4.34 -98.03)"/><path class="cls-54" d="M44.56,378.58c-.81-3.19,2.07-8.65,4.58-9.29s7.63,2.83,8.43,6-1.93,4.64-5.52,5.55S45.36,381.77,44.56,378.58Z" transform="translate(-4.34 -98.03)"/><path class="cls-55" d="M73.49,446.81a.8.8,0,0,0,.8.81h0a.81.81,0,0,0,.81-.81V402.28a.81.81,0,0,0-.81-.81h0a.8.8,0,0,0-.8.81Z" transform="translate(-4.34 -98.03)"/><path class="cls-53" d="M55.66,364.73a32.08,32.08,0,0,0-8.41,1.79,30.9,30.9,0,0,0-4.84-7.28c-2.37-2.56-3.44-2-3.74-1.71s-.34.73,2,3.29a63.31,63.31,0,0,0,5.91,5.67,14,14,0,0,0-6.83,9.68l.93.17a13.07,13.07,0,0,1,6-8.8,14,14,0,0,0,3.3,11l.72-.63a13.05,13.05,0,0,1-3-10.85,65.92,65.92,0,0,0,8,0c3.5-.18,3.78-.53,3.76-.94S59.15,364.55,55.66,364.73Z" transform="translate(-4.34 -98.03)"/><path class="cls-49" d="M63,424.7a127.7,127.7,0,0,1-36,0V406.84a127.7,127.7,0,0,0,36,0Z" transform="translate(-4.34 -98.03)"/></g><g id="bag"><path class="cls-56" d="M243.38,131.19V116.7c-16.2,1.32-31.15,10.44-42.48,26-11.51,15.83-18,36.63-18.25,58.74l-75.77,17.16,14.91,46.83,11.51,70.05-11.51,58.85v64.45l68.35-3.21,53.24,3V201H197.07C197.77,164.14,217.94,134.12,243.38,131.19Z" transform="translate(-4.34 -98.03)"/><path class="cls-57" d="M378.88,208.2l-67.57-7c-.33-22-6.77-42.73-18.24-58.5-12.28-16.88-28.82-26.18-46.59-26.18-1.38,0-2.74.06-4.1.17v14.49a34.85,34.85,0,0,1,4.1-.24c27.35,0,49.68,31.23,50.42,70.05H242.38V458.56l4.1.23,64.35-3.21,61.34,3.21V394.34l6.71-63.65-12.81-68.85Z" transform="translate(-4.34 -98.03)"/><polygon class="cls-57" points="202.19 316.79 117.96 132.72 150.97 138.08 202.19 316.79"/><polygon class="cls-58" points="305.68 357.82 345.86 146.66 370.3 120.38 305.68 357.82"/></g><polygon class="cls-57" id="bagShape" points="160 300.14 200.08 352.59 164.09 355.14 160 300.14"/><g id="apple"><path class="cls-13" d="M146.9,401.22c-9,5.3-20.46,2.45-20.46,2.45l32.47-19.21S155.87,395.91,146.9,401.22Z" transform="translate(-4.34 -98.03)"/><path class="cls-14" d="M158.91,384.46l-32.47,19.21s3-11.46,12-16.76S158.91,384.46,158.91,384.46Z" transform="translate(-4.34 -98.03)"/><path class="cls-15" d="M124.25,388.9a18.74,18.74,0,0,1,1.36,1.78,19.32,19.32,0,0,1,1.1,1.86,14.76,14.76,0,0,1,1.42,4.08,9.81,9.81,0,0,1-.15,4.25,9.33,9.33,0,0,1-2,3.6,9,9,0,0,0,1.15-3.73,8.44,8.44,0,0,0-.61-3.7,12.62,12.62,0,0,0-1.91-3.19,16.51,16.51,0,0,0-1.25-1.39,12.64,12.64,0,0,0-1.35-1.17Z" transform="translate(-4.34 -98.03)"/><path class="cls-59" d="M166.36,430.9c0,15.71-7.07,26.85-14.13,32.37s-42.13,5.53-49.21,0a37.8,37.8,0,0,1-10.9-13.72A39.89,39.89,0,0,0,117,458.29c22.37,0,40.5-18.5,40.5-41.32a41.85,41.85,0,0,0-2.39-14,14.35,14.35,0,0,1,2.23,1.43C164.45,409.92,166.36,417,166.36,430.9Z" transform="translate(-4.34 -98.03)"/><path class="cls-60" d="M157.54,417c0,22.82-18.13,41.32-40.5,41.32a39.89,39.89,0,0,1-24.92-8.74,42.55,42.55,0,0,1-3.85-16.18,32.42,32.42,0,0,0,14.4,3.36c18.23,0,33-15.08,33-33.69,0-1,0-1.9-.12-2.84,7.22-.13,14.36,0,19.58,2.76A41.85,41.85,0,0,1,157.54,417Z" transform="translate(-4.34 -98.03)"/><path class="cls-21" d="M135.69,403c0,18.61-14.79,33.69-33,33.69a32.42,32.42,0,0,1-14.4-3.36c0-.81-.06-1.63-.06-2.47.09-2.66.25-5.1.51-7.35,1,.1,2.1.16,3.17.16a33.11,33.11,0,0,0,31.45-23.44c1.32.05,2.64.08,3.94.08,2.71,0,5.51-.1,8.29-.15C135.65,401.14,135.69,402.09,135.69,403Z" transform="translate(-4.34 -98.03)"/><path class="cls-61" d="M123.34,400.27a33.11,33.11,0,0,1-31.45,23.44c-1.07,0-2.12-.06-3.17-.16,1-9.17,3.69-15.17,9.37-19.6C104.31,399.09,113.81,400,123.34,400.27Z" transform="translate(-4.34 -98.03)"/></g><g id="cheese"><path class="cls-62" d="M459.79,396a4.09,4.09,0,0,0-.28,1.84c.19,2.7,2.9,4.72,6.05,4.5a6.1,6.1,0,0,0,4.14-2,.16.16,0,0,0,0-.08l.32,4.38a5.7,5.7,0,0,0-5,3.45,4,4,0,0,0-.28,1.83c.19,2.68,2.83,4.68,5.93,4.5l1.83,25.73-.4,0c-3.72.26-6.77,2.27-7.89,4.88a5.51,5.51,0,0,0-.45,2.57c.27,3.76,4.43,6.54,9.31,6.19l.4,0,1.21,16.92-100.6-.29c-13.74-1.62-21.43-19.54-21.78-24.43l-5.66-40.07c-.35-4.9,2.57-9.1,6.48-9.37l115.69-8.24.4,5.58a6.07,6.07,0,0,0-4.41-1.38A5.77,5.77,0,0,0,459.79,396Z" transform="translate(-4.34 -98.03)"/><path class="cls-63" d="M468.6,384.37c-.17-2.41-76.82-8.25-76.82-8.25-8.19.59-23.45,4.9-27.66,8l-20.27,9.91C344,396.46,468.6,384.37,468.6,384.37Z" transform="translate(-4.34 -98.03)"/><path class="cls-64" d="M346.71,405.91,352.37,446c.35,4.89,8,22.81,21.78,24.43l100.6.29.25,3.56-106.14-.91C355,471.51,347.17,452,346.79,446.68l-5.92-43.54c-.38-5.32,2.52-9.86,6.47-10.14l121.26-8.63.28,3.93-115.69,8.24C349.28,396.81,346.36,401,346.71,405.91Z" transform="translate(-4.34 -98.03)"/><path class="cls-65" d="M411.24,417.09c.27,3.76-3.47,7.1-8.35,7.45s-9-2.43-9.31-6.2,3.47-7.1,8.34-7.45S411,413.32,411.24,417.09Z" transform="translate(-4.34 -98.03)"/><path class="cls-66" d="M412.7,415c.27,3.76-3.47,7.1-8.34,7.45s-9.05-2.43-9.32-6.2,3.47-7.1,8.35-7.45S412.43,411.2,412.7,415Z" transform="translate(-4.34 -98.03)"/><path class="cls-65" d="M473.14,453.82l.4,0,.14,1.84a11.76,11.76,0,0,1-2,.32c-4.88.35-9.05-2.43-9.31-6.19a6,6,0,0,1,1.91-4.69,5.51,5.51,0,0,0-.45,2.57C464.1,451.39,468.26,454.17,473.14,453.82Z" transform="translate(-4.34 -98.03)"/><path class="cls-65" d="M442.07,442.32c.27,3.77-3.46,7.1-8.34,7.45s-9.05-2.43-9.31-6.19,3.46-7.11,8.34-7.45S441.81,438.55,442.07,442.32Z" transform="translate(-4.34 -98.03)"/><path class="cls-66" d="M443.54,440.2c.26,3.77-3.47,7.1-8.35,7.45s-9-2.43-9.31-6.19,3.47-7.11,8.34-7.46S443.27,436.43,443.54,440.2Z" transform="translate(-4.34 -98.03)"/><path class="cls-65" d="M448.82,411.49c.35,4.93-2.16,9.13-5.62,9.37s-6.54-3.55-6.89-8.48,2.17-9.12,5.62-9.36S448.47,406.57,448.82,411.49Z" transform="translate(-4.34 -98.03)"/><path class="cls-66" d="M449.77,408.79c.35,4.92-2.16,9.12-5.62,9.37s-6.54-3.55-6.89-8.48,2.17-9.12,5.62-9.37S449.42,403.86,449.77,408.79Z" transform="translate(-4.34 -98.03)"/><path class="cls-65" d="M416.47,452.86c.23,3.19-4.86,6.15-11.36,6.61s-11.95-1.75-12.18-4.93,4.86-6.15,11.36-6.61S416.24,449.67,416.47,452.86Z" transform="translate(-4.34 -98.03)"/><path class="cls-66" d="M418.49,451c.23,3.19-4.86,6.15-11.36,6.61s-11.95-1.74-12.18-4.93,4.86-6.15,11.36-6.61S418.27,447.82,418.49,451Z" transform="translate(-4.34 -98.03)"/><path class="cls-65" d="M384.1,447.17c.2,2.71-2.2,5.08-5.35,5.3s-5.86-1.78-6.05-4.49,2.2-5.08,5.35-5.3S383.91,444.46,384.1,447.17Z" transform="translate(-4.34 -98.03)"/><path class="cls-66" d="M385,445.66c.19,2.7-2.21,5.08-5.36,5.3s-5.85-1.79-6.05-4.49,2.21-5.08,5.36-5.31S384.84,443,385,445.66Z" transform="translate(-4.34 -98.03)"/><path class="cls-65" d="M392.59,430.43c.19,2.71-2.2,5.08-5.35,5.31s-5.86-1.79-6.05-4.5,2.2-5.08,5.35-5.3S392.4,427.73,392.59,430.43Z" transform="translate(-4.34 -98.03)"/><path class="cls-66" d="M393.53,428.92c.19,2.7-2.21,5.08-5.36,5.3s-5.86-1.79-6.05-4.49,2.21-5.08,5.35-5.3S393.33,426.21,393.53,428.92Z" transform="translate(-4.34 -98.03)"/><path class="cls-65" d="M416,435.63c.19,2.7-2.2,5.08-5.35,5.3s-5.86-1.79-6.05-4.49,2.2-5.08,5.35-5.31S415.76,432.92,416,435.63Z" transform="translate(-4.34 -98.03)"/><path class="cls-66" d="M416.89,434.11c.19,2.71-2.21,5.08-5.36,5.31s-5.86-1.79-6-4.5,2.21-5.08,5.36-5.3S416.69,431.41,416.89,434.11Z" transform="translate(-4.34 -98.03)"/><path class="cls-65" d="M465.56,402.3a6.1,6.1,0,0,0,4.14-2,5.76,5.76,0,0,1-5.08,3.47c-3.14.22-5.85-1.79-6.05-4.49a4.56,4.56,0,0,1,1.22-3.36,4.09,4.09,0,0,0-.28,1.84C459.7,400.5,462.41,402.52,465.56,402.3Z" transform="translate(-4.34 -98.03)"/><path class="cls-66" d="M469.7,400.34a.16.16,0,0,0,0-.08v.05Z" transform="translate(-4.34 -98.03)"/><path class="cls-65" d="M470.74,414.42l.1,1.38a6.58,6.58,0,0,1-.92.13c-3.14.23-5.85-1.78-6-4.49a4.47,4.47,0,0,1,1.21-3.35,4,4,0,0,0-.28,1.83C465,412.6,467.64,414.6,470.74,414.42Z" transform="translate(-4.34 -98.03)"/><path class="cls-65" d="M460.44,426c.19,2.71-2.2,5.08-5.35,5.31s-5.86-1.79-6-4.49,2.2-5.08,5.35-5.31S460.25,423.3,460.44,426Z" transform="translate(-4.34 -98.03)"/><path class="cls-66" d="M461.38,424.49c.19,2.71-2.21,5.08-5.36,5.3s-5.86-1.78-6-4.49,2.21-5.08,5.36-5.3S461.18,421.79,461.38,424.49Z" transform="translate(-4.34 -98.03)"/><path class="cls-65" d="M377.46,414.93c.28,4.06-3.31,7.62-8,8s-8.78-2.68-9.07-6.74,3.31-7.62,8-8S377.17,410.87,377.46,414.93Z" transform="translate(-4.34 -98.03)"/><path class="cls-66" d="M378.86,412.66c.28,4.06-3.31,7.62-8,8s-8.79-2.69-9.08-6.74,3.3-7.62,8-8S378.57,408.6,378.86,412.66Z" transform="translate(-4.34 -98.03)"/></g></g></g></svg>