<svg id="Layer_3" data-name="Layer 3" xmlns="http://www.w3.org/2000/svg" viewBox="0 0 335.32 372.47"><defs><style>.cls-1{fill:#50371d;}.cls-1,.cls-10,.cls-11,.cls-12,.cls-13,.cls-14,.cls-15,.cls-16,.cls-17,.cls-18,.cls-19,.cls-2,.cls-20,.cls-21,.cls-22,.cls-23,.cls-24,.cls-25,.cls-26,.cls-27,.cls-28,.cls-29,.cls-3,.cls-30,.cls-31,.cls-32,.cls-33,.cls-34,.cls-35,.cls-36,.cls-37,.cls-38,.cls-39,.cls-4,.cls-40,.cls-41,.cls-42,.cls-43,.cls-44,.cls-45,.cls-46,.cls-47,.cls-5,.cls-6,.cls-7,.cls-8,.cls-9{fill-rule:evenodd;}.cls-2{fill:#ebe0e0;}.cls-3{fill:#fde5af;}.cls-4{fill:#fde8b5;}.cls-5{fill:#fce5ad;}.cls-6{fill:#f9e2ad;}.cls-7{fill:#6a503b;}.cls-8{fill:#f2ddac;}.cls-9{fill:#ebd39f;}.cls-10{fill:#6a4f32;}.cls-11{fill:#674c36;}.cls-12{fill:#694c2f;}.cls-13{fill:#563d24;}.cls-14{fill:#5c432c;}.cls-15{fill:#664d37;}.cls-16{fill:#634933;}.cls-17{fill:#6c523e;}.cls-18{fill:#6a4f39;}.cls-19{fill:#5d442d;}.cls-20{fill:#f2e2e3;}.cls-21{fill:#a99383;}.cls-22{fill:#765c48;}.cls-23{fill:#705641;}.cls-24{fill:#876d5a;}.cls-25{fill:#795f4b;}.cls-26{fill:#7b614d;}.cls-27{fill:#5f462f;}.cls-28{fill:#866b59;}.cls-29{fill:#7e6551;}.cls-30{fill:#7c624f;}.cls-31{fill:#7a5f4b;}.cls-32{fill:#826956;}.cls-33{fill:#9f8878;}.cls-34{fill:#5a4028;}.cls-35{fill:#977e6e;}.cls-36{fill:#897160;}.cls-37{fill:#ae998d;}.cls-38{fill:#735a47;}.cls-39{fill:#6b5033;}.cls-40{fill:#7a5e3f;}.cls-41{fill:#7e6343;}.cls-42{fill:#957753;}.cls-43{fill:#61462a;}.cls-44{fill:#8d724f;}.cls-45{fill:#715537;}.cls-46{fill:#947a57;}.cls-47{fill:#7a5d3e;}</style></defs><title>garlicIcon</title><path class="cls-1" d="M790.52,739.92c-.23-3.3-.31-6.69-.69-10.07-1.39-12.07-1.16-24.14-.93-36.21a8.23,8.23,0,0,1,4.69-7.61,51.74,51.74,0,0,1,7.23-3.31c7.61-2.22,15.45-3.76,23.52-3.46a15.76,15.76,0,0,1,9.38,3.23c1.93,1.46,3.85,2.92,5.69,4.54,5.08,4.53,6.08,10.22,2.85,16.22a17.37,17.37,0,0,0-1.92,6.15,419.49,419.49,0,0,0-2.16,52.12,14.05,14.05,0,0,0,4.69,10.15c11.15,10.84,23.07,20.6,37,27.68,18.22,9.22,34.67,21,50.28,34.06,11.3,9.45,16.37,21.67,18.3,35.82,3.38,24.68-1.46,48-11.07,70.57a106.22,106.22,0,0,1-5.54,10.38,74.51,74.51,0,0,1,10.07,7.23c7.08,5.84,9.61,13.61,9.84,22.37v3.92c3.85.31,7.23-1,10.61-1.84,8.15-2.08,16.38-4.08,24-8a10.49,10.49,0,0,1,11.61.92c4.61,3.46,8.91,7.31,13.22,11.23,1.15,1.08,2.31,3,2.23,4.46-.16,3.92,1.54,7.45,2.15,11.14.62,3.54-.61,6.77-2.23,9.69a77,77,0,0,1-21.06,24.53c-12,9-25.6,13-40.21,15.22-14.15,2.07-27.29-1.15-40.52-5.23-4.61-1.38-8.68-4.07-12.6-7-1-.69-2.16-1.46-3.23-.53-4.38,3.53-9.76,2.46-14.61,3.15-6.3.84-12.61-.15-18.76-1.31-8.53-1.61-15.68-6.07-21.83-12.14-1.15-1.24-2.38-2.46-3.46-3.7-1.38-1.76-2.54-3-5.31-1.69-3.61,1.69-7.68.69-11.45,0-10.15-1.69-19.6-5.15-27.29-12.3-2.16-2.07-4.38-3.92-7.69-2.84-7.84-1.31-15.76-2.77-22.52-7.31a33,33,0,0,0-21.15-5.92c-6.22.47-11.84-1.45-17.14-4.69-17.45-10.68-30.06-25.67-38.29-44.28-2.53-5.69-3.69-11.91-4.61-18.14-1.77-11.84-.84-23.6.54-35.37.31-2.68.54-5.14-.31-7.76-2.77-8.3-1.23-16.22,2.15-24,.93-2,1.93-3.92,2.77-5.92,4.77-10.68,12.46-18.6,22.14-25.21,13.46-9.07,28-16.14,42.44-23.29,1.54-.7,2.92-1.62,4.38-2.46,5.15-4.31,11.15-7.39,16.45-11.61,12.15-9.77,18.07-22.6,18.84-38,.23-4.46.77-9.07-.46-13.61Z" transform="translate(-680.38 -679.22)"/><path class="cls-2" d="M688.73,917.43c-1.07-1.69-1.07-3.69-1.15-5.61a181.32,181.32,0,0,1,1.07-30.29c.47-3.92,2.08-7.46,3.23-11.15,2.23-7.68,6.15-14.68,10.61-21.21,2.77-4.08,6.77-6.85,10.77-9.61,12.53-8.69,26.37-15.07,40.13-21.45,10.84-5,20.6-11.61,30.13-18.53,5-3.54,8.15-8.84,11.07-14.15.46-.84.77-1.77,1.16-2.61,5-10.69,7.45-21.68,6.53-33.67-.85-11.61-2.08-23-5.46-34.14a80.32,80.32,0,0,1-3.61-14.76,16.16,16.16,0,0,1,0-5.76c.38-1.39,1.46-1.77,2.77-1.92,3.07,1,5.45,3.45,8.61,4.45a24,24,0,0,0,3.38,1.16c.61.07,1.15.07,1.69.15a6,6,0,0,0-1.61-.38c-3.23-2-8.77-1-8.92-6.92a165,165,0,0,1,22.29-1.92,16.46,16.46,0,0,1,11.92,4.07c3,2.54,4,5.38,3.07,8.92-1,4-2.15,7.92-3.15,11.91-2.46,9.84-5.15,19.61-5.61,29.83a156.89,156.89,0,0,0,.23,21.68,22.51,22.51,0,0,0,6.54,14.15c12.37,12.37,25.52,23.6,41.2,31.52,16.45,8.38,31.37,18.91,45.82,30.29,11.46,9.07,16.45,20.91,16.91,35.21.39,12.14.62,24.21-3,35.9-2.31,7.38-5,14.61-7.61,21.83a23.16,23.16,0,0,1-4.38,7.46c-.93,1.08-2,2.38-2.08,3.69-.39,3.85-2.92,5.84-5.69,7.92a43.31,43.31,0,0,0-6.07,5.15c-7.46,7.84-16.84,12.84-26.07,18.07a5.7,5.7,0,0,1-2,.3,20.48,20.48,0,0,1-.92-11.3,8.15,8.15,0,0,0,0-4.3c-.23-.62-.46-.85-1.07-.77-.23.08-.54.08-.62.23-.77,1.46-1.46,2.92-2.3,4.54-6.62-3.62-13.84-4.54-20.92-5.85-10.91-2-22-3.23-33-4.77a230,230,0,0,1-35.28-7.53,54.46,54.46,0,0,0-9.15-2.15c-4.23-.62-5.15-.08-6.54,3.77-2.92,8.07-4.15,16.37-2.53,24.91,1.07,5.68,2.38,11.37,5.3,16.29-1,1.77-2.08.77-3.07.39-4.85-1.69-8.77-5.08-13.23-7.46-1.15-.61-1.84-2.15-2.69-3.3-7.07-8.15-6.84-18.61-8.38-28.37-.69-4.62-2-9.31-1.69-14.15,0-.92-.08-1.92,0-2.84-.46,4.61.38,9.07,1.38,13.45.77,9.38,2,18.6,5.39,27.45,2.23,5.84,1.69,6.53-4.77,6.53-3.08,0-6.23.69-9.3-.54-6.31-1.23-11.46-4.61-16.45-8.38-11.46-8.53-19.3-19.91-25.45-32.52-2.54-5.15-5.15-10.3-6.54-15.91-.61-2.38-1.3-4.61-.92-7.07,2.08-1.93,4.15-3.85,3.92-7.39-2.46,2-1.54,5.62-3.92,7.46Z" transform="translate(-680.38 -679.22)"/><path class="cls-3" d="M919.44,1034.52c-10.07-2.08-18.22-7.15-23.83-16-2.54-4.08-5-8.23-7.61-12.3-2.46-3.69-2.31-7.54-1.92-11.53,2.77-.54,4.76.38,6.84.84,7.84,1.69,15.76,1.85,23.76,1.54,8.68-.23,17.29-.39,25.9.84,4.92.7,9.69-.46,14.3-1.53,7.31-1.69,14.46-3.77,21.61-5.85,2.15-.61,4.15-1.23,6.38-.76,5,1.92,10.68,2.92,12.68,9.07,1.31,2,2.54,4,3.77,6a4.28,4.28,0,0,1-.08,5.23c-2.3,3.23-4.38,6.69-7.69,9.07-.69-.07-1.53-.46-2.07-.15-20,11.22-42.44,7.23-63.73,10.38-3.92.54-6.85,1.3-8.31,5.15Z" transform="translate(-680.38 -679.22)"/><path class="cls-3" d="M772.91,958.41c.23-11.15.23-10.53,10.54-6.3,16.53,6.76,33.74,11.37,50.73,16.6,6.46,2,13.23,2.69,19.92,3.92,3,.54,3.46,1,2.3,3.62a28.33,28.33,0,0,0-2.46,9.07c-.15,1.69-1.3,2.46-2.84,2.76-2.08.47-4.31.7-6.38,1.23a40.6,40.6,0,0,0-6.08,2.16c-5.15,2.38-8.68,6-8.68,12.07-.08,1.46-.16,2.92-.23,4.38a2.08,2.08,0,0,1-2.39,2.08,37.55,37.55,0,0,1-12.07-1.77,171.79,171.79,0,0,1-16.14-6.46,17.09,17.09,0,0,1-6.38-4.61,9.86,9.86,0,0,0-2.15-1.85c-12.15-7.69-16.61-19.53-17.69-33.13v-3.77Z" transform="translate(-680.38 -679.22)"/><path class="cls-3" d="M886,1020.45c1.92,7.38,1.92,7.46-5.53,7.61-6.31.08-12.53.15-18.68-1.54-8.38-2.23-14.61-7.22-19.38-14.3a8.75,8.75,0,0,1-1.54-5.45c0-2.54.39-3.31,3.15-4,4.46-1,9-1.77,13.46-2.85,7.69-1.92,15.45-3.76,22.22-8.38.54-.38,1.38-.15,2.07-.23l-.15-.15c-2,5.3-1.77,10.61-.16,16,1.08,3.38,2.08,6.77,3.08,10.15-3.38,2.77,1.39,1.92,1.46,3.15Z" transform="translate(-680.38 -679.22)"/><path class="cls-4" d="M919.44,1034.52c-1.69-6.07-2.46-7.07,4.92-7,1.23.08,2.39,0,3.62,0,10.37.47,20.45-1.61,30.44-3.61a11.64,11.64,0,0,1,4.92.08c8.46,1.92,16.07-.46,23.22-4.92a12.1,12.1,0,0,0,1.53-1.39c.93-.84,1.85-1.69,3.16-1.15a4.3,4.3,0,0,1,2.3,2.61c-5.53,7.46-13.37,11.38-21.83,14.38-7.07,2.46-14.53,3.23-21.83,4.38-10.54,1.69-20.53-.31-30.45-3.38Z" transform="translate(-680.38 -679.22)"/><path class="cls-5" d="M881.77,991.31c.16-.38.16-1.07.46-1.23,8.23-5.69,14.69-13.22,21.68-20.22a30.22,30.22,0,0,0,3-3.61c4.38,5.92,10,9.07,16.15,11.61a77.28,77.28,0,0,1,15.22,7.92c-.77,1.69-2.16,1.07-3.15,1.31-1.16.23-2.39.3-3.62.53-8.76,1.39-17.53,3.16-26.44,4.23-6.38.77-12.92.69-19.45.85-1.31,0-2.62-1-3.92-1.54-.08,0,.07.15.07.15Z" transform="translate(-680.38 -679.22)"/><path class="cls-6" d="M940.28,976c-1.39.78-2.39-.15-3.46-.53-5.23-1.77-10.46-3.62-15.69-5.31a20.45,20.45,0,0,1-8-4.61,2.57,2.57,0,0,1-.15-3.85c1.84-2.15,3.84-4.22,6.07-6.61,5.92,4.39,11.91,8.31,17.14,13.15,2.31,2.15,4.23,4.46,4.08,7.76Z" transform="translate(-680.38 -679.22)"/><path class="cls-7" d="M738.09,981.24c4.69-.15,9.38-.23,14.53-.38a96.8,96.8,0,0,1-7.46-34.37c-.92-3.23-.38-6.45-.38-9.61a1.16,1.16,0,0,1,1.84-.69c.69,5.46,1.46,10.92,2.08,16.45a106.39,106.39,0,0,0,6.76,27.07c-1.54,1.53-2.77,3.22-5.46,2.92s-5.76-.08-8.61-.08a4.37,4.37,0,0,1-3.3-1.31Z" transform="translate(-680.38 -679.22)"/><path class="cls-8" d="M873.47,981.7a32.69,32.69,0,0,1-5.07,2c-2.54.46-5.54,3-7.38,1.16-2.16-2.16.46-5.23,1.07-7.85.54-2.15,1.54-2.23,3.77-2.07,4.07.23,5.3,3.38,7.61,6.76Z" transform="translate(-680.38 -679.22)"/><path class="cls-9" d="M1005.24,995.77a1.49,1.49,0,0,1,1.23,1.46c.08,1.69-.69,3.15-1.85,4.92-2.3-1.23-2.84-4.23-5.22-5.22-4.31-2.31-8.69-4.54-11.84-8.38a1.08,1.08,0,0,1,.23-1.77c2.53-1.69,5-1.23,7.15.61,3.07,2.54,6.07,5.23,9.07,7.84-.31,1.62.46,1,1.23.54Z" transform="translate(-680.38 -679.22)"/><path class="cls-10" d="M987.56,988.55c4.69,1.76,9,4.15,11.84,8.38-.62.69-1.23,1.3-1.85,1.92-4.23-3-8.45-6.07-12.68-9.07,1-.16,2.07-.16,2.69-1.23Z" transform="translate(-680.38 -679.22)"/><path class="cls-11" d="M799.13,691c.23,1.69,1.46,2.3,2.77,2.84,2.46,1.08,4.84,2,7.3,3a1.62,1.62,0,0,1-.08,2.61l-.69.16-.69-.24c-1-.53-2.15-.38-3.15-1-3.77-.62-6.46-2.92-8.61-5.84,1-.54,2.07-1,3.15-1.54Z" transform="translate(-680.38 -679.22)"/><path class="cls-12" d="M886,1020.45c-2.38.38-4.69.77-7.07,1a1.2,1.2,0,0,1-1.31-1.38c.08-.39.39-1,.69-1.08,2.08-.62,4.16-1.15,6.23-1.69.54,1.07,1,2.15,1.46,3.15Z" transform="translate(-680.38 -679.22)"/><path class="cls-13" d="M883.08,927.27c.31-4.61.54-9.15.92-13.76.93-11.76,1.46-23.52-.54-35.29a83.87,83.87,0,0,0-5.3-17.22c-.77-2-1.46-4.07-2.23-6.07-.92-1.61-1.23-3,1.38-2.84,14.84,24.91,16,51.12,7.31,78.26-2.85.15-2.15-1.54-1.54-3.08Z" transform="translate(-680.38 -679.22)"/><path class="cls-14" d="M819.12,931.42c1.15-6.68,2.23-13.3,3.3-19.91,1.31-14,.16-28,.7-41.89.07-2-1.85-5.08,1.92-5.92,2.3,17,2.3,34,1.23,51.12-.46,7.92-1.69,15.76-6,22.76a2.69,2.69,0,0,1-.92,1.46h0a1.08,1.08,0,0,1-1.46,0c.07-.93.15-1.93.23-2.92,1-1.39.23-3.23,1-4.7Z" transform="translate(-680.38 -679.22)"/><path class="cls-15" d="M762.84,850.63c-1.84,4.45-3.69,8.91-5.38,13.37-4.38,11.38-8.76,22.76-9.46,35.21-1.3-.3-1.92-1-1.92-2a29.17,29.17,0,0,1,0-5.76c2.31-15.07,7-29.37,15.15-42.36,1.38-.39,2.07,0,1.61,1.54Z" transform="translate(-680.38 -679.22)"/><path class="cls-16" d="M822.5,769.21a59.77,59.77,0,0,1-2.15-21.83,168,168,0,0,1,1.92-17.76,7.93,7.93,0,0,1,1.31-4c1.61,1.16.23,3.23,1.38,4.54A18,18,0,0,1,825,733c-1.69,9.92-1.31,20-1.08,30-.08,2.16,2.15,4.92-1.46,6.23Z" transform="translate(-680.38 -679.22)"/><path class="cls-17" d="M700.72,928.73c-5.22-8.61-5.53-18.14-4.69-27.83.47-5,1.39-7.38,3.85-10.6a5.71,5.71,0,0,1,.31,2.15c-2.46,10.3-1.16,20.45.92,30.59.31,1.46.61,2.85.84,4.23.77,1.54,0,1.69-1.23,1.46Z" transform="translate(-680.38 -679.22)"/><path class="cls-18" d="M825,863.7c-1.92,1.69-1.23,4-1.31,6.14,0,11.54.08,23.15-.08,34.75,0,2.31.77,4.93-1.23,6.92.08-9.38.31-18.68.39-28,0-6.46-.31-12.92-.46-19.37a37.46,37.46,0,0,1-.08-5.08c0-.77-.39-2.15,1-2.23,1.69-.07,1.61,1.46,1.69,2.54a40.87,40.87,0,0,1,.08,4.31Z" transform="translate(-680.38 -679.22)"/><path class="cls-19" d="M803.59,794.58a.65.65,0,0,1-.31.92c-.77.77-.46,2.08-1.38,2.77v.08a3.54,3.54,0,0,0-1.23,2.07c.15.39.07.7-.31.85a3.46,3.46,0,0,0-1.15,2,.69.69,0,0,1-.46.92,5.21,5.21,0,0,1-1.16,1.39l.08.07a1.57,1.57,0,0,1-1.62.23,2.5,2.5,0,0,1-.61-1.61,3.07,3.07,0,0,1,.69-1.62l.08.08a3.3,3.3,0,0,0,1.15-2.15c-.15-.39,0-.62.38-.77a3.24,3.24,0,0,0,1.08-2.15.52.52,0,0,1,.31-.77c.85-.77.54-2.08,1.38-2.92h0c.92-.85.69-2.23,1.31-3.23a1.09,1.09,0,0,1,.31-1.16c.77-.92.46-2.15,1.23-3.07a1,1,0,0,1,.23-1.23c.69-1,.54-2.23,1.15-3.31a.77.77,0,0,1,.23-1.07c1.08-1.46.38-3.39,1.15-5,.08-.69.16-1.46.31-2.15,3.54.69,1.54,3.15,1.46,5-.07,1.23-.23,2.46-.38,3.68a17.34,17.34,0,0,0-1,3.46c-.15.77-.39,1.54-.54,2.39a4,4,0,0,0-.92,2.07c.23.31.15.54-.23.77-.93,1-.77,2.31-1.23,3.46Z" transform="translate(-680.38 -679.22)"/><path class="cls-20" d="M688.73,917.43c-.08-3.61.15-7.14,2.69-10.07.69-.77.39-2.77,2.16-2.07,1.3.46.92,2,1,3.15a16.83,16.83,0,0,1,0,2.84c-.15,4.77-.46,5.15-5.84,6.08v.07Z" transform="translate(-680.38 -679.22)"/><path class="cls-19" d="M807.66,765.68c0-4.08.08-8.08.16-13,2.69,5.77,2.84,9,1.23,19.53-4.08-1.38-1.39-4.31-1.39-6.53Z" transform="translate(-680.38 -679.22)"/><path class="cls-21" d="M745.77,936.27c-.23,3.38-.38,6.76-.61,10.22-1.62-6.22-1.15-12.6-1.08-18.91,0-.54.31-.77.85-.84a1.3,1.3,0,0,1,1.54,1.07,38.47,38.47,0,0,1,.15,4.15c-1.08,1.23-.15,2.92-.85,4.31Z" transform="translate(-680.38 -679.22)"/><path class="cls-22" d="M877.31,852.09c-1.23.53-1.15,1.76-1.38,2.84-1.31-2.46-2.77-4.92-3.84-7.46-.7-1.53-3.16-2.69-1.39-4.92,2.08.54,3,2.23,3.92,3.85,1.16,1.77,2.46,3.46,2.69,5.69Z" transform="translate(-680.38 -679.22)"/><path class="cls-23" d="M834.8,699.1a21.22,21.22,0,0,1-2.08.69c-2.07.46-4.15.85-5.61-1.31-.07-.15-.15-.53,0-.69.62-1.38,2.62-1.54,5.77-.38a9.8,9.8,0,0,1,1.92,1.69Z" transform="translate(-680.38 -679.22)"/><path class="cls-24" d="M823.88,723a1.1,1.1,0,0,1-.07-.69c.61-1.77.07-4.23,2.76-4.85,1.08,1.77.08,3.62,0,5.38a8,8,0,0,1-1.23,4.69c-1.69-1.15-.23-3.3-1.46-4.53Z" transform="translate(-680.38 -679.22)"/><path class="cls-25" d="M883.08,927.27c.38,1.08.23,2.46,1.54,3.08.38,2.61-1.16,4.77-1.62,7.15a.9.9,0,0,1-1.46.08c.23-3.46-.23-7.08,1.54-10.31Z" transform="translate(-680.38 -679.22)"/><path class="cls-26" d="M822.5,769.21c1.92-1.69.69-4.23,1.46-6.23,1.31,2.93,1.08,6.08,1.38,9.08.47,1.38,1.23,2.84-1.3,2.76-.54-1.84-1-3.76-1.54-5.61Z" transform="translate(-680.38 -679.22)"/><path class="cls-27" d="M807.66,765.68c.31,2.15-.61,4.69,1.39,6.53.3,2.31.3,4.54-1.16,6.54-.23-1.77.23-3.7-1.46-5-.15-2.77-.15-5.54,1.23-8.07Z" transform="translate(-680.38 -679.22)"/><path class="cls-28" d="M714.49,944.42a.84.84,0,0,1-1.23.38,4.14,4.14,0,0,1-2.77-3.69,1.88,1.88,0,0,1,.46-1.23,1.24,1.24,0,0,1,1.15-.08,7.13,7.13,0,0,1,2.54,4.08c.08.15-.08.38-.15.54Z" transform="translate(-680.38 -679.22)"/><path class="cls-29" d="M762.84,850.63c-.54-.54-1.07-1-1.61-1.54.38-2.23,1.92-3.84,3.07-5.69,1.31-.31,2.08-.08,1.46,1.46-1,1.92-1.3,4.15-2.92,5.77Z" transform="translate(-680.38 -679.22)"/><path class="cls-30" d="M812.2,737.62A4.12,4.12,0,0,1,812,739c-.16.38-.54.84-.85.84a1.71,1.71,0,0,1-1.15-.61,3.16,3.16,0,0,1,.23-3.38,1.72,1.72,0,0,1,1.15-.62c.31.08.54.62.69,1a4.11,4.11,0,0,1,.16,1.39Z" transform="translate(-680.38 -679.22)"/><path class="cls-31" d="M796.36,807.27c-.92,1.07-1.69,2.23-2.61,3.3-.46.46-1.08,1-1.69.31a1.4,1.4,0,0,1-.16-1.23c.85-1.46,1.85-2.77,2.77-4.15a2.76,2.76,0,0,1,1.69,1.77Z" transform="translate(-680.38 -679.22)"/><path class="cls-32" d="M809.12,699.48c0-.84.08-1.69.08-2.61,1.92.15,3.69.61,4.92,2.31-1.69,1-3.31.61-5,.3Z" transform="translate(-680.38 -679.22)"/><path class="cls-33" d="M765.76,844.86c-.46-.46-.92-1-1.46-1.46a24.44,24.44,0,0,1,1.85-3c.38-.54,1.3-1.07,1.69-.92.69.31.61,1.23.23,1.84-.69,1.23-1.54,2.39-2.31,3.54Z" transform="translate(-680.38 -679.22)"/><path class="cls-34" d="M823.88,723c1.62,1.15.77,3.07,1.46,4.53-.15.85-.23,1.69-.38,2.62-1.54-1.23-1.08-3-1.38-4.54.15-.92.23-1.77.3-2.61Z" transform="translate(-680.38 -679.22)"/><path class="cls-35" d="M881.54,937.58a9.37,9.37,0,0,0,1.46-.08,23.93,23.93,0,0,1-1,3.38c-.07.39-.61.62-1,.92-.23-.61-.69-1.15-.69-1.76a2.74,2.74,0,0,1,1.23-2.46Z" transform="translate(-680.38 -679.22)"/><path class="cls-36" d="M700.72,928.73c.39-.46.85-.92,1.23-1.46a9.51,9.51,0,0,1,1.31,2.31c.23.54-.15,1.23-.23,1.84a7.24,7.24,0,0,1-1.54-.84,6.72,6.72,0,0,1-.77-1.85Z" transform="translate(-680.38 -679.22)"/><path class="cls-37" d="M824,774.82c1-.61,1-1.76,1.3-2.76a10.79,10.79,0,0,1,1.08,2.46c.15.53-.23,1.61-.54,1.69-1,.31-1.61-.39-1.84-1.39Z" transform="translate(-680.38 -679.22)"/><path class="cls-31" d="M745.77,936.27c-.23-1.54-.84-3.15.85-4.31v4.23a2.83,2.83,0,0,0-.85.08Z" transform="translate(-680.38 -679.22)"/><path class="cls-27" d="M806.12,775.9c.08,1.77.62,3.69-1.15,5a6.47,6.47,0,0,1,1.15-5Z" transform="translate(-680.38 -679.22)"/><path class="cls-38" d="M819.12,931.42c.38,1.7.46,3.39-1,4.7a5.4,5.4,0,0,1,1-4.7Z" transform="translate(-680.38 -679.22)"/><path class="cls-27" d="M796.36,807.27c-.61-.62-1.15-1.16-1.69-1.77a1.28,1.28,0,0,1,.46-1.23c.31-.62.69-.54,1.08,0a8,8,0,0,0-.08,1.38,1,1,0,0,1,.46,1c-.07.39-.15.54-.31.54Z" transform="translate(-680.38 -679.22)"/><path class="cls-27" d="M801.9,798.27a3.1,3.1,0,0,1,1.38-2.77,3,3,0,0,1-1.38,2.77Z" transform="translate(-680.38 -679.22)"/><path class="cls-27" d="M800.51,794a2.92,2.92,0,0,1-1.38,2.92,3.18,3.18,0,0,1,1.38-2.92Z" transform="translate(-680.38 -679.22)"/><path class="cls-27" d="M803.59,794.58c-.16-1.31-.08-2.61,1.23-3.46a3.68,3.68,0,0,1-1.23,3.46Z" transform="translate(-680.38 -679.22)"/><path class="cls-27" d="M801.82,790.74c.08,1.3,0,2.53-1.31,3.23a3.74,3.74,0,0,1,1.31-3.23Z" transform="translate(-680.38 -679.22)"/><path class="cls-27" d="M803.36,786.51c0,1.23-.08,2.31-1.23,3.07a3.57,3.57,0,0,1,1.23-3.07Z" transform="translate(-680.38 -679.22)"/><path class="cls-27" d="M806.51,785.89c-.15-1.3-.15-2.53,1-3.46a3.42,3.42,0,0,1-1,3.46Z" transform="translate(-680.38 -679.22)"/><path class="cls-27" d="M804.74,782c.08,1.31,0,2.46-1.15,3.31a3.79,3.79,0,0,1,1.15-3.31Z" transform="translate(-680.38 -679.22)"/><path class="cls-32" d="M804.59,698.41a3.08,3.08,0,0,1,3.15,1,3.08,3.08,0,0,1-3.15-1Z" transform="translate(-680.38 -679.22)"/><path class="cls-31" d="M796.28,807.19a11.1,11.1,0,0,0-.15-1.54h1.54a1.57,1.57,0,0,1-1.39,1.54Z" transform="translate(-680.38 -679.22)"/><path class="cls-27" d="M797.59,805.58l1.16-1.39c0,.77-.47,1.15-1.16,1.39Z" transform="translate(-680.38 -679.22)"/><path class="cls-31" d="M796.21,804.27h-1.08a1.4,1.4,0,0,1,1-1.62,11,11,0,0,0,.08,1.62Z" transform="translate(-680.38 -679.22)"/><path class="cls-27" d="M799.21,803.27a2.56,2.56,0,0,1,1.15-2,1.92,1.92,0,0,1-1.15,2Z" transform="translate(-680.38 -679.22)"/><path class="cls-27" d="M797.36,800.58a2.47,2.47,0,0,1-1.15,2.15,2.47,2.47,0,0,1,1.15-2.15Z" transform="translate(-680.38 -679.22)"/><path class="cls-27" d="M800.67,800.42a2.47,2.47,0,0,1,1.23-2.07,2.2,2.2,0,0,1-1.23,2.07Z" transform="translate(-680.38 -679.22)"/><path class="cls-27" d="M798.82,797.66a2.57,2.57,0,0,1-1.08,2.15,2.26,2.26,0,0,1,1.08-2.15Z" transform="translate(-680.38 -679.22)"/><path class="cls-38" d="M819.35,939a1.39,1.39,0,0,1,.92-1.46,1.36,1.36,0,0,1-.92,1.46Z" transform="translate(-680.38 -679.22)"/><path class="cls-27" d="M805.05,790.35c.3-.69.61-1.38.92-2.07a2,2,0,0,1-.92,2.07Z" transform="translate(-680.38 -679.22)"/><path class="cls-38" d="M817.89,939h1.46c-.08.69-.16,1.46-1.08,1.23-.23-.08-.23-.77-.38-1.23Z" transform="translate(-680.38 -679.22)"/><path class="cls-39" d="M967.34,1015.68c-1.93,0-3.84.08-5.77.16-.54-.31-.69-.54-.54-.85s.31-.38.54-.38c.77-.16,1.46-.23,2.23-.39a3.92,3.92,0,0,0,2.08-.92A50.79,50.79,0,0,0,980,1007a1.67,1.67,0,0,1,2.23.3,19.5,19.5,0,0,1-11.53,7.46,18.26,18.26,0,0,0-3.38.92Z" transform="translate(-680.38 -679.22)"/><path class="cls-40" d="M920.6,1013.53c1.92-1.31,3.84-.46,5.69-.46,1,.08,1.92.62,1.53,1.77-.07.46-1,.92-1.61,1a5.86,5.86,0,0,1-5.61-2.31Z" transform="translate(-680.38 -679.22)"/><path class="cls-41" d="M961.57,1014.61a3.63,3.63,0,0,0,0,1.23c-.92,0-1.76.07-2.61.07-.23-.07-.54-.3-.54-.38.15-.31.31-.77.54-.77a14.84,14.84,0,0,1,2.61-.15Z" transform="translate(-680.38 -679.22)"/><path class="cls-41" d="M967.34,1015.68a3.16,3.16,0,0,1,3.38-.92,3.41,3.41,0,0,1-3.38.92Z" transform="translate(-680.38 -679.22)"/><path class="cls-42" d="M982.25,1007.3a21.3,21.3,0,0,0-2.23-.3c.54-.39,1-1,1.46-1.08.93-.08,1.93.15.77,1.38Z" transform="translate(-680.38 -679.22)"/><path class="cls-41" d="M965.88,1013.3a2,2,0,0,1-2.08.92,2.08,2.08,0,0,1,2.08-.92Z" transform="translate(-680.38 -679.22)"/><path class="cls-43" d="M836.49,984.24c-1.08-.23-2.54-.46-3.84-.85a108.14,108.14,0,0,1-30.6-15.83,5.44,5.44,0,0,1-1.38-1.62.75.75,0,0,1,.07-.69c.23-.3.69-.77.93-.69a16,16,0,0,1,2.53,1.23c10.46,6,21.22,11.38,33.06,14a18.11,18.11,0,0,1,2.08.69c.84.39,1.76.93,1.69,2s-1.08,1.46-2,1.62c-.77.07-1.46.07-2.54.15Z" transform="translate(-680.38 -679.22)"/><path class="cls-44" d="M809,984.55c-.08.15-.08.38-.23.46s-.46.38-.62.31a11.56,11.56,0,0,1-6.15-3.46c-.23-.31-.54-1-.38-1.31a1.14,1.14,0,0,1,1.77-.38c1.61,1,3.22,2.07,4.76,3.22a2.65,2.65,0,0,1,.85,1.16Z" transform="translate(-680.38 -679.22)"/><path class="cls-45" d="M864.32,1005.84a18.57,18.57,0,0,1,3.15-1.3c.47-.16,1.16.46,1.69.77a9.38,9.38,0,0,1-1.07,1.69,7.81,7.81,0,0,1-2,.61c-1.61.46-2-.38-1.77-1.77Z" transform="translate(-680.38 -679.22)"/><path class="cls-46" d="M864.32,1005.84a19.71,19.71,0,0,1,1.77,1.77,12.75,12.75,0,0,1-2.38,1c-.54.08-1.16-.38-1.69-.61a9.13,9.13,0,0,1,1.07-1.7,6.39,6.39,0,0,1,1.23-.46Z" transform="translate(-680.38 -679.22)"/><path class="cls-47" d="M903,984.09c3.15-1.92,5.08-3.23,7.15-4.38,1.08-.54,2.38-2.47,3.46-.47.61,1-.77,2.08-1.77,2.85-2.15,1.61-4.53,2.53-8.84,2Z" transform="translate(-680.38 -679.22)"/></svg>