<?xml version="1.0" encoding="utf-8"?>
<!-- Generator: Adobe Illustrator 24.0.1, SVG Export Plug-In . SVG Version: 6.00 Build 0)  -->
<svg version="1.1" id="Layer_2_1_" xmlns="http://www.w3.org/2000/svg" xmlns:xlink="http://www.w3.org/1999/xlink" x="0px" y="0px"
	 viewBox="0 0 265.1 206.1" style="enable-background:new 0 0 265.1 206.1;" xml:space="preserve">
<title>home</title>
<path d="M265.1,77.2c0,0,0-0.2,0-0.3v-0.1c0-0.1,0-0.2-0.1-0.3s-0.1-0.3-0.2-0.5c-4.2-4.4-13.6-10.1-13.7-10.1L130.7,0.2
	c-0.6-0.3-1.4-0.3-2,0l-117.2,65L0.8,71l-0.2,0.1c-0.1,0.3-0.2,0.5-0.4,0.8s-0.1,0.3-0.2,0.4c0,0.2,0,0.4-0.1,0.5c0,0.1,0,0.2,0,0.4
	c0.4,0.5,0.9,0.9,1.4,1.3c0.3,0.2,0.5,0.5,0.8,0.8c0.2,0.3,0.4,0.5,0.7,0.7l0,0c0.1,0,0.2,0.1,0.3,0.1l0,0h0.1l0.6,0
	c0.2,0,0.4,0.1,0.6,0.1H5c2.2-0.5,4.4-1.2,6.4-2.1l17.4-9.5c1-0.6,2.2-0.2,2.7,0.7c0.2,0.3,0.3,0.7,0.3,1.1v117.9
	c0,12,9.7,21.7,21.7,21.7h152.2c12,0,21.7-9.7,21.7-21.7V66.5c0-1.1,0.8-2,1.9-2.1c0.4,0,0.7,0.1,1.1,0.3l30.6,16.7
	c0.2,0,0.3-0.1,0.5-0.1c0.3,0,0.5-0.1,0.8-0.1l0.2-0.1l0.1,0c0,0,0.1-0.1,0.1-0.1l0.1-0.1c0.2-0.1,0.3-0.3,0.5-0.4
	c0.3-0.3,0.6-0.6,0.8-1l0.2-0.3c0.2-0.2,0.3-0.4,0.4-0.7s0.1-0.2,0.2-0.3l0,0c0.1-0.2,0.1-0.4,0.2-0.6c0,0,0-0.1,0-0.1
	c0-0.1,0-0.1,0-0.2L265.1,77.2z M184.2,195.2c0,1.1-0.8,2-1.9,2c0,0,0,0-0.1,0h-35.8c-1.1,0-2-0.9-2-2c0,0,0,0,0-0.1v-78
	c0-1.1,0.9-2,2-2h35.7c1.1,0,2,0.9,2,2L184.2,195.2z M218.6,184.4c0,7.1-5.8,12.8-12.8,12.8h-10.7c-1.1,0-2-0.9-2-2c0,0,0,0,0-0.1
	v-86.9c0-1.1-0.9-2-2-2h-53.5c-1.1,0-2,0.9-2,2v86.9c0,1.1-0.9,2-2,2H53.7c-7.1,0-12.8-5.8-12.8-12.8V76.1c0-1.1,0.9-2,2-2
	c0,0,0,0,0.1,0h16.9c1.1,0,2-0.9,2-2v-4.8c0-1.1-0.9-2-2-2H40.8v-3.1c0-1.1,0.9-2,2-2c0,0,0,0,0.1,0h64.8c1.1,0,2-0.9,2-2v-4.8
	c0-1.1-0.9-2-2-2c0,0,0,0-0.1,0H61.8c-1.1,0.1-2.1-0.7-2.2-1.8c-0.1-0.9,0.4-1.7,1.2-2.1l67.9-37.1c0.6-0.4,1.4-0.4,2,0l86.8,47.4
	c0.7,0.4,1.1,1,1.1,1.8L218.6,184.4z"/>
</svg>
