<svg id="Layer_2" data-name="Layer 2" xmlns="http://www.w3.org/2000/svg" viewBox="0 0 130.73 431.84"><defs><style>.cls-1{fill:#f9ffff;}.cls-2{fill:#93001c;}.cls-3{fill:#006838;}.cls-4{fill:none;stroke:#006838;stroke-miterlimit:10;stroke-width:2px;}.cls-5{fill:#42821d;}.cls-6{fill:#c1272d;}.cls-7{fill:#af202b;}.cls-8{fill:#c10532;}</style></defs><title>ketchupIcon</title><path class="cls-1" d="M647,269.39H596a6.1,6.1,0,0,1-6.11-6.1v-11a6.11,6.11,0,0,1,6.11-6.11H647a6.11,6.11,0,0,1,6.1,6.11v11a6.1,6.1,0,0,1-6.1,6.1" transform="translate(-554.16 -246.16)"/><path class="cls-2" d="M644.18,269.39H599.56L556,469.17a79.67,79.67,0,0,0-1.84,17.07V653.31A24.68,24.68,0,0,0,578.84,678H660.2a24.68,24.68,0,0,0,24.68-24.69V491.11a139.8,139.8,0,0,0-2.59-26.76Z" transform="translate(-554.16 -246.16)"/><path class="cls-1" d="M661.11,511.13,664,500.89a6.73,6.73,0,0,0-6.47-8.58H581.48a6.74,6.74,0,0,0-6.48,8.58l2.93,10.24a6.73,6.73,0,0,1-6.47,8.58,6.73,6.73,0,0,0-6.74,6.73v98.48a6.74,6.74,0,0,0,6.74,6.73h96.12a6.73,6.73,0,0,0,6.73-6.73V526.44a6.73,6.73,0,0,0-6.73-6.73h0a6.73,6.73,0,0,1-6.47-8.58" transform="translate(-554.16 -246.16)"/><path class="cls-3" d="M661.06,626.83H578a8.05,8.05,0,0,1-7.89-8.19V529a8.05,8.05,0,0,1,7.89-8.19,3.66,3.66,0,0,0,2.89-1.47,4.26,4.26,0,0,0,.71-3.74l-2.53-9.31a8.32,8.32,0,0,1,1.42-7.32,7.72,7.72,0,0,1,6.17-3.1H652.4a7.72,7.72,0,0,1,6.17,3.1,8.35,8.35,0,0,1,1.42,7.32l-2.53,9.31a4.26,4.26,0,0,0,.71,3.74,3.66,3.66,0,0,0,2.89,1.47A8.05,8.05,0,0,1,669,529v89.62a8.05,8.05,0,0,1-7.89,8.19M586.64,500a3.64,3.64,0,0,0-2.89,1.47,4.29,4.29,0,0,0-.72,3.74l2.53,9.31a8.35,8.35,0,0,1-1.41,7.32A7.75,7.75,0,0,1,578,525a3.92,3.92,0,0,0-3.76,4.06v89.62a3.93,3.93,0,0,0,3.76,4.07h83.08a3.93,3.93,0,0,0,3.76-4.07V529a3.92,3.92,0,0,0-3.76-4.06,7.75,7.75,0,0,1-6.17-3.1,8.35,8.35,0,0,1-1.41-7.32l2.52-9.31a4.26,4.26,0,0,0-.71-3.74A3.64,3.64,0,0,0,652.4,500Z" transform="translate(-554.16 -246.16)"/><path class="cls-1" d="M653.31,316.09l-4.49-23h-9.91a20.87,20.87,0,0,0-34.86,0h-9.67l-5,23h14.67a20.87,20.87,0,0,0,34.86,0Z" transform="translate(-554.16 -246.16)"/><path class="cls-4" d="M649.21,296.17H636.66a18.2,18.2,0,0,0-30.4,0H593.92" transform="translate(-554.16 -246.16)"/><path class="cls-4" d="M589.56,313.05h16.7a18.2,18.2,0,0,0,30.4,0h16.47" transform="translate(-554.16 -246.16)"/><path class="cls-5" d="M605.62,533.06c3.63,13.87,13.5,14.44,13.5,14.44l.6,2.92H621l.6-2.92s9.87-.77,13.5-14.64c-5.17,1.4-9.42,8.13-9.42,8.13,1.33-4-.28-8.58-.28-8.58s-4.52,3.51-5,8c-.51-4.45-5-7.93-5-7.93s-1.61,4.64-.28,8.64c0,0-4.25-6.61-9.42-8" transform="translate(-554.16 -246.16)"/><path class="cls-6" d="M616.45,601.35h7.46a24.39,24.39,0,0,0,21.81-13.45l3.51-7a24.42,24.42,0,0,0-21.82-35.39l-6.93,1-6.66-1A24.44,24.44,0,0,0,592.56,558l-.26.48c-2.13,3.76-2.65,11.25-2.69,17.15a35.68,35.68,0,0,0,3.12,14.82c3.93,8.81,14.08,11,23.72,11" transform="translate(-554.16 -246.16)"/><path class="cls-7" d="M648.87,557.81c-4.21-7.33-12.47-12.52-20.92-12.52l-7.21,1.05-.26,55h4.13c9.23,0,19.79-3.93,23.94-12.17l.34-.73a31.7,31.7,0,0,0,3-14.28c-.14-5.53-.79-12.5-3-16.36" transform="translate(-554.16 -246.16)"/><path class="cls-8" d="M582.38,428.75l-6.18-1.3a3.5,3.5,0,0,1-2.71-4.14l15.37-73.2a3.49,3.49,0,0,1,4.14-2.7l6.18,1.3a3.49,3.49,0,0,1,2.7,4.14l-15.36,73.2a3.49,3.49,0,0,1-4.14,2.7" transform="translate(-554.16 -246.16)"/><path class="cls-8" d="M578,446.64l-6.18-1.29a3.51,3.51,0,0,1-2.71-4.14l1.3-6.18a3.51,3.51,0,0,1,4.14-2.71l6.18,1.3a3.49,3.49,0,0,1,2.7,4.14l-1.29,6.18a3.49,3.49,0,0,1-4.14,2.7" transform="translate(-554.16 -246.16)"/></svg>