<svg id="Layer_2" data-name="Layer 2" xmlns="http://www.w3.org/2000/svg" viewBox="0 0 164.3 165.22"><defs><style>.cls-1{fill:#96c125;}.cls-2{fill:#57aa33;}.cls-3{fill:#936138;}.cls-4{fill:#fed700;}.cls-5{fill:#f9c300;}.cls-6{fill:#fff;opacity:0.25;}</style></defs><title>lemonIcon</title><path class="cls-1" d="M513.81,454.07s-23.3,8.15-21,27.84L490,486.64s3.61-4.36,7.58-4.17c0,0,11.93,5.11,32.56-9.85,0,0,13.43-11.93,23.11-3C553.2,469.58,537.28,445.35,513.81,454.07Z" transform="translate(-456.56 -452.05)"/><path class="cls-2" d="M492.8,481.91,490,486.64a11.32,11.32,0,0,1,7.58-4.17c22.2-22.31,41.34-18.88,41.34-18.88C514,455.55,492.8,481.91,492.8,481.91Z" transform="translate(-456.56 -452.05)"/><path class="cls-3" d="M476.89,459c-1.67-10.68-12.25-5.85-12.25-5.85-12.28,5.34-6.92,14.41-6.92,14.41,11.79,21.88,39.48,25.61,39.48,25.61l13.33-3.2C484.39,487.83,476.89,459,476.89,459Z" transform="translate(-456.56 -452.05)"/><path class="cls-4" d="M515.06,481.75a27,27,0,0,1-12,1.42,12.58,12.58,0,0,0-10.22,3.32,12,12,0,0,0-3.38,8.14,38.7,38.7,0,0,1-3,14.06C475.72,533.21,483.59,566.64,508,591c24.95,25,59.34,32.61,84,20.8a29,29,0,0,1,11.55-3,12.12,12.12,0,0,0,8.25-3.38,12.42,12.42,0,0,0,3.37-9.34,30.59,30.59,0,0,1,2.1-12c9.06-24.23.91-56.17-22.62-79.7S539.27,472.76,515.06,481.75Z" transform="translate(-456.56 -452.05)"/><path class="cls-5" d="M527.68,571.49c-31.56-28.43-33.31-61.9-33.31-61.9-10,22.83-2.66,53.94,20,76.66,23.22,23.21,55.23,30.34,78.18,19.35l8.08-3.67C563,610.66,527.68,571.49,527.68,571.49Z" transform="translate(-456.56 -452.05)"/><path class="cls-6" d="M555.14,488.73c-15.24-5.4-29.86-3.41-32.65,4.46s7.3,18.62,22.54,24,29.86,3.41,32.65-4.45S570.38,494.14,555.14,488.73Z" transform="translate(-456.56 -452.05)"/><path class="cls-6" d="M588.78,512.77a6.1,6.1,0,1,0,6.09,6.09A6.08,6.08,0,0,0,588.78,512.77Z" transform="translate(-456.56 -452.05)"/></svg>