<svg id="Layer_3" data-name="Layer 3" xmlns="http://www.w3.org/2000/svg" viewBox="0 0 809.28 2559.68"><defs><style>.cls-1{fill:#eee;}.cls-2{fill:#d8d8d8;}.cls-3{fill:#d1d3d4;}.cls-4{fill:#fff;}</style></defs><title>mayonnaiseIcon</title><path class="cls-1" d="M2223.88,3919c-143,89.23-568.23,88.67-738.74-1.82a54,54,0,0,1-28.66-47.7V2329.7h792.73V3873.23A53.94,53.94,0,0,1,2223.88,3919Z" transform="translate(-1448.2 -1434.09)"/><path class="cls-1" d="M2166.76,2259.94l-313.92,2.28-313.92-2.28-74.23,35.69a14.48,14.48,0,0,0-8.21,13.06v21h792.73v-21a14.49,14.49,0,0,0-8.22-13.06Z" transform="translate(-1448.2 -1434.09)"/><path class="cls-1" d="M77.23,643.22H732.06a17.41,17.41,0,0,1,17.41,17.41V776a0,0,0,0,1,0,0H59.82a0,0,0,0,1,0,0V660.63A17.41,17.41,0,0,1,77.23,643.22Z"/><polygon class="cls-1" points="737.25 643.22 70.56 643.22 284.15 603.42 522.36 603.98 737.25 643.22"/><polygon class="cls-1" points="515.22 611.12 294.06 611.12 359.46 8.28 448.64 8.28 515.22 611.12"/><rect class="cls-2" x="294.06" y="482.86" width="221.16" height="110.29" rx="15.29"/><path class="cls-3" d="M1963,2040.45H1740.91a13.92,13.92,0,0,1-13.92-13.92h0a13.92,13.92,0,0,1,13.92-13.92H1963a13.92,13.92,0,0,1,13.92,13.92h0A13.92,13.92,0,0,1,1963,2040.45Z" transform="translate(-1448.2 -1434.09)"/><path class="cls-3" d="M1533,2192.84h0a3.31,3.31,0,0,1-3.31-3.31v-87.92a3.32,3.32,0,0,1,3.31-3.31h0a3.32,3.32,0,0,1,3.32,3.31v87.92A3.32,3.32,0,0,1,1533,2192.84Z" transform="translate(-1448.2 -1434.09)"/><path class="cls-3" d="M1551.3,2192.84h0a3.31,3.31,0,0,1-3.31-3.31v-87.92a3.31,3.31,0,0,1,3.31-3.31h0a3.31,3.31,0,0,1,3.31,3.31v87.92A3.31,3.31,0,0,1,1551.3,2192.84Z" transform="translate(-1448.2 -1434.09)"/><rect class="cls-3" x="118.07" y="664.21" width="6.62" height="94.54" rx="3.31"/><path class="cls-3" d="M1587.86,2192.84h0a3.31,3.31,0,0,1-3.31-3.31v-87.92a3.32,3.32,0,0,1,3.31-3.31h0a3.32,3.32,0,0,1,3.32,3.31v87.92A3.32,3.32,0,0,1,1587.86,2192.84Z" transform="translate(-1448.2 -1434.09)"/><path class="cls-3" d="M1606.15,2192.84h0a3.31,3.31,0,0,1-3.31-3.31v-87.92a3.31,3.31,0,0,1,3.31-3.31h0a3.31,3.31,0,0,1,3.31,3.31v87.92A3.31,3.31,0,0,1,1606.15,2192.84Z" transform="translate(-1448.2 -1434.09)"/><path class="cls-3" d="M1624.43,2192.84h0a3.31,3.31,0,0,1-3.31-3.31v-87.92a3.31,3.31,0,0,1,3.31-3.31h0a3.31,3.31,0,0,1,3.31,3.31v87.92A3.31,3.31,0,0,1,1624.43,2192.84Z" transform="translate(-1448.2 -1434.09)"/><path class="cls-3" d="M1642.71,2192.84h0a3.31,3.31,0,0,1-3.31-3.31v-87.92a3.32,3.32,0,0,1,3.31-3.31h0a3.32,3.32,0,0,1,3.32,3.31v87.92A3.32,3.32,0,0,1,1642.71,2192.84Z" transform="translate(-1448.2 -1434.09)"/><path class="cls-3" d="M1661,2192.84h0a3.31,3.31,0,0,1-3.31-3.31v-87.92a3.31,3.31,0,0,1,3.31-3.31h0a3.31,3.31,0,0,1,3.31,3.31v87.92A3.31,3.31,0,0,1,1661,2192.84Z" transform="translate(-1448.2 -1434.09)"/><path class="cls-3" d="M1679.28,2192.84h0a3.31,3.31,0,0,1-3.31-3.31v-87.92a3.31,3.31,0,0,1,3.31-3.31h0a3.31,3.31,0,0,1,3.31,3.31v87.92A3.31,3.31,0,0,1,1679.28,2192.84Z" transform="translate(-1448.2 -1434.09)"/><path class="cls-3" d="M1697.56,2192.84h0a3.31,3.31,0,0,1-3.31-3.31v-87.92a3.32,3.32,0,0,1,3.31-3.31h0a3.32,3.32,0,0,1,3.32,3.31v87.92A3.32,3.32,0,0,1,1697.56,2192.84Z" transform="translate(-1448.2 -1434.09)"/><path class="cls-3" d="M1715.85,2192.84h0a3.31,3.31,0,0,1-3.31-3.31v-87.92a3.31,3.31,0,0,1,3.31-3.31h0a3.31,3.31,0,0,1,3.31,3.31v87.92A3.31,3.31,0,0,1,1715.85,2192.84Z" transform="translate(-1448.2 -1434.09)"/><path class="cls-3" d="M1734.13,2192.84h0a3.31,3.31,0,0,1-3.31-3.31v-87.92a3.31,3.31,0,0,1,3.31-3.31h0a3.31,3.31,0,0,1,3.31,3.31v87.92A3.31,3.31,0,0,1,1734.13,2192.84Z" transform="translate(-1448.2 -1434.09)"/><path class="cls-3" d="M1752.41,2192.84h0a3.31,3.31,0,0,1-3.31-3.31v-87.92a3.32,3.32,0,0,1,3.31-3.31h0a3.32,3.32,0,0,1,3.32,3.31v87.92A3.32,3.32,0,0,1,1752.41,2192.84Z" transform="translate(-1448.2 -1434.09)"/><path class="cls-3" d="M1770.7,2192.84h0a3.31,3.31,0,0,1-3.31-3.31v-87.92a3.31,3.31,0,0,1,3.31-3.31h0a3.31,3.31,0,0,1,3.31,3.31v87.92A3.31,3.31,0,0,1,1770.7,2192.84Z" transform="translate(-1448.2 -1434.09)"/><path class="cls-3" d="M1789,2192.84h0a3.31,3.31,0,0,1-3.31-3.31v-87.92a3.31,3.31,0,0,1,3.31-3.31h0a3.31,3.31,0,0,1,3.31,3.31v87.92A3.31,3.31,0,0,1,1789,2192.84Z" transform="translate(-1448.2 -1434.09)"/><path class="cls-3" d="M1807.26,2192.84h0a3.31,3.31,0,0,1-3.31-3.31v-87.92a3.32,3.32,0,0,1,3.31-3.31h0a3.32,3.32,0,0,1,3.32,3.31v87.92A3.32,3.32,0,0,1,1807.26,2192.84Z" transform="translate(-1448.2 -1434.09)"/><path class="cls-3" d="M1825.55,2192.84h0a3.31,3.31,0,0,1-3.31-3.31v-87.92a3.31,3.31,0,0,1,3.31-3.31h0a3.31,3.31,0,0,1,3.31,3.31v87.92A3.31,3.31,0,0,1,1825.55,2192.84Z" transform="translate(-1448.2 -1434.09)"/><path class="cls-3" d="M1843.83,2192.84h0a3.31,3.31,0,0,1-3.31-3.31v-87.92a3.31,3.31,0,0,1,3.31-3.31h0a3.31,3.31,0,0,1,3.31,3.31v87.92A3.31,3.31,0,0,1,1843.83,2192.84Z" transform="translate(-1448.2 -1434.09)"/><path class="cls-3" d="M1862.11,2192.84h0a3.31,3.31,0,0,1-3.31-3.31v-87.92a3.32,3.32,0,0,1,3.31-3.31h0a3.32,3.32,0,0,1,3.32,3.31v87.92A3.32,3.32,0,0,1,1862.11,2192.84Z" transform="translate(-1448.2 -1434.09)"/><path class="cls-3" d="M1880.4,2192.84h0a3.31,3.31,0,0,1-3.31-3.31v-87.92a3.31,3.31,0,0,1,3.31-3.31h0a3.31,3.31,0,0,1,3.31,3.31v87.92A3.31,3.31,0,0,1,1880.4,2192.84Z" transform="translate(-1448.2 -1434.09)"/><path class="cls-3" d="M1898.68,2192.84h0a3.31,3.31,0,0,1-3.31-3.31v-87.92a3.31,3.31,0,0,1,3.31-3.31h0a3.31,3.31,0,0,1,3.31,3.31v87.92A3.31,3.31,0,0,1,1898.68,2192.84Z" transform="translate(-1448.2 -1434.09)"/><path class="cls-3" d="M1917,2192.84h0a3.31,3.31,0,0,1-3.31-3.31v-87.92a3.32,3.32,0,0,1,3.31-3.31h0a3.32,3.32,0,0,1,3.32,3.31v87.92A3.32,3.32,0,0,1,1917,2192.84Z" transform="translate(-1448.2 -1434.09)"/><path class="cls-3" d="M1935.25,2192.84h0a3.31,3.31,0,0,1-3.31-3.31v-87.92a3.31,3.31,0,0,1,3.31-3.31h0a3.31,3.31,0,0,1,3.31,3.31v87.92A3.31,3.31,0,0,1,1935.25,2192.84Z" transform="translate(-1448.2 -1434.09)"/><path class="cls-3" d="M1953.53,2192.84h0a3.31,3.31,0,0,1-3.31-3.31v-87.92a3.31,3.31,0,0,1,3.31-3.31h0a3.31,3.31,0,0,1,3.31,3.31v87.92A3.31,3.31,0,0,1,1953.53,2192.84Z" transform="translate(-1448.2 -1434.09)"/><path class="cls-3" d="M1971.81,2192.84h0a3.31,3.31,0,0,1-3.31-3.31v-87.92a3.32,3.32,0,0,1,3.31-3.31h0a3.32,3.32,0,0,1,3.32,3.31v87.92A3.32,3.32,0,0,1,1971.81,2192.84Z" transform="translate(-1448.2 -1434.09)"/><path class="cls-3" d="M1990.1,2192.84h0a3.31,3.31,0,0,1-3.31-3.31v-87.92a3.31,3.31,0,0,1,3.31-3.31h0a3.31,3.31,0,0,1,3.31,3.31v87.92A3.31,3.31,0,0,1,1990.1,2192.84Z" transform="translate(-1448.2 -1434.09)"/><path class="cls-3" d="M2008.38,2192.84h0a3.31,3.31,0,0,1-3.31-3.31v-87.92a3.31,3.31,0,0,1,3.31-3.31h0a3.31,3.31,0,0,1,3.31,3.31v87.92A3.31,3.31,0,0,1,2008.38,2192.84Z" transform="translate(-1448.2 -1434.09)"/><path class="cls-3" d="M2026.66,2192.84h0a3.31,3.31,0,0,1-3.31-3.31v-87.92a3.32,3.32,0,0,1,3.31-3.31h0a3.32,3.32,0,0,1,3.32,3.31v87.92A3.32,3.32,0,0,1,2026.66,2192.84Z" transform="translate(-1448.2 -1434.09)"/><rect class="cls-3" x="593.44" y="664.21" width="6.62" height="94.54" rx="3.31"/><path class="cls-3" d="M2063.23,2192.84h0a3.31,3.31,0,0,1-3.31-3.31v-87.92a3.31,3.31,0,0,1,3.31-3.31h0a3.31,3.31,0,0,1,3.31,3.31v87.92A3.31,3.31,0,0,1,2063.23,2192.84Z" transform="translate(-1448.2 -1434.09)"/><path class="cls-3" d="M2081.51,2192.84h0a3.31,3.31,0,0,1-3.31-3.31v-87.92a3.32,3.32,0,0,1,3.31-3.31h0a3.32,3.32,0,0,1,3.32,3.31v87.92A3.32,3.32,0,0,1,2081.51,2192.84Z" transform="translate(-1448.2 -1434.09)"/><path class="cls-3" d="M2099.8,2192.84h0a3.31,3.31,0,0,1-3.31-3.31v-87.92a3.31,3.31,0,0,1,3.31-3.31h0a3.31,3.31,0,0,1,3.31,3.31v87.92A3.31,3.31,0,0,1,2099.8,2192.84Z" transform="translate(-1448.2 -1434.09)"/><path class="cls-3" d="M2118.08,2192.84h0a3.31,3.31,0,0,1-3.31-3.31v-87.92a3.31,3.31,0,0,1,3.31-3.31h0a3.31,3.31,0,0,1,3.31,3.31v87.92A3.31,3.31,0,0,1,2118.08,2192.84Z" transform="translate(-1448.2 -1434.09)"/><path class="cls-3" d="M2136.36,2192.84h0a3.31,3.31,0,0,1-3.31-3.31v-87.92a3.32,3.32,0,0,1,3.31-3.31h0a3.32,3.32,0,0,1,3.32,3.31v87.92A3.32,3.32,0,0,1,2136.36,2192.84Z" transform="translate(-1448.2 -1434.09)"/><path class="cls-3" d="M2154.65,2192.84h0a3.31,3.31,0,0,1-3.31-3.31v-87.92a3.31,3.31,0,0,1,3.31-3.31h0a3.31,3.31,0,0,1,3.31,3.31v87.92A3.31,3.31,0,0,1,2154.65,2192.84Z" transform="translate(-1448.2 -1434.09)"/><rect class="cls-3" x="721.42" y="664.21" width="6.62" height="94.54" rx="3.31"/><path class="cls-3" d="M1518.76,2077.31c55.38-1.71,110.75-2.61,166.12-3.21l20.77-.25,20.76-.15,41.54-.29,83.06-.23,83.06.21,41.53.3,20.76.15,20.77.24c55.37.61,110.75,1.51,166.12,3.23-55.37,1.73-110.75,2.63-166.12,3.23l-20.77.24-20.76.16-41.53.29-83.06.22-83.06-.23-41.54-.29-20.76-.16-20.77-.24C1629.51,2079.92,1574.14,2079,1518.76,2077.31Z" transform="translate(-1448.2 -1434.09)"/><path class="cls-3" d="M2151.34,2250.51l96.11,51.27L2245,3894.13c-32.6,53.33-212.85,91.36-366.54,89.93,138.32-13.64,262.8-38.39,307.83-126.9l-.84-1527.46-137.19-79.19Z" transform="translate(-1448.2 -1434.09)"/><path class="cls-3" d="M1456.48,2329.7c66.06-2.74,132.12-4.18,198.18-5.15s132.12-1.45,198.18-1.47,132.12.4,198.18,1.45,132.12,2.41,198.19,5.17c-66.07,2.75-132.13,4.2-198.19,5.17s-132.12,1.44-198.18,1.45-132.12-.42-198.18-1.47S1522.54,2332.44,1456.48,2329.7Z" transform="translate(-1448.2 -1434.09)"/><path class="cls-3" d="M1867.72,3993.77h-2.9c-74.63-.15-148.57-6.17-213.83-17.41-69.76-12-128.45-29.95-169.73-51.86a62.14,62.14,0,0,1-33.06-55V2308.69a22.87,22.87,0,0,1,12.9-20.52l35-16.82a36.76,36.76,0,0,1,3.66-67.17V2091.72a22.73,22.73,0,0,1,13.91-20.92,8.22,8.22,0,0,1,3.6-1.62l202-37.65a22.27,22.27,0,0,1,14.71-26.1v-75.82a21,21,0,0,1,14.66-20l50.79-468.15a8.27,8.27,0,0,1,8.23-7.39h89.17a8.27,8.27,0,0,1,8.23,7.37l51.7,468.09a21,21,0,0,1,14.94,20.06v76.46a22.07,22.07,0,0,1,13.54,20.46,22.4,22.4,0,0,1-.74,5.68l202.43,37a8.26,8.26,0,0,1,1.75.52,22.72,22.72,0,0,1,17.26,22v112.46a36.76,36.76,0,0,1,3.66,67.17l35,16.82a22.87,22.87,0,0,1,12.9,20.52V3873.23a61.84,61.84,0,0,1-29.22,52.79c-35.38,22.08-87.43,39.31-154.71,51.21C2012.38,3988.06,1941.27,3993.77,1867.72,3993.77Zm-355-1775.4a20.21,20.21,0,1,0,0,40.41h11.37a8.28,8.28,0,0,1,3.59,15.74l-59.41,28.57a6.24,6.24,0,0,0-3.53,5.6V3869.48a45.61,45.61,0,0,0,24.27,40.39c78.85,41.85,219.35,67,375.83,67.34,73.63.18,144.79-5.48,205.82-16.28,64.26-11.37,115.72-28.3,148.82-49a45.38,45.38,0,0,0,21.44-38.74V2308.69a6.23,6.23,0,0,0-3.52-5.6h0L2178,2274.52a8.28,8.28,0,0,1,3.59-15.74H2193a20.21,20.21,0,1,0,0-40.41,8.28,8.28,0,0,1-3.57-15.75v-110.9a6.14,6.14,0,0,0-6.13-6.13,8.15,8.15,0,0,1-3.9-1l-210.08-38.36a8.27,8.27,0,0,1-3.11-15,5.64,5.64,0,0,0-3-10.33,8.27,8.27,0,0,1-8-8.27v-83a4.38,4.38,0,0,0-4.38-4.38h-1.51a8.27,8.27,0,0,1-8.22-7.37l-51.61-467.21h-74.33l-50.69,467.19a8.28,8.28,0,0,1-8.23,7.39h-1.25a4.38,4.38,0,0,0-4.38,4.38v83a8.28,8.28,0,0,1-8.28,8.27h-1.35a5.66,5.66,0,0,0-5.65,5.65,5.6,5.6,0,0,0,2.2,4.45,8.28,8.28,0,0,1-3.82,14.71L1527,2084.19a8.16,8.16,0,0,1-4.6,1.4,6.14,6.14,0,0,0-6.13,6.13v110.9a8.28,8.28,0,0,1-3.57,15.75Z" transform="translate(-1448.2 -1434.09)"/><path class="cls-3" d="M2193,2267.06H1512.73a28.48,28.48,0,0,1-28.49-28.48h0a28.48,28.48,0,0,1,28.49-28.49H2193a28.48,28.48,0,0,1,28.49,28.49h0A28.48,28.48,0,0,1,2193,2267.06Z" transform="translate(-1448.2 -1434.09)"/><rect class="cls-4" x="35.43" y="923.2" width="23.71" height="1389.39" rx="11.85"/><ellipse class="cls-4" cx="47.85" cy="2376.25" rx="13.79" ry="39.1"/></svg>