<svg xmlns="http://www.w3.org/2000/svg" viewBox="0 0 178.18 213.81"><defs><style>.cls-1{isolation:isolate;}.cls-2{fill:#231f20;}.cls-3,.cls-5{fill:#d6bf9a;}.cls-4,.cls-6{fill:#d6b275;}.cls-5,.cls-6{opacity:0.3;mix-blend-mode:multiply;}.cls-7{fill:#c38b6b;}.cls-8{fill:#9f7257;}.cls-9{fill:#fff;opacity:0.4;}</style></defs><title>mushroomIcon</title><g class="cls-1"><g id="Layer_2" data-name="Layer 2"><path class="cls-2" d="M658.53,309.69c-5.53-3.84-12-6-18.41-7.83-2-.58-4-1.1-6-1.74a33.29,33.29,0,0,1-10.24-3.79,9.08,9.08,0,0,1-3.78-2.82l-.15-.17-.1-.09a1.09,1.09,0,0,0-.6-.25c-.35-.49-.68-1-1-1.49a33.35,33.35,0,0,1-5.51-8.79c-.45-1.08-.88-2.19-1.32-3.29a44.23,44.23,0,0,0-4.72-7c-8.07-9.59-18.71-8.2-27.6-.82-10.31,8.57-16.49,21.15-28.39,27.94-13.35,7.61-27.75,12.31-41.46,19.1-9.89,4.9-16.87,13-14.93,24.67,1.87,11.2,13.86,21.31,23.24,26.44A117,117,0,0,0,547.8,381.1c.33,4.41-3.92,9.45-6.17,12.69a110.23,110.23,0,0,1-12.23,14.45c-8.07,8.18-17,15.79-22.37,26.17-10.19,19.84,8.38,40.15,27.51,44,10.37,2.09,21.16,1.07,30.55-4,10.34-5.57,18.53-15,25-24.63,1-1.43,1.87-2.9,2.72-4.39a24.16,24.16,0,0,0,4.95-9.78,1.49,1.49,0,0,0,0-.77,87.06,87.06,0,0,0,4.63-18.57,110.26,110.26,0,0,0,.72-19c-.15-4.23.75-9.55-.71-13.7q2.51-.25,5-.57c24.9-3.12,57-15.11,63.94-42.17C674.41,328.91,668.41,316.55,658.53,309.69Z" transform="translate(-493.97 -265.63)"/><path class="cls-3" d="M559.65,472.59c-9.73,4.11-21.37,3.26-31.08-.31-10-3.67-18.8-12.38-21.51-22.72-3.37-12.81,7.8-24,15.95-32.2l3.33-3.33c-1.82,2.22-3.62,4.47-5.28,6.83s-3.5,5.63-2.74,8.75c.61,2.54,4.19,2,5.84,1.3,1.83-.77,3.56-1.74,5.31-2.66,2.12-1.11,3.86,1.25,2.88,3.21-.68,1.37-1.61,2.67-2.41,4-2.83,4.69-7.39,15-2.11,19.63,7.29,6.39,15.11-1,19.52-6.89,2.6-3.44,4.92-7.1,7.4-10.63l.72-1q1-2.07,3.41-.34a16.2,16.2,0,0,1-.92,2.92,26.08,26.08,0,0,0-1.18,4.76c-1.23,8.24,7.52,7,11.91,3.32a29.18,29.18,0,0,0,4.36-4.73c.31-.41,3.66-3.65,3.74-3,.21,1.56-.66,3.87-.92,5.47a5.94,5.94,0,0,0,4.5,7,8.1,8.1,0,0,0,4.33-.28C578.13,460.37,569.73,468.32,559.65,472.59Z" transform="translate(-493.97 -265.63)"/><path class="cls-4" d="M601.77,401.26c-.45,5.54-1.27,11.12-2.27,16.58a78.88,78.88,0,0,1-9.79,26.44,34.86,34.86,0,0,1-3.43,3.15c-3.79,3.07-8.87,2.29-8.21-3.75a27.75,27.75,0,0,0,.51-6,.88.88,0,0,0-1.05-.81c-7.07.61-8,11.79-16.23,11.62-6.72-.14.49-11.48-.55-14.6-1.51-4.51-6.32.64-7.69,2.32-4.28,5.2-7.31,11.29-12.53,15.7-3.57,3-9.88,4.05-11.93-1.23-1.28-3.28.39-7.73,1.53-10.81,1.22-3.3,6.56-10,4.08-13.51-1.75-2.53-8.72,2.64-10.43,3.37q-5.56-2.06-3.51-5.41a23.45,23.45,0,0,1,1.63-2.84c1-1.48,2.05-2.89,3.09-4.3,2.16-2.92,4.59-5.61,6.67-8.57A110.15,110.15,0,0,0,543.18,395c2.38-3.45,6.74-8.79,6.34-13.51,16.86,3.62,34.42,3.95,51.74,2.26C603.42,388.41,602.15,396.6,601.77,401.26Z" transform="translate(-493.97 -265.63)"/><path class="cls-5" d="M580.37,452a5.94,5.94,0,0,1-4.5-7c.26-1.6,1.13-3.91.92-5.47-.08-.62-3.43,2.62-3.74,3a29.18,29.18,0,0,1-4.36,4.73c-2.33,1.94-5.88,3.21-8.52,2.74a54.33,54.33,0,0,1-12.5,12.1,96.89,96.89,0,0,1-19.64,10l.54.22c9.71,3.57,21.35,4.42,31.08.31,10.08-4.27,18.48-12.22,25.05-20.89A8.1,8.1,0,0,1,580.37,452Z" transform="translate(-493.97 -265.63)"/><path class="cls-6" d="M601.26,383.75c-17.32,1.69-34.88,1.36-51.74-2.26a8.41,8.41,0,0,1-.23,2.67c5.13.79,10.08,2.51,14,5.93,5.79,5,8.72,12.28,9.21,19.85.87,13.31-3.37,27.39-11.28,38.58h.06c8.27.17,9.16-11,16.23-11.62a.88.88,0,0,1,1.05.81,27.75,27.75,0,0,1-.51,6c-.66,6,4.42,6.82,8.21,3.75a34.86,34.86,0,0,0,3.43-3.15,78.88,78.88,0,0,0,9.79-26.44c1-5.46,1.82-11,2.27-16.58C602.15,396.6,603.42,388.41,601.26,383.75Z" transform="translate(-493.97 -265.63)"/><path class="cls-7" d="M665.72,347.9c-5.87,13.28-22.32,22.08-35.2,26.93-15.71,5.91-33.38,7.38-50,7.39s-33-2.6-48.44-8.89c-13.18-5.39-29.12-15.37-34-29.6-5.94-17.43,16.74-24.52,28.56-29.23,12.94-5.15,26.56-11.08,36.54-21.06,9.76-9.77,22.9-33,38.8-20.61,6.24,4.87,9.52,12.76,13.9,19.15.55.8,1.14,1.59,1.75,2.37a1,1,0,0,0,0,.17c.9,1,1.79,1.87,2.63,2.74a73.05,73.05,0,0,0,6.45,5.9,34.05,34.05,0,0,0,5.44,3.21c.2.09.43-.26.23-.39A42.6,42.6,0,0,1,625,299.9c2,.83,4,1.68,6,2.6,6.41,3,13.74,3.82,20.25,6.79a31.5,31.5,0,0,1,15.56,15.29C670.38,332.2,669,340.45,665.72,347.9Z" transform="translate(-493.97 -265.63)"/><path class="cls-8" d="M651.19,309.29c-1.2-.54-2.43-1-3.68-1.44,0,.09-.1.17-.14.26-2.57,6,1.26,9.63,4.48,14.3A17.68,17.68,0,0,1,655.48,333c0,8.57-4.49,14.3-12.57,17a112.09,112.09,0,0,1-14.48,3.45c-3.75.72-8.19.62-11.61,2.46a34.28,34.28,0,0,0-8.34,5.88c-2,2-3.85,4.24-6.2,5.76a30.79,30.79,0,0,1-14.59,5.23c-4.11.23-7.9-1.85-11.12-4.18-4.06-2.93-8.36-5.27-12.51-8-6.84-4.55-12.36-2.73-19.8-2.11-4.54.37-8.4-.32-11.5-3.88-3.79-4.35-1.65-9.4-2.33-14.45-.81-6-5.9-9.29-11.27-10.57s-8.21-3.74-6.81-9.07c-9.65,4.78-18.17,11.77-14.26,23.27,4.85,14.23,20.79,24.21,34,29.6,15.4,6.29,31.84,8.89,48.44,8.89s34.31-1.48,50-7.39c12.88-4.85,29.33-13.65,35.2-26.93,3.29-7.45,4.66-15.7,1-23.32A31.5,31.5,0,0,0,651.19,309.29Z" transform="translate(-493.97 -265.63)"/><path class="cls-9" d="M592.47,274.75c-7.13-2.3-14.29,10.84-17.21,15.47-6.08,9.67-15.77,15.77-23.94,23.36-1.52,1.42-1.39,5.39,1.52,4.52,9.48-2.82,16.38-10.2,21.94-18.05a136.69,136.69,0,0,0,7.32-12.4,40.44,40.44,0,0,1,4.74-6.66c1.75-2,4.23-3.12,5.83-5.23C592.9,275.46,592.9,274.89,592.47,274.75Z" transform="translate(-493.97 -265.63)"/><path class="cls-9" d="M533,319.87a1.72,1.72,0,0,1-1.34.49,4,4,0,0,0-3,.85c-.92.86-.92,2.42.52,2.68,1.27.22,2.4-.6,3.44-1.25a3.84,3.84,0,0,0,1.69-2.26C534.63,319.5,533.5,319.35,533,319.87Z" transform="translate(-493.97 -265.63)"/><path class="cls-7" d="M547.33,399.31c-.57-1.79-3.09-.6-3,1a4.36,4.36,0,0,1-1.2,3l-.72.72c-.07.07,0,.18.06.13a13.78,13.78,0,0,0-1.32,2.17,1.34,1.34,0,0,0,1.75,1.84C546.06,406.66,548.45,402.82,547.33,399.31Z" transform="translate(-493.97 -265.63)"/><path class="cls-7" d="M542.25,415.31c-.44.76-.88,1.52-1.33,2.27a4.07,4.07,0,0,0-.71,2.33c.08.76.84.9,1.4.54,1.36-.89,1.86-3,2.45-4.47S542.9,414.2,542.25,415.31Z" transform="translate(-493.97 -265.63)"/><path class="cls-7" d="M553.18,417.29a1.24,1.24,0,0,0-1.49.71c-.33.61-.68,1.22-1,1.83a10.2,10.2,0,0,1-.8,1.35c-.75.92.4,2.27,1.34,1.41a11,11,0,0,0,2.48-3.85A1.05,1.05,0,0,0,553.18,417.29Z" transform="translate(-493.97 -265.63)"/><path class="cls-7" d="M539.74,436.5a9.41,9.41,0,0,1-1.29,2.5.85.85,0,0,0,.08,1.19.86.86,0,0,0,1.16-.23,10.58,10.58,0,0,0,1.44-2.94C541.6,436,540.2,435.59,539.74,436.5Z" transform="translate(-493.97 -265.63)"/><path class="cls-7" d="M540.73,442.12c-.05.69-.65,1.3-.7,2.05a1,1,0,0,0,.87,1.22,1.32,1.32,0,0,0,1.33-1.36c0,.09,0,0,0-.1s.18-.36.26-.54a3.55,3.55,0,0,0,.34-1.39C543,440.67,540.82,441,540.73,442.12Z" transform="translate(-493.97 -265.63)"/><path class="cls-7" d="M521.28,437.15c-.72,1.49-.86,3.25-1.81,4.63-.47.68.22,1.57.93,1a4.65,4.65,0,0,0,1.62-2.39,24.65,24.65,0,0,1,.8-2.66C523.3,436.62,521.78,436.15,521.28,437.15Z" transform="translate(-493.97 -265.63)"/><path class="cls-7" d="M515.76,437.46a.81.81,0,0,0-1.1.21,4.42,4.42,0,0,0-.85,3.32c0,1,1.49.61,1.5-.29a2.83,2.83,0,0,1,.51-2.13A.79.79,0,0,0,515.76,437.46Z" transform="translate(-493.97 -265.63)"/><path class="cls-7" d="M519.94,455.57c-.14-1.57-2.44-1.27-2.56.16-.16,1.91-.51,4.16.89,5.7a1.36,1.36,0,0,0,2.32-1.09C520.37,458.75,520.07,457.18,519.94,455.57Z" transform="translate(-493.97 -265.63)"/><path class="cls-7" d="M531.23,466.93c-.54-1.11-.83-2.3-1.36-3.41-.62-1.27-2.58-.21-2,.94s.83,2.3,1.36,3.41S531.79,468.08,531.23,466.93Z" transform="translate(-493.97 -265.63)"/><path class="cls-7" d="M542,464.59c-.08,1.19-1,2.23-1.18,3.41s1.09,1.37,1.74.66a7.27,7.27,0,0,0,1.8-4.22C544.41,463,542.08,463.29,542,464.59Z" transform="translate(-493.97 -265.63)"/><path class="cls-7" d="M555.33,461.21A1.69,1.69,0,0,0,554,462.9a2.79,2.79,0,0,1-.43,1.24,4.88,4.88,0,0,0-.7,1.81,1.09,1.09,0,0,0,1.81,1,6.65,6.65,0,0,0,2.11-4.61A1.23,1.23,0,0,0,555.33,461.21Z" transform="translate(-493.97 -265.63)"/><path class="cls-7" d="M535.7,409.26A13.77,13.77,0,0,0,533,411.9c-.65.92-1.21,1.91-1.91,2.8-1.15,1.48.59,3.55,2.11,2.23a9.92,9.92,0,0,0,2.13-2.61,32,32,0,0,1,2-3.43A1.12,1.12,0,0,0,535.7,409.26Z" transform="translate(-493.97 -265.63)"/><path class="cls-7" d="M557.52,405.09c-.4,0-.57.69-.13.69S558,405.09,557.52,405.09Z" transform="translate(-493.97 -265.63)"/><path class="cls-7" d="M557.79,385.07a1.59,1.59,0,0,0-2.16.41,4.42,4.42,0,0,0-.81,1.53c-.06.18-.11.36-.17.54.09-.3-.06.17-.07.19a2.37,2.37,0,0,1-.17.41c0,.06-.27.42-.06.12a1.54,1.54,0,0,0-.13,1.77,1.35,1.35,0,0,0,2,.17,4,4,0,0,0,1.17-1.76c.09-.24.17-.48.27-.72a2.06,2.06,0,0,1,.12-.26s.13-.17.17-.21A1.57,1.57,0,0,0,557.79,385.07Z" transform="translate(-493.97 -265.63)"/></g></g></svg>