<svg id="Layer_2" data-name="Layer 2" xmlns="http://www.w3.org/2000/svg" viewBox="0 0 135.79 430.83"><defs><style>.cls-1{fill:#edca05;}.cls-2{fill:#dba109;}.cls-3{fill:#f9efa5;}</style></defs><title>mustardIcon</title><path class="cls-1" d="M642.15,317.39H596.89l14.91-66.55a5.28,5.28,0,0,1,5.11-4.18h5.22a5.3,5.3,0,0,1,5.12,4.18Z" transform="translate(-551.63 -246.66)"/><path class="cls-2" d="M659.21,315.92H580.4a3.88,3.88,0,0,0-3.88,3.87v27.92h86.57V319.79a3.88,3.88,0,0,0-3.88-3.87" transform="translate(-551.63 -246.66)"/><path class="cls-1" d="M666.59,677.5H572.45a20.83,20.83,0,0,1-20.82-20.83V345.39a12.06,12.06,0,0,1,12.06-12.07H675.34a12.06,12.06,0,0,1,12.07,12.07V656.67a20.83,20.83,0,0,1-20.82,20.83" transform="translate(-551.63 -246.66)"/><path class="cls-3" d="M578.38,478.07h-8.63a3.42,3.42,0,0,1-3.41-3.42V358.14a3.41,3.41,0,0,1,3.41-3.41h8.63a3.42,3.42,0,0,1,3.42,3.41V474.65a3.42,3.42,0,0,1-3.42,3.42" transform="translate(-551.63 -246.66)"/><path class="cls-3" d="M582.37,493.71a8.3,8.3,0,1,1-8.3-8.29,8.3,8.3,0,0,1,8.3,8.29" transform="translate(-551.63 -246.66)"/></svg>