<svg id="Layer_2" data-name="Layer 2" xmlns="http://www.w3.org/2000/svg" viewBox="0 0 494.52 598.49"><defs><style>.cls-1{fill:none;}.cls-2{fill:#c16c33;}.cls-3{fill:#efab7d;}.cls-4{fill:#e08f58;}</style></defs><title>onionIcon</title><path class="cls-1" d="M1284.63,886l-2.31-.43q0,9.46-.08,18.94C1283.34,898.42,1284.07,892.19,1284.63,886Z" transform="translate(-1073.73 -373.12)"/><path class="cls-1" d="M1300.35,923.38c1.42-11.22.94-23.16,1.77-34.69-1.25-.15-2.5-.28-3.75-.45l-1-.16c.77,8.87,1.24,17.78,1.79,26.69C1299.6,917.64,1300,920.51,1300.35,923.38Z" transform="translate(-1073.73 -373.12)"/><path class="cls-1" d="M1371.69,905.76a175.57,175.57,0,0,0-2.68,22.89A113.54,113.54,0,0,0,1371.69,905.76Z" transform="translate(-1073.73 -373.12)"/><path class="cls-1" d="M1327.78,890.73l-2.67-.1q1.1,5.49,1.65,11C1327.05,898,1327.41,894.37,1327.78,890.73Z" transform="translate(-1073.73 -373.12)"/><path class="cls-1" d="M1346.4,934.36a18.79,18.79,0,0,0,2.18-2.83,55.46,55.46,0,0,0,5.85-12.82,45.11,45.11,0,0,1-3.94,5.89A42,42,0,0,1,1346.4,934.36Z" transform="translate(-1073.73 -373.12)"/><path class="cls-1" d="M1267.77,898.85a83.42,83.42,0,0,0,5.39,10.63c-.14-8.6-.16-17.2-.12-25.8l-3.72-.86c-.66-.16-1.3-.35-2-.51a59.39,59.39,0,0,0-1.81,9.91A63.61,63.61,0,0,0,1267.77,898.85Z" transform="translate(-1073.73 -373.12)"/><path class="cls-1" d="M1344.42,897.28c.07-2.09.06-4.17.06-6.25h-1.14C1343.77,893.1,1344.14,895.19,1344.42,897.28Z" transform="translate(-1073.73 -373.12)"/><path class="cls-1" d="M1367.28,889.86l-1.72.13c.15,1.64.27,3.27.36,4.91Q1366.55,892.37,1367.28,889.86Z" transform="translate(-1073.73 -373.12)"/><path class="cls-2" d="M1378.32,888.51c-.74.1-1.48.21-2.23.3s-1.8.26-2.71.37l-2.31.27c-1,.12-1.92.25-2.89.34l-.9.07q-.73,2.5-1.36,5c-.09-1.64-.21-3.27-.36-4.91-1.56.13-3.13.25-4.69.36-1.21.08-2.41.2-3.61.27h-.13c-1.38.08-2.77.08-4.15.14-2.63.1-5.25.21-7.89.25l-.48,0h-.13c0,2.08,0,4.16-.06,6.25-.28-2.09-.65-4.18-1.08-6.25-1.92,0-3.85,0-5.77,0h-2c-.31,0-.6,0-.91,0-2.28,0-4.57-.17-6.86-.26-.37,3.64-.73,7.29-1,10.95q-.55-5.55-1.65-11l-.72,0c-3-.15-6-.37-9.05-.61l-.22,0-2.4-.19c-.44,0-.89-.07-1.33-.12-1.41-.13-2.83-.2-4.24-.35-.7-.07-1.41-.17-2.11-.25l-2.92-.36c-.83,11.53-.35,23.47-1.77,34.69-.32-2.87-.75-5.74-1.23-8.61-.55-8.91-1-17.82-1.79-26.69l-1-.16c-2.86-.41-5.71-.84-8.56-1.33h0c-.54-.09-1.09-.21-1.64-.31s-1-.19-1.48-.28c-.56,6.19-1.29,12.42-2.39,18.51q.1-9.46.08-18.94c-1.49-.29-3-.54-4.47-.85-.68-.14-1.37-.27-2-.42l-.73-.14c-.69-.15-1.36-.32-2-.48,0,8.6,0,17.2.12,25.8a83.42,83.42,0,0,1-5.39-10.63,63.61,63.61,0,0,1-2.21-6.63,59.39,59.39,0,0,1,1.81-9.91c-1.27-.31-2.53-.65-3.79-1l-1.3-.34c-.5-.13-1-.25-1.51-.39-1.27-.34-2.55-.66-3.81-1s-2.6-.79-3.91-1.18a80,80,0,0,0-8.14,38.42,3.14,3.14,0,0,0,6.14.83c2.58-8.21,4.4-16.44,6.74-24.29-3.17,20.86,1.26,43.45,15.39,57.6,2.17,2.16,5.27-.09,4.79-2.79-2-10.94-7.58-21-10.39-31.92a46.09,46.09,0,0,0,6.05,7.69c.1,2.57.14,5.14.28,7.7.28,5,6.94,4.72,7.53,0,.16-1.25.31-2.53.46-3.8a2.65,2.65,0,0,0,.24-2c1-8.51,2.09-17.38,3.41-26.24.06,9.5,1.24,18.73,4.25,26.71.6,8,1.4,16,2.59,24,.72,4.85,7.36,4.63,9.57,1.25a51.22,51.22,0,0,0,7.35-19.26c.69,1.87,1.45,3.69,2.31,5.46a60.09,60.09,0,0,1-7.72,16.58c-2.53,3.74,3.18,8,6.21,4.78a61.7,61.7,0,0,0,12.59-20.35c.49,1.21,1,2.42,1.55,3.58-.08,10,1,19.81,5.21,27.82a3,3,0,0,0,5.1,0c2.88-5.56,4-11.76,4.38-18.18,10.14-1.88,17.48-11.36,21.81-21.45-.64,8.65-1,17.31-1.57,25.79-.3,5,6.89,6.67,9.21,2.49a103.2,103.2,0,0,0,12.16-38.59c.31,1.55.6,3.11,1,4.63a2.41,2.41,0,0,0,4.61,0c3.23-11.65,2.93-25,1.69-37.84q-4,.71-8,1.29Zm-29.74,43a18.79,18.79,0,0,1-2.18,2.83,42,42,0,0,0,4.09-9.76,45.11,45.11,0,0,0,3.94-5.89A55.46,55.46,0,0,1,1348.58,931.53Zm20.43-2.88a175.57,175.57,0,0,1,2.68-22.89A113.54,113.54,0,0,1,1369,928.65Z" transform="translate(-1073.73 -373.12)"/><path class="cls-3" d="M1561.93,640.51c-5.62-53.84-40.07-104.45-85.21-132.95-27.43-17.31-60.28-23.47-87.7-40.59-2.87-1.79-5.47-3.6-7.9-5.43,1.66,2.38,3.31,4.81,5,7.34,11.35,17.22,24.61,28.65,42.06,39.5,30.24,18.82,53.37,38.19,76.13,65.8,19.35,23.48,32.92,47.45,40.15,73.18-1-4.83-2-9.65-3.28-14.45-5.69-22.29-12.37-44.8-26.26-63.53-12.28-16.56-28.23-30.12-43.32-44-1.68-1.55.74-3.82,2.45-2.45,18.44,14.78,39.6,27.42,54.48,46.14,15.14,19.06,22.32,43.08,27.89,66.41,10.9,45.73,12.24,96.25-8.58,139.14C1568.42,733.07,1574.05,685.27,1561.93,640.51Z" transform="translate(-1073.73 -373.12)"/><path class="cls-3" d="M1532.61,792.8c4.58-25.84,13.64-50.07,16.2-76.31-.45,3.37-1,6.79-1.59,10.24-.07.39-.73.3-.68-.09,3.61-29.76,4.88-61.62-6.65-89.86-12.11-29.69-33.3-52.49-54-76.35-22.59-26-53.93-39.18-81.67-58.43-21.93-15.22-30.73-44.18-48.2-63.62-.73-.81.22-2.22,1.21-1.57,1.51,1,2.94,2.05,4.31,3.12-10.07-17.48-11.15-37.67-16.93-63a4.55,4.55,0,0,0-4.67-3.85c5.16-.07-22.57,51.9-26,56.07-12.47,15-28.2,27-44.79,37.3C1220,496.9,1154,509.55,1116.21,556c-56.6,69.69-60.14,195.37,10.69,257.52,18.2,16,39.54,29.09,62.49,39.66-20.76-28.2-41.43-57.49-53.2-89.31-.31-.82.9-1.23,1.35-.57,13.67,20.48,24.88,42.54,38.63,63q10.11,15.06,20.41,30c5.54,2.4,11.13,4.7,16.82,6.81,7.16,3.44,14.49,6.51,21.93,9.31-27.52-32.21-54.24-66.74-67.9-105.85-15-43.07-22.16-94.62-5.4-138.2,12.86-33.42,43.12-60.28,70-82.6,32.45-27,66.57-52.63,89.58-88.71.45-.7,1.56-.06,1.13.66-38.46,64.31-117.35,94.16-149.85,161.82-24.14,50.27-7.88,98.16,13.07,146.23,10.63,24.37,19,53.45,34.18,75.27,8.37,12.06,17.31,23.65,26.24,35.26,2.22.73,4.47,1.37,6.71,2,1.31.39,2.6.82,3.91,1.18s2.54.69,3.81,1c.5.14,1,.26,1.51.39l1.3.34c1.26.33,2.52.67,3.79,1,.65.16,1.29.35,2,.51-.3-1.26-.64-2.52-1-3.78-.52-2.07-1.07-4.15-1.65-6.22-.35-1.28-.74-2.57-1.12-3.85q-1-3.36-2.13-6.73c-1.42-4.26-3-8.54-4.71-12.86-8.9-21.84-18.61-43.42-26.49-65.67-.44-1.22,1.47-1.72,1.92-.53,9.66,25.65,23,49.65,32.73,75.27.15.4.33.8.48,1.21.46,1.24.93,2.56,1.41,3.83.53,1.43,1.06,2.85,1.58,4.32.42,1.15.82,2.31,1.23,3.49.5,1.42,1,2.88,1.46,4.32s.93,2.67,1.35,4c-.4-2.74-.88-5.48-1.34-8.21-.12-.72-.23-1.45-.36-2.17-.19-1.13-.38-2.27-.59-3.4-.33-1.86-.69-3.72-1-5.58-.32-1.65-.61-3.3-.93-4.95-11.55-58.66-30.67-117.07-22.14-177.1,5.2-36.65,26.73-66.37,43.79-98.43,18.11-34,36.17-68.19,36.69-107.57a1,1,0,0,1,2.08,0c.47,72-47.8,129.66-68.63,195.93-19.61,62.36-.78,123.26,10.82,185,.12.65.25,1.29.36,1.93s.29,1.52.43,2.28c.37,2,.72,4,1.07,6,.12.73.25,1.45.37,2.18,1.08,6.37,2,12.75,2.85,19.14,1.49.31,3,.56,4.47.85l2.31.43c.49.09,1,.2,1.48.28s1.1.22,1.64.31h0c2.85.49,5.7.92,8.56,1.33l1,.16,1,.16q-.48-11.1-1-22.19c-.21-4.68-.42-9.38-.62-14.06l-.06-1.27c-1.62-38.16,4-73.05,10.2-110.49,3.67-22.05,6.51-44.67,7.4-67,.62-15.67-.15-31.84,2-47.39,5.25-37.48,19-73.54,20.2-111.57a.44.44,0,0,1,.87,0c-.58,38.29-16.09,74-18.18,112-2,36.5,1.54,72.81-4,109.22-6.26,41.23-12.73,80.22-10.41,122.12.22,3.89.51,7.81.79,11.73q.33,4.65.69,9.33c.29,3.56.57,7.12.86,10.7,1.41.15,2.83.22,4.24.35.44.05.89.08,1.33.12l2.4.19.22,0c3,.24,6,.46,9.05.61l.72,0,2.67.1c2.29.09,4.58.22,6.86.26.31,0,.6,0,.91,0q1.35-7.92,2.72-15.82c.1-.57.19-1.14.29-1.71.22-1.23.43-2.47.63-3.7.84-4.92,1.61-9.82,2.35-14.73.22-1.47.43-2.94.64-4.4.13-.94.28-1.88.41-2.81.3-2.3.59-4.6.9-6.89,3.62-27.43,6.94-54.89,9-82.49,4.7-63.11.45-125.1-11.27-187.24-.16-.87,1.14-1.25,1.34-.37,14.17,61.29,17.75,124.87,15.54,187.61a868.86,868.86,0,0,1-7.74,90.13c0,.1,0,.2,0,.3-.5,3.51-1,7.11-1.43,10.67-1.3,9.85-2.6,19.78-4,29.73-.08.58-.15,1.15-.24,1.73l.48,0c2.64,0,5.26-.15,7.89-.25,1.38-.06,2.77-.06,4.15-.14h.13c1.2-.07,2.4-.19,3.61-.27,1.56-.11,3.13-.23,4.69-.36l1.72-.13.9-.07c.41-2.2.83-4.41,1.25-6.6.19-1,.36-1.93.55-2.89,1.09-5.6,2.24-11.19,3.41-16.78,10-47.82,22.34-95.43,22.29-144.29-.07-68.15-8.48-134.72-36.84-197.38-.2-.46.47-.86.68-.4,27.45,60.66,41.67,124.75,46.64,191.1,3.95,52.7-11.5,101.45-25.64,150.86-.44,1.51-.87,3-1.3,4.54-.49,1.7-1,3.4-1.44,5.11-.21.78-.44,1.56-.66,2.35-1.27,4.58-2.53,9.16-3.74,13.77.91-.11,1.81-.25,2.71-.37s1.49-.2,2.23-.3l1.5-.2q4-.59,8-1.29c7-1.22,13.87-2.69,20.68-4.51.1-.28.22-.55.33-.83a668.19,668.19,0,0,0,20.8-63.81c12-44.24,22.91-93.78,16.76-139.8-10-75.12-63.73-133.54-83.16-205.59A.87.87,0,0,1,1365,472c21.11,74,81.44,132.82,87.63,211.62,3.57,45.41-4.44,92.3-16.87,135.89-5.93,20.82-13.51,41.14-21.31,61.33,2-.59,4-1.17,6-1.81,10.23-8.11,21.12-15.4,30.08-25.33A397.18,397.18,0,0,0,1483,811.83c1.79-2.6,6-.19,4.27,2.5-10.81,16.53-21.87,33.22-35.57,47.55-2.55,2.67-5.24,5.48-8.06,8.27,27.22-11,52.16-27.27,72.66-49.56a197.92,197.92,0,0,0,25.43-34.71q-2.57,4.29-5.47,8.45A2,2,0,0,1,1532.61,792.8Zm-399.29,1.63c-15-12.1-25.39-35.28-33.67-52.36-8.13-16.78-14.67-33.1-16.19-51.91-3-37.24,4.76-82.56,31.13-111,23.31-25.18,49.14-41,79.88-55.88,32.86-15.93,66.5-30.44,94.24-54.78,1.8-1.57,4.44,1,2.64,2.64-45.73,40.89-110.52,52.39-153.86,96.09-59.66,60.18-44.29,160.54-1.71,225.35C1136.83,794.13,1134.61,795.47,1133.32,794.43Zm169.6-321.24c-40,30.81-87.9,51.57-126.05,84.52-40.9,35.32-61.68,77.5-64.06,131.88a.61.61,0,0,1-1.21,0c-1-52,17.7-99.22,59.37-131.83,41.34-32.34,88.21-56.07,130.86-86.45C1303,470.49,1304,472.36,1302.92,473.19Zm-77.11,285.74a.19.19,0,0,1,0-.37A.19.19,0,0,1,1225.81,758.93ZM1244,608.6c-26.33,41.17-19.92,88.93-21.84,135.33a1.26,1.26,0,0,1-2.52,0c-2.3-46.56-3.84-95.77,22.63-136.35C1242.94,606.51,1244.66,607.5,1244,608.6Zm9-17.61a.19.19,0,0,1,0-.37A.19.19,0,0,1,1253,591Zm19.76-19.77a.18.18,0,0,1,0-.35A.18.18,0,0,1,1272.74,571.22ZM1511.15,776.8c-5.74,8.25-11.89,16.51-18.33,24.21-.29.35-.81-.1-.61-.47,4.65-8.77,10.92-16.94,16.31-25.27C1509.6,773.62,1512.27,775.2,1511.15,776.8Zm1.38-13c-.15.3-.59,0-.44-.26,2.29-4.68,4.65-9.39,4.81-14.69a.35.35,0,0,1,.7,0C1517.37,754.28,1514.93,759.08,1512.53,763.82Zm9.06-32.24c-.11,2.39-3.8,2.41-3.74,0,.88-34.68-9.48-69.76-22.12-101.8-10.36-26.28-23.25-49-45.06-67.24-30.89-25.8-77.07-51.77-84.83-95-.18-1,1.31-1.41,1.5-.42,5.19,26,26.46,42.68,46.35,58.11s41.08,29.39,59,47C1515,614.14,1524.18,674.62,1521.59,731.58Z" transform="translate(-1073.73 -373.12)"/><path class="cls-4" d="M1413.69,525.21c-19.89-15.43-41.16-32.12-46.35-58.11-.19-1-1.68-.56-1.5.42,7.76,43.25,53.94,69.22,84.83,95,21.81,18.22,34.7,41,45.06,67.24,12.64,32,23,67.12,22.12,101.8-.06,2.41,3.63,2.39,3.74,0,2.59-57-6.57-117.44-48.95-159.32C1454.77,554.6,1433.46,540.56,1413.69,525.21Z" transform="translate(-1073.73 -373.12)"/><path class="cls-4" d="M1516.9,748.87c-.16,5.3-2.52,10-4.81,14.69-.15.29.29.56.44.26,2.4-4.74,4.84-9.54,5.07-15A.35.35,0,0,0,1516.9,748.87Z" transform="translate(-1073.73 -373.12)"/><path class="cls-4" d="M1508.52,775.27c-5.39,8.33-11.66,16.5-16.31,25.27-.2.37.32.82.61.47,6.44-7.7,12.59-16,18.33-24.21C1512.27,775.2,1509.6,773.62,1508.52,775.27Z" transform="translate(-1073.73 -373.12)"/><path class="cls-4" d="M1487.27,814.33c1.77-2.69-2.48-5.1-4.27-2.5a397.18,397.18,0,0,1-32.55,41.89c-9,9.93-19.85,17.22-30.08,25.33a222.77,222.77,0,0,0,21.26-8c.68-.26,1.34-.57,2-.85,2.82-2.79,5.51-5.6,8.06-8.27C1465.4,847.55,1476.46,830.86,1487.27,814.33Z" transform="translate(-1073.73 -373.12)"/><path class="cls-4" d="M1373.38,889.18c1.21-4.61,2.47-9.19,3.74-13.77.22-.79.45-1.57.66-2.35.48-1.71,1-3.41,1.44-5.11.43-1.52.86-3,1.3-4.54,14.14-49.41,29.59-98.16,25.64-150.86-5-66.35-19.19-130.44-46.64-191.1-.21-.46-.88-.06-.68.4,28.36,62.66,36.77,129.23,36.84,197.38,0,48.86-12.24,96.47-22.29,144.29-1.17,5.59-2.32,11.18-3.41,16.78-.19,1-.36,1.92-.55,2.89-.42,2.19-.84,4.4-1.25,6.6,1-.09,1.93-.22,2.89-.34Z" transform="translate(-1073.73 -373.12)"/><path class="cls-4" d="M1185.92,765.81c-21-48.07-37.21-96-13.07-146.23,32.5-67.66,111.39-97.51,149.85-161.82.43-.72-.68-1.36-1.13-.66-23,36.08-57.13,61.71-89.58,88.71-26.84,22.32-57.1,49.18-70,82.6-16.76,43.58-9.65,95.13,5.4,138.2,13.66,39.11,40.38,73.64,67.9,105.85,3.64,1.36,7.31,2.67,11,3.88-8.93-11.61-17.87-23.2-26.24-35.26C1205,819.26,1196.55,790.18,1185.92,765.81Z" transform="translate(-1073.73 -373.12)"/><path class="cls-4" d="M1137.54,763.31c-.45-.66-1.66-.25-1.35.57,11.77,31.82,32.44,61.11,53.2,89.31,2.37,1.09,4.78,2.12,7.19,3.15q-10.26-15-20.41-30C1162.42,805.85,1151.21,783.79,1137.54,763.31Z" transform="translate(-1073.73 -373.12)"/><path class="cls-4" d="M1301.83,471.31c-42.65,30.38-89.52,54.11-130.86,86.45-41.67,32.61-60.42,79.79-59.37,131.83a.61.61,0,0,0,1.21,0c2.38-54.38,23.16-96.56,64.06-131.88,38.15-33,86.07-53.71,126.05-84.52C1304,472.36,1303,470.49,1301.83,471.31Z" transform="translate(-1073.73 -373.12)"/><path class="cls-4" d="M1272.74,571.22a.18.18,0,0,0,0-.35A.18.18,0,0,0,1272.74,571.22Z" transform="translate(-1073.73 -373.12)"/><path class="cls-4" d="M1253,591a.19.19,0,0,0,0-.37A.19.19,0,0,0,1253,591Z" transform="translate(-1073.73 -373.12)"/><path class="cls-4" d="M1242.24,607.58c-26.47,40.58-24.93,89.79-22.63,136.35a1.26,1.26,0,0,0,2.52,0c1.92-46.4-4.49-94.16,21.84-135.33C1244.66,607.5,1242.94,606.51,1242.24,607.58Z" transform="translate(-1073.73 -373.12)"/><path class="cls-4" d="M1225.81,758.93a.19.19,0,0,0,0-.37A.19.19,0,0,0,1225.81,758.93Z" transform="translate(-1073.73 -373.12)"/><path class="cls-4" d="M1275.07,884.16l.73.14c.68.15,1.37.28,2,.42-.8-6.39-1.77-12.77-2.85-19.14-.12-.73-.25-1.45-.37-2.18-.35-2-.7-4-1.07-6-.14-.76-.28-1.52-.43-2.28s-.24-1.28-.36-1.93c-11.6-61.7-30.43-122.6-10.82-185,20.83-66.27,69.1-123.94,68.63-195.93a1,1,0,0,0-2.08,0c-.52,39.38-18.58,73.54-36.69,107.57-17.06,32.06-38.59,61.78-43.79,98.43-8.53,60,10.59,118.44,22.14,177.1.32,1.65.61,3.3.93,4.95.35,1.86.71,3.72,1,5.58.21,1.13.4,2.27.59,3.4.13.72.24,1.45.36,2.17.46,2.73.94,5.47,1.34,8.21-.42-1.37-.9-2.68-1.35-4s-1-2.9-1.46-4.32c-.41-1.18-.81-2.34-1.23-3.49-.52-1.47-1.05-2.89-1.58-4.32-.48-1.27-1-2.59-1.41-3.83-.15-.41-.33-.81-.48-1.21-9.73-25.62-23.07-49.62-32.73-75.27-.45-1.19-2.36-.69-1.92.53,7.88,22.25,17.59,43.83,26.49,65.67,1.76,4.32,3.29,8.6,4.71,12.86q1.13,3.38,2.13,6.73c.38,1.28.77,2.57,1.12,3.85.58,2.07,1.13,4.15,1.65,6.22.32,1.26.66,2.52,1,3.78l3.72.86C1273.71,883.84,1274.38,884,1275.07,884.16Z" transform="translate(-1073.73 -373.12)"/><path class="cls-4" d="M1343.34,891h1.27c.09-.58.16-1.15.24-1.73,1.44-9.95,2.74-19.88,4-29.73.47-3.56.93-7.16,1.43-10.67,0-.1,0-.2,0-.3a868.86,868.86,0,0,0,7.74-90.13c2.21-62.74-1.37-126.32-15.54-187.61-.2-.88-1.5-.5-1.34.37,11.72,62.14,16,124.13,11.27,187.24-2.06,27.6-5.38,55.06-9,82.49-.31,2.29-.6,4.59-.9,6.89-.13.93-.28,1.87-.41,2.81-.21,1.46-.42,2.93-.64,4.4-.74,4.91-1.51,9.81-2.35,14.73-.2,1.23-.41,2.47-.63,3.7-.1.57-.19,1.14-.29,1.71q-1.37,7.9-2.72,15.82h2C1339.49,891,1341.42,891,1343.34,891Z" transform="translate(-1073.73 -373.12)"/><path class="cls-4" d="M1452.59,683.64C1446.4,604.84,1386.07,546,1365,472a.87.87,0,0,0-1.68.46c19.43,72,73.11,130.47,83.16,205.59,6.15,46-4.74,95.56-16.76,139.8a668.19,668.19,0,0,1-20.8,63.81c-.11.28-.23.55-.33.83,2-.52,3.91-1.08,5.86-1.65,7.8-20.19,15.38-40.51,21.31-61.33C1448.15,775.94,1456.16,729.05,1452.59,683.64Z" transform="translate(-1073.73 -373.12)"/><path class="cls-4" d="M1305,889.05c.7.08,1.41.18,2.11.25-.29-3.58-.57-7.14-.86-10.7q-.36-4.68-.69-9.33c-.28-3.92-.57-7.84-.79-11.73-2.32-41.9,4.15-80.89,10.41-122.12,5.53-36.41,2-72.72,4-109.22,2.09-37.92,17.6-73.67,18.18-112a.44.44,0,0,0-.87,0c-1.22,38-15,74.09-20.2,111.57-2.17,15.55-1.4,31.72-2,47.39-.89,22.36-3.73,45-7.4,67-6.23,37.44-11.82,72.33-10.2,110.49l.06,1.27c.2,4.68.41,9.38.62,14.06q.51,11.1,1,22.19c1.25.17,2.5.3,3.75.45Z" transform="translate(-1073.73 -373.12)"/><path class="cls-4" d="M1137.49,567.19c43.34-43.7,108.13-55.2,153.86-96.09,1.8-1.61-.84-4.21-2.64-2.64-27.74,24.34-61.38,38.85-94.24,54.78-30.74,14.91-56.57,30.7-79.88,55.88-26.37,28.48-34.14,73.8-31.13,111,1.52,18.81,8.06,35.13,16.19,51.91,8.28,17.08,18.68,40.26,33.67,52.36,1.29,1,3.51-.3,2.46-1.89C1093.2,727.73,1077.83,627.37,1137.49,567.19Z" transform="translate(-1073.73 -373.12)"/><path class="cls-4" d="M1556.39,635.44c-5.57-23.33-12.75-47.35-27.89-66.41-14.88-18.72-36-31.36-54.48-46.14-1.71-1.37-4.13.9-2.45,2.45,15.09,13.92,31,27.48,43.32,44,13.89,18.73,20.57,41.24,26.26,63.53,1.23,4.8,2.29,9.62,3.28,14.45-7.23-25.73-20.8-49.7-40.15-73.18-22.76-27.61-45.89-47-76.13-65.8-17.45-10.85-30.71-22.28-42.06-39.5-1.66-2.53-3.31-5-5-7.34a71.86,71.86,0,0,1-19.59-21.61c-1.37-1.07-2.8-2.11-4.31-3.12-1-.65-1.94.76-1.21,1.57,17.47,19.44,26.27,48.4,48.2,63.62,27.74,19.25,59.08,32.42,81.67,58.43,20.71,23.86,41.9,46.66,54,76.35,11.53,28.24,10.26,60.1,6.65,89.86,0,.39.61.48.68.09.63-3.45,1.14-6.87,1.59-10.24-2.56,26.24-11.62,50.47-16.2,76.31a2,2,0,0,0,3.65,1.53q2.91-4.16,5.47-8.45l.75-1.28q1.93-3.32,3.67-6.72c.57-1.09,1.11-2.2,1.66-3.3C1568.63,731.69,1567.29,681.17,1556.39,635.44Z" transform="translate(-1073.73 -373.12)"/></svg>