<svg id="Layer_2" data-name="Layer 2" xmlns="http://www.w3.org/2000/svg" viewBox="0 0 232.31 358.67"><defs><style>.cls-1{fill:#ffd983;}.cls-2{fill:#ffcd5f;}.cls-3{fill:#f9c050;}.cls-4{fill:#a97c50;}</style></defs><title>pastaIcon</title><path class="cls-1" d="M552.25,429a14.92,14.92,0,0,0-6,16.75c3,11.36,15,16.15,12,21.54s-18.55,9-16.16,25.72,13.76,21.54,19.75,29.32c0,0-19.05,13.76-20,22.73s4.44,19.15,16.41,31.71c0,0-18,12.57-20.94,23.93s8.37,23.93,18.54,32.31c0,0-15.24,8.59-19,26.45s1.05,29.77,7.38,31.63,12.65-6,22.7,0,16.37,18.24,20.84,16.38,15.62-11.54,13.39-39.08c0,0,8.19-6.69,13-23.81s1.48-35.35-4.1-43.17c0,0,11.17-12.65,10.79-25.3S619,553.45,613,547.49c0,0,8.21-11.91,7.82-32.37S612.66,488,612.66,488a43.18,43.18,0,0,0,6-39.07c-7.44-22.7-22.7-30.14-27.16-29s-10.42,17.86-19,20.84c-6.47,2.25-13.36-6.55-16.35-11a2.7,2.7,0,0,0-3.87-.67Z" transform="translate(-389.67 -350.95)"/><path class="cls-2" d="M586.74,705c-1.14-.09-4.21-3.35-6.26-5.52-3.25-3.45-7.3-7.74-12.22-10.66a17.59,17.59,0,0,0-9.16-2.66,26.71,26.71,0,0,0-8,1.53,17.59,17.59,0,0,1-4.79,1,4.5,4.5,0,0,1-1.35-.19c-2.34-.68-4.45-3.66-5.65-8-1.1-3.89-2-10.62.14-20.53,3.48-16.39,17.59-24.59,17.73-24.67l3.4-1.93-3-2.49c-18.19-15-18.87-24.94-17.66-29.54,2.7-10.28,19.71-22.29,19.88-22.41l2.56-1.8L560.19,575c-11.55-12.12-16.53-21.51-15.68-29.57.6-5.65,11.91-15.78,18.89-20.83l2.25-1.63L564,520.73a54.18,54.18,0,0,0-6.34-6.55c-5.55-5.13-11.29-10.43-12.87-21.51-1.46-10.22,4.6-14.62,9.94-18.5,2.54-1.84,4.73-3.43,5.9-5.54,2.46-4.43-1-8.18-4.26-11.82-2.88-3.17-6.15-6.76-7.45-11.71a12.28,12.28,0,0,1,4.76-13.76l.11-.06.11-.08c3.88,5.73,9.85,12.55,16.46,12.55a9.15,9.15,0,0,0,3-.52c5.76-2,10-8.46,13.69-14.16,1.61-2.46,4-6.19,5.1-6.62h.29c1.49,0,5.64,1.23,10.67,5.88,3.89,3.59,9.29,10.22,12.95,21.4a40.59,40.59,0,0,1-5.48,36.53l-1.66,2,2,1.72s6.9,6.44,7.25,25.17c.36,19.38-7.27,30.68-7.35,30.8l-1.27,1.84,1.59,1.59c5.65,5.64,6.71,16.23,7,26.83.34,11.41-10,23.32-10.12,23.44l-1.41,1.61,1.24,1.74c2.59,3.62,4.63,9.92,5.47,16.85a61.9,61.9,0,0,1-1.77,24c-4.51,16-12.08,22.41-12.15,22.47l-1.07.89.1,1.4C600.38,692.66,591.66,702.91,586.74,705Z" transform="translate(-389.67 -350.95)"/><path class="cls-3" d="M618.16,515.17C617.81,496.44,611,490,610.91,490l-2-1.72a79.36,79.36,0,0,0-25.65-24.14c-16.75-9.68-27.59-12.77-32.22-30.39h0a12.29,12.29,0,0,0-2.16,11.35c1.3,4.95,4.57,8.54,7.45,11.71,0,0,11.67,10.67,24.32,20.72s32.78,25.74,35.73,54.43A66.25,66.25,0,0,0,618.16,515.17Z" transform="translate(-389.67 -350.95)"/><path class="cls-3" d="M611.46,595.07c3-4.53,6.9-11.78,6.69-18.84-.31-10.6-1.37-21.19-7-26.83l-1.59-1.59.38-.55c-8.63-14.91-17.64-22-39.68-35.12-22.69-13.54-24.11-28.75-24.15-29.26a16.06,16.06,0,0,0-1.34,9.79c1.58,11.08,7.32,16.38,12.87,21.51a54.18,54.18,0,0,1,6.34,6.55l1.69,2.19-1.84,1.34c10.43,9.47,25.83,17,38.06,29.93C614.89,568,611.46,595.07,611.46,595.07Z" transform="translate(-389.67 -350.95)"/><path class="cls-3" d="M613.33,619.87c-.84-6.93-2.88-13.23-5.47-16.85l-1.24-1.74C597.52,585,590,582.1,569.86,567.59s-22-28.61-22-28.61h0c-1.86,2.38-3.12,4.61-3.31,6.4-.85,8.06,4.13,17.45,15.68,29.57l2.15,2.27s6,4.51,24.64,21.25,24.58,45.42,24.58,45.42A61.9,61.9,0,0,0,613.33,619.87Z" transform="translate(-389.67 -350.95)"/><path class="cls-3" d="M557.21,618.57c-15.26-12.28-14.15-23.5-14.15-23.5h0a20.85,20.85,0,0,0-3.16,6.36c-1.21,4.6-.53,14.57,17.66,29.54l3,2.49c25.31,29.4,3.72,53.55,3.72,53.55h0a19.72,19.72,0,0,1,4,1.81c4.92,2.92,9,7.21,12.22,10.66,2,2.17,5.12,5.43,6.26,5.52,4.92-2.09,13.64-12.34,11.7-36.35C594.64,648.77,572.47,630.85,557.21,618.57Z" transform="translate(-389.67 -350.95)"/><path class="cls-4" d="M552.25,429l-.13-.19v0l0,0v-.09a.59.59,0,0,1,.07-.23,1.62,1.62,0,0,1,.56-.55,2.88,2.88,0,0,1,2.58-.15,3.74,3.74,0,0,1,1.27.87,4.26,4.26,0,0,1,.46.57l.31.45c.41.59.83,1.17,1.27,1.72a34.21,34.21,0,0,0,2.65,3.12,19.68,19.68,0,0,0,5.86,4.48,7.69,7.69,0,0,0,3.08.71l.74-.06a4.09,4.09,0,0,0,.69-.17l.35-.1a3.68,3.68,0,0,0,.35-.15,5,5,0,0,0,.7-.34,17.81,17.81,0,0,0,4.85-4.44,67.57,67.57,0,0,0,4-5.85c1.32-2.09,2.62-4.28,4.25-6.57.43-.57.86-1.15,1.38-1.73a9.7,9.7,0,0,1,2-1.74c.24-.14.47-.28.73-.4a4.78,4.78,0,0,1,.89-.28,6.16,6.16,0,0,1,1.55-.13,10.87,10.87,0,0,1,2.63.44,25.26,25.26,0,0,1,8.82,4.94,44.69,44.69,0,0,1,9.17,10.64,60.62,60.62,0,0,1,6.93,15.84,41.33,41.33,0,0,1,1,4.65l.39,2.4c.11.81.13,1.64.2,2.46a42,42,0,0,1,.06,5c0,.84-.14,1.68-.21,2.53a24.2,24.2,0,0,1-.34,2.54,43.63,43.63,0,0,1-2.89,10,46.35,46.35,0,0,1-2.31,4.76c-.45.76-.89,1.53-1.39,2.27l-.36.56-.32.45c-.15.23-.35.45-.49.67.15.14.29.31.44.48l.22.27c.11.14.22.28.32.43.43.57.81,1.18,1.19,1.78a30.55,30.55,0,0,1,1.89,3.8,44.76,44.76,0,0,1,2.41,8,72,72,0,0,1,1.24,16.35,72.86,72.86,0,0,1-2.25,15.46,65.56,65.56,0,0,1-2.31,7c-.44,1.11-.91,2.21-1.43,3.27-.25.53-.51,1.05-.79,1.56l-.3.56-.26.46c0,.08.14.15.19.22a10.59,10.59,0,0,1,.94,1l.57.73c.18.25.35.51.52.76a15.12,15.12,0,0,1,1,1.58c.32.53.57,1.1.84,1.65a34.3,34.3,0,0,1,2.26,7,83,83,0,0,1,1.56,14.64,34.25,34.25,0,0,1-.06,3.78l-.24,1.89c-.08.63-.26,1.24-.38,1.86a36.54,36.54,0,0,1-2.47,7.07,54.21,54.21,0,0,1-3.59,6.47c-.67,1-1.36,2-2.09,3-.36.49-.74,1-1.12,1.45s-.53.66-.76.93c.1.19.24.4.36.6l.19.3a2.68,2.68,0,0,1,.21.37c.33.63.67,1.26,1,1.9l.83,1.94.71,2a57.6,57.6,0,0,1,1.92,8,69.12,69.12,0,0,1,.65,15.72,68,68,0,0,1-2.63,14.38,73.19,73.19,0,0,1-4.78,12.37,45.35,45.35,0,0,1-3.11,5.35c-.59.89-1.24,1.77-1.94,2.63-.35.44-.72.86-1.1,1.29l-.56.59-.13.15a.7.7,0,0,0,0,.16v0a.24.24,0,0,1,0,.09l0,.36c0,.48.07,1,.11,1.44,0,1,.19,1.94.17,2.93,0,2,.11,4,0,6.1a51.19,51.19,0,0,1-2.18,12.88c-.4,1.07-.74,2.18-1.2,3.26a32.67,32.67,0,0,1-1.56,3.21,25.49,25.49,0,0,1-4.37,6,20.2,20.2,0,0,1-3,2.54,15.11,15.11,0,0,1-1.82,1l-.25.12a1.54,1.54,0,0,1-.3.12,4.28,4.28,0,0,1-.78.21,4.68,4.68,0,0,1-1.54,0,6.62,6.62,0,0,1-2.36-.93,13.9,13.9,0,0,1-1.72-1.26,36.86,36.86,0,0,1-2.84-2.71c-3.5-3.68-6.8-7.52-10.88-10.52a18.29,18.29,0,0,0-6.52-3.27,14.65,14.65,0,0,0-7.39.38c-1.3.34-2.64.78-4.09,1.15a13.37,13.37,0,0,1-4.77.5,9,9,0,0,1-4.7-2,13.59,13.59,0,0,1-3.11-3.77,26,26,0,0,1-2.87-8.93,45.2,45.2,0,0,1-.33-9.38,62.94,62.94,0,0,1,1.64-10.38,38.52,38.52,0,0,1,4-10,44.69,44.69,0,0,1,6.59-8.84,46.43,46.43,0,0,1,4.1-3.82c.72-.59,1.49-1.18,2.22-1.72l.8-.55q.36-.24.72-.45c.09,0,0-.07,0-.1l-.13-.11-.24-.21-.49-.42-.63-.54-.8-.72q-1.6-1.44-3.15-3a67.76,67.76,0,0,1-5.86-6.54,42,42,0,0,1-4.78-7.56A22,22,0,0,1,536,605c0-.78,0-1.57.12-2.35s.24-1.56.46-2.32.47-1.5.78-2.22.66-1.41,1-2.11a42.32,42.32,0,0,1,5.45-7.49,79.52,79.52,0,0,1,6.58-6.53c1.16-1,2.34-2,3.55-3q.9-.73,1.83-1.44l1.06-.8c-.23-.27-.52-.55-.77-.83l-.65-.68-.69-.78-1.4-1.56L552,571.23a75.48,75.48,0,0,1-5.08-6.76,45.64,45.64,0,0,1-4.09-7.54,26.68,26.68,0,0,1-2.11-8.49,20.76,20.76,0,0,1,0-2.23l.07-1.12c0-.38.11-.79.19-1.18a15.08,15.08,0,0,1,1.78-4.19,40.44,40.44,0,0,1,5.38-6.89c2-2.1,4.1-4.06,6.27-6q1.64-1.41,3.31-2.77l1.68-1.32.79-.6c-.1-.15-.25-.31-.37-.47s-.13-.15-.2-.23l-.4-.42c-.6-.66-1.26-1.29-1.9-1.93l-4.06-3.79a48.94,48.94,0,0,1-6.38-7.07,31.29,31.29,0,0,1-4.22-8.2,33.43,33.43,0,0,1-1.78-8.61,23.07,23.07,0,0,1,.06-4.32c.14-.7.27-1.4.41-2.1a15.8,15.8,0,0,1,.64-2,19.61,19.61,0,0,1,4.43-6.77,41.71,41.71,0,0,1,5.78-4.74c1.91-1.38,3.88-2.67,5-4.24a2.69,2.69,0,0,0,.57-2.43,7.39,7.39,0,0,0-1.31-2.53c-1.19-1.61-2.61-3.08-3.88-4.56a43.26,43.26,0,0,1-3.5-4.52,22.34,22.34,0,0,1-3.71-9.39,15,15,0,0,1,4.77-13.37c1-.88,1.84-1.17,2.22-1.06s.33.51-.29,1.27h0a13.49,13.49,0,0,1-1,1.07l-.18.19c-.11.12-.3.29-.51.55a14.75,14.75,0,0,0-1.67,2.32,13.57,13.57,0,0,0-1.47,4.14,14,14,0,0,0,.2,5.76,19.74,19.74,0,0,0,2.69,6.46,44.33,44.33,0,0,0,5.07,6.35c1,1.08,2,2.17,3,3.46a11.75,11.75,0,0,1,1.34,2.17,5.56,5.56,0,0,1,.53,2.95,4.85,4.85,0,0,1-.44,1.52,6.49,6.49,0,0,1-.77,1.22,6.62,6.62,0,0,1-.88,1l-.46.47-.47.4c-1.26,1.09-2.54,2-3.78,2.88a32.41,32.41,0,0,0-6.57,5.93,15.3,15.3,0,0,0-3.25,7.47l-.09.49c0,.17,0,.34,0,.5,0,.34,0,.67-.05,1l0,1c0,.33,0,.67.08,1,.05.66.11,1.31.16,1.95l.36,1.92c0,.32.11.63.17.94s.16.61.25.91q.24.9.48,1.77a32.91,32.91,0,0,0,1.26,3.23,32,32,0,0,0,6,8.86c.9,1,1.65,1.7,2.17,2.2s.79.76.79.76l4.08,3.81c.67.66,1.35,1.31,2,2l.56.6.75.89c.49.6,1,1.2,1.47,1.79-1,.71-2,1.46-2.88,2.14l-1.67,1.32c-1.1.88-2.18,1.79-3.25,2.71a83.12,83.12,0,0,0-6.08,5.78,37.61,37.61,0,0,0-5,6.43,12.85,12.85,0,0,0-1.49,3.47,8.3,8.3,0,0,0-.14.87l-.06,1a18.31,18.31,0,0,0,0,2c.37,5.26,2.82,10.28,5.79,14.8a74.37,74.37,0,0,0,4.91,6.54l1.32,1.56,1.37,1.53.68.76.82.88,2.53,2.71L559,578.3l-.85.62-.77.58c-.6.46-1.2.93-1.79,1.41-1.18,1-2.33,1.94-3.46,2.93a77.45,77.45,0,0,0-6.36,6.32c-3.85,4.39-7.4,9.42-7.17,14.74a19.36,19.36,0,0,0,2.08,7.84,39.6,39.6,0,0,0,4.49,7.09,63.56,63.56,0,0,0,5.64,6.3c1,1,2,2,3.06,2.88l.78.7.46.41.75.64,3,2.55-2.36,1.4c-.42.24-.69.44-1,.66l-1,.65c-.78.57-1.44,1.07-2.14,1.65a44.31,44.31,0,0,0-3.88,3.61,42.08,42.08,0,0,0-6.21,8.33,35.74,35.74,0,0,0-3.75,9.39,60.69,60.69,0,0,0-1.58,9.93,41.93,41.93,0,0,0,.3,8.84,23.73,23.73,0,0,0,2.55,8.05,11.37,11.37,0,0,0,2.51,3.08,6.41,6.41,0,0,0,3.36,1.47,10.93,10.93,0,0,0,3.88-.43c1.34-.33,2.67-.78,4.06-1.14a17.45,17.45,0,0,1,8.61-.42,20.61,20.61,0,0,1,7.47,3.7c4.37,3.22,7.78,7.21,11.21,10.8a34.72,34.72,0,0,0,2.64,2.53,6.79,6.79,0,0,0,2.87,1.64,2.35,2.35,0,0,0,.7,0,2.38,2.38,0,0,0,.69-.26,11.92,11.92,0,0,0,1.48-.83,18.48,18.48,0,0,0,2.61-2.21,23.54,23.54,0,0,0,4-5.45,28.08,28.08,0,0,0,1.43-3c.44-1,.75-2,1.13-3.05A48.64,48.64,0,0,0,600.47,680c.15-2,.07-4,0-5.89,0-1-.12-1.91-.17-2.84,0-.47-.07-.94-.11-1.4l-.06-.84c0-.36-.06-.7-.06-1,.3-.28.61-.55.89-.84s.37-.39.56-.59c.35-.38.69-.77,1-1.18a30.62,30.62,0,0,0,1.81-2.47,42.41,42.41,0,0,0,2.94-5.08,71.55,71.55,0,0,0,4.59-11.9A66.19,66.19,0,0,0,613.81,617a55,55,0,0,0-1.82-7.61l-.66-1.85-.77-1.79c-.27-.59-.58-1.15-.88-1.73a5.13,5.13,0,0,0-.37-.62l-.45-.7L608,601.3l1.06-1.23.47-.57.39-.48c.36-.45.71-.91,1.06-1.38.7-.94,1.36-1.9,2-2.88a50.64,50.64,0,0,0,3.42-6.15,33.73,33.73,0,0,0,2.31-6.59c.11-.57.28-1.13.35-1.7l.22-1.7c.06-.57,0-1.14.07-1.71a17.61,17.61,0,0,0,0-1.77,80,80,0,0,0-1.51-14.21,31.06,31.06,0,0,0-2.1-6.52,14.82,14.82,0,0,0-.75-1.49,14.17,14.17,0,0,0-.86-1.4l-.45-.67-.51-.63-.25-.31a1.55,1.55,0,0,0-.15-.18l-.26-.28-1.09-1.16-.58-.63c.28-.44.59-.89.86-1.35s.63-1,.69-1.17c.26-.48.5-1,.74-1.47.48-1,.93-2,1.35-3.1a64.48,64.48,0,0,0,2.21-6.72A70.52,70.52,0,0,0,618.79,519a68.57,68.57,0,0,0-1.18-15.74,41.45,41.45,0,0,0-2.26-7.56,28.13,28.13,0,0,0-1.72-3.48c-.34-.53-.68-1.07-1-1.57l-.27-.37c-.17-.2-.4-.48-.62-.72l-1.43-1.42c.5-.65,1.06-1.32,1.54-2l.52-.73.34-.52c.46-.69.87-1.41,1.3-2.13a44.24,44.24,0,0,0,2.18-4.49,40.91,40.91,0,0,0,2.73-9.43,19.73,19.73,0,0,0,.32-2.4c.07-.8.21-1.59.21-2.39a39,39,0,0,0-.06-4.72c-.06-.78-.08-1.55-.18-2.32l-.36-2.27a39.09,39.09,0,0,0-1-4.4,58.32,58.32,0,0,0-6.61-15.18,42.32,42.32,0,0,0-8.64-10.05,23.53,23.53,0,0,0-7.91-4.52,8.67,8.67,0,0,0-2-.36,2.87,2.87,0,0,0-1.78.39,12.26,12.26,0,0,0-2.72,2.84c-3.1,4.28-5.48,8.61-8.62,12.34a19.43,19.43,0,0,1-5.57,4.81,8.42,8.42,0,0,1-.86.4l-.45.18-.47.12a8,8,0,0,1-1,.21l-1,.05a9.4,9.4,0,0,1-3.81-.95,21.78,21.78,0,0,1-6.33-4.94,42.18,42.18,0,0,1-2.73-3.27c-.44-.57-.87-1.17-1.3-1.78a6.7,6.7,0,0,0-.6-.83,2,2,0,0,0-.71-.5,3.69,3.69,0,0,0-1.6-.28h-.6a.69.69,0,0,1-.22,0l-.09,0,0,0,0,0h0Z" transform="translate(-389.67 -350.95)"/><path class="cls-1" d="M392.35,378.27A14.93,14.93,0,0,0,393.56,396c7.29,9.22,20.17,8.83,19.58,15s-13.42,15.64-4.53,30,21.22,14.24,29.81,19c0,0-11.95,20.22-9.24,28.83s11.72,15.78,27.71,22.51c0,0-11.43,18.69-9.63,30.31s17.24,18.59,29.91,22.2c0,0-10.54,14-6.87,31.85s12.86,26.88,19.4,26,9.22-10.51,20.81-9.07,22.3,10.17,25.64,6.68,9.72-16.82-3.33-41.17c0,0,4.83-9.41,2.42-27s-12.76-33-21-37.93c0,0,5.17-16.06-.22-27.51s-10.78-20.06-18.62-23.14c0,0,2.76-14.2-5.77-32.81s-18.36-21.62-18.36-21.62a43.2,43.2,0,0,0-10.16-38.2c-15.9-17.83-32.86-18.56-36.5-15.75s-2.42,20.54-9.07,26.69c-5,4.64-14.87-.67-19.37-3.54a2.72,2.72,0,0,0-3.82.93Z" transform="translate(-389.67 -350.95)"/><path class="cls-2" d="M534.25,617.46c-1.08.37-5.2-1.39-7.94-2.56-4.36-1.87-9.79-4.18-15.47-4.89a17.63,17.63,0,0,0-9.46,1.23,26.33,26.33,0,0,0-6.73,4.6,17.46,17.46,0,0,1-4,2.87,4.76,4.76,0,0,1-1.32.37c-2.41.3-5.53-1.58-8.35-5-2.56-3.13-6-8.95-8.07-18.88-3.37-16.42,6.29-29.56,6.39-29.69l2.34-3.13-3.76-1.08c-22.65-6.46-27.26-15.32-28-20-1.63-10.49,9.16-28.31,9.27-28.49l1.63-2.67-2.88-1.21c-15.43-6.5-23.75-13.12-26.19-20.84-1.71-5.43,4.61-19.23,9-26.65l1.41-2.39-2.43-1.34a53.64,53.64,0,0,0-8.42-3.47c-7.14-2.48-14.52-5.05-20.4-14.57-5.42-8.78-1.62-15.24,1.72-20.93,1.59-2.7,3-5,3.2-7.43.48-5.05-4.15-7.13-8.63-9.14-3.92-1.75-8.35-3.74-11.52-7.75-6-7.55-1.18-14.45-1.13-14.52l.08-.1.06-.12c5.85,3.7,14.05,7.57,20.11,4.92a9,9,0,0,0,2.57-1.68c4.48-4.13,5.76-11.74,6.89-18.45.49-2.9,1.23-7.29,2-8.1h0a1.28,1.28,0,0,1,.26-.13c1.37-.6,5.66-1.13,12.13,1.12,5,1.74,12.61,5.66,20.43,14.44a40.6,40.6,0,0,1,9.57,35.68l-.71,2.53,2.52.77s8.9,3.15,16.71,20.17c8.07,17.62,5.59,31,5.57,31.17l-.43,2.2,2.09.82c7.43,2.92,12.64,12.2,17.16,21.79,4.87,10.33.14,25.38.09,25.54l-.65,2,1.83,1.1c3.82,2.28,8.21,7.24,11.76,13.26a61.92,61.92,0,0,1,8,22.73c2.25,16.42-2.11,25.36-2.15,25.45l-.63,1.25.66,1.24C541.83,600.69,537.93,613.58,534.25,617.46Z" transform="translate(-389.67 -350.95)"/><path class="cls-3" d="M487.19,430.88c-7.81-17-16.66-20.15-16.71-20.17l-2.52-.77a79.43,79.43,0,0,0-33.16-11.89c-19.22-2.17-30.39-.67-41.68-15h0a12.32,12.32,0,0,0,2.55,11.28c3.17,4,7.6,6,11.52,7.75,0,0,15,5.12,30.57,9.27s40.34,10.5,54.5,35.62A66.08,66.08,0,0,0,487.19,430.88Z" transform="translate(-389.67 -350.95)"/><path class="cls-3" d="M513,506.81c.95-5.36,1.61-13.56-1.4-19.95-4.52-9.59-9.73-18.87-17.16-21.79l-2.09-.82.13-.65c-13.87-10.22-24.95-13.09-50.42-16.34-26.2-3.34-33.58-16.72-33.82-17.17a15.91,15.91,0,0,0,2.68,9.51c5.88,9.52,13.26,12.09,20.4,14.57a53.64,53.64,0,0,1,8.42,3.47l2.43,1.34-1.15,2c13.35,4.51,30.48,5.27,46.84,12.23C505.29,480.58,513,506.81,513,506.81Z" transform="translate(-389.67 -350.95)"/><path class="cls-3" d="M524.61,528.79c-3.55-6-7.94-11-11.76-13.26l-1.83-1.1c-14.85-11.28-22.94-10.92-47.16-16.19s-31.64-17.42-31.64-17.42h0c-.75,2.93-1,5.48-.47,7.2,2.44,7.72,10.76,14.34,26.19,20.84l2.88,1.21s7.33,1.73,31.08,9.64,40.67,31.81,40.67,31.81A61.92,61.92,0,0,0,524.61,528.79Z" transform="translate(-389.67 -350.95)"/><path class="cls-3" d="M472.64,550c-18.89-5.16-22.36-15.89-22.36-15.89h0a20.88,20.88,0,0,0-.36,7.09c.73,4.71,5.34,13.57,28,20l3.76,1.08c34.95,16.83,24.81,47.59,24.81,47.59h0a20,20,0,0,1,4.36.08c5.68.71,11.11,3,15.47,4.89,2.74,1.17,6.86,2.93,7.94,2.56,3.68-3.88,7.58-16.77-3.8-38C519,562.76,491.53,555.19,472.64,550Z" transform="translate(-389.67 -350.95)"/><path class="cls-4" d="M392.35,378.27l-.2-.12h0l0,0a.22.22,0,0,1-.05-.08.58.58,0,0,1,0-.24,1.53,1.53,0,0,1,.29-.73,2.87,2.87,0,0,1,2.3-1.17,3.74,3.74,0,0,1,1.52.29,5.51,5.51,0,0,1,.65.34l.46.29c.62.37,1.23.74,1.85,1.07a37.74,37.74,0,0,0,3.68,1.8,19.57,19.57,0,0,0,7.17,1.76,7.72,7.72,0,0,0,3.1-.57l.65-.35a4.12,4.12,0,0,0,.57-.44l.28-.23a3.58,3.58,0,0,0,.26-.28,4.72,4.72,0,0,0,.5-.59,17.46,17.46,0,0,0,2.67-6,65.8,65.8,0,0,0,1.38-7c.38-2.44.69-5,1.27-7.72.16-.69.33-1.4.57-2.14a10.19,10.19,0,0,1,1.09-2.37,7.91,7.91,0,0,1,.52-.66,5.66,5.66,0,0,1,.7-.62,6.33,6.33,0,0,1,1.37-.73,10.73,10.73,0,0,1,2.58-.65,25.51,25.51,0,0,1,10.07,1,45.15,45.15,0,0,1,12.66,6.09A60.41,60.41,0,0,1,462.87,370a39.2,39.2,0,0,1,2.83,3.84c.44.67.87,1.36,1.32,2s.77,1.44,1.16,2.17a41,41,0,0,1,2.06,4.57c.34.78.54,1.61.82,2.41a21.07,21.07,0,0,1,.7,2.47,43.78,43.78,0,0,1,1.36,10.32,49.37,49.37,0,0,1-.22,5.29c-.11.88-.2,1.76-.36,2.64l-.12.66-.11.54c-.05.26-.14.55-.18.8l.59.26.31.17.47.26c.63.36,1.22.76,1.8,1.16a30.29,30.29,0,0,1,3.25,2.73,44,44,0,0,1,5.43,6.4,71.53,71.53,0,0,1,7.66,14.5,72.7,72.7,0,0,1,4.12,15.06,64.81,64.81,0,0,1,.69,7.36c0,1.2.05,2.39,0,3.57,0,.59-.05,1.17-.1,1.75l-.05.64-.06.52a1.34,1.34,0,0,0,.27.13,8.37,8.37,0,0,1,1.27.59l.82.43c.26.15.52.33.78.49a14.68,14.68,0,0,1,1.51,1.07,17.91,17.91,0,0,1,1.43,1.18,34.64,34.64,0,0,1,4.88,5.53,83.94,83.94,0,0,1,7.29,12.8,36.44,36.44,0,0,1,1.45,3.49l.53,1.83c.18.61.26,1.24.4,1.85a36.21,36.21,0,0,1,.56,7.48,53,53,0,0,1-.71,7.36c-.2,1.21-.43,2.41-.71,3.6-.14.59-.28,1.18-.44,1.77s-.23.81-.34,1.15c.17.14.39.27.58.41l.3.2c.1.08.18.12.33.25.55.46,1.12.89,1.65,1.36l1.54,1.45,1.44,1.53a58.22,58.22,0,0,1,5,6.56,69.5,69.5,0,0,1,6.87,14.14A68.61,68.61,0,0,1,536.24,553a73.32,73.32,0,0,1,.56,13.25,46.27,46.27,0,0,1-.71,6.14c-.19,1.06-.43,2.12-.73,3.19-.14.54-.32,1.08-.5,1.62l-.27.77-.06.19a.87.87,0,0,0,.08.14l0,0,0,.08.17.32.68,1.28c.43.86.94,1.7,1.33,2.62.81,1.81,1.7,3.64,2.38,5.61a50.58,50.58,0,0,1,3.15,12.67c.07,1.15.2,2.3.2,3.47a30.61,30.61,0,0,1-.14,3.57,25.93,25.93,0,0,1-1.61,7.25,20.18,20.18,0,0,1-1.74,3.52,14.71,14.71,0,0,1-1.26,1.68l-.18.21a2.43,2.43,0,0,1-.23.23,3.85,3.85,0,0,1-.63.5,4.61,4.61,0,0,1-1.41.62,6.71,6.71,0,0,1-2.54.09,14.1,14.1,0,0,1-2.08-.47,37.9,37.9,0,0,1-3.68-1.35c-4.68-2-9.24-4.17-14.17-5.29a18.27,18.27,0,0,0-7.29-.4,14.73,14.73,0,0,0-6.63,3.31c-1.05.82-2.1,1.77-3.28,2.68a13.34,13.34,0,0,1-4.18,2.37,9,9,0,0,1-5.11,0,13.54,13.54,0,0,1-4.35-2.21,26,26,0,0,1-6.21-7,45.23,45.23,0,0,1-4.05-8.48A62.47,62.47,0,0,1,469.17,595a37.87,37.87,0,0,1-.34-10.8,44.24,44.24,0,0,1,2.5-10.73,45.67,45.67,0,0,1,2.24-5.14c.41-.84.89-1.68,1.34-2.47l.51-.82c.16-.24.31-.48.48-.71.08-.05,0-.05-.08-.07l-.15,0-.31-.1-.62-.19-.79-.25-1-.34c-1.37-.44-2.73-.93-4.08-1.46a66.5,66.5,0,0,1-8-3.65,42.38,42.38,0,0,1-7.41-5,21.9,21.9,0,0,1-5.67-7.2c-.28-.73-.6-1.45-.84-2.2s-.4-1.53-.5-2.31-.17-1.57-.17-2.35,0-1.56.08-2.34a42.21,42.21,0,0,1,2-9,79.48,79.48,0,0,1,3.42-8.61c.66-1.41,1.34-2.8,2.06-4.18.35-.69.72-1.38,1.1-2.06l.65-1.15c-.32-.16-.69-.3-1-.46l-.86-.37-.95-.43-1.9-.88-1.89-.92a76.64,76.64,0,0,1-7.36-4.17,47.34,47.34,0,0,1-6.76-5.28,26.91,26.91,0,0,1-5.33-6.94,21.78,21.78,0,0,1-.9-2l-.39-1.05c-.11-.36-.22-.77-.3-1.15a15.18,15.18,0,0,1,0-4.56,39.39,39.39,0,0,1,2.19-8.46,83.37,83.37,0,0,1,3.36-8c.62-1.3,1.26-2.58,1.93-3.86l1-1.88.48-.87c-.15-.1-.35-.18-.52-.27l-.28-.14-.53-.23c-.81-.36-1.67-.68-2.52-1L427.76,457a47.83,47.83,0,0,1-8.67-3.93,31.3,31.3,0,0,1-7.15-5.82,33.89,33.89,0,0,1-5.08-7.19,24.29,24.29,0,0,1-1.67-4c-.15-.7-.31-1.4-.46-2.09a15,15,0,0,1-.22-2.11,19.51,19.51,0,0,1,1.35-8,42.43,42.43,0,0,1,3.41-6.66c1.19-2,2.49-4,2.91-5.9a2.67,2.67,0,0,0-.44-2.45,7.36,7.36,0,0,0-2.21-1.8c-1.74-1-3.62-1.78-5.39-2.63a43.38,43.38,0,0,1-5-2.74,22.54,22.54,0,0,1-7.16-7.13,15,15,0,0,1-1-14.16c.53-1.19,1.23-1.81,1.62-1.86s.51.34.24,1.29a13.4,13.4,0,0,1-.48,1.37l-.09.24c-.05.16-.16.39-.25.71a15.53,15.53,0,0,0-.6,2.8,13.71,13.71,0,0,0,.3,4.38,14.08,14.08,0,0,0,2.5,5.2,19.48,19.48,0,0,0,5,4.84,44.4,44.4,0,0,0,7.18,3.8c1.33.6,2.7,1.2,4.11,2a12.26,12.26,0,0,1,2.1,1.46,5.53,5.53,0,0,1,1.66,2.49,5,5,0,0,1,.21,1.57,8.91,8.91,0,0,1-.63,2.7l-.23.6-.27.56c-.72,1.5-1.55,2.81-2.32,4.15a32.7,32.7,0,0,0-3.65,8.06,15.33,15.33,0,0,0,0,8.15l.11.49c.05.16.12.31.18.47l.36.94c.11.31.23.62.35.92s.31.59.46.88c.32.58.63,1.16.93,1.72l1.09,1.62.54.79.59.74,1.14,1.42a33.49,33.49,0,0,0,2.45,2.46,31.6,31.6,0,0,0,9.09,5.71c1.21.53,2.19.9,2.85,1.15s1,.38,1,.38l5.25,1.86c.89.34,1.77.67,2.65,1.06l.76.33,1,.52,2.06,1.05c-.61,1-1.26,2.15-1.78,3.11l-1,1.88q-1,1.88-1.89,3.78a83.88,83.88,0,0,0-3.26,7.73,37.51,37.51,0,0,0-2.06,7.91,12.9,12.9,0,0,0,0,3.78c.07.29.13.55.22.85l.34.91a18,18,0,0,0,.8,1.79c2.44,4.68,6.7,8.3,11.22,11.26a76.61,76.61,0,0,0,7.12,4l1.83.9,1.86.86.93.42,1.11.48,3.4,1.47-1.07,1.82-.53.91-.48.84c-.36.67-.72,1.33-1.07,2q-1.05,2-2,4.07a76.34,76.34,0,0,0-3.31,8.33c-1.78,5.57-3,11.59-.68,16.38a19.35,19.35,0,0,0,5,6.36,39.44,39.44,0,0,0,6.95,4.7,63.39,63.39,0,0,0,7.68,3.52c1.31.51,2.63,1,4,1.42l1,.33.58.19.95.28,3.77,1.14-1.61,2.23c-.29.39-.45.68-.67,1l-.61,1c-.49.84-.89,1.57-1.3,2.38a42.55,42.55,0,0,0-2.12,4.86,41.92,41.92,0,0,0-2.36,10.11,36,36,0,0,0,.31,10.11,60.78,60.78,0,0,0,2.52,9.74,42.77,42.77,0,0,0,3.81,8,23.58,23.58,0,0,0,5.56,6.36,11.26,11.26,0,0,0,3.52,1.82,6.46,6.46,0,0,0,3.67,0,10.76,10.76,0,0,0,3.39-1.94c1.09-.84,2.14-1.78,3.27-2.67a17.34,17.34,0,0,1,7.72-3.82,20.67,20.67,0,0,1,8.32.4c5.3,1.21,10,3.5,14.6,5.42a34.91,34.91,0,0,0,3.43,1.27,6.7,6.7,0,0,0,3.28.35,2.23,2.23,0,0,0,.65-.27,2.76,2.76,0,0,0,.53-.51,12.45,12.45,0,0,0,1-1.36,18.6,18.6,0,0,0,1.51-3.07,23.26,23.26,0,0,0,1.45-6.58,30.44,30.44,0,0,0,.13-3.3c0-1.09-.13-2.18-.19-3.25a48.64,48.64,0,0,0-3-12.07c-.66-1.89-1.52-3.66-2.31-5.42-.37-.88-.87-1.7-1.29-2.54l-.66-1.24-.39-.74c-.16-.32-.33-.62-.48-.93.17-.37.35-.75.49-1.12s.18-.51.28-.77c.16-.49.32-1,.45-1.48.27-1,.5-2,.67-3a41.12,41.12,0,0,0,.66-5.84,70.53,70.53,0,0,0-.55-12.73A66,66,0,0,0,523.91,526a56.46,56.46,0,0,0-4.72-6.24l-1.34-1.43L516.43,517c-.49-.43-1-.82-1.5-1.23a6.55,6.55,0,0,0-.58-.42l-.7-.47-1.38-.94.48-1.55.2-.71.17-.59c.14-.56.29-1.12.42-1.69.26-1.14.48-2.29.68-3.45a49.81,49.81,0,0,0,.67-7,33.59,33.59,0,0,0-.51-7c-.13-.57-.2-1.15-.36-1.7l-.48-1.65c-.17-.54-.42-1.06-.62-1.59a16,16,0,0,0-.72-1.61A80.6,80.6,0,0,0,505.14,473a31.62,31.62,0,0,0-4.54-5.14c-.42-.36-.83-.74-1.28-1.06a13.47,13.47,0,0,0-1.34-.94c-.23-.14-.46-.3-.69-.43l-.71-.38-.36-.18a1.63,1.63,0,0,0-.2-.11l-.36-.15L494.2,464l-.78-.34c.08-.52.18-1.06.24-1.59s.17-1.19.17-1.34q.06-.82.09-1.65c0-1.11,0-2.24,0-3.38a64,64,0,0,0-.66-7,70.78,70.78,0,0,0-4-14.5,69.9,69.9,0,0,0-7.37-14,42.26,42.26,0,0,0-5.1-6,27.89,27.89,0,0,0-3-2.5c-.52-.36-1.05-.72-1.59-1a3.11,3.11,0,0,0-.4-.22c-.23-.13-.55-.29-.85-.42l-1.88-.73c.2-.8.45-1.64.62-2.44l.18-.88.1-.61c.15-.81.24-1.65.34-2.47a43.84,43.84,0,0,0,.21-5,41,41,0,0,0-1.27-9.74,18.6,18.6,0,0,0-.66-2.32c-.26-.76-.45-1.54-.76-2.27a41,41,0,0,0-1.94-4.31c-.37-.69-.7-1.39-1.1-2l-1.24-1.94a37.71,37.71,0,0,0-2.67-3.63,58,58,0,0,0-12.13-11.28,42.38,42.38,0,0,0-11.93-5.76,23.62,23.62,0,0,0-9.06-1,8.2,8.2,0,0,0-2,.48,2.86,2.86,0,0,0-1.47,1.08,12.13,12.13,0,0,0-1.36,3.68c-1.13,5.17-1.58,10.09-3,14.76a19.61,19.61,0,0,1-3.18,6.63,7.1,7.1,0,0,1-.63.71l-.34.34-.39.3a5.61,5.61,0,0,1-.8.58l-.88.45a9.53,9.53,0,0,1-3.88.65,21.83,21.83,0,0,1-7.78-2,40.79,40.79,0,0,1-3.8-1.9c-.64-.35-1.27-.73-1.91-1.12a7.62,7.62,0,0,0-.88-.52,2.09,2.09,0,0,0-.85-.18,3.91,3.91,0,0,0-1.58.38c-.21.1-.39.19-.55.25l-.22.06h-.16Z" transform="translate(-389.67 -350.95)"/></svg>