<svg id="Layer_2" data-name="Layer 2" xmlns="http://www.w3.org/2000/svg" viewBox="0 0 168.46 191.85"><defs><style>.cls-1{fill:#eac69a;}.cls-2{fill:#634e42;}.cls-3{fill:#fff;}.cls-4{fill:#dadada;}.cls-5{fill:#fee6ca;}.cls-6{fill:#ffd500;}.cls-7{fill:#f9b233;}</style></defs><title>peanutButterIcon</title><path class="cls-1" d="M503.32,363.64l-8.08-4.14H370.94l-8.08,4.14a18.39,18.39,0,0,0-10,16.36v95.27a18.41,18.41,0,0,0,6.58,14.1L369.7,498H496.48l10.25-8.58a18.39,18.39,0,0,0,6.59-14.1V380A18.39,18.39,0,0,0,503.32,363.64Z" transform="translate(-348.86 -310.1)"/><path class="cls-2" d="M496.48,502H369.7a4,4,0,0,1-2.57-.93l-10.25-8.59a22.31,22.31,0,0,1-8-17.16V380A22.27,22.27,0,0,1,361,360.09l14.54-7.46a3.34,3.34,0,0,0,1.83-3v-9.12a4,4,0,0,1,4-4H484.78a4,4,0,0,1,4,4v9.12a3.35,3.35,0,0,0,1.82,3l14.55,7.46A22.29,22.29,0,0,1,517.32,380v95.27a22.31,22.31,0,0,1-8,17.16L499.05,501A4,4,0,0,1,496.48,502Zm-125.33-8H495l9.14-7.65a14.36,14.36,0,0,0,5.15-11V380a14.34,14.34,0,0,0-7.82-12.8L487,359.75a11.33,11.33,0,0,1-6.17-10.11v-5.12H385.4v5.12a11.32,11.32,0,0,1-6.18,10.11l-14.54,7.45a14.34,14.34,0,0,0-7.82,12.8v95.27a14.36,14.36,0,0,0,5.15,11Z" transform="translate(-348.86 -310.1)"/><rect class="cls-3" x="4" y="69.9" width="137.54" height="98.01"/><path class="cls-4" d="M490.39,482H352.86a4,4,0,0,1-4-4V380a4,4,0,0,1,4-4H490.39a4,4,0,0,1,4,4v98A4,4,0,0,1,490.39,482Zm-133.53-8H486.39V384H356.86Z" transform="translate(-348.86 -310.1)"/><path class="cls-5" d="M428.78,439.12a15.57,15.57,0,0,0,4.42-8.83,4.36,4.36,0,0,1,3.7-3.71c6.44-.92,12.41-5.84,13.89-14.81a4.5,4.5,0,0,0,0-1.37c-2.55-15.49-18.6-18.95-27.18-10.38a15.63,15.63,0,0,0-4.42,8.84,4.37,4.37,0,0,1-3.71,3.71,15.66,15.66,0,0,0-13.26,13.26,4.36,4.36,0,0,1-3.7,3.71c-6.44.91-12.41,5.84-13.89,14.8a4.56,4.56,0,0,0,0,1.38c2.55,15.49,18.6,18.95,27.18,10.37a15.6,15.6,0,0,0,4.42-8.84,4.38,4.38,0,0,1,3.71-3.71A15.57,15.57,0,0,0,428.78,439.12Z" transform="translate(-348.86 -310.1)"/><path class="cls-1" d="M400.74,464.68h0c-8.48,0-18-5.67-20.05-18.31a8,8,0,0,1,0-2.68c1.62-9.89,8.24-16.83,17.27-18.11a.36.36,0,0,0,.3-.31,19.64,19.64,0,0,1,16.66-16.66.36.36,0,0,0,.31-.31,19.65,19.65,0,0,1,19.45-16.86c8.48,0,18,5.66,20.05,18.31a8,8,0,0,1,0,2.67c-1.62,9.89-8.24,16.83-17.27,18.12a.36.36,0,0,0-.3.31A19.65,19.65,0,0,1,420.5,447.5a.38.38,0,0,0-.31.32,19.65,19.65,0,0,1-19.45,16.86Zm33.94-65.24a11.64,11.64,0,0,0-11.53,10,8.4,8.4,0,0,1-7.1,7.1,11.63,11.63,0,0,0-9.87,9.87,8.4,8.4,0,0,1-7.1,7.1c-5.52.78-9.44,5.08-10.5,11.49,1.41,8.64,7.43,11.68,12.16,11.69h0a11.66,11.66,0,0,0,11.53-10,8.42,8.42,0,0,1,7.1-7.11,11.64,11.64,0,0,0,9.87-9.86,8.4,8.4,0,0,1,7.1-7.1c5.52-.79,9.45-5.09,10.5-11.49C445.43,402.48,439.41,399.44,434.68,399.44Z" transform="translate(-348.86 -310.1)"/><path class="cls-1" d="M390.55,456.89a15.61,15.61,0,0,0,3.9,2.46v-3.86h6.16v5.18a15.66,15.66,0,0,0,3.91-.46v-4.72h6.16v.31h1.4a15.56,15.56,0,0,0,2.81-4.11v-.11h-.3v-6.16H417a4.37,4.37,0,0,1,3-1.88,15.46,15.46,0,0,0,5-1.62v-.41h-.31v-6.15h6.16v.31h.57a15.8,15.8,0,0,0,1.82-5.38,4.36,4.36,0,0,1,1.52-2.72v-2.28h6.52a15.86,15.86,0,0,0,4.27-2.91v-7.16h4.42a22.89,22.89,0,0,0,.86-3.45,3.4,3.4,0,0,0,0-.45h-5.31v-6.88h3.38a17.09,17.09,0,0,0-2.68-3.91h-.7v-.73a16.21,16.21,0,0,0-3.91-2.75v3.48h-6.88v-5.08a16.1,16.1,0,0,0-3.91.48v4.6h-7.66a15.77,15.77,0,0,0-2.41,3.45v7.34H418a4.37,4.37,0,0,1-2.49,1.25,15.44,15.44,0,0,0-5.11,1.68v1h.31v6.16h-6.16v-.31h-.81a15.6,15.6,0,0,0-1.49,4.76,4.36,4.36,0,0,1-1.61,2.79v2.83h-6.16v-.31h-.91a15.6,15.6,0,0,0-3.3,2.31v1.91h.31v6.15h-5.26a26.05,26.05,0,0,0-.66,2.83,4.88,4.88,0,0,0,0,1.08h5.94v6.16h-4.07a17.52,17.52,0,0,0,2.64,3.91h1.43Zm20.13-5.31h-6.16v-6.16h6.16Zm10.06-20.13h-6.15v-6.16h6.15Zm3.91-16.23h6.16v6.16h-6.16Zm-14,26.29h-6.16v-6.15h6.16Zm10.06,0h-6.15v-6.15h6.15Zm10.07-10.06h-6.16v-6.16h6.16Zm10.79-10.07h-6.88v-6.16h6.88Zm0-16.94v6.88h-6.88v-6.88Zm-17,0h6.16v6.88h-6.16Zm-10.06,10.78h6.15v6.16h-6.15Zm-10.07,10.07h6.16v6.16h-6.16Zm-10.07,10.07h6.16v6.15h-6.16Zm0,10.06h6.16v6.16h-6.16Z" transform="translate(-348.86 -310.1)"/><rect class="cls-2" x="22.08" y="45.4" width="124.3" height="8"/><rect class="cls-6" x="20.84" y="4" width="126.78" height="26.42" rx="7.35"/><path class="cls-7" d="M489.13,344.52H377.05a11.37,11.37,0,0,1-11.35-11.36V321.45a11.36,11.36,0,0,1,11.35-11.35H489.13a11.36,11.36,0,0,1,11.35,11.35v11.71A11.37,11.37,0,0,1,489.13,344.52ZM377.05,318.1a3.35,3.35,0,0,0-3.35,3.35v11.71a3.36,3.36,0,0,0,3.35,3.36H489.13a3.36,3.36,0,0,0,3.35-3.36V321.45a3.35,3.35,0,0,0-3.35-3.35Z" transform="translate(-348.86 -310.1)"/></svg>