<svg id="Warstwa_3" data-name="Warstwa 3" xmlns="http://www.w3.org/2000/svg" viewBox="0 0 306.92 223.95"><defs><style>.cls-1{fill:#fff;}.cls-2{fill:#dd7a1b;}</style></defs><path class="cls-1" d="M468.82,481.05c1.86-4.48,20.31-13.93,38.37-22.3a39.55,39.55,0,0,1-2.77-8.94c-.95-4.93-5.24-9.37-9.33-13.52-2.94,1.68-5.55,3.2-7.54,4.41l-11.25,6.85s-15.08,11.25-25.54-1.06S405.19,443.7,412.53,465,440,485.34,440,485.34s-18.08,17.53-.22,27.41S465.32,506.49,468.82,481.05Z" transform="translate(-411.53 -291.73)"/><path class="cls-2" d="M507.19,458.75c5.46,12,15.59,14.46,21.29,4.92,6.91-11.57,41.27-23.75,75.68-16.74s88.78-23.47,107-63.79.78-79.48-37.14-90-123.24,38.05-136.88,77.66S513.66,406.35,494,416.45c-12.44,6.39-6,12.67,1.07,19.84,4.09,4.15,8.38,8.59,9.33,13.52A39.55,39.55,0,0,0,507.19,458.75Z" transform="translate(-411.53 -291.73)"/></svg>