<svg id="Layer_2" data-name="Layer 2" xmlns="http://www.w3.org/2000/svg" viewBox="0 0 278.51 460.74"><defs><style>.cls-1{fill:#292929;}.cls-2{fill:#424342;}.cls-3{fill:#1277bd;}.cls-4{fill:#f8be37;}.cls-5{fill:none;}.cls-6{fill:#54c9f0;}</style></defs><title>proteinSupplementIcon</title><path class="cls-1" d="M616.46,274.09V542.17c0,6.58,4.81,16.16,46.39,23.3,25.15,4.33,59,6.81,92.87,6.81s67.72-2.48,92.87-6.81c41.58-7.14,46.38-16.72,46.38-23.3V274.09c0-3-.14-6.15-.42-9.27l-.43-4.69-.37-.05a102.22,102.22,0,0,0-51.38-73.21,7.71,7.71,0,0,0,1.47-4.57,8.64,8.64,0,0,0,3.59-6.87,8,8,0,0,0-.09-1.14c2.58-2,3.88-4.39,3.88-7.14,0-4.79-4-7.63-7.23-9.21V129c0-7.48-9.37-11.7-32.33-14.57a486.47,486.47,0,0,0-106.26,0c-23,2.87-32.33,7.09-32.33,14.57v28.93c-3.2,1.58-7.24,4.42-7.24,9.21,0,2.75,1.31,5.14,3.89,7.14a6.78,6.78,0,0,0-.09,1.14,8.61,8.61,0,0,0,3.59,6.87,7.84,7.84,0,0,0,.33,2.24,101.33,101.33,0,0,0-56.15,77.38" transform="translate(-616.46 -111.53)"/><path class="cls-2" d="M758.53,118.66c-21.19,0-41.1,1.19-56.07,3.37a128.13,128.13,0,0,0-12.75,2.41v33.49c18.54-3.57,47-5,68.82-5,26.06,0,61.5,2.06,78.33,7.33V129c0-.16-.25-3.78-22.26-7C799.63,119.85,779.72,118.66,758.53,118.66Z" transform="translate(-616.46 -111.53)"/><path class="cls-2" d="M680.19,160.24c2.1-.66,4.49-1.26,7.11-1.82V125.11c-7,2.08-7.11,3.79-7.11,3.9Z" transform="translate(-616.46 -111.53)"/><path class="cls-2" d="M758.53,155.32c-23.12,0-44.85,1.35-61.18,3.81-19.25,2.89-24.39,6.4-24.39,8,0,.82,1.44,2.22,5.43,3.71,12.6-6.58,52.05-9.09,80.14-9.09s67.54,2.51,80.14,9.09c4-1.49,5.43-2.89,5.43-3.71,0-1.62-5.14-5.13-24.39-8C803.38,156.67,781.65,155.32,758.53,155.32Z" transform="translate(-616.46 -111.53)"/><path class="cls-2" d="M758.53,164.18c-22.11,0-42.88,1.29-58.5,3.64-18.37,2.76-23.27,6.08-23.27,7.61,0,.69,1.09,1.82,4,3.06,10.79-6.77,50.05-9.33,77.76-9.33s67,2.56,77.75,9.33c2.93-1.24,4-2.37,4-3.06,0-1.53-4.9-4.85-23.28-7.61C801.41,165.47,780.63,164.18,758.53,164.18Z" transform="translate(-616.46 -111.53)"/><path class="cls-2" d="M758.53,171.57c-21.15,0-41,1.24-56,3.48-17.54,2.64-22.23,5.79-22.23,7.24,0,.23.22,1.34,3.76,2.85A96.13,96.13,0,0,1,717.93,179H732c8.36-.44,17.3-.68,26.52-.68s18.15.24,26.52.68h8.46a96.32,96.32,0,0,1,26.35,3.65,83.17,83.17,0,0,1,11.94,2.92c4.67-1.74,4.91-3.06,4.91-3.31,0-1.45-4.68-4.6-22.22-7.24C799.55,172.81,779.68,171.57,758.53,171.57Z" transform="translate(-616.46 -111.53)"/><path class="cls-2" d="M750,533.12c-42,0-82-2-114.36-5.57v23.91C655.57,559,699,565.15,755.72,565.15c79,0,132.13-11.88,132.13-23V526.08c-34.2,4.54-79,7-126.4,7H750Z" transform="translate(-616.46 -111.53)"/><path class="cls-2" d="M633.22,550.49V527.28q-5-.57-9.63-1.2v16.09C623.59,545,626.94,547.8,633.22,550.49Z" transform="translate(-616.46 -111.53)"/><path class="cls-2" d="M634,264.17a85.13,85.13,0,0,1,54.2-67.73V186.23a94.57,94.57,0,0,0-64.1,79.39C627.31,265.11,630.62,264.63,634,264.17Z" transform="translate(-616.46 -111.53)"/><path class="cls-2" d="M717.93,181.44a93.87,93.87,0,0,0-27.28,4v12.65l-.79.29a82.7,82.7,0,0,0-53.34,65.43c33.73-4.38,78.24-6.84,124.93-6.84,47,0,91.56,2.46,125.66,6.94a94.48,94.48,0,0,0-93.6-82.5Z" transform="translate(-616.46 -111.53)"/><path class="cls-3" d="M623.78,293c-.13,2-.19,4-.19,6V491.14c0,2.51.1,5.08.31,7.67,34.09,4.52,78.82,7,126.09,7,52.9,0,103-3.17,137.67-8.7.13-2,.19-4,.19-6V299c0-2.51-.11-5.08-.32-7.66-34.09-4.53-78.81-7-126.08-7C708.54,284.3,658.45,287.47,623.78,293Z" transform="translate(-616.46 -111.53)"/><path class="cls-4" d="M623.78,268.11c-.13,2-.19,4-.19,6v16.5c34.79-5.53,84.93-8.7,137.86-8.7,47.37,0,92.21,2.5,126.4,7V274.09c0-2.51-.11-5.08-.32-7.67-34.09-4.52-78.81-7-126.08-7C708.54,259.41,658.45,262.58,623.78,268.11Z" transform="translate(-616.46 -111.53)"/><path class="cls-1" d="M621.67,266l-.16,0-.07,1c-.17,2.39-.26,4.78-.26,7.11V542.17c0,15.89,68.4,25.39,134.54,25.39s134.54-9.5,134.54-25.39V274.09c0-2.89-.14-5.87-.41-8.84l-.09-1-.19,0a97,97,0,0,0-56.26-76.67c3.9-1.57,5.81-3.31,5.81-5.31a3.33,3.33,0,0,0-.8-2.08c2.94-1.44,4.39-3,4.39-4.78a4,4,0,0,0-1.61-3c3.63-1.6,5.41-3.35,5.41-5.33,0-2.36-2.69-4.37-7.24-6.09V129c0-9.36-48.29-12.76-80.74-12.76s-80.74,3.4-80.74,12.76v32.05c-4.56,1.72-7.24,3.73-7.24,6.09,0,2,1.78,3.73,5.4,5.33a4,4,0,0,0-1.6,3c0,1.77,1.44,3.34,4.39,4.78a3.33,3.33,0,0,0-.8,2.08c0,1.48,1,2.81,3.14,4A97,97,0,0,0,621.67,266Zm11.55,284.48c-6.28-2.69-9.63-5.53-9.63-8.32V526.08q4.68.63,9.63,1.2Zm254.63-8.32c0,11.1-53.09,23-132.13,23-56.77,0-100.15-6.13-120.09-13.69V527.55C668,531.16,708,533.12,750,533.12h11.46c47.4,0,92.2-2.5,126.4-7Zm0-26.14c0,2-.06,4-.19,6-34.68,5.53-84.77,8.7-137.67,8.7-47.27,0-92-2.49-126.09-7-.21-2.59-.31-5.16-.31-7.67V501.19c34.19,4.54,79,7,126.4,7,52.92,0,103.07-3.17,137.86-8.7Zm0-24.89c0,2-.06,4-.19,6-34.68,5.53-84.77,8.7-137.67,8.7-47.27,0-92-2.49-126.09-7-.21-2.59-.31-5.16-.31-7.67V299c0-2,.06-4,.19-6,34.67-5.53,84.76-8.7,137.67-8.7,47.27,0,92,2.49,126.08,7,.21,2.58.32,5.15.32,7.66Zm0-217v14.84c-34.19-4.54-79-7-126.4-7-52.93,0-103.07,3.17-137.86,8.7v-16.5c0-2,.06-4,.19-6,34.67-5.53,84.76-8.7,137.67-8.7,47.27,0,92,2.49,126.08,7C887.74,269,887.85,271.58,887.85,274.09Zm-.74-10.15C853,259.46,808.48,257,761.45,257c-46.69,0-91.2,2.46-124.93,6.84a82.7,82.7,0,0,1,53.34-65.43l.79-.29V185.47a93.87,93.87,0,0,1,27.28-4h75.58A94.48,94.48,0,0,1,887.11,263.94Zm-197.4-139.5A128.13,128.13,0,0,1,702.46,122c15-2.18,34.88-3.37,56.07-3.37s41.1,1.19,56.07,3.37c22,3.2,22.26,6.82,22.26,7v31.23c-16.83-5.27-52.27-7.33-78.33-7.33-21.85,0-50.28,1.45-68.82,5ZM680.19,129c0-.11.13-1.82,7.11-3.9v33.31c-2.62.56-5,1.16-7.11,1.82ZM673,167.15c0-1.62,5.14-5.13,24.39-8,16.33-2.46,38.06-3.81,61.18-3.81s44.85,1.35,61.18,3.81c19.25,2.89,24.39,6.4,24.39,8,0,.82-1.44,2.22-5.43,3.71-12.6-6.58-52-9.09-80.14-9.09s-67.54,2.51-80.14,9.09C674.4,169.37,673,168,673,167.15Zm3.8,8.28c0-1.53,4.9-4.85,23.27-7.61,15.62-2.35,36.39-3.64,58.5-3.64s42.88,1.29,58.49,3.64c18.38,2.76,23.28,6.08,23.28,7.61,0,.69-1.09,1.82-4,3.06-10.78-6.77-50-9.33-77.75-9.33s-67,2.56-77.76,9.33C677.85,177.25,676.76,176.12,676.76,175.43Zm3.58,6.86c0-1.45,4.69-4.6,22.23-7.24,14.94-2.24,34.81-3.48,56-3.48s41,1.24,56,3.48c17.54,2.64,22.22,5.79,22.22,7.24,0,.25-.24,1.57-4.91,3.31a83.17,83.17,0,0,0-11.94-2.92A96.32,96.32,0,0,0,793.51,179h-8.46c-8.37-.44-17.31-.68-26.52-.68s-18.16.24-26.52.68H717.93a96.13,96.13,0,0,0-33.83,6.11C680.56,183.63,680.34,182.52,680.34,182.29Zm7.9,3.94v10.21A85.13,85.13,0,0,0,634,264.17c-3.42.46-6.73.94-9.9,1.45A94.57,94.57,0,0,1,688.24,186.23Z" transform="translate(-616.46 -111.53)"/><path class="cls-4" d="M623.59,516c0,2.51.1,5.08.31,7.67,34.09,4.52,78.82,7,126.09,7,52.9,0,103-3.17,137.67-8.7.13-2,.19-4,.19-6v-16.5c-34.79,5.53-84.94,8.7-137.86,8.7-47.37,0-92.21-2.5-126.4-7Z" transform="translate(-616.46 -111.53)"/><polygon class="cls-4" points="5.92 379.61 5.92 379.61 5.92 379.61 5.92 379.61"/><polygon class="cls-4" points="272.59 379.61 272.59 379.61 272.59 379.61 272.59 379.61"/><path class="cls-5" d="M745.14,312.06v29.83l7.47,0a6.45,6.45,0,0,0,4.94-2.18,7.5,7.5,0,0,0,2.07-5.35V319.62c0-5.19-2.23-7.6-7-7.6C750.13,312,747.63,312,745.14,312.06Z" transform="translate(-616.46 -111.53)"/><path class="cls-5" d="M696.12,314.34l-7.53.66v28.68c2.46-.14,4.91-.27,7.37-.39a6.9,6.9,0,0,0,5-2.4,7.66,7.66,0,0,0,2.07-5.36V321.11a6.93,6.93,0,0,0-1.87-5.21A6.08,6.08,0,0,0,696.12,314.34Z" transform="translate(-616.46 -111.53)"/><path class="cls-5" d="M809.86,312.68c-.21,0-.43,0-.64,0a5.94,5.94,0,0,0-4.27,1.72,6.51,6.51,0,0,0-2.05,5v54.06a7.17,7.17,0,0,0,2.09,5.23,6.72,6.72,0,0,0,5,2.17h.1a6.52,6.52,0,0,0,4.83-2,6.86,6.86,0,0,0,2-5.05V320.58a7.66,7.66,0,0,0-2.08-5.34A7.26,7.26,0,0,0,809.86,312.68Z" transform="translate(-616.46 -111.53)"/><path class="cls-1" d="M840.48,208.11c1.17.87,2.31,1.76,3.44,2.68a82.26,82.26,0,0,1,24,32.09c.55,1.33,1.09,2.68,1.58,4l2.26-.81a84.72,84.72,0,0,0-29.81-39.94Z" transform="translate(-616.46 -111.53)"/><path class="cls-2" d="M812.67,194.89l10.24,3.41A80.87,80.87,0,0,0,812.67,194.89Z" transform="translate(-616.46 -111.53)"/><polygon class="cls-2" points="186.93 80.27 186.93 80.27 186.93 80.27 186.93 80.27"/><path class="cls-1" d="M803.22,193a83,83,0,0,1,28.39,9.44l1.16-2.11a83.8,83.8,0,0,0-29.22-9.72l-.16,1.19Z" transform="translate(-616.46 -111.53)"/><path class="cls-6" d="M695.76,299.29c-7.14.7-14.35,1.54-21.46,2.49v93l11.88,0V358.28l1.16,0,8.26-.32a20.52,20.52,0,0,0,15-7.06,23.36,23.36,0,0,0,6.25-16.25V320.13c0-6.53-1.83-11.82-5.44-15.71C707.58,300.38,702.3,298.65,695.76,299.29Zm9.65,21.82v14.42a10.09,10.09,0,0,1-2.7,7,9.3,9.3,0,0,1-6.63,3.19c-2.88.14-5.75.3-8.62.46l-1.28.08V312.81l1.09-.11q4.34-.4,8.65-.76a8.42,8.42,0,0,1,6.9,2.24A9.34,9.34,0,0,1,705.41,321.11Z" transform="translate(-616.46 -111.53)"/><path class="cls-1" d="M695.52,296.89c-7.51.74-15.11,1.63-22.58,2.65l-1,.14v97.48h1.2l14.28,0h1.21V360.6c2.36-.1,4.73-.19,7.09-.27a23.11,23.11,0,0,0,16.74-7.85,25.67,25.67,0,0,0,6.88-17.87V320.13c0-7.16-2-13-6.1-17.37C708.79,298.16,702.83,296.18,695.52,296.89Zm21.37,23.24v14.48a23.36,23.36,0,0,1-6.25,16.25,20.52,20.52,0,0,1-15,7.06l-8.26.32-1.16,0v36.51l-11.88,0v-93c7.11-.95,14.32-1.79,21.46-2.49,6.54-.64,11.82,1.09,15.69,5.13C715.06,308.31,716.89,313.6,716.89,320.13Z" transform="translate(-616.46 -111.53)"/><path class="cls-1" d="M695.92,311.94q-4.32.36-8.65.76l-1.09.11v33.43l1.28-.08c2.87-.16,5.74-.32,8.62-.46a9.3,9.3,0,0,0,6.63-3.19,10.09,10.09,0,0,0,2.7-7V321.11a9.34,9.34,0,0,0-2.59-6.93A8.42,8.42,0,0,0,695.92,311.94Zm7.08,9.17v14.42a7.66,7.66,0,0,1-2.07,5.36,6.9,6.9,0,0,1-5,2.4c-2.46.12-4.91.25-7.37.39V315l7.53-.66a6.08,6.08,0,0,1,5,1.56A6.93,6.93,0,0,1,703,321.11Z" transform="translate(-616.46 -111.53)"/><path class="cls-6" d="M773.61,334.22V319.64c0-6.95-1.58-12.47-4.68-16.38-3.55-4.49-9.15-6.76-16.65-6.76-7.16,0-14.38.15-21.51.42v97.94h12V356.94h1.2l8.3,0h2.25l8.72,38h13q-5.13-21.15-10.28-42.43l-.16-.68.5-.48A22.42,22.42,0,0,0,773.61,334.22Zm-11.58.11a10,10,0,0,1-2.72,7,8.88,8.88,0,0,1-6.7,2.94c-2.89,0-5.77,0-8.66,0h-1.22V309.68h1.19c2.88,0,5.81-.06,8.69-.06h0c6.16,0,9.42,3.46,9.42,10Z" transform="translate(-616.46 -111.53)"/><path class="cls-1" d="M776,319.64c0-7.51-1.75-13.53-5.2-17.88-4-5.09-10.26-7.67-18.59-7.67-7.54,0-15.18.17-22.71.47l-1.16,0V397.27h16.78V359.33l7.09,0h.33l8.72,38h18l-.36-1.49q-5.25-21.55-10.48-43.25A25,25,0,0,0,776,334.22Zm-2.41,14.58a22.42,22.42,0,0,1-7.31,17l-.5.48.16.68q5.14,21.27,10.28,42.43h-13l-8.72-38h-2.25l-8.3,0h-1.2v37.93h-12V296.92c7.13-.27,14.35-.41,21.51-.42,7.5,0,13.1,2.27,16.65,6.76,3.1,3.91,4.68,9.43,4.68,16.38Z" transform="translate(-616.46 -111.53)"/><path class="cls-1" d="M752.61,309.61c-2.88,0-5.81,0-8.69.06h-1.19v34.64H744c2.89,0,5.77,0,8.66,0a8.88,8.88,0,0,0,6.7-2.94,10,10,0,0,0,2.72-7V319.62c0-6.55-3.26-10-9.42-10Zm7,10v14.71a7.5,7.5,0,0,1-2.07,5.35,6.45,6.45,0,0,1-4.94,2.18l-7.47,0V312.06c2.49,0,5,0,7.47,0C757.39,312,759.62,314.43,759.62,319.62Z" transform="translate(-616.46 -111.53)"/><path class="cls-6" d="M810.22,298c-.73-.07-1.45-.11-2.15-.11a18,18,0,0,0-12.89,5.36,21,21,0,0,0-6.32,15.65v54.45a22.64,22.64,0,0,0,6.28,16.07A19.8,19.8,0,0,0,810.25,396h.08a20.88,20.88,0,0,0,15.2-6.42,20.66,20.66,0,0,0,6.3-15.27v-52a23.65,23.65,0,0,0-6.31-16.13A23,23,0,0,0,810.22,298Zm9.12,75.74a9.23,9.23,0,0,1-2.73,6.74,8.9,8.9,0,0,1-6.54,2.73H810a9.17,9.17,0,0,1-6.69-2.91,9.6,9.6,0,0,1-2.77-6.9V319.35a9,9,0,0,1,2.8-6.73,8.43,8.43,0,0,1,6.77-2.34,9.69,9.69,0,0,1,6.59,3.35,10.12,10.12,0,0,1,2.69,6.95Z" transform="translate(-616.46 -111.53)"/><path class="cls-1" d="M810.46,295.61a20.44,20.44,0,0,0-17,5.92,23.31,23.31,0,0,0-7,17.38v54.45a25,25,0,0,0,6.93,17.72,22.42,22.42,0,0,0,16.87,7.31h.09a24.12,24.12,0,0,0,23.9-24.1v-52a26.29,26.29,0,0,0-6.91-17.72A25.3,25.3,0,0,0,810.46,295.61Zm21.37,26.69v52a20.66,20.66,0,0,1-6.3,15.27,20.88,20.88,0,0,1-15.2,6.42h-.08a19.8,19.8,0,0,1-15.11-6.55,22.64,22.64,0,0,1-6.28-16.07V318.91a21,21,0,0,1,6.32-15.65,18,18,0,0,1,12.89-5.36c.7,0,1.42,0,2.15.11a23,23,0,0,1,15.3,8.16A23.65,23.65,0,0,1,831.83,322.3Z" transform="translate(-616.46 -111.53)"/><path class="cls-1" d="M810.06,310.28a8.43,8.43,0,0,0-6.77,2.34,9,9,0,0,0-2.8,6.73v54.06a9.6,9.6,0,0,0,2.77,6.9,9.17,9.17,0,0,0,6.69,2.91h.12a8.9,8.9,0,0,0,6.54-2.73,9.23,9.23,0,0,0,2.73-6.74V320.58a10.12,10.12,0,0,0-2.69-6.95A9.69,9.69,0,0,0,810.06,310.28Zm6.88,10.3v53.17a6.86,6.86,0,0,1-2,5.05,6.52,6.52,0,0,1-4.83,2H810a6.72,6.72,0,0,1-5-2.17,7.17,7.17,0,0,1-2.09-5.23V319.35a6.51,6.51,0,0,1,2.05-5,5.94,5.94,0,0,1,4.27-1.72c.21,0,.43,0,.64,0a7.26,7.26,0,0,1,5,2.56A7.66,7.66,0,0,1,816.94,320.58Z" transform="translate(-616.46 -111.53)"/><path class="cls-6" d="M697.62,490.12V417.56l1.23,0q6,.14,12,.25V407.13c-12.17-.11-24.46-.26-36.55-.46v10.2q6,.21,12.08.39l1.17,0v71.78C690.89,489.45,694.26,489.8,697.62,490.12Z" transform="translate(-616.46 -111.53)"/><path class="cls-1" d="M686.21,491.34c4.13.48,8.34.92,12.5,1.31l1.32.12V420q6,.15,12,.25l1.23,0V404.74h-1.2c-13-.11-26.07-.28-38.94-.49l-1.22,0v15l1.16.05q6,.21,12.08.39v71.59ZM674.3,416.87v-10.2c12.09.2,24.38.35,36.55.46v10.71q-6-.1-12-.25l-1.23,0v72.56c-3.36-.32-6.73-.67-10.07-1.05V417.29l-1.17,0Q680.34,417.08,674.3,416.87Z" transform="translate(-616.46 -111.53)"/><path class="cls-6" d="M734.65,418.09c7.26.05,14.63.08,21.92.07V407.24H753c-9.84,0-19.83,0-29.72-.09V492c11,.56,22.21.82,33.25.75V481.85c-7.29,0-14.68-.05-22-.25l-1.18,0V455.26l1.23,0c5.2.11,10.47.17,15.68.18V444.55c-5.23,0-10.51-.06-15.72-.14l-1.19,0V418.08Z" transform="translate(-616.46 -111.53)"/><path class="cls-1" d="M757.78,420.56H759V404.83H753c-10.24,0-20.64,0-30.92-.1h-1.21v89.56l1.14.07c10.31.54,20.76.82,31.09.82,1.55,0,3.1,0,4.65,0H759V479.42h-1.21c-7.28.05-14.64,0-21.93-.2V457.71c5.22.1,10.49.15,15.7.16h1.21V442.14h-1.2c-5.22,0-10.5-.05-15.71-.12V420.5C743.13,420.56,750.49,420.58,757.78,420.56Zm-23.16,23.85c5.21.08,10.49.13,15.72.14v10.91c-5.21,0-10.48-.07-15.68-.18l-1.23,0v26.31l1.18,0c7.28.2,14.67.29,22,.25v10.91c-11,.07-22.21-.19-33.25-.75V407.15c9.89.06,19.88.09,29.72.09h3.53v10.92c-7.29,0-14.66,0-21.92-.07h-1.22v26.31Z" transform="translate(-616.46 -111.53)"/><path class="cls-6" d="M777.72,492.25v-85l-10.12,0v85.3C771,492.51,774.36,492.4,777.72,492.25Z" transform="translate(-616.46 -111.53)"/><path class="cls-1" d="M765.19,404.89v90.17l1.23,0c4.18-.09,8.4-.24,12.56-.42l1.15-.05V404.83h-1.21l-12.53.05Zm2.41,2.4,10.12,0v85c-3.36.15-6.75.26-10.12.34Z" transform="translate(-616.46 -111.53)"/><path class="cls-6" d="M819.56,462.69c-5.13-17.19-10.47-35.42-16.31-55.7l-11.93.1v84.43c3.36-.22,6.75-.47,10.1-.75V428.93l2.35,7.46c6,19.13,11.56,36.31,16.86,52.46,3.78-.44,7.58-.92,11.34-1.44V406.6l-10.05.16v63.83Z" transform="translate(-616.46 -111.53)"/><path class="cls-1" d="M819.51,404.38v49.7C815,439,810.36,423,805.31,405.44l-.25-.88h-.92q-7,.07-14,.12h-1.2v89.39l1.28-.08c4.17-.27,8.39-.58,12.53-.93l1.11-.1V444.55c5.24,16.56,10.11,31.67,14.82,46l.31.93,1-.11c4.47-.52,9-1.09,13.41-1.7l1-.15V404.15l-1.23,0-12.45.19Zm2.41,2.38L832,406.6v80.81c-3.76.52-7.56,1-11.34,1.44-5.3-16.15-10.82-33.33-16.86-52.46l-2.35-7.46v61.84c-3.35.28-6.74.53-10.1.75V407.09l11.93-.1c5.84,20.28,11.18,38.51,16.31,55.7l2.36,7.9Z" transform="translate(-616.46 -111.53)"/></svg>