<svg xmlns="http://www.w3.org/2000/svg" viewBox="0 0 235.39 208.36"><defs><style>.cls-1{isolation:isolate;}.cls-2{fill:#231f20;}.cls-3{fill:#604c00;}.cls-4{fill:#f48026;}.cls-5{fill:#d35e1f;opacity:0.4;mix-blend-mode:multiply;}.cls-6{fill:#fff;}</style></defs><title>pumpkinIcon</title><g class="cls-1"><g id="Layer_2" data-name="Layer 2"><path class="cls-2" d="M680.57,317.55a60.93,60.93,0,0,0-22.51-18.49,32.09,32.09,0,0,0-14.71-3.25,29.27,29.27,0,0,0-7.24,1.4c-2.37.69-4.66,2.77-7,3.29a47.24,47.24,0,0,0-40,5.44.7.7,0,0,0-.26.31c-1.37-.2-2.73-.33-4.11-.41a35.45,35.45,0,0,1-12-15.56c-3.44-8.22-3.72-17.09-3-25.83a1.1,1.1,0,0,0-.8-1.66c-5.72-.92-11.46-.28-17.1.81-2.52.49-6.43,1.15-7.21,4a.91.91,0,0,0,1.51.85l.12-.1c8,3.25,12.67,9.74,15.31,18s3.75,17.85-.89,25.42a.78.78,0,0,0-.1.6c-1.09.84-2.18,1.73-3.28,2.68-3.51-.88-13.5,3.3-14.73,3.77-.76.29-1.5.61-2.25.92a66.63,66.63,0,0,0-13.81,1.38A101.38,101.38,0,0,0,509,326.84,81.26,81.26,0,0,0,482,346a73.86,73.86,0,0,0-20.07,60.18c2.75,21.18,14.55,41.62,33.48,52.15,17.14,9.54,38.18,14.62,57.86,11.46A45.69,45.69,0,0,0,559,470c5.6-.12,11.31-1.59,16.75-2.78a39,39,0,0,0,9.27-3.1,38,38,0,0,0,8.52,1.33,35.65,35.65,0,0,0,23.07-7.28c3.52-.38,6.72-2.31,9.78-4.17a1.09,1.09,0,0,0,.6.46l.26-.1a13.46,13.46,0,0,1,4.94-.46,25.15,25.15,0,0,0,3.88-.18c17.47-3.35,33.08-16.38,44.11-29.62,12.46-15,16.45-36.07,16.52-55.12C696.74,350.75,691.51,332.26,680.57,317.55Z" transform="translate(-461.28 -262.35)"/><path class="cls-3" d="M547.63,267.46c1.87-1,4.27-1.24,6.28-1.6,4.9-.89,9.67-.72,14.62-.57a.93.93,0,0,0,.24,0,47,47,0,0,0,2.14,27.82c1.28,3.33,4.12,9.38,7.86,12.8a51.3,51.3,0,0,0-5.38.66,26.94,26.94,0,0,0-9.31,3.53c4-5.9,2.44-15.87,1.15-22C563.08,277.87,557.36,270.26,547.63,267.46Z" transform="translate(-461.28 -262.35)"/><path class="cls-4" d="M499.52,456.94c-19.23-9.85-31-29-34.62-49.92s2.83-41.63,16.37-57.9a77.77,77.77,0,0,1,26.65-20.26A93.91,93.91,0,0,1,525,323a78,78,0,0,1,12.18-1.8,85.24,85.24,0,0,0-25,17c-16.59,16.39-25.5,38.82-22.72,62.12a81.78,81.78,0,0,0,36.9,59.26A69.72,69.72,0,0,0,542,467.29,93.62,93.62,0,0,1,499.52,456.94Z" transform="translate(-461.28 -262.35)"/><path class="cls-4" d="M574.23,464.79q-2.72.6-5.47,1.13a1.34,1.34,0,0,1-.27.07l-.37.05c-.73.14-1.46.29-2.19.41l.64-.23-.57,0c-.3.08-.61.16-.92.22a1.55,1.55,0,0,1-.71-.05,32,32,0,0,1-5.08.62,38.43,38.43,0,0,1-5.88-.31l-2.06.2c-8.91-1.28-17.24-5.55-24.72-10.43-18.81-12.29-30.31-31.5-34.1-53.48-3.64-21.09,4.21-42,17.69-58a80.18,80.18,0,0,1,23.56-18.73c1.2-.65,16.69-8.18,21.76-9.54-14.08,11.13-18.65,32.07-21,49.57-3.24,23.94,2.93,46.59,15.23,67,7.34,12.19,17.92,24.37,31.41,29.56A55.51,55.51,0,0,1,574.23,464.79Z" transform="translate(-461.28 -262.35)"/><path class="cls-4" d="M595.29,462.14a32.29,32.29,0,0,1-6.49-.45l.08-.06c-.56-.05-1.12-.09-1.68-.18a17,17,0,0,1-5.1-1.63c-14.61-5.72-25.68-20.91-32.78-34a97.89,97.89,0,0,1-11.22-61.11c2.92-21.56,9.57-44,31.29-53.28a.79.79,0,0,0,.4-.46c.77-.28,1.58-.53,2.44-.75a43.39,43.39,0,0,1,19.92.18c12.49,2.79,22.22,11.4,29.54,21.54,16.12,22.33,21,52.79,16.49,79.57C634.38,434.19,621.53,461.25,595.29,462.14Z" transform="translate(-461.28 -262.35)"/><path class="cls-4" d="M622.35,453.1c6.7-6.94,11.65-16,14.85-25,10.7-30.21,6.68-66-9.66-93.42-7.7-12.93-19.14-23.63-33.94-27.47q-1.17-.3-2.37-.54c17.64-8.93,37.95-6.46,53.48,5.93,14.73,11.74,22.15,30.12,24.76,48.32s.47,37.06-7.63,53.78A78.83,78.83,0,0,1,631,448C628.24,449.69,625.34,451.53,622.35,453.1Z" transform="translate(-461.28 -262.35)"/><path class="cls-4" d="M679.75,419.48c-10.73,14.74-29.13,29.71-48.07,31.38a105.53,105.53,0,0,0,12.22-8.57c7.94-6.46,14.33-15.07,19.27-24,10-18,12-39.26,9.13-59.4-2.75-19.19-11.29-37.65-26.72-49.81a50.29,50.29,0,0,0-14-7.77c2.65-.63,5.37-2,8-2.43,6-1,11.73.68,17.09,3.12,8.52,3.88,15.57,10.28,21.21,17.63,10.31,13.41,14.85,30.5,15.45,47.18C694,384.55,690.3,405,679.75,419.48Z" transform="translate(-461.28 -262.35)"/><path class="cls-5" d="M501.14,433.7l-.65-.08c-10.28-1.47-21.65-3.87-30.46-9.19,5.88,13.75,15.79,25.49,29.49,32.51A93.62,93.62,0,0,0,542,467.29a69.72,69.72,0,0,1-15.61-7.81A82.93,82.93,0,0,1,501.14,433.7Z" transform="translate(-461.28 -262.35)"/><path class="cls-5" d="M549.76,433.32c-.17-.28-.32-.56-.49-.84a148.53,148.53,0,0,1-44.86,1.63,75.16,75.16,0,0,0,22.22,22.4c7.48,4.88,15.81,9.15,24.72,10.43l2.06-.2a38.43,38.43,0,0,0,5.88.31,32,32,0,0,0,5.08-.62,1.55,1.55,0,0,0,.71.05c.31-.06.62-.14.92-.22l.57,0-.64.23c.73-.12,1.46-.27,2.19-.41l.37-.05a1.34,1.34,0,0,0,.27-.07q2.76-.53,5.47-1.13a55.51,55.51,0,0,0,6.94-1.91C567.68,457.69,557.1,445.51,549.76,433.32Z" transform="translate(-461.28 -262.35)"/><path class="cls-5" d="M579.5,423.27a147.55,147.55,0,0,1-26.76,8.5c7,11.44,16.92,23.18,29.36,28.05a17,17,0,0,0,5.1,1.63c.56.09,1.12.13,1.68.18l-.08.06a32.29,32.29,0,0,0,6.49.45c26.24-.89,39.09-27.95,42.89-50.6a117.51,117.51,0,0,0-.69-42.28C624.28,392.79,604.55,412.57,579.5,423.27Z" transform="translate(-461.28 -262.35)"/><path class="cls-5" d="M669.47,360.91c-2-14.17-7-28.43-16-39.6a100.59,100.59,0,0,1-6,26.47A149.67,149.67,0,0,1,639.82,365c5.09,20.8,4.45,43.19-2.62,63.14-3.2,9-8.15,18.07-14.85,25,3-1.57,5.89-3.41,8.62-5.11a78.83,78.83,0,0,0,30.87-33.3C669.94,398,672.11,379.22,669.47,360.91Z" transform="translate(-461.28 -262.35)"/><path class="cls-5" d="M693.38,366.83c-.6-16.68-5.14-33.77-15.45-47.18-5.64-7.35-12.69-13.75-21.21-17.63a46.36,46.36,0,0,0-4.7-1.86,66.78,66.78,0,0,1,1.64,16.55c10.39,11.62,16.41,26.67,18.64,42.2,2.9,20.14.87,41.37-9.13,59.4-4.94,8.91-11.33,17.52-19.27,24a105.53,105.53,0,0,1-12.22,8.57c18.94-1.67,37.34-16.64,48.07-31.38C690.3,405,694,384.55,693.38,366.83Z" transform="translate(-461.28 -262.35)"/><path class="cls-6" d="M564.72,320.12c-10.57,6-14.69,19-17.38,30.16-.45,1.82,2.31,2.24,2.85.61,3.47-10.35,6.75-22.39,14.79-30.25C565.21,320.43,565.08,319.92,564.72,320.12Z" transform="translate(-461.28 -262.35)"/><path class="cls-6" d="M514.57,346.84c-13.72,18.7-16.34,42.58-12.43,65,.17,1,1.5.61,1.42-.27-2.23-22.94-.65-44.15,11.55-64.29C515.36,346.85,514.87,346.43,514.57,346.84Z" transform="translate(-461.28 -262.35)"/><path class="cls-6" d="M482.72,352.33c-1.91,3.66-4.63,6.66-6.65,10.22a50.25,50.25,0,0,0-4.67,12.8c-2.23,9-2.1,18.62-1.23,27.81.09.95,1.47.58,1.39-.27a96.77,96.77,0,0,1,1-27.45c1.7-8.91,6.91-15.05,10.47-23C483.1,352.23,482.81,352.15,482.72,352.33Z" transform="translate(-461.28 -262.35)"/><path class="cls-6" d="M629.06,324.18a37.29,37.29,0,0,0-11.45-10.64c-.24-.14-.55.25-.31.4a36.85,36.85,0,0,1,11.21,10.68C628.76,325,629.3,324.5,629.06,324.18Z" transform="translate(-461.28 -262.35)"/><path class="cls-6" d="M558.68,266.42c-.65-.6-1.74.56-1.19,1.21a27.85,27.85,0,0,1,4.48,7.86c.39,1,1.9.39,1.74-.57A14.89,14.89,0,0,0,558.68,266.42Z" transform="translate(-461.28 -262.35)"/></g></g></svg>