<svg id="Layer_2" data-name="Layer 2" xmlns="http://www.w3.org/2000/svg" viewBox="0 0 236.2 147.07"><defs><style>.cls-1{fill:#83402a;}.cls-2{fill:#5b221a;}.cls-3{fill:#ac703f;}</style></defs><title>sausageIcon</title><path class="cls-1" d="M646.57,519.16a24.36,24.36,0,0,1,32.9-32.53c54.34,27.74,127.73,6.17,128.47,5.95a24.36,24.36,0,0,1,14.18,46.62c-3.75,1.15-92.71,27.63-164.8-9.17A24.24,24.24,0,0,1,646.57,519.16Z" transform="translate(-624.44 -428.14)"/><path class="cls-2" d="M746.72,554c-28.62,0-61.44-4.6-91.45-19.92a28.64,28.64,0,0,1-12.73-12.88,28.86,28.86,0,0,1,39-38.54c52.56,26.83,124.4,5.87,125.12,5.65a28.87,28.87,0,0,1,16.79,55.24C821.17,544.2,788.39,554,746.72,554Zm-78.29-65.5a19.86,19.86,0,0,0-17.83,28.7h0a19.71,19.71,0,0,0,8.76,8.86c70.49,36,157.76,10,161.45,8.88a19.86,19.86,0,1,0-11.56-38c-.76.23-75.83,22.33-131.82-6.26A19.81,19.81,0,0,0,668.43,488.46Z" transform="translate(-624.44 -428.14)"/><polygon class="cls-1" points="214.95 87.42 230.34 79.8 231.7 101.89 214.95 87.42"/><path class="cls-2" d="M856.14,534.53a4.48,4.48,0,0,1-2.94-1.09L836.45,519a4.51,4.51,0,0,1,.94-7.44l15.4-7.62a4.49,4.49,0,0,1,6.49,3.75l1.35,22.09a4.5,4.5,0,0,1-2.49,4.31A4.45,4.45,0,0,1,856.14,534.53Zm-8.68-17.94,3.54,3-.29-4.66Z" transform="translate(-624.44 -428.14)"/><polygon class="cls-1" points="22.25 69.11 4.5 55.43 4.97 72.3 22.25 69.11"/><path class="cls-2" d="M629.41,504.94a4.5,4.5,0,0,1-4.5-4.37l-.47-16.87a4.5,4.5,0,0,1,7.25-3.69l17.75,13.67a4.5,4.5,0,0,1-1.93,8l-17.28,3.2A4.54,4.54,0,0,1,629.41,504.94Zm4.29-12,.06,2.14,2.2-.4Z" transform="translate(-624.44 -428.14)"/><path class="cls-3" d="M664.58,568.21a24.37,24.37,0,0,1,6.33-45.84c60-11,105.14-72.8,105.58-73.42a24.37,24.37,0,0,1,39.62,28.38c-2.28,3.19-56.78,78.32-136.39,93A24.26,24.26,0,0,1,664.58,568.21Z" transform="translate(-624.44 -428.14)"/><path class="cls-2" d="M675.26,575.21a28.66,28.66,0,0,1-12.67-3h0a28.88,28.88,0,0,1,7.5-54.31c58-10.67,102.31-71,102.75-71.62a28.86,28.86,0,0,1,46.93,33.62c-2.32,3.26-57.86,79.81-139.23,94.78A28.67,28.67,0,0,1,675.26,575.21Zm-8.7-11a19.71,19.71,0,0,0,12.35,1.7c77.83-14.32,131.3-88,133.54-91.16a19.87,19.87,0,0,0-32.3-23.14c-.46.64-46.55,63.84-108.43,75.22a19.87,19.87,0,0,0-5.16,37.38Z" transform="translate(-624.44 -428.14)"/><polygon class="cls-3" points="191 19.92 198.58 4.5 213.09 21.21 191 19.92"/><path class="cls-2" d="M837.53,453.85h-.26l-22.1-1.29a4.5,4.5,0,0,1-3.77-6.48L819,430.66a4.5,4.5,0,0,1,7.44-1l14.51,16.71a4.5,4.5,0,0,1-3.4,7.45ZM822.47,444l4.66.28-3.06-3.53Z" transform="translate(-624.44 -428.14)"/><polygon class="cls-3" points="26.91 122.6 4.5 122.54 15.13 135.65 26.91 122.6"/><path class="cls-2" d="M639.58,568.29h-.12a4.52,4.52,0,0,1-3.38-1.66l-10.63-13.11a4.5,4.5,0,0,1,3.49-7.34h0l22.41.06a4.49,4.49,0,0,1,3.33,7.51l-11.77,13A4.5,4.5,0,0,1,639.58,568.29Zm-1.17-13.08,1.35,1.66,1.49-1.66Z" transform="translate(-624.44 -428.14)"/></svg>