<svg id="Layer_2" data-name="Layer 2" xmlns="http://www.w3.org/2000/svg" viewBox="0 0 124.74 287.92"><defs><style>.cls-1{fill:#d1d3d4;}.cls-2{fill:#dc9836;}.cls-3{fill:#c0631c;}.cls-4{fill:#d3862e;}.cls-5{fill:#ffd49c;}</style></defs><title>spicesIcon</title><path class="cls-1" d="M625.22,324.25a6.13,6.13,0,1,1-6.13-6.13,6.14,6.14,0,0,1,6.13,6.13" transform="translate(-557.15 -318.12)"/><path class="cls-2" d="M648.82,606h-58.6a30.66,30.66,0,0,1-30.39-34.65l24.29-184.55h70.8l24.29,184.55A30.66,30.66,0,0,1,648.82,606" transform="translate(-557.15 -318.12)"/><path class="cls-3" d="M663.89,371.84H575.15a5.45,5.45,0,0,0-5.45,5.45v4.1a5.45,5.45,0,0,0,5.45,5.45h88.74a5.45,5.45,0,0,0,5.45-5.45v-4.1a5.45,5.45,0,0,0-5.45-5.45" transform="translate(-557.15 -318.12)"/><path class="cls-3" d="M652.77,324.25H585.41a11.66,11.66,0,0,0-11.16,15l9.87,32.55h69.94l9.86-32.55a11.65,11.65,0,0,0-11.15-15" transform="translate(-557.15 -318.12)"/><polygon class="cls-4" points="99.45 81.43 97.77 68.71 26.97 68.71 25.3 81.43 99.45 81.43"/><path class="cls-3" d="M676.89,538.55H562.15a5,5,0,0,1-5-5v-2a5,5,0,0,1,5-5H676.89a5,5,0,0,1,5,5v2a5,5,0,0,1-5,5" transform="translate(-557.15 -318.12)"/><path class="cls-3" d="M676.89,562.55H562.15a5,5,0,0,1-5-5v-2a5,5,0,0,1,5-5H676.89a5,5,0,0,1,5,5v2a5,5,0,0,1-5,5" transform="translate(-557.15 -318.12)"/><path class="cls-5" d="M586.71,483.62h0a7,7,0,0,1-5.9-7.87l8.27-57.94a7,7,0,1,1,13.77,2l-8.27,58a7,7,0,0,1-7.87,5.9" transform="translate(-557.15 -318.12)"/><path class="cls-5" d="M592,496.11a7,7,0,1,1-5.9-7.87,6.95,6.95,0,0,1,5.9,7.87" transform="translate(-557.15 -318.12)"/></svg>