<svg id="Layer_2" data-name="Layer 2" xmlns="http://www.w3.org/2000/svg" viewBox="0 0 255.85 309.62"><defs><style>.cls-1{fill:#e52c2c;}.cls-2{fill:#e0ea98;}.cls-3{fill:#32440e;}</style></defs><title>strawberryIcon</title><path class="cls-1" d="M1401.11,587.37a95.18,95.18,0,0,0-8.95-6.92c-12.22,4.19-28.59,1.88-40.44-.49,0,2.47-2.47,7.41-4.94,9.88-17.29-2.47-32.11-14.82-46.93-22.23l-2.47,2.47c-7.41,24.7-49.39,44.46-39.51,7.41-19.77,9.88-81.51,39.52-44.46-4.94a17,17,0,0,1-2.46-.2c-25.66,14.24-42.79,37-42,69.36,0,69.15,61.74,187.7,140.77,185.23l-1.31-2.12C1396.22,820.13,1462,644,1401.11,587.37Zm-1.64,54.57c4.43-1.22,9,3,7.58,7.58-.6,2,.13,4.48-.24,6.63a68.65,68.65,0,0,1-1.74,6.92c-1.21,4.3-3.43,8.17-4.51,12.51-.53,2.15-4.12,1.74-3.92-.53a106.57,106.57,0,0,1,1.55-11.1,20.12,20.12,0,0,0,.16-6c-.1-1.24-.65-4.88-1.6-5.76C1393.3,649.06,1395.13,643.13,1399.47,641.94ZM1380,600.83c3.17-.87,6.83,1.62,6.65,5.07-.08,1.51.29,3.33.36,4.87a21.15,21.15,0,0,1-.62,5.18,30.62,30.62,0,0,1-3.19,8.28c-1.14,2-4.62.66-3.81-1.6a14.47,14.47,0,0,0,.53-7.72c-.25-1.52-1-4.31-2.23-5.3C1374.41,607.09,1376.49,601.78,1380,600.83Zm-4.7,131.58c1.94-4,3.79-8.17,5.56-12.25a17.94,17.94,0,0,0,1.49-5.87c.08-1.12.85-3.24.52-4.26-1.72-5.24,4.54-9.6,9-7,4.24,2.49,3.7,8,0,10.65,1.58-1.11-.46,1.59-.6,1.78-.46.65-.93,1.29-1.43,1.91a33.9,33.9,0,0,0-3.62,5.91,45.43,45.43,0,0,1-8.86,10.72A1.35,1.35,0,0,1,1375.25,732.41Zm-172.14-47.75c-5.82-11.31-12.3-21.9-16.65-33.9-2.91-8,11.37-11.11,12.11-1.64.91,11.6,4.67,23,8,34.06C1207.23,685.24,1204.11,686.59,1203.11,684.66ZM1231,620.51c.58,1.87,1.92,4.29,1.81,6.29a11.69,11.69,0,0,0,.78,4.13c.83,2.58.71,5.16,1.42,7.8.47,1.71-2,3.44-3.19,1.86-1.84-2.38-4.09-3.93-5.63-6.54-1-1.62-2.32-3-3.26-4.57a37.6,37.6,0,0,1-2.4-6.09C1218.13,616.86,1228.88,613.8,1231,620.51Zm2.56,124.55c-8.47-6.81-12.6-17.66-16-27.67-2.55-7.42,10.34-10.73,11.56-3.18,1.6,9.95,3.09,18.86,9.12,27.27C1240.29,744.43,1235.94,747,1233.55,745.06Zm21.68-69.85c-3-3.52-1.22-9.34,3.87-9.34s6.82,5.82,3.87,9.34c0,0-.35,2.78-.39,3.15-.16,1.34-.54,2.66-.77,4-.38,2.25-1,4.38-1.33,6.64a1.44,1.44,0,0,1-2.76,0c-.36-2.61-1.12-5.08-1.47-7.69a35.59,35.59,0,0,0-.89-4.07C1255.4,677.4,1254.87,674.79,1255.23,675.21Zm11.42,122.39c-3.1-7.43-8.05-13.59-10.63-21.34-1.83-5.48,6.81-7.82,8.62-2.37,2.54,7.62,2.24,15.42,4.19,23.11A1.13,1.13,0,0,1,1266.65,797.6Zm14.52-191.28c-1.83,4.62-1.11,10.43-1.1,15.38s-.29,10-.71,15.07a1.74,1.74,0,0,1-3.48,0,115.4,115.4,0,0,0-3.3-16c-1-4.12-1.17-9-2.83-12.92C1264.5,595.56,1284.94,596.88,1281.17,606.32Zm-.12,150.5c-3.09-3.77-5.19-7.87-7.69-12-2.71-4.52-3-10-4.07-15-2-9.65,13.48-10,11.72,0a43.36,43.36,0,0,0,3.39,24.47C1285.35,756.28,1282.69,758.81,1281.05,756.82ZM1300.56,698c1.69-8.85.89-16.52-1.26-25.17-2.28-9.17,13.25-9.16,11,0-2.17,8.69-3.73,17.51-6.19,26.14C1303.42,701.28,1300.13,700.31,1300.56,698Zm13,91.62c-.24,3.62-1.55,7.06-2.24,10.57a1.71,1.71,0,0,1-3.27,0c-.63-3.21-1.79-6.3-2.59-9.47-.72-2.87-1.12-5.58-2.74-8.11-4-6.31,7.37-11.46,9.52-4A32.91,32.91,0,0,1,1313.6,789.65Zm1-193.53c-.72,3.51-1.82,6.8-2.14,10.4-.25,2.85-.73,5.62-1.12,8.46-.22,1.58-3,1.58-3.19,0-.44-3.25-.9-6.44-1.24-9.7s-1.39-6.08-2-9.16C1303.19,588,1316.26,588,1314.58,596.12Zm14.65,152.67c-.78,2-1.9,3.61-2.35,5.71a65.24,65.24,0,0,1-3.76,11.31c-.56,1.33-2.48.33-2.22-.94a32.83,32.83,0,0,0,1-8.14c0,.32-.51-4.54-.51-4.55-2.53-2.55-2.56-8.33-2.81-11.68-.59-7.67,12.48-7.67,11.89,0C1330.3,743.07,1330.18,746.37,1329.23,748.79Zm5-96.57c-.77,1.47-2.82.18-2.18-1.27,3.81-8.59,5.12-17.35,1.19-26.17s10.41-11.56,10.44-2.83C1343.76,632.81,1339.21,642.75,1334.28,652.22Zm25.18,117.6c0,.12-.06.22-.13.42a4,4,0,0,1-1,1.8c.84-.69,0,.74-.1,1.26a23.8,23.8,0,0,1-5.39,10.26c-1.12,1.33-3.31-.4-2.39-1.84,1.95-3.07,1.68-7.05,1.46-10.66a4,4,0,0,1-.54-1.91c-.15-.93,0-1,.32-.14a4.88,4.88,0,0,1-.67-2.48c0-2.46,2-5.3,4.48-5.69,3-.46,5.56,1.18,5.72,4.36A6.37,6.37,0,0,1,1359.46,769.82Zm7.34-97.9c-4,8.21-8.56,15.72-11.23,24.5a1.44,1.44,0,0,1-2.77-.76c1.85-9.45,1.23-18.94,3-28.39C1357.27,659.14,1370.84,663.53,1366.8,671.92Z" transform="translate(-1168.92 -517.36)"/><path class="cls-2" d="M1198.57,649.12c-.74-9.47-15-6.39-12.11,1.64,4.35,12,10.83,22.59,16.65,33.9,1,1.93,4.12.58,3.49-1.48C1203.24,672.11,1199.48,660.72,1198.57,649.12Z" transform="translate(-1168.92 -517.36)"/><path class="cls-2" d="M1272.58,620.74a115.4,115.4,0,0,1,3.3,16,1.74,1.74,0,0,0,3.48,0c.42-5,.72-10,.71-15.07s-.73-10.76,1.1-15.38c3.77-9.44-16.67-10.76-11.42,1.5C1271.41,611.69,1271.53,616.62,1272.58,620.74Z" transform="translate(-1168.92 -517.36)"/><path class="cls-2" d="M1333.29,624.78c3.93,8.82,2.62,17.58-1.19,26.17-.64,1.45,1.41,2.74,2.18,1.27,4.93-9.47,9.48-19.41,9.45-30.27C1343.7,613.22,1329.37,616,1333.29,624.78Z" transform="translate(-1168.92 -517.36)"/><path class="cls-2" d="M1304.08,699c2.46-8.63,4-17.45,6.19-26.14,2.28-9.16-13.25-9.17-11,0,2.15,8.65,3,16.32,1.26,25.17C1300.13,700.31,1303.42,701.28,1304.08,699Z" transform="translate(-1168.92 -517.36)"/><path class="cls-2" d="M1355.78,667.27c-1.75,9.45-1.13,18.94-3,28.39a1.44,1.44,0,0,0,2.77.76c2.67-8.78,7.28-16.29,11.23-24.5C1370.84,663.53,1357.27,659.14,1355.78,667.27Z" transform="translate(-1168.92 -517.36)"/><path class="cls-2" d="M1398.35,658a20.12,20.12,0,0,1-.16,6,106.57,106.57,0,0,0-1.55,11.1c-.2,2.27,3.39,2.68,3.92.53,1.08-4.34,3.3-8.21,4.51-12.51a68.65,68.65,0,0,0,1.74-6.92c.37-2.15-.36-4.67.24-6.63,1.39-4.53-3.15-8.8-7.58-7.58s-6.17,7.12-2.72,10.3C1397.7,653.12,1398.25,656.76,1398.35,658Z" transform="translate(-1168.92 -517.36)"/><path class="cls-2" d="M1377.36,734a45.43,45.43,0,0,0,8.86-10.72,33.9,33.9,0,0,1,3.62-5.91c.5-.62,1-1.26,1.43-1.91.14-.19,2.18-2.89.6-1.78,3.7-2.6,4.24-8.16,0-10.65-4.51-2.64-10.77,1.72-9,7,.33,1-.44,3.14-.52,4.26a17.94,17.94,0,0,1-1.49,5.87c-1.77,4.08-3.62,8.26-5.56,12.25A1.35,1.35,0,0,0,1377.36,734Z" transform="translate(-1168.92 -517.36)"/><path class="cls-2" d="M1318.6,740.5c.25,3.35.28,9.13,2.81,11.68,0,0,.52,4.87.51,4.55a32.83,32.83,0,0,1-1,8.14c-.26,1.27,1.66,2.27,2.22.94a65.24,65.24,0,0,0,3.76-11.31c.45-2.1,1.57-3.71,2.35-5.71,1-2.42,1.07-5.72,1.26-8.29C1331.08,732.83,1318,732.83,1318.6,740.5Z" transform="translate(-1168.92 -517.36)"/><path class="cls-2" d="M1281,729.77c1.76-10-13.75-9.65-11.72,0,1,5,1.36,10.5,4.07,15,2.5,4.16,4.6,8.26,7.69,12,1.64,2,4.3-.54,3.35-2.58A43.36,43.36,0,0,1,1281,729.77Z" transform="translate(-1168.92 -517.36)"/><path class="cls-2" d="M1229.06,714.21c-1.22-7.55-14.11-4.24-11.56,3.18,3.45,10,7.58,20.86,16,27.67,2.39,1.93,6.74-.63,4.63-3.58C1232.15,733.07,1230.66,724.16,1229.06,714.21Z" transform="translate(-1168.92 -517.36)"/><path class="cls-2" d="M1257.72,689a1.44,1.44,0,0,0,2.76,0c.32-2.26,1-4.39,1.33-6.64.23-1.35.61-2.67.77-4,0-.37.4-3.17.39-3.15,3-3.52,1.22-9.34-3.87-9.34s-6.82,5.82-3.87,9.34c-.36-.42.17,2.19.13,2a35.59,35.59,0,0,1,.89,4.07C1256.6,683.93,1257.36,686.4,1257.72,689Z" transform="translate(-1168.92 -517.36)"/><path class="cls-2" d="M1222.92,629.48c.94,1.6,2.3,2.95,3.26,4.57,1.54,2.61,3.79,4.16,5.63,6.54,1.23,1.58,3.66-.15,3.19-1.86-.71-2.64-.59-5.22-1.42-7.8a11.69,11.69,0,0,1-.78-4.13c.11-2-1.23-4.42-1.81-6.29-2.11-6.71-12.86-3.65-10.47,2.88A37.6,37.6,0,0,0,1222.92,629.48Z" transform="translate(-1168.92 -517.36)"/><path class="cls-2" d="M1304.87,596.12c.63,3.08,1.71,6,2,9.16s.8,6.45,1.24,9.7c.22,1.58,3,1.58,3.19,0,.39-2.84.87-5.61,1.12-8.46.32-3.6,1.42-6.89,2.14-10.4C1316.26,588,1303.19,588,1304.87,596.12Z" transform="translate(-1168.92 -517.36)"/><path class="cls-2" d="M1379.87,614.91a14.47,14.47,0,0,1-.53,7.72c-.81,2.26,2.67,3.63,3.81,1.6a30.62,30.62,0,0,0,3.19-8.28,21.15,21.15,0,0,0,.62-5.18c-.07-1.54-.44-3.36-.36-4.87.18-3.45-3.48-5.94-6.65-5.07-3.46.95-5.54,6.26-2.31,8.78C1378.9,610.6,1379.62,613.39,1379.87,614.91Z" transform="translate(-1168.92 -517.36)"/><path class="cls-2" d="M1302.76,782.64c1.62,2.53,2,5.24,2.74,8.11.8,3.17,2,6.26,2.59,9.47a1.71,1.71,0,0,0,3.27,0c.69-3.51,2-7,2.24-10.57a32.91,32.91,0,0,0-1.32-11C1310.13,771.18,1298.72,776.33,1302.76,782.64Z" transform="translate(-1168.92 -517.36)"/><path class="cls-2" d="M1264.64,773.89c-1.81-5.45-10.45-3.11-8.62,2.37,2.58,7.75,7.53,13.91,10.63,21.34a1.13,1.13,0,0,0,2.18-.6C1266.88,789.31,1267.18,781.51,1264.64,773.89Z" transform="translate(-1168.92 -517.36)"/><path class="cls-2" d="M1355.45,760.84c-2.49.39-4.48,3.23-4.48,5.69a4.88,4.88,0,0,0,.67,2.48c-.36-.83-.47-.79-.32.14a4,4,0,0,0,.54,1.91c.22,3.61.49,7.59-1.46,10.66-.92,1.44,1.27,3.17,2.39,1.84a23.8,23.8,0,0,0,5.39-10.26c.13-.52.94-1.95.1-1.26a4,4,0,0,0,1-1.8c.07-.2.09-.3.13-.42a6.37,6.37,0,0,0,1.71-4.62C1361,762,1358.42,760.38,1355.45,760.84Z" transform="translate(-1168.92 -517.36)"/><path class="cls-3" d="M1257.87,577.49c-9.88,37,32.1,17.29,39.51-7.41l2.47-2.47c14.82,7.41,29.64,19.76,46.93,22.23,2.47-2.47,4.94-7.41,4.94-9.88,11.85,2.37,28.22,4.68,40.44.49.5-.18,1-.29,1.54-.49-4.94-2.47-12.35-17.28-19.76-22.23,12.35-2.46,24.7-12.34,32.11-24.69v-2.47c-14.82-2.47-32.11-4.94-49.4-2.47,2.48-2.47,4.95-7.41,7.41-9.88-19.75-2.47-44.45,0-59.27,12.35-12.35-12.35-34.58-14.82-34.58,7.41-17.29-7.41-39.51-9.88-56.8-4.94a74.8,74.8,0,0,0,12.35,17.28c-17.29,2.47-19.76,9.88-27.17,19.76,4.12,0,8.24,1.71,12.36,2.27a17,17,0,0,0,2.46.2C1176.36,617,1238.1,587.37,1257.87,577.49Z" transform="translate(-1168.92 -517.36)"/></svg>