<svg xmlns="http://www.w3.org/2000/svg" viewBox="0 0 228.99 240.62"><defs><style>.cls-1{isolation:isolate;}.cls-2{fill:#231f20;opacity:0.1;mix-blend-mode:multiply;}.cls-3{fill:#ffd27c;}.cls-3,.cls-4{stroke:#231f20;stroke-linecap:round;stroke-linejoin:round;stroke-width:8px;}.cls-4{fill:#ba9765;}</style></defs><title>teaCookiesIcon</title><g class="cls-1"><g id="Layer_3" data-name="Layer 3"><path class="cls-2" d="M935.3,284.64C935.3,295.32,884,304,820.8,304s-114.5-8.65-114.5-19.33,51.27-19.34,114.5-19.34S935.3,274,935.3,284.64Z" transform="translate(-706.3 -63.35)"/><path class="cls-3" d="M929,108.84a14.78,14.78,0,0,0-8.45-13.33A14.79,14.79,0,1,0,900.81,75.8a14.75,14.75,0,0,0-26.67,0,14.75,14.75,0,0,0-26.67,0,14.75,14.75,0,0,0-26.67,0,14.75,14.75,0,0,0-26.67,0,14.75,14.75,0,0,0-26.67,0,14.75,14.75,0,0,0-26.67,0,14.79,14.79,0,1,0-19.71,19.71,14.75,14.75,0,0,0,0,26.67,14.75,14.75,0,0,0,0,26.67,14.75,14.75,0,0,0,0,26.67,14.75,14.75,0,0,0,0,26.67,14.75,14.75,0,0,0,0,26.67,14.75,14.75,0,0,0,0,26.67,14.79,14.79,0,1,0,19.71,19.71,14.75,14.75,0,0,0,26.67,0,14.75,14.75,0,0,0,26.67,0,14.75,14.75,0,0,0,26.67,0,14.75,14.75,0,0,0,26.67,0,14.75,14.75,0,0,0,26.67,0,14.75,14.75,0,0,0,26.67,0,14.79,14.79,0,1,0,19.71-19.71,14.75,14.75,0,0,0,0-26.67,14.75,14.75,0,0,0,0-26.67,14.75,14.75,0,0,0,0-26.67,14.75,14.75,0,0,0,0-26.67,14.75,14.75,0,0,0,0-26.67A14.8,14.8,0,0,0,929,108.84Z" transform="translate(-706.3 -63.35)"/><path class="cls-4" d="M771.49,117.2a9,9,0,1,1-9-9A9,9,0,0,1,771.49,117.2Z" transform="translate(-706.3 -63.35)"/><path class="cls-4" d="M753.47,233.84a9,9,0,1,1,9,9A9,9,0,0,1,753.47,233.84Z" transform="translate(-706.3 -63.35)"/><path class="cls-4" d="M771.49,175.52a9,9,0,1,1-9-9A9,9,0,0,1,771.49,175.52Z" transform="translate(-706.3 -63.35)"/><path class="cls-4" d="M829.81,117.2a9,9,0,1,1-9-9A9,9,0,0,1,829.81,117.2Z" transform="translate(-706.3 -63.35)"/><path class="cls-4" d="M811.79,233.84a9,9,0,1,1,9,9A9,9,0,0,1,811.79,233.84Z" transform="translate(-706.3 -63.35)"/><path class="cls-4" d="M829.81,175.52a9,9,0,1,1-9-9A9,9,0,0,1,829.81,175.52Z" transform="translate(-706.3 -63.35)"/><path class="cls-4" d="M888.13,117.2a9,9,0,1,1-9-9A9,9,0,0,1,888.13,117.2Z" transform="translate(-706.3 -63.35)"/><path class="cls-4" d="M870.11,233.84a9,9,0,1,1,9,9A9,9,0,0,1,870.11,233.84Z" transform="translate(-706.3 -63.35)"/><path class="cls-4" d="M888.13,175.52a9,9,0,1,1-9-9A9,9,0,0,1,888.13,175.52Z" transform="translate(-706.3 -63.35)"/></g></g></svg>