<svg id="Layer_2" data-name="Layer 2" xmlns="http://www.w3.org/2000/svg" viewBox="0 0 279.98 161.94"><defs><style>.cls-1{fill:#fff;}.cls-2{fill:#666362;}</style></defs><title>whiteCheeseIcon</title><path class="cls-1" d="M479.71,553.21l272.88-.47S728,487.61,647.19,464.08Z" transform="translate(-476.22 -460.72)"/><path class="cls-2" d="M752.6,556.24l-272.88.46-1.65-6.58L645.55,461l2.62-.28c81.56,23.74,106.66,88.06,107.69,90.79Zm-258.83-6.55,253.41-.43c-7.39-15.07-35-62.09-99.61-81.42Z" transform="translate(-476.22 -460.72)"/><rect class="cls-1" x="479.73" y="552.98" width="272.88" height="22.17" transform="translate(-477.18 -459.67) rotate(-0.1)"/><path class="cls-2" d="M752.64,578.41l-272.88.47-3.51-3.49,0-22.18,3.49-3.5,272.88-.46,3.5,3.49,0,22.17Zm-269.4-6.53,265.89-.46,0-15.17-265.88.45Z" transform="translate(-476.22 -460.72)"/><rect class="cls-1" x="479.79" y="575.83" width="272.88" height="43.1" transform="translate(-477.23 -459.67) rotate(-0.1)"/><path class="cls-2" d="M752.71,622.2l-272.88.47-3.5-3.49-.07-43.11,3.49-3.5,272.87-.47,3.51,3.49.07,43.11ZM483.25,579.55l.07,36.12,265.88-.46-.06-36.11" transform="translate(-476.22 -460.72)"/></svg>