<svg id="Layer_2" data-name="Layer 2" xmlns="http://www.w3.org/2000/svg" viewBox="0 0 359.9 388.62"><defs><style>.cls-1{fill:#ef431b;}.cls-2{fill:#33150f;}.cls-3{fill:#cc1d00;}.cls-4{fill:#fff;}.cls-5{fill:#64841f;}</style></defs><title>appleIcon</title><path class="cls-1" d="M1421.56,541.6c-25.16-.9-59.69,21.75-84.72,31.48-.6,9.14-1.68,18.1-4.32,26.3,9.87.12,20.2-.22,29.45-3.87,7.68-3,13.83-8.53,21.39-11.66,3.72-1.55,7.07,2.85,6.2,6.2-5.57,21.36-37.07,25.48-55.39,24.41-17.35-1-43.66-2.11-57.55-13.93-1.42-1.21-.43-3.17,1-3.74,12.66-5.07,29.89-.07,44.47,1.87a82.07,82.07,0,0,1-2.55-21.24,16.39,16.39,0,0,1-6.51-1c-26.89-10.76-149.19-73.73-172,34.82-16.38,77.82,67.59,225.29,143.37,241.67,110.6,24.58,198.67-90.11,213-188.42C1505.54,615.34,1478.92,543.66,1421.56,541.6ZM1459.71,698a1.49,1.49,0,0,1-2.76-.74c.56-11.15,3.33-22,3.53-33.22s-.51-22.35-1.43-33.59c-1.93-23.53-11.38-50.33-28.34-67.27a1.56,1.56,0,0,1,1.88-2.44c24.74,15.68,38,33.9,42.15,63.43C1478,647.38,1471.42,677.75,1459.71,698Z" transform="translate(-1138.9 -467.66)"/><path class="cls-2" d="M1354,468a18.38,18.38,0,0,1-2.76-.37c-11.19,12.32-18.8,29.89-23.59,45.18.92.56,1.88,1.1,2.86,1.62,1-1.16,2-2.31,3-3.58l-2,4.09c-.33-.16-.64-.34-1-.51-1.59,1.84-3.2,3.57-4.83,5.13-.09.31-.18.63-.26.93-3.57,13.33-4.66,27.49-5.39,41.21-.27,5-.52,10.33-.49,15.69a82.07,82.07,0,0,0,2.55,21.24,73.28,73.28,0,0,0,8.18.7l2.27,0c2.64-8.2,3.72-17.16,4.32-26.3.88-13.44.77-27.25,3.23-39.58A131.84,131.84,0,0,1,1352,499.08c4.66-9.17,12.18-16.3,18.29-24.25C1364.64,471.2,1358.89,468.27,1354,468Z" transform="translate(-1138.9 -467.66)"/><path class="cls-3" d="M1322.07,598.66c-14.58-1.94-31.81-6.94-44.47-1.87-1.41.57-2.4,2.53-1,3.74,13.89,11.82,40.2,12.92,57.55,13.93,18.32,1.07,49.82-3.05,55.39-24.41.87-3.35-2.48-7.75-6.2-6.2-7.56,3.13-13.71,8.62-21.39,11.66-9.25,3.65-19.58,4-29.45,3.87l-2.27,0A73.28,73.28,0,0,1,1322.07,598.66Z" transform="translate(-1138.9 -467.66)"/><path class="cls-4" d="M1432.59,560.74a1.56,1.56,0,0,0-1.88,2.44c17,16.94,26.41,43.74,28.34,67.27.92,11.24,1.63,22.31,1.43,33.59s-3,22.07-3.53,33.22a1.49,1.49,0,0,0,2.76.74c11.71-20.25,18.31-50.62,15-73.83C1470.56,594.64,1457.33,576.42,1432.59,560.74Z" transform="translate(-1138.9 -467.66)"/><path class="cls-5" d="M1333.5,510.88c-1,1.27-2,2.42-3,3.58.32.17.63.35,1,.51Z" transform="translate(-1138.9 -467.66)"/><path class="cls-5" d="M1327.63,512.84c-21.07-13-24.81-36.89-59.68-38.83-30.72-2.05-61.44,20.48-86,38.92,48.16-1.93,101.74,46.84,143.73,6.66,1.63-1.56,3.24-3.29,4.83-5.13C1329.51,513.94,1328.55,513.4,1327.63,512.84Z" transform="translate(-1138.9 -467.66)"/></svg>