<svg id="Layer_2" data-name="Layer 2" xmlns="http://www.w3.org/2000/svg" viewBox="0 0 221.74 222.01"><defs><style>.cls-1{fill:#bc7580;}.cls-2{fill:#5b221a;}.cls-3{fill:#9d384f;}</style></defs><title>baconIcon</title><path class="cls-1" d="M839.78,481.05c-18.23,11.28-22.34,4.64-40.56,15.92s-14.12,17.91-32.34,29.19-22.33,4.64-40.55,15.91S712.22,560,694,571.27s-22.33,4.63-40.55,15.92L644.64,573C662.86,561.68,667,568.32,685.2,557s14.11-17.91,32.33-29.18,22.33-4.66,40.55-15.93,14.11-17.91,32.34-29.19,22.33-4.64,40.54-15.92Z" transform="translate(-631.33 -390.65)"/><path class="cls-2" d="M653.45,591.69a4.46,4.46,0,0,1-1-.12,4.53,4.53,0,0,1-2.8-2l-8.8-14.22a4.5,4.5,0,0,1,1.45-6.2A58,58,0,0,1,664,560.6a56.37,56.37,0,0,0,33.83-20.94,65.44,65.44,0,0,1,39.07-24.18,56.13,56.13,0,0,0,33.81-20.93,65.25,65.25,0,0,1,39.06-24.17A49.63,49.63,0,0,0,828.59,463a4.5,4.5,0,0,1,6.2,1.46l8.81,14.22a4.49,4.49,0,0,1-1.46,6.2,58.11,58.11,0,0,1-21.73,8.53,56.32,56.32,0,0,0-33.83,20.94,65.17,65.17,0,0,1-39.06,24.17,56.31,56.31,0,0,0-33.82,20.93,65.33,65.33,0,0,1-39.06,24.18A49.69,49.69,0,0,0,655.82,591,4.46,4.46,0,0,1,653.45,591.69Zm-2.54-17.15,4.06,6.55a56.68,56.68,0,0,1,17.84-6.27,56.26,56.26,0,0,0,33.82-20.94,65.17,65.17,0,0,1,39.06-24.17,56.23,56.23,0,0,0,33.82-20.93,65.31,65.31,0,0,1,39.07-24.18,48.9,48.9,0,0,0,14.93-5.12l-4.07-6.56a56.72,56.72,0,0,1-17.83,6.27,56.37,56.37,0,0,0-33.83,20.93,65.19,65.19,0,0,1-39,24.17,56.37,56.37,0,0,0-33.83,20.94,65.44,65.44,0,0,1-39.07,24.18A48.65,48.65,0,0,0,650.91,574.54Z" transform="translate(-631.33 -390.65)"/><path class="cls-3" d="M831,466.82c-18.21,11.28-22.32,4.65-40.54,15.92s-14.12,17.91-32.34,29.19-22.33,4.64-40.55,15.93S703.42,545.77,685.2,557s-22.34,4.64-40.56,15.93l-8.81-14.23c18.23-11.28,22.34-4.64,40.56-15.91s14.12-17.92,32.34-29.21,22.33-4.64,40.55-15.91,14.11-17.91,32.33-29.19,22.33-4.64,40.55-15.92Z" transform="translate(-631.33 -390.65)"/><path class="cls-2" d="M644.65,577.47a4.5,4.5,0,0,1-3.83-2.13L632,561.11a4.55,4.55,0,0,1-.55-3.4,4.47,4.47,0,0,1,2-2.79,58.08,58.08,0,0,1,21.74-8.55A56.19,56.19,0,0,0,689,525.44a65.31,65.31,0,0,1,39.07-24.18,56.19,56.19,0,0,0,33.82-20.93A65.33,65.33,0,0,1,801,456.15a49.78,49.78,0,0,0,18.83-7.38,4.5,4.5,0,0,1,6.19,1.46l8.8,14.23a4.5,4.5,0,0,1-1.46,6.19,57.9,57.9,0,0,1-21.72,8.54,56.37,56.37,0,0,0-33.83,20.93,65.19,65.19,0,0,1-39,24.17,56.37,56.37,0,0,0-33.83,20.94,65.44,65.44,0,0,1-39.07,24.18A49.75,49.75,0,0,0,647,576.79,4.44,4.44,0,0,1,644.65,577.47Zm-2.55-17.16,4.06,6.56A56.84,56.84,0,0,1,664,560.6a56.37,56.37,0,0,0,33.83-20.94,65.44,65.44,0,0,1,39.07-24.18,56.13,56.13,0,0,0,33.81-20.93,65.25,65.25,0,0,1,39.06-24.17,48.61,48.61,0,0,0,14.93-5.13l-4.06-6.56A56.84,56.84,0,0,1,802.8,465,56.26,56.26,0,0,0,769,485.9a65.17,65.17,0,0,1-39.06,24.17A56.25,56.25,0,0,0,696.09,531,65.25,65.25,0,0,1,657,555.19,48.54,48.54,0,0,0,642.1,560.31Z" transform="translate(-631.33 -390.65)"/><path class="cls-3" d="M848.57,495.27c-18.22,11.28-22.33,4.65-40.55,15.92s-14.11,17.92-32.33,29.19S753.36,545,735.14,556.3,721,574.21,702.79,585.49s-22.32,4.65-40.54,15.92l-8.8-14.22c18.22-11.29,22.32-4.65,40.55-15.92s14.11-17.92,32.33-29.2,22.33-4.64,40.55-15.91S781,508.24,799.22,497s22.33-4.64,40.56-15.92Z" transform="translate(-631.33 -390.65)"/><path class="cls-2" d="M662.25,605.91a4.05,4.05,0,0,1-1-.12,4.46,4.46,0,0,1-2.79-2l-8.8-14.23a4.5,4.5,0,0,1,1.46-6.19,57.93,57.93,0,0,1,21.73-8.54,56.26,56.26,0,0,0,33.82-20.94,65.17,65.17,0,0,1,39.06-24.17,56.23,56.23,0,0,0,33.82-20.93,65.31,65.31,0,0,1,39.07-24.18,49.78,49.78,0,0,0,18.83-7.38,4.5,4.5,0,0,1,6.19,1.46l8.79,14.23a4.49,4.49,0,0,1-1.46,6.19,58.07,58.07,0,0,1-21.72,8.54,56.23,56.23,0,0,0-33.82,20.93,65.33,65.33,0,0,1-39.06,24.18,56.37,56.37,0,0,0-33.83,20.93,65.33,65.33,0,0,1-39.06,24.18,49.78,49.78,0,0,0-18.83,7.38A4.42,4.42,0,0,1,662.25,605.91Zm-2.54-17.15,4.06,6.56a56.84,56.84,0,0,1,17.84-6.27,56.26,56.26,0,0,0,33.82-20.94,65.36,65.36,0,0,1,39.07-24.17A56.26,56.26,0,0,0,788.32,523a65.3,65.3,0,0,1,39.06-24.17,48.92,48.92,0,0,0,14.92-5.13l-4-6.55a57,57,0,0,1-17.84,6.26,56.32,56.32,0,0,0-33.83,20.94,65.17,65.17,0,0,1-39.06,24.17,56.31,56.31,0,0,0-33.82,20.93,65.33,65.33,0,0,1-39.06,24.18A48.61,48.61,0,0,0,659.71,588.76Z" transform="translate(-631.33 -390.65)"/><path class="cls-1" d="M772.7,408.76c-8.72,19.58-15.85,16.4-24.57,36s-1.59,22.75-10.3,42.33-15.85,16.4-24.57,36-1.58,22.76-10.3,42.33-15.85,16.4-24.56,36l-15.28-6.8c8.71-19.58,15.84-16.4,24.56-36s1.59-22.74,10.31-42.32,15.84-16.41,24.56-36,1.58-22.75,10.3-42.33,15.85-16.4,24.56-36Z" transform="translate(-631.33 -390.65)"/><path class="cls-2" d="M678.4,605.85a4.49,4.49,0,0,1-1.83-.39l-15.28-6.8a4.5,4.5,0,0,1-2.28-5.94,57.92,57.92,0,0,1,13.15-19.28,56.42,56.42,0,0,0,16.19-36.35,65.29,65.29,0,0,1,18.69-42,56.29,56.29,0,0,0,16.17-36.33,65.23,65.23,0,0,1,18.69-42,49.51,49.51,0,0,0,11.4-16.69,4.5,4.5,0,0,1,5.94-2.28l15.29,6.8a4.54,4.54,0,0,1,2.37,2.5,4.46,4.46,0,0,1-.09,3.44,57.87,57.87,0,0,1-13.16,19.29,56.23,56.23,0,0,0-16.18,36.35,65.3,65.3,0,0,1-18.69,42,56.24,56.24,0,0,0-16.18,36.33,65.29,65.29,0,0,1-18.68,42,49.76,49.76,0,0,0-11.41,16.69,4.51,4.51,0,0,1-4.11,2.67Zm-9.22-13.52,7.05,3.13a57,57,0,0,1,11.21-15.23,56.31,56.31,0,0,0,16.19-36.34,65.16,65.16,0,0,1,18.68-42,56.24,56.24,0,0,0,16.18-36.33,65.23,65.23,0,0,1,18.69-42A48.68,48.68,0,0,0,766.63,411l-7-3.14a56.78,56.78,0,0,1-11.21,15.23,56.23,56.23,0,0,0-16.18,36.34,65.3,65.3,0,0,1-18.68,41.95,56.37,56.37,0,0,0-16.19,36.35,65.29,65.29,0,0,1-18.69,42A49.13,49.13,0,0,0,669.18,592.33Z" transform="translate(-631.33 -390.65)"/><path class="cls-3" d="M757.41,402c-8.71,19.57-15.84,16.4-24.56,36s-1.59,22.75-10.3,42.33-15.85,16.4-24.56,36S696.4,539,687.68,558.56s-15.85,16.41-24.56,36l-15.29-6.8c8.72-19.58,15.85-16.41,24.57-36S674,529,682.7,509.43s15.85-16.4,24.57-36,1.58-22.75,10.3-42.33,15.84-16.4,24.56-36Z" transform="translate(-631.33 -390.65)"/><path class="cls-2" d="M663.12,599.05a4.43,4.43,0,0,1-1.83-.39L646,591.87a4.54,4.54,0,0,1-2.37-2.5,4.49,4.49,0,0,1,.09-3.45,58,58,0,0,1,13.16-19.29,56.23,56.23,0,0,0,16.18-36.34,65.23,65.23,0,0,1,18.69-42A56.24,56.24,0,0,0,707.93,452a65.29,65.29,0,0,1,18.68-42A49.72,49.72,0,0,0,738,393.32,4.5,4.5,0,0,1,744,391l15.28,6.81a4.5,4.5,0,0,1,2.28,5.94,58,58,0,0,1-13.15,19.29,56.23,56.23,0,0,0-16.18,36.34,65.3,65.3,0,0,1-18.68,41.95,56.37,56.37,0,0,0-16.19,36.35,65.29,65.29,0,0,1-18.69,42,49.62,49.62,0,0,0-11.4,16.69A4.49,4.49,0,0,1,663.12,599.05Zm-9.22-13.52,7.05,3.13a56.87,56.87,0,0,1,11.21-15.22,56.42,56.42,0,0,0,16.19-36.35,65.29,65.29,0,0,1,18.69-42,56.29,56.29,0,0,0,16.17-36.33,65.23,65.23,0,0,1,18.69-42,48.83,48.83,0,0,0,9.45-12.63l-7.05-3.14a56.65,56.65,0,0,1-11.22,15.22,56.28,56.28,0,0,0-16.17,36.35,65.3,65.3,0,0,1-18.69,42A56.24,56.24,0,0,0,682,530.91a65.23,65.23,0,0,1-18.69,42A48.58,48.58,0,0,0,653.9,585.53Z" transform="translate(-631.33 -390.65)"/><path class="cls-3" d="M788,415.57c-8.71,19.57-15.84,16.4-24.56,36s-1.58,22.75-10.3,42.32-15.84,16.4-24.56,36S727,552.6,718.24,572.18s-15.84,16.4-24.56,36l-15.28-6.81c8.71-19.58,15.84-16.4,24.56-36s1.59-22.75,10.3-42.33,15.85-16.4,24.57-36,1.58-22.75,10.3-42.33,15.85-16.4,24.57-36Z" transform="translate(-631.33 -390.65)"/><path class="cls-2" d="M693.68,612.66a4.49,4.49,0,0,1-1.83-.39l-15.28-6.81a4.5,4.5,0,0,1-2.28-5.94,58.24,58.24,0,0,1,13.15-19.29,56.31,56.31,0,0,0,16.19-36.34,65.16,65.16,0,0,1,18.68-42,56.24,56.24,0,0,0,16.18-36.33,65.23,65.23,0,0,1,18.69-42,49.82,49.82,0,0,0,11.41-16.7,4.5,4.5,0,0,1,5.94-2.28l15.27,6.81a4.5,4.5,0,0,1,2.28,5.94,58.09,58.09,0,0,1-13.15,19.29A56.24,56.24,0,0,0,762.75,473a65.29,65.29,0,0,1-18.68,42,56.31,56.31,0,0,0-16.19,36.34,65.35,65.35,0,0,1-18.68,42A49.76,49.76,0,0,0,697.79,610a4.51,4.51,0,0,1-4.11,2.67Zm-9.22-13.53,7,3.14A56.73,56.73,0,0,1,702.73,587a56.37,56.37,0,0,0,16.18-36.34,65.29,65.29,0,0,1,18.68-42,56.37,56.37,0,0,0,16.19-36.35,65.22,65.22,0,0,1,18.68-42,48.61,48.61,0,0,0,9.45-12.63l-7-3.14a56.65,56.65,0,0,1-11.22,15.22,56.23,56.23,0,0,0-16.18,36.35,65.3,65.3,0,0,1-18.69,42,56.24,56.24,0,0,0-16.18,36.33,65.29,65.29,0,0,1-18.68,42A48.73,48.73,0,0,0,684.46,599.13Z" transform="translate(-631.33 -390.65)"/></svg>