<svg id="Layer_2" data-name="Layer 2" xmlns="http://www.w3.org/2000/svg" viewBox="0 0 256.44 224.42"><defs><style>.cls-1{fill:#ffce62;}.cls-1,.cls-2,.cls-3,.cls-4,.cls-5,.cls-6{stroke:#231f20;stroke-linejoin:round;stroke-width:0.75px;}.cls-2{fill:#ffcb4c;}.cls-3{fill:#8d421f;}.cls-4{fill:#fff4d9;}.cls-5{fill:#ffeb97;}.cls-6{fill:#fdc871;}</style></defs><title>bananaIcon</title><path class="cls-1" d="M720.06,357.5c-8.52-2.6-18.92,1.28-33.11,13.41s-42.59,28.92-68,28.92c-29.2,0-55.89-15.34-68.22-31.69-11.59-15.37-14.66-25.31-14.66-31.69s-6.63-6.62-6.63-6.62-1.89,2.6-8.75,3.78-7.56,9.93-7.56,9.93c6.62,2.13,12.53,8.28,12.53,18s-7.33,16.55-4.49,34.52,31.69,55.58,99.8,55.58c68.68,0,99.93-50.74,103.57-73.79C726.59,364.86,720.06,357.5,720.06,357.5Z" transform="translate(-512.75 -269.3)"/><path class="cls-2" d="M525.66,361.52c0-9.7-5.91-15.85-12.53-18,0,0,.53-6.46,5-9,14.45,9.62,17.42,21,18.21,41.39.82,20.91,33.52,53.28,80.62,53.28s70.81-18.77,88-36c12.25-12.25,15.94-23.07,17.58-31.49a28,28,0,0,1,1.94,16.13c-3.64,23.05-34.89,73.79-103.57,73.79-68.11,0-97-37.6-99.8-55.58S525.66,371.21,525.66,361.52Z" transform="translate(-512.75 -269.3)"/><path class="cls-3" d="M724,365.69c-.64-4.06.53-6.17-.93-7.62a12.1,12.1,0,0,0-4.91-3.17c-1.69-.46-3.4,1.55-5.84,2,4.66,1.37,9.8,4.18,9.8,7C723,364,724,365.69,724,365.69Z" transform="translate(-512.75 -269.3)"/><path class="cls-3" d="M520.69,333.61c6.86-1.18,8.75-3.78,8.75-3.78a8.61,8.61,0,0,1,1.73.3c-.79,3.28-2.63,5.63-5.87,6.31-4.31.9-9.14,3.14-11.76,7.24l-.41-.14S513.84,334.79,520.69,333.61Z" transform="translate(-512.75 -269.3)"/><path class="cls-4" d="M636.89,394.15c3.23-11.52-9.48-25.18-28-21.45-20,4-45.94,27.51-46.69,49.44,7.06,1.25,10.23-6.51,24.38-22,7-7.66,15.18-14.38,26.55-17.37C623.56,380.05,636.23,384.77,636.89,394.15Z" transform="translate(-512.75 -269.3)"/><path class="cls-2" d="M636.89,394.15c-.66-9.38-13.33-14.1-23.79-11.35-11.37,3-19.54,9.71-26.55,17.37-14.15,15.46-17.32,23.22-24.38,22,6.6,3.21,16.28-10.18,25.46-20.52,8.41-9.48,22-17.06,30.32-17.6C627.37,383.41,633.92,386.4,636.89,394.15Z" transform="translate(-512.75 -269.3)"/><path class="cls-4" d="M668.85,389.28c-12.4-3.42-17.92-22.72-4.18-37.73,14.84-16.2,50.88-27,71.49-15.53-2.78,7.19-11.68,5.8-33.79,10.24-10.94,2.2-21.68,6-30.75,14.8C663.27,369.17,660.58,383.46,668.85,389.28Z" transform="translate(-512.75 -269.3)"/><path class="cls-2" d="M668.85,389.28c-8.27-5.82-5.58-20.11,2.77-28.22,9.07-8.8,19.81-12.6,30.75-14.8,22.11-4.44,31-3.05,33.79-10.24-.72,7.86-18.43,9.34-33,12-13.41,2.48-27.94,10.78-33.06,18.15C664.25,374.55,663.36,382.25,668.85,389.28Z" transform="translate(-512.75 -269.3)"/><path class="cls-5" d="M653.73,272.9c-8.91,5.48-22.08,19.42-29.87,40.68-6.23,17-10.76,44.31,3.1,77.58,15.68,37.66,37.62,54.5,53.26,62,13.7,6.57,25.41,7.26,31.79,5.71,10.32-2.5,15.46-6.86,20-10.7,2.83-2.41,5.51-4.68,9-6.15a20,20,0,0,1,16.52.13,19.21,19.21,0,0,1,5.29,3.75c1.76-1.25,4.86-4,4-7.78-1.14-5-.61-8-.12-9.53a5.68,5.68,0,0,0-2.17-2,4.15,4.15,0,0,0-3.54.07c-7.66,3.19-19.45,2.77-35-1.23a63.94,63.94,0,0,1-11.57-4.28C695.35,412,679.06,394.76,670.84,375c-4.33-10.4-6.25-23.81-5.53-38.77a138.51,138.51,0,0,1,6-34.3c3.87-12,4.93-20.83,3-27.17C672.7,269.34,662.45,267.54,653.73,272.9Z" transform="translate(-512.75 -269.3)"/><path class="cls-2" d="M625.29,391.85c25.45,61.1,70,72.93,87.15,68.76s20.59-13.3,29.29-16.93,16.43-.62,20.81,4.53c0,0,7.58-3.91,6.08-10.5s.13-9.26.13-9.26-2.69-5.86-8.42-3.47-15.78,3.34-33.91-1.31c-19.28-4.95-43-23.17-53.91-49.36-6-1.73-20.8-7.3-26.73,10C633.31,379.15,625.29,391.85,625.29,391.85Z" transform="translate(-512.75 -269.3)"/><path class="cls-2" d="M625.29,391.85c25.45,61.1,70,72.93,87.15,68.76s20.59-13.3,29.29-16.93,16.43-.62,20.81,4.53c0,0,5.6-2.89,6.22-7.89-14-9.37-25.34-7.78-43.93-.87-19.07,7.08-60.32-10.16-77.92-52.42-.39-.93-.77-1.85-1.13-2.76C636.66,379.89,625.29,391.85,625.29,391.85Z" transform="translate(-512.75 -269.3)"/><path class="cls-3" d="M768.62,437.71c-1.5-6.59.13-9.26.13-9.26a7.73,7.73,0,0,0-.92-1.44c-2.65,1.94-4.07,4.46-3.47,7.63.8,4.2.6,9.36-2.1,13.25l.28.32S770.12,444.3,768.62,437.71Z" transform="translate(-512.75 -269.3)"/><path class="cls-4" d="M645.78,384.27c3.62-10,16.68-18.13,39.92,2.14s40.87,36.35,61.58,41.5c7.19-16.49-17.72-46.69-42.11-63.37C684.44,350.37,650.86,351.32,645.78,384.27Z" transform="translate(-512.75 -269.3)"/><path class="cls-2" d="M645.78,384.27c3.62-10,16.68-18.13,39.92,2.14s40.87,36.35,61.58,41.5c-2.78,1-19.83-4.41-39.91-20.68s-32.47-31.1-48.56-31.1C649.55,376.13,645.78,384.27,645.78,384.27Z" transform="translate(-512.75 -269.3)"/><path class="cls-4" d="M645.78,384.27c-8.57-9.59-28.32-6-35.66,13-7.92,20.49-1.62,57.58,17.84,71,5.21-5.69,0-13.05-5.83-34.83-2.89-10.78-4.26-22.09-.4-34.12C625.29,388.2,636.89,379.44,645.78,384.27Z" transform="translate(-512.75 -269.3)"/><path class="cls-2" d="M645.78,384.27c-8.89-4.83-20.49,3.93-24,15-3.86,12-2.49,23.34.4,34.12,5.84,21.78,11,29.14,5.83,34.83,6.72-4.14.18-20.66-3.89-35-3.73-13.12-2.75-29.83,1.57-37.68C630.54,386.68,637,382.47,645.78,384.27Z" transform="translate(-512.75 -269.3)"/><path class="cls-5" d="M638.07,422.42s-9.5,7.37-5.14,23.46,10.86,24.71,22.82,30.59,23.72-1.28,23.72-1.28Z" transform="translate(-512.75 -269.3)"/><path class="cls-5" d="M638.07,423s3.78-8.76,17.1-4.44,22.93,16.11,29.81,30-1.8,27.33-10,28.53c-6.85,1-23.76.48-35.27-22.55S638.07,423,638.07,423Z" transform="translate(-512.75 -269.3)"/><path class="cls-6" d="M650.38,431.85s4.76,9.22,9.43,11.1,9-4.2,9-4.2-1.82,3.85-2.73,6,.5,3.69,4.46,5.5a25.12,25.12,0,0,0,6.08,2.1,45,45,0,0,1-6.08-.6c-2.54-.51-3.35,3.34-1.63,7.4a38.63,38.63,0,0,1,2.13,5.88s-2.13-6.59-7.55-8.62-7.15,6.39-7.15,6.39,0-4.36,1-6.69-.91-4.77-4.76-5.28-5.28-2.3-5.28-2.3,6.39,1.59,7.61-2.36S650.38,431.85,650.38,431.85Z" transform="translate(-512.75 -269.3)"/><path class="cls-6" d="M662,437s-1.78-2.64,0-2.33S663.87,437.83,662,437Z" transform="translate(-512.75 -269.3)"/><path class="cls-6" d="M671.67,446.55s-1.42-2,.71-1.41S673.9,447.26,671.67,446.55Z" transform="translate(-512.75 -269.3)"/><path class="cls-6" d="M673.7,458.32s-1.42-2.34.81-1.52S676,459.23,673.7,458.32Z" transform="translate(-512.75 -269.3)"/><path class="cls-6" d="M663.36,462.17s-2.85-2.33-.87-2.33S664.28,463,663.36,462.17Z" transform="translate(-512.75 -269.3)"/><path class="cls-6" d="M652.4,456.62c-.06-.2.41-2.66,1.12-1.55S652.81,457.87,652.4,456.62Z" transform="translate(-512.75 -269.3)"/><path class="cls-6" d="M649.57,444s-1.32-2.44,0-2.54S651.29,444.93,649.57,444Z" transform="translate(-512.75 -269.3)"/><path class="cls-5" d="M679.51,437s-9.5,7.37-5.14,23.46,10.86,24.71,22.82,30.59,23.72-1.27,23.72-1.27Z" transform="translate(-512.75 -269.3)"/><path class="cls-5" d="M679.51,437.51s3.78-8.77,17.1-4.45,22.93,16.11,29.81,30-1.8,27.33-10,28.53c-6.85,1-23.76.47-35.27-22.55S679.51,437.51,679.51,437.51Z" transform="translate(-512.75 -269.3)"/><path class="cls-6" d="M691.82,446.4s4.76,9.23,9.43,11.1,9-4.2,9-4.2-1.82,3.85-2.73,6,.5,3.7,4.46,5.5a25.54,25.54,0,0,0,6.08,2.11,44,44,0,0,1-6.08-.61c-2.54-.51-3.35,3.34-1.63,7.4a38.63,38.63,0,0,1,2.13,5.88s-2.13-6.59-7.55-8.62-7.15,6.39-7.15,6.39,0-4.36,1-6.69-.91-4.77-4.76-5.28-5.28-2.29-5.28-2.29,6.39,1.59,7.61-2.37S691.82,446.4,691.82,446.4Z" transform="translate(-512.75 -269.3)"/><path class="cls-6" d="M703.43,451.58s-1.78-2.64,0-2.34S705.3,452.39,703.43,451.58Z" transform="translate(-512.75 -269.3)"/><path class="cls-6" d="M713.11,461.11s-1.42-2,.71-1.42S715.34,461.82,713.11,461.11Z" transform="translate(-512.75 -269.3)"/><path class="cls-6" d="M715.14,472.87s-1.42-2.34.81-1.52S717.47,473.78,715.14,472.87Z" transform="translate(-512.75 -269.3)"/><path class="cls-6" d="M704.8,476.72s-2.85-2.33-.87-2.33S705.72,477.6,704.8,476.72Z" transform="translate(-512.75 -269.3)"/><path class="cls-6" d="M693.84,471.18c-.06-.21.41-2.67,1.12-1.56S694.25,472.43,693.84,471.18Z" transform="translate(-512.75 -269.3)"/><path class="cls-6" d="M691,458.57s-1.32-2.43,0-2.54S692.73,459.48,691,458.57Z" transform="translate(-512.75 -269.3)"/><path class="cls-5" d="M585.06,460.16s.3,12,15.84,18,26.33,5.93,38.16-.21,13.05-19.85,13.05-19.85Z" transform="translate(-512.75 -269.3)"/><path class="cls-5" d="M585.49,460.48s-4.8-8.25,6.57-16.41,26.57-8.89,41.85-6.19,20.93,17.67,17,25c-3.26,6.11-13.72,19.41-39.08,15S585.49,460.48,585.49,460.48Z" transform="translate(-512.75 -269.3)"/><path class="cls-6" d="M600,455.85s10.25,1.63,14.53-1,2-9.77,2-9.77,2,3.76,3.19,5.76,3.28,1.78,7.07-.33a25.1,25.1,0,0,0,5.31-3.65,44.76,44.76,0,0,1-4.1,4.54c-1.91,1.74.71,4.68,5,5.7a40.07,40.07,0,0,1,6,1.77s-6.57-2.19-11.42,1,.9,9.55.9,9.55-3.51-2.59-4.78-4.79-4.38-2.1-7.08.71-5,2.87-5,2.87,5.07-4.19,2.61-7.52S600,455.85,600,455.85Z" transform="translate(-512.75 -269.3)"/><path class="cls-6" d="M611,449.57s-3.18-.14-1.88-1.38S612.78,448.54,611,449.57Z" transform="translate(-512.75 -269.3)"/><path class="cls-6" d="M624.43,447.43s-2.47-.06-.72-1.41S626.32,446.06,624.43,447.43Z" transform="translate(-512.75 -269.3)"/><path class="cls-6" d="M635.1,452.78s-2.72-.24-.74-1.55S637.22,451.45,635.1,452.78Z" transform="translate(-512.75 -269.3)"/><path class="cls-6" d="M632.06,463.39s-3.56.91-2.39-.68S633.31,463.17,632.06,463.39Z" transform="translate(-512.75 -269.3)"/><path class="cls-6" d="M621.1,468.92c-.2-.07-1.91-1.91-.59-1.82S622.35,469.33,621.1,468.92Z" transform="translate(-512.75 -269.3)"/><path class="cls-6" d="M609.27,463.72s-2.74-.38-2-1.5S611,462.88,609.27,463.72Z" transform="translate(-512.75 -269.3)"/></svg>