<svg id="Warstwa_2" data-name="Warstwa 2" xmlns="http://www.w3.org/2000/svg" viewBox="0 0 272.66 210.86"><defs><style>.cls-1{fill:#dfebf7;}.cls-2{fill:#fff;}.cls-3{fill:#dcdcda;}.cls-4{fill:#fdfae4;}.cls-5{fill:#221f20;}</style></defs><path class="cls-1" d="M785.86,566.56a30,30,0,0,0-4.64-.7c-1.63-.16-3.26-.28-4.9-.36-3.32-.17-6.63-.18-9.94-.1a161.63,161.63,0,0,0-19.77,1.73q-4.87.71-9.67,1.73c-3.14.66-6.32,1.35-9.39,2.29s-5.49,2.49-6.77,5.41a26.25,26.25,0,0,0-1.35,4.25c-.4,1.61-.81,3.21-1.21,4.82-.46,1.83-1.2,4,.3,5.57,1.17,1.24,3.18,1.57,4.74,2.07l.36.12a1.17,1.17,0,0,0,.41.34,31,31,0,0,0,7.07,2.13l.92.23c.32.1.63.21,1,.29a3.07,3.07,0,0,0,.71.11l4.52,1.09c2.32.56,4.82,1.44,7.22,1.28a12.22,12.22,0,0,0,6-2.31c1.92-1.3,3.71-2.81,5.54-4.24l5.76-4.49c3.83-3,7.69-6,11.51-9,2.16-1.71,4.31-3.44,6.46-5.15a53.29,53.29,0,0,0,6.21-5.4,1.06,1.06,0,0,0-1-1.74Z" transform="translate(-516.27 -429.98)"/><path class="cls-2" d="M714.74,477.12c0-.43,0-.87,0-1.3a1.47,1.47,0,0,0-1.83-1.4,1.44,1.44,0,0,0-.87-2.08c-1.6-.23-3.2-.53-4.78-.89a1.41,1.41,0,0,0-.81-.68c-4.27-1.44-8.48-3.07-12.6-4.88a1.32,1.32,0,0,0-1.75.46.37.37,0,0,0-.05.11l-10.57-3.82q-4.53-1.71-9.1-3.3a1.29,1.29,0,0,0-1.28.31l-.83-.36a.62.62,0,0,0-.3-.62,1.86,1.86,0,0,0-1-.37,3.69,3.69,0,0,0-1.28.41c-.72.31-1.44.61-2.16.93-1.39.62-2.78,1.24-4.19,1.85q-4.17,1.77-8.4,3.36-8.58,3.22-17.43,5.67-5,1.37-10,2.49a1.35,1.35,0,0,0-1,1.29l.09.74a1,1,0,0,0-.58.49,5.82,5.82,0,0,0-.5,1.73c-.05.47-.08.93-.11,1.39a27.44,27.44,0,0,0,0,3.14,32.58,32.58,0,0,0,.87,6.22l0,.11c-.63,2.56-1.26,5.15-1.67,7.75a37.09,37.09,0,0,0-.4,9.29c.26,2.89.76,5.92,0,8.78a32.58,32.58,0,0,0-1.24,4,3.47,3.47,0,0,0,1.39,3.46,8.4,8.4,0,0,0,1.7.84c.77.33,1.54.68,2.3,1,1.39.64,2.76,1.3,4.12,2,2.71,1.41,5.39,2.89,8,4.46,1.26.76,2.5,1.57,3.83,2.21a16.17,16.17,0,0,0,4.29,1.38,25.83,25.83,0,0,1,4.7,1.16c1.33.52,2.6,1.17,3.88,1.79,2.2,1.06,4.7,2.29,7.2,2.31a1.12,1.12,0,0,0,.36.36c2.71,1.73,6.06,1,8.9,0,3.37-1.19,6.71-2.39,10-3.71,6.74-2.68,13.43-5.47,20.13-8.26l5.7-2.38,2.92-1.21c1-.41,1.92-.69,2.43-1.68a1.27,1.27,0,0,0-.48-1.71,2.11,2.11,0,0,0,.27-.8,193,193,0,0,0,1.66-33.46c-.06-1.56-.13-3.12-.26-4.68-.08-.86-.12-1.76-.22-2.64a1.29,1.29,0,0,0,.83-1.26Z" transform="translate(-516.27 -429.98)"/><path class="cls-2" d="M734.52,569c.07-6.79-.17-13.67.73-20.41.21-1.63.91-3.52.27-5.12a5.77,5.77,0,0,0-2.91-2.81c-2.91-1.51-5.88-2.95-8.84-4.36-3.39-1.62-6.82-3.15-10.34-4.48-1.77-.68-3.57-1.27-5.38-1.84-.89-.27-1.78-.55-2.66-.85L705,529a1.3,1.3,0,0,0-1.08-1.7,13.08,13.08,0,0,0-5.26.82,33.91,33.91,0,0,0-4.79,2.19c-3.18,1.74-6.3,3.55-9.6,5.06-6.29,2.88-13.58,5.62-20.55,3.8a31.34,31.34,0,0,1-9-4.3c-1.41-.92-2.8-2.09-4.51-2.37-2.11-.34-4,.78-5.8,1.66l-21.3,10.36-5.27,2.57-2.63,1.28a2.19,2.19,0,0,0-1.29,1.07,6.31,6.31,0,0,0-.27,1.79c-.43,3.91-.81,7.81-1.07,11.73a215.79,215.79,0,0,0-.29,23.31q.23,5.78.78,11.52c.19,2,.54,4,.54,6,0,.86-.19,1.7-.2,2.56a6.33,6.33,0,0,0,.66,2.87,11.46,11.46,0,0,0,3.22,3.64,29.56,29.56,0,0,0,4.27,2.92,54.27,54.27,0,0,0,9.08,3.88c3.31,1.15,6.65,2.21,9.94,3.4s6.7,2.52,10,3.91a209.2,209.2,0,0,1,19.76,9.59q2.39,1.32,4.72,2.69a1.35,1.35,0,0,0,1.66-.15,8.12,8.12,0,0,0,3.62-.38,12.34,12.34,0,0,0,3.9-2.6,9.06,9.06,0,0,1,3.82-2.17c1.49-.38,3-.5,4.53-.8a13.26,13.26,0,0,0,4.49-1.79,41.67,41.67,0,0,0,4.13-3.11,1.28,1.28,0,0,0,.2.26,1.34,1.34,0,0,0,1.46.3l.21.06c2.6.48,4.84-.87,6.89-2.31a41.12,41.12,0,0,0,5.31-4.46,1.21,1.21,0,0,0,.84,0,40,40,0,0,0,12-6.45,1.09,1.09,0,0,0,.38-.74,1.5,1.5,0,0,0,.82.07c1.86-.34,3.79-.86,4.94-2.49a3.75,3.75,0,0,0,.69-2.72.92.92,0,0,0,.36-.72,8.44,8.44,0,0,0,0-1.33c-.05-.39-.11-.77-.15-1.16-.09-.84-.14-1.67-.16-2.51,0-1.62,0-3.23.08-4.84.18-3.32.54-6.63.6-10a69.52,69.52,0,0,0-.86-10,76.93,76.93,0,0,1-.32-10.29Z" transform="translate(-516.27 -429.98)"/><path class="cls-2" d="M755.13,452.51a1.37,1.37,0,0,0-.37-.74,10.39,10.39,0,0,0-.68-1.09.82.82,0,0,0-1.12-.27c-2.71-2-5.44-4-8.16-6-1-.77-2.4.73-1.88,1.71q-7.38-3.64-14.55-7.7-3.18-1.8-6.3-3.67c-2.11-1.26-4.11-2.63-6.63-2.82a16.92,16.92,0,0,0-6.92,1.42c-2.3.84-4.59,1.63-7,2.27-1.48.4-3,.74-4.49,1a1.14,1.14,0,0,0-1.16-.71,48,48,0,0,0-10.7,1.94,1.31,1.31,0,0,0-.93,1.39c-1.78,0-3.57-.12-5.36,0a16.26,16.26,0,0,0-5.7,1.25c-1.78.72-3.58,1.62-5.55,1.51a1.29,1.29,0,0,0-.9,2.18l.51.47a24.26,24.26,0,0,0-1.1,12.85,1.12,1.12,0,0,0,2.09.09,7.19,7.19,0,0,0,.84-.61,11.67,11.67,0,0,0,1.55.85c.76.31,1.54.55,2.31.81l4.27,1.48,8.65,3,8.54,3a24.74,24.74,0,0,1,7,3.32c1.83,1.41,3.48,3.17,5.77,3.83a8.35,8.35,0,0,0,3.45.13,14.18,14.18,0,0,1,1.6-.12,1.6,1.6,0,0,1,1.16.28c.64.55.61,2.07.71,2.87.18,1.52.36,3,.53,4.56.31,3,.58,5.94.69,8.92.12,3.27-.06,6.52-.18,9.79a27.43,27.43,0,0,0,.76,8.52,1.71,1.71,0,0,1-.59.85,1.36,1.36,0,0,0-.1,1.8,1.39,1.39,0,0,0,1.76.35c4.23-2.29,8.28-5,13.19-5.47a66,66,0,0,0,7.68-.92,42.71,42.71,0,0,0,7.22-2.47c2.58-1.11,5.09-2.41,7.58-3.71a1.37,1.37,0,0,0,.7-1.22c-.52-6.32.13-12.7.49-19,.18-3.21.34-6.41.52-9.61a35.47,35.47,0,0,1,.49-4.48c.28-1.46.76-2.88,1-4.33a12.28,12.28,0,0,0-.78-7.44Z" transform="translate(-516.27 -429.98)"/><path class="cls-2" d="M663.06,457.71c-1.68-2.43-3.37-4.86-5-7.31a1.18,1.18,0,0,0-1.93,0l-.39-.64c-1.91-3.18-3.72-6.44-5.56-9.67a.86.86,0,1,1-1.58-.58,1.21,1.21,0,0,0-.59-1.24l-1.1-.56a1.21,1.21,0,0,0-1.66.65,5.93,5.93,0,0,1-.73,0,14.24,14.24,0,0,1-2.49-.49,1,1,0,0,0-1,.23c-1.47-.11-2.93-.16-4.41-.16-3.35,0-6.71.12-10.06.4s-6.62.87-9.95,1.05a18.5,18.5,0,0,1-4.76-.24c-1.51-.31-3-.86-4.46-1.18a10.85,10.85,0,0,0-5.22.09,21.61,21.61,0,0,1-4.58,1.26,1.45,1.45,0,0,0-1,.43c-1.79-.14-3.59-.26-5.38-.33a.17.17,0,0,0,0,.05,5.48,5.48,0,0,1-3.22,3.22,4.5,4.5,0,0,1-2,.52l-.15,1.48c-.12,1.4-.23,2.81-.31,4.22-.17,2.78-.24,5.56-.23,8.34,0,5.47.42,10.94.23,16.41-.05,1.49-.13,3-.28,4.45a42.51,42.51,0,0,0-.49,4.63,1,1,0,0,0,.64.86,1.33,1.33,0,0,0-.22,1.58,13.63,13.63,0,0,0,2.8,3.61l.16.21.49,1a1.25,1.25,0,0,0,.15,1,49.83,49.83,0,0,0,4,5.55,1,1,0,0,0,.69.38c.07.1.14.19.2.29a.78.78,0,0,0,1,.26l3.94,5c.75.94,1.5,1.87,2.27,2.79a6.8,6.8,0,0,0,1,1,1.27,1.27,0,0,0-.1.73,1.32,1.32,0,0,0,1.31,1.15c1.46-.1,2.91-.5,4.36-.74s2.83-.43,4.25-.59a84.43,84.43,0,0,1,8.71-.49,1.37,1.37,0,0,0,1.34-1.34c.39-9.62.81-19.24,1.09-28.87a21,21,0,0,1,.14-3.18,11.78,11.78,0,0,0,2.81-.95c1.25-.46,2.5-.9,3.75-1.33q3.76-1.29,7.58-2.44c2.54-.76,5.08-1.48,7.64-2.17a57.59,57.59,0,0,0,7.28-2.32,40.31,40.31,0,0,0,3.94-1.84c.58-.32,1.18-.63,1.73-1a16.88,16.88,0,0,0,4.68-1.39,1.18,1.18,0,0,0,.7-1.73Z" transform="translate(-516.27 -429.98)"/><path class="cls-2" d="M788,564.75c-2.31-12.62-.85-25.53-.79-38.26,0-3.21-.06-6.42-.29-9.63a19.63,19.63,0,0,0-.62-4.71,7.75,7.75,0,0,0-2.66-3.58c-4-3.16-8.67-5.11-13.24-7.21a63.38,63.38,0,0,1-7.32-3.79,22.7,22.7,0,0,1-5.9-5.17,1.59,1.59,0,0,0-1.89-.24,1.57,1.57,0,0,0-.71,1.75,10.2,10.2,0,0,1,.77,5.3l-6.75,1.72a1.56,1.56,0,0,0-1.08,1.9,1.66,1.66,0,0,0,.12.31l-6.55,1.54c-4.8,1.13-9.61,2.24-14.41,3.36a1.4,1.4,0,0,0-1,1.93c-2.66.41-5.34.7-8,1,0-.16,0-.31,0-.46a1.29,1.29,0,1,0-2.58,0c-.2,1.78-.35,3.56-.46,5.34l-.17,2.67a22.6,22.6,0,0,1-.16,2.33,1.56,1.56,0,0,1-.92,1.15c-.74.47-1.49.93-2.23,1.38l-4.57,2.83a1.54,1.54,0,0,0-.7,1.71,1.59,1.59,0,0,0,1.46,1.11c4.53.46,8.74,2.68,12.83,4.52l13.65,6.15,1.68.74,0,0a1.42,1.42,0,0,0-.42.91,1.64,1.64,0,0,0-.28,1.1,1.3,1.3,0,0,0-.25.84q.75,14.81,1.52,29.6c.15,2.83.29,5.66.44,8.49a1.55,1.55,0,0,0,1.94,1.47c7.15-2.32,14.3-4.66,21.47-7,3.44-1.1,6.9-2.16,10.32-3.37,1.75-.62,3.48-1.29,5.18-2s3.07-1.55,4.64-2.27a11.31,11.31,0,0,1,2.4-.81c.81-.17,1.7,0,2.5-.22a2.4,2.4,0,0,0,.91-.54,1.57,1.57,0,0,0,2.13-1.88Z" transform="translate(-516.27 -429.98)"/><path class="cls-2" d="M644.44,531.33A128.21,128.21,0,0,0,629.89,525a29,29,0,0,1-6-2.4,5.61,5.61,0,0,1-2.41-4.8,52.11,52.11,0,0,1,.55-8.73,1.5,1.5,0,0,0-1.5-1.5,63.66,63.66,0,0,0-7.81.71,1.31,1.31,0,0,0-1.07-.43l-5.48.2-2.62.1c-.48,0-1,.05-1.43.05-.07,0-.43,0-.39,0a4.19,4.19,0,0,1-.48-.82l-.65-1.11a10.92,10.92,0,0,0-1.08-1.74,1,1,0,0,0-1.33-1.21,39.13,39.13,0,0,0-3.56,2.61c-.83.63-1.67,1.26-2.53,1.86a1.53,1.53,0,0,0-1-.12c-2.29.44-4.58.84-6.86,1.31-2,.41-3.86,1.35-4.46,3.47a22.13,22.13,0,0,0-.51,3.26c-.17,1.2-.32,2.41-.44,3.61a38.76,38.76,0,0,0-.12,7,49.42,49.42,0,0,0,1.36,6.83,20,20,0,0,1,.25,6.77c-.13,1.14-.32,2.27-.52,3.41a30.74,30.74,0,0,0-.42,3.71c-.16,2.42-.31,4.83-.47,7.25-.34,5.44-.79,10.88-1,16.32a1.3,1.3,0,0,0,.63,1.14.45.45,0,0,0,.12.24,11.66,11.66,0,0,0,2.94,1.67,24.65,24.65,0,0,1,3,2c2,1.49,3.83,3.07,5.83,4.51a80,80,0,0,0,12.83,7.58c1.29.6,2.59,1.17,3.91,1.71a34.78,34.78,0,0,0,4,1.48,1.14,1.14,0,0,0,.88-2.09l-.34-.14a7,7,0,0,1-.81-2.91c-.12-1.33-.09-2.69-.08-4,0-2.94.09-5.88.31-8.82a57.77,57.77,0,0,0,.4-7.31,83.61,83.61,0,0,0,.81-18.3s0-.08,0-.13c2-1.13,4.1-2.29,6.24-3.27a37.63,37.63,0,0,1,6.7-2.23c4.53-1.12,9.12-1.88,13.4-3.79a19.52,19.52,0,0,0,6.09-4.18,1.59,1.59,0,0,0-.32-2.46Z" transform="translate(-516.27 -429.98)"/><path class="cls-2" d="M596,500.25a31,31,0,0,0-2.15-2.42c-1.47-1.52-3-2.95-4.39-4.56a31.81,31.81,0,0,1-3.64-5.6c-1-1.75-2.33-3.9-1.49-5.94a1.22,1.22,0,0,0-.85-1.49,16.74,16.74,0,0,1-4.84-1.76,44.14,44.14,0,0,1-4.24-3.09.87.87,0,0,0-1.22.21,1.37,1.37,0,0,0-1.23-.21,30.56,30.56,0,0,1-5.09,1.09,42,42,0,0,1-5.14.23,25.45,25.45,0,0,0-5.51.49c-1.66.38-3.27,1-4.9,1.44a75.55,75.55,0,0,1-10.31,2c-3.52.49-7,.95-10.56,1.42-4.12.55-8.23,1.16-12.34,1.72a1.35,1.35,0,0,0-1,1.33,31.12,31.12,0,0,1,.06,5.71c-.14,1.82-.51,3.61-.48,5.43a42.61,42.61,0,0,0,.62,5.42,40.67,40.67,0,0,1,.44,5.16c.16,7.16-1.28,14.27-.83,21.42a56.65,56.65,0,0,0,.79,5.95,16.34,16.34,0,0,1,.14,5.75,1,1,0,0,0,.23.81,1,1,0,0,0,.46.52c3.72,2.11,7.36,4.37,10.95,6.72a.9.9,0,0,0,.41.13l.73.47a35,35,0,0,0,10.71,7.3,1.37,1.37,0,0,0,.58.12c1.5.92,3,1.8,4.55,2.65l.46.25a13.48,13.48,0,0,0,4.13,2.88,11.59,11.59,0,0,0,1,.58,1.13,1.13,0,0,0,.59.13,4,4,0,0,0,1.17.18,1.24,1.24,0,0,0,.72-.23l.31.21a4.39,4.39,0,0,0,2.91,1,14.19,14.19,0,0,0,2.63-1.06,18.22,18.22,0,0,1,2.91-.64,38.27,38.27,0,0,0,5.84-1.43,51.51,51.51,0,0,1,6-1.72c1.79-.36,3.62-1,4.29-2.84a8.7,8.7,0,0,0,.25-3c0-1.09,0-2.18,0-3.27q0-3.32,0-6.65c0-3.17.06-6.34.11-9.5a1.12,1.12,0,0,0,.5-.86,15.45,15.45,0,0,0-.39-4.11c0-.13,0-.26,0-.39a1,1,0,0,0-.3-.76c-.14-.45-.29-.88-.46-1.31,0-.22.08-.45.11-.67a17.62,17.62,0,0,0,.15-3.7,74.69,74.69,0,0,1-.47-7.46,7.46,7.46,0,0,1,.75-3.3,4.37,4.37,0,0,1,2.66-1.63c2.66-.84,5.46-1.06,8.14-1.82a15.77,15.77,0,0,0,3.77-1.58,11,11,0,0,0,1.71-1.25,3,3,0,0,0,.42-.45,1.19,1.19,0,0,0,1.08-.87c.23-1.19-.76-2.2-1.45-3.08Z" transform="translate(-516.27 -429.98)"/><path class="cls-3" d="M652.81,462.05a5.74,5.74,0,0,0-2.29.1c-.78.07-1.56.1-2.34.15l-4.7.21c-1.57.07-3.14.09-4.71.17a25.68,25.68,0,0,0-4.72.36.41.41,0,0,0-.31.27c-.82-.14-1.64-.3-2.48-.43-1.47-.24-3.26-.44-4.61.34a.27.27,0,0,0,.14.49c.82,0,1.64-.07,2.47,0a18.59,18.59,0,0,1,2.46.42,33.34,33.34,0,0,0,4.95.79c1.73.1,3.46.11,5.19.18.87,0,1.75.07,2.62.07a12.16,12.16,0,0,0,2.83-.06.76.76,0,0,0,.55-.89l.68,0c.77,0,1.55-.07,2.32-.13a3.93,3.93,0,0,0,2.32-.58.87.87,0,0,0-.37-1.43Z" transform="translate(-516.27 -429.98)"/><path class="cls-3" d="M695.4,467.77a1.52,1.52,0,0,0,.92-.43c0,.16,0,.32,0,.48a4.32,4.32,0,0,1,1.47.17l.51,0h.12c0-.19,0-.38,0-.58a10.09,10.09,0,0,0-.14-2.13c-.32-1.36-1.8-2-2.88-2.68-1.36-.85-2.74-1.69-4.12-2.51a1.22,1.22,0,0,0-.07-.17c-1-1.52-3-2.24-4.5-3a38,38,0,0,1-4.5-2.7c-2.77-2-5.32-4.21-8.14-6.11a21.08,21.08,0,0,0-2.47-1.46l-.15-.07c-1.71-1.4-3.41-2.8-5.13-4.18a.39.39,0,0,0-.55.56l1.25,1.3a.63.63,0,0,0-.16.38c-.76-.13-1.67.28-1.58,1.2a4.25,4.25,0,0,0,.87,2.22.86.86,0,0,0-.67,1.56l1.17.81a1.32,1.32,0,0,0-.66,1.11,1.82,1.82,0,0,0,0,.41,1.51,1.51,0,0,0-.79.15,1.2,1.2,0,0,0,.54,2.26h0l1,.47c0,.5-.07,1-.11,1.49a1.05,1.05,0,0,0,1.33,1c1.72-.68,3.52.1,5.13.75,1.83.73,3.66,1.45,5.47,2.23,3.61,1.54,7.17,3.17,10.67,4.93,1,.51,2,1,3,1.5a5.81,5.81,0,0,0,3.12,1Z" transform="translate(-516.27 -429.98)"/><path class="cls-3" d="M752.66,499.54c-2.65.84-5.3,1.67-7.9,2.65s-5.17,2.11-7.72,3.25q-2.81,1.26-5.61,2.58a1.47,1.47,0,0,0-1.37-.4,47.36,47.36,0,0,0-7.73,2.22,53.4,53.4,0,0,1-5.59,2.24,1.18,1.18,0,0,0-2.07-.05c-.09.16-.18.32-.26.49a1.35,1.35,0,0,0-.71,1.49,21.28,21.28,0,0,0-1.18,3.48,1.19,1.19,0,0,0,1.73,1.32c10-5,20-9.95,30.17-14.45,2.83-1.25,5.68-2.5,8.6-3.51.82-.28.48-1.57-.36-1.31Z" transform="translate(-516.27 -429.98)"/><path class="cls-3" d="M786.42,563.44l-.11-.19a5.33,5.33,0,0,0,.17-.66,3.23,3.23,0,0,0-.08-2.13.68.68,0,0,0-.43-.33,43,43,0,0,0,2.36-15.41,34.18,34.18,0,0,0-.48-4.5,18.74,18.74,0,0,0-.47-2.07c-.22-.75-.55-1.46-.79-2.21-.12-.38-.79-.33-.73.1.16,1.25.09,2.53.17,3.79s.14,2.55.16,3.83a50.63,50.63,0,0,1-.41,7.48,40.34,40.34,0,0,1-4.63,14.24,7.82,7.82,0,0,1-2.6,2.85c-1.1.73-2.8,1.33-3.41,2.56a1,1,0,0,0,1.16,1.52,5.64,5.64,0,0,0,1.66-.88c.57-.36,1.16-.7,1.72-1.06a10.51,10.51,0,0,0,2-1.71c.54.77,1.92,1,2.39,0,.06-.16.13-.31.2-.46a10.93,10.93,0,0,0,1.51-1.12,1.33,1.33,0,0,0,1.12-1.28c0-.12,0-.23,0-.34a1,1,0,0,0-.09-.56.92.92,0,0,0-.46-1.46Z" transform="translate(-516.27 -429.98)"/><path class="cls-3" d="M735.71,552.58a7.08,7.08,0,0,0-.31-.88.57.57,0,0,0,.08-.13c.43-.86-.13-2.18-.41-3a5.66,5.66,0,0,0-1-1.91c1.11.2,1.58-1.52.45-1.76l-.42-.08a1.18,1.18,0,0,0-.21-2,1,1,0,0,0-.55-1,1.21,1.21,0,0,0-.32-.22,1.25,1.25,0,0,0-.25-.09,2,2,0,0,0-1.81-1.37l-.19-.25c-.15-.2-.31-.4-.48-.59a1.23,1.23,0,0,0,.57-1.08l-.75-7.23a4.17,4.17,0,0,0-1.2-3,18,18,0,0,0-2.89-1.81c-2.06-1.22-4.11-2.46-6.2-3.63s-3.91-2.2-6.22-2.31a.9.9,0,0,0-.84,1.08,2.56,2.56,0,0,0-.64.38l-1,.82a2,2,0,0,1-.63.13,1.55,1.55,0,0,0-1.55,1.64l-3.44,2.78a1.36,1.36,0,0,0-.12,1.83,7.24,7.24,0,0,0-1,.41,1.18,1.18,0,0,0-.47-.95l.19-.26c.39-.55-.37-1.29-.92-.92s-1,.7-1.45,1.06a8.54,8.54,0,0,0-1.89.62.86.86,0,0,0-.55,0A30,30,0,0,0,694,531c-1.69.85-3.36,1.73-5,2.66s-3.2,1.89-4.78,2.87a21.16,21.16,0,0,1-2.13,1.2,12.6,12.6,0,0,1-2.56.77,36.94,36.94,0,0,0-4,1,1.66,1.66,0,0,0-1.74.66l-1.16.51a22.64,22.64,0,0,1-2.33,0,28.29,28.29,0,0,1-3.89-.47,2.79,2.79,0,0,0,1.48-1.26,5.44,5.44,0,0,0,.46-2.19c.08-.88.17-1.76.24-2.64.15-1.68.31-3.37.39-5.06,0-.88.1-1.77.08-2.65,0-.36,0-.71-.08-1a9.7,9.7,0,0,0,.56-2.55,28.84,28.84,0,0,0,.2-3.47c0-2.3-.23-4.6,0-6.89.09-1.18.29-2.34.42-3.52a27.91,27.91,0,0,0,.1-3.54c0-2.47-.14-4.93-.21-7.4a54.58,54.58,0,0,0-.42-7,1.27,1.27,0,0,0,0-1.2,3.23,3.23,0,0,0-1.83-1.38l-4.86-2.16c-3.15-1.42-6.58-2.11-9.82-3.27-1.63-.58-3.12-1.41-4.71-2.07a45.93,45.93,0,0,0-4.74-1.39,49.36,49.36,0,0,1-4.71-1.91,22.52,22.52,0,0,0-4.77-1.33,33.75,33.75,0,0,1-5.17-1.11,21.54,21.54,0,0,1-2.45-1.1,3,3,0,0,0-2.36-.33.45.45,0,0,0-.15.77,36.22,36.22,0,0,0-.45,4.3c-.12,1.52-.27,3.05-.4,4.57a71.17,71.17,0,0,0-.3,8.88c.11,3,.46,6,.72,9a43.56,43.56,0,0,1,.25,8.69,8.24,8.24,0,0,1-.52,2.08c-.09.24-.2.47-.31.71q-.32-3-.74-6.06a1,1,0,0,0-.33-.6c.73-.15,1-1,.89-1.68a58.33,58.33,0,0,1-.61-11.66c.18-4,.76-8,1-12,.17-2.23.21-4.47.24-6.71.37-.51,0-1.44-.79-1.2l-3.88,1.23-1.93.62a3.71,3.71,0,0,0-1.56.75,2.9,2.9,0,0,0-.64,1.2c-.23.67-.45,1.36-.67,2-.44,1.35-.89,2.69-1.33,4l-5.16,15.67-1.44,4.37c-.25.77-.51,1.54-.75,2.31-.09.3-.21.61-.3.93a29.87,29.87,0,0,1-.14-7.32c.17-2.56.37-5.12.58-7.69q.63-7.63,1.41-15.27c.26-2.48.61-5,.75-7.45a16.62,16.62,0,0,0-.94-7.1,30.36,30.36,0,0,0-3.52-6,24.49,24.49,0,0,0-2.26-2.82,29.36,29.36,0,0,0-2.65-2.34c-3.1-2.55-5.88-5.45-8.72-8.28l0,0-.44-.54c-.27-.32-.65-.9-1.09-1.38l0-.13a.44.44,0,0,0-.53-.38,1.18,1.18,0,0,0-1.11-.28.53.53,0,0,0-.39.51c.06.53.47.84.78,1.27l.21.28c0,.48.09,1,.15,1.43,0,.14,0,.28,0,.44a4.42,4.42,0,0,1-1.21.17c.15,4.14.33,8.27.36,12.41q0,7.19-.25,14.37-.15,3.56-.39,7.11c-.08,1.21-.17,2.41-.26,3.62s-.25,2.36-.25,3.55v.07c-.26-.91-.53-1.8-.87-2.66a2,2,0,0,0-.31-.5,3.55,3.55,0,0,0,.77-.28.68.68,0,0,0,0-1.17c-1.22-.65-2.75-.48-4.09-.46s-2.82.05-4.23.11c-2.82.12-5.63.37-8.43.63a1.62,1.62,0,0,0-.38.09.34.34,0,0,0-.62.07,2,2,0,0,0-.09.64,1.21,1.21,0,0,0-.05.34,4.79,4.79,0,0,0,1.34,3l0,.06c.31.61.63,1.21,1,1.79a53,53,0,0,0,3.8,5.48c2.47,3.12,5.19,6,7.92,8.9-1.71.35-3.43.62-5.15.92A22.66,22.66,0,0,0,570.3,503a29.12,29.12,0,0,1-2.83,1.18,14.43,14.43,0,0,1-3.11.63.51.51,0,0,0-.29.11c-.42-.2-1,.33-.69.76,2.65,3.68,5.54,7.18,8.18,10.86a6.47,6.47,0,0,1,1.27,2.47,4.9,4.9,0,0,1-.61,2.64q-1.4,3.15-2.75,6.33c-1.77,4.2-3.55,8.4-5.28,12.62-1.61,3.91-3.08,7.9-4.87,11.74a23.64,23.64,0,0,1-3.55,5.81,27,27,0,0,0,0-4.5c-.18-5.9-.38-11.81-.53-17.72-.08-3.31-.14-6.62-.21-9.94,0-1.47-.07-2.94-.14-4.42,0-.35.06-.71.09-1.07a21.79,21.79,0,0,0,0-3.13q-.15-2.88-.53-5.75a12,12,0,0,0-1.44-4.9,10.57,10.57,0,0,0-3.7-3.23c-3.37-2.08-6.73-4.16-10-6.31l-9.91-6.4c-1.82-1.18-3.68-2.29-5.53-3.44-1.52-.94-3-2-4.61-2.87,0-.06,0-.11,0-.18a.74.74,0,0,0-1-.4l-.09,0c-.49-.25-1.12.42-.63.82l.25.2a9.11,9.11,0,0,0-.24,1.75c-.07.95-.11,1.9-.13,2.86a48.27,48.27,0,0,0,.16,5.24c.16,1.8.42,3.59.54,5.39s.06,3.48,0,5.21c-.21,7.21.92,14.37.79,21.59-.07,3.76-.31,7.53-.58,11.29a1.16,1.16,0,0,0-.43.42,1.27,1.27,0,0,0,.44,1.7l14.38,10.26c4.62,3.3,9.16,6.89,14.24,9.48a37.38,37.38,0,0,0,3.76,1.71,4.26,4.26,0,0,0,1.13.25,1,1,0,0,0,.8.91c4.17.72,8.35-.06,12.38-1.18,2-.54,3.88-1.16,5.83-1.71,1-.29,2-.56,3-.8s1.91-.33,2.83-.59a2.53,2.53,0,0,0,2-2.29,10.64,10.64,0,0,0,0-1.6c.35-1.95.55-3.94.74-5.89q.38-3.64.46-7.3a97.33,97.33,0,0,0-.85-15c-.34-2.51-.72-5-.85-7.53-.09-1.63-.26-3.64.43-5.22.06.16.14.31.21.46a1.38,1.38,0,0,0,.13.49c.71,1.39.49,3.3.54,4.81.05,1.86.12,3.71.21,5.57.17,3.75.35,7.51.55,11.26a86.82,86.82,0,0,1,0,10.94c-.27,3.65-.77,7.28-.93,10.94-.17,3.9,0,7.83.08,11.74l-.3-.1a1.24,1.24,0,0,0-1.38,1.8,10.94,10.94,0,0,0,3.05,2.46c1,.71,2.07,1.41,3.11,2.09,2.08,1.37,4.2,2.7,6.35,4,4.31,2.55,8.75,4.91,13.29,7,1.93.9,3.82,1.92,5.73,2.86a4.51,4.51,0,0,0,.09.53,1.29,1.29,0,0,0,2.19.51,1,1,0,0,0,1-.25l.12,2.79a.63.63,0,0,0-.37.29c-1.6,2.87.62,6.06.82,9,.1,1.46-.11,2.93,0,4.4a7,7,0,0,0,1.6,4.27,22.11,22.11,0,0,0,3.6,3,34.63,34.63,0,0,0,4,2.66,26.79,26.79,0,0,0,4.55,1.93,46.94,46.94,0,0,1,4.5,1.57c1.64.73,3.08,1.79,4.92,2,.72.07,1.45,0,2.17,0,.29,0,.58,0,.88.07l.27.32c.34.38.65.79,1,1.15a7.06,7.06,0,0,0,2.84,1.65c1.13.4,2.27.77,3.38,1.24s2.28,1,3.42,1.56c4.79,2.22,9.71,4.13,14.67,5.92,2.8,1,5.61,2,8.44,2.9a1.07,1.07,0,0,0,.73,0,1.44,1.44,0,0,0,1,1.53,2.91,2.91,0,0,0,1.89.09,1.27,1.27,0,0,0,1-1.16l.33.08a1.45,1.45,0,0,0,1.73-1.14,1.24,1.24,0,0,0,1.58-1,15,15,0,0,0,3.54.34,1.35,1.35,0,0,0,1-2.16,53.07,53.07,0,0,0,12.09-3c2.44-.92,4.76-2.06,7.11-3.17a.72.72,0,0,0,.25-.19,3.87,3.87,0,0,0,.59-.48.73.73,0,0,0-.32-1.22c-1.36-.39-2.7.12-4,.47l-4.09,1.07c-2.66.69-5.31,1.45-8,2a28,28,0,0,1-7.89.79,7.61,7.61,0,0,1-3.38-.87,5.62,5.62,0,0,1-2-2.16,9.1,9.1,0,0,1-1.07-3.68c-.11-1.52.25-3.08,0-4.59a.28.28,0,0,0,0-.11c.07-.61.13-1.22.19-1.84.22-2.15.41-4.32.58-6.48q.5-6.42.71-12.87c.14-4.32.22-8.64.12-13a32.9,32.9,0,0,0-2.14-12,7.48,7.48,0,0,0-3.87-4.36,16.92,16.92,0,0,0-2.64-.74h0a19.61,19.61,0,0,0-5.41-2.35c-.86-1.2-2.5-1.81-3.81-2.33a43.42,43.42,0,0,0-5-1.42,91.36,91.36,0,0,1-10.84-3.64c-1-.39-1.94-.81-2.89-1.24a7.94,7.94,0,0,0-3.06-.93.51.51,0,0,0-.43.18c-3.11-1.18-6.28-2.21-9.42-3.29-4.26-1.46-8.52-3-12.85-4.29-1-.28-1.34.92-.71,1.46-1,1-1,2.53-1,3.93-.05,1.66,0,3.32.07,5a48.67,48.67,0,0,1-.06,5c-.07.81-.19,1.61-.32,2.41,0-.67,0-1.34.05-2l.24-10.35c0-.94,0-1.87.07-2.8,0-1.1.05-2.2.07-3.29,0,0,0-.08,0-.13a8.77,8.77,0,0,0,1.46-.52c1.95-.7,3.87-1.46,5.77-2.26,2.15-.91,4.25-1.92,6.36-2.93,1.07-.51,2.12-1,3.18-1.59a16.18,16.18,0,0,0,3-1.82,13.89,13.89,0,0,0,2.88.16.4.4,0,0,0,.11-.79c-1-.26-1.93-.49-2.88-.73a1,1,0,0,0-1.09-.39l-.21.06c-.52-.14-1-.28-1.54-.44-1.89-.61-3.76-1.31-5.59-2.06s-3.68-1.66-5.5-2.51-3.65-1.62-5.47-2.44c-6-2.69-11.88-5.5-17.76-8.38a1,1,0,0,0-.42-.94,19.58,19.58,0,0,0-4-1.79c-1.29-.54-2.55-1.13-3.79-1.76a61.94,61.94,0,0,1-7.32-4.43l0,0c.35-.18.72-.34,1.06-.49,1.05-.49,2.12-1,3.2-1.39,1.56-.63,3.15-1.16,4.73-1.76.18.12.37.24.55.38a9.84,9.84,0,0,1,1.08,1.06c.73.81,1.38,1.69,2.07,2.53,1.47,1.78,3,3.48,4.64,5.12s3.31,3.22,5.07,4.71c.44.38.89.76,1.35,1.12a4.55,4.55,0,0,0,1.61,1,1.55,1.55,0,0,0,.8,0,13.31,13.31,0,0,0,2.43-.35c1-.19,2-.43,2.93-.66,1.69-.41,3.4-.82,5.06-1.32l.47.34a18.82,18.82,0,0,0,1.61,1.16c3.22,2.47,6.43,5,9.74,7.33,1.83,1.3,3.66,2.57,5.54,3.81.93.61,1.84,1.28,2.75,1.93l1.38,1a11.6,11.6,0,0,0,1.47.8,1.32,1.32,0,0,0,.32.3q6.3,4.19,12.55,8.44c2,1.38,4,2.9,6.14,4.14a6.75,6.75,0,0,0,1.16.54c.67.51,1.34,1,2,1.51a4,4,0,0,0,2.74,1.11,8.39,8.39,0,0,0,3-1.21l5.69-3c3.72-1.95,7.49-3.85,11.14-5.93s7.21-4.37,10.77-6.61c2-1.25,4-2.5,5.91-3.77,1-.64,2-1.31,3-2,.5-.35,1-.71,1.46-1.09a6.31,6.31,0,0,0,1-1.11.66.66,0,0,0,.2.06l.05,0,.45.25.28.16c6.71,3.69,14,6.36,21.13,9,.3.54.85,1.05,1.15,1.61a1,1,0,0,0,.22.63v.11c0,.86-1,1.87-1.49,2.45-.36.38-.73.76-1.13,1.12-.48.08-1,.21-1.46.3a1.15,1.15,0,0,0-.92,1.07,21.37,21.37,0,0,0-2.29,1.49c-.38.12-.76.24-1.12.38a4.48,4.48,0,0,0-1.27.89.19.19,0,0,0,.13.33,7,7,0,0,0,1.45-.1c.45-.1.89-.21,1.34-.3a19.93,19.93,0,0,1,3-.3c1.68-.07,3.68-.12,5.1.92a6.18,6.18,0,0,1,2.16,3.64c.46,1.93.11,3.91.39,5.85.15,1,1.53.78,1.78,0a12.35,12.35,0,0,0,0-6.82ZM612,587.35h0l.08-3.29c0-.17,0-.35,0-.52.08,2,.16,4,.26,5.93v0l-.41-.31c0-.62,0-1.24,0-1.86Zm-24.66-97.08h0l-.09-.15a11.62,11.62,0,0,1-.65-1.2c.33.52.69,1,1,1.54l.59.78-.9-1Zm10.48,12.07h0q-.2-.19-.39-.36a1.72,1.72,0,0,0-.6-.34,3.6,3.6,0,0,0-.65-1.15,15.21,15.21,0,0,0-1.85-1.92,1.14,1.14,0,0,0,0-.41c1.26,1.37,2.53,2.73,3.8,4.1a1,1,0,0,0-.3.08Zm7.21,5.53h0a8.8,8.8,0,0,1-1,0,.82.82,0,0,1-.39-.11,1.37,1.37,0,0,0,.8-.15,1.35,1.35,0,0,0,.35-.32v.08a.49.49,0,0,0,.27.39v.14Zm5.44-.18h0a10.76,10.76,0,0,1,2.9-1.34,14.27,14.27,0,0,1,4-.14l1.48.07a50.23,50.23,0,0,1-8.35,1.41Zm47.37,30.15h0a13.8,13.8,0,0,0-3.73-1.35.94.94,0,0,0-.77.19l-.47-.23a29.57,29.57,0,0,1-3.6-2,.94.94,0,0,0-.42-.16,2.49,2.49,0,0,0-.28-.15,3.1,3.1,0,0,0-3,.22,1.08,1.08,0,0,0-.58-.75c-6.69-3.54-13.84-6.09-20.5-9.68-.73-.39-1.46-.8-2.18-1.23a.72.72,0,0,0-.06-.7,1.32,1.32,0,0,0,.34-1.27s0,0,0-.06l.06.16c.67,1.68,2.4,2.2,4,2.83,3.08,1.26,6.27,2.25,9.4,3.38a81.88,81.88,0,0,1,9.39,4.41c3.22,1.65,6.43,3.31,9.65,5,1,.52,2,1,3.06,1.53l-.23-.07Zm73,6h0l-.07,0,.15-.24a1.67,1.67,0,0,1-.08.2Z" transform="translate(-516.27 -429.98)"/><path class="cls-4" d="M527.51,544.63a13.79,13.79,0,0,0-1.17-1.12c-.7-.67-1.44-1.3-2.16-2s-1.48-1.32-2.18-2a2.12,2.12,0,0,1-.74-1.88c.08-4.07.33-8.13.36-12.2a230.13,230.13,0,0,0-1-24.63,77.73,77.73,0,0,0-2.33-13.76.48.48,0,0,0-.93.12c-.07,4.2.34,8.37.59,12.55s.52,8.4.68,12.61.24,8.42.21,12.63-.23,8.38-.35,12.57a4.91,4.91,0,0,0,.88,3.21,17.09,17.09,0,0,0,2.27,2.23c.89.81,1.78,1.62,2.75,2.34.44.32.87.65,1.31,1a4.91,4.91,0,0,0,1.72.61.73.73,0,0,0,.82-1.06,6.92,6.92,0,0,0-.68-1.22Z" transform="translate(-516.27 -429.98)"/><path class="cls-4" d="M586.4,487.6c.46.84.88,1.7,1.35,2.53s1,1.7,1.52,2.58a10.88,10.88,0,0,0,1.65,2.34c.33.34.77,0,.71-.42a22,22,0,0,0-1.69-4.78c-.61-1.58-1.36-3.11-2-4.65a4.55,4.55,0,0,1-.52-2c0-.87.17-1.74.26-2.6.17-1.69.34-3.37.48-5.05a195.66,195.66,0,0,0,.71-20.26c0-1.93-.07-3.86-.17-5.79s-.38-3.86-.53-5.8a.6.6,0,0,0-1.2,0c0,1.78-.16,3.54-.21,5.32s0,3.37-.09,5.07c-.08,3.45-.25,6.92-.42,10.37s-.42,6.92-.7,10.37c-.15,1.76-.31,3.52-.49,5.29s-.6,3.42.11,5c.36.83.84,1.62,1.27,2.42Z" transform="translate(-516.27 -429.98)"/><path class="cls-4" d="M624.25,521.76a13.21,13.21,0,0,1,1.74,1.6c.59.65,1,1.32,1.85,1.58a.81.81,0,0,0,1-.78,2.61,2.61,0,0,0-.88-1.92,15.82,15.82,0,0,0-1.57-1.6c-.26-.22-.52-.44-.79-.65a5.11,5.11,0,0,1-.86-.65l0,0s0-.26,0-.3c0-.43.12-.86.19-1.29.5-3.28,1.15-6.54,1.45-9.85a87,87,0,0,0,.15-9.69c-.06-3.34-.11-6.67-.21-10-.1-3.83-.37-7.64-.57-11.47a.74.74,0,0,0-1.47,0c-.11,3.46-.3,6.91-.33,10.37s0,6.92,0,10.37.13,6.65-.15,10-.76,6.59-1.18,9.89a6.54,6.54,0,0,0-.12,2.71c.28.86,1.08,1.26,1.75,1.77Z" transform="translate(-516.27 -429.98)"/><path class="cls-4" d="M580.68,518.77c-.1-.69-1.28-.53-1.24.17.43,6.62.64,13.26.78,19.89s0,13.2-.39,19.8c-.11,1.84-.24,3.69-.39,5.54-.07.92-.14,1.84-.23,2.76,0,.48-.09,1-.1,1.45a11.69,11.69,0,0,0,.14,1.44.72.72,0,0,0,1.4.19c.11-.39.3-.74.39-1.13s.12-.82.17-1.23c.1-.87.18-1.76.25-2.64.16-1.69.29-3.37.4-5.06q.33-4.94.45-9.89c.17-6.69.08-13.37-.39-20-.26-3.77-.73-7.51-1.24-11.25Z" transform="translate(-516.27 -429.98)"/><path class="cls-4" d="M615.27,565.27c0-2.14,0-4.28,0-6.42,0-1,0-2,.06-3.06a24.07,24.07,0,0,0,0-3.29.71.71,0,0,0-1.39-.19,19.33,19.33,0,0,0-1,5.6c-.15,1.89-.23,3.79-.26,5.69-.06,3.74,0,7.48.11,11.22.22,7.55.48,15.1.3,22.65-.05,2.14-.15,4.27-.34,6.4s-.68,4.28-.41,6.37a.92.92,0,0,0,.64.85.87.87,0,0,0,1-.41,16.82,16.82,0,0,0,1.2-5.63c.21-1.89.36-3.78.49-5.68.25-3.8.28-7.61.22-11.42-.12-7.56-.53-15.12-.61-22.68Z" transform="translate(-516.27 -429.98)"/><path class="cls-4" d="M666.21,455.23c0,.63,0,1.27,0,1.91a3.72,3.72,0,0,0,.24,2,1.18,1.18,0,0,0,2,0,3.62,3.62,0,0,0,.36-2c0-.64,0-1.28,0-1.91,0-1.28-.05-2.55-.08-3.83s0-2.56-.11-3.84c0-.64-.08-1.28-.15-1.92a4.71,4.71,0,0,0-.45-1.85.81.81,0,0,0-1.4,0,4.69,4.69,0,0,0-.4,1.85q-.07,1-.09,1.92c0,1.28,0,2.56,0,3.84s0,2.55,0,3.83Z" transform="translate(-516.27 -429.98)"/><path class="cls-4" d="M665.54,492a13,13,0,0,1,1.25,4.88c.16,1.17.35,2.32.59,3.48s.34,2.6.63,3.88c.09.37.57.24.61-.08.16-1.21.14-2.43.26-3.65s.28-2.33.29-3.51a14.63,14.63,0,0,0-.33-3.5,3.1,3.1,0,0,0,.27-.86c.07-.44.13-.89.17-1.33a3.52,3.52,0,0,0-.14-1.3,1.88,1.88,0,0,0,.22-.48.72.72,0,0,0-1-.81.38.38,0,0,0-.15-.09.31.31,0,0,0-.19,0,14.92,14.92,0,0,0-2.34-1c-.66-.25-1.71-.93-2.4-.5l-.07,0c-2-.94-4-1.84-6.11-2.69a37.61,37.61,0,0,0-3.56-1.26,10.76,10.76,0,0,0-3.75-.68c-.44,0-.72.68-.24.91a23.36,23.36,0,0,0,3,1c1,.33,2,.72,2.92,1.14a58,58,0,0,1,5.64,2.93c1.6.93,3.54,1.78,4.52,3.44Z" transform="translate(-516.27 -429.98)"/><path class="cls-4" d="M676.47,576.31c-.67-3.17-2-6.78-5.07-8.33a13.71,13.71,0,0,0-2.73-.92c-.42-.11-.85-.22-1.26-.36a7.3,7.3,0,0,0-1.35-.43h-.13a23.65,23.65,0,0,0-2.81-1.39c-.6-.25-1.2-.5-1.82-.7a6.87,6.87,0,0,0-.88-.27c-.34-.08-.68,0-1-.13a.56.56,0,0,0-.43,1,4.54,4.54,0,0,1,.63.53,5.41,5.41,0,0,0,.72.45c.48.28,1,.55,1.46.82,1,.56,2,1.12,3,1.75a14.1,14.1,0,0,1,4.44,4.29,18.55,18.55,0,0,1,1.45,3.33c.5,1.33,1.18,2.57,1.75,3.87a25,25,0,0,1,1.49,7.8c.13,1.45.19,2.9.26,4.34,0,.69.09,1.38.18,2a2.41,2.41,0,0,0,.3,1.13,1.13,1.13,0,0,0,.89.53c.86,0,1.1-.87,1.21-1.53A13.33,13.33,0,0,0,677,592a39.43,39.43,0,0,0-.15-4.34c0-.21,0-.42,0-.64a9.57,9.57,0,0,0,.24-1.42,20.85,20.85,0,0,0,.16-3.06,33.28,33.28,0,0,0-.7-6.21Zm-4.27-3.91h0a10.85,10.85,0,0,1,.49,1c-.15-.35-.32-.7-.49-1Z" transform="translate(-516.27 -429.98)"/><path class="cls-4" d="M675.34,600.78a.5.5,0,0,0-1,0,36.94,36.94,0,0,0-.52,6.81c-.06,2.31-.1,4.61-.16,6.92-.1,4.61-.18,9.22-.36,13.83a10.51,10.51,0,0,1-.29,2.44c-.23.83-1,1.8-.32,2.61s2,0,2.4-.85a8.15,8.15,0,0,0,.68-2.89c.19-2.16.15-4.36.19-6.53s.08-4.61.08-6.91c0-2.55,0-5.1-.08-7.65a37.57,37.57,0,0,0-.66-7.78Z" transform="translate(-516.27 -429.98)"/><path class="cls-4" d="M630.28,536.07c-.31-.22-.65-.43-1-.62a20.43,20.43,0,0,0-2.12-1c-1.43-.63-2.85-1.27-4.28-1.92-2.83-1.3-5.65-2.67-8.46-4-5.41-2.63-10.7-5.55-16.22-8a34.79,34.79,0,0,0-9.51-2.85c-.59-.07-.6.79-.13,1a136.1,136.1,0,0,1,15.75,7.76q8,4.47,16.31,8.38,2.33,1.08,4.69,2.13a26.71,26.71,0,0,0,2.52,1,10.15,10.15,0,0,0,1.23.34,2.17,2.17,0,0,0,1.46-.19.94.94,0,0,0,.42-1,1.81,1.81,0,0,0-.68-1Z" transform="translate(-516.27 -429.98)"/><path class="cls-4" d="M593.3,498.15a.69.69,0,0,0-.48-1.16,8,8,0,0,0-3,.78c-1,.36-2,.71-3,1.05-2,.66-4.07,1.23-6.12,1.78s-4.13,1-6.22,1.39c-1,.2-2.09.38-3.13.6a8.52,8.52,0,0,0-2.94.94.61.61,0,0,0,.15,1.1,7.33,7.33,0,0,0,3.2.14c1.13-.13,2.24-.29,3.35-.5q3.13-.58,6.21-1.41c2.06-.54,4.08-1.2,6.08-1.92,1-.36,2-.75,3-1.15a7.75,7.75,0,0,0,2.94-1.64Z" transform="translate(-516.27 -429.98)"/><path class="cls-4" d="M726.46,526.5c-.5-1-2-1.36-3-1.79-1.12-.51-2.22-1.06-3.31-1.63a71.43,71.43,0,0,1-6.3-3.63c-.82-.54-1.53.74-.76,1.3a61.46,61.46,0,0,0,6.18,4.06c1,.58,2.1,1.13,3.17,1.65s2.43,1.43,3.56,1.06a.71.71,0,0,0,.42-1Z" transform="translate(-516.27 -429.98)"/><path class="cls-5" d="M788.9,560.75c0-1.79,0-3.57,0-5.35q0-5.42-.05-10.83c0-7.14.09-14.28,0-21.41,0-2,0-4.06-.1-6.08,0-1-.12-2-.2-2.92-.07-.75-.1-1.52-.24-2.27a1.43,1.43,0,0,0-.14-1.12c-.71-1.12-2.13-1.76-3.22-2.45s-2.12-1.36-3.19-2c-2.15-1.38-4.31-2.74-6.48-4.1-4.27-2.67-8.57-5.28-12.93-7.79l-3.7-2.12c-.63-.37-1.27-.73-1.91-1.08-.29-.16-.59-.3-.9-.45,0-.39,0-.77,0-1.16q.06-4.8.21-9.61c.18-6.35.44-12.71.63-19.06.06-1.74.06-3.48.09-5.22s.2-3.25.22-4.87a.86.86,0,0,0,0-.32v-.26a.81.81,0,0,0-.46-.71,3.29,3.29,0,0,0-.23-.33,4.31,4.31,0,0,0-1.31-.88l-2.34-1.22c-1.52-.78-3-1.57-4.59-2.34-3.1-1.57-6.2-3.13-9.34-4.63q-9.3-4.47-18.73-8.67a16.14,16.14,0,0,0-4.64-1.44,6.77,6.77,0,0,0-2.29.1,3.08,3.08,0,0,0-1.17.55,7,7,0,0,0-1.22.06c-.86.1-1.7.24-2.55.39l-4.76.91c-3.16.61-6.31,1.28-9.47,2-6.29,1.37-12.59,2.75-18.84,4.35-1.71.44-3.43.91-5.13,1.39-.85.24-1.7.49-2.54.77-.33.11-.66.23-1,.36a.88.88,0,0,0-1,.18,3.63,3.63,0,0,0-.67,2.2,19.67,19.67,0,0,0-.26,2.31c0,1.54,0,3.09,0,4.63s0,3,.08,4.51a24.79,24.79,0,0,0,.13,3l-.91.34c-.4-.6-.87-1.18-1.27-1.74-.7-1-1.44-2-2.12-3-1.32-1.93-2.63-3.88-3.95-5.81s-2.72-3.82-4.1-5.72c-.71-1-1.43-2-2.16-2.94-.33-.46-.67-.91-1-1.37a3.26,3.26,0,0,0-1.54-1.42,1,1,0,0,0-1,.19,14.26,14.26,0,0,0-2.08-.12l-3.16,0c-2,0-3.9.08-5.85.13l-11.68.31q-11.82.31-23.63.68l-6.57.19c-2.26.06-4.57,0-6.82.28a1.31,1.31,0,0,0-1.26,1.19,11.32,11.32,0,0,0-.42,2c-.07.81-.09,1.63-.13,2.44-.08,1.5-.18,3-.25,4.5-.13,3-.25,6-.38,9-.26,6-.49,12.09-.73,18.14l-.15,3.69a6,6,0,0,1-1.06-.65,13.73,13.73,0,0,0-3-1.61c-1.06-.47-2.1-1-3.19-1.37-.38-.14-.75-.28-1.13-.39a1.32,1.32,0,0,0-.27-.49c-.88-.92-2-.71-3.12-.54l-2.89.44-5.53.85-11.06,1.71c-7.44,1.15-14.91,2.21-22.31,3.64-2,.4-4.1.86-6.15,1.3l-3,.63a13.3,13.3,0,0,0-2.65.72,3,3,0,0,0-.86-.07.9.9,0,0,0-.87.86c-.16,1.86-.09,3.76-.1,5.62s0,3.74,0,5.61v11.11c0,7.41-.06,14.81-.09,22.21,0,4.2.07,8.39.1,12.58a1.45,1.45,0,0,0,1.81,1.39c.51.39,1.08.73,1.63,1.1l2.86,1.87c1.9,1.25,3.83,2.47,5.74,3.71q5.75,3.71,11.52,7.37c1.94,1.22,3.83,2.48,5.72,3.76a64.36,64.36,0,0,0,5.48,3.42,17.18,17.18,0,0,0,2.8,1.35,8.69,8.69,0,0,0,3.29.32,49.45,49.45,0,0,0,6.69-1.32L577,560.8c0,3.36-.11,6.72-.16,10.08a1.45,1.45,0,0,0,1.2,1.5,31.75,31.75,0,0,0,5.25,4.43c2.2,1.54,4.44,3,6.7,4.49,4.48,2.88,8.93,5.83,13.56,8.48,2.35,1.35,4.73,2.65,7.12,3.92,0,1,.07,2,.11,3,.1,2.29.21,4.59.42,6.89.1,1.17.18,2.36.38,3.53s.55,2.31.82,3.46a.74.74,0,0,0,.52.58l.15.48a7.53,7.53,0,0,0,1.88,2.69,16.17,16.17,0,0,0,2.59,2.08,33.81,33.81,0,0,0,6.05,2.94l6.92,2.79c9.27,3.72,18.57,7.36,27.87,11l7.93,3.13,3.85,1.52a28.35,28.35,0,0,0,4,1.45,1.4,1.4,0,0,0,0,.34,1.63,1.63,0,0,0,2,1.12q13.27-4.69,26.2-10.28t25.28-11.92c1.17-.6,2.33-1.21,3.48-1.85a25.53,25.53,0,0,0,3.15-1.86,3.84,3.84,0,0,0,1.27-1.33,3.51,3.51,0,0,0,.66-1.66c0-.32,0-.62-.06-.92a36.42,36.42,0,0,0,.26-6.44c0-2.25-.11-4.56.07-6.81s0-4.56,0-6.82c0-2,0-3.94,0-5.91a277,277,0,0,0,43.93-13.41l3-1.25a17.94,17.94,0,0,0,2.8-1.33,3.82,3.82,0,0,0,1.86-2.24,1,1,0,0,0,.28-.36c.75-1.77.59-3.73.57-5.62ZM667.48,443.1h0c.83-.11,1.66-.26,2.48-.43q2.38-.48,4.74-1c3.16-.67,6.3-1.38,9.45-2.1,6.28-1.43,12.6-2.73,18.89-4.12l5.2-1.13c1.7-.37,3.84-.62,5.19-1.81l.27,0a4.7,4.7,0,0,1,1.67.1,16,16,0,0,1,3.7,1.41q4.41,2.16,8.78,4.37c5.91,3,11.83,6,17.74,9l4.91,2.5,2.56,1.3a8.67,8.67,0,0,0,1.48.7,1.81,1.81,0,0,0,.52.07c-.11,1-.18,2-.29,3-.17,1.58-.46,3.15-.61,4.73-.32,3.19-.57,6.39-.8,9.59-.46,6.35-.6,12.72-.7,19.08,0,1.78-.06,3.57-.07,5.35a42.14,42.14,0,0,0,.07,4.9,18.41,18.41,0,0,0-1.88.44l-4,1.13c-2.6.76-5.2,1.55-7.8,2.35l-15.68,4.81L719,508.56l-2.21.68-1,.28c.16-2.11.29-4.21.38-6.32a185.83,185.83,0,0,0-.05-19.32c-.1-1.76-.24-3.52-.4-5.27a36.28,36.28,0,0,0-.72-5.51.87.87,0,0,0-1.5-.34,35.41,35.41,0,0,0-3.71-1.55q-2.21-.87-4.43-1.71c-2.89-1.09-5.77-2.19-8.67-3.24l-17.49-6.38-4.8-1.75-2.52-.91a7,7,0,0,0-1.83-.57,1,1,0,0,0-.88-.23c-.56.1-1.12.22-1.68.37,0-.66,0-1.33,0-2,0-1.54.06-3.08.06-4.63s0-3,0-4.51a12.89,12.89,0,0,0-.19-1.86c1,.77,2,1.6,3,2.34l3.34,2.38a65.56,65.56,0,0,0,6.82,4.53c.27.14.61-.23.35-.46a64.54,64.54,0,0,0-6.64-4.74c-1.12-.77-2.26-1.52-3.4-2.28s-2.34-1.39-3.5-2.11c0,0,0-.08,0-.11l0-.26.14,0Zm-2.43,17.52h0a31.13,31.13,0,0,0,4-1.92,4.55,4.55,0,0,0,1.59.78l2.17.81,4.45,1.64,8.69,3.18c5.82,2.15,11.64,4.29,17.48,6.38,1.61.57,3.21,1.14,4.83,1.69a32.94,32.94,0,0,0,5,1.53c0,1.14.1,2.28.15,3.42.07,1.6.1,3.19.15,4.79.11,3.2.16,6.4.17,9.6,0,6.32-.23,12.65-.73,19-.14,1.75-.3,3.51-.48,5.26a27.7,27.7,0,0,0-.36,4.37c-.35.17-.69.34-1,.48-1,.4-1.93.77-2.86,1.24-1.71.85-3.41,1.74-5.13,2.58q-5.05,2.46-10.21,4.73c-3.38,1.47-6.81,2.85-10.24,4.19s-6.81,2.67-10.29,3.74a22,22,0,0,1-5.42,1.09,10.21,10.21,0,0,1-2.59-.16l-.14,0a.94.94,0,0,0-.12-.18,5.18,5.18,0,0,0-2.28-1.3l-2.24-.93-4.5-1.88-9.11-3.8c-6-2.52-12.06-5-18.13-7.47a17.49,17.49,0,0,1-4.12-1.89,3.39,3.39,0,0,1-.88-1,1.06,1.06,0,0,0,.43-.69,42.3,42.3,0,0,0,.32-4.77l.17-4.64.33-9,.68-18.41.33-9.15A323.33,323.33,0,0,0,660,462.63c1.69-.66,3.36-1.33,5-2Zm-79.17,22.46h0c.07-.8.07-1.62.1-2.43l.18-4.5.36-9q.36-9.08.69-18.14c.06-1.71.1-3.41.14-5.12,0-.81,0-1.62.07-2.43a8.83,8.83,0,0,0-.06-1.16c1.87.09,3.76-.05,5.63-.1l5.84-.15,11.93-.31q11.82-.3,23.63-.64c2.19-.06,4.38-.11,6.57-.2l3.41-.14a20.32,20.32,0,0,0,2.39-.26l.36.48c.34.46.67.92,1,1.37l2.19,2.92c1.43,1.9,2.83,3.81,4.32,5.66s2.93,3.65,4.4,5.47c.77.95,1.48,1.95,2.22,2.92.33.41.64.86,1,1.3l-1.91.71-5.55,2c-.37,0-.74.08-1.1.1-1.25.07-2.5.23-3.75.33-2.54.21-5.09.34-7.63.52-5,.35-10.1.51-15.16.63l-8.61.18a.26.26,0,0,0,0,.52,243.33,243.33,0,0,0,30.55-.65l1.34-.11c-5.65,1.94-11.34,3.77-17.07,5.45q-5.07,1.5-10.19,2.84a1.64,1.64,0,0,0-1.16,1.52q-.59,16.42-1.15,32.85c-3,0-5.92.13-8.86.36q-2.29.16-4.56.45c-.79.1-1.58.2-2.36.36h0a36.91,36.91,0,0,0,.44-5.36c.13-2,.23-4,.33-6s.2-3.91.29-5.86c0-1,.09-2,.11-2.93a11.64,11.64,0,0,0-.12-2.89.34.34,0,0,0-.65,0,11.7,11.7,0,0,0-.37,2.77c-.07,1-.12,1.95-.16,2.93-.09,2-.19,4-.27,6s-.16,3.9-.23,5.85a39.75,39.75,0,0,0,0,5.67l-.27.11a169,169,0,0,1-15.52-17.34c-.7-.91-1.36-1.84-2-2.78-.32-.45-.62-.9-.95-1.34-.07-.1-.15-.19-.22-.28a4.37,4.37,0,0,0,.5-2.15Zm-7.28,28.29h0a6.15,6.15,0,0,0-.53,2.42c-.06,1-.12,2-.17,2.93-.12,1.94-.16,3.9-.2,5.85-.09,3.91-.19,7.81-.25,11.71q-.19,11.51-.37,23-6.11,1.43-12.2,2.88c-2.09.5-4.19,1-6.28,1.51a10.4,10.4,0,0,1-5.59,0,13.54,13.54,0,0,1-2.59-1.41l-2.74-1.69c-1.9-1.18-3.85-2.28-5.75-3.47-3.75-2.35-7.51-4.71-11.29-7l-6.44-4-3.13-1.9c-.59-.35-1.16-.74-1.77-1.07a.78.78,0,0,0,0-.22c-.12-14.86-.48-29.7-.74-44.55,0-2.08-.08-4.15-.13-6.23s0-3.93-.17-5.87a5.39,5.39,0,0,0,.45-.4.27.27,0,0,0,.07-.08,13.43,13.43,0,0,0,1.9-.09l2.89-.25,5.54-.49c3.7-.35,7.39-.9,11.07-1.39,7.54-1,15-2.16,22.57-3.25l6.27-.91,3-.44a7.77,7.77,0,0,0,2-.43,9.79,9.79,0,0,0,1.34.85c.95.53,1.92,1,2.89,1.48a16.71,16.71,0,0,0,3.08,1.32c.22.06.47,0,.69.09a7.67,7.67,0,0,1,.89.38l.6.28c0,.56,0,1.12-.07,1.68a4.78,4.78,0,0,0,.37,2.65.86.86,0,0,0,.41.37l.12.25c.25.48.56.94.85,1.4.54.83,1.09,1.65,1.64,2.47,1.11,1.66,2.22,3.33,3.39,5q.84,1.19,1.74,2.34c-1.49.54-3,1.07-4.49,1.54-2,.6-3.93,1-5.81,1.83-.27.11-.27.55.07.54a21.2,21.2,0,0,0,6-1.27,45.25,45.25,0,0,0,4.83-1.83c1.41,1.78,2.89,3.52,4.42,5.21a10.94,10.94,0,0,0-1,.51c-.71.4-1.44.77-2.18,1.12a35.33,35.33,0,0,1-4.56,1.84c-1.56.5-3.13,1-4.69,1.49l-2.61.87a6.83,6.83,0,0,0-2.89,1.28,1.59,1.59,0,0,0-.45,1.2Zm33.66,35.9h0q-1.15,12.29-1.54,24.64c-.19,6.07-.25,12.16-.12,18.24-3.89-2.11-7.74-4.29-11.6-6.45-4.66-2.61-9.14-5.48-13.59-8.42a53.26,53.26,0,0,0-5.72-3.41,1.44,1.44,0,0,0,.36-1c.27-15.62.57-31.23.73-46.84,0-2.2.05-4.39,0-6.59,0-1.06-.06-2.12-.09-3.17a13,13,0,0,0-.08-1.41c5.48,3.5,11.27,6.52,17.06,9.49s11.69,5.77,17.64,8.42c1.63.72,3.27,1.44,4.91,2.14a31.56,31.56,0,0,0,5.16,1.89.39.39,0,0,0,.3-.71,75.46,75.46,0,0,0-8.87-4.05c-3-1.31-6-2.65-8.91-4q-8.74-4.1-17.33-8.55c-3.06-1.6-6.1-3.24-9.18-4.79.57-.19,1.14-.47,1.63-.65l2.55-1c1.66-.63,3.3-1.34,4.89-2.12s3.08-1.48,4.55-2.35q1.05-.63,2-1.35a8.08,8.08,0,0,0,1-.84l.08-.09q2.18,2.37,4.5,4.6a1.14,1.14,0,0,0,1.55.07,7.22,7.22,0,0,0,1,.07c.76,0,1.52-.11,2.28-.17,1.51-.14,3-.27,4.55-.37q4.32-.3,8.66-.32c0,.34,0,.69,0,1l-.17,5a45.89,45.89,0,0,0-.08,5.24,1.68,1.68,0,0,0,.21.71,3.81,3.81,0,0,0,.13,1,5,5,0,0,0,2.66,3c1.43.79,3,1.38,4.51,2l4.69,2q5.85,2.54,11.74,5l-.53.18c-1.07.38-2.14.82-3.2,1.27-2.15.91-4.32,1.79-6.49,2.69q-6.55,2.72-13.16,5.28c-2.49,1-5,1.93-7.46,2.87a1.88,1.88,0,0,0-1.3,1.71Zm122.58,63.52h0c-.09.22-.15.23-.33.37s-.3.45-.46.6-.36.16-.51.26-.37.27-.57.39c-.42.27-.87.5-1.32.73-1.95,1-3.92,1.93-5.87,2.92-4,2-8,3.94-12,5.82q-12,5.63-24.34,10.48-6.6,2.6-13.28,5a1.46,1.46,0,0,0-.68-.81A21.88,21.88,0,0,0,672,635l-3.4-1.33-6.8-2.66-13.62-5.31c-4.54-1.78-9.07-3.57-13.61-5.31l-6.82-2.61c-2-.78-4.12-1.51-6.11-2.42A16.56,16.56,0,0,1,616,611.5a10.18,10.18,0,0,1-1.82-2.37c.07-.59.14-1.17.19-1.76.09-1,0-2.1,0-3.15,0-2.05-.1-4.11-.16-6.16q-.18-6.18-.22-12.35-.06-12.29.66-24.56c.23-3.85.53-7.7.87-11.54l.68.24c.9.29,1.79.6,2.7.88l5.18,1.61q5.28,1.67,10.55,3.43,10.5,3.53,20.88,7.44,2.86,1.1,5.72,2.22l2.85,1.13a14.45,14.45,0,0,0,3.09,1.11.64.64,0,0,0,.5-1.17,11.55,11.55,0,0,0-2.52-1.17c-.87-.36-1.75-.71-2.63-1.05q-2.58-1-5.16-2c-3.49-1.34-7-2.62-10.51-3.87q-10.45-3.72-21.09-6.84c-2-.57-3.92-1.13-5.9-1.67-1-.27-2-.52-3-.76l-1.3-.3,0-.3q12.77-4.86,25.24-10.47c1.23-.56,2.46-1.11,3.66-1.73,1-.52,2-1.13,2.93-1.74l4.43,1.88,5.39,2.28,2.81,1.18a9.61,9.61,0,0,0,2.52,1,9.29,9.29,0,0,0,3,.78,17.12,17.12,0,0,0,5.15-.28,68.29,68.29,0,0,0,10.61-3.32,222.65,222.65,0,0,0,21.32-9,43.21,43.21,0,0,0,5.48,2.42q3.33,1.31,6.62,2.69,6.55,2.73,13,5.7l3.61,1.68a20.36,20.36,0,0,0,2.2,1,35.41,35.41,0,0,0-.32,5.43c0,2.27-.08,4.55-.07,6.82q0,6.88.11,13.76c0,2.28.11,4.54.29,6.82.09,1.13.24,2.27.26,3.41l.08,3.41v.1a1.72,1.72,0,0,0,0,2.32c.07,3.73.09,7.47.2,11.21,0,1.3.19,2.6.22,3.9s.07,2.51.1,3.77a49.69,49.69,0,0,0,.35,6.9,2.11,2.11,0,0,1-.09.36Zm51.33-97.12h0c-.11.93-.26,1.86-.31,2.8-.11,1.78-.21,3.56-.27,5.35-.12,3.61-.17,7.22-.2,10.83-.07,7.13,0,14.27,0,21.41,0,2,0,4.05.05,6.08a18.69,18.69,0,0,0,.44,5.54l-.33.28a5.17,5.17,0,0,1-1.71.89q-2.61.95-5.2,1.92c-3.43,1.28-6.88,2.48-10.33,3.66q-10.5,3.6-21.22,6.42-5.31,1.41-10.68,2.62c0-1.45,0-2.91.09-4.36.14-2.27.25-4.54.22-6.82-.06-4.54-.12-9.09-.22-13.63-.06-2.56-.15-5.12-.25-7.68,0-1.29-.07-2.6-.21-3.89-.1-.84-.16-1.69-.31-2.53l.07,0a1.13,1.13,0,0,0,.51-1.26c-.22-1.32-1.82-1.88-2.87-2.39l-2.06-1a8.79,8.79,0,0,0-.1-1.44c-.07-.94-.15-1.88-.27-2.82-.25-1.9-.5-3.8-.77-5.69,0-.25-.43-.18-.43.06,0,1.89,0,3.78,0,5.67,0,.93.05,1.85.09,2.78,0,.23,0,.48,0,.73-2.1-1-4.22-1.92-6.35-2.85q-6.74-2.93-13.62-5.49c-1.25-.46-2.5-.88-3.76-1.29l-.23-.08c1-.47,1.91-1,2.86-1.45a29.46,29.46,0,0,0,2.87-1.68,12,12,0,0,0,2.73-2,1.24,1.24,0,0,0,.16-1.18c.05-.17.09-.35.13-.53,1.19.71,2.49,1.31,3.69,2,.81.44,1.61.89,2.4,1.36a5.91,5.91,0,0,0,2.26,1,.37.37,0,0,0,.31-.55,5.34,5.34,0,0,0-2-1.47c-.84-.47-1.68-.93-2.53-1.37a31.41,31.41,0,0,0-4-1.88c.11-.7.17-1.4.24-2.09q.27-2.36.48-4.71a7.66,7.66,0,0,0,1.68-.42l2.09-.64,3.95-1.21,7.78-2.4q7.85-2.42,15.67-4.87c1.43-.45,2.85-.94,4.28-1.41s3-.87,4-1.95a1.21,1.21,0,0,0,.61-.85,33.66,33.66,0,0,0,.17-5c0-.58,0-1.17,0-1.75l1.41,1,3.08,2.21c2.06,1.47,4.12,2.92,6.2,4.36,4.14,2.87,8.35,5.64,12.58,8.39l3.47,2.25,1.84,1.2.62.41c-10.37,3.2-20.74,6.4-31.23,9.21-1.53.42-3.07.81-4.61,1.23a31.81,31.81,0,0,0-4.41,1.39.39.39,0,0,0,.19.73,26,26,0,0,0,4.1-.77c1.36-.32,2.7-.67,4.05-1,2.69-.71,5.37-1.44,8.06-2.19q8.1-2.26,16.1-4.83c3-1,6-2.05,9-3.14l-.09.74Z" transform="translate(-516.27 -429.98)"/><path class="cls-5" d="M640.66,479c-2.77-.94-5.54-1.9-8.29-2.88-.36-.13-.5.42-.16.56,4.78,1.93,9.59,3.77,14.46,5.46s9.78,3.22,14.67,4.8c1.36.44,2.72.85,4.09,1.26a35.72,35.72,0,0,0,3.55,1,13.66,13.66,0,0,0-.36,5q0,3.53.08,7.05c0,2.64,0,5.27,0,7.9a71.65,71.65,0,0,0,.13,8,.39.39,0,0,0,.78,0,61.87,61.87,0,0,0,.13-6.81c0-2.27,0-4.54,0-6.81s0-4.54.07-6.81c0-1.18,0-2.35.06-3.53a12,12,0,0,1,.26-2.74c.49-1.92,2.11-2.53,3.86-3,2.15-.57,4.3-1.13,6.44-1.74,4.29-1.22,8.57-2.49,12.81-3.85,4.82-1.55,9.68-3,14.36-5a.13.13,0,1,0-.07-.25c-4.47,1.14-8.86,2.57-13.31,3.82s-8.9,2.48-13.37,3.64l-6.82,1.76c-1.62.4-3.46.86-4.51,2.24a32.62,32.62,0,0,0-3.23-1l-3.65-1c-2.48-.68-4.94-1.42-7.4-2.19-4.9-1.54-9.78-3.19-14.64-4.84Z" transform="translate(-516.27 -429.98)"/><path class="cls-5" d="M548.15,502.26a15.84,15.84,0,0,0-2.47-1.42l-2.74-1.47q-2.64-1.42-5.24-2.91c-3.51-2-7-4.11-10.37-6.25-2-1.22-3.93-2.43-5.84-3.7-.27-.18-.51.24-.25.43,3.31,2.32,6.62,4.62,10.07,6.74s6.92,4.14,10.46,6.08c1,.55,2,1.1,3.05,1.63a15.64,15.64,0,0,0,3,1.43c.3.08.59-.34.32-.56Z" transform="translate(-516.27 -429.98)"/><path class="cls-5" d="M555.49,537.93c0-6.22,0-12.44-.11-18.66,0-1.7,0-3.41-.09-5.12a18.38,18.38,0,0,0-.38-5.24.45.45,0,0,0-.86,0,15.84,15.84,0,0,0-.23,4.51c0,1.58,0,3.17.07,4.76q.08,4.62.16,9.26c.1,6.22.4,12.44.56,18.66.09,3.5.27,7,.35,10.49,0,.35.56.35.55,0,0-6.22,0-12.44,0-18.66Z" transform="translate(-516.27 -429.98)"/><path class="cls-5" d="M597.47,450l4.8,5.18a21.25,21.25,0,0,1,3.9,5.06,8.44,8.44,0,0,1,.86,3,14.18,14.18,0,0,1-.34,2.9.48.48,0,0,0,.81.33c1.41-1.49.89-4.21.17-5.89a18.34,18.34,0,0,0-3.95-5.15c-1.73-1.82-3.46-3.63-5.18-5.45a58.34,58.34,0,0,0-5.57-5.44c-.05-.05-.15,0-.11.08a52.57,52.57,0,0,0,4.61,5.4Z" transform="translate(-516.27 -429.98)"/><path class="cls-5" d="M703.9,464.94c1.48.43,3.17,0,4.67-.25s3.1-.53,4.64-.86c3.09-.65,6.16-1.4,9.2-2.27,6.12-1.76,12.23-3.61,18.39-5.24,1.71-.45,3.44-.85,5.15-1.27s3.49-.92,5.23-1.34c.16,0,.14-.3,0-.29-1.54.12-3.06.24-4.57.5s-3.11.6-4.66.95c-3.09.7-6.16,1.49-9.22,2.3-6.16,1.63-12.27,3.41-18.52,4.67q-2.59.54-5.21.93c-.89.14-1.77.27-2.66.38a7,7,0,0,0-2.56.63.64.64,0,0,0,.15,1.16Z" transform="translate(-516.27 -429.98)"/><path class="cls-5" d="M731.38,543.69a26.62,26.62,0,0,0-5,2.1c-1.66.79-3.33,1.58-5,2.39q-4.9,2.42-9.83,4.79-9.84,4.75-19.73,9.4l-5.56,2.6-2.83,1.31a20,20,0,0,0-2.77,1.41.76.76,0,0,0,.58,1.38,33.54,33.54,0,0,0,5-2.19l5-2.33q5-2.34,10-4.72,9.86-4.71,19.64-9.57c1.87-.93,3.72-1.88,5.57-2.84a28.39,28.39,0,0,0,5.25-3.07c.32-.27,0-.74-.38-.66Z" transform="translate(-516.27 -429.98)"/><path class="cls-5" d="M676.81,579.05a.35.35,0,0,0-.69,0c-.09,1.7-.23,3.39-.31,5.1s-.12,3.4-.18,5.11c-.11,3.4-.21,6.8-.34,10.2q-.39,10.27-.9,20.53c-.1,1.9-.21,3.81-.3,5.71-.06,1-.14,1.94-.13,2.91a24.09,24.09,0,0,0,.1,2.82c.08.58,1,.5,1.09,0,.22-.82.23-1.66.37-2.49s.17-1.68.23-2.51c.1-1.7.19-3.4.28-5.1q.27-5.1.47-10.2c.26-6.84.46-13.69.51-20.54,0-1.9,0-3.81,0-5.71s-.15-3.89-.22-5.83Z" transform="translate(-516.27 -429.98)"/><path class="cls-5" d="M577.81,501c-.76.21-1.56.3-2.33.48s-1.62.41-2.42.64-1.52.43-2.29.65a3.92,3.92,0,0,0-2,.94.4.4,0,0,0,.18.66,3.7,3.7,0,0,0,2.24-.26c.8-.23,1.59-.49,2.39-.75s1.44-.51,2.15-.81,1.52-.8,2.31-1.14c.23-.1.06-.48-.18-.41Z" transform="translate(-516.27 -429.98)"/><path class="cls-5" d="M564.91,504.61a2.52,2.52,0,0,0-1.49.15.58.58,0,0,0,0,1,2.52,2.52,0,0,0,1.49.15.65.65,0,0,0,0-1.29Z" transform="translate(-516.27 -429.98)"/><path class="cls-5" d="M630.57,536.82a7.31,7.31,0,0,0,1.34.6c.64.18,1.09-.79.46-1.1a7.66,7.66,0,0,0-1.41-.43c-.54-.13-.91.65-.39.93Z" transform="translate(-516.27 -429.98)"/><path class="cls-5" d="M668.79,521.9c-.21,1.92-.25,3.85-.35,5.78-.05,1-.11,1.93-.17,2.88a7.86,7.86,0,0,0,.05,2.78.49.49,0,0,0,.89.11,7,7,0,0,0,.53-2.76c.07-1,.13-2,.15-3a34.23,34.23,0,0,0-.23-5.9c-.07-.53-.82-.33-.87.12Z" transform="translate(-516.27 -429.98)"/><path class="cls-5" d="M684,456.42c1.39.94,2.76,1.88,4.19,2.76q1,.63,2,1.23c.56.34,1.38,1,2.06.77a.37.37,0,0,0,.25-.44c-.12-.68-1-1-1.57-1.35-.72-.42-1.45-.84-2.18-1.24-1.47-.82-2.95-1.56-4.45-2.32a.34.34,0,0,0-.34.59Z" transform="translate(-516.27 -429.98)"/><path class="cls-5" d="M695.47,463a2.32,2.32,0,0,0,.38.07.46.46,0,0,0,.23-.06.51.51,0,0,0,.19-.22.47.47,0,0,0-.1-.5,1.54,1.54,0,0,0-.19-.17.52.52,0,0,0-.51-.14.52.52,0,0,0-.32.24.59.59,0,0,0-.06.41.53.53,0,0,0,.38.37Z" transform="translate(-516.27 -429.98)"/><path class="cls-5" d="M613.2,464.2a2.24,2.24,0,0,0,1.55-.17c.28-.21.39-.73,0-.91a2,2,0,0,0-1.55.06.55.55,0,0,0-.39.51.53.53,0,0,0,.39.51Z" transform="translate(-516.27 -429.98)"/><path class="cls-5" d="M738.9,525.73c-1.14.14-2.28.31-3.42.52-.55.1-1.09.21-1.64.33s-1,.16-1.31.65a.37.37,0,0,0,.13.5,1.5,1.5,0,0,0,1.26,0c.57-.16,1.15-.31,1.73-.44,1.12-.27,2.24-.49,3.38-.67.5-.08.39-1-.13-.91Z" transform="translate(-516.27 -429.98)"/><path class="cls-5" d="M606.92,470.24a.36.36,0,0,0-.71,0c0,1.26-.14,2.51-.18,3.76a9.27,9.27,0,0,0,.23,3.6.33.33,0,0,0,.62,0,9.09,9.09,0,0,0,.23-3.6c-.05-1.25-.17-2.5-.19-3.76Z" transform="translate(-516.27 -429.98)"/><path class="cls-5" d="M606.39,479.56a.51.51,0,0,0-.43.24l-.06.1a.47.47,0,0,0,.08.57.48.48,0,0,0,.57.07l.09-.06a.5.5,0,0,0,.25-.43.57.57,0,0,0-.14-.35.54.54,0,0,0-.36-.14Z" transform="translate(-516.27 -429.98)"/><path class="cls-5" d="M676.37,569.63a.81.81,0,0,0,.17-.3.67.67,0,0,0-.17-.64,4.4,4.4,0,0,0-3.5-1.1c-.64,0-.87,1-.16,1.19,1.06.21,2,.71,3,1a.68.68,0,0,0,.64-.17Z" transform="translate(-516.27 -429.98)"/></svg>