<svg id="Layer_2" data-name="Layer 2" xmlns="http://www.w3.org/2000/svg" viewBox="0 0 259.36 219.97"><defs><style>.cls-1{fill:#e5901f;}.cls-2{fill:#f4af40;}</style></defs><title>cheeseIcon</title><path class="cls-1" d="M429.12,512.49v56.09c1-.08,1.06-.18,1.7-.18,8.49,0,15.29,6.41,15.29,14.32s-6.75,14.33-15.24,14.33c-.65,0-.75-.11-1.75-.18v15.71l259-38V474.52Z" transform="translate(-428.76 -392.61)"/><path class="cls-2" d="M564.63,392.61l-68.69,60.6a17.06,17.06,0,0,1,5.3,12.25c0,9.77-8.5,17.69-19,17.69a19.62,19.62,0,0,1-13.87-5.63l-39.63,35,258.86-38C664.22,402,564.63,392.61,564.63,392.61Z" transform="translate(-428.76 -392.61)"/><path class="cls-1" d="M613.17,438.24c-1,5.53-8.64,8.77-17.09,7.24s-14.48-7.22-13.48-12.74,8.64-8.77,17.08-7.24S614.16,432.72,613.17,438.24Z" transform="translate(-428.76 -392.61)"/><path class="cls-1" d="M569,465.49c-.62,3.41-5.34,5.41-10.56,4.47s-8.94-4.46-8.33-7.88,5.34-5.41,10.56-4.47S569.6,462.08,569,465.49Z" transform="translate(-428.76 -392.61)"/><path class="cls-2" d="M513.32,542.26a10.79,10.79,0,1,1-10.78-10.79A10.78,10.78,0,0,1,513.32,542.26Z" transform="translate(-428.76 -392.61)"/><path class="cls-2" d="M635.85,522a16.4,16.4,0,1,1-16.39-16.4A16.39,16.39,0,0,1,635.85,522Z" transform="translate(-428.76 -392.61)"/><path class="cls-2" d="M576.31,561.24a9.06,9.06,0,1,1-9.06-9.06A9.06,9.06,0,0,1,576.31,561.24Z" transform="translate(-428.76 -392.61)"/></svg>