<svg id="Layer_2" data-name="Layer 2" xmlns="http://www.w3.org/2000/svg" viewBox="0 0 348.38 405.74"><defs><style>.cls-1{fill:#ff7e6a;}.cls-2{fill:#f1f2f2;}.cls-3{fill:#fff;}.cls-4{fill:#7d6597;}</style></defs><title>clockIcon</title><path class="cls-1" d="M753,554.68a172,172,0,1,1-172-172A172,172,0,0,1,753,554.68Z" transform="translate(-406.81 -323.13)"/><path d="M581,728.87c-96.05,0-174.19-78.14-174.19-174.19S485,380.48,581,380.48s174.19,78.15,174.19,174.2S677.05,728.87,581,728.87Zm0-344.09c-93.68,0-169.89,76.22-169.89,169.9S487.32,724.58,581,724.58s169.9-76.22,169.9-169.9S674.68,384.78,581,384.78Z" transform="translate(-406.81 -323.13)"/><path class="cls-2" d="M724.37,554.68A143.37,143.37,0,1,1,581,411.31,143.37,143.37,0,0,1,724.37,554.68Z" transform="translate(-406.81 -323.13)"/><path d="M581,700.2c-80.24,0-145.52-65.28-145.52-145.52S500.76,409.16,581,409.16s145.52,65.28,145.52,145.52S661.24,700.2,581,700.2Zm0-286.74c-77.87,0-141.22,63.35-141.22,141.22S503.13,695.9,581,695.9s141.22-63.35,141.22-141.22S658.87,413.46,581,413.46Z" transform="translate(-406.81 -323.13)"/><line class="cls-3" x1="174.19" y1="102.99" x2="174.19" y2="127.84"/><path d="M581,453.12a2.15,2.15,0,0,1-2.15-2.15V426.12a2.15,2.15,0,0,1,4.3,0V451A2.15,2.15,0,0,1,581,453.12Z" transform="translate(-406.81 -323.13)"/><line class="cls-3" x1="174.19" y1="335.25" x2="174.19" y2="360.1"/><path d="M581,685.38a2.15,2.15,0,0,1-2.15-2.15V658.38a2.15,2.15,0,0,1,4.3,0v24.85A2.15,2.15,0,0,1,581,685.38Z" transform="translate(-406.81 -323.13)"/><line class="cls-3" x1="302.75" y1="231.55" x2="277.9" y2="231.55"/><path d="M709.56,556.82H684.71a2.15,2.15,0,1,1,0-4.29h24.85a2.15,2.15,0,1,1,0,4.29Z" transform="translate(-406.81 -323.13)"/><line class="cls-3" x1="70.48" y1="231.55" x2="45.64" y2="231.55"/><path d="M477.29,556.82H452.44a2.15,2.15,0,0,1,0-4.29h24.85a2.15,2.15,0,1,1,0,4.29Z" transform="translate(-406.81 -323.13)"/><path class="cls-4" d="M609.19,332.93a7.64,7.64,0,0,1-7.65,7.64H560.45a7.65,7.65,0,0,1-7.65-7.64h0a7.66,7.66,0,0,1,7.65-7.65h41.09a7.65,7.65,0,0,1,7.65,7.65Z" transform="translate(-406.81 -323.13)"/><path d="M601.54,342.72H560.45a9.8,9.8,0,1,1,0-19.59h41.09a9.8,9.8,0,1,1,0,19.59Zm-41.09-15.29a5.5,5.5,0,1,0,0,11h41.09a5.5,5.5,0,1,0,0-11Z" transform="translate(-406.81 -323.13)"/><line class="cls-3" x1="174.19" y1="17.44" x2="174.19" y2="39.43"/><path d="M581,364.71a2.15,2.15,0,0,1-2.15-2.15v-22a2.15,2.15,0,0,1,4.3,0v22A2.15,2.15,0,0,1,581,364.71Z" transform="translate(-406.81 -323.13)"/><path class="cls-4" d="M744.3,415.54a7.63,7.63,0,0,1-10.81,0l-29-29.06a7.62,7.62,0,0,1,0-10.81h0a7.63,7.63,0,0,1,10.81,0l29,29.05a7.65,7.65,0,0,1,0,10.82Z" transform="translate(-406.81 -323.13)"/><path d="M738.9,419.93a9.73,9.73,0,0,1-6.93-2.87L702.92,388a9.78,9.78,0,0,1,0-13.86,10,10,0,0,1,13.85,0l29.05,29.05a9.8,9.8,0,0,1-6.92,16.73Zm-29.06-44.36A5.49,5.49,0,0,0,706,385L735,414a5.61,5.61,0,0,0,7.77,0,5.52,5.52,0,0,0,0-7.78l-29-29.05A5.47,5.47,0,0,0,709.84,375.57Z" transform="translate(-406.81 -323.13)"/><line class="cls-3" x1="312.16" y1="77.88" x2="296.61" y2="93.43"/><path d="M703.41,418.7a2.09,2.09,0,0,1-1.51-.62,2.15,2.15,0,0,1,0-3l15.54-15.55a2.15,2.15,0,0,1,3,3l-15.55,15.55A2.13,2.13,0,0,1,703.41,418.7Z" transform="translate(-406.81 -323.13)"/><path d="M540,597.83a2.15,2.15,0,0,1-1.52-3.67L664.12,468.52a2.15,2.15,0,1,1,3,3L541.52,597.2A2.14,2.14,0,0,1,540,597.83Z" transform="translate(-406.81 -323.13)"/><path class="cls-3" d="M597.42,554.68A16.42,16.42,0,1,1,581,538.26,16.42,16.42,0,0,1,597.42,554.68Z" transform="translate(-406.81 -323.13)"/><path d="M581,573.25a18.57,18.57,0,1,1,18.57-18.57A18.59,18.59,0,0,1,581,573.25Zm0-32.85a14.28,14.28,0,1,0,14.27,14.28A14.29,14.29,0,0,0,581,540.4Z" transform="translate(-406.81 -323.13)"/><path d="M548.76,606.59a2.14,2.14,0,0,1-1.52-.63l-17.52-17.52a2.15,2.15,0,0,1,3-3l17.52,17.53a2.15,2.15,0,0,1-1.52,3.66Z" transform="translate(-406.81 -323.13)"/></svg>