<svg id="Layer_3" data-name="Layer 3" xmlns="http://www.w3.org/2000/svg" viewBox="0 0 275.84 241.23"><defs><style>.cls-1{fill:#4e3f24;}.cls-1,.cls-2,.cls-3{stroke:#231f20;stroke-linecap:round;stroke-linejoin:round;stroke-width:8px;}.cls-2{fill:#f6e9c7;}.cls-3{fill:#6b5938;}</style></defs><title>cookiesIcon</title><path class="cls-1" d="M1123.58,337.33a7.19,7.19,0,0,0,0-14.37h-.24a109.52,109.52,0,0,0-1.84-14.14l.21-.06a7.18,7.18,0,0,0-3.72-13.88l-.2.06a107.48,107.48,0,0,0-5.47-13.18l.19-.11a7.18,7.18,0,1,0-7.18-12.44l-.2.11a109.8,109.8,0,0,0-8.69-11.31l.17-.17a7.18,7.18,0,1,0-10.16-10.15l-.17.16a109.8,109.8,0,0,0-11.31-8.69l.11-.19a7.18,7.18,0,1,0-12.43-7.19l-.11.19a108.8,108.8,0,0,0-13.18-5.47l.05-.2a7.18,7.18,0,0,0-13.88-3.72l0,.21a109.67,109.67,0,0,0-14.15-1.84v-.24a7.18,7.18,0,1,0-14.36,0V221a109.67,109.67,0,0,0-14.15,1.84l-.05-.21a7.18,7.18,0,0,0-13.88,3.71l.05.21A108,108,0,0,0,965.77,232l-.12-.2A7.18,7.18,0,1,0,953.21,239l.12.2A109.8,109.8,0,0,0,942,247.85l-.17-.17a7.18,7.18,0,1,0-10.16,10.15l.17.18a108.73,108.73,0,0,0-8.69,11.31l-.2-.12a7.18,7.18,0,1,0-7.18,12.44l.19.11a107.48,107.48,0,0,0-5.47,13.18l-.21-.06a7.18,7.18,0,1,0-3.72,13.88l.23.05A108.17,108.17,0,0,0,905,323h-.25a7.18,7.18,0,1,0,0,14.36H905a109.67,109.67,0,0,0,1.84,14.15l-.22.06a7.18,7.18,0,1,0,3.72,13.87l.21-.05A108.8,108.8,0,0,0,916,378.52l-.2.11A7.18,7.18,0,1,0,923,391.07l.21-.12a108.41,108.41,0,0,0,8.69,11.31l-.18.18a7.18,7.18,0,1,0,10.16,10.15l.17-.17a109.8,109.8,0,0,0,11.31,8.69l-.11.21a7.18,7.18,0,1,0,12.43,7.18l.11-.2a108.33,108.33,0,0,0,13.19,5.48l-.06.2a7.18,7.18,0,1,0,13.87,3.72l.06-.22a111.46,111.46,0,0,0,14.15,1.85v.24a7.18,7.18,0,1,0,14.36,0v-.24a109.67,109.67,0,0,0,14.15-1.84l.06.21A7.18,7.18,0,1,0,1049.4,434l-.06-.2a108.28,108.28,0,0,0,13.19-5.47l.11.19a7.18,7.18,0,1,0,12.43-7.18l-.11-.2a108.41,108.41,0,0,0,11.31-8.69l.17.17a7.18,7.18,0,1,0,10.16-10.16l-.17-.16a110.89,110.89,0,0,0,8.69-11.31l.2.11a7.18,7.18,0,1,0,7.18-12.44l-.18-.11a109.07,109.07,0,0,0,5.47-13.18l.2.06a7.18,7.18,0,1,0,3.71-13.88l-.21-.06a107.58,107.58,0,0,0,1.85-14.14Z" transform="translate(-858.92 -209.52)"/><path class="cls-2" d="M1112.38,330.14a98.23,98.23,0,1,1-98.23-98.23A98.22,98.22,0,0,1,1112.38,330.14Z" transform="translate(-858.92 -209.52)"/><path class="cls-1" d="M1089,330.14A109.43,109.43,0,1,1,979.54,220.71,109.43,109.43,0,0,1,1089,330.14Z" transform="translate(-858.92 -209.52)"/><path class="cls-3" d="M1054.69,330.14A75.15,75.15,0,1,1,979.54,255,75.15,75.15,0,0,1,1054.69,330.14Z" transform="translate(-858.92 -209.52)"/><path class="cls-1" d="M1030.66,330.14A51.12,51.12,0,1,1,979.54,279,51.12,51.12,0,0,1,1030.66,330.14Z" transform="translate(-858.92 -209.52)"/><path class="cls-1" d="M872,308.75l13.87,3.72a7.18,7.18,0,0,0,3.72-13.88l-13.88-3.72A7.18,7.18,0,1,0,872,308.75Zm9.2-27.11,12.43,7.18a7.18,7.18,0,1,0,7.19-12.44l-12.44-7.18a7.18,7.18,0,1,0-7.18,12.44Zm13.46,71.24a7.17,7.17,0,0,0-8.79-5.08L872,351.52a7.18,7.18,0,1,0,3.72,13.87l13.88-3.71A7.18,7.18,0,0,0,894.64,352.88Zm8.78,21.2a7.18,7.18,0,0,0-9.81-2.63l-12.44,7.18a7.18,7.18,0,1,0,7.18,12.44l12.44-7.18A7.18,7.18,0,0,0,903.42,374.08Zm32.17,32.17a7.17,7.17,0,0,0-9.81,2.63l-7.18,12.44A7.18,7.18,0,1,0,931,428.5l7.19-12.44A7.19,7.19,0,0,0,935.59,406.25Zm-18.2-14a7.19,7.19,0,0,0-10.16,0l-10.16,10.16a7.18,7.18,0,1,0,10.16,10.15l10.16-10.15A7.19,7.19,0,0,0,917.39,392.28Zm138.26-106.07a7.18,7.18,0,0,0,9.81,2.62l12.44-7.18a7.18,7.18,0,1,0-7.18-12.44l-12.44,7.17A7.21,7.21,0,0,0,1055.65,286.21Zm8.78,21.19a7.16,7.16,0,0,0,8.79,5.07l13.88-3.71a7.18,7.18,0,0,0-3.72-13.88l-13.87,3.72A7.18,7.18,0,0,0,1064.43,307.4ZM1041.69,268a7.17,7.17,0,0,0,10.15,0L1062,257.84a7.18,7.18,0,1,0-10.16-10.15l-10.16,10.15A7.19,7.19,0,0,0,1041.69,268Zm-134.46,0a7.18,7.18,0,0,0,10.16-10.15l-10.15-10.16a7.18,7.18,0,0,0-10.16,10.15Zm116.26-14a7.17,7.17,0,0,0,9.8-2.64l7.18-12.43a7.18,7.18,0,1,0-12.43-7.19l-7.19,12.43A7.2,7.2,0,0,0,1023.49,254Zm-139,83.28a7.19,7.19,0,0,0,0-14.37H870.1a7.18,7.18,0,1,0,0,14.36Zm167.37,55a7.18,7.18,0,1,0-10.16,10.15l10.15,10.16A7.18,7.18,0,1,0,1062,402.44ZM1009.72,217.5a7.18,7.18,0,0,0-8.79,5.08l-3.72,13.87a7.18,7.18,0,1,0,13.87,3.72l3.72-13.87A7.18,7.18,0,0,0,1009.72,217.5Zm23.57,191.38a7.19,7.19,0,0,0-12.45,7.18L1028,428.5a7.18,7.18,0,1,0,12.43-7.18Zm44.6-30.24-12.43-7.18a7.18,7.18,0,1,0-7.19,12.44l12.44,7.18a7.18,7.18,0,1,0,7.18-12.44Zm9.2-27.11-13.86-3.72a7.19,7.19,0,1,0-3.73,13.88l13.88,3.72a7.18,7.18,0,1,0,3.71-13.88Zm-156-119.76A7.18,7.18,0,1,0,918.61,239l7.17,12.44a7.19,7.19,0,0,0,12.45-7.18ZM1089,323h-14.36a7.19,7.19,0,1,0,0,14.37H1089a7.19,7.19,0,0,0,0-14.37ZM956.78,415a7.17,7.17,0,0,0-8.79,5.08L944.27,434a7.18,7.18,0,1,0,13.87,3.72l3.72-13.87A7.18,7.18,0,0,0,956.78,415Zm1.38-192.45a7.18,7.18,0,0,0-13.88,3.71L948,240.17a7.18,7.18,0,1,0,13.87-3.72Zm21.38-9.06a7.18,7.18,0,0,0-7.18,7.19v14.36a7.18,7.18,0,1,0,14.36,0V220.71A7.18,7.18,0,0,0,979.54,213.52Zm31.53,206.59a7.18,7.18,0,1,0-13.87,3.72l3.72,13.87a7.18,7.18,0,1,0,13.87-3.72ZM979.53,418a7.17,7.17,0,0,0-7.18,7.18v14.36a7.18,7.18,0,1,0,14.36,0V425.21A7.17,7.17,0,0,0,979.53,418Z" transform="translate(-858.92 -209.52)"/></svg>