<svg id="Layer_3" data-name="Layer 3" xmlns="http://www.w3.org/2000/svg" viewBox="0 0 662 625.33"><defs><style>.cls-1{fill:#efebd8;}.cls-2{fill:#f29e48;}.cls-3{fill:#f8b765;}.cls-4{fill:#f5ad59;}</style></defs><title>eggsIcon</title><path class="cls-1" d="M1731.64,1242.31c0,43.48-140,78.73-312.71,78.73s-312.71-35.25-312.71-78.73,140-78.74,312.71-78.74S1731.64,1198.83,1731.64,1242.31Z" transform="translate(-1096.2 -695.71)"/><path class="cls-2" d="M1632.59,695.72c-64.93,25.27-147.57,76-208.83,177.68-80.35,133.37,7.5,341,167.28,330.47-56.93,26.63-115.83,18.68-165-7-87-45.45-150.2-136.72-61.66-306.15C1423.17,778.28,1543.66,694.56,1632.59,695.72Z" transform="translate(-1096.2 -695.71)"/><path class="cls-3" d="M1602.34,808.84c52.22-46.52,100-47.88,133.85-38.38,34.76,78.16,29.15,203.87-22.54,302.78-16.48,31.53-34.31,57.19-53,77.73C1457.91,1097.83,1527.7,875.34,1602.34,808.84Z" transform="translate(-1096.2 -695.71)"/><path class="cls-4" d="M1423.76,873.4C1485,771.72,1567.66,721,1632.59,695.72c18,.24,34.69,3.93,49.32,11.58,23.35,12.2,41.53,34.48,54.28,63.16-33.9-9.5-81.63-8.14-133.85,38.38-74.64,66.5-144.43,289,58.32,342.13-22.29,24.52-45.78,41.75-69.62,52.9C1431.26,1214.4,1343.41,1006.77,1423.76,873.4Z" transform="translate(-1096.2 -695.71)"/><path class="cls-2" d="M1259,768.45c59.61,36.07,132.29,100.26,175.14,211,56.2,145.21-66.07,334.63-221.66,296.75,51.51,36,110.9,38.34,163.73,21.5,93.5-29.81,171.49-108.84,113.42-291C1451.13,885.81,1346.84,782.61,1259,768.45Z" transform="translate(-1096.2 -695.71)"/><path class="cls-3" d="M1269.37,885.09c-43.43-54.82-90.22-64.37-125.25-60.85-47.69,71-63.79,195.82-29.89,302.15,10.8,33.89,24,62.23,38.82,85.69C1361.92,1194.62,1331.46,963.44,1269.37,885.09Z" transform="translate(-1096.2 -695.71)"/><path class="cls-4" d="M1434.18,979.41c-42.85-110.7-115.53-174.89-175.14-211-17.76-2.86-34.85-2.1-50.58,2.91-25.09,8-46.84,26.83-64.34,52.88,35-3.52,81.82,6,125.25,60.85,62.09,78.35,92.55,309.53-116.32,327,17.74,28,37.91,49,59.47,64.08C1368.11,1314,1490.38,1124.62,1434.18,979.41Z" transform="translate(-1096.2 -695.71)"/></svg>