<svg id="Warstwa_2" data-name="Warstwa 2" xmlns="http://www.w3.org/2000/svg" viewBox="0 0 151.77 269.68"><defs><style>.cls-1{fill:#82af99;}.cls-2{fill:#b5d9c9;}.cls-3{fill:#231f20;}.cls-4{fill:#7c670e;}.cls-5{fill:#f2d249;}</style></defs><rect class="cls-1" x="22.35" y="256.22" width="112.04" height="11.88"/><path class="cls-2" d="M848.91,697.9c-28.14-32-43.28-76.46-35.22-103.5,3.11-10.43,9.52-17.25,18.54-19.74,31.43-8.67,47,13,47.66,13.91l-11.37,8c-.43-.59-10.88-14.51-32.59-8.52-4.27,1.18-7.18,4.55-8.9,10.3-5.74,19.26,5,59.26,32.33,90.32Z" transform="translate(-808.53 -503.16)"/><path class="cls-3" d="M850.83,697.9c-21.83-25.13-41.3-62.33-35.68-96.71,1.36-8.32,5.22-16.26,12.17-21.25s16.92-5.67,25.09-5.12c9.38.63,19.57,5.4,25.13,13.23v-1.46l-11.37,8,4.7,2.5c-4.5-6-11.64-9.87-18.78-11.72-6.57-1.7-15.05-1.25-21.16,1.8-5.33,2.68-7,9.78-7.73,15.16-2,13.61,2.11,28.19,6.77,40.83a148.66,148.66,0,0,0,27.47,45.49l-.71-1.76-10.45,9.2c-1,.92,3.74,4.87,5.26,3.53l10.45-9.2c.49-.43-.49-1.5-.71-1.76-17.46-20.13-31-46.2-32.91-73.15-.71-10.11.47-23.13,12-26,8.44-2.12,20.19-1,25.83,6.54.64.86,3.41,3.41,4.69,2.5l11.37-8c.56-.4.36-.95,0-1.46-15-21.14-56.15-27.9-69.23-1.63-8,16.08-3.82,36.94,1.23,53.2,6.55,21.09,18.32,40.62,32.75,57.23C848.24,699.33,853.52,701,850.83,697.9Z" transform="translate(-808.53 -503.16)"/><polygon class="cls-4" points="78.37 24.49 97.89 24.49 97.89 0.93 58.85 0.93 58.85 24.49 78.37 24.49"/><path class="cls-2" d="M942.93,698.26c-10.43-13.23-18.21-30.45-23.51-44.93a145.49,145.49,0,0,1-8.75-50V527.65H863.14v75.66a145.27,145.27,0,0,1-8.76,50c-5.3,14.48-13.07,31.7-23.5,44.93-22.07,28-16.13,44.14,0,61.11h112C959.05,742.4,965,726.27,942.93,698.26Z" transform="translate(-808.53 -503.16)"/><path class="cls-5" d="M861.52,656c-7.13,19.47-15.43,35.29-24.67,47-19.35,24.57-13.65,36.67-2.66,48.81H939.61c11-12.14,16.7-24.24-2.66-48.81-9.24-11.73-17.54-27.55-24.67-47a151.62,151.62,0,0,1-5.91-20.69H867.44A150.24,150.24,0,0,1,861.52,656Z" transform="translate(-808.53 -503.16)"/><path class="cls-3" d="M859.17,655.61c-6.15,16.57-13.68,32.74-24.55,46.78-7.49,9.67-15.1,21.41-12.06,34.17,1.14,4.77,6.63,16.19,12.45,16.19h97.17c1.54,0,8.36,1.06,9.66-.4,4.61-5.16,8.65-10.7,9.93-17.63,1.72-9.32-3.44-18.65-8.39-26.08-7.06-10.6-14.42-20.25-20.06-31.79a185,185,0,0,1-14.65-41.51c-.18-.82-2.2-1.06-2.8-1.06H866.94c-.49,0-1.7,0-1.85.64a169.43,169.43,0,0,1-5.92,20.69c-.38,1,4.2,2.07,4.7.68a169.43,169.43,0,0,0,5.92-20.69l-1.85.63h38.92l-2.79-1.06a189.23,189.23,0,0,0,20.35,52.38c7.48,13.27,20.68,24.7,22.78,40.41A23.6,23.6,0,0,1,944,742.41a41.91,41.91,0,0,1-4.16,5.91c-.3.37-2.9,2.48-.78,2.48H833.78c2,0,2,.23.82-1.11a52.58,52.58,0,0,1-3.52-4.62c-9.29-13.5-2.16-27.85,6.53-39.62a196.42,196.42,0,0,0,26.26-49.16C864.26,655.25,859.69,654.21,859.17,655.61Z" transform="translate(-808.53 -503.16)"/><path class="cls-3" d="M945.83,697c-14.4-18.69-24.26-42-29.22-65-2.91-13.54-3-27.21-3-41V526.72c0-.71-.64-.77-1.23-.77H864.84c-1.13,0-4.63,1.09-4.63,2.62v44.11c0,18.17.89,36.66-1.8,54.67-2.79,18.66-9.85,36.69-18.62,53.31-7.7,14.6-20.48,26.4-25.1,42.54-3.31,11.58,1,22.43,8.11,31.54,1.6,2,4.1,6.33,7,6.33H936.48c5.75,0,7.92-.63,12.07-5.34,6.11-7,11-15,11.67-24.38,1-12.78-7-24.75-14.39-34.36-1.24-1.6-6.67,1.42-5.81,2.54,7.51,9.72,14.73,20.92,14.34,33.67-.31,10.35-7.08,19.07-13.84,26.27l4.11-1.79H835.34c-3.85,0-4.24-2.41-6.74-5.48a42.79,42.79,0,0,1-8.41-15.9c-4.2-15.83,7.29-30.13,16-41.95,10.15-13.78,17.19-30.2,22.65-46.33,7.84-23.19,7.23-47,7.23-71.06V526.72l-4.63,2.63H909l-1.23-.78v64.31c0,12.46.16,24.75,2.21,37.1A160.54,160.54,0,0,0,940,699.53C941.25,701.13,946.69,698.11,945.83,697Z" transform="translate(-808.53 -503.16)"/><path class="cls-3" d="M827.9,760.11V772c0,.68.54.85,1.17.85h112c1,0,4.79-.76,4.79-2.31V758.64c0-.68-.55-.85-1.18-.85h-112c-1.55,0-6.86,3.17-3.62,3.17h112l-1.18-.85V772l4.79-2.32h-112l1.18.86V758.64C833.87,756.64,827.9,758.43,827.9,760.11Z" transform="translate(-808.53 -503.16)"/><path class="cls-3" d="M886.33,528.58h19.53c.63,0,2.94,0,2.94-1.09V503.93c0-.65-1.4-.77-1.8-.77H868c-.63,0-2.94,0-2.94,1.09v23.56c0,.66,1.4.77,1.8.77h19.52c2,0,4.39-1.86,1.14-1.86H868l1.8.77V503.93l-2.94,1.1h39.05l-1.8-.78v23.56l2.94-1.09H887.47C885.48,526.72,883.08,528.58,886.33,528.58Z" transform="translate(-808.53 -503.16)"/></svg>