<svg xmlns="http://www.w3.org/2000/svg" viewBox="0 0 368.64 368.64"><defs><style>.a{fill:#4b4539;}.b{fill:#ff967f;}.b,.c,.d,.e{fill-rule:evenodd;}.c{fill:#e6ee9c;}.d{fill:#c07361;}.e{fill:#adb277;}</style></defs><path class="a" d="M292.5,364.84a5.75,5.75,0,0,1,8.28,8q-11.7,12.09-23.84,24.3c-10.68,10.78-17.45,17.55-24.17,24.27a5.77,5.77,0,0,1-8.14,0c-44.73-44.73-89.46-89.46-123.28-134.56-34.18-45.57-57-91.31-57-137.36a95.07,95.07,0,0,1,95-95c23.69,0,41.57,6,56.59,18,12.51,10,22.8,24.1,32.69,42.28,9.89-18.18,20.17-32.26,32.69-42.28,15-12,32.89-18,56.59-18a95.09,95.09,0,0,1,95,95c0,38.64-16,77-41.39,115.33a5.74,5.74,0,1,1-9.58-6.34c24.16-36.49,39.45-72.85,39.45-109A83.55,83.55,0,0,0,338,65.94c-21,0-36.55,5.15-49.43,15.46-13.21,10.56-23.91,26.69-34.72,48.29a5.73,5.73,0,0,1-10.26,0C232.76,108.09,222.05,92,208.85,81.4,196,71.09,180.36,65.94,159.42,65.94A83.55,83.55,0,0,0,75.9,149.46c0,43.23,21.85,86.78,54.63,130.48,32.13,42.84,75,86,118.17,129.22,8-8,15.52-15.54,20.1-20.15Q280.73,377,292.5,364.84Z" transform="translate(-64.38 -54.42)"/><path class="a" d="M344.12,241.34a75.9,75.9,0,1,1-53.66,22.23,75.63,75.63,0,0,1,53.66-22.23Zm45.51,30.37a64.38,64.38,0,1,0,18.85,45.51A64.14,64.14,0,0,0,389.63,271.71Z" transform="translate(-64.38 -54.42)"/><path class="a" d="M338.36,269.82a5.76,5.76,0,0,1,11.52,0v94.8a5.76,5.76,0,0,1-11.52,0Z" transform="translate(-64.38 -54.42)"/><path class="a" d="M391.52,311.46a5.76,5.76,0,0,1,0,11.52h-94.8a5.76,5.76,0,0,1,0-11.52Z" transform="translate(-64.38 -54.42)"/><path class="b" d="M290.46,263.57a75.9,75.9,0,0,1,94.83-10.1c22.28-34.82,36.21-69.52,36.21-104A83.55,83.55,0,0,0,338,65.94c-21,0-36.55,5.15-49.43,15.46-13.21,10.56-23.91,26.69-34.72,48.29a5.73,5.73,0,0,1-10.26,0C232.76,108.09,222.05,92,208.85,81.4,196,71.09,180.36,65.94,159.42,65.94A83.55,83.55,0,0,0,75.9,149.46c0,43.23,21.85,86.78,54.63,130.48,32.13,42.84,75,86,118.17,129.22,8-8,15.52-15.54,20.1-20.15q9.93-10,19.76-20.1a75.87,75.87,0,0,1,1.9-105.34Z" transform="translate(-64.38 -54.42)"/><path class="c" d="M349.88,269.82v41.64h41.64a5.76,5.76,0,0,1,0,11.52H349.88v41.64a5.76,5.76,0,0,1-11.52,0V323H296.72a5.76,5.76,0,0,1,0-11.52h41.64V269.82a5.76,5.76,0,0,1,11.52,0Zm-5.76-17a64.36,64.36,0,1,0,45.51,18.85A64.12,64.12,0,0,0,344.12,252.86Z" transform="translate(-64.38 -54.42)"/><path class="d" d="M375.05,247.91a75.43,75.43,0,0,1,10.24,5.56c22.28-34.82,36.21-69.52,36.21-104a83.63,83.63,0,0,0-59.23-79.93,95.26,95.26,0,0,1,43.62,79.93C405.89,182.42,394.22,215.22,375.05,247.91Z" transform="translate(-64.38 -54.42)"/><path class="e" d="M372,263.57a75.66,75.66,0,0,1,22,48.5,5.76,5.76,0,0,1,0,10.31,75.66,75.66,0,0,1-22,48.5,76.93,76.93,0,0,1-9.44,8,64.4,64.4,0,0,0,0-123.35A76.06,76.06,0,0,1,372,263.57Z" transform="translate(-64.38 -54.42)"/></svg>