<svg id="Warstwa_2" data-name="Warstwa 2" xmlns="http://www.w3.org/2000/svg" viewBox="0 0 186.92 188.16"><defs><style>.starFill{fill: none;}.starRec{fill:#fff;}</style></defs><g id="stars"><polygon id="bigStarFill" class="starFill" points="68.76 106.77 28.06 128.17 35.83 82.85 2.9 50.75 48.41 44.14 68.76 2.9 89.11 44.14 134.62 50.75 101.69 82.85 109.46 128.17 68.76 106.77"/><path id="bigStar" class="starRec" d="M766.46,488.2a2.93,2.93,0,0,1-1.35-.33l-39.35-20.69-39.35,20.69a2.91,2.91,0,0,1-4.22-3.06L689.71,441l-31.84-31a2.9,2.9,0,0,1,1.61-4.95l44-6.4,19.67-39.86a2.89,2.89,0,0,1,2.61-1.62h0a2.89,2.89,0,0,1,2.6,1.62L748,398.61l44,6.4a2.9,2.9,0,0,1,1.61,4.95L761.8,441l7.52,43.82a2.89,2.89,0,0,1-1.16,2.84A2.92,2.92,0,0,1,766.46,488.2ZM666.14,409.9l28.71,28a2.88,2.88,0,0,1,.84,2.57L688.91,480l35.5-18.66a2.93,2.93,0,0,1,2.7,0L762.61,480l-6.78-39.52a2.88,2.88,0,0,1,.83-2.57l28.72-28-39.69-5.76a2.9,2.9,0,0,1-2.18-1.59l-17.75-36-17.75,36a2.9,2.9,0,0,1-2.19,1.59Z" transform="translate(-657 -357.13)"/></g></svg>