<?xml version="1.0" encoding="utf-8"?>
<!-- Generator: Adobe Illustrator 24.0.1, SVG Export Plug-In . SVG Version: 6.00 Build 0)  -->
<svg version="1.1" id="Layer_2_1_" xmlns="http://www.w3.org/2000/svg" xmlns:xlink="http://www.w3.org/1999/xlink" x="0px" y="0px"
	 viewBox="0 0 276.3 368.6" style="enable-background:new 0 0 276.3 368.6;" xml:space="preserve">
<title>foodPlan</title>
<path d="M31,52.2h19.4c3.2,0,5.8,2.6,5.8,5.8v12.3H220V58c0-3.2,2.6-5.8,5.8-5.8l0,0h19.4c17.1,0,31,13.9,31,31v254.4
	c0,17.1-13.9,31-31,31H31c-17.1-0.1-31-13.9-31-31V83.3C0.1,66.2,14,52.3,31,52.2L31,52.2z M44.7,63.7H31
	c-10.8,0-19.5,8.7-19.5,19.5v254.3c0,10.8,8.8,19.5,19.5,19.5h214.2c10.8,0,19.5-8.8,19.5-19.5V83.3c0-10.8-8.8-19.5-19.5-19.5
	h-13.7V76c0,3.2-2.6,5.8-5.8,5.8l0,0H50.5c-3.2,0-5.8-2.6-5.8-5.8V63.7z"/>
<path d="M138.1,81.8H50.5c-3.2,0-5.8-2.6-5.8-5.8V44.7c0-3.2,2.6-5.8,5.8-5.8c0,0,0,0,0,0c0.2,0,0.3,0,0.5,0c1.9,0,9.5-0.3,15.5-2.8
	c7.7-3.2,6.9-13.3,6.2-22.3c-0.2-2.9-0.4-5.6-0.4-8.2c0-3.2,2.6-5.8,5.8-5.8h120.1c3.2,0,5.8,2.6,5.8,5.8c0,0,0,0,0,0
	c0,2.5-0.2,5.3-0.4,8.2c-0.7,9-1.5,19,6.2,22.3c6.9,2.9,15.6,2.8,16,2.8l0,0c3.2,0,5.8,2.5,5.8,5.7c0,0,0,0,0,0v0.1l0,0V76
	c0,3.2-2.6,5.8-5.8,5.8l0,0L138.1,81.8z M56.2,70.3H220V50.2c-5.1-0.4-10-1.6-14.7-3.4C190,40.3,191.1,25.9,192.1,13l0.1-1.5h-108
	l0.1,1.5c1,12.8,2.1,27.2-13.2,33.7c-4.7,1.9-9.7,3-14.7,3.4L56.2,70.3z"/>
<path d="M72.5,114.2c-3.2,0-5.8,2.6-5.8,5.8c0,3.2,2.6,5.8,5.8,5.8h77.7c3.2,0,9.1-2.6,9.1-5.8c0-3.2-5-5.8-8.2-5.8H72.5z"/>
<path d="M98.8,174.5c-3.2,0-5.8,2.6-5.8,5.8c0,3.2,2.6,5.8,5.8,5.8h115c3.2,0,5.8-2.6,5.8-5.8c0-3.2-2.6-5.8-5.8-5.8H98.8z"/>
<path d="M116.4,234.8c-3.2,0-5.8,2.6-5.8,5.8s2.6,5.8,5.8,5.8c0,0,0,0,0,0h91.4c3.2,0,5.8-2.6,5.8-5.8c0-3.2-2.6-5.7-5.8-5.8H116.4z
	"/>
<path d="M55.5,295.1c-3.2,0-5.8,2.6-5.8,5.8c0,3.2,2.6,5.7,5.8,5.8h106.6c3.2,0,5.8-2.6,5.8-5.8c0-3.2-2.6-5.7-5.8-5.8H55.5z"/>
</svg>
