<svg id="Warstwa_2" data-name="Warstwa 2" xmlns="http://www.w3.org/2000/svg" viewBox="0 0 211.13 299.31"><defs><style>.cls-1q{fill:#373a3c;}.cls-2q{fill:#ffa93d;}.cls-3q{fill:#ffeacf;}.cls-4q{fill:#ff4d3d;}.cls-5q{fill:#dbc9b2;}.cls-6q{fill:#ababab;}</style></defs><path class="cls-1q" d="M1238.38,414.35h-58.71v-3.82a4,4,0,0,0-4-4h-16.76a3.71,3.71,0,0,1-3.7-3.71v-5.18a13.71,13.71,0,1,0-27.41,0v5.18a3.71,3.71,0,0,1-3.71,3.71h-16.76a4,4,0,0,0-4,4v3.82h-58.71a3.5,3.5,0,0,0-3.7,3.7V669.56a3.5,3.5,0,0,0,3.7,3.71h193.72a3.51,3.51,0,0,0,3.71-3.71V418.05A4,4,0,0,0,1238.38,414.35ZM1141.52,390a4.45,4.45,0,1,1-4.44,4.44A4.44,4.44,0,0,1,1141.52,390Z" transform="translate(-1030.96 -373.95)"/><rect class="cls-2q" y="30.4" width="201.13" height="258.92" rx="3.7"/><rect class="cls-3q" x="23.42" y="33.49" width="154.3" height="235.61"/><path class="cls-4q" d="M1150.72,442.73c-7-2.59-14.07-1.11-19.26,4.44-5.19-5.55-12.22-7-19.26-4.44-7.78,3-14.45,11.85-11.85,24.45,4.81,20,28.89,30,30,30.74a3.14,3.14,0,0,0,3,0c1.11-.37,24.82-10.74,29.26-30.74C1165.54,454.58,1158.5,445.69,1150.72,442.73Z" transform="translate(-1030.96 -373.95)"/><path class="cls-5q" d="M1177.06,525.83h-90.75a3.7,3.7,0,1,0,0,7.4h90.38a3.5,3.5,0,0,0,3.7-3.7C1180.76,527.68,1178.91,525.83,1177.06,525.83Z" transform="translate(-1030.96 -373.95)"/><path class="cls-5q" d="M1177.06,544.88h-90.75a3.71,3.71,0,1,0,0,7.41h90.38a3.5,3.5,0,0,0,3.7-3.71C1180.76,546.73,1178.91,544.88,1177.06,544.88Z" transform="translate(-1030.96 -373.95)"/><path class="cls-5q" d="M1177.06,563.93h-90.75a3.71,3.71,0,1,0,0,7.41h90.38a3.5,3.5,0,0,0,3.7-3.71C1180.76,565.78,1178.91,563.93,1177.06,563.93Z" transform="translate(-1030.96 -373.95)"/><path class="cls-5q" d="M1177.06,583h-90.75a3.71,3.71,0,1,0,0,7.41h90.38a3.5,3.5,0,0,0,3.7-3.71C1180.76,584.83,1178.91,583,1177.06,583Z" transform="translate(-1030.96 -373.95)"/><path class="cls-5q" d="M1177.06,602h-90.75a3.71,3.71,0,1,0,0,7.41h90.38a3.5,3.5,0,0,0,3.7-3.71C1180.76,603.88,1178.91,602,1177.06,602Z" transform="translate(-1030.96 -373.95)"/><path class="cls-6q" d="M1165.69,396.55h-16.76a3.71,3.71,0,0,1-3.7-3.71v-5.18a13.71,13.71,0,1,0-27.41,0v5.18a3.71,3.71,0,0,1-3.71,3.71h-16.76a4,4,0,0,0-4,4V410a4,4,0,0,0,4,4h68.34a4,4,0,0,0,4-4v-9.45A4,4,0,0,0,1165.69,396.55Zm-34.17-7.68a4.45,4.45,0,1,1,4.45-4.45A4.44,4.44,0,0,1,1131.52,388.87Z" transform="translate(-1030.96 -373.95)"/></svg>