<?xml version="1.0" encoding="utf-8"?>
<!-- Generator: Adobe Illustrator 24.0.1, SVG Export Plug-In . SVG Version: 6.00 Build 0)  -->
<svg version="1.1" id="Layer_2_1_" xmlns="http://www.w3.org/2000/svg" xmlns:xlink="http://www.w3.org/1999/xlink" x="0px" y="0px"
	 viewBox="0 0 62 56" style="enable-background:new 0 0 62 56;" xml:space="preserve">
<title>foodIcon</title>
<path d="M31,56c-3.5,0-6.4-2.6-6.9-6H0V10h7v2H2v36h24v1c0,2.8,2.2,5,5,5s5-2.2,5-5v-1h24V12h-5v-2h7v40H37.9
	C37.4,53.4,34.5,56,31,56z"/>
<path d="M56,44H6V0h15.3c3.6,0,7,1.3,9.7,3.6C33.7,1.3,37.1,0,40.7,0H56V44z M8,42h46V2H40.7c-3.4,0-6.6,1.3-9,3.7L31,6.4l-0.7-0.7
	c-2.4-2.4-5.6-3.7-9-3.7H8V42z"/>
<rect x="30" y="5" width="2" height="19"/>
<rect x="30" y="26" width="2" height="17"/>
</svg>
