<svg id="Layer_2" data-name="Layer 2" xmlns="http://www.w3.org/2000/svg" viewBox="0 0 234.52 136.44"><defs><style>.cls-1{fill:#bb766e;}.cls-2{fill:#5b221a;}.cls-3{fill:#f7bcbd;}.cls-4{fill:#fff;}</style></defs><title>hamIcon</title><path class="cls-1" d="M793.91,507.65a36.41,36.41,0,0,0,1.55-6.06,34.92,34.92,0,0,1,.52,6.06c0,30.19-37.56,54.66-83.89,54.66s-83.89-24.47-83.89-54.66a35.92,35.92,0,0,1,.52-6.06,36.44,36.44,0,0,0,1.56,6.06c8.45,24.36,41.87,42.55,81.81,42.55S785.45,532,793.91,507.65Z" transform="translate(-623.7 -433.37)"/><path class="cls-2" d="M712.09,566.81c-23.27,0-45.21-5.94-61.77-16.74-17.17-11.18-26.62-26.25-26.62-42.42a41,41,0,0,1,.58-6.82,4.51,4.51,0,0,1,4.44-3.74h0a4.51,4.51,0,0,1,4.43,3.77,31.43,31.43,0,0,0,1.37,5.31c8,22.9,40.57,39.53,77.56,39.53s69.61-16.63,77.57-39.52h0a32.36,32.36,0,0,0,1.36-5.31,4.52,4.52,0,0,1,4.43-3.77h0a4.5,4.5,0,0,1,4.44,3.74,41,41,0,0,1,.58,6.82c0,16.17-9.45,31.24-26.61,42.42C757.3,560.87,735.36,566.81,712.09,566.81Zm-68-33.27c13.92,14.54,39.19,24.27,68,24.27s54.06-9.73,68-24.27c-16.32,13.1-40.87,21.16-68,21.16S660.43,546.64,644.11,533.54Z" transform="translate(-623.7 -433.37)"/><path class="cls-3" d="M712.09,440.88c46.33,0,83.89,24.46,83.89,54.66a34.8,34.8,0,0,1-.52,6,36.41,36.41,0,0,1-1.55,6.06C785.45,532,752,550.2,712.09,550.2S638.73,532,630.28,507.65a36.44,36.44,0,0,1-1.56-6.06,35.81,35.81,0,0,1-.52-6C628.2,465.34,665.76,440.88,712.09,440.88Z" transform="translate(-623.7 -433.37)"/><path class="cls-2" d="M712.09,554.7c-41.36,0-76.75-18.74-86.07-45.57a42.7,42.7,0,0,1-1.74-6.8,40.41,40.41,0,0,1-.58-6.79c0-16.18,9.45-31.25,26.62-42.43,16.56-10.79,38.5-16.73,61.77-16.73s45.21,5.94,61.78,16.73c17.16,11.18,26.61,26.25,26.61,42.43a41.65,41.65,0,0,1-2.32,13.59C788.84,536,753.45,554.7,712.09,554.7Zm0-109.32c-43.77,0-79.39,22.5-79.39,50.16a32.25,32.25,0,0,0,1.83,10.63c8,22.9,40.57,39.53,77.56,39.53s69.61-16.63,77.57-39.52a32.73,32.73,0,0,0,1.36-5.32,30.83,30.83,0,0,0,.46-5.32C791.48,467.88,755.87,445.38,712.09,445.38Z" transform="translate(-623.7 -433.37)"/><path class="cls-4" d="M796,495.54v12.11h-2.07a36.41,36.41,0,0,0,1.55-6.06A34.8,34.8,0,0,0,796,495.54Z" transform="translate(-623.7 -433.37)"/><path class="cls-2" d="M796,512.15h-2.07a4.5,4.5,0,0,1-4.25-6,32.36,32.36,0,0,0,1.36-5.31,30.83,30.83,0,0,0,.46-5.32,4.5,4.5,0,1,1,9,0v12.11A4.49,4.49,0,0,1,796,512.15Z" transform="translate(-623.7 -433.37)"/><path class="cls-4" d="M628.2,495.54a35.81,35.81,0,0,0,.52,6,36.44,36.44,0,0,0,1.56,6.06H628.2Z" transform="translate(-623.7 -433.37)"/><path class="cls-2" d="M630.28,512.15H628.2a4.5,4.5,0,0,1-4.5-4.5V495.54a4.5,4.5,0,1,1,9,0,32.25,32.25,0,0,0,1.83,10.63,4.51,4.51,0,0,1-4.25,6Z" transform="translate(-623.7 -433.37)"/><path class="cls-1" d="M817.46,521.62a36.43,36.43,0,0,0,2.57-5.7,35.44,35.44,0,0,1-.53,6.06c-5.19,29.74-46.39,47.39-92,39.43S649,522.88,654.22,493.14a35.31,35.31,0,0,1,1.55-5.88,36.3,36.3,0,0,0,.49,6.24c4.15,25.44,33.94,49.11,73.29,56S804.94,544.16,817.46,521.62Z" transform="translate(-623.7 -433.37)"/><path class="cls-2" d="M749.28,567.83a131.62,131.62,0,0,1-22.59-2c-22.92-4-43.51-13.63-58-27.11-15-14-21.7-30.43-18.92-46.36a40.82,40.82,0,0,1,1.74-6.62,4.5,4.5,0,0,1,8.74,1.55,32.94,32.94,0,0,0,.43,5.47c3.9,23.93,33.18,45.91,69.62,52.27a121.79,121.79,0,0,0,20.77,1.82c28.31,0,52.94-10.32,62.43-27.42h0a33.16,33.16,0,0,0,2.26-5,4.5,4.5,0,0,1,8.74,1.5,38.83,38.83,0,0,1-.6,6.81c-2.78,15.94-14.68,29.15-33.5,37.22C778.29,565.17,764.16,567.83,749.28,567.83Zm-83.5-46.08a63.36,63.36,0,0,0,9.07,10.4c13.2,12.3,32.16,21.12,53.39,24.83s42,1.82,58.64-5.28A63.93,63.93,0,0,0,799,545c-18.3,9.93-43.68,13.55-70.18,8.93S679.63,537.29,665.78,521.75Z" transform="translate(-623.7 -433.37)"/><path class="cls-3" d="M748.34,441.78c45.64,8,78.43,38.52,73.24,68.26a35.31,35.31,0,0,1-1.55,5.88,36.43,36.43,0,0,1-2.57,5.7c-12.52,22.54-48.57,34.72-87.91,27.85s-69.14-30.53-73.29-56a37.25,37.25,0,0,1,0-12.29C661.49,451.46,702.7,433.82,748.34,441.78Z" transform="translate(-623.7 -433.37)"/><path class="cls-2" d="M751.43,555.9a132.37,132.37,0,0,1-22.66-2c-40.74-7.11-72.38-31.66-76.95-59.69a41.6,41.6,0,0,1,0-13.79c2.78-15.93,14.68-29.15,33.51-37.21,18.17-7.79,40.81-9.87,63.73-5.87s43.52,13.62,58,27.1c15,14,21.71,30.43,18.93,46.37a41.12,41.12,0,0,1-1.75,6.62,40.14,40.14,0,0,1-2.88,6.37C810.21,544,783,555.89,751.43,555.9ZM726.48,444.35c-13.64,0-26.53,2.42-37.56,7.14C673,458.32,663,469.14,660.74,482a31.27,31.27,0,0,0-.47,5.3,33,33,0,0,0,.43,5.49c3.9,23.93,33.18,45.91,69.62,52.27a121.79,121.79,0,0,0,20.77,1.82c28.31,0,52.94-10.32,62.43-27.42a32.79,32.79,0,0,0,2.27-5,31.25,31.25,0,0,0,1.36-5.17c2.24-12.83-3.51-26.41-16.2-38.23-13.2-12.31-32.16-21.12-53.39-24.83h0A123.07,123.07,0,0,0,726.48,444.35Z" transform="translate(-623.7 -433.37)"/><path class="cls-4" d="M821.58,510,819.5,522l-2-.36a36.43,36.43,0,0,0,2.57-5.7A35.31,35.31,0,0,0,821.58,510Z" transform="translate(-623.7 -433.37)"/><path class="cls-2" d="M819.5,526.48a3.94,3.94,0,0,1-.77-.07l-2-.35a4.51,4.51,0,0,1-3.16-6.63,33.16,33.16,0,0,0,2.26-5,32.48,32.48,0,0,0,1.36-5.14v0a4.5,4.5,0,1,1,8.87,1.55h0l-2.09,11.93a4.49,4.49,0,0,1-4.43,3.73Z" transform="translate(-623.7 -433.37)"/><path class="cls-4" d="M656.3,481.21a37.25,37.25,0,0,0,0,12.29l-2-.36Z" transform="translate(-623.7 -433.37)"/><path class="cls-2" d="M656.26,498a4.08,4.08,0,0,1-.77-.07l-2-.35a4.5,4.5,0,0,1-3.66-5.21l2.08-11.91v0a4.5,4.5,0,1,1,8.87,1.55v0a32.17,32.17,0,0,0-.46,5.28,33,33,0,0,0,.43,5.49,4.49,4.49,0,0,1-4.44,5.23Z" transform="translate(-623.7 -433.37)"/><path class="cls-1" d="M846.39,532a35.65,35.65,0,0,0,3.31-5.31,35,35,0,0,1-1.33,5.93c-9.08,28.79-52.26,40.84-96.44,26.9s-72.65-48.57-63.57-77.36a35.51,35.51,0,0,1,2.32-5.62,36.12,36.12,0,0,0-.34,6.24c.74,25.77,27.14,53.17,65.23,65.19S831,552.66,846.39,532Z" transform="translate(-623.7 -433.37)"/><path class="cls-2" d="M788.37,569.81a126.51,126.51,0,0,1-37.8-6c-22.19-7-41.32-19.27-53.88-34.54-13-15.83-17.48-33-12.62-48.46a39.76,39.76,0,0,1,2.61-6.33,4.5,4.5,0,0,1,8.45,2.69,32,32,0,0,0-.29,5.48c.69,24.24,26.81,49.9,62.08,61s71.39,5.09,85.86-14.36h0a32.16,32.16,0,0,0,2.9-4.66,4.5,4.5,0,0,1,8.47,2.65,40.54,40.54,0,0,1-1.5,6.68c-4.86,15.42-18.41,26.94-38.14,32.45A97.69,97.69,0,0,1,788.37,569.81ZM696,512a63.21,63.21,0,0,0,7.62,11.5c11.46,14,29.08,25.2,49.63,31.68s41.44,7.38,58.82,2.53A63.49,63.49,0,0,0,825,552.68c-19.45,7.42-45.08,7.65-70.73-.44S707.71,529.26,696,512Z" transform="translate(-623.7 -433.37)"/><path class="cls-3" d="M788.45,443.69c44.19,13.93,72.65,48.56,63.56,77.36A36.87,36.87,0,0,1,846.39,532c-15.39,20.68-52.73,28-90.82,16s-64.49-39.42-65.23-65.19a36.12,36.12,0,0,1,.34-6.24,35,35,0,0,1,1.33-5.93C701.09,441.79,744.26,429.75,788.45,443.69Z" transform="translate(-623.7 -433.37)"/><path class="cls-2" d="M792.17,558.28a127,127,0,0,1-37.95-6c-39.45-12.44-67.56-41-68.38-69.35a41.75,41.75,0,0,1,1.87-13.66c4.87-15.42,18.42-27,38.15-32.45,19-5.31,41.75-4.38,63.94,2.62h0c22.2,7,41.33,19.26,53.89,34.54,13,15.82,17.48,33,12.62,48.46A41.75,41.75,0,0,1,850,534.67C838.6,550,817.05,558.27,792.17,558.28ZM751.82,442.36c-27.36,0-49.61,10.85-55.52,29.58a30.66,30.66,0,0,0-1.16,5.19,31.34,31.34,0,0,0-.3,5.5c.69,24.24,26.8,49.9,62.08,61s71.39,5.09,85.86-14.36a32.22,32.22,0,0,0,4.94-9.6c3.92-12.42,0-26.64-11-40-11.46-13.94-29.08-25.19-49.63-31.67h0A117.93,117.93,0,0,0,751.82,442.36Z" transform="translate(-623.7 -433.37)"/><path class="cls-4" d="M852,521.05l-3.64,11.55-2-.62A36.87,36.87,0,0,0,852,521.05Z" transform="translate(-623.7 -433.37)"/><path class="cls-2" d="M848.37,537.1a4.47,4.47,0,0,1-1.35-.21l-2-.62a4.49,4.49,0,0,1-2.25-7,32.16,32.16,0,0,0,2.9-4.66,31.28,31.28,0,0,0,2-4.92v0a4.5,4.5,0,1,1,8.59,2.71h0L852.66,534a4.5,4.5,0,0,1-4.29,3.14Z" transform="translate(-623.7 -433.37)"/><path class="cls-4" d="M692,470.59a35,35,0,0,0-1.33,5.93,36.12,36.12,0,0,0-.34,6.24l-2-.62Z" transform="translate(-623.7 -433.37)"/><path class="cls-2" d="M690.34,487.26a4.46,4.46,0,0,1-1.35-.2l-2-.63a4.49,4.49,0,0,1-2.94-5.64l3.65-11.56a4.5,4.5,0,1,1,8.58,2.71,30.66,30.66,0,0,0-1.16,5.19,31.34,31.34,0,0,0-.3,5.5,4.51,4.51,0,0,1-4.5,4.63Z" transform="translate(-623.7 -433.37)"/></svg>