<svg id="Layer_2" data-name="Layer 2" xmlns="http://www.w3.org/2000/svg" viewBox="0 0 265.12 206.09"><title>home</title><path d="M396.1,309.06h7a2,2,0,0,0,2-2v-4.8a2,2,0,0,0-2-2h-9.06V307A2,2,0,0,0,396.1,309.06Z" transform="translate(-324.94 -234.97)"/><path d="M439.71,341.21H380a2,2,0,0,0-2,2V403a2,2,0,0,0,2,2h59.7a2,2,0,0,0,2-2v-59.7A2,2,0,0,0,439.71,341.21Zm-34.29,54.9H388.89a2,2,0,0,1-2-2V379.58a2,2,0,0,1,2-2h14.49a2,2,0,0,1,2,2Zm0-27.45H388.89a2,2,0,0,1-2-2v-14.5a2,2,0,0,1,2-2h14.49a2,2,0,0,1,2,2Zm27.46,25.41a2,2,0,0,1-2,2H414.3V379.58a2,2,0,0,1,2-2h14.5a2,2,0,0,1,2,2Zm0-27.45a2,2,0,0,1-2,2h-14.5a2,2,0,0,1-2-2v-14.5a2,2,0,0,1,2-2h16.54Z" transform="translate(-324.94 -234.97)"/><path d="M590.06,312.14s0-.18,0-.25v-.06c0-.11,0-.21-.08-.32s-.11-.31-.16-.46c-4.17-4.39-13.62-10.1-13.71-10.15L455.62,235.22a2.06,2.06,0,0,0-2,0l-117.18,65-10.76,5.73-.19.14c-.11.27-.23.54-.35.81s-.11.27-.16.41a2.17,2.17,0,0,1-.08.52,1.55,1.55,0,0,1,0,.37,17.2,17.2,0,0,0,1.37,1.33,8.09,8.09,0,0,1,.77.78,6.22,6.22,0,0,0,.66.7h0a1.83,1.83,0,0,1,.32.14h0l.14,0,.58.05a2.14,2.14,0,0,1,.57.12l.63,0a32.72,32.72,0,0,0,6.43-2.12l17.4-9.49a2,2,0,0,1,3,1.79V419.36a21.75,21.75,0,0,0,21.7,21.7H530.7a21.75,21.75,0,0,0,21.7-21.7V301.52a2,2,0,0,1,3-1.79L586,316.43c.18,0,.34-.09.53-.12a6.75,6.75,0,0,0,.76-.14l.18-.07.07-.05a.42.42,0,0,1,.11-.07l.11-.11c.16-.14.3-.28.45-.43.29-.31.56-.64.84-1l.2-.27c.15-.22.29-.44.42-.67s.09-.2.15-.29h0c.06-.18.11-.37.17-.56a.25.25,0,0,1,0-.08c0-.07,0-.14,0-.16Zm-80.93,118a2,2,0,0,1-2,2.05H471.38a2,2,0,0,1-2-2.05v-78a2,2,0,0,1,2-2h35.71a2,2,0,0,1,2,2Zm34.4-10.78a12.87,12.87,0,0,1-12.83,12.83H520.05a2,2,0,0,1-2-2.05V343.25a2,2,0,0,0-2-2H462.5a2,2,0,0,0-2,2v86.89a2.05,2.05,0,0,1-2,2.05H378.58a12.87,12.87,0,0,1-12.83-12.83V311.1a2,2,0,0,1,2.05-2h16.9a2,2,0,0,0,2-2v-4.8a2,2,0,0,0-2-2H365.75v-3.07a2,2,0,0,1,2.05-2h64.78a2.05,2.05,0,0,0,2.05-2v-4.8a2,2,0,0,0-2.05-2H386.69a2,2,0,0,1-1-3.83l67.94-37.06a2,2,0,0,1,2,0l86.84,47.36a2.05,2.05,0,0,1,1.07,1.8Z" transform="translate(-324.94 -234.97)"/></svg>