<svg id="Warstwa_2" data-name="Warstwa 2" xmlns="http://www.w3.org/2000/svg" viewBox="0 0 258.27 231.67"><defs><style>.cls-1a{fill:#c49a6c;}.cls-1a,.cls-2a,.cls-3a,.cls-4a,.cls-5a,.cls-6a{stroke:#594a42;stroke-linecap:round;stroke-linejoin:round;stroke-width:7px;}.cls-2a{fill:#fbb040;}.cls-3a{fill:#77543d;}.cls-4a{fill:none;}.cls-5a{fill:#ffde17;}.cls-6a{fill:#dbceba;}</style></defs><polygon class="cls-1a" points="216.78 130.37 197.98 109.77 179.18 89.17 160.38 68.58 141.59 47.98 129.13 34.33 116.68 47.98 97.89 68.58 79.09 89.17 60.29 109.77 41.49 130.37 31.64 141.17 31.64 150.97 31.64 171.57 31.64 192.17 31.64 212.76 31.64 228.17 226.63 228.17 226.63 212.76 226.63 192.17 226.63 171.57 226.63 150.97 226.63 141.17 216.78 130.37"/><polygon class="cls-2a" points="226.63 141.17 254.77 141.17 129.13 3.5 3.5 141.17 31.64 141.17 129.13 34.33 226.63 141.17"/><rect class="cls-3a" x="97.14" y="161.03" width="63.21" height="67.14"/><line class="cls-4a" x1="129.13" y1="161.03" x2="129.13" y2="228.17"/><rect class="cls-5a" x="79.09" y="109.67" width="29.68" height="37.5"/><rect class="cls-5a" x="540.32" y="465.72" width="29.68" height="37.5" transform="translate(719.5 612.89) rotate(180)"/><rect class="cls-5a" x="507.55" y="429.01" width="24.04" height="28.89" transform="translate(648.32 530.84) rotate(180)"/><rect class="cls-6a" x="31.64" y="182.33" width="65.5" height="45.83"/><rect class="cls-6a" x="160.36" y="182.33" width="65.5" height="45.83"/><line class="cls-4a" x1="31.64" y1="182.33" x2="97.14" y2="228.17"/><line class="cls-4a" x1="97.14" y1="182.33" x2="31.64" y2="228.17"/><line class="cls-4a" x1="160.36" y1="182.33" x2="225.86" y2="228.17"/><line class="cls-4a" x1="225.86" y1="182.33" x2="160.36" y2="228.17"/><path class="cls-4a" d="M520,359.56" transform="translate(-390.82 -356.06)"/></svg>