<svg id="Layer_3" data-name="Layer 3" xmlns="http://www.w3.org/2000/svg" viewBox="0 0 337.62 312.22"><defs><style>.cls-1{fill:#f5b11e;}.cls-2{fill:#f1eada;}.cls-3{fill:#f1ecd8;}.cls-4{fill:#dbd4c1;}.cls-5{fill:#fad88e;}</style></defs><title>honeyIcon</title><path class="cls-1" d="M1359.4,1323.86h-62.27c-14.31,0-28.9,1.21-55.72-38.39-31.29-46.22-74.54-149.08-9.79-205.55h255.56c64.75,56.47,21.5,159.33-9.79,205.55-26.82,39.6-41.41,38.39-55.72,38.39Z" transform="translate(-1190.59 -1011.65)"/><path class="cls-2" d="M1501.84,1024.12a12.49,12.49,0,0,1-12.48,12.49H1229.44a12.48,12.48,0,0,1-12.48-12.49h0a12.47,12.47,0,0,1,12.48-12.47h259.92a12.47,12.47,0,0,1,12.48,12.47Z" transform="translate(-1190.59 -1011.65)"/><path class="cls-3" d="M1501.84,1057.43H1217c-24.56,11.84-34.32,43.65-19.09,51.77s24.7-12.18,36.88-12.18,14.21,15.56,29.1,15.56S1285.17,1098,1296,1098s18.27,14.55,30.79,14.55,21.39-15.56,33.57-15.56c15,0,19.15,15.56,31.67,15.56s20-14.55,30.79-14.55,17.25,14.55,32.14,14.55,16.92-15.56,29.1-15.56,21.65,20.3,36.88,12.18S1526.4,1069.27,1501.84,1057.43Z" transform="translate(-1190.59 -1011.65)"/><rect class="cls-4" x="45.33" y="24.96" width="246.96" height="20.82"/><path class="cls-5" d="M1280.59,1179.56a22.34,22.34,0,1,1-22.33-22.34A22.33,22.33,0,0,1,1280.59,1179.56Z" transform="translate(-1190.59 -1011.65)"/></svg>