<svg id="Layer_2" data-name="Layer 2" xmlns="http://www.w3.org/2000/svg" viewBox="0 0 115.61 431.84"><defs><style>.cls-1{fill:#93001c;}.cls-2{fill:#a52817;}.cls-3{fill:#f0f0ec;}.cls-4{fill:none;stroke:#bd1e2d;stroke-miterlimit:10;stroke-width:3px;}.cls-5{fill:#006838;}.cls-6{fill:#e9ede6;}.cls-7{fill:#d84c4c;}</style></defs><title>hotSuaceIcon</title><path class="cls-1" d="M638.73,278.08H600.31a2.65,2.65,0,0,1-2.65-2.64V248.81a2.65,2.65,0,0,1,2.65-2.65h38.42a2.65,2.65,0,0,1,2.65,2.65v26.63a2.65,2.65,0,0,1-2.65,2.64" transform="translate(-561.71 -246.16)"/><path class="cls-2" d="M657,402.86l-.62-.63a66.86,66.86,0,0,1-19.27-47V278.08H601.89V355a66.86,66.86,0,0,1-19.58,47.28,66.89,66.89,0,0,0-19.59,47.35l.2,203.76A24.61,24.61,0,0,0,587.53,678h64a24.61,24.61,0,0,0,24.61-24.59l.2-203.51a66.84,66.84,0,0,0-19.28-47" transform="translate(-561.71 -246.16)"/><polygon class="cls-3" points="1.14 339.69 57.74 396.29 114.47 339.55 114.57 243.63 57.74 186.8 1.05 243.49 1.14 339.69"/><polyline class="cls-4" points="114.55 256.84 57.74 200.02 1.06 256.7"/><polyline class="cls-4" points="1.13 326.45 57.74 383.06 114.48 326.31"/><path class="cls-5" d="M645.74,388a66.77,66.77,0,0,1-8.59-32.78V310.32H601.89V355a66.82,66.82,0,0,1-8.72,33Z" transform="translate(-561.71 -246.16)"/><rect class="cls-6" x="40.18" y="31.92" width="35.25" height="7.09"/><path class="cls-7" d="M648.61,410.34a20,20,0,0,0-9.57.6,4.13,4.13,0,0,0,.38,8l.23.05a19.9,19.9,0,0,1,15,16.79c.06.49.1,1,.12,1.45.21,4.17,5.71,5.65,7.7,2a19.78,19.78,0,0,0-13.83-28.84" transform="translate(-561.71 -246.16)"/></svg>