<svg id="Layer_2" data-name="Layer 2" xmlns="http://www.w3.org/2000/svg" viewBox="0 0 198.33 191.45"><defs><style>.cls-1{fill:#aedef9;}.cls-2{opacity:0.2;}.cls-3{fill:#d7eefb;}.cls-4{fill:#79cced;}.cls-5{fill:#66c2ef;}.cls-6{fill:#fff;opacity:0.35;}.cls-7{fill:#8ed1ef;}.cls-8{fill:#f0f8fd;}</style></defs><title>iceIcon</title><path class="cls-1" d="M525.06,457.58c-2.46-4.66-13.73-9.81-17.41-12.26s-6.54-5.08-10.64-5.64c-6.68-.92-21.45.49-29.06,1.72s-22.88-1.72-25.54,7.1,2.57,27.95,1.79,33.35-4.77,21.32-1.79,25.74,11,11.52,13.61,14.46,20.26,3.19,29.2,2.21,31.5,1.47,35.91-.49,7.11-13.24,6.87-27S527.5,462.24,525.06,457.58Z" transform="translate(-440.6 -438.74)"/><g class="cls-2"><path class="cls-3" d="M522.11,460.23c-1.58-1.35-16.65-1-26.59,0s-22.72-1.76-29.73,2.5-2.24,27.2-3,31.25-.6,22-1.17,24.64,19.2,3.24,31.27,3.12,24.14,1.54,27.91-2.39,5.23-18.24,4.26-27.5S524.07,461.89,522.11,460.23Z" transform="translate(-440.6 -438.74)"/></g><g class="cls-2"><path class="cls-3" d="M513.72,450.65c-2.52-1.1-10.36-6.8-15.38-8.87s-29.92.78-32.55,1-18,.51-18,3.49,7.41,9.71,12.42,9.74a54.27,54.27,0,0,0,13.61-2c5.6-1.42,21.8.13,26,.87s17.65.18,18.76-.87S516.23,451.75,513.72,450.65Z" transform="translate(-440.6 -438.74)"/></g><path class="cls-4" d="M498.34,508.08c-3.63-3.08-18,.49-22.63,1s-19.69-4.17-23.34-1.48c-2.67,2,5.22,13,6.47,13.49s49.79,1.23,54.69,0C515.45,520.59,502,511.15,498.34,508.08Z" transform="translate(-440.6 -438.74)"/><path class="cls-5" d="M484.66,455.37c-7.29-.25-20.4,3.19-24.43,2.21S446,448.75,446,448.75c5.29,4.41,13.6,14.47,12.84,20.1s-2.18,11.77,0,23a92.92,92.92,0,0,1,1.39,21.82c2.35-4.17,2.07-17.65,1.26-23.05s-.42-24.27,2.49-27.94,17.2-5.64,25.26-5c6.61.55,17.36-1.07,21-1.67C504.18,456.88,491.44,455.6,484.66,455.37Z" transform="translate(-440.6 -438.74)"/><path class="cls-5" d="M510.28,456.08a12.75,12.75,0,0,0,1.29-.22Z" transform="translate(-440.6 -438.74)"/><path class="cls-5" d="M501.27,504.4c-1.47-2.21-2-8.82-1-12.55s1-17.6,1-17.6-1.22,7.6-1.72,13.23-1.22,13.49-4,15-14.33,2.94-14.33,2.94c2.47.74,12.24-1.47,17.15.24s11.51,8.1,11.51,8.1C509.12,511.51,502.75,506.61,501.27,504.4Z" transform="translate(-440.6 -438.74)"/><path class="cls-6" d="M518.68,461.5c-1.89-3-11.52.25-16.18,0s-10.58.25-13.26,3.43,3.51,4.17,7.77,3.68,12.6-2.21,14.56,2.94-.48,23.53,5.39,24,2.94-15.21,3.19-18.88S522.11,466.89,518.68,461.5Z" transform="translate(-440.6 -438.74)"/><path class="cls-6" d="M491.14,471.31c-4.26-3.91-10.44-2-5.92,2.94S496,475.72,491.14,471.31Z" transform="translate(-440.6 -438.74)"/><path class="cls-6" d="M483.64,518.86c-3.42,1.48-13.26-.24-15.69-5.14s-1.49-33.1-.34-39.72,8.17-8.77,8.58-11.76-8-2-10.4,3.91-2.27,21.33-1.81,27.46-1.93,20.35-1.19,24.52,12,5.15,16.75,4.9,19.29-2,18.79-3.66S487.06,517.4,483.64,518.86Z" transform="translate(-440.6 -438.74)"/><path class="cls-6" d="M444.27,452.67c-1.12,1-.55,7.53-.07,10.3s8.53,15.69,9.66,14.94,1.57-10.28.75-14.94S445.38,451.69,444.27,452.67Z" transform="translate(-440.6 -438.74)"/><path class="cls-6" d="M504.7,447.53c-2.44-2-10.33-4.91-15.46-5.64s-25.53,2.69-30.4,2.45-10.24,1.22-8,4.41,13.84,2.7,15,2,12-4.76,15.4-5.15c6.6-.73,15.7,2.7,17.15,4.42s9.52,6.37,13.23,2.6C514.71,449.38,507.13,449.49,504.7,447.53Z" transform="translate(-440.6 -438.74)"/><path class="cls-7" d="M446,485.77c.63,2.69,1.1,15,0,17.16s1.1,6.13,3.07,6.37,1.46-4.66,1.72-10.05-3-16.18-3-16.18C447.39,481.62,445.38,483.07,446,485.77Z" transform="translate(-440.6 -438.74)"/><path class="cls-8" d="M444.11,509.16c-.71-.87-1.37-1.74-2.06-2.61a2.86,2.86,0,0,1-.47-1.35,10.36,10.36,0,0,1-.11-1.59,46.26,46.26,0,0,1,.57-6.43c.29-2.12.64-4.22,1-6.28s.71-4.09,1-6.1c.07-.51.15-1,.21-1.52,0-.25.06-.51.08-.77s0-.49.06-.73c.07-1,.16-2,.21-2.93a39.8,39.8,0,0,0-.07-5.69c-.1-.91-.22-1.81-.33-2.68s-.31-1.73-.46-2.56c0-.21-.07-.41-.11-.62s-.1-.41-.14-.61c-.1-.4-.19-.8-.28-1.19-.18-.78-.38-1.57-.54-2.29-.08-.37-.16-.73-.25-1.09s-.12-.71-.18-1.06-.12-.7-.17-1-.06-.69-.1-1a28.73,28.73,0,0,1,.18-6.95,27.57,27.57,0,0,1,1-4.4,14.81,14.81,0,0,1,.54-1.5,20,20,0,0,0-1.15,2.68,27,27,0,0,0-.82,2.87,27.73,27.73,0,0,0-.68,6.06,28.87,28.87,0,0,0,.65,6.19c.21,1,.41,2,.61,3,.11.5.18,1,.26,1.5s.15,1,.23,1.49.14,1,.2,1.5.1,1,.16,1.49.05,1,.08,1.49.06,1,0,1.47c0,2-.15,3.91-.29,5.86,0,.24,0,.49-.06.73s0,.46-.07.69c-.05.47-.12.94-.18,1.41-.14.94-.28,1.87-.41,2.78-.29,1.84-.57,3.64-.81,5.39a74.94,74.94,0,0,0-.86,9.72c0,.74,0,1.47.11,2.17a5,5,0,0,0,.58,2l.15.23c.05.07.11.12.16.18s.2.24.31.35l.6.68c.39.45.77.88,1.13,1.27l2,2.11,1.5,1.55c.82.84,1.27,1.28,1.27,1.28l-2.16-2.56Z" transform="translate(-440.6 -438.74)"/><path class="cls-8" d="M528,472.09c-.14-2.68-.32-5.33-.67-7.94l-.12-1c0-.32-.12-.65-.18-1s-.11-.65-.17-1-.16-.66-.26-1a15.07,15.07,0,0,0-1.68-3.61,20.59,20.59,0,0,0-5.32-5.37,39.64,39.64,0,0,0-6.13-3.51L512,447l-.71-.36-.7-.4c-.92-.53-1.83-1.09-2.72-1.63-1.77-1.08-3.48-2.13-5.14-3.07-.81-.48-1.64-.91-2.44-1.34l-1.22-.58a6.3,6.3,0,0,0-1.27-.5,14.32,14.32,0,0,0-2.51-.36c-.8-.05-1.57-.06-2.31-.06-1.47,0-2.82.09-4,.18-2.44.18-4.33.41-5.62.57s-2,.29-2,.29c2.38-.18,4.82-.3,7.29-.36,1.23,0,2.47,0,3.71,0a30.59,30.59,0,0,1,3.71.3,9.71,9.71,0,0,1,1.75.4l.39.17.42.21.82.43c.55.3,1.09.63,1.64.93s1.07.66,1.62,1c2.15,1.34,4.26,2.73,6.42,4.08.54.34,1.09.66,1.66,1s1.15.58,1.71.86c1.13.55,2.22,1.11,3.28,1.72a27.65,27.65,0,0,1,5.77,4.22,14.45,14.45,0,0,1,3.68,5.63,21.51,21.51,0,0,1,.74,3.22l.24,1.63c.08.55.13,1.09.2,1.63.48,4.3.74,8.35.95,12s.35,6.84.46,9.5c.22,5.34.31,8.5.31,8.5.19-5.55.24-11.1.16-16.58C528.19,477.49,528.11,474.77,528,472.09Z" transform="translate(-440.6 -438.74)"/><path class="cls-1" d="M626.26,485.72c-4.88-4.66-17.67-12.17-24.56-15.64s-17.53-14.8-24.86-9.21S562.55,485,558.76,489s-16.37,14.48-16.54,19.8,2.16,15.79,2.55,19.7,14.55,14.46,22.38,18.9S591.81,567,596.53,568s13.52-6.56,21.37-17.83,19.85-28.29,20.59-33.5-5.37-16-6.92-20.14S629.25,488.58,626.26,485.72Z" transform="translate(-440.6 -438.74)"/><g class="cls-2"><path class="cls-3" d="M613,501.5c-8.65-5-17.38-14.74-25.55-15.4s-17.76,20.73-20.75,23.57S553.32,527.15,551.32,529,565,542.83,574.83,549.8s18.67,15.39,24,14.42,14.94-11.71,19.58-19.8,16.75-24.84,16.14-27.34C634.06,515.06,621.67,506.49,613,501.5Z" transform="translate(-440.6 -438.74)"/></g><g class="cls-2"><path class="cls-3" d="M626.11,488.21c-2.86-4.61-24.7-16.91-26.94-18.3s-14.89-10.13-16.62-7.71.31,12.22,4.35,15.18a54.53,54.53,0,0,0,12.19,6.38c5.37,2.13,17.58,12.88,20.58,15.95s14.19,10.49,15.7,10.29-.61-3.23-2-5.6S629,492.82,626.11,488.21Z" transform="translate(-440.6 -438.74)"/></g><path class="cls-4" d="M568.34,529.46c-4-2.3-13.51-14.92-18-14.88-3.32,0-3.4,13.59-2.67,14.73s39.63,30.17,44.32,32c1.84.74-3.55-14.8-4.69-19.42S572.34,531.74,568.34,529.46Z" transform="translate(-440.6 -438.74)"/><path class="cls-5" d="M586,478.67c-2.69-3.16-6.36-15.49-6.36-15.49,1.7,6.68,2.54,19.69-1.38,23.81s-8.67,8.26-13.5,18.68a92.89,92.89,0,0,1-11.66,18.49c4.34-2,12-13.09,14.52-17.94S581.48,486.31,586,485s17.22,5.51,23.37,10.77c5,4.32,14.7,9.31,18,11-5.42-2.93-15-11.44-20.35-15.59C601.29,486.73,588.65,481.82,586,478.67Z" transform="translate(-440.6 -438.74)"/><path class="cls-5" d="M627.41,506.79c.41.22.81.42,1.17.57Z" transform="translate(-440.6 -438.74)"/><path class="cls-5" d="M588.28,535.71c-3.14-.46-13.34-6-13.34-6,1.57,2,10.78,6,13.76,10.25s4.58,13.3,4.58,13.3c.7-2.22-1.59-9.93-1.49-12.58s3.59-8.3,6.56-10.74,11.11-13.69,11.11-13.69-5.45,5.44-9.15,9.72S591.42,536.16,588.28,535.71Z" transform="translate(-440.6 -438.74)"/><path class="cls-6" d="M617.92,506.62c-3.63-2.93-8.71-6-12.75-5s.39,5.43,4.14,7.53,11.5,5.6,10.07,10.92-14.19,18.78-9.71,22.63,11.3-10.6,13.65-13.43,7.33-6.8,7.71-13.18C631.24,512.57,621.56,509.55,617.92,506.62Z" transform="translate(-440.6 -438.74)"/><path class="cls-6" d="M596.45,506.82c.8,6.63,7.84,7.49,6.52,1.09C601.8,502.25,595.66,500.2,596.45,506.82Z" transform="translate(-440.6 -438.74)"/><path class="cls-6" d="M585.45,488.89c-5.37,3.39-14.34,15.95-17.56,21.18s-13.49,15.36-15.33,19.17,6.71,11.21,10.7,13.79,16.77,9.7,17.37,8-8-8.21-11.6-9-10.6-8-9.71-13.37,18.2-27.68,23-32.38,11.76-2.32,13.84-4.51S590.81,485.48,585.45,488.89Z" transform="translate(-440.6 -438.74)"/><path class="cls-6" d="M575.9,465.35c-1.47.14-4.85,5.77-6.08,8.3s-2.28,17.71-.92,17.76,7.29-7.41,9.35-11.67S577.38,465.2,575.9,465.35Z" transform="translate(-440.6 -438.74)"/><path class="cls-6" d="M618.67,483c-3.73-3.6-22.27-12.77-26.08-15.83s-9-5-9.1-1.14,9.64,10.3,11,10.38S607,479.52,610,481.22c5.78,3.27,11.14,11.38,11.32,13.63s4,10.74,9.19,9.85c4.42-.75-1.78-5.1-2.61-8.12S622.39,486.56,618.67,483Z" transform="translate(-440.6 -438.74)"/><path class="cls-7" d="M557.92,493.18c-1.07,2.55-7.88,12.76-10,13.91s-2.71,5.6-1.25,7,3.9-2.92,7.28-7.14S561,492.05,561,492.05C561.48,490.63,559,490.63,557.92,493.18Z" transform="translate(-440.6 -438.74)"/><path class="cls-8" d="M574.41,463.06a28,28,0,0,0-4.1,4.51,28.86,28.86,0,0,0-3.1,5.4c-.42.92-.83,1.85-1.26,2.78-.2.46-.43.91-.66,1.36l-.69,1.35a14.1,14.1,0,0,1-.72,1.32l-.74,1.3c-.25.43-.54.84-.8,1.26s-.53.83-.83,1.22c-1.12,1.62-2.41,3.08-3.68,4.58l-.47.55c-.14.18-.3.36-.46.53-.31.34-.64.69-1,1l-2,2q-2,2-3.8,3.88a76.5,76.5,0,0,0-6.4,7.38,20.26,20.26,0,0,0-1.18,1.83,5.3,5.3,0,0,0-.72,2v.27a1.85,1.85,0,0,0,0,.24c0,.16,0,.32,0,.47,0,.31.05.61.08.9.07.59.11,1.16.18,1.69.14,1.07.26,2,.37,2.87s.22,1.55.31,2.13c.17,1.16.27,1.79.27,1.79l-.24-3.34-.21-3.34c-.06-1.11-.1-2.21-.14-3.32a2.93,2.93,0,0,1,.4-1.37,11.26,11.26,0,0,1,.86-1.34A47.8,47.8,0,0,1,548,500.1c1.49-1.55,3-3,4.5-4.5s3-2.9,4.4-4.35l1.05-1.11c.17-.18.34-.38.51-.58L559,489c.63-.74,1.28-1.49,1.88-2.24a39.78,39.78,0,0,0,3.27-4.66c.47-.79.88-1.59,1.31-2.36s.76-1.58,1.13-2.34q.15-.28.27-.57l.25-.58c.15-.38.31-.76.47-1.13.31-.74.61-1.49.91-2.17.14-.35.28-.69.43-1s.32-.66.47-1,.31-.63.48-.94l.51-.88a28.92,28.92,0,0,1,4.22-5.53,27.59,27.59,0,0,1,3.38-3,14.56,14.56,0,0,1,1.32-.9,18.8,18.8,0,0,0-2.5,1.5A25.68,25.68,0,0,0,574.41,463.06Z" transform="translate(-440.6 -438.74)"/><path class="cls-8" d="M634.84,501.9c-.26-.49-.53-1-.8-1.47l-.36-.7-.33-.73c-.43-1-.83-1.95-1.24-2.91-.81-1.92-1.58-3.77-2.37-5.5-.38-.87-.8-1.71-1.2-2.52-.2-.41-.43-.8-.64-1.19-.12-.2-.2-.38-.34-.58a4.82,4.82,0,0,0-.4-.57,13.63,13.63,0,0,0-1.82-1.76c-.62-.51-1.24-1-1.84-1.4-1.2-.85-2.34-1.58-3.38-2.22-2.07-1.28-3.74-2.2-4.89-2.83s-1.76-.93-1.76-.93c2,1.26,4.08,2.58,6.12,4,1,.7,2,1.42,3,2.18a31.4,31.4,0,0,1,2.84,2.41,9.91,9.91,0,0,1,1.17,1.36,3.48,3.48,0,0,1,.22.36l.22.42.42.83c.28.56.52,1.15.78,1.71s.49,1.17.74,1.75c.95,2.34,1.86,4.71,2.81,7.06.24.59.5,1.18.76,1.78s.59,1.14.89,1.7c.58,1.1,1.15,2.2,1.65,3.31a27.6,27.6,0,0,1,2.2,6.81A14.69,14.69,0,0,1,637,519a21.82,21.82,0,0,1-1.29,3l-.76,1.47c-.25.49-.54,1-.8,1.43-2.13,3.77-4.29,7.2-6.24,10.26s-3.72,5.75-5.2,8c-2.95,4.45-4.72,7.07-4.72,7.07,3.4-4.39,6.7-8.86,9.84-13.34,1.56-2.24,3.1-4.49,4.55-6.74s2.87-4.51,4.12-6.83l.47-.87c.14-.29.28-.59.43-.89s.28-.59.43-.89.25-.63.36-.94a14.78,14.78,0,0,0,.75-3.91,20.47,20.47,0,0,0-1.17-7.47A40.19,40.19,0,0,0,634.84,501.9Z" transform="translate(-440.6 -438.74)"/><path class="cls-1" d="M535.58,547.28c-4.26-3.18-14.2-7.23-17.63-9.14s-20.17,3.7-28.29,7.59-30.21,9-33.72,12.35-2.33,14.85,2.46,27.72,11.9,32.45,15.76,36,16.2,4.7,20.48,5.8,7.86,2.62,11.91,1.8c6.61-1.35,20.07-7.57,26.85-11.25s22.16-6,21.74-15.16-11.68-25.52-12.73-30.87S539.85,550.46,535.58,547.28Z" transform="translate(-440.6 -438.74)"/><g class="cls-2"><path class="cls-3" d="M513.8,543.23c-.33-2.67-19.19,3.3-30.54,7.41s-23.28,6.55-25.54,11.49,1.1,19,5.09,27.37,10.84,27.94,13.25,28.86c1.94.75,16.05-4.54,25.09-8.8s22-5.88,27.22-12.2-6.89-26.42-7.51-30.49S514.13,545.9,513.8,543.23Z" transform="translate(-440.6 -438.74)"/></g><g class="cls-2"><path class="cls-3" d="M535.86,601.87a55.13,55.13,0,0,0-12.2,6.37c-4.81,3.2-20.6,7.09-24.84,7.8s-16.72,5.67-17.41,7,3,1.34,5.74,1.55,12,3,17.44,3.28,28-10.65,30.4-11.69,16.81-6.45,15.81-9.25S540.59,600.25,535.86,601.87Z" transform="translate(-440.6 -438.74)"/></g><path class="cls-4" d="M515.61,540c-1.34,0-47.39,15.33-51.6,18.11-1.65,1.09,14.18,5.53,18.63,7.23s16.87-6.44,21-8.42,20-2.59,22.51-6.33C528.05,547.85,517,540.05,515.61,540Z" transform="translate(-440.6 -438.74)"/><path class="cls-5" d="M488.58,618.36c-.4.21-.77.41-1.1.61Z" transform="translate(-440.6 -438.74)"/><path class="cls-5" d="M532.9,589.27c-1.14-5.57-1.83-11.83-7.63-21.74a92.79,92.79,0,0,1-8.53-20.13c-.84,4.71,3.89,17.34,6.44,22.16s8.43,22.76,6.9,27.2-14.35,11-22.19,13c-6.42,1.67-16,6.77-19.31,8.55,5.49-2.77,17.95-5.79,24.42-7.81,7-2.19,18.21-9.77,22.33-10.18S551.67,604,551.67,604C545.23,601.57,534.06,594.84,532.9,589.27Z" transform="translate(-440.6 -438.74)"/><path class="cls-5" d="M487.48,619l0,0Z" transform="translate(-440.6 -438.74)"/><path class="cls-5" d="M499.72,562.2c-2.57.13-11.07,5.45-16.27,5.45s-13.54-3.82-13.54-3.82c1.42,1.84,9.06,4.36,11.18,5.95s4.77,7.68,5.08,11.52,4.91,16.93,4.91,16.93-1.36-7.57-2.77-13.06-3.3-13.12-1.14-15.44S499.72,562.2,499.72,562.2Z" transform="translate(-440.6 -438.74)"/><path class="cls-6" d="M497,602.14c-3.87,1.88-11.16,6.26-14.72,2.05s-7.33-22.37-13-20.89,2.26,15.32,3.25,18.87,1.39,9.9,6.42,13.85c2.77,2.19,10.79-4,15.26-5.35s9.9-3.74,11.37-7.63S500.82,600.27,497,602.14Z" transform="translate(-440.6 -438.74)"/><path class="cls-6" d="M506.22,592.92c-5.9-3.13-10.62,2.17-4.61,4.73C506.93,599.92,512.12,596.05,506.22,592.92Z" transform="translate(-440.6 -438.74)"/><path class="cls-6" d="M512.86,544.09c-2.08-3.69-13-.89-17.43.92s-17.55,8.23-16.52,9.67,11.29-1.87,14-4.39,12.59-4.15,16.52-.34,12.36,30.74,13.47,37.37-4.8,11-4.2,13.94,8.23-.79,8.5-7.14-4.91-20.88-7.37-26.51S514.93,547.77,512.86,544.09Z" transform="translate(-440.6 -438.74)"/><path class="cls-6" d="M534.61,579.08c-.81,1.08,1.91,10.22,4.24,14.34S551.29,601,552,599.71s-2-7.29-3.34-9.74S535.41,578,534.61,579.08Z" transform="translate(-440.6 -438.74)"/><path class="cls-6" d="M547.15,605.57c-3.12-2.28-13.95,2-14.8,3.12s-9.71,8.46-12.82,9.95c-6,2.89-15.71,2.66-17.65,1.52s-11.09-2.86-13.34,1.93c-1.91,4,5.21,1.45,8.16,2.49s11.36,1.21,16.44.2,23.2-11,27.89-12.38S550.27,607.86,547.15,605.57Z" transform="translate(-440.6 -438.74)"/><path class="cls-7" d="M533.73,552.87c.3-2.45-3.05-5.43-5-5s.17,4.88,1.71,10,8.17,14.28,8.17,14.28c.88,1.24,2.29-.8.81-3.14S533.43,555.31,533.73,552.87Z" transform="translate(-440.6 -438.74)"/><path class="cls-8" d="M553.37,593.84a28.84,28.84,0,0,0-2.66-5.62c-.52-.87-1.05-1.74-1.56-2.62-.27-.43-.5-.88-.74-1.32l-.72-1.33c-.25-.44-.46-.9-.68-1.35l-.64-1.36c-.2-.45-.38-.91-.57-1.37s-.39-.91-.54-1.38c-.69-1.84-1.15-3.73-1.66-5.62-.06-.24-.12-.47-.19-.71s-.11-.44-.17-.67c-.1-.46-.19-.93-.29-1.39-.18-.93-.35-1.86-.53-2.77-.34-1.83-.67-3.62-1-5.34a73.51,73.51,0,0,0-2.41-9.46,16.29,16.29,0,0,0-.83-2,5.31,5.31,0,0,0-1.21-1.73l-.22-.16-.21-.12-.42-.23-.78-.44-1.49-.83-2.57-1.33-1.92-1-1.63-.8,2.89,1.71,2.86,1.73c.95.58,1.87,1.19,2.81,1.78a2.82,2.82,0,0,1,.89,1.12,11.23,11.23,0,0,1,.62,1.46,48.54,48.54,0,0,1,1.6,6.25c.42,2.11.79,4.2,1.14,6.26s.68,4.1,1.06,6.1c.09.5.19,1,.31,1.5.05.24.11.5.18.75l.18.71c.25,1,.5,1.9.77,2.84a39.2,39.2,0,0,0,2,5.34c.39.83.8,1.63,1.19,2.42s.87,1.53,1.28,2.26c.1.19.21.37.31.55s.23.35.33.53c.22.35.45.69.66,1,.44.68.88,1.36,1.27,2l.59.94c.21.31.35.63.53.94s.35.62.5.93.29.62.43.92a28.4,28.4,0,0,1,2.14,6.62,27.86,27.86,0,0,1,.52,4.47c0,1,0,1.6,0,1.6a19.84,19.84,0,0,0,.2-2.91,24.81,24.81,0,0,0-.19-3A26.54,26.54,0,0,0,553.37,593.84Z" transform="translate(-440.6 -438.74)"/><path class="cls-8" d="M511.07,628.11a30.14,30.14,0,0,1-3.59.95,9.26,9.26,0,0,1-1.79.2l-.42,0-.46-.06-.93-.14c-.62-.09-1.23-.22-1.85-.33s-1.23-.26-1.85-.39c-2.47-.54-4.93-1.16-7.41-1.72-.62-.14-1.25-.26-1.89-.39S489.6,626,489,626c-1.25-.15-2.47-.31-3.67-.53a27.66,27.66,0,0,1-6.85-2.08,14.69,14.69,0,0,1-5.33-4.09,22.67,22.67,0,0,1-1.76-2.79c-.26-.49-.52-1-.77-1.47s-.49-1-.73-1.46c-1.88-3.9-3.46-7.64-4.86-11s-2.6-6.33-3.58-8.81c-2-5-3.11-7.92-3.11-7.92,1.66,5.3,3.46,10.56,5.34,15.7.95,2.57,1.92,5.1,2.94,7.59s2.07,4.92,3.26,7.27l.44.88.49.86.49.86c.19.28.37.57.57.84a14.13,14.13,0,0,0,2.78,2.84,20.33,20.33,0,0,0,6.8,3.31,41.12,41.12,0,0,0,6.94,1.29l1.65.18.78.1.79.15c1.05.2,2.09.42,3.1.64,2,.43,4,.85,5.88,1.19.93.18,1.85.32,2.74.45.45.07.91.11,1.35.16.23,0,.42,0,.67,0a5.43,5.43,0,0,0,.7,0,14.33,14.33,0,0,0,2.48-.49c.77-.22,1.5-.46,2.19-.71,1.39-.5,2.64-1,3.76-1.5,2.23-1,3.95-1.82,5.11-2.41s1.77-.92,1.77-.92q-3.3,1.44-6.76,2.75C513.43,627.32,512.26,627.73,511.07,628.11Z" transform="translate(-440.6 -438.74)"/></svg>