<svg id="Layer_2" data-name="Layer 2" xmlns="http://www.w3.org/2000/svg" viewBox="0 0 154.95 238.56"><defs><style>.cls-1{fill:#ff4f57;}.cls-2{fill:#f3f4f9;}.cls-3{fill:#dae0f7;}.cls-4{fill:#e8313f;}.cls-5{fill:#fff;}.cls-6{fill:#e8ebf7;}.cls-7{fill:#91d0b5;}.cls-8{fill:#6bc19a;}.cls-9{fill:#f9e3a2;}</style></defs><title>jamIcon</title><rect class="cls-1" x="21.9" width="111.16" height="30.8" rx="5.73"/><path class="cls-2" d="M839,528H750.53c-31.92-.74-33.44-34.85-33.23-44.49,0-1.59.12-2.51.12-2.51V380c.1-45.82,29.58-49.35,29.58-49.35l.11-10.39h95.3l.1,10.39S872,334.22,872.1,380V481s.09.92.12,2.51C872.43,493.15,870.9,527.26,839,528Z" transform="translate(-717.29 -289.44)"/><polygon class="cls-3" points="125.17 35.07 125.13 30.86 29.82 30.86 29.78 35.07 125.17 35.07"/><path class="cls-1" d="M750.65,518.41c-9.79-.25-16.15-4.45-20-13.19-3.63-8.21-3.83-17.77-3.75-21.5,0-1.1.07-1.78.08-1.89l0-.44V380c0-15.36,3.8-27.13,10.89-34a21.43,21.43,0,0,1,10.33-5.82l8.63-.72-.26-8.7v-.89h76.32l.09,9.63,8.29.68A21.47,21.47,0,0,1,851.63,346c7.08,6.89,10.85,18.66,10.89,34V481.45l0,.38c0,.11.06.79.09,1.89.08,3.73-.13,13.29-3.76,21.5-3.87,8.74-10.23,12.94-20,13.19Z" transform="translate(-717.29 -289.44)"/><path class="cls-4" d="M858.88,505.22c-2.3,5.2-5.48,8.79-9.74,10.9.64-59.46.64-125.1.64-125.1,0-15.39-3.8-27.15-10.89-34a21.37,21.37,0,0,0-10.33-5.82l-8.29-.68-.06-20.59h12.71l.09,9.63,8.29.68A21.42,21.42,0,0,1,851.62,346c7.09,6.89,10.86,18.66,10.9,34V481.45l0,.38c0,.11.06.79.09,1.89C862.72,487.45,862.51,497,858.88,505.22Z" transform="translate(-717.29 -289.44)"/><path class="cls-5" d="M872.22,479.13H717.3c0-1.59.12-2.52.12-2.52V379.28H872.1v97.33S872.19,477.54,872.22,479.13Z" transform="translate(-717.29 -289.44)"/><path class="cls-6" d="M722.67,479.13H717.3V379.28h5.36v97.33S722.67,477.54,722.67,479.13Z" transform="translate(-717.29 -289.44)"/><path class="cls-6" d="M872.22,479.13h-5.36V379.28h5.36v99.85Z" transform="translate(-717.29 -289.44)"/><path class="cls-1" d="M818.34,405.68H771S757.21,417,763.5,431.74c3.69,8.65,13.79,23.65,21.5,34.56a11.84,11.84,0,0,0,19.33,0c7.71-10.91,17.81-25.91,21.5-34.56C832.12,417,818.34,405.68,818.34,405.68Z" transform="translate(-717.29 -289.44)"/><path class="cls-7" d="M830.84,408c-.05-8.55-13-13.92-13-13.92,1.28-1.6,10.85-2.17,10.85-2.17-14-7.21-32.34,0-32.34,0s-18.39-7.21-32.35,0c0,0,9.57.57,10.85,2.17,0,0-13,5.37-13,13.92,0,0,12.75,3.53,20.24,0,0,0-7.25,7.35-7.49,12.18,0,0,18.1-2.9,21.74-8.7,3.63,5.8,21.73,8.7,21.73,8.7-.24-4.83-7.49-12.18-7.49-12.18C818.08,411.53,830.84,408,830.84,408Z" transform="translate(-717.29 -289.44)"/><path class="cls-4" d="M818.34,405.68h-22v65.5a11.69,11.69,0,0,0,8-4.88c7.71-10.91,17.81-25.91,21.5-34.56C832.12,417,818.34,405.68,818.34,405.68Z" transform="translate(-717.29 -289.44)"/><path class="cls-8" d="M830.84,408c-.05-8.55-13-13.92-13-13.92,1.28-1.6,10.85-2.17,10.85-2.17-13.79-7.12-31.9-.17-32.33,0V411.5c3.65,5.78,21.72,8.68,21.72,8.68-.24-4.83-7.49-12.18-7.49-12.18C818.08,411.53,830.84,408,830.84,408Z" transform="translate(-717.29 -289.44)"/><path class="cls-9" d="M768.73,428.62c-.53-1.88,0-3.67,1.14-4s2.54.92,3.07,2.8-1.14,4-1.14,4S769.26,430.49,768.73,428.62Z" transform="translate(-717.29 -289.44)"/><path class="cls-9" d="M781,438.12c-.53-1.88,0-3.67,1.14-4s2.54.92,3.07,2.8-1.14,4-1.14,4S781.56,440,781,438.12Z" transform="translate(-717.29 -289.44)"/><path class="cls-9" d="M791.18,463.81c-.53-1.88,0-3.67,1.14-4s2.54.93,3.07,2.8-1.14,4-1.14,4S791.71,465.69,791.18,463.81Z" transform="translate(-717.29 -289.44)"/><path class="cls-9" d="M808.49,444.08c.89-1.74,2.48-2.7,3.56-2.15s1.23,2.41.33,4.15-3.56,2.14-3.56,2.14S807.6,445.81,808.49,444.08Z" transform="translate(-717.29 -289.44)"/><path class="cls-9" d="M802.32,455.73c.89-1.74,2.48-2.7,3.56-2.15s1.23,2.41.33,4.15-3.56,2.14-3.56,2.14S801.43,457.46,802.32,455.73Z" transform="translate(-717.29 -289.44)"/><path class="cls-9" d="M781.9,453.71c-.81-1.77-.57-3.62.53-4.12s2.65.54,3.46,2.31-.54,4.13-.54,4.13S782.71,455.49,781.9,453.71Z" transform="translate(-717.29 -289.44)"/><path class="cls-9" d="M815,427.29c.89-1.74,2.48-2.7,3.56-2.14s1.22,2.4.33,4.14-3.56,2.14-3.56,2.14S814.06,429,815,427.29Z" transform="translate(-717.29 -289.44)"/><path class="cls-9" d="M794.16,426.84c.1-1.95,1.17-3.47,2.37-3.41s2.11,1.7,2,3.64-2.37,3.42-2.37,3.42S794.06,428.79,794.16,426.84Z" transform="translate(-717.29 -289.44)"/><path class="cls-9" d="M795.68,443.65c.1-1.95,1.17-3.47,2.37-3.41s2.11,1.7,2,3.64-2.37,3.42-2.37,3.42S795.57,445.6,795.68,443.65Z" transform="translate(-717.29 -289.44)"/></svg>