<svg id="Layer_2" data-name="Layer 2" xmlns="http://www.w3.org/2000/svg" viewBox="0 0 260.95 144.77"><defs><style>.cls-1{fill:#f0515b;}.cls-2{fill:#f68c54;}.cls-3{fill:#c3211c;}.cls-4{fill:#fff;}</style></defs><title>meatIcon</title><path class="cls-1" d="M685.84,378.12c-7.63-21-43-56.53-115.24-29.9-36.51,13.46-83.71,48.92-102.19,46.21s-37.5,10.87-39.14,28.8,43.49,7.61,69.58,16.86,88.6,14.13,132.09,2.17S694.53,402,685.84,378.12Z" transform="translate(-429.23 -338.71)"/><path class="cls-2" d="M619.79,374.09c-18.16-17.64-46,8.07-37.9,21S648,401.51,619.79,374.09Z" transform="translate(-429.23 -338.71)"/><path class="cls-3" d="M430.91,435.19s5.43,3.81,25,4.35,33.7,2.18,45.66,8.15,57.07,15.77,106.54,7.61S682,433,690.18,401c0,0,0,17.94-1.08,26.09s-33.16,49.46-97.3,55.44-90.23-16.85-106.54-17.39-46.74-10.33-51.09-11.42S428.19,440.09,430.91,435.19Z" transform="translate(-429.23 -338.71)"/><path class="cls-4" d="M439.76,428.13s-2-10.66,9.33-22,8.67-7.33,21.33-5.33,31.34-12,40-16.67-1.33,7.34-13.33,13.34-16,11.33-26,9.33-12.67-2-18.67,2S448.42,428.13,439.76,428.13Z" transform="translate(-429.23 -338.71)"/></svg>