<svg id="Layer_2" data-name="Layer 2" xmlns="http://www.w3.org/2000/svg" viewBox="0 0 1068.5 707.2"><defs><style>.cls-1{fill:#f7d18d;}.cls-2{fill:#fcdb9a;}.cls-3{fill:#d39c5b;}.cls-4{fill:#ffe8b5;}.cls-5{fill:#fcdea4;}.cls-6{fill:#f2bc81;}.cls-7{fill:#e8b174;}</style></defs><title>potatoesIcon</title><path class="cls-1" d="M2086.63,1001.83a413.94,413.94,0,0,1-55.16,22.24c-.22.16-.44.32-.67.47a9.38,9.38,0,0,1-5,1.57c-.2,0-.38,0-.57,0-56.79,18-122.16,28.88-174.88,32.78-73.32,5.44-152.06-40.73-214.52-81.46-31.88-20.79-65.36-50.81-89-86a8.21,8.21,0,0,1-4.43,1.62,5.08,5.08,0,0,1-2.15-.3A6.37,6.37,0,0,1,1540,894a4.75,4.75,0,0,1-5.26,3.95c-2.58.39-5-1.17-6.44-3.23a52.14,52.14,0,0,0-5.79-7.53,6.84,6.84,0,0,1,4.79-11.57l4.31-.06a12.34,12.34,0,0,1,5-.67l.18-.13a198,198,0,0,1-8.8-18,4.52,4.52,0,0,1-1.48-.28,6.19,6.19,0,0,1-3.49-2.81c-.08.06-.22-.2-.46-1,0-.1-.09-.19-.13-.3a3.49,3.49,0,0,1-.2-1,6.34,6.34,0,0,1-.09-1.44,47.73,47.73,0,0,1,.25-5.63,6,6,0,0,1,.35-1.54,151.17,151.17,0,0,1-6.39-27.61c-5.59,11.73-9,24-9.27,36.71-1.69,75.18,62.23,144.37,120.72,182.52,62.46,40.73,141.2,86.89,214.52,81.46s171.07-24.44,236.25-57c73.31-38,116.76-95,135.77-173.78a238.31,238.31,0,0,0,8.5-58.42c-.12.47-.23.92-.36,1.4C2203.4,906.79,2160,963.82,2086.63,1001.83Zm-530-71.18a7.1,7.1,0,0,1-3.78-1.08c-.61-.32-.62-.36,0-.12-.62-.22-1.23-.47-1.84-.75,1.29.54-.55,0-.83-.1a4.55,4.55,0,0,1-1.62-.73l-.87-.2c-4.54-1-4.55-8.2,0-9.17l1.28-.26c-1.5.31.69-.28,1.21-.47,1.37-.51,3.48-.12,4.83.24,2.83.74,6.19,2.9,6.72,6C1562.33,927.31,1560.35,930.63,1556.67,930.65Zm183.74,124.77c-6.08,0-6.08-9.43,0-9.43S1746.5,1055.42,1740.41,1055.42Zm88.24,34.87a4.56,4.56,0,0,1-4.14-2.72l-.4-.18c-.62-.18-1.26-.29-1.89-.41-3.67-.66-3.67-6.71,0-7.37.47-.09.94-.18,1.42-.24l.71-.1.33-.13a6.32,6.32,0,0,1,3.82.24c2.64,1.08,5,3.19,4.72,6.34A4.65,4.65,0,0,1,1828.65,1090.29Zm60.22,2.93c-2.31.91-4.76.32-7.1-.13-4.34-.83-4.34-7.9,0-8.73,2.34-.45,4.79-1,7.1-.13a4.66,4.66,0,0,1,0,9Zm61.39-7.81a6.86,6.86,0,0,1-2.67,1.64,6.67,6.67,0,0,1-4.87,2.14,6.79,6.79,0,0,1-5.82-3.34,8.07,8.07,0,0,1-1.1-5.17,7.13,7.13,0,0,1,.25-1.72,7.23,7.23,0,0,1,1.87-3.22l1.48-1.14a5,5,0,0,1,2-.82,8.29,8.29,0,0,1,2.62-.26c1.07.13,2.13.28,3.18.47a6.66,6.66,0,0,1,4.09,3.14,6.77,6.77,0,0,1,.93,3.45A6.9,6.9,0,0,1,1950.26,1085.41Zm114.4-37.94a5.44,5.44,0,0,1-1,1.43,5.87,5.87,0,0,1-8.3,0,6.24,6.24,0,0,1-1.72-4.15,7.14,7.14,0,0,1,3.31-7c2.24-1.24,4.35-.9,6.72-.46a5.45,5.45,0,0,1,4,5.26A5.67,5.67,0,0,1,2064.66,1047.47Zm101.07-77.73a6.41,6.41,0,0,1-.17,4,14.09,14.09,0,0,1-3.19,5.21,6.72,6.72,0,0,1-9.42,0c-2-2-2.78-5.68-1-8.08.26-.36,1.19-1.8,1.28-1.89l.21-.37a5.14,5.14,0,0,1,.92-1.37c.13-.32.25-.66.4-1a5.8,5.8,0,0,1,2.36-2.2,3.84,3.84,0,0,1,5.85.13,6.46,6.46,0,0,1,2.85,5.07C2165.84,969.82,2166.28,971.52,2165.73,969.74Z" transform="translate(-1154.3 -605.38)"/><path class="cls-1" d="M2065.22,1045.62l0,.25,0-.26Z" transform="translate(-1154.3 -605.38)"/><path class="cls-2" d="M1761.31,753.48c.8.11.8.11,0,0Z" transform="translate(-1154.3 -605.38)"/><path class="cls-2" d="M1760.61,753.23l.45.21,0,0C1760.9,753.34,1760.75,753.3,1760.61,753.23Z" transform="translate(-1154.3 -605.38)"/><path class="cls-2" d="M1761.13,753.46h0Z" transform="translate(-1154.3 -605.38)"/><path class="cls-2" d="M1759.73,745.27c-.48.4-.48.41,0,0Z" transform="translate(-1154.3 -605.38)"/><path class="cls-2" d="M1773.21,743.67h0C1773.71,744.23,1774.07,744.27,1773.21,743.67Z" transform="translate(-1154.3 -605.38)"/><path class="cls-2" d="M1745.94,880l-.34.36C1746.54,879.79,1746.77,879.16,1745.94,880Z" transform="translate(-1154.3 -605.38)"/><path class="cls-2" d="M1888,725.68c-.27-.2-.57-.39,0,0Z" transform="translate(-1154.3 -605.38)"/><path class="cls-2" d="M1800.28,949.31c0-.24.07-.43.09-.59v0C1800.33,948.93,1800.31,949.12,1800.28,949.31Z" transform="translate(-1154.3 -605.38)"/><path class="cls-2" d="M1667.13,689.75c.74-.61,1.41-1.19,0,0Z" transform="translate(-1154.3 -605.38)"/><path class="cls-2" d="M1617.33,921.21l.32.29.08,0Z" transform="translate(-1154.3 -605.38)"/><path class="cls-2" d="M1656.38,815.63Z" transform="translate(-1154.3 -605.38)"/><path class="cls-2" d="M1740,662.65c-.71-.35-1.07-.31-.31-.09Z" transform="translate(-1154.3 -605.38)"/><path class="cls-2" d="M1547.9,881.43c.31-1.14.12-.72,0,0Z" transform="translate(-1154.3 -605.38)"/><path class="cls-2" d="M1656.13,815.41c-.07-.08-.05-.07,0,0Z" transform="translate(-1154.3 -605.38)"/><path class="cls-2" d="M1701.76,686l-.25.2.26-.2Z" transform="translate(-1154.3 -605.38)"/><path class="cls-2" d="M1661.71,693.58c0-.09.06-.16.08-.25a.77.77,0,0,1-.07.16A.28.28,0,0,1,1661.71,693.58Z" transform="translate(-1154.3 -605.38)"/><path class="cls-2" d="M1935.41,963.09c.21,0,.45-.18,0,0Z" transform="translate(-1154.3 -605.38)"/><path class="cls-2" d="M1759.76,745.89h0l-.47.19,0,0Z" transform="translate(-1154.3 -605.38)"/><path class="cls-2" d="M2152.35,737.4l0,0C2152.93,738.16,2152.93,738.16,2152.35,737.4Z" transform="translate(-1154.3 -605.38)"/><path class="cls-2" d="M2152.83,739.05c0,.45.13.36,0-.11A.52.52,0,0,1,2152.83,739.05Z" transform="translate(-1154.3 -605.38)"/><path class="cls-2" d="M1971.87,634.89l-.06,0C1971.46,634.7,1971.5,634.72,1971.87,634.89Z" transform="translate(-1154.3 -605.38)"/><path class="cls-2" d="M1971.87,624.74c-.37.18-.41.19-.06,0Z" transform="translate(-1154.3 -605.38)"/><path class="cls-2" d="M2101.33,873.42a1.8,1.8,0,0,1,.2-.19l-.09,0A1.34,1.34,0,0,0,2101.33,873.42Z" transform="translate(-1154.3 -605.38)"/><path class="cls-2" d="M2200.68,695c-19-89.61-97.76-89.61-179.22-89.61s-160.21,0-239,21.72c-55.77,13.95-111.68,47-157.28,80.79-34.91,25.82-87.76,62.73-109,107.3a151.17,151.17,0,0,0,6.39,27.61l.09-.25a13.44,13.44,0,0,1,.27-1.38c-.12,1.05-.13,1.2,0,.45a7.06,7.06,0,0,1,7-7c4,0,6.32,3,6.91,6.57,0-.1,0,0,.16.5a7,7,0,0,1,.23,2.53,22.91,22.91,0,0,1-.35,3.78,14.29,14.29,0,0,1-1,3.58,3.4,3.4,0,0,1-.12.48A10.9,10.9,0,0,1,1535,854a5.72,5.72,0,0,1-6.16,2.72,5.56,5.56,0,0,1-.91.05,198,198,0,0,0,8.8,18,7.7,7.7,0,0,1,7.74-.44c3.14,1.52,3.26,4.82,4.1,7.67.75,2.57,1.41,5.11-.07,7.62a6.71,6.71,0,0,1-1.57,1.83c23.6,35.18,57.08,65.2,89,86,62.46,40.73,141.2,86.9,214.52,81.46,52.72-3.9,118.09-14.83,174.88-32.78a9.83,9.83,0,0,1-4-1.08c-2.88-1.41-3.9-5.2-3.1-8.12a9.91,9.91,0,0,1,1-2.45,15.28,15.28,0,0,1,1.53-1.95c.49-.6,1.12-1.09,1.59-1.7l-.15.19a7.8,7.8,0,0,1,3.73-2.32,8,8,0,0,1,9.82,9.82,10.17,10.17,0,0,1-4.18,5.61,413.94,413.94,0,0,0,55.16-22.24c73.32-38,116.77-95,135.77-173.78.13-.48.24-.93.36-1.4C2223.55,783.45,2212.12,744.57,2200.68,695ZM1559.84,870.58c-9.34,0-9.34-14.47,0-14.47S1569.17,870.58,1559.84,870.58Zm373.37-208c3.21.24,6.92,2.7,7.1,6.16a3.48,3.48,0,0,1-3.48,3.48c-1.69-.05-2.6-.83-3.85-1.82.63.5.11.12-.2-.08a3.88,3.88,0,0,1,.43-7.74ZM1787.94,891c0-.63,0-1.25,0-1.88a4,4,0,1,1,8.09,0l0,2.19a6.38,6.38,0,0,1-.8,3.17,3.81,3.81,0,0,1-6.55,0,5.42,5.42,0,0,1-.8-2.54C1787.93,891.65,1787.93,891.33,1787.94,891Zm-82.83-116.64c-6.08,0-6.08-9.43,0-9.43S1711.19,774.38,1705.11,774.38Zm-95-12.15c6.08,0,6.08,9.43,0,9.43S1604,762.23,1610.07,762.23Zm-.89,93.06a6.25,6.25,0,0,1,.78-2.14l.17-.23a5.87,5.87,0,0,1,1-1.59v0c1.56-3.3,7.17-3.3,8.72,0l.05.1a6.38,6.38,0,0,1,.95,1.5l.19.26c.22.51.43,1,.65,1.54,0,.2.09.4.13.6.67,3,.38,5.94-1.78,8.3a6.45,6.45,0,0,1-9.09,0C1608.79,861.23,1608.51,858.26,1609.18,855.29Zm29.59,61a6.85,6.85,0,0,1-5,6.56,13.56,13.56,0,0,1-2.22,4c-2.39,3-7.53,2.72-10.24.19h-.09c-3.45-.13-7-2.55-7.69-6.13a23.19,23.19,0,0,1,.16-8c.43-2.87,2.73-4.49,5.29-5.1a7.31,7.31,0,0,1,2.7-1.43,7.45,7.45,0,0,1,2.38-.23,8.49,8.49,0,0,1,5.58-.87,8.29,8.29,0,0,1,3.63,1.73,5.65,5.65,0,0,1,3.41,1.75C1638.7,910.89,1638.8,913.56,1638.77,916.3Zm18.54-93.15a5.59,5.59,0,0,1-2.5.61h-.21l-.31,0a2.81,2.81,0,0,1-1.31-.14,6.39,6.39,0,0,1-3.08-1.72,9.07,9.07,0,0,1-2.12-6.12,4.38,4.38,0,1,1,8.76,0v0l0,.09a1.55,1.55,0,0,0,.21.23l-.1-.07.33.25a4.56,4.56,0,0,1,1.07.79C1659.83,818.65,1659.47,822.17,1657.31,823.15Zm12,59.2a5.21,5.21,0,0,1-3.56,3.55,4.44,4.44,0,0,1-2.7,0,5.09,5.09,0,1,1,6.26-3.55Zm-1.82-175.65a7.07,7.07,0,0,1-5-.66,8.64,8.64,0,0,1-4.28-3.6,7.66,7.66,0,0,1,1.15-8.88,10.51,10.51,0,0,1,3.38-2.33,6.74,6.74,0,0,1,5.75-3.18,6.65,6.65,0,0,1,1.89.28,4.73,4.73,0,0,1,.54,0,5.71,5.71,0,0,1,4,1.65h0a5.73,5.73,0,0,1,.88,6.82,77.23,77.23,0,0,1-4.38,7A6.77,6.77,0,0,1,1667.47,706.7Zm12.91,11.16-1.28.28-.93.21a4.78,4.78,0,0,1-5.21-2.11,4.32,4.32,0,0,1,0-4.49,4.8,4.8,0,0,1,5.31-2.08l.83.18,1.28.28C1684.22,711,1684.22,717,1680.38,717.86Zm13.67-29.45a6.36,6.36,0,0,1-1.78-4.28,5.27,5.27,0,0,1,.92-3.29,5.79,5.79,0,0,1,1.65-2.77c1.61-1.34,3.72-2.29,5.83-1.43l-1.33-.18a19.94,19.94,0,0,1,2.91.55,4.54,4.54,0,0,1,2.07,7.55,6,6,0,0,1-10.27,3.85Zm26,299.82a4.4,4.4,0,0,1-.67.54,7,7,0,0,1-1.56,5.3c-.34,3.81-2.82,7.08-7.25,7.08-4.11,0-6.87-3.11-7.39-6.92l0-.05c0,.53-.08.21-.21-.33a6.81,6.81,0,0,1-.73-1.64l-.3-.4-.33-.48a6.84,6.84,0,0,1-.9-2.45,8.53,8.53,0,0,1,.23-4.47,18.58,18.58,0,0,1-.47-7v0h0c.07-.64.15-1.3.26-2,.66-4,5.56-6.18,9.14-5.19a7.25,7.25,0,0,1,4.7,4,5,5,0,0,1,3,1.62,13.9,13.9,0,0,1,2.08,3.08c.08.19,1,1.81.45,1.17C1722,982.56,1722.4,985.85,1720,988.23Zm6.45-316.58c-.12-.16-.22-.33-.33-.51l-.18-.32a6.68,6.68,0,0,1-.37-.87c0-.14-.1-.29-.14-.43s-.09-.34-.12-.52a5.74,5.74,0,0,1-.12-1.17,5.64,5.64,0,0,1,.12-1.16c0-.18.08-.35.12-.52s.09-.29.14-.43a6.27,6.27,0,0,1,.37-.88l.18-.31c.11-.18.21-.35.33-.52a6.27,6.27,0,0,1,5.18-2.77,7.28,7.28,0,0,1,4.72.34,15.73,15.73,0,0,1,2.25.41,6,6,0,0,1,1.62.74l.21.06a5.27,5.27,0,0,1,0,10.09l-.2.06a5.85,5.85,0,0,1-1.63.73,15.64,15.64,0,0,1-2.32.45,7.2,7.2,0,0,1-4.65.3A6.22,6.22,0,0,1,1726.47,671.65Zm25.89,200.89c-.87,2.78-2.57,4.94-4.21,7.32a6,6,0,0,1-6.57,2.67l-.17-.07a4.31,4.31,0,0,1-3-.55,4.7,4.7,0,0,1-2.36-4.11c.21-2.92.9-6.07,3.67-7.69a6.18,6.18,0,0,1,4.11-.69,16.22,16.22,0,0,1,3.67-1.72A4,4,0,0,1,1752.36,872.54Zm21.41-118.22a7.18,7.18,0,0,1-6.29,2,6,6,0,0,1-1.27.16,6,6,0,0,1-5-2.89l-.09-.16-.34-.05a4.43,4.43,0,0,1-2-1.25,3.51,3.51,0,0,1-1.47-2.85,3.31,3.31,0,0,1,.66-2,4.86,4.86,0,0,1,1.85-2,6.49,6.49,0,0,1,4.76-6.25,6.15,6.15,0,0,1,4.89.67,8,8,0,0,1,4.41,3.31C1776.1,746.39,1776.81,751,1773.77,754.32Zm27.08,193.34c-.13.33-.27.63-.42.93,0,.52-.14,1.34-.16,1.65a7.12,7.12,0,0,1-3.42,6,6.26,6.26,0,0,1-3.41.86,6.05,6.05,0,0,1-4.15,1.74,5.92,5.92,0,0,1-5.64-4.29c-.55-1.79-1.08-3.57-1.72-5.33a6.12,6.12,0,0,1,1.6-6.06,6.69,6.69,0,0,1,4.41-1.83c.19,0,.38,0,.58,0a5.7,5.7,0,0,1,2-1.47c2.88-1.29,6.21-1.32,8.52,1.11C1800.61,942.57,1801.73,945.38,1800.85,947.66Zm47.3-84.13a6.81,6.81,0,0,1-5.92,3.4,6.26,6.26,0,0,1-3.71-1.17,5.43,5.43,0,0,1-4.52-2.47,33.28,33.28,0,0,0-4-5.34c-3.42-3.22-1.17-9.64,3.48-9.91a7.32,7.32,0,0,1,4.27-3.44,6.87,6.87,0,0,1,7.64,3.11C1848.17,852.31,1850.78,858.35,1848.15,863.53Zm2.24-143.95a5.9,5.9,0,0,1-5-8.79c.14-.26.25-.54.38-.81a4.49,4.49,0,0,1,1.56-1.76,4.43,4.43,0,0,1,6.19,0,4.79,4.79,0,0,1,1.62,1.89,7.5,7.5,0,0,0,.33.7A5.9,5.9,0,0,1,1850.39,719.58Zm14.17-47a5.56,5.56,0,0,1-5.18,1.37,8,8,0,0,1-2.07-.78l1.33.56c-.51-.2-1-.43-1.5-.64a10.72,10.72,0,0,1-1.5-.63,5,5,0,0,1-.67-.47l-.15-.09a4.71,4.71,0,0,1,0-8.08l.26-.13a6.64,6.64,0,0,1,3.45-1.12,5.55,5.55,0,0,1,2.4.14,7.19,7.19,0,0,1,4.46,3.42A5.44,5.44,0,0,1,1864.56,672.55ZM1883,699.3a4.31,4.31,0,0,1,2.93-2.93,5.68,5.68,0,0,1,4.9.75,6.34,6.34,0,0,1,2,2l.31.49a4.43,4.43,0,0,1,.77,1.73,6.72,6.72,0,0,1,0,2.68,4.55,4.55,0,0,1-4.46,3.39,5.73,5.73,0,0,1-4.86-3,6.2,6.2,0,0,1-.42-.86A4.47,4.47,0,0,1,1883,699.3Zm10.43,26.51a3.79,3.79,0,0,1-5.17.1,3.78,3.78,0,0,1,.15-7.55,5.64,5.64,0,0,1,3.2.59,6.64,6.64,0,0,1,1.82,1.56A3.8,3.8,0,0,1,1893.43,725.81Zm12.63,57.7c-5.61,0-5.61-8.69,0-8.69S1911.66,783.51,1906.06,783.51Zm2.71-69.78c-3.16,0-3.16-4.9,0-4.9S1911.93,713.73,1908.77,713.73Zm34.59,250.73c-1.68,1.68-5.1,2-6.72,0a8.62,8.62,0,0,0-1.19-1.3c.18.14,0,.07-.2,0l-.11,0a5.27,5.27,0,0,0-.69.51c-3.61,3-8.47-1.66-5.2-5.2,3.59-3.88,8.78-4.61,13.15-1.5C1944.86,958.75,1945.67,962.15,1943.36,964.46Zm10.21-25.73c-6.17,0-6.17-9.57,0-9.57S1959.75,938.73,1953.57,938.73ZM1974,969.11a5.28,5.28,0,0,1-4.24-.61,4.62,4.62,0,0,1-2.18-.66l-.07-.06-.08,0-1.33-.26c-3.67-.71-3.67-6.65,0-7.37l1.41-.28.07-.06a4.62,4.62,0,0,1,2.18-.66,5.28,5.28,0,0,1,4.24-.61,5.49,5.49,0,0,1,0,10.59Zm-.27-333.57-.36-.06a3.73,3.73,0,0,1-1-.32l-1.2-.26c-5-1.1-5-9.06,0-10.17l1.2-.26a3.41,3.41,0,0,1,1-.31l.34-.06c2.1-1.72,5.62-1.66,7.82-.37a7.05,7.05,0,0,1-1.68,12.89A7.36,7.36,0,0,1,1973.77,635.54Zm21.6,314.7a6.8,6.8,0,0,1-.31,2.25c.14-.17.27-.34.4-.52,0,.08,0,.17,0,.25-1.18,6.14-10.5,7.1-13.51,2.33a6.65,6.65,0,0,1,0-8.63c3-4.76,12.33-3.8,13.51,2.34,0,.08,0,.16,0,.25-.13-.18-.26-.35-.4-.52A6.77,6.77,0,0,1,1995.37,950.24ZM2015.73,720a6.28,6.28,0,0,1-4-3c-.23-.47-.43-1-.63-1.46l-.13-.28-.42-.95c-.45-1-.62-2-1-3a4.29,4.29,0,0,1-.4-1.9v0a4.36,4.36,0,0,1,2.05-4.58,4.11,4.11,0,0,1,3.37-.35,3.69,3.69,0,0,1,.91.15,6.2,6.2,0,0,1,2.38,1.42l0,0a10.94,10.94,0,0,1,1.66,1.28l.71.73.16.17a6.73,6.73,0,0,1,3,4.07A6.31,6.31,0,0,1,2015.73,720ZM2126,683c.7-4.06,7.45-4,8.16,0a23,23,0,0,1,.25,3.41c0,.39-.16,3-.08,1.44a6.72,6.72,0,0,1-.35,1.89,3.24,3.24,0,0,1-3.89,2.21,5.74,5.74,0,0,1-3.91-4.14c-.13-.53-.23-1.07-.31-1.61A9.55,9.55,0,0,1,2126,683Zm-24.15,189.76.44-.19a4.78,4.78,0,0,1,1.63-.8,5.85,5.85,0,0,1,3.08,0,6.31,6.31,0,0,1,3.77,2.93,5.4,5.4,0,0,1-.84,6.51c-1.22,1.23-3.51,2.09-5.23,1.38l-.33-.12a5.55,5.55,0,0,1-1.46-.67l.06,0c-.43-.32-.73-.43-1.16-.8a4.76,4.76,0,0,1-2.35-4.15A4.71,4.71,0,0,1,2101.85,872.76Zm-20.54-203.15c2.22-2.21,6.53-3.21,9.23-1.19a10,10,0,0,1,3.38,3.52,10.6,10.6,0,0,1,1.24,4.73,11,11,0,0,1-3.4,7.63,6.92,6.92,0,0,1-11.71-4.85c0-.22,0-.44,0-.65a8.35,8.35,0,0,1-1-3.81A7.64,7.64,0,0,1,2081.31,669.61Zm-35.41,2.92c-3.2-.31-6.13-1.67-9.18-2.65a5.37,5.37,0,0,1-3.2,1.36,4.56,4.56,0,0,1-2.5-.81l-1.08-.84-.07-.08c-3,.1-4.92-4.21-1.82-5.69a6.22,6.22,0,0,1,3.43-.72A4.51,4.51,0,0,1,2035,661a89.46,89.46,0,0,1,10.86-.54C2053.81,660.37,2053.56,673.27,2045.9,672.53Zm16.41,31.85a3.68,3.68,0,1,1,5.2-5.2c.07.07.53.44.41.36l.56.4a18.18,18.18,0,0,1,1.89,1.37c1.22,1.08,2.48,2.39,2.44,4.15a2.92,2.92,0,0,1-2.12,2.79C2067.73,708.88,2064.31,706.34,2062.31,704.38Zm34.94,77.5c-.51,3.86-2.13,6.19-5.8,7.62a24.66,24.66,0,0,1-6.28,1.47c2.49,4.51-4.57,8.25-7.71,4a17.81,17.81,0,0,1-2.12-3.84c-.27-.38-.55-.75-.86-1.13a4,4,0,0,1-1-2.44,8.39,8.39,0,0,1-2-5.86,6.21,6.21,0,0,1-.61-6.68c0-.08-.08-.16-.13-.24-3-4.6.93-11.33,6.37-11.1.64,0,1.26.09,1.87.17a8.13,8.13,0,0,1,11.69-.92,9.15,9.15,0,0,0,3.44,2c3.11.55,6,4.34,5.71,7.5a28.74,28.74,0,0,1-1.25,5.82c-.32,1-.65,2-1,3C2097.54,781.57,2096.91,784.44,2097.25,781.88Zm6.5,131.89-.24-.08a4.31,4.31,0,0,1-2.22-1.14,9.19,9.19,0,0,1-.75-.65,7.1,7.1,0,0,1-2.12-5.31,8.07,8.07,0,0,1,2.26-5.9,8.93,8.93,0,0,1,2.18-1.79,8.19,8.19,0,0,1,6.08-.8,7.93,7.93,0,0,1,5.5,5.51,8,8,0,0,1,0,4.2c-.28,1.91-2,3.78-3.62,4.71l0,0a7.69,7.69,0,0,1-4.56,1.52l-.51,0A7.39,7.39,0,0,1,2103.75,913.77Zm14.38,28.83a4.35,4.35,0,1,1-8.69,0l-.15-1.87c-.19-2.44,2.2-4.49,4.5-4.49s4.68,2,4.49,4.49Zm16.13-47.92c-.17,1.32-.27,2.52-1.28,3.52a4.06,4.06,0,0,1-6.44-.83,7.57,7.57,0,0,1-.69-3,14.48,14.48,0,0,1,.43-3.55c.26-1.7,2.2-2.89,3.8-2.89s3.53,1.19,3.79,2.89A14.15,14.15,0,0,1,2134.26,894.68Zm-1.63-23.92c-3.67,0-6.33-2.43-7.52-5.73a20.13,20.13,0,0,1-1.07-8.47h0a7,7,0,0,1,2.15-5.25,7.48,7.48,0,0,1,7.2-1.9c2.29.63,4.77,2.7,5.17,5.17a16.47,16.47,0,0,0,1,3.37,14.91,14.91,0,0,1,.88,5A7.86,7.86,0,0,1,2132.63,870.76Zm19.72-128.59a4,4,0,0,1-5.68,0,4.41,4.41,0,0,1-1.27-2.76,4.05,4.05,0,0,1,1-3.72,3.88,3.88,0,0,1,2.71-1.12,3.84,3.84,0,0,1,2.7,1.12,3.72,3.72,0,0,1,1.11,2.56A3.3,3.3,0,0,1,2152.35,742.17Zm37.47,150.89c-6.8,0-6.8-10.55,0-10.55S2196.62,893.06,2189.82,893.06ZM2209.54,783c-.47,1.72-2.33,3.45-4.24,3.23a6.91,6.91,0,0,1-6-4.64,13.82,13.82,0,0,1-.53-5.09,4.65,4.65,0,0,1,9.29,0c0,.5,0,1,0,1.49l0,.44A4.46,4.46,0,0,1,2209.54,783Z" transform="translate(-1154.3 -605.38)"/><path class="cls-3" d="M1719.57,979a13.9,13.9,0,0,0-2.08-3.08,5,5,0,0,0-3-1.62,7.25,7.25,0,0,0-4.7-4c-3.58-1-8.48,1.19-9.14,5.19-.11.67-.19,1.33-.26,2h0v0a18.58,18.58,0,0,0,.47,7,8.53,8.53,0,0,0-.23,4.47,6.84,6.84,0,0,0,.9,2.45l.33.48.3.4a6.81,6.81,0,0,0,.73,1.64c.13.54.23.86.21.33l0,.05c.52,3.81,3.28,6.92,7.39,6.92,4.43,0,6.91-3.27,7.25-7.08a7,7,0,0,0,1.56-5.3,4.4,4.4,0,0,0,.67-.54c2.38-2.38,2-5.67,0-8.1C1720.54,980.77,1719.65,979.15,1719.57,979Z" transform="translate(-1154.3 -605.38)"/><path class="cls-3" d="M1790.5,939.79a5.7,5.7,0,0,0-2,1.47c-.2,0-.39,0-.58,0a6.69,6.69,0,0,0-4.41,1.83,6.12,6.12,0,0,0-1.6,6.06c.64,1.76,1.17,3.54,1.72,5.33a5.92,5.92,0,0,0,5.64,4.29,6.05,6.05,0,0,0,4.15-1.74,6.26,6.26,0,0,0,3.41-.86,7.12,7.12,0,0,0,3.42-6c0-.31.11-1.13.16-1.65.15-.3.29-.6.42-.93.88-2.28-.24-5.09-1.83-6.76C1796.71,938.47,1793.38,938.5,1790.5,939.79Zm9.78,9.52c0-.19,0-.38.08-.57v0C1800.35,948.88,1800.32,949.07,1800.28,949.31Z" transform="translate(-1154.3 -605.38)"/><path class="cls-3" d="M1837.73,844.6a7.32,7.32,0,0,0-4.27,3.44c-4.65.27-6.9,6.69-3.48,9.91a33.28,33.28,0,0,1,4,5.34,5.43,5.43,0,0,0,4.52,2.47,6.26,6.26,0,0,0,3.71,1.17,6.81,6.81,0,0,0,5.92-3.4c2.63-5.18,0-11.22-2.78-15.82A6.87,6.87,0,0,0,1837.73,844.6Z" transform="translate(-1154.3 -605.38)"/><path class="cls-3" d="M1747.51,867.7a16.22,16.22,0,0,0-3.67,1.72,6.18,6.18,0,0,0-4.11.69c-2.77,1.62-3.46,4.77-3.67,7.69a4.7,4.7,0,0,0,2.36,4.11,4.31,4.31,0,0,0,3,.55l.17.07a6,6,0,0,0,6.57-2.67c1.64-2.38,3.34-4.54,4.21-7.32A4,4,0,0,0,1747.51,867.7Zm-1.91,12.69.34-.36C1746.77,879.16,1746.54,879.79,1745.6,880.39Z" transform="translate(-1154.3 -605.38)"/><path class="cls-3" d="M1665.73,876.09a5.09,5.09,0,0,0-2.7,9.81,4.44,4.44,0,0,0,2.7,0,5.21,5.21,0,0,0,3.56-3.55A5.15,5.15,0,0,0,1665.73,876.09Z" transform="translate(-1154.3 -605.38)"/><path class="cls-3" d="M1633.26,907a8.29,8.29,0,0,0-3.63-1.73,8.49,8.49,0,0,0-5.58.87,7.45,7.45,0,0,0-2.38.23,7.31,7.31,0,0,0-2.7,1.43c-2.56.61-4.86,2.23-5.29,5.1a23.19,23.19,0,0,0-.16,8c.65,3.58,4.24,6,7.69,6.13h.09c2.71,2.53,7.85,2.77,10.24-.19a13.56,13.56,0,0,0,2.22-4,6.85,6.85,0,0,0,5-6.56c0-2.74-.07-5.41-2.1-7.51A5.65,5.65,0,0,0,1633.26,907Zm-15.93,14.17.4.31-.08,0Z" transform="translate(-1154.3 -605.38)"/><path class="cls-3" d="M1620.05,863.59c2.16-2.36,2.45-5.33,1.78-8.3,0-.2-.09-.4-.13-.6-.22-.51-.43-1-.65-1.54l-.19-.26a6.38,6.38,0,0,0-.95-1.5l-.05-.1c-1.55-3.3-7.16-3.3-8.72,0v0a5.87,5.87,0,0,0-1,1.59l-.17.23a6.25,6.25,0,0,0-.78,2.14c-.67,3-.39,5.94,1.78,8.3A6.45,6.45,0,0,0,1620.05,863.59Z" transform="translate(-1154.3 -605.38)"/><path class="cls-3" d="M1657,816.36l-.33-.25.1.07a1.55,1.55,0,0,1-.21-.23l0-.09v0a4.38,4.38,0,1,0-8.76,0,9.07,9.07,0,0,0,2.12,6.12,6.39,6.39,0,0,0,3.08,1.72,2.81,2.81,0,0,0,1.31.14l.31,0h.21a5.59,5.59,0,0,0,2.5-.61c2.16-1,2.52-4.5.77-6A4.56,4.56,0,0,0,1657,816.36Zm-.63-.73Zm-.25-.22c-.05-.07-.07-.08,0,0Z" transform="translate(-1154.3 -605.38)"/><path class="cls-3" d="M2099.84,772.38c.33-3.16-2.6-7-5.71-7.5a9.15,9.15,0,0,1-3.44-2,8.13,8.13,0,0,0-11.69.92c-.61-.08-1.23-.14-1.87-.17-5.44-.23-9.41,6.5-6.37,11.1,0,.08.09.16.13.24a6.21,6.21,0,0,0,.61,6.68,8.39,8.39,0,0,0,2,5.86,4,4,0,0,0,1,2.44c.31.38.59.75.86,1.13a17.81,17.81,0,0,0,2.12,3.84c3.14,4.29,10.2.55,7.71-4a24.66,24.66,0,0,0,6.28-1.47c3.67-1.43,5.29-3.76,5.8-7.62-.34,2.56.29-.31.39-.67.3-1,.63-2,1-3A28.74,28.74,0,0,0,2099.84,772.38Z" transform="translate(-1154.3 -605.38)"/><path class="cls-3" d="M2020.37,708.27l-.16-.17-.71-.73a10.94,10.94,0,0,0-1.66-1.28l0,0a6.2,6.2,0,0,0-2.38-1.42,3.69,3.69,0,0,0-.91-.15,4.11,4.11,0,0,0-3.37.35,4.36,4.36,0,0,0-2.05,4.58v0a4.29,4.29,0,0,0,.4,1.9c.39,1,.56,1.94,1,3l.42.95.13.28c.2.49.4,1,.63,1.46a6.38,6.38,0,0,0,11.72-4.67A6.73,6.73,0,0,0,2020.37,708.27Z" transform="translate(-1154.3 -605.38)"/><path class="cls-3" d="M2045.9,660.42A89.46,89.46,0,0,0,2035,661a4.51,4.51,0,0,0-3.56,2.14,6.22,6.22,0,0,0-3.43.72c-3.1,1.48-1.14,5.79,1.82,5.69l.07.08,1.08.84a4.56,4.56,0,0,0,2.5.81,5.37,5.37,0,0,0,3.2-1.36c3,1,6,2.34,9.18,2.65C2053.56,673.27,2053.81,660.37,2045.9,660.42Z" transform="translate(-1154.3 -605.38)"/><path class="cls-3" d="M2080.05,679.45a6.92,6.92,0,0,0,11.71,4.85,11,11,0,0,0,3.4-7.63,10.6,10.6,0,0,0-1.24-4.73,10,10,0,0,0-3.38-3.52c-2.7-2-7-1-9.23,1.19a7.64,7.64,0,0,0-2.23,5.38,8.35,8.35,0,0,0,1,3.81C2080.05,679,2080,679.23,2080.05,679.45Z" transform="translate(-1154.3 -605.38)"/><path class="cls-3" d="M2072.81,705.46c0-1.76-1.22-3.07-2.44-4.15a18.18,18.18,0,0,0-1.89-1.37l-.56-.4c.12.08-.34-.29-.41-.36a3.68,3.68,0,1,0-5.2,5.2c2,2,5.42,4.5,8.38,3.87A2.92,2.92,0,0,0,2072.81,705.46Z" transform="translate(-1154.3 -605.38)"/><path class="cls-3" d="M2126.18,687.81a5.74,5.74,0,0,0,3.91,4.14,3.24,3.24,0,0,0,3.89-2.21,6.72,6.72,0,0,0,.35-1.89c-.08,1.53.09-1.05.08-1.44a23,23,0,0,0-.25-3.41c-.71-4-7.46-4.06-8.16,0a9.55,9.55,0,0,0-.13,3.2C2126,686.74,2126.05,687.28,2126.18,687.81Z" transform="translate(-1154.3 -605.38)"/><path class="cls-3" d="M2151.79,735.73a3.84,3.84,0,0,0-2.7-1.12,3.88,3.88,0,0,0-2.71,1.12,4.05,4.05,0,0,0-1,3.72,4.41,4.41,0,0,0,1.27,2.76,4,4,0,0,0,5.68,0,3.3,3.3,0,0,0,.55-3.88A3.72,3.72,0,0,0,2151.79,735.73Zm.58,1.71,0,0C2152.93,738.16,2152.93,738.16,2152.37,737.44Zm.46,1.61a.52.52,0,0,0,0-.11C2153,739.41,2152.81,739.5,2152.83,739.05Z" transform="translate(-1154.3 -605.38)"/><path class="cls-3" d="M2138.57,854.59c-.4-2.47-2.88-4.54-5.17-5.17a7.48,7.48,0,0,0-7.2,1.9,7,7,0,0,0-2.15,5.25h0a20.13,20.13,0,0,0,1.07,8.47c1.19,3.3,3.85,5.73,7.52,5.73a7.86,7.86,0,0,0,7.8-7.8,14.91,14.91,0,0,0-.88-5A16.47,16.47,0,0,1,2138.57,854.59Z" transform="translate(-1154.3 -605.38)"/><path class="cls-3" d="M2110.78,912.54l0,0c1.58-.93,3.34-2.8,3.62-4.71a8,8,0,0,0,0-4.2,7.93,7.93,0,0,0-5.5-5.51,8.19,8.19,0,0,0-6.08.8,8.93,8.93,0,0,0-2.18,1.79,8.07,8.07,0,0,0-2.26,5.9,7.1,7.1,0,0,0,2.12,5.31,9.19,9.19,0,0,0,.75.65,4.31,4.31,0,0,0,2.22,1.14l.24.08a7.39,7.39,0,0,0,2,.26l.51,0A7.69,7.69,0,0,0,2110.78,912.54Z" transform="translate(-1154.3 -605.38)"/><path class="cls-3" d="M2101.81,881.07c.43.37.73.48,1.16.8l-.06,0a5.55,5.55,0,0,0,1.46.67l.33.12c1.72.71,4-.15,5.23-1.38a5.4,5.4,0,0,0,.84-6.51,6.31,6.31,0,0,0-3.77-2.93,5.85,5.85,0,0,0-3.08,0,4.78,4.78,0,0,0-1.63.8l-.44.19a4.71,4.71,0,0,0-2.39,4.16A4.76,4.76,0,0,0,2101.81,881.07Zm-.28-7.84a1.8,1.8,0,0,0-.2.19,1.34,1.34,0,0,1,.11-.14Z" transform="translate(-1154.3 -605.38)"/><path class="cls-3" d="M2130.08,887.92c-1.6,0-3.54,1.19-3.8,2.89a14.48,14.48,0,0,0-.43,3.55,7.57,7.57,0,0,0,.69,3,4.06,4.06,0,0,0,6.44.83c1-1,1.11-2.2,1.28-3.52a14.15,14.15,0,0,0-.39-3.87C2133.61,889.11,2131.67,887.92,2130.08,887.92Z" transform="translate(-1154.3 -605.38)"/><path class="cls-3" d="M2113.79,936.24c-2.3,0-4.69,2-4.5,4.49l.15,1.87a4.35,4.35,0,1,0,8.69,0l.15-1.87C2118.47,938.29,2116.09,936.24,2113.79,936.24Z" transform="translate(-1154.3 -605.38)"/><path class="cls-3" d="M2030.8,1024.54c.23-.15.45-.31.67-.47a10.17,10.17,0,0,0,4.18-5.61,8,8,0,0,0-9.82-9.82,7.8,7.8,0,0,0-3.73,2.32l.15-.19c-.47.61-1.1,1.1-1.59,1.7a15.28,15.28,0,0,0-1.53,1.95,9.91,9.91,0,0,0-1,2.45c-.8,2.92.22,6.71,3.1,8.12a9.83,9.83,0,0,0,4,1.08c.19,0,.37,0,.57,0A9.38,9.38,0,0,0,2030.8,1024.54Z" transform="translate(-1154.3 -605.38)"/><path class="cls-3" d="M1740.41,1046c-6.08,0-6.08,9.43,0,9.43S1746.5,1046,1740.41,1046Z" transform="translate(-1154.3 -605.38)"/><path class="cls-3" d="M1705.11,774.38c6.08,0,6.08-9.43,0-9.43S1699,774.38,1705.11,774.38Z" transform="translate(-1154.3 -605.38)"/><path class="cls-3" d="M1610.07,762.23c-6.08,0-6.08,9.43,0,9.43S1616.15,762.23,1610.07,762.23Z" transform="translate(-1154.3 -605.38)"/><path class="cls-3" d="M1769.38,739.64a6.15,6.15,0,0,0-4.89-.67,6.49,6.49,0,0,0-4.76,6.25,4.86,4.86,0,0,0-1.85,2,3.31,3.31,0,0,0-.66,2,3.51,3.51,0,0,0,1.47,2.85,4.43,4.43,0,0,0,2,1.25l.34.05.09.16a6,6,0,0,0,5,2.89,6,6,0,0,0,1.27-.16,7.18,7.18,0,0,0,6.29-2c3-3.28,2.33-7.93,0-11.37A8,8,0,0,0,1769.38,739.64Zm-9.65,5.63v0C1759.25,745.68,1759.25,745.67,1759.73,745.27Zm0,.62h0l-.5.24,0,0Zm.85,7.34c.14.07.29.11.43.17l0,0Zm.49.22h0Zm.21,0h0C1762.11,753.59,1762.11,753.59,1761.31,753.48Zm11.91-9.8h0C1774.07,744.27,1773.71,744.23,1773.22,743.68Z" transform="translate(-1154.3 -605.38)"/><path class="cls-3" d="M1855.1,710.09a4.79,4.79,0,0,0-1.62-1.89,4.43,4.43,0,0,0-6.19,0,4.49,4.49,0,0,0-1.56,1.76c-.13.27-.24.55-.38.81a5.84,5.84,0,1,0,10.08,0A7.5,7.5,0,0,1,1855.1,710.09Z" transform="translate(-1154.3 -605.38)"/><path class="cls-3" d="M1860.93,662.68a5.55,5.55,0,0,0-2.4-.14,6.64,6.64,0,0,0-3.45,1.12l-.26.13a4.71,4.71,0,0,0,0,8.08l.15.09a5,5,0,0,0,.67.47,10.72,10.72,0,0,0,1.5.63c.49.21,1,.44,1.5.64l-1.33-.56a8,8,0,0,0,2.07.78,5.56,5.56,0,0,0,5.18-1.37,5.44,5.44,0,0,0,.83-6.45A7.19,7.19,0,0,0,1860.93,662.68Z" transform="translate(-1154.3 -605.38)"/><path class="cls-3" d="M1889.42,707.38a4.55,4.55,0,0,0,4.46-3.39,6.72,6.72,0,0,0,0-2.68,4.43,4.43,0,0,0-.77-1.73l-.31-.49a6.34,6.34,0,0,0-2-2,5.68,5.68,0,0,0-4.9-.75,4.31,4.31,0,0,0-2.93,2.93,4.47,4.47,0,0,0,1.14,4.2,6.2,6.2,0,0,0,.42.86A5.73,5.73,0,0,0,1889.42,707.38Z" transform="translate(-1154.3 -605.38)"/><path class="cls-3" d="M1932.78,670.32c.31.2.83.58.2.08,1.25,1,2.16,1.77,3.85,1.82a3.48,3.48,0,0,0,3.48-3.48c-.18-3.46-3.89-5.92-7.1-6.16a3.88,3.88,0,0,0-.43,7.74Z" transform="translate(-1154.3 -605.38)"/><path class="cls-3" d="M1906.06,774.82c-5.61,0-5.61,8.69,0,8.69S1911.66,774.82,1906.06,774.82Z" transform="translate(-1154.3 -605.38)"/><path class="cls-3" d="M1891.61,719a5.64,5.64,0,0,0-3.2-.59,3.78,3.78,0,0,0-.15,7.55,3.74,3.74,0,0,0,5.17-5.4A6.64,6.64,0,0,0,1891.61,719Zm-3.65,6.73c-.57-.39-.27-.2,0,0Z" transform="translate(-1154.3 -605.38)"/><path class="cls-3" d="M1908.77,708.83c-3.16,0-3.16,4.9,0,4.9S1911.93,708.83,1908.77,708.83Z" transform="translate(-1154.3 -605.38)"/><path class="cls-3" d="M1795.28,894.5a6.38,6.38,0,0,0,.8-3.17l0-2.19a4,4,0,1,0-8.09,0c0,.63,0,1.25,0,1.88,0,.31,0,.63,0,.94a5.42,5.42,0,0,0,.8,2.54A3.81,3.81,0,0,0,1795.28,894.5Z" transform="translate(-1154.3 -605.38)"/><path class="cls-3" d="M1828.5,1079.38a6.32,6.32,0,0,0-3.82-.24l-.33.13-.71.1c-.48.06-1,.15-1.42.24-3.67.66-3.67,6.71,0,7.37.63.12,1.27.23,1.89.41l.4.18a4.56,4.56,0,0,0,4.14,2.72,4.65,4.65,0,0,0,4.57-4.57C1833.48,1082.57,1831.14,1080.46,1828.5,1079.38Z" transform="translate(-1154.3 -605.38)"/><path class="cls-3" d="M1888.87,1084.23c-2.31-.91-4.76-.32-7.1.13-4.34.83-4.34,7.9,0,8.73,2.34.45,4.79,1,7.1.13a4.66,4.66,0,0,0,0-9Z" transform="translate(-1154.3 -605.38)"/><path class="cls-3" d="M1947.24,1074c-1-.19-2.11-.34-3.18-.47a8.29,8.29,0,0,0-2.62.26,5,5,0,0,0-2,.82l-1.48,1.14a7.23,7.23,0,0,0-1.87,3.22,7.13,7.13,0,0,0-.25,1.72,8.07,8.07,0,0,0,1.1,5.17,6.79,6.79,0,0,0,5.82,3.34,6.67,6.67,0,0,0,4.87-2.14,6.8,6.8,0,0,0,4.67-6.47,6.77,6.77,0,0,0-.93-3.45A6.66,6.66,0,0,0,1947.24,1074Z" transform="translate(-1154.3 -605.38)"/><path class="cls-3" d="M2063.64,1037.3c-2.37-.44-4.48-.78-6.72.46a7.14,7.14,0,0,0-3.31,7,6.24,6.24,0,0,0,1.72,4.15,5.87,5.87,0,0,0,8.3,0,5.44,5.44,0,0,0,1-1.43,5.67,5.67,0,0,0,3-4.91A5.45,5.45,0,0,0,2063.64,1037.3Zm1.58,8.32h0l0,.26Z" transform="translate(-1154.3 -605.38)"/><path class="cls-3" d="M2162.93,964.18a3.84,3.84,0,0,0-5.85-.13,5.8,5.8,0,0,0-2.36,2.2c-.15.32-.27.66-.4,1a5.14,5.14,0,0,0-.92,1.37l-.21.37c-.09.09-1,1.53-1.28,1.89-1.74,2.4-.92,6.12,1,8.08a6.72,6.72,0,0,0,9.42,0,14.09,14.09,0,0,0,3.19-5.21,6.41,6.41,0,0,0,.17-4c.55,1.78.11.08.05-.49A6.46,6.46,0,0,0,2162.93,964.18Z" transform="translate(-1154.3 -605.38)"/><path class="cls-3" d="M2189.82,882.51c-6.8,0-6.8,10.55,0,10.55S2196.62,882.51,2189.82,882.51Z" transform="translate(-1154.3 -605.38)"/><path class="cls-3" d="M2208.1,778.38l0-.44c0-.49,0-1,0-1.49a4.65,4.65,0,0,0-9.29,0,13.82,13.82,0,0,0,.53,5.09,6.91,6.91,0,0,0,6,4.64c1.91.22,3.77-1.51,4.24-3.23A4.46,4.46,0,0,0,2208.1,778.38Z" transform="translate(-1154.3 -605.38)"/><path class="cls-3" d="M1995.42,948.26c-1.18-6.14-10.5-7.1-13.51-2.34a6.65,6.65,0,0,0,0,8.63c3,4.77,12.33,3.81,13.51-2.33,0-.08,0-.17,0-.25-.13.18-.26.35-.4.52a8.32,8.32,0,0,0,0-4.5c.14.17.27.34.4.52C1995.45,948.42,1995.43,948.34,1995.42,948.26Z" transform="translate(-1154.3 -605.38)"/><path class="cls-3" d="M1942.4,957c-4.37-3.11-9.56-2.38-13.15,1.5-3.27,3.54,1.59,8.18,5.2,5.2a5.27,5.27,0,0,1,.69-.51l.11,0c.17.08.38.15.2,0a8.62,8.62,0,0,1,1.19,1.3c1.62,2,5,1.68,6.72,0C1945.67,962.15,1944.86,958.75,1942.4,957Zm-7,6.09c.45-.18.21,0,0,0Z" transform="translate(-1154.3 -605.38)"/><path class="cls-3" d="M1974,958.52a5.28,5.28,0,0,0-4.24.61,4.62,4.62,0,0,0-2.18.66l-.07.06-1.41.28c-3.67.72-3.67,6.66,0,7.37l1.33.26.08,0,.07.06a4.62,4.62,0,0,0,2.18.66,5.28,5.28,0,0,0,4.24.61,5.49,5.49,0,0,0,0-10.59Z" transform="translate(-1154.3 -605.38)"/><path class="cls-3" d="M1953.57,929.16c-6.17,0-6.17,9.57,0,9.57S1959.75,929.16,1953.57,929.16Z" transform="translate(-1154.3 -605.38)"/><path class="cls-3" d="M1736.3,674.12a15.64,15.64,0,0,0,2.32-.45,5.85,5.85,0,0,0,1.63-.73l.2-.06a5.27,5.27,0,0,0,0-10.09l-.21-.06a6,6,0,0,0-1.62-.74,15.73,15.73,0,0,0-2.25-.41,7.28,7.28,0,0,0-4.72-.34,6.27,6.27,0,0,0-5.18,2.77c-.12.17-.22.34-.33.52l-.18.31a6.27,6.27,0,0,0-.37.88c0,.14-.1.28-.14.43s-.09.34-.12.52a5.64,5.64,0,0,0-.12,1.16,5.74,5.74,0,0,0,.12,1.17c0,.18.08.35.12.52s.09.29.14.43a6.68,6.68,0,0,0,.37.87l.18.32c.11.18.21.35.33.51a6.22,6.22,0,0,0,5.18,2.77A7.2,7.2,0,0,0,1736.3,674.12Zm3.69-11.47-.31-.09C1738.92,662.34,1739.28,662.3,1740,662.65Z" transform="translate(-1154.3 -605.38)"/><path class="cls-3" d="M1674.86,689.94h0a5.71,5.71,0,0,0-4-1.65,4.73,4.73,0,0,0-.54,0,6.65,6.65,0,0,0-1.89-.28,6.74,6.74,0,0,0-5.75,3.18,10.51,10.51,0,0,0-3.38,2.33,7.66,7.66,0,0,0-1.15,8.88,8.64,8.64,0,0,0,4.28,3.6,7.07,7.07,0,0,0,5,.66,6.77,6.77,0,0,0,3.89-3,77.23,77.23,0,0,0,4.38-7A5.73,5.73,0,0,0,1674.86,689.94Zm-7.73-.19c1.41-1.19.74-.61,0,0Zm-5.34,3.58c0,.09-.06.16-.08.25a.28.28,0,0,0,0-.09A.77.77,0,0,0,1661.79,693.33Z" transform="translate(-1154.3 -605.38)"/><path class="cls-3" d="M1704.32,684.56a4.54,4.54,0,0,0-2.07-7.55,19.94,19.94,0,0,0-2.91-.55l1.33.18c-2.11-.86-4.22.09-5.83,1.43a5.79,5.79,0,0,0-1.65,2.77,5.27,5.27,0,0,0-.92,3.29,6.36,6.36,0,0,0,1.78,4.28,6,6,0,0,0,10.27-3.85Zm-2.56,1.39h0l-.26.2Z" transform="translate(-1154.3 -605.38)"/><path class="cls-3" d="M1680.38,710.13l-1.28-.28-.83-.18a4.8,4.8,0,0,0-5.31,2.08,4.32,4.32,0,0,0,0,4.49,4.78,4.78,0,0,0,5.21,2.11l.93-.21,1.28-.28C1684.22,717,1684.22,711,1680.38,710.13Z" transform="translate(-1154.3 -605.38)"/><path class="cls-3" d="M1522.06,850a6.34,6.34,0,0,0,.09,1.44,3.49,3.49,0,0,0,.2,1c0,.11.09.2.13.3.24.76.38,1,.46,1a6.19,6.19,0,0,0,3.49,2.81,4.52,4.52,0,0,0,1.48.28,5.56,5.56,0,0,0,.91-.05A5.72,5.72,0,0,0,1535,854a10.9,10.9,0,0,0,.84-1.88,3.4,3.4,0,0,0,.12-.48,14.29,14.29,0,0,0,1-3.58,22.91,22.91,0,0,0,.35-3.78,7,7,0,0,0-.23-2.53c-.12-.53-.16-.6-.16-.5-.59-3.59-2.91-6.57-6.91-6.57a7.06,7.06,0,0,0-7,7c-.09.75-.08.6,0-.45a13.44,13.44,0,0,0-.27,1.38l-.09.25a6,6,0,0,0-.35,1.54A47.73,47.73,0,0,0,1522.06,850Z" transform="translate(-1154.3 -605.38)"/><path class="cls-3" d="M1531.56,875.52l-4.31.06a6.84,6.84,0,0,0-4.79,11.57,52.14,52.14,0,0,1,5.79,7.53c1.44,2.06,3.86,3.62,6.44,3.23A4.75,4.75,0,0,0,1540,894a6.37,6.37,0,0,0,.38-1.24,5.08,5.08,0,0,0,2.15.3,8.21,8.21,0,0,0,4.43-1.62,6.71,6.71,0,0,0,1.57-1.83c1.48-2.51.82-5.05.07-7.62-.84-2.85-1-6.15-4.1-7.67a7.7,7.7,0,0,0-7.74.44l-.18.13A12.34,12.34,0,0,0,1531.56,875.52Zm16.34,5.91c.12-.72.31-1.14,0,0Z" transform="translate(-1154.3 -605.38)"/><path class="cls-3" d="M1559.84,856.11c-9.34,0-9.34,14.47,0,14.47S1569.17,856.11,1559.84,856.11Z" transform="translate(-1154.3 -605.38)"/><path class="cls-3" d="M1555,918c-1.35-.36-3.46-.75-4.83-.24-.52.19-2.71.78-1.21.47l-1.28.26c-4.55,1-4.54,8.19,0,9.17l.87.2a4.55,4.55,0,0,0,1.62.73c.28.06,2.12.64.83.1.61.28,1.22.53,1.84.75-.6-.24-.59-.2,0,.12a7.1,7.1,0,0,0,3.78,1.08c3.68,0,5.66-3.34,5.08-6.68C1561.22,920.91,1557.86,918.75,1555,918Z" transform="translate(-1154.3 -605.38)"/><path class="cls-3" d="M1985.07,629.82a7.09,7.09,0,0,0-3.5-6.09c-2.2-1.29-5.72-1.35-7.82.37l-.34.06a3.41,3.41,0,0,0-1,.31l-1.2.26c-5,1.11-5,9.07,0,10.17l1.2.26a3.73,3.73,0,0,0,1,.32l.36.06a7.36,7.36,0,0,0,6.12,1.08A7.12,7.12,0,0,0,1985.07,629.82Zm-13.2-5.08-.06,0C1971.46,624.93,1971.5,624.92,1971.87,624.74Zm-.06,10.12.06,0C1971.5,634.72,1971.46,634.7,1971.81,634.86Z" transform="translate(-1154.3 -605.38)"/><path class="cls-2" d="M1261.64,1186.13c.16,3.2-1.81,6.51-5.93,6.51-7.63,0-7.91-11.32-.9-12.23q-7.3-6.32-14-13a6.35,6.35,0,0,1-4.08,1.35c-6.31,0-8-7.16-5.06-11-39-43.47-58.92-98.16-46.53-161.32a233.22,233.22,0,0,1,18.61-56.24,231.27,231.27,0,0,0-45.77,99.69c-51.5,262.65,456.17,378.77,564.38,151.57.69-1.43,1.36-2.86,2-4.32-1.57,1.88-3.2,3.7-4.84,5.51C1617.54,1304.63,1385,1286.05,1261.64,1186.13Zm-53.93-41.59a14.61,14.61,0,0,1-2,1.15,3.16,3.16,0,0,1-3.11,0,3.08,3.08,0,0,1,0-5.32,3.21,3.21,0,0,1,3.11,0,14.68,14.68,0,0,1,2,1.16A1.77,1.77,0,0,1,1207.71,1144.54Zm50.71,88.29h0a6,6,0,0,1-4.72-2.49,3.72,3.72,0,0,1,0-6.26,6,6,0,0,1,4.72-2.49h0a5.62,5.62,0,0,1,0,11.24Zm54.58,18.32c-1,1.38-2.76,2.7-4.64,2.53a9.28,9.28,0,0,1-3.42-.87,13.2,13.2,0,0,1-3.82-3.12,4.9,4.9,0,0,1,6.93-6.93c.52.48,1,1,1.52,1.48l.24.09a5.84,5.84,0,0,1,3.19,2.38A4.27,4.27,0,0,1,1313,1251.15Zm150.59,33.38a4.29,4.29,0,0,1-4.22,4,4.33,4.33,0,0,1-4.27-4.27c-.11-1.76.09-4.12,1.61-5.33a5.47,5.47,0,0,1,6.58-.62C1465.66,1279.5,1465.65,1283.05,1463.59,1284.53Zm82.9,3.55a13.38,13.38,0,0,1-1.81.27,4.28,4.28,0,0,1-4.15-1.09,4.28,4.28,0,0,1,.86-6.71,4.64,4.64,0,0,1,3.29-.43,13.38,13.38,0,0,1,1.81.27,4,4,0,0,1,0,7.69Z" transform="translate(-1154.3 -605.38)"/><path class="cls-4" d="M1448.14,1137.15s0,0,0,.07A.19.19,0,0,0,1448.14,1137.15Z" transform="translate(-1154.3 -605.38)"/><path class="cls-4" d="M1314.05,926.34l.06.08h0l-.07-.09Z" transform="translate(-1154.3 -605.38)"/><path class="cls-4" d="M1448.06,1136.87c-.09-.28-.26-.45,0,.14C1448.09,1137,1448.07,1136.92,1448.06,1136.87Z" transform="translate(-1154.3 -605.38)"/><path class="cls-4" d="M1375.14,845.25c-51.85,7.35-99.81,28.26-137.78,60.27a242.8,242.8,0,0,0-22.06,21.09,271.87,271.87,0,0,0,.75,44.79,4.44,4.44,0,0,1,6.63-3.32,6.44,6.44,0,0,1,1.21.94,3.4,3.4,0,0,1,.32.34,5.9,5.9,0,0,1,2.5,4.64c0,.24,0,.49,0,.73a7.84,7.84,0,0,1-.57,5.62,13.89,13.89,0,0,1-3,4.28,7.71,7.71,0,0,1-5.24,2c5,35.06,15.37,68.61,27,93.95,21.72,46.16,48.88,97.76,100.47,105.9,21.72,2.72,48.88-2.71,67.89,2.72,16.29,5.43,27.15,21.72,43.44,29.87,25.81,8.6,77.15,20.6,116.28,22.52a8.2,8.2,0,0,1-.54-3.07,6.5,6.5,0,0,1,2.67-5.31c.09-2,.16-4,.3-6,.25-3.37,2.64-6.2,6.2-6.2s5.89,2.84,6.2,6.2a61,61,0,0,0,1.33,6.67c.55,2.47,1.23,5,.34,7.51,0,.12-.09.24-.14.36a108.47,108.47,0,0,0,11.28-1c2.14-.25,4.24-.55,6.33-.88a8.85,8.85,0,0,1,5.12-1.86l.9,0,1.23,0a7.13,7.13,0,0,1,1.91.2c39.15-8.63,68.74-30.77,103.44-45.57,1.64-1.81,3.27-3.63,4.84-5.51a198.74,198.74,0,0,0,12-35.92C1782.13,951.37,1548,820.74,1375.14,845.25Zm-139.5,161.64a4.42,4.42,0,0,1-3.45,1.19,4.78,4.78,0,0,1-3.18-1.32c-1.28-1.41-1.41-3.11-1.49-4.93a3.75,3.75,0,0,1,7.49-.13,5.35,5.35,0,0,1,1.14,1.18C1237.11,1004.12,1236.49,1005.83,1235.64,1006.89Zm35.66,55.57c-1.57,2.67-5.15,4.48-8.26,3.57a6.08,6.08,0,0,1-4.61,2,6.52,6.52,0,0,1-6.48-6.36,6.77,6.77,0,0,1-.19-4.3,18.26,18.26,0,0,1,1.39-3.43,15.7,15.7,0,0,1,2.53-3.28,7.81,7.81,0,0,1,10.92,0l.31.3c.21.14.42.28.64.4l1,.67C1272,1054.35,1273.49,1058.71,1271.3,1062.46Zm8.15-131.36a5.46,5.46,0,0,1-10.18-2.28,3.89,3.89,0,0,1-1.39-3,4.19,4.19,0,0,1,4.12-4.12h0a5,5,0,0,1,2.39-.61,5.32,5.32,0,0,1,3.6,1.49,6.72,6.72,0,0,1,1.91,4.05,5.49,5.49,0,0,1,.29,1.72A5.41,5.41,0,0,1,1279.45,931.1Zm35.76,1c0,.87-.22,1.74-.35,2.61a4.83,4.83,0,0,1-2.31,3,5,5,0,0,1-7.37-3,15.44,15.44,0,0,1-.35-2.77,19.35,19.35,0,0,1,.25-2.62c.09-.55.16-1.05.28-1.53l0-.16a2.18,2.18,0,0,1,.09-.23,4,4,0,0,1,.17-.44l.19-.38.09-.16,0,0-.07.09,0,0a.08.08,0,0,0,0,0l0,0a1.67,1.67,0,0,1,.16-.24c.08-.12.17-.23.26-.35s.15-.18.24-.27a1.13,1.13,0,0,0-.1.13,4.89,4.89,0,0,1,1.1-.92l.17-.08.35-.16a4.68,4.68,0,0,1,.48-.18.84.84,0,0,1,.14-.06l.35-.06a3.35,3.35,0,0,1,.44-.07,4.1,4.1,0,0,1,.49,0,3.85,3.85,0,0,1,.48,0,3.11,3.11,0,0,1,.44.07c.12,0,.24,0,.35.06a.84.84,0,0,1,.14.06,4.09,4.09,0,0,1,.49.18l.35.16.17.08a4.89,4.89,0,0,1,1.1.92l-.1-.13a2.76,2.76,0,0,1,.23.27,4.11,4.11,0,0,1,.27.35l.16.24,0,0,0,0,0,0-.06-.09,0,0,.09.16.19.38c.06.15.12.29.17.44s.06.15.08.23a.9.9,0,0,1,0,.16,15.44,15.44,0,0,1,.29,1.53A13.44,13.44,0,0,1,1315.21,932.1Zm19.68-31.19a5.49,5.49,0,0,1-5.24-4c-1.14-5.19,3.6-10.82,7.8-13.3s8.77,2.41,6.6,6.6a17.2,17.2,0,0,0-.8,2.28,26.13,26.13,0,0,1-1.22,3.37C1340.82,898.57,1337.93,901.06,1334.89,900.91Zm27.5,205.33a21.08,21.08,0,0,1-1.71,3.89,18.1,18.1,0,0,1-6.61,6,6.21,6.21,0,0,1-5.36.53,6.49,6.49,0,0,1-5.88-9.27s0-.06,0-.1c-.68,1.34-.39.76,0,0,0-.13,0-.23.06-.37q1.29-3,.26-.61c.32-.86.58-1.74.89-2.61,1.18-3.31,3.77-7.7,8-7.13a10.18,10.18,0,0,1,3.11.92,4.83,4.83,0,0,1,1.28-.78c2.24-1.77,6.61-.42,6.2,2.9a1.21,1.21,0,0,0,0,.19,5.81,5.81,0,0,1,.13,2.42A7.19,7.19,0,0,1,1362.39,1106.24Zm10.08,35.37c-5.17,0-5.17-8,0-8S1377.64,1141.61,1372.47,1141.61Zm32.14-172.67c-1,2.35-4.6,3.67-6.95,2.83h0a6.11,6.11,0,0,1-6.68.29,6.49,6.49,0,0,1-2.93-3.82,7,7,0,0,1,.64-4.92,22.4,22.4,0,0,1,3.22-5.65,5.23,5.23,0,0,1,1.72-1.34,4.83,4.83,0,0,1,.8-.53,7.12,7.12,0,0,1,6.78,0,6.93,6.93,0,0,1,2.43,2.44l-.07-.09.19.24.09.14a5.5,5.5,0,0,1,.88,2.52,15.55,15.55,0,0,0,.35,1.78,9,9,0,0,1,.47,2.57A8,8,0,0,1,1404.61,968.94Zm6.21-84.81c-.42.67-.87,1.31-1.35,1.93a2,2,0,0,1-3.39,0,21.51,21.51,0,0,1-1.35-1.93,3.52,3.52,0,1,1,6.09,0Zm28.4,153.35a25.27,25.27,0,0,1-1.57-2,4.22,4.22,0,0,1-.27-.36l0-.05,0,0a6.48,6.48,0,0,1-.86-1.89,6.88,6.88,0,0,1,.69-5.36,7.05,7.05,0,0,1,8.16-3.09,31.94,31.94,0,0,1,6.71,3.55,7.05,7.05,0,0,1-1.69,12.89,6.88,6.88,0,0,1-5.39-.69C1442.57,1040.54,1440.73,1039.18,1439.22,1037.48Zm13.91,101.5a2.7,2.7,0,0,1-2.5.77,3,3,0,0,1-1.5-1l-.63.06c-2.11.23-3.89-2-3.89-3.9s1.78-4.14,3.89-3.9a8.3,8.3,0,0,1,3.44.8,9,9,0,0,1,1.06.78c-1.27-1-.14-.18.17.13a7.27,7.27,0,0,1,.62.79A4.55,4.55,0,0,1,1453.13,1139Zm5-47.7a7.22,7.22,0,0,1-2,4.86,6.88,6.88,0,0,1-9.72,0,7.22,7.22,0,0,1-2-4.86,8.82,8.82,0,0,1,.19-1.83,6.56,6.56,0,0,1,.91-3.37l1-1.35a6.68,6.68,0,0,1,2.27-1.49c.22-.09.44-.16.67-.23h0a5.37,5.37,0,0,1,3.54,0h0a6.48,6.48,0,0,1,4,3.07,6.67,6.67,0,0,1,.92,3.37A8.8,8.8,0,0,1,1458.09,1091.28Zm19.39-28.55a12.15,12.15,0,0,1-3.23.18l-1.2-.13-2.82-.33a6.79,6.79,0,0,1-4.46-1.85,6.3,6.3,0,0,1,0-8.92,6.79,6.79,0,0,1,4.46-1.85l2.82-.33,1.2-.14a12.59,12.59,0,0,1,3.23.19c3,.43,5,3.84,5,6.59S1480.43,1062.3,1477.48,1062.73Zm14.47-28.28c-3.54,0-3.54-5.5,0-5.5S1495.5,1034.45,1492,1034.45Zm-8.27-54c-2.87.53-5.71-.3-7.27-3-1.35-2.32-1.19-6,1-7.8l.31-.22a8.51,8.51,0,0,1,0-4.64,10,10,0,0,1,5.85-6,6.94,6.94,0,0,1,4.46-.55c.06-.31.13-.61.17-.91.6-4.5,7.39-3.11,7.58,1a20.07,20.07,0,0,1-.23,3.48,6.36,6.36,0,0,1,2.42,4.67C1498.3,973.86,1490.11,979.28,1483.68,980.45Zm29.53,211c-1.93,3.75-8,3.75-9.93,0s-1.25-8.1-.66-12c.86-5.59,10.39-5.59,11.24,0C1514.46,1183.37,1515.07,1187.86,1513.21,1191.47Zm3-47.73a6.67,6.67,0,0,1-4.69,4.69,17.17,17.17,0,0,1-2.8.76,3.92,3.92,0,0,1-2.2-.46,6.25,6.25,0,0,1-2.39-3.26,10.55,10.55,0,0,1,.22-9.59,3.06,3.06,0,0,0-.38-1.2c-2.34-4,2.64-9.94,6.81-6.8a12.58,12.58,0,0,1,5,7.12C1517.28,1137.51,1517.08,1140.59,1516.19,1143.74ZM1513.68,893c-6.71,0-6.71-10.39,0-10.39S1520.38,893,1513.68,893Zm46.16,344.45c-6.18,0-6.18-9.58,0-9.58S1566,1237.43,1559.84,1237.43Zm11-333.13a6.21,6.21,0,0,1-1,.8,8.08,8.08,0,0,1-1.49,2.06,8.19,8.19,0,0,1-12.88-1.66,8.74,8.74,0,0,1-.83-6.32,14.47,14.47,0,0,1,1.42-4,7.66,7.66,0,0,1,4.69-3.6,7.94,7.94,0,0,1,2.56-.25c2.93-.14,5.7,1.58,7.55,3.82a6.85,6.85,0,0,1,1.91,4.6A6.54,6.54,0,0,1,1570.86,904.3Zm7.13,244.08a6.46,6.46,0,0,1-1.62-2.67c-.21-.63-.17-.69.09-.19-.19-.47-.39-1-.59-1.41a17.11,17.11,0,0,1-.3-4.11,19.64,19.64,0,0,1,.38-4c.23-.6.4-1,.5-1.24l.06-.27.18-.89c1-4.84,8.73-4.84,9.74,0,.1.46.19.92.29,1.38-.29-1.39.49,1.18.56,1.6a18.25,18.25,0,0,1,.25,4.11c-.06,1.68,0,3.36-.87,4.88.7-1.24-.53,1.42-.55,1.61l.1-.13c-.07.13-.1.16-.1.13-.32.42-.64.84-1,1.25A5,5,0,0,1,1578,1148.38Zm14.17,50c0,.73-.13,1.43-.24,2.16a5,5,0,0,1-2.5,3.15,4.85,4.85,0,0,1-4.86,0,5.07,5.07,0,0,1-2.52-3.27c-.1-.71-.18-1.34-.22-2l-.06-1.09a5.25,5.25,0,0,1,5.23-5.23c2.73,0,5.41,2.38,5.24,5.23C1592.21,1197.71,1592.18,1198.07,1592.16,1198.43Zm68.15-243.57c4.55,0,4.55,7,0,7S1655.76,954.86,1660.31,954.86Zm-40.73-42.4c6.7,0,6.7,10.39,0,10.39S1612.87,912.46,1619.58,912.46Zm-2.95,94.73a7,7,0,0,1-1.49-5.46,3.23,3.23,0,0,1-1.4-2.61,3.1,3.1,0,0,1,2.29-3c2.57-.38,5.06.29,6.44,2.68.09.15.1.2.09.2.21.26.42.52.61.79a6,6,0,0,1,.77,2.7,5.73,5.73,0,0,1-1.42,4.71A4.18,4.18,0,0,1,1616.63,1007.19Zm22.47,217.87a6.89,6.89,0,0,1-9.42,2.47,7,7,0,0,1-2.48-2.47,6.9,6.9,0,0,1-1-4.93,6.36,6.36,0,0,1-1.43-.35,3.56,3.56,0,0,1,0-6.86,10.48,10.48,0,0,1,3-.5,3.26,3.26,0,0,1,2.33.75,6.92,6.92,0,0,1,3.1-.79c2.79,0,5.9,2,6.45,4.91.07.39.15.77.22,1.16s.11.57.16.86A7.34,7.34,0,0,1,1639.1,1225.06Zm22.68-155.43c-2.54.7-5.79-.71-6.64-3.33a6.11,6.11,0,0,1-1.79-4.73c.13-2.72.27-5.43.42-8.15a6.14,6.14,0,0,1,2.75-5.28,4.59,4.59,0,0,1,.52-.33l.3-.17a6.31,6.31,0,0,1,.88-.38l.41-.13c.17,0,.34-.09.52-.12a5.71,5.71,0,0,1,1.16-.12,5.54,5.54,0,0,1,1.15.12c.18,0,.35.08.53.12l.41.13a6.31,6.31,0,0,1,.88.38l.29.17a5.84,5.84,0,0,1,.53.33,8.86,8.86,0,0,1,.82.67c.27,0,.54-.07.82-.09,4-.35,7.47,3.64,7.42,7.42a17.37,17.37,0,0,1-1,6.49l0,.23a8.82,8.82,0,0,1-1.14,3.92c-1.45,3.1-5.49,3.75-8.35,2.5A5.31,5.31,0,0,1,1661.78,1069.63Zm20.25,91.55-.57.07-.41.07a9.66,9.66,0,0,0-1.31.33l-.28.09c-1.76,4.42-8.36,4.81-10.8.64a6.12,6.12,0,0,1,0-6.11,5.91,5.91,0,0,1,4.25-2.83,15.58,15.58,0,0,1,9.12-1.4c2.47.28,4.57,1.87,4.57,4.57S1684.5,1160.9,1682,1161.18Z" transform="translate(-1154.3 -605.38)"/><path class="cls-4" d="M1306,926.32l-.06.09h0l.06-.08Z" transform="translate(-1154.3 -605.38)"/><path class="cls-4" d="M1261.8,1066.29l.17-.22C1260.56,1066.62,1260.5,1066.69,1261.8,1066.29Z" transform="translate(-1154.3 -605.38)"/><path class="cls-4" d="M1233.51,1001.08l0,0Z" transform="translate(-1154.3 -605.38)"/><path class="cls-5" d="M1216.19,973.35a.24.24,0,0,1,0-.08.13.13,0,0,0,0,.06Z" transform="translate(-1154.3 -605.38)"/><path class="cls-5" d="M1537,1258.06c.3.16.59.21,0,0Z" transform="translate(-1154.3 -605.38)"/><path class="cls-5" d="M1536.92,1258l-.26-.09.27.11Z" transform="translate(-1154.3 -605.38)"/><path class="cls-5" d="M1215.47,973.44c-.31.68-.12.34,0,0Z" transform="translate(-1154.3 -605.38)"/><path class="cls-5" d="M1231.64,1157.72a6.12,6.12,0,0,1,5.06-2.36c6.93,0,8.28,8.62,4.08,12q6.72,6.72,14,13a6.38,6.38,0,0,1,.9-.09,5.76,5.76,0,0,1,5.93,5.81c123.31,99.92,355.9,118.5,457.86,6.48-34.7,14.8-64.29,36.94-103.44,45.57a8.44,8.44,0,0,1,6.33,8,8.29,8.29,0,0,1-8.24,8.24l-1.36,0a12.67,12.67,0,0,1-2.94-.32,8.3,8.3,0,0,1-6.06-7.88,8,8,0,0,1,3.11-6.31c-2.09.33-4.19.63-6.33.88a108.47,108.47,0,0,1-11.28,1c-1.59,4-5.65,6.74-10.07,5.46a9.49,9.49,0,0,1-6.29-5.62c-39.13-1.92-90.47-13.92-116.28-22.52-16.29-8.15-27.15-24.44-43.44-29.87-19-5.43-46.17,0-67.89-2.72-51.59-8.14-78.75-59.74-100.47-105.9-11.62-25.34-22-58.89-27-93.95a6.72,6.72,0,0,1-4.71-2c-2-2-3-6-1.09-8.52.7-.93,1.43-1.79,2.21-2.66l.21-.24a10.14,10.14,0,0,1,1.55-1.67s0-.09,0-.14a271.87,271.87,0,0,1-.75-44.79q-6,6.54-11.58,13.55a233.22,233.22,0,0,0-18.61,56.24C1172.72,1059.56,1192.68,1114.25,1231.64,1157.72Zm302.19,94.21a7.24,7.24,0,0,1,3.76.93,8.24,8.24,0,0,1,2.47,2.65,6.93,6.93,0,0,1,.08,7.1,4.77,4.77,0,0,1-3.48,4.49c-.27.06-.55.11-.83.15a6.1,6.1,0,0,1-4,.3,6.88,6.88,0,0,1-3.73-2.87,6.57,6.57,0,0,1-1.08-3C1525.29,1257.23,1528.94,1251.78,1533.83,1251.93Zm-154.39-50.69a8.67,8.67,0,0,1,4.83-2.44,23,23,0,0,1,2.34-3.61c2.41-3,7.24-2.38,9.74,0a18,18,0,0,1,4.14,5.71,7.39,7.39,0,0,1,6.25,5.34c.84,3.35,1.45,6.91-.29,10.1a8.23,8.23,0,0,1-7.49,4.25,14.87,14.87,0,0,1-6.37-2.13l-1.61-.92a6.42,6.42,0,0,1-2.13-.74,14.45,14.45,0,0,1-1.14,1.21c-3.2,2.93-9.37,2.07-10.34-2.73C1376.44,1210.7,1375.73,1204.9,1379.44,1201.24Zm-133.93-59a7.49,7.49,0,0,1,15,0q0,3,0,6v1a7.6,7.6,0,0,1-7.53,7.53,7.4,7.4,0,0,1-4.65-1.65,7.49,7.49,0,0,1-2.88-5.88c0-.32,0-.65,0-1C1245.48,1146.25,1245.5,1144.26,1245.51,1142.27Zm-17.84-29.11a3.6,3.6,0,1,1,7.2,0,39.11,39.11,0,0,1-.07,4.33,3.53,3.53,0,0,1-7.06,0A41.71,41.71,0,0,1,1227.67,1113.16ZM1204,1020.78a6.6,6.6,0,0,1,8-1c.26.16.51.33.76.5a7,7,0,0,1,3.35,5.84,6.72,6.72,0,0,1-1.71,4.43,5.28,5.28,0,0,1-2.55,3.38,3.35,3.35,0,0,1-4.2.31,4.62,4.62,0,0,1-2.89-2.3,2.1,2.1,0,0,0-.13-.26,7.12,7.12,0,0,1-1.36-2.35C1201.36,1026.87,1202,1022.86,1204,1020.78Z" transform="translate(-1154.3 -605.38)"/><path class="cls-5" d="M1215.6,973.15v0s0,.07,0,.12A.77.77,0,0,0,1215.6,973.15Z" transform="translate(-1154.3 -605.38)"/><path class="cls-3" d="M1510.76,1127.88c-4.17-3.14-9.15,2.78-6.81,6.8a3.06,3.06,0,0,1,.38,1.2,10.55,10.55,0,0,0-.22,9.59,6.25,6.25,0,0,0,2.39,3.26,3.92,3.92,0,0,0,2.2.46,17.17,17.17,0,0,0,2.8-.76,6.67,6.67,0,0,0,4.69-4.69c.89-3.15,1.09-6.23-.41-8.74A12.58,12.58,0,0,0,1510.76,1127.88Z" transform="translate(-1154.3 -605.38)"/><path class="cls-3" d="M1502.62,1179.5c-.59,3.87-1.2,8.36.66,12s8,3.75,9.93,0,1.25-8.1.65-12C1513,1173.91,1503.48,1173.91,1502.62,1179.5Z" transform="translate(-1154.3 -605.38)"/><path class="cls-3" d="M1586.11,1147.13c0-.19,1.25-2.85.55-1.61.86-1.52.81-3.2.87-4.88a18.25,18.25,0,0,0-.25-4.11c-.07-.42-.85-3-.56-1.6-.1-.46-.19-.92-.29-1.38-1-4.84-8.73-4.84-9.74,0l-.18.89-.06.27c-.1.23-.27.64-.5,1.24a19.64,19.64,0,0,0-.38,4,17.11,17.11,0,0,0,.3,4.11c.2.46.4.94.59,1.41-.26-.5-.3-.44-.09.19a6.46,6.46,0,0,0,1.62,2.67,5,5,0,0,0,7.14,0C1585.47,1148,1585.79,1147.55,1586.11,1147.13Z" transform="translate(-1154.3 -605.38)"/><path class="cls-3" d="M1586.21,1147l-.1.13S1586.14,1147.13,1586.21,1147Z" transform="translate(-1154.3 -605.38)"/><path class="cls-6" d="M1623.94,1002.48a6,6,0,0,0-.77-2.7c-.19-.27-.4-.53-.61-.79,0,0,0,0-.09-.2-1.38-2.39-3.87-3.06-6.44-2.68a3.1,3.1,0,0,0-2.29,3,3.23,3.23,0,0,0,1.4,2.61,7,7,0,0,0,1.49,5.46,4.18,4.18,0,0,0,5.89,0A5.73,5.73,0,0,0,1623.94,1002.48Z" transform="translate(-1154.3 -605.38)"/><path class="cls-6" d="M1450.38,1041.22a7.05,7.05,0,0,0,1.69-12.89,31.94,31.94,0,0,0-6.71-3.55,7.05,7.05,0,0,0-8.16,3.09,6.88,6.88,0,0,0-.69,5.36,6.48,6.48,0,0,0,.86,1.89l0,0,0,.05a4.22,4.22,0,0,0,.27.36,25.27,25.27,0,0,0,1.57,2c1.51,1.7,3.35,3.06,5.77,3A6.88,6.88,0,0,0,1450.38,1041.22Z" transform="translate(-1154.3 -605.38)"/><path class="cls-7" d="M1495.58,961.86a20.07,20.07,0,0,0,.23-3.48c-.19-4.13-7-5.52-7.58-1,0,.3-.11.6-.17.91a6.94,6.94,0,0,0-4.46.55,10,10,0,0,0-5.85,6,8.51,8.51,0,0,0,0,4.64l-.31.22c-2.2,1.81-2.36,5.48-1,7.8,1.56,2.65,4.4,3.48,7.27,3,6.43-1.17,14.62-6.59,14.32-13.92A6.36,6.36,0,0,0,1495.58,961.86Z" transform="translate(-1154.3 -605.38)"/><path class="cls-7" d="M1404.72,961a5.5,5.5,0,0,0-.88-2.52l-.09-.14-.19-.24.07.09a6.93,6.93,0,0,0-2.43-2.44,7.12,7.12,0,0,0-6.78,0,4.83,4.83,0,0,0-.8.53,5.23,5.23,0,0,0-1.72,1.34,22.4,22.4,0,0,0-3.22,5.65,7,7,0,0,0-.64,4.92,6.49,6.49,0,0,0,2.93,3.82,6.11,6.11,0,0,0,6.68-.29h0c2.35.84,5.93-.48,6.95-2.83a8,8,0,0,0,.93-3.56,9,9,0,0,0-.47-2.57A15.55,15.55,0,0,1,1404.72,961Z" transform="translate(-1154.3 -605.38)"/><path class="cls-7" d="M1671.05,1066.78a8.82,8.82,0,0,0,1.14-3.92l0-.23a17.37,17.37,0,0,0,1-6.49c0-3.78-3.42-7.77-7.42-7.42-.28,0-.55,0-.82.09a8.86,8.86,0,0,0-.82-.67,5.84,5.84,0,0,0-.53-.33l-.29-.17a6.31,6.31,0,0,0-.88-.38l-.41-.13c-.18,0-.35-.09-.53-.12a5.54,5.54,0,0,0-1.15-.12,5.71,5.71,0,0,0-1.16.12c-.18,0-.35.08-.52.12l-.41.13a6.31,6.31,0,0,0-.88.38l-.3.17a4.59,4.59,0,0,0-.52.33,6.14,6.14,0,0,0-2.75,5.28c-.15,2.72-.29,5.43-.42,8.15a6.11,6.11,0,0,0,1.79,4.73c.85,2.62,4.1,4,6.64,3.33a5.31,5.31,0,0,0,.92-.35C1665.56,1070.53,1669.6,1069.88,1671.05,1066.78Z" transform="translate(-1154.3 -605.38)"/><path class="cls-3" d="M1682,1152a15.58,15.58,0,0,0-9.12,1.4,5.91,5.91,0,0,0-4.25,2.83,6.12,6.12,0,0,0,0,6.11c2.44,4.17,9,3.78,10.8-.64l.28-.09a9.66,9.66,0,0,1,1.31-.33l.41-.07.57-.07c2.47-.28,4.57-1.87,4.57-4.57S1684.5,1152.32,1682,1152Z" transform="translate(-1154.3 -605.38)"/><path class="cls-7" d="M1362.67,1099.78a1.21,1.21,0,0,1,0-.19c.41-3.32-4-4.67-6.2-2.9a4.83,4.83,0,0,0-1.28.78,10.18,10.18,0,0,0-3.11-.92c-4.26-.57-6.85,3.82-8,7.13-.31.87-.57,1.75-.89,2.61q1-2.43-.26.61c0,.14,0,.24-.06.37-.39.79-.68,1.37,0,0,0,0,0,.07,0,.1a6.49,6.49,0,0,0,5.88,9.27,6.21,6.21,0,0,0,5.36-.53,18.1,18.1,0,0,0,6.61-6,21.08,21.08,0,0,0,1.71-3.89,7.19,7.19,0,0,0,.41-4A5.81,5.81,0,0,0,1362.67,1099.78Z" transform="translate(-1154.3 -605.38)"/><path class="cls-7" d="M1387.71,1218a14.45,14.45,0,0,0,1.14-1.21,6.42,6.42,0,0,0,2.13.74l1.61.92a14.87,14.87,0,0,0,6.37,2.13,8.23,8.23,0,0,0,7.49-4.25c1.74-3.19,1.13-6.75.29-10.1a7.39,7.39,0,0,0-6.25-5.34,18,18,0,0,0-4.14-5.71c-2.5-2.38-7.33-3-9.74,0a23,23,0,0,0-2.34,3.61,8.67,8.67,0,0,0-4.83,2.44c-3.71,3.66-3,9.46-2.07,14C1378.34,1220.08,1384.51,1220.94,1387.71,1218Z" transform="translate(-1154.3 -605.38)"/><path class="cls-7" d="M1268.57,1052.05l-1-.67c-.22-.12-.43-.26-.64-.4l-.31-.3a7.81,7.81,0,0,0-10.92,0,15.7,15.7,0,0,0-2.53,3.28,18.26,18.26,0,0,0-1.39,3.43,6.77,6.77,0,0,0,.19,4.3,6.52,6.52,0,0,0,6.48,6.36,6.08,6.08,0,0,0,4.61-2c3.11.91,6.69-.9,8.26-3.57C1273.49,1058.71,1272,1054.35,1268.57,1052.05Zm-6.6,14-.17.22C1260.5,1066.69,1260.56,1066.62,1262,1066.07Z" transform="translate(-1154.3 -605.38)"/><path class="cls-3" d="M1278,922.56a5.32,5.32,0,0,0-3.6-1.49,5,5,0,0,0-2.39.61h0a4.19,4.19,0,0,0-4.12,4.12,3.89,3.89,0,0,0,1.39,3,5.48,5.48,0,0,0,10.18,2.28,5.41,5.41,0,0,0,.75-2.77,5.49,5.49,0,0,0-.29-1.72A6.72,6.72,0,0,0,1278,922.56Z" transform="translate(-1154.3 -605.38)"/><path class="cls-7" d="M1344.05,890.22c2.17-4.19-2.27-9.15-6.6-6.6s-8.94,8.11-7.8,13.3a5.49,5.49,0,0,0,5.24,4c3,.15,5.93-2.34,7.14-5a26.13,26.13,0,0,0,1.22-3.37A17.2,17.2,0,0,1,1344.05,890.22Z" transform="translate(-1154.3 -605.38)"/><path class="cls-3" d="M1314.16,926.48l0,0,.06.09Z" transform="translate(-1154.3 -605.38)"/><path class="cls-3" d="M1305.91,926.44l0,0h0Z" transform="translate(-1154.3 -605.38)"/><path class="cls-3" d="M1305.84,926.53l.07-.09a.08.08,0,0,1,0,0Z" transform="translate(-1154.3 -605.38)"/><path class="cls-3" d="M1314.13,926.44l0,0h0Z" transform="translate(-1154.3 -605.38)"/><path class="cls-3" d="M1314.67,927.79a.9.9,0,0,0,0-.16c0-.08-.06-.15-.08-.23s-.11-.29-.17-.44l-.19-.38-.09-.16-.06-.08,0,0,.07.09-.16-.24a4.11,4.11,0,0,0-.27-.35,2.76,2.76,0,0,0-.23-.27l.1.13a4.89,4.89,0,0,0-1.1-.92l-.17-.08-.35-.16a4.09,4.09,0,0,0-.49-.18.84.84,0,0,0-.14-.06c-.11,0-.23,0-.35-.06a3.11,3.11,0,0,0-.44-.07,3.85,3.85,0,0,0-.48,0,4.1,4.1,0,0,0-.49,0,3.35,3.35,0,0,0-.44.07l-.35.06a.84.84,0,0,0-.14.06,4.68,4.68,0,0,0-.48.18l-.35.16-.17.08a4.89,4.89,0,0,0-1.1.92,1.13,1.13,0,0,1,.1-.13c-.09.09-.16.18-.24.27s-.18.23-.26.35a1.67,1.67,0,0,0-.16.24l.06-.09v0l-.06.08-.09.16-.19.38a4,4,0,0,0-.17.44,2.18,2.18,0,0,0-.09.23l0,.16c-.12.48-.19,1-.28,1.53a19.35,19.35,0,0,0-.25,2.62,15.44,15.44,0,0,0,.35,2.77,5,5,0,0,0,7.37,3,4.83,4.83,0,0,0,2.31-3c.13-.87.3-1.74.35-2.61a13.44,13.44,0,0,0-.25-2.78A15.44,15.44,0,0,0,1314.67,927.79Z" transform="translate(-1154.3 -605.38)"/><path class="cls-3" d="M1214.48,973.21l-.21.24c-.78.87-1.51,1.73-2.21,2.66-1.87,2.49-1,6.48,1.09,8.52a6.72,6.72,0,0,0,4.71,2,7.71,7.71,0,0,0,5.24-2,13.89,13.89,0,0,0,3-4.28,7.84,7.84,0,0,0,.57-5.62c0-.24,0-.49,0-.73a5.9,5.9,0,0,0-2.5-4.64,3.4,3.4,0,0,0-.32-.34,6.44,6.44,0,0,0-1.21-.94,4.44,4.44,0,0,0-6.63,3.32c0,.05,0,.1,0,.14A10.14,10.14,0,0,0,1214.48,973.21Zm1.71.14v0a.13.13,0,0,1,0-.06A.24.24,0,0,0,1216.19,973.35Zm-.59-.2a.77.77,0,0,1,0,.15s0-.09,0-.12Zm-.13.29c-.12.34-.31.68,0,0Z" transform="translate(-1154.3 -605.38)"/><path class="cls-3" d="M1204.64,1031.65a2.1,2.1,0,0,1,.13.26,4.62,4.62,0,0,0,2.89,2.3,3.35,3.35,0,0,0,4.2-.31,5.28,5.28,0,0,0,2.55-3.38,6.72,6.72,0,0,0,1.71-4.43,7,7,0,0,0-3.35-5.84c-.25-.17-.5-.34-.76-.5a6.6,6.6,0,0,0-8,1c-2.08,2.08-2.68,6.09-.76,8.52A7.12,7.12,0,0,0,1204.64,1031.65Z" transform="translate(-1154.3 -605.38)"/><path class="cls-3" d="M1235,1001.7a3.75,3.75,0,0,0-7.49.13c.08,1.82.21,3.52,1.49,4.93a4.78,4.78,0,0,0,3.18,1.32,4.42,4.42,0,0,0,3.45-1.19c.85-1.06,1.47-2.77.51-4A5.35,5.35,0,0,0,1235,1001.7Zm-1.5-.62,0,0Z" transform="translate(-1154.3 -605.38)"/><path class="cls-3" d="M1407.77,878.83a3.55,3.55,0,0,0-3,5.3,21.51,21.51,0,0,0,1.35,1.93,2,2,0,0,0,3.39,0c.48-.62.93-1.26,1.35-1.93A3.55,3.55,0,0,0,1407.77,878.83Z" transform="translate(-1154.3 -605.38)"/><path class="cls-6" d="M1513.68,882.59c-6.71,0-6.71,10.39,0,10.39S1520.38,882.59,1513.68,882.59Z" transform="translate(-1154.3 -605.38)"/><path class="cls-7" d="M1563.31,891.28a7.94,7.94,0,0,0-2.56.25,7.66,7.66,0,0,0-4.69,3.6,14.47,14.47,0,0,0-1.42,4,8.74,8.74,0,0,0,.83,6.32,8.19,8.19,0,0,0,12.88,1.66,8.08,8.08,0,0,0,1.49-2.06,6.21,6.21,0,0,0,1-.8,6.54,6.54,0,0,0,1.91-4.6,6.85,6.85,0,0,0-1.91-4.6C1569,892.86,1566.24,891.14,1563.31,891.28Z" transform="translate(-1154.3 -605.38)"/><path class="cls-6" d="M1619.58,922.85c6.7,0,6.7-10.39,0-10.39S1612.87,922.85,1619.58,922.85Z" transform="translate(-1154.3 -605.38)"/><path class="cls-6" d="M1660.31,961.91c4.55,0,4.55-7,0-7S1655.76,961.91,1660.31,961.91Z" transform="translate(-1154.3 -605.38)"/><path class="cls-3" d="M1457,1086.08a6.48,6.48,0,0,0-4-3.07h0a5.37,5.37,0,0,0-3.54,0h0c-.23.07-.45.14-.67.23a6.68,6.68,0,0,0-2.27,1.49l-1,1.35a6.56,6.56,0,0,0-.91,3.37,8.82,8.82,0,0,0-.19,1.83,7.22,7.22,0,0,0,2,4.86,6.88,6.88,0,0,0,9.72,0,7.22,7.22,0,0,0,2-4.86,8.8,8.8,0,0,0-.18-1.83A6.67,6.67,0,0,0,1457,1086.08Z" transform="translate(-1154.3 -605.38)"/><path class="cls-6" d="M1477.48,1049.55a12.59,12.59,0,0,0-3.23-.19l-1.2.14-2.82.33a6.79,6.79,0,0,0-4.46,1.85,6.3,6.3,0,0,0,0,8.92,6.79,6.79,0,0,0,4.46,1.85l2.82.33,1.2.13a12.15,12.15,0,0,0,3.23-.18c3-.43,5-3.84,5-6.59S1480.43,1050,1477.48,1049.55Z" transform="translate(-1154.3 -605.38)"/><path class="cls-3" d="M1492,1029c-3.54,0-3.54,5.5,0,5.5S1495.5,1029,1492,1029Z" transform="translate(-1154.3 -605.38)"/><path class="cls-3" d="M1372.47,1133.59c-5.17,0-5.17,8,0,8S1377.64,1133.59,1372.47,1133.59Z" transform="translate(-1154.3 -605.38)"/><path class="cls-3" d="M1248.34,1155.11a7.39,7.39,0,0,0,9.31,0,7.49,7.49,0,0,0,2.87-5.88v-1q0-3,0-6a7.49,7.49,0,0,0-15,0c0,2,0,4,0,6,0,.34,0,.67,0,1A7.49,7.49,0,0,0,1248.34,1155.11Z" transform="translate(-1154.3 -605.38)"/><path class="cls-3" d="M1236.7,1155.36a6.12,6.12,0,0,0-5.06,2.36c-2.93,3.84-1.25,11,5.06,11a6.35,6.35,0,0,0,4.08-1.35C1245,1164,1243.63,1155.36,1236.7,1155.36Z" transform="translate(-1154.3 -605.38)"/><path class="cls-3" d="M1207.71,1141.53a14.68,14.68,0,0,0-2-1.16,3.21,3.21,0,0,0-3.11,0,3.08,3.08,0,0,0,3.11,5.32,14.61,14.61,0,0,0,2-1.15A1.77,1.77,0,0,0,1207.71,1141.53Z" transform="translate(-1154.3 -605.38)"/><path class="cls-3" d="M1230.33,1120.89a3.53,3.53,0,0,0,4.47-3.4,39.11,39.11,0,0,0,.07-4.33,3.6,3.6,0,1,0-7.2,0,41.71,41.71,0,0,0,.07,4.33A3.57,3.57,0,0,0,1230.33,1120.89Z" transform="translate(-1154.3 -605.38)"/><path class="cls-3" d="M1255.71,1180.32a6.38,6.38,0,0,0-.9.09c-7,.91-6.73,12.23.9,12.23,4.12,0,6.09-3.31,5.93-6.51A5.76,5.76,0,0,0,1255.71,1180.32Z" transform="translate(-1154.3 -605.38)"/><path class="cls-3" d="M1258.42,1221.59h0a6,6,0,0,0-4.72,2.49,3.72,3.72,0,0,0,0,6.26,6,6,0,0,0,4.72,2.49h0a5.62,5.62,0,0,0,0-11.24Z" transform="translate(-1154.3 -605.38)"/><path class="cls-3" d="M1309.81,1244.33l-.24-.09c-.51-.49-1-1-1.52-1.48a4.9,4.9,0,0,0-6.93,6.93,13.2,13.2,0,0,0,3.82,3.12,9.28,9.28,0,0,0,3.42.87c1.88.17,3.61-1.15,4.64-2.53a4.27,4.27,0,0,0,0-4.44A5.84,5.84,0,0,0,1309.81,1244.33Z" transform="translate(-1154.3 -605.38)"/><path class="cls-3" d="M1528.11,1264.68a6.88,6.88,0,0,0,3.73,2.87,6.1,6.1,0,0,0,4-.3c.28,0,.56-.09.83-.15a4.77,4.77,0,0,0,3.48-4.49,6.93,6.93,0,0,0-.08-7.1,8.24,8.24,0,0,0-2.47-2.65,7.24,7.24,0,0,0-3.76-.93c-4.89-.15-8.54,5.3-6.8,9.72A6.57,6.57,0,0,0,1528.11,1264.68Zm8.92-6.62c.59.21.3.16,0,0Zm-.11,0v0l-.27-.11Z" transform="translate(-1154.3 -605.38)"/><path class="cls-3" d="M1579.22,1247.21c4.42,1.28,8.48-1.45,10.07-5.46,0-.12.1-.24.14-.36.89-2.51.21-5-.34-7.51a61,61,0,0,1-1.33-6.67c-.31-3.36-2.59-6.2-6.2-6.2s-6,2.83-6.2,6.2c-.14,2-.21,4-.3,6a6.5,6.5,0,0,0-2.67,5.31,8.2,8.2,0,0,0,.54,3.07A9.49,9.49,0,0,0,1579.22,1247.21Z" transform="translate(-1154.3 -605.38)"/><path class="cls-3" d="M1603.79,1246.22a8.3,8.3,0,0,0,6.06,7.88,12.67,12.67,0,0,0,2.94.32l1.36,0a8.29,8.29,0,0,0,8.24-8.24,8.44,8.44,0,0,0-6.33-8,7.13,7.13,0,0,0-1.91-.2l-1.23,0-.9,0a8.85,8.85,0,0,0-5.12,1.86A8,8,0,0,0,1603.79,1246.22Z" transform="translate(-1154.3 -605.38)"/><path class="cls-3" d="M1639.82,1218.45c-.07-.39-.15-.77-.22-1.16-.55-2.89-3.66-4.91-6.45-4.91a6.92,6.92,0,0,0-3.1.79,3.26,3.26,0,0,0-2.33-.75,10.48,10.48,0,0,0-3,.5,3.56,3.56,0,0,0,0,6.86,6.36,6.36,0,0,0,1.43.35,6.9,6.9,0,0,0,1,4.93,7,7,0,0,0,2.48,2.47,6.89,6.89,0,0,0,9.42-2.47,7.34,7.34,0,0,0,.88-5.75C1639.93,1219,1639.87,1218.74,1639.82,1218.45Z" transform="translate(-1154.3 -605.38)"/><path class="cls-3" d="M1559.84,1227.85c-6.18,0-6.18,9.58,0,9.58S1566,1227.85,1559.84,1227.85Z" transform="translate(-1154.3 -605.38)"/><path class="cls-3" d="M1587,1192.11a5.25,5.25,0,0,0-5.23,5.23l.06,1.09c0,.7.12,1.33.22,2a5.07,5.07,0,0,0,2.52,3.27,4.85,4.85,0,0,0,4.86,0,5,5,0,0,0,2.5-3.15c.11-.73.2-1.43.24-2.16,0-.36,0-.72.07-1.09C1592.4,1194.49,1589.72,1192.11,1587,1192.11Z" transform="translate(-1154.3 -605.38)"/><path class="cls-3" d="M1546.49,1280.39a13.38,13.38,0,0,0-1.81-.27,4.64,4.64,0,0,0-3.29.43,4.28,4.28,0,0,0-.86,6.71,4.28,4.28,0,0,0,4.15,1.09,13.38,13.38,0,0,0,1.81-.27,4,4,0,0,0,0-7.69Z" transform="translate(-1154.3 -605.38)"/><path class="cls-3" d="M1463.29,1278.29a5.47,5.47,0,0,0-6.58.62c-1.52,1.21-1.72,3.57-1.61,5.33a4.33,4.33,0,0,0,4.27,4.27,4.29,4.29,0,0,0,4.22-4C1465.65,1283.05,1465.66,1279.5,1463.29,1278.29Z" transform="translate(-1154.3 -605.38)"/><path class="cls-3" d="M1453.17,1132.7c-.31-.31-1.44-1.16-.17-.13a9,9,0,0,0-1.06-.78,8.3,8.3,0,0,0-3.44-.8c-2.11-.24-3.89,2-3.89,3.9s1.78,4.13,3.89,3.9l.63-.06a3,3,0,0,0,1.5,1,2.7,2.7,0,0,0,2.5-.77,4.55,4.55,0,0,0,.66-5.49A7.27,7.27,0,0,0,1453.17,1132.7Zm-5.11,4.17c0,.05,0,.1,0,.14C1447.8,1136.42,1448,1136.59,1448.06,1136.87Zm.08.28a.19.19,0,0,1,0,.07C1448.13,1137.16,1448.12,1137.13,1448.14,1137.15Z" transform="translate(-1154.3 -605.38)"/></svg>