<svg id="Warstwa_2" data-name="Warstwa 2" xmlns="http://www.w3.org/2000/svg" viewBox="0 0 162.39 231.82"><defs><style>.cls-1{fill:#dbf5fc;}.cls-2{fill:#231f20;}.cls-3{fill:#ceebf2;}.cls-4{fill:#fffef3;}</style></defs><path class="cls-1" d="M762.46,201.1c-41.46,0-75.32-11.35-77.56-25.65l14.69,177.09h0a102.52,102.52,0,0,0,125.74,0h0L840,175.45C837.78,189.75,803.92,201.1,762.46,201.1Z" transform="translate(-681.15 -144.63)"/><path class="cls-2" d="M764.79,198.76c-18.27-.1-36.74-1.95-54.15-7.73-8.51-2.83-21.21-7.92-23.23-17.9.07.36-5.16,3-5,4.64q7.33,88.54,14.69,177.09h.18c.83,0,4.24,3.23,5,3.78,1.75,1.22,3.57,2.33,5.39,3.43a102.31,102.31,0,0,0,37,13.18,103.12,103.12,0,0,0,69.92-14.41c4.36-2.65,9.53-5.64,12.8-9.69,1.37-1.7.89-5.54,1.06-7.57L838,227.91l4.52-54.6c0,.15-4.7,2.69-5,4.28-2.11,10.42-18.68,13.81-27.38,16.07-14.74,3.83-30.16,5-45.34,5.1-1.71,0-4.45,4.67-4.66,4.68,20.41-.12,41.68-2.17,60.65-10.19,8.18-3.46,19.82-10.38,21.75-19.94l-5,4.28q-3.81,46-7.63,92l-5.07,61.2-1.56,18.73-.36,4.34-.06.81c.12-1.51,2-2.4-1.18-.19a95.09,95.09,0,0,1-8.6,5.22c-31.8,17.56-71.46,15.34-102.17-3.31-2.1-1.29-8.65-4.59-8.82-6.62-.12-1.4-.24-2.81-.35-4.22q-.76-9.13-1.52-18.26L689.9,203.13l-2.49-30q-2.52,2.31-5,4.64c2.15,10.63,16,15.5,24.93,18.47,16.86,5.6,35.15,7.1,52.81,7.2C761.82,203.45,764.59,198.76,764.79,198.76Z" transform="translate(-681.15 -144.63)"/><path class="cls-3" d="M826,189.56s5,3.15,3.85,14.83-7.9,126.16-9.66,136.44S808,365.7,765.18,374a102.27,102.27,0,0,0,60.15-21.49h0L840,175.45C839.2,180.69,834.12,185.53,826,189.56Z" transform="translate(-681.15 -144.63)"/><ellipse class="cls-1" cx="81.31" cy="29.31" rx="77.69" ry="27.16"/><path class="cls-2" d="M836.88,172.93c-.44,9.6-11.65,14.65-19.29,17.76-15.49,6.31-33,8.19-49.59,8.85-18.33.73-37.17-.73-54.87-5.72-8.74-2.46-24.57-7.63-25.09-18.87-.43-9.37,12.32-14.92,19.28-17.76,15.5-6.31,33-8.19,49.6-8.85,18.33-.73,37.17.73,54.87,5.72,8.74,2.46,24.57,7.63,25.09,18.87.09,2,6.58,2.93,6.53,2-.42-9.27-10.36-14.65-17.78-18.08-13.91-6.43-29.55-9.09-44.69-10.58a211.94,211.94,0,0,0-56.85,2.14c-12.81,2.23-27.7,5.9-37.62,14.88-19.82,17.93,21.3,31.47,32.63,34.28,33,8.18,72.67,7.83,104.63-4.42,7.76-3,19.24-8.57,19.68-18.22C843.5,173.06,836.93,171.84,836.88,172.93Z" transform="translate(-681.15 -144.63)"/><path class="cls-2" d="M836.76,174.39c-.49,10.56-16,15.47-24,18C796,197.76,778,199.09,760.53,199c-17.07-.1-34.57-2.11-50.8-7.61-8-2.7-21.1-7.86-21.57-17.89-.47-10.31,16.75-15.73,24-18,16.71-5.33,34.78-6.66,52.22-6.56,17.07.1,34.57,2.11,50.8,7.61,8,2.7,21.1,7.86,21.57,17.89.13,2.76,6.91,2,6.78-.9-.46-9.77-11.32-15.3-19.12-18.68-15.18-6.58-32.35-8.74-48.72-9.77a206.17,206.17,0,0,0-56.34,4.17c-11.38,2.48-25.57,6.49-33.69,15.5-18.47,20.48,25,32.42,37.49,35,18.69,3.78,38.08,4.2,57,2.79,15.94-1.19,32.32-4.2,46.9-10.94,7.36-3.4,16-9.12,16.44-18C843.66,170.82,836.89,171.48,836.76,174.39Z" transform="translate(-681.15 -144.63)"/><ellipse class="cls-4" cx="81.31" cy="102.98" rx="57.8" ry="20.21"/><path class="cls-4" d="M762.46,267.81c-30.88,0-56.1-8.46-57.72-19.12l8,96.44a88.77,88.77,0,0,0,99.44,0l8-96.44C818.57,259.34,793.34,267.81,762.46,267.81Z" transform="translate(-681.15 -144.63)"/><path class="cls-2" d="M816.87,248.05c-.47,7.81-12.2,11.25-18.13,13.09-12.23,3.79-25.43,4.65-38.15,4.56-12.38-.09-25-1.62-36.8-5.57-5.86-2-15.3-5.67-15.74-13-.46-7.55,13-11.48,18.13-13.09,12.23-3.78,25.43-4.64,38.15-4.55,12.38.09,25,1.62,36.8,5.57,5.86,2,15.3,5.67,15.74,13,.17,2.78,7,2,6.78-.9-.53-8.7-11.18-13.08-18.11-15.6-14.2-5.17-30-6.34-44.95-6.23-14.57.11-29.71,2-43.33,7.34-6.75,2.66-15.49,7.21-16,15.39-.52,8.45,12,13.39,18.11,15.61,14.2,5.17,30,6.34,45,6.23,14.57-.11,29.71-2,43.33-7.34,6.75-2.66,15.49-7.21,16-15.4C823.81,244.51,817.05,245.14,816.87,248.05Z" transform="translate(-681.15 -144.63)"/><path class="cls-2" d="M763.49,191.29c-15.42-.1-30.79-1.76-45.51-6.52-6.55-2.12-15.92-5.23-20.18-11.13-.6-.84-.51,0,.12-.73a15.79,15.79,0,0,1,3-2.52c3.86-2.75,8.46-4.58,12.88-6.2,15.12-5.56,31.63-7.15,47.62-7.25,15.34-.09,30.86,1.73,45.51,6.37,6.51,2.07,15.92,5.08,20.18,10.93.6.83.51,0-.12.74a15.64,15.64,0,0,1-3,2.55c-3.86,2.8-8.45,4.68-12.88,6.34-15.09,5.67-31.61,7.31-47.62,7.42-2,0-5.12,3.79-2.06,3.77,16-.1,32-1.85,47.22-6.79,7.61-2.46,15.9-5.89,21.63-11.67,10-10-31.51-20-35.71-20.72-29.24-5.28-63.85-4.61-90.91,9.12-2.68,1.36-12.3,6.19-10.72,10.46,2,5.5,11.81,8.95,16.57,10.92,16.26,6.71,34.49,8.57,51.92,8.68C763.48,195.08,766.55,191.31,763.49,191.29Z" transform="translate(-681.15 -144.63)"/><path class="cls-2" d="M764.79,198.76c-18.27-.1-36.74-1.95-54.15-7.73-8.51-2.83-21.21-7.92-23.23-17.9.07.36-5.16,3-5,4.64q7.33,88.54,14.69,177.09h.18c.83,0,4.24,3.23,5,3.78,1.75,1.22,3.57,2.33,5.39,3.43a102.31,102.31,0,0,0,37,13.18,103.12,103.12,0,0,0,69.92-14.41c4.36-2.65,9.53-5.64,12.8-9.69,1.37-1.7.89-5.54,1.06-7.57L838,227.91l4.52-54.6c0,.15-4.7,2.69-5,4.28-2.11,10.42-18.68,13.81-27.38,16.07-14.74,3.83-30.16,5-45.34,5.1-1.71,0-4.45,4.67-4.66,4.68,20.41-.12,41.68-2.17,60.65-10.19,8.18-3.46,19.82-10.38,21.75-19.94l-5,4.28q-3.81,46-7.63,92l-5.07,61.2-1.56,18.73-.36,4.34-.06.81c.12-1.51,2-2.4-1.18-.19a95.09,95.09,0,0,1-8.6,5.22c-31.8,17.56-71.46,15.34-102.17-3.31-2.1-1.29-8.65-4.59-8.82-6.62-.12-1.4-.24-2.81-.35-4.22q-.76-9.13-1.52-18.26L689.9,203.13l-2.49-30q-2.52,2.31-5,4.64c2.15,10.63,16,15.5,24.93,18.47,16.86,5.6,35.15,7.1,52.81,7.2C761.82,203.45,764.59,198.76,764.79,198.76Z" transform="translate(-681.15 -144.63)"/><path class="cls-2" d="M763.27,266.5c-12.36-.09-24.65-1.29-36.54-4.78-6.55-1.93-16.93-5.59-18.58-13.29-.4-1.86-7-1.29-6.82.52q4,47.63,7.91,95.26c.25,3.05,4.07,4,6.46,5.42a91.63,91.63,0,0,0,26.18,9.91c16.37,3.68,33.52,2.44,49.48-2.46a94.84,94.84,0,0,0,21.89-10.26c2.56-1.59,2.32-1.78,2.53-4.32q.91-10.92,1.81-21.83l6-72.24c.14-1.67-6.41-1.41-6.82.52-1.5,7-10.35,10.26-16.28,12.32-11.83,4.1-24.78,5.14-37.22,5.23-2.83,0-6.31,2.66-1.62,2.62,14.34-.11,28.73-1.51,42.45-5.89,7.23-2.31,17.7-6.42,19.49-14.8l-6.82.52q-4,47.63-7.9,95.26c-.29,3.46-10.09,6.5-13.23,7.92A81.38,81.38,0,0,1,761,359a83.79,83.79,0,0,1-31.28-7c-3-1.29-13.34-4.79-13.63-8.3q-2.16-25.87-4.3-51.76-1.8-21.75-3.61-43.5l-6.82.52c1.66,7.71,10.71,11.34,17.26,13.8,13.54,5.1,28.72,6.26,43.06,6.37C764.49,269.14,768,266.54,763.27,266.5Z" transform="translate(-681.15 -144.63)"/></svg>