<svg id="Layer_2" data-name="Layer 2" xmlns="http://www.w3.org/2000/svg" viewBox="0 0 114.63 105.08"><defs><style>.cls-1{fill:#001542;}.cls-2{fill:#e4edf1;}.cls-3{fill:#f16279;}.cls-4{fill:#cb5973;}.cls-5{fill:#b14659;}</style></defs><title>riceIcon</title><line class="cls-1" x1="79.34" y1="9.1" x2="80.69" y2="10.27"/><path class="cls-2" d="M587.72,427.86a10.38,10.38,0,0,0-20.24-.71,16.77,16.77,0,0,0-3.85-.45,16.58,16.58,0,0,0-5.7,1,9.92,9.92,0,0,0-15.28-1,14,14,0,0,0-22.7,8.84A14,14,0,1,0,515.82,463c2.41,0,31-.89,40.7.22,18.68,2.15,23.27,7,28.39,7a21.28,21.28,0,0,0,2.81-42.37Z" transform="translate(-496.68 -417.96)"/><path class="cls-1" d="M584.91,471.67c-2.24,0-4.25-.77-7-1.83a79.38,79.38,0,0,0-21.54-5.21c-8-.91-29.29-.44-37.32-.27l-3.21.06a15.47,15.47,0,0,1,0-30.94,15.83,15.83,0,0,1,3,.29,15.49,15.49,0,0,1,23.71-9,11.37,11.37,0,0,1,15.89,1.2,18.2,18.2,0,0,1,8.08-.52,11.82,11.82,0,0,1,22.39,1.1,22.72,22.72,0,0,1-4,45.08Zm-45.37-10.46c6.8,0,13.38.13,17.14.56a82.06,82.06,0,0,1,22.24,5.38c2.58,1,4.28,1.64,6,1.64a19.84,19.84,0,0,0,2.62-39.5,1.44,1.44,0,0,1-1.23-1.16,8.93,8.93,0,0,0-17.42-.62,1.45,1.45,0,0,1-1.73,1,15.35,15.35,0,0,0-8.73.5,1.44,1.44,0,0,1-1.66-.51,8.51,8.51,0,0,0-6.89-3.53,8.36,8.36,0,0,0-6.17,2.67,1.45,1.45,0,0,1-2,.13,12.45,12.45,0,0,0-7.91-2.8,12.65,12.65,0,0,0-12.46,10.73,1.45,1.45,0,0,1-1.85,1.17,12.47,12.47,0,0,0-3.7-.55,12.59,12.59,0,0,0,0,25.18l3.15-.06C523.33,461.39,531.58,461.21,539.54,461.21Z" transform="translate(-496.68 -417.96)"/><path class="cls-1" d="M510.74,447.72a1.45,1.45,0,0,1-1-2.45l3.61-3.7a1.44,1.44,0,1,1,2.07,2l-3.61,3.7A1.46,1.46,0,0,1,510.74,447.72Z" transform="translate(-496.68 -417.96)"/><path class="cls-1" d="M532.09,451.43a1.42,1.42,0,0,1-1-.41,1.44,1.44,0,0,1,0-2l3.61-3.71a1.44,1.44,0,0,1,2.06,2L533.12,451A1.44,1.44,0,0,1,532.09,451.43Z" transform="translate(-496.68 -417.96)"/><path class="cls-1" d="M531.18,438.1a1.44,1.44,0,0,1-1-2.45l3.61-3.71a1.43,1.43,0,0,1,2,0,1.45,1.45,0,0,1,0,2l-3.61,3.7A1.44,1.44,0,0,1,531.18,438.1Z" transform="translate(-496.68 -417.96)"/><path class="cls-1" d="M552.18,441.8a1.44,1.44,0,0,1-1-2.44l3.61-3.71a1.44,1.44,0,1,1,2.06,2l-3.61,3.71A1.41,1.41,0,0,1,552.18,441.8Z" transform="translate(-496.68 -417.96)"/><path class="cls-1" d="M569,451.43a1.47,1.47,0,0,1-1-.41,1.44,1.44,0,0,1,0-2l3.61-3.71a1.44,1.44,0,0,1,2.06,2L570.06,451A1.44,1.44,0,0,1,569,451.43Z" transform="translate(-496.68 -417.96)"/><path class="cls-1" d="M575.64,435.39a1.45,1.45,0,0,1-1-2.45l3.61-3.7a1.44,1.44,0,1,1,2.06,2l-3.61,3.7A1.42,1.42,0,0,1,575.64,435.39Z" transform="translate(-496.68 -417.96)"/><path class="cls-1" d="M593.17,449.57a1.42,1.42,0,0,1-1-.41,1.44,1.44,0,0,1,0-2l3.61-3.71a1.44,1.44,0,0,1,2.06,2l-3.61,3.71A1.43,1.43,0,0,1,593.17,449.57Z" transform="translate(-496.68 -417.96)"/><path class="cls-3" d="M563.83,513.84H544.17a46,46,0,0,1-46-46V455H609.88V467.8A46,46,0,0,1,563.83,513.84Z" transform="translate(-496.68 -417.96)"/><path class="cls-4" d="M605.11,455v5.06a46,46,0,0,1-46,46H539.4A46,46,0,0,1,502.8,488a46,46,0,0,0,41.37,25.81h19.66a46,46,0,0,0,46-46V455Z" transform="translate(-496.68 -417.96)"/><path class="cls-5" d="M571.94,513.13a46.07,46.07,0,0,1-8.11.71H544.17a46.07,46.07,0,0,1-8.11-.71h0l-1.33,8.47h38.54l-1.33-8.47Z" transform="translate(-496.68 -417.96)"/><path class="cls-1" d="M609.88,453.6H498.12a1.45,1.45,0,0,0-1.44,1.44V467.8a47.57,47.57,0,0,0,37.74,46.47l-1.11,7.11a1.44,1.44,0,0,0,1.42,1.66h38.54a1.44,1.44,0,0,0,1.42-1.66l-1.11-7.11a47.57,47.57,0,0,0,37.74-46.47V455A1.45,1.45,0,0,0,609.88,453.6Zm-73.47,66.56.85-5.38c.64.1,1.28.17,1.93.24l.47,0c.57.06,1.14.1,1.71.13l.63,0c.72,0,1.44,0,2.17,0h19.66c.73,0,1.45,0,2.17,0l.63,0c.57,0,1.14-.07,1.71-.13l.47,0c.65-.07,1.29-.14,1.93-.24l.85,5.38Zm72-52.36a44.68,44.68,0,0,1-37.45,44l-.71.11-1.38.18-.78.08c-.47,0-1,.08-1.42.11l-.73.05c-.71,0-1.42,0-2.14,0H544.17c-.72,0-1.43,0-2.14,0l-.73-.05c-.47,0-.95-.06-1.42-.11l-.78-.08-1.38-.18-.71-.11a44.68,44.68,0,0,1-37.45-44v-3.62H600.35a1.44,1.44,0,0,0,0-2.88H499.56v-4.82H608.44Z" transform="translate(-496.68 -417.96)"/></svg>