<svg id="Layer_2" data-name="Layer 2" xmlns="http://www.w3.org/2000/svg" viewBox="0 0 139.49 137.69"><defs><style>.cls-1{fill:#74c169;}.cls-1,.cls-2,.cls-3{stroke:#191818;stroke-miterlimit:10;stroke-width:0.75px;}.cls-2{fill:none;}.cls-3{fill:#9bcf8e;}</style></defs><title>spinachIcon</title><path class="cls-1" d="M648.49,381.84c-.34,1.15-2.45,2.69-4.4-.38s-.05-5.32-14.42-6.71-33.52-4.58-41.22-18.11-3.64-27,7.77-30.77,34.92-1.76,43.69,17.06,3.78,25.39,4.9,30.16S649.22,379.35,648.49,381.84Z" transform="translate(-571.16 -315.21)"/><path class="cls-2" d="M647.64,382.92c-.64.29-.32-9.26-25.66-29.64s-35.81-18.46-35.81-18.46" transform="translate(-571.16 -315.21)"/><path class="cls-2" d="M584.51,343.43s10.29.8,17.42-3.74c0,0-1.37-8.3-8.79-12.47" transform="translate(-571.16 -315.21)"/><path class="cls-2" d="M586.2,351.82s14.06,3.35,26.45-5.54c0,0,1.91-16.16-8.48-21.88" transform="translate(-571.16 -315.21)"/><path class="cls-2" d="M590.22,359.31s18.89,2.87,31.76-6c0,0,2.46-16.73-5.74-28.37" transform="translate(-571.16 -315.21)"/><path class="cls-2" d="M599.56,367.15s17.45,1.64,29.78-7.63a43.93,43.93,0,0,0-1.9-30.09" transform="translate(-571.16 -315.21)"/><path class="cls-2" d="M612.84,372.1s12.06.77,21.88-7.49c0,0,6-16.18-.23-29.66" transform="translate(-571.16 -315.21)"/><path class="cls-2" d="M627.14,374.53s8.24.21,13.09-3.88c0,0,3.43-10.34,2.62-20.47" transform="translate(-571.16 -315.21)"/><path class="cls-1" d="M648.14,407.25c-.64.41-2.63,1.19-3.08-1.84s3.54-9-.5-17.38-17-21.38-15.13-41.93S650.41,317,665.2,331s5.44,40.68-3,47.8-8.93,11.21-11.64,16.67S651.14,405.28,648.14,407.25Z" transform="translate(-571.16 -315.21)"/><path class="cls-2" d="M646.05,407.42c-.38-.35,13.82-42.06,1.07-83.11" transform="translate(-571.16 -315.21)"/><path class="cls-2" d="M640,326.84a44.21,44.21,0,0,0,11,15,28.05,28.05,0,0,0,6.66-15.91" transform="translate(-571.16 -315.21)"/><path class="cls-2" d="M633.86,332.92s6.7,14.31,18.3,19.59c0,0,11.47-8.07,13.8-20.81" transform="translate(-571.16 -315.21)"/><path class="cls-2" d="M630,342.51s5.84,13.73,22.48,21.36c0,0,14.88-6.44,19-21.83" transform="translate(-571.16 -315.21)"/><path class="cls-2" d="M629.31,352.33A40.87,40.87,0,0,0,652,373a36.24,36.24,0,0,0,20.76-18.46" transform="translate(-571.16 -315.21)"/><path class="cls-2" d="M633,367.82s8.15,10.55,18.18,13.69c0,0,10.2-1.87,18.17-13.58" transform="translate(-571.16 -315.21)"/><path class="cls-3" d="M651.34,394.46s-2.07-.34-2.21-3.52.29-8.4-3.08-12-12.68-9.44-13.62-23.13,7.15-16.45,12-16.29,16.43,6,17.52,23-10,21.25-10.35,25.27S652.55,393.88,651.34,394.46Z" transform="translate(-571.16 -315.21)"/><path class="cls-2" d="M650.73,394.22s-.76-6.09-.05-19.22-.64-30.15-9.41-35.16" transform="translate(-571.16 -315.21)"/><path class="cls-2" d="M650.22,341.37s.42,2.95-2,8.16a24.69,24.69,0,0,1-12.35-6.67" transform="translate(-571.16 -315.21)"/><path class="cls-2" d="M633.36,347.1A25.79,25.79,0,0,0,649.45,354s5.65-3.18,6-8.42" transform="translate(-571.16 -315.21)"/><path class="cls-2" d="M632.37,354.65s9.3,5.22,18.12,5.46c0,0,7.25-3.85,8.4-9.54" transform="translate(-571.16 -315.21)"/><path class="cls-2" d="M633.83,363s8.95,4.63,17,3.47c0,0,8.45-3.43,10.23-10.09" transform="translate(-571.16 -315.21)"/><path class="cls-2" d="M637.94,370.66s7.94,3.23,13.2,1.89c0,0,9-4.32,11-9.41" transform="translate(-571.16 -315.21)"/><path class="cls-2" d="M642.65,375.77s4.79,2.8,7.88,2.41c0,0,8.48-3,11.06-7.95" transform="translate(-571.16 -315.21)"/><path class="cls-1" d="M650.45,399s3.74-.73,1.89-2.23-8.49-.94-12.32-9.52-11.56-19.33-29.71-21.52-23.71,13-21.4,21.11,12.94,16.35,27.22,14.09,22.3-6.78,27.56-5.55S648.81,399.55,650.45,399Z" transform="translate(-571.16 -315.21)"/><path class="cls-2" d="M652.13,398.43s-5.53-6.42-29.08-13.24-32.55-10.46-32.55-10.46" transform="translate(-571.16 -315.21)"/><path class="cls-2" d="M588.39,386.31a45.28,45.28,0,0,0,13.34-7.64s-2.16-6-7.06-9.12" transform="translate(-571.16 -315.21)"/><path class="cls-2" d="M592.35,393s11.31-2.75,17.83-11.69a20.83,20.83,0,0,0-8.74-15.19" transform="translate(-571.16 -315.21)"/><path class="cls-2" d="M598.41,398s13.49-2.2,22.27-13.49c0,0,.55-11.63-11.07-18.84" transform="translate(-571.16 -315.21)"/><path class="cls-2" d="M608.23,401.13s17.33-6.47,21.2-14c0,0-.17-12.89-8.61-18.87" transform="translate(-571.16 -315.21)"/><path class="cls-2" d="M623.25,399.54s10.12-3,12-10.29c0,0,0-9.08-3.68-14.19" transform="translate(-571.16 -315.21)"/><path class="cls-1" d="M702.12,378.39s2.82,2.56,2.92.18-4.31-7.37.27-15.57,8.6-20.82-.49-36.68-24.57-11.26-29.7-4.55-5.39,20.14,5,30.25,18.75,13.83,20.9,18.78S700.7,377.4,702.12,378.39Z" transform="translate(-571.16 -315.21)"/><path class="cls-2" d="M703.58,379.39s1.85-8.27-6.75-31.22-11.05-32.36-11.05-32.36" transform="translate(-571.16 -315.21)"/><path class="cls-2" d="M675.23,321a45.23,45.23,0,0,0,14.1,6.14s3.5-5.3,3.09-11.11" transform="translate(-571.16 -315.21)"/><path class="cls-2" d="M672.2,328.23s8.95,7.43,20,7.32a20.85,20.85,0,0,0,7-16.08" transform="translate(-571.16 -315.21)"/><path class="cls-2" d="M671.85,336.05s9.82,9.51,24.12,9.8c0,0,9.65-6.51,8.5-20.13" transform="translate(-571.16 -315.21)"/><path class="cls-2" d="M675.19,345.8s15.55,10,23.86,8.66c0,0,10.24-7.84,10-18.18" transform="translate(-571.16 -315.21)"/><path class="cls-2" d="M685.44,356.89s8.43,6.34,15.44,3.51c0,0,7.27-5.44,9.18-11.43" transform="translate(-571.16 -315.21)"/><path class="cls-1" d="M643.41,426.94c-1.18-.24-2.87-2.23,0-4.41s5.3-.47,5.57-14.9,2-33.77,14.85-42.5,26.62-5.72,31.28,5.35,4.47,34.68-13.61,44.89-25,5.74-29.69,7.23S646,427.47,643.41,426.94Z" transform="translate(-571.16 -315.21)"/><path class="cls-2" d="M642.26,426.19c-.33-.62,9.22-1.05,27.57-27.9s15.62-37.13,15.62-37.13" transform="translate(-571.16 -315.21)"/><path class="cls-2" d="M676.73,360.18s0,10.32,5.08,17.07c0,0,8.18-2,11.75-9.73" transform="translate(-571.16 -315.21)"/><path class="cls-2" d="M668.5,362.51s-2.25,14.27,7.58,25.94c0,0,16.26.65,21.16-10.16" transform="translate(-571.16 -315.21)"/><path class="cls-2" d="M661.34,367.1s-1.39,19.06,8.49,31.19c0,0,16.86,1.16,27.84-7.92" transform="translate(-571.16 -315.21)"/><path class="cls-2" d="M654.26,377s-.29,17.53,9.92,29.1A44,44,0,0,0,694,401.89" transform="translate(-571.16 -315.21)"/><path class="cls-2" d="M650.36,390.64s.17,12.09,9.16,21.23c0,0,16.6,4.7,29.55-2.52" transform="translate(-571.16 -315.21)"/><path class="cls-2" d="M649,405.09s.43,8.23,4.89,12.75c0,0,10.57,2.62,20.61,1" transform="translate(-571.16 -315.21)"/><path class="cls-3" d="M647.83,407c.77.92.86,3.53-2.78,3.44s-4.44-2.94-13.62,8.2-22.54,25.23-38.06,24.05S569,430.66,572.2,419.08s18.06-29.93,38.57-26.69,23.16,11.07,27.75,12.81S646.17,405,647.83,407Z" transform="translate(-571.16 -315.21)"/><path class="cls-2" d="M648.26,408.35c-.13.69-7.87-4.92-38.94,4.7S574,432.42,574,432.42" transform="translate(-571.16 -315.21)"/><path class="cls-2" d="M580.22,438.61s6.41-8.09,6.63-16.53c0,0-7.65-3.51-15.25.31" transform="translate(-571.16 -315.21)"/><path class="cls-2" d="M588.11,441.9s10.64-9.78,10.2-25c0,0-12.33-10.62-22.89-5.2" transform="translate(-571.16 -315.21)"/><path class="cls-2" d="M596.57,442.75s12.94-14.05,12.75-29.7c0,0-12.48-11.39-26.73-11.11" transform="translate(-571.16 -315.21)"/><path class="cls-2" d="M608.29,439.39s11.12-13.55,10.32-29a43.94,43.94,0,0,0-26-15.24" transform="translate(-571.16 -315.21)"/><path class="cls-2" d="M619.81,431.15s7.39-9.57,6-22.32c0,0-10.08-14-24.71-16.4" transform="translate(-571.16 -315.21)"/><path class="cls-2" d="M629.83,420.66s4.79-6.72,4.1-13c0,0-6.65-8.64-15.51-13.63" transform="translate(-571.16 -315.21)"/><path class="cls-3" d="M623.19,343.36s-.18,1.36-3.22,3.92-5.58,8.56-7,16.27S602,390,586.46,384.48s-15.4-22.19-4-31.25,29.82-6.05,33.62-7.93S623.48,340.45,623.19,343.36Z" transform="translate(-571.16 -315.21)"/><path class="cls-2" d="M623.19,343.36A92.39,92.39,0,0,0,594,363.09c-13.28,13.57-13.12,18.47-13.12,18.47" transform="translate(-571.16 -315.21)"/><path class="cls-2" d="M588.58,385.09s-2.87-9.85-.91-15.06c0,0-7.38-.77-12.06,5.13" transform="translate(-571.16 -315.21)"/><path class="cls-2" d="M596.85,384.68s-6.38-12.68-4.3-20.12c0,0-12.55-1.28-18.17,5.79" transform="translate(-571.16 -315.21)"/><path class="cls-2" d="M600.37,382.92s-6.58-15.2-3.66-22.5c0,0-14.08-2.54-21.72,3.69" transform="translate(-571.16 -315.21)"/><path class="cls-2" d="M605.29,378.63s-6.44-11.78-3.47-22.59c0,0-14.67-4.09-22.92.69" transform="translate(-571.16 -315.21)"/><path class="cls-2" d="M609.83,372s-4.45-13-2.6-19.92c0,0-11.14-4.4-19.92-1.89" transform="translate(-571.16 -315.21)"/><path class="cls-2" d="M613.92,359.26s-1.55-7.5-.65-11c0,0-8.82-2.65-11.73-1.67" transform="translate(-571.16 -315.21)"/><path class="cls-3" d="M628.82,436.72s.68-2,3.83-1.61S640.9,436.74,645,434s11.36-11,25-9.75,15.09,9.69,14.15,14.49-8.58,15.26-25.52,13.62-19.37-13.3-23.29-14.27S629.21,438,628.82,436.72Z" transform="translate(-571.16 -315.21)"/><path class="cls-2" d="M629.16,436.16s6.14.22,19,3,29.86,4.19,36.21-3.66" transform="translate(-571.16 -315.21)"/><path class="cls-2" d="M681.41,444.12s-3-.06-7.74-3.27a24.75,24.75,0,0,1,8.56-11.12" transform="translate(-571.16 -315.21)"/><path class="cls-2" d="M678.45,426.55a25.84,25.84,0,0,0-9.34,14.79s2.23,6.09,7.35,7.25" transform="translate(-571.16 -315.21)"/><path class="cls-2" d="M671.16,424.37s-6.64,8.35-8.29,17c0,0,2.64,7.78,8.07,9.82" transform="translate(-571.16 -315.21)"/><path class="cls-2" d="M662.71,424.48s-6,8.1-6.14,16.21c0,0,2,8.88,8.32,11.71" transform="translate(-571.16 -315.21)"/><path class="cls-2" d="M654.46,427.3s-4.45,7.32-4,12.74c0,0,2.82,9.56,7.53,12.3" transform="translate(-571.16 -315.21)"/><path class="cls-2" d="M648.67,431.14s-3.54,4.28-3.65,7.39c0,0,1.62,8.86,6.08,12.19" transform="translate(-571.16 -315.21)"/><path class="cls-3" d="M639.55,434.25s-2.07-.35-2.2-3.52.28-8.41-3.08-12-12.69-9.45-13.63-23.14,7.15-16.45,12-16.29,16.43,6,17.52,23-10,21.26-10.35,25.27S640.76,433.66,639.55,434.25Z" transform="translate(-571.16 -315.21)"/><path class="cls-2" d="M639,434s-.77-6.09-.05-19.22-.65-30.14-9.42-35.15" transform="translate(-571.16 -315.21)"/><path class="cls-2" d="M638.43,381.16s.43,2.95-2,8.16a24.78,24.78,0,0,1-12.35-6.67" transform="translate(-571.16 -315.21)"/><path class="cls-2" d="M621.57,386.89a25.82,25.82,0,0,0,16.09,6.85s5.65-3.18,6-8.42" transform="translate(-571.16 -315.21)"/><path class="cls-2" d="M620.58,394.44s9.3,5.21,18.12,5.45c0,0,7.25-3.85,8.4-9.54" transform="translate(-571.16 -315.21)"/><path class="cls-2" d="M622,402.75s9,4.63,17,3.47c0,0,8.45-3.42,10.23-10.08" transform="translate(-571.16 -315.21)"/><path class="cls-2" d="M626.15,410.45s7.94,3.22,13.2,1.88c0,0,9-4.31,10.95-9.4" transform="translate(-571.16 -315.21)"/><path class="cls-2" d="M630.87,415.55s4.79,2.81,7.87,2.41c0,0,8.48-3,11.06-7.95" transform="translate(-571.16 -315.21)"/></svg>