<svg id="Layer_2" data-name="Layer 2" xmlns="http://www.w3.org/2000/svg" viewBox="0 0 270.93 247.02"><defs><style>.cls-1{fill:#e9d9c5;}.cls-2{fill:#f9d5a4;}.cls-3{fill:#53353a;}</style></defs><title>sugarIcon</title><path class="cls-1" d="M1065.69,1073.18l-2.31-2.31-34.82-34.82q-3.84,15.33-7.67,30.67l36.38,40.51,4.89-19.59q1.69-6.73,3.37-13.45C1065.89,1072.75,1066,1073.49,1065.69,1073.18Z" transform="translate(-972.01 -900.34)"/><path class="cls-1" d="M1089.52,968.31l39.12-28.22,6.44-4.64a2.55,2.55,0,0,1-.12-.48c-.31-1.83-.63-3.67-.94-5.5q-1.93-11.22-3.85-22.44L1083.83,941q2,9.82,4.09,19.66C1088.45,963.18,1089,965.75,1089.52,968.31Z" transform="translate(-972.01 -900.34)"/><path class="cls-1" d="M1165.47,957.66q-3.9-13.57-7.81-27.14c.24.85-.76-.55-1.16-.93l-3-2.9-9.66-9.34-6-5.83,3.87,22.57Z" transform="translate(-972.01 -900.34)"/><path class="cls-1" d="M1091.7,973.14l25.52,30.19L1168,968.89l-30.86-30.58-46.54,33.57C1090.88,972.19,1091.22,972.58,1091.7,973.14Z" transform="translate(-972.01 -900.34)"/><path class="cls-1" d="M979.24,1098.19q20.37,21.91,40.76,43.82l35-28-38.65-43Z" transform="translate(-972.01 -900.34)"/><path class="cls-1" d="M1022.3,1036.23q-16.47,12-32.95,24l-.59.46c-.13.51-.27,1-.41,1.53q-1.74,6.54-3.5,13.07-2.34,8.68-4.67,17.39l34.31-25.16Q1018.39,1051.86,1022.3,1036.23Z" transform="translate(-972.01 -900.34)"/><path class="cls-2" d="M988.58,1060.82c-.59.54-.34.55,0,0Z" transform="translate(-972.01 -900.34)"/><path class="cls-1" d="M1222.47,1059.83q-2.62-4.12-5.24-8.24-5.85,20.94-11.71,41.89,8,15.18,15.94,30.36,6.07-17.33,12.13-34.66l2.53-7.26c.07-.18.11-.3.15-.38l-.89-1.4Q1228.92,1070,1222.47,1059.83Z" transform="translate(-972.01 -900.34)"/><path class="cls-1" d="M1144.39,1096l.2.3,13.63,21,6.42,9.87,1.68,2.58c.06.09.09.15.13.22h50.71l-17.82-34Z" transform="translate(-972.01 -900.34)"/><path class="cls-1" d="M1212.57,1045.71h-51.11q-8.3,21.22-16.6,42.43c-.56,1.45-1.13,2.89-1.69,4.33h56.33Z" transform="translate(-972.01 -900.34)"/><path class="cls-3" d="M1083.91,973.31a10.4,10.4,0,0,0,1.36,2.09l27.64,32.69c.83,1,2.89.82,4.45.14a3.48,3.48,0,0,0,.67-.33l.22-.15.08,0,55.93-37.91a3.93,3.93,0,0,0,.93-.86,1.09,1.09,0,0,0,.22-1.36q-5.6-19.41-11.18-38.81c-.39-1.35-2.57-2.73-3.51-3.64l-10-9.67-14.87-14.37c-1.27-1.23-3.82-.75-5.12.19l-52.48,38.43c-.65.47-1.39,1.12-1.2,2q2.15,10.34,4.3,20.66c.7,3.39.89,7.2,2.3,10.38C1083.54,973,1083.65,973.18,1083.91,973.31Zm59.93-56,9.66,9.34,3,2.9c.4.38,1.4,1.78,1.16.93q3.9,13.56,7.81,27.14l-23.79-23.57-3.87-22.57Zm-6.66,21L1168,968.89l-50.82,34.44-25.52-30.19c-.48-.56-.82-.95-1.06-1.26Zm-7-31.28q1.92,11.22,3.85,22.44c.31,1.83.63,3.67.94,5.5a2.55,2.55,0,0,0,.12.48l-6.44,4.64-39.12,28.22c-.54-2.56-1.07-5.13-1.6-7.69q-2.06-9.84-4.09-19.66Z" transform="translate(-972.01 -900.34)"/><path class="cls-3" d="M1232.8,1063.94l-12.58-19.8a4.65,4.65,0,0,0-.71-.86c.06-.72-.77-1-1.87-1-1.76-.48-3.9-.11-5.92-.11h-51.37c-1.55,0-3.94.59-4.57,2.22q-7.65,19.55-15.29,39.08c-.75,1.9-5.23,9.65-4.22,11.9a.5.5,0,0,0,0,.13l0,0,9.74,15,13.12,20.19c2.13,3.27,3.89,2.8,7.65,2.8h52.82c2.14.79,6-.74,5.53-2.44q6.88-19.68,13.76-39.34c.72-2.07,5.06-10.11,3.73-12.22Zm-87.94,24.2q8.31-21.21,16.6-42.43h51.11l-13.07,46.76h-56.33C1143.73,1091,1144.3,1089.59,1144.86,1088.14Zm36.6,41.78h-15c0-.07-.07-.13-.13-.22l-1.68-2.58-6.42-9.87-13.63-21-.2-.3h54.95l17.82,34Zm54.66-48-2.53,7.26q-6.06,17.33-12.13,34.66-8-15.18-15.94-30.36,5.85-21,11.71-41.89,2.63,4.11,5.24,8.24,6.45,10.15,12.91,20.31l.89,1.4C1236.23,1081.62,1236.19,1081.74,1236.12,1081.92Z" transform="translate(-972.01 -900.34)"/><path class="cls-3" d="M1030,1029a1.12,1.12,0,0,0-.42-.23,4.94,4.94,0,0,0-4.76.2l-40.33,29.33c-4.28,3.11-4.69,11.78-6,16.55l-6.39,23.8a.57.57,0,0,0-.1.54,1.07,1.07,0,0,0,.72,1.1l43.14,46.39c1.32,1.43,4.48.19,5.68-.77l39.83-31.86a1.57,1.57,0,0,0,.66-1.24q3.3-13.17,6.59-26.34l3.36-13.44c.5-2-.24-2.26-1.69-3.71Zm-41.43,31.78c-.34.55-.59.54,0,0Zm-3.73,14.43q1.75-6.54,3.5-13.07c.14-.51.28-1,.41-1.53l.59-.46q16.49-12,32.95-24-3.9,15.63-7.81,31.25l-34.31,25.16Q982.52,1083.94,984.85,1075.25ZM1020,1142q-20.38-21.91-40.76-43.82l37.09-27.2,38.65,43Zm45.53-67.82q-1.68,6.72-3.37,13.45l-4.89,19.59-36.38-40.51q3.84-15.35,7.67-30.67l34.82,34.82,2.31,2.31C1066,1073.49,1065.89,1072.75,1065.53,1074.19Z" transform="translate(-972.01 -900.34)"/></svg>