<svg id="Warstwa_2" data-name="Warstwa 2" xmlns="http://www.w3.org/2000/svg" viewBox="0 0 225.65 230.41"><defs><style>.cls-1{fill:#c9f2ff;}.cls-2{fill:#f47653;}.cls-3{fill:#ea5f3f;}.cls-4{fill:#7e69cc;}.cls-5{fill:#27b3c1;}.cls-6{fill:#957bda;}.cls-7{fill:#335687;}.cls-8{fill:#41c9e0;}.cls-9{fill:#ffc88d;}.cls-10{fill:#fed29b;}.cls-11{fill:#59e1ef;}.a{fill:#fff}</style></defs><path class="cls-1 cls-1__clouds cls-1__clouds--cloudOne" d="M271.81,127.06a14.77,14.77,0,0,0-4.07.57A14.81,14.81,0,1,0,240,124.18a10.51,10.51,0,0,0-13.15,9.18,13.27,13.27,0,1,0-8.68,23.31h53.63a14.81,14.81,0,0,0,0-29.61Z" transform="translate(-60.96 -85.32)"/><path class="cls-1 cls-1__clouds cls-1__clouds--cloudTwo" d="M139.33,170.76a17.37,17.37,0,0,0-4.76.66,17.35,17.35,0,1,0-32.88-7.71,17.71,17.71,0,0,0,.39,3.67A12.14,12.14,0,0,0,99,167a12.36,12.36,0,0,0-12.3,11.17,15.55,15.55,0,1,0-10.17,27.31h62.82a17.35,17.35,0,1,0,0-34.69Z" transform="translate(-60.96 -85.32)"/><path class="cls-2 cls-2__stars cls-2__stars--one" d="M132.11,109l-.8-.06a1,1,0,0,1-.86-.86l-.06-.79a.76.76,0,1,0-1.52,0l-.06.79a1,1,0,0,1-.86.86l-.79.06a.76.76,0,1,0,0,1.52l.79.07a1,1,0,0,1,.86.85l.06.8a.76.76,0,1,0,1.52,0l.06-.8a1,1,0,0,1,.86-.85l.8-.07a.76.76,0,1,0,0-1.52Z" transform="translate(-60.96 -85.32)"/><path class="cls-3 cls-2__stars cls-2__stars--two" d="M124,126.5l-1.26-.11a1.52,1.52,0,0,1-1.34-1.34l-.1-1.25a1.2,1.2,0,1,0-2.39,0l-.1,1.25a1.52,1.52,0,0,1-1.34,1.34l-1.26.11a1.19,1.19,0,1,0,0,2.38l1.26.1a1.54,1.54,0,0,1,1.34,1.35l.1,1.25a1.2,1.2,0,1,0,2.39,0l.1-1.25a1.54,1.54,0,0,1,1.34-1.35l1.26-.1a1.19,1.19,0,1,0,0-2.38Z" transform="translate(-60.96 -85.32)"/><path class="cls-4 cls-2__stars cls-2__stars--three" d="M86.89,131.29l1.06.09a1.3,1.3,0,0,1,1.13,1.13l.09,1.06a1,1,0,1,0,2,0l.09-1.06a1.3,1.3,0,0,1,1.14-1.13l1.06-.09a1,1,0,1,0,0-2l-1.06-.09a1.3,1.3,0,0,1-1.14-1.14L91.18,127a1,1,0,1,0-2,0l-.09,1.05A1.3,1.3,0,0,1,88,129.19l-1.06.09a1,1,0,1,0,0,2Z" transform="translate(-60.96 -85.32)"/><path class="cls-5 cls-2__stars cls-2__stars--five" d="M192.48,106.35l.54,0a.64.64,0,0,1,.57.58l0,.53a.51.51,0,1,0,1,0l.05-.53a.64.64,0,0,1,.57-.58l.54,0a.52.52,0,1,0,0-1l-.54,0a.65.65,0,0,1-.57-.58l-.05-.53a.51.51,0,1,0-1,0l0,.53a.65.65,0,0,1-.57.58l-.54,0a.52.52,0,1,0,0,1Z" transform="translate(-60.96 -85.32)"/><path class="cls-4 cls-2__stars cls-2__stars--four" d="M254.82,204.91a1.19,1.19,0,0,1,1.05,1.05l.08,1a.93.93,0,1,0,1.86,0l.08-1a1.19,1.19,0,0,1,1-1.05l1-.08a.93.93,0,1,0,0-1.85l-1-.08a1.19,1.19,0,0,1-1-1.05l-.08-1a.93.93,0,1,0-1.86,0l-.08,1a1.19,1.19,0,0,1-1.05,1.05l-1,.08a.93.93,0,1,0,0,1.85Z" transform="translate(-60.96 -85.32)"/><path class="cls-5 cls-2__stars cls-2__stars--six" d="M106.05,240l.75.06a.93.93,0,0,1,.81.81l.06.75a.71.71,0,1,0,1.42,0l.07-.75a.91.91,0,0,1,.8-.81l.75-.06a.78.78,0,0,0,.74-.71.78.78,0,0,0-.74-.72l-.75-.06a.9.9,0,0,1-.8-.8l-.07-.75a.71.71,0,1,0-1.42,0l-.06.75a.92.92,0,0,1-.81.8l-.75.06a.78.78,0,0,0-.74.72A.78.78,0,0,0,106.05,240Z" transform="translate(-60.96 -85.32)"/><path class="cls-2 cls-2__circles cls-2__circles--one" d="M275.52,185.88a5.86,5.86,0,1,0-5.85-5.86A5.86,5.86,0,0,0,275.52,185.88Zm-2.5-8.37a3.55,3.55,0,1,1-1,2.51A3.52,3.52,0,0,1,273,177.51Z" transform="translate(-60.96 -85.32)"/><path class="cls-3 cls-2__circles cls-2__circles--three" d="M246.68,171a5.16,5.16,0,1,0,5.16,5.15A5.16,5.16,0,0,0,246.68,171Zm2.21,7.36a3.14,3.14,0,1,1,.91-2.21A3.13,3.13,0,0,1,248.89,178.39Z" transform="translate(-60.96 -85.32)"/><path class="cls-2 cls-2__circles cls-2__circles--two" d="M179.6,91a5.71,5.71,0,1,0-5.71,5.71A5.71,5.71,0,0,0,179.6,91Zm-9.17,0a3.48,3.48,0,1,1,1,2.44A3.45,3.45,0,0,1,170.43,91Z" transform="translate(-60.96 -85.32)"/><path class="cls-4 cls-2__circles cls-2__circles--four" d="M90.26,228.67a5.85,5.85,0,1,0-5.84-5.85A5.84,5.84,0,0,0,90.26,228.67Zm-2.5-8.35a3.54,3.54,0,1,1,5,5,3.55,3.55,0,0,1-5,0,3.54,3.54,0,0,1,0-5Z" transform="translate(-60.96 -85.32)"/><path class="cls-5 cls-2__circles cls-2__circles--five" d="M97.85,115.2a4.47,4.47,0,1,0,4.46,4.47A4.47,4.47,0,0,0,97.85,115.2Zm1.91,6.38a2.7,2.7,0,1,1,.79-1.91A2.68,2.68,0,0,1,99.76,121.58Z" transform="translate(-60.96 -85.32)"/><path class="cls-4" d="M245.76,298.73V270.15s-.08-7.78-1-10.89c-2.91-10.26-14.63-32.34-61.42-32.34h-3.56c-11.84,0-21.43,1.42-29.21,3.69-22.89,6.71-30,20.91-32.19,28.59a46.16,46.16,0,0,0-1,9v30.53Z" transform="translate(-60.96 -85.32)"/><path class="cls-6" d="M181.59,226.92h-1.78c-11.84,0-21.43,1.42-29.21,3.69-22.89,6.71-30,20.91-32.19,28.59a46.16,46.16,0,0,0-1,9v30.53h64.17Z" transform="translate(-60.96 -85.32)"/><path class="cls-7" d="M245.76,298.73h2V270.14h0s0-2-.16-4.37c-.06-1.2-.16-2.49-.29-3.71a23.43,23.43,0,0,0-.59-3.34,39.89,39.89,0,0,0-15-21.07,58.37,58.37,0,0,0-18.88-9c-7.93-2.29-17.62-3.69-29.48-3.69h-3.56c-12,0-21.78,1.44-29.77,3.77-11.76,3.44-19.61,8.88-24.77,14.5a38.77,38.77,0,0,0-8.79,15.46,22.28,22.28,0,0,0-.59,3,61.76,61.76,0,0,0-.46,6.51v32.56H247.76v-2h-2v-2H119.42V268.2h-2l2,0a2.17,2.17,0,0,0,0-.24c0-.56.06-2,.2-3.66a25.94,25.94,0,0,1,.7-4.58,34.55,34.55,0,0,1,7.89-13.86c4.67-5.07,11.81-10.09,22.95-13.36,7.56-2.21,17-3.61,28.64-3.61h3.56a102.38,102.38,0,0,1,28.38,3.54c11.27,3.25,18.49,8.3,23.19,13.41a34.61,34.61,0,0,1,7.93,13.93,17.81,17.81,0,0,1,.46,2.69c.19,1.67.3,3.61.36,5.11,0,.75,0,1.4.05,1.85,0,.23,0,.41,0,.54s0,.18,0,.18l2,0h-2v28.58h2v0Z" transform="translate(-60.96 -85.32)"/><rect class="cls-8" x="115.11" y="157.98" width="11.05" height="32.07"/><path class="cls-9" d="M220,182.47a4.51,4.51,0,0,0-.53-.08c-.66-25.65-10.63-42.35-38.09-41.68-29.93.73-37.05,16-37.71,41.68a4.51,4.51,0,0,0-.53.08c-3.07.7-4.64,5.26-3.52,10.18,1.08,4.72,4.26,8,7.22,7.69a57.48,57.48,0,0,0,11.86,18.33v2a46,46,0,0,0,20.19,22.63h5.36a46,46,0,0,0,20.19-22.63v-1.53a56.13,56.13,0,0,0,12-18.78c2.93.26,6-3.05,7.1-7.71C224.66,187.73,223.09,183.17,220,182.47Z" transform="translate(-60.96 -85.32)"/><path class="cls-10" d="M181.59,140.7h-.19c-29.93.73-37.05,16-37.71,41.68a4.51,4.51,0,0,0-.53.08c-3.07.7-4.64,5.26-3.52,10.18,1.08,4.72,4.26,8,7.22,7.69a57.48,57.48,0,0,0,11.86,18.33v2a46,46,0,0,0,20.19,22.63h2.68Z" transform="translate(-60.96 -85.32)"/><path class="cls-7" d="M220,182.47l.47-1.94a5.51,5.51,0,0,0-.81-.13l-.19,2,2,0a73.37,73.37,0,0,0-2.36-17.61,41,41,0,0,0-4.58-10.8,29.85,29.85,0,0,0-12.31-11.28c-5.26-2.61-11.65-4-19.26-4-.54,0-1.08,0-1.63,0-7.65.18-13.94,1.3-19.11,3.35a29.46,29.46,0,0,0-9.78,6.18,31.83,31.83,0,0,0-8.24,14.51,79.37,79.37,0,0,0-2.53,19.59l2,0-.18-2a6.37,6.37,0,0,0-.81.12h0a5.75,5.75,0,0,0-2.46,1.25,7.88,7.88,0,0,0-2.25,3.39,12.71,12.71,0,0,0-.72,4.34,16.08,16.08,0,0,0,.41,3.59,14.73,14.73,0,0,0,3.17,6.43,9.11,9.11,0,0,0,2.5,2,6.36,6.36,0,0,0,3.06.82,5.17,5.17,0,0,0,.68,0l-.24-2-1.86.73a59.44,59.44,0,0,0,12.27,19l1.45-1.38h-2v2.39l.15.37.12.3A48.24,48.24,0,0,0,177.93,245l.46.26h6.4l.46-.26a49.12,49.12,0,0,0,16.22-14.72,47,47,0,0,0,3.57-6c.39-.8.69-1.46.9-2,.11-.25.19-.45.25-.61s.11-.28.12-.3l.15-.36v-1.93h-2l1.45,1.39a58.47,58.47,0,0,0,12.41-19.47l-1.88-.7-.17,2,.5,0a6.36,6.36,0,0,0,3.06-.82,10.15,10.15,0,0,0,3.53-3.38,15.53,15.53,0,0,0,2.13-5.07,16.23,16.23,0,0,0,.41-3.6,11.76,11.76,0,0,0-1.28-5.6,7.14,7.14,0,0,0-1.69-2.13,5.75,5.75,0,0,0-2.46-1.25l-.45,1.95.47-1.94-.47,1.94-.44,1.95a1.7,1.7,0,0,1,.76.4,4,4,0,0,1,1.09,1.71,9,9,0,0,1,.47,3,12.3,12.3,0,0,1-.31,2.7,10.68,10.68,0,0,1-2.26,4.67,5.14,5.14,0,0,1-1.41,1.17,2.42,2.42,0,0,1-1.15.33h-.15l-1.51-.13-.54,1.42A54.35,54.35,0,0,1,203,217.76l-.56.58v2.33h2l-1.84-.77-.14.34a44.21,44.21,0,0,1-19.19,21.31l1,1.75v-2h-5.36v2l1-1.75A45.1,45.1,0,0,1,165,228a41.88,41.88,0,0,1-3.26-5.5c-.36-.72-.62-1.31-.81-1.75l-.22-.54-.13-.34-1.85.77h2v-2.8l-.55-.58a55.36,55.36,0,0,1-11.45-17.68l-.56-1.44-1.54.19h-.2a2.49,2.49,0,0,1-1.16-.33,6.31,6.31,0,0,1-2.1-2.08,11.64,11.64,0,0,1-1.57-3.76,12.37,12.37,0,0,1-.31-2.7,8,8,0,0,1,.8-3.7,3.4,3.4,0,0,1,.76-1,1.76,1.76,0,0,1,.76-.4h0l.25,0,1.77-.16.05-1.78a80.83,80.83,0,0,1,1.91-16.81,34.32,34.32,0,0,1,3.75-9.58A23.73,23.73,0,0,1,162,146.5c4.84-2.26,11.18-3.6,19.41-3.8H183a40.67,40.67,0,0,1,15.91,2.82,26,26,0,0,1,8.23,5.44A31.23,31.23,0,0,1,214.74,164a66.14,66.14,0,0,1,2.75,18.44l0,1.78,1.77.16.25,0h0Z" transform="translate(-60.96 -85.32)"/><path class="cls-7" d="M275.28,257.36" transform="translate(-60.96 -85.32)"/><path class="cls-7" d="M271.28,261.36" transform="translate(-60.96 -85.32)"/><line class="cls-7" x1="190.92" y1="163.95" x2="198.23" y2="163.95"/><path class="cls-7" d="M251.88,280.76" transform="translate(-60.96 -85.32)"/><path class="cls-7" d="M259.19,268.68" transform="translate(-60.96 -85.32)"/><polygon class="cls-7" points="126.15 190.04 126.15 188.04 117.11 188.04 117.11 159.98 124.15 159.98 124.15 190.04 126.15 190.04 126.15 188.04 126.15 190.04 128.15 190.04 128.15 155.98 113.11 155.98 113.11 192.04 128.15 192.04 128.15 190.04 126.15 190.04"/><path class="cls-2" d="M216,147.46l-7.1-10.13A9.72,9.72,0,0,0,206,134.4h0s-6.26-5.91-27.53-3.72-28.45,2.57-35.81-2.56c0,0-4.65,9.88-.39,24.86h0c-4,6.76-5.1,14.16-1.13,22.6a50.54,50.54,0,0,1,3.27,9.07c1.2,5,1.62,8.25,1.62,8.25h1.1a95.06,95.06,0,0,0,1.34-16.19c0-6.18.73-10,3.41-13.33,2.56,2.59,7.21,6.26,13,6.26,9,0,12.09-1.14,25.7-7.29a55.13,55.13,0,0,1,10.81-3.76c.27,1.91,1.84,8.67,11.17,15,3,3.37,3.43,19.34,3.43,19.34h.82a97.09,97.09,0,0,1,3.33-12.23C226.19,165.81,224.85,154,216,147.46Z" transform="translate(-60.96 -85.32)"/><path class="cls-7" d="M216,147.46l1.64-1.15-7.1-10.12-1.64,1.14,1.76-1a11.73,11.73,0,0,0-3.57-3.62L206,134.4h2v-.86l-.63-.6a14.15,14.15,0,0,0-4.68-2.52c-3.13-1.14-8-2.23-15.29-2.23a89.34,89.34,0,0,0-9.14.5c-9,.93-15.39,1.52-20.26,1.52a31.49,31.49,0,0,1-8.14-.86,18.91,18.91,0,0,1-6.06-2.87l-1.95-1.35-1,2.14c-.09.19-2.38,5.12-2.38,13.25a47.49,47.49,0,0,0,1.87,13l.58,2,2-.68-.65-1.9-1.72-1a24.74,24.74,0,0,0-1.22,24.46,47.85,47.85,0,0,1,3.13,8.68h0c.59,2.45,1,4.47,1.24,5.88.12.7.21,1.25.27,1.62,0,.18,0,.32.06.41v.13l.22,1.74h4.52l.31-1.62a97.72,97.72,0,0,0,1.37-16.57,31.77,31.77,0,0,1,.64-7.28,11.59,11.59,0,0,1,2.32-4.79l-1.55-1.26-1.42,1.41a26.42,26.42,0,0,0,5.74,4.44,17.79,17.79,0,0,0,8.72,2.41,52.35,52.35,0,0,0,6.12-.29,35.55,35.55,0,0,0,8.52-2.11c3.12-1.14,6.77-2.76,11.88-5.07a54,54,0,0,1,10.41-3.63l-.42-1.95-2,.27a18.21,18.21,0,0,0,2.44,6.58,30.72,30.72,0,0,0,9.59,9.78l1.12-1.66-1.5,1.32a4.43,4.43,0,0,1,.64,1.21,25.83,25.83,0,0,1,1.15,4.59c.47,2.73.76,5.83.92,8.21.09,1.2.14,2.22.18,2.94,0,.36,0,.65,0,.84s0,.29,0,.29l.06,1.94h4.44l.29-1.65v0A100.47,100.47,0,0,1,222,181.29l-1.9-.63,1.86.76a46.52,46.52,0,0,0,3.85-17.25,24.46,24.46,0,0,0-2.15-10.41,20.77,20.77,0,0,0-6.52-7.91L216,147.46l1.64-1.15L216,147.46l-1.19,1.6a16.7,16.7,0,0,1,5.27,6.39,20.41,20.41,0,0,1,1.78,8.72,42.48,42.48,0,0,1-3.56,15.74l0,.06,0,.06a96.32,96.32,0,0,0-3.4,12.52l2,.34v-2H216v2l2,0s-.12-4.06-.61-8.57a59.08,59.08,0,0,0-1.08-6.73,21.85,21.85,0,0,0-.88-2.92,7.94,7.94,0,0,0-1.36-2.39l-.17-.2-.21-.14a26.81,26.81,0,0,1-8.38-8.48,14.22,14.22,0,0,1-1.93-5.11l-.3-2.13-2.11.45a56.79,56.79,0,0,0-11.2,3.9c-6.8,3.07-10.93,4.86-14.33,5.85a28.13,28.13,0,0,1-4.89,1,49.66,49.66,0,0,1-5.66.26,13.84,13.84,0,0,1-6.77-1.9,22.38,22.38,0,0,1-4.85-3.77l-1.56-1.58-1.41,1.73a15.62,15.62,0,0,0-3.11,6.37,35.53,35.53,0,0,0-.75,8.22,99.54,99.54,0,0,1-.66,11.33c-.16,1.41-.32,2.55-.44,3.32-.06.39-.11.68-.15.88l0,.22v.07l2,.37v-2H146v2l2-.25a85.67,85.67,0,0,0-1.66-8.47h0a52.08,52.08,0,0,0-3.4-9.45A20.75,20.75,0,0,1,144,154l2.73-4.65-5.11,1.74.65,1.9,1.92-.55a43.64,43.64,0,0,1-1.72-11.91,34.82,34.82,0,0,1,1-8.61c.26-1,.51-1.75.69-2.25.09-.25.17-.43.22-.55l0-.12v0l-.48-.22.48.22h0l-.48-.22.48.22-1.81-.85-1.15,1.64a22.81,22.81,0,0,0,7.31,3.45,35.53,35.53,0,0,0,9.18,1c5.19,0,11.69-.61,20.67-1.54a87.42,87.42,0,0,1,8.73-.48c6.87,0,11.28,1,13.92,2a15.26,15.26,0,0,1,2.71,1.26c.26.16.43.29.53.36l.08.07h0l.61-.7-.64.67,0,0,.61-.7-.64.67L206,134.4h-2v1.06l.87.6a9.3,9.3,0,0,1,1.86,1.64c.19.22.31.39.39.5l.07.11h0l.95-.55-1,.53v0l.95-.55-1,.53.05.09,7.35,10.48.26.19Z" transform="translate(-60.96 -85.32)"/><path class="cls-8" d="M184.27,243.3l13.5,13.13s13.62-19.54,12.81-24.59a18,18,0,0,0-6.12-11.17S197.57,235.9,184.27,243.3Z" transform="translate(-60.96 -85.32)"/><path class="cls-11" d="M178.92,243.3l-13.5,13.13s-13.62-19.54-12.82-24.59a18.06,18.06,0,0,1,6.12-11.17S165.61,235.9,178.92,243.3Z" transform="translate(-60.96 -85.32)"/><path class="cls-7" d="M184.27,243.3l-1.4,1.43,15.19,14.78,1.35-1.94s3.24-4.65,6.49-10c1.63-2.7,3.26-5.58,4.52-8.2a35.67,35.67,0,0,0,1.54-3.72,10.75,10.75,0,0,0,.66-3.31,5.12,5.12,0,0,0-.06-.78h0a21.76,21.76,0,0,0-2-6.34,19.22,19.22,0,0,0-4.78-6.05l-2-1.71-1.09,2.41h0a55.9,55.9,0,0,1-5.07,8.41c-3.27,4.54-8.1,9.87-14.27,13.29L181,242.86l1.92,1.87,1.4-1.43,1,1.75c7-3.92,12.24-9.8,15.74-14.68a58.78,58.78,0,0,0,5.31-8.88l-1.83-.82-1.29,1.52A15.3,15.3,0,0,1,207,227a17.57,17.57,0,0,1,1.64,5.16h0v.15a7,7,0,0,1-.45,2,43.55,43.55,0,0,1-2.82,6.14c-1.86,3.45-4.18,7.17-6,10-.92,1.42-1.72,2.62-2.29,3.47-.29.42-.52.75-.67,1l-.24.35,1.64,1.14,1.39-1.43-13.5-13.14-1.39,1.44,1,1.75Z" transform="translate(-60.96 -85.32)"/><path class="cls-7" d="M178.92,243.3l-1.4-1.44L164,255l1.4,1.43,1.64-1.14-.14-.21c-.69-1-3.85-5.62-6.81-10.6-1.48-2.49-2.91-5.08-3.94-7.31a27.69,27.69,0,0,1-1.21-3,6.56,6.56,0,0,1-.39-1.86v-.15a17.54,17.54,0,0,1,1.63-5.16,15.3,15.3,0,0,1,3.8-4.81l-1.29-1.52-1.82.82a58.14,58.14,0,0,0,5.3,8.88c3.5,4.88,8.71,10.76,15.75,14.68l1-1.75-1.4-1.44,1.4,1.44,1-1.75c-6.27-3.48-11.16-8.92-14.43-13.5a59.31,59.31,0,0,1-3.7-5.86c-.41-.74-.72-1.34-.93-1.75l-.22-.46-.05-.11v0h0l-1.09-2.41-2,1.71a19.38,19.38,0,0,0-4.79,6.05,21.43,21.43,0,0,0-2,6.34,5.22,5.22,0,0,0-.06.78,10.75,10.75,0,0,0,.66,3.31,46.21,46.21,0,0,0,3.09,6.76c3.89,7.21,9.44,15.16,9.46,15.19l1.34,1.93,17.12-16.64-2.35-1.31Z" transform="translate(-60.96 -85.32)"/><path class="cls-7" d="M257.82,300.76H104.94v-4H257.82Zm8.31,0h16.56v-4H266.13Zm-138.06,15h66.61v-4H128.07Zm74,0h31.8v-4h-31.8Zm38.34,0h15.43v-4H240.41Z" transform="translate(-60.96 -85.32)"/></svg>