<svg id="Layer_2" data-name="Layer 2" xmlns="http://www.w3.org/2000/svg" viewBox="0 0 46 62"><title>userIcon</title><path d="M279.6,312.09v-2a3,3,0,0,0,0-6v-2a5,5,0,0,1,0,10Z" transform="translate(-247.6 -285.09)"/><path d="M261.6,312.09a5,5,0,0,1,0-10v2a3,3,0,0,0,0,6Z" transform="translate(-247.6 -285.09)"/><rect x="16" y="33" width="2" height="4"/><rect x="26" y="48" width="2" height="2"/><rect x="26" y="52" width="2" height="2"/><rect x="12" y="49" width="9" height="2"/><rect x="8" y="48" width="2" height="13"/><path d="M293.6,347.09h-46V332.94a7,7,0,0,1,5.53-6.84l8.47-1.82v-.53a2.66,2.66,0,0,1,3.7-2.45l5.3,2.27,5.29-2.26a2.57,2.57,0,0,1,1.05-.22,2.66,2.66,0,0,1,2.66,2.66v.53l8.47,1.82a7,7,0,0,1,5.53,6.84Zm-14-2h12V332.94a5,5,0,0,0-4-4.89l-10-2.15v-2.15a.67.67,0,0,0-.92-.6l-4.08,1.74v3.45l7,2Zm-30,0h28V331.85l-7-2v-4.1l-6.08-2.61a.69.69,0,0,0-.92.61v2.15l-10.05,2.15a5,5,0,0,0-4,4.89Z" transform="translate(-247.6 -285.09)"/><rect x="28" y="33" width="2" height="4"/><rect x="36" y="48" width="2" height="13"/><circle cx="28" cy="21" r="1"/><circle cx="18" cy="21" r="1"/><rect x="35" y="15" width="2" height="7"/><rect x="9" y="15" width="2" height="7"/><path d="M270.6,321.09a10,10,0,0,1-10-10v-8.82l.8-.16a55.92,55.92,0,0,1,9.2-1,55.92,55.92,0,0,1,9.2,1l.8.16v8.82A10,10,0,0,1,270.6,321.09Zm-8-17.17v7.17a8,8,0,1,0,16,0v-7.17a39,39,0,0,0-16,0Z" transform="translate(-247.6 -285.09)"/><path d="M286.36,302.09a4.14,4.14,0,0,1-1.89-.45L283.2,301A42.3,42.3,0,0,0,258,301l-.71.28-2.44-3.24a6.13,6.13,0,0,1,2.36-9.24l.39-.18A39.47,39.47,0,0,1,274,285.09a18.54,18.54,0,0,1,14.73,7.21,9.09,9.09,0,0,1,1.91,5.56A4.24,4.24,0,0,1,286.36,302.09Zm-15.76-5A39,39,0,0,1,284,299.16l.08,0,1.31.66a2.32,2.32,0,0,0,1,.23,2.23,2.23,0,0,0,2.24-2.23,7.1,7.1,0,0,0-1.49-4.34A16.57,16.57,0,0,0,274,287.09a37.47,37.47,0,0,0-15.56,3.37l-.39.18a4.13,4.13,0,0,0-1.59,6.22l1.54,2A41.66,41.66,0,0,1,270.6,297.09Z" transform="translate(-247.6 -285.09)"/><path d="M261.63,299.33l-.31-1.25a9.27,9.27,0,0,0-2.43-4.28l1.42-1.42a11.36,11.36,0,0,1,2.95,5.21l.31,1.26Z" transform="translate(-247.6 -285.09)"/><path d="M268.6,298.09h-2a8.89,8.89,0,0,0-1.5-4.94l-.33-.5,1.66-1.11.34.5A10.86,10.86,0,0,1,268.6,298.09Z" transform="translate(-247.6 -285.09)"/><path d="M279.57,299.33l-1.94-.48.31-1.26a11.36,11.36,0,0,1,2.95-5.21l1.42,1.42a9.17,9.17,0,0,0-2.42,4.28Z" transform="translate(-247.6 -285.09)"/><path d="M274.6,298.09h-2a10.86,10.86,0,0,1,1.83-6l.34-.5,1.66,1.11-.33.5A8.89,8.89,0,0,0,274.6,298.09Z" transform="translate(-247.6 -285.09)"/><path d="M275.6,316.09h-10v-3a3,3,0,0,1,3-3h4a3,3,0,0,1,3,3Zm-8-2h6v-1a1,1,0,0,0-1-1h-4a1,1,0,0,0-1,1Z" transform="translate(-247.6 -285.09)"/></svg>