<?xml version="1.0" encoding="utf-8"?>
<!-- Generator: Adobe Illustrator 24.0.1, SVG Export Plug-In . SVG Version: 6.00 Build 0)  -->
<svg version="1.1" id="Layer_2_1_" xmlns="http://www.w3.org/2000/svg" xmlns:xlink="http://www.w3.org/1999/xlink" x="0px" y="0px"
	 viewBox="0 0 46 62" style="enable-background:new 0 0 46 62;" xml:space="preserve">
<title>userIcon</title>
<path d="M32,27v-2c1.7,0,3-1.3,3-3s-1.3-3-3-3v-2c2.8,0,5,2.2,5,5S34.8,27,32,27z"/>
<path d="M14,27c-2.8,0-5-2.2-5-5s2.2-5,5-5v2c-1.7,0-3,1.3-3,3s1.3,3,3,3V27z"/>
<rect x="16" y="33" width="2" height="4"/>
<path d="M46,62H0V47.8c0-3.3,2.3-6.1,5.5-6.8l8.5-1.8v-0.5c0-1.5,1.2-2.7,2.7-2.7c0.4,0,0.7,0.1,1,0.2l5.3,2.3l5.3-2.3
	c0.3-0.1,0.7-0.2,1-0.2c1.5,0,2.7,1.2,2.7,2.7l0,0v0.5l8.5,1.8c3.2,0.7,5.5,3.5,5.5,6.8V62z M32,60h12V47.8c0-2.4-1.7-4.4-4-4.9
	l-10-2.1v-2.1c0-0.4-0.3-0.7-0.7-0.6c-0.1,0-0.2,0-0.2,0L25,39.8v3.5l7,2V60z M2,60h28V46.8l-7-2v-4.1l-6.1-2.6
	c-0.4-0.1-0.8,0.1-0.9,0.4c0,0.1,0,0.1,0,0.2v2.1L5.9,43c-2.3,0.5-4,2.5-4,4.9L2,60z"/>
<rect x="28" y="33" width="2" height="4"/>
<circle cx="28" cy="21" r="1"/>
<circle cx="18" cy="21" r="1"/>
<rect x="35" y="15" width="2" height="7"/>
<rect x="9" y="15" width="2" height="7"/>
<path d="M23,36c-5.5,0-10-4.5-10-10v-8.8l0.8-0.2c3-0.6,6.1-0.9,9.2-1c3.1,0.1,6.2,0.4,9.2,1l0.8,0.2V26C33,31.5,28.5,36,23,36z
	 M15,18.8V26c0,4.4,3.6,8,8,8s8-3.6,8-8v-7.2C25.7,17.7,20.3,17.7,15,18.8z"/>
<path d="M38.8,17c-0.7,0-1.3-0.2-1.9-0.5l-1.3-0.6c-8.2-2.6-17-2.6-25.2,0l-0.7,0.3L7.3,13c-2-2.7-1.5-6.6,1.2-8.6
	c0.3-0.3,0.7-0.5,1.1-0.7L10,3.5C15.2,1.2,20.7,0,26.4,0c5.8,0,11.2,2.6,14.7,7.2c1.2,1.6,1.9,3.5,1.9,5.6C43,15.1,41.1,17,38.8,17
	C38.8,17,38.8,17,38.8,17z M23,12c4.6-0.1,9.1,0.6,13.4,2.1h0.1l1.3,0.7c0.3,0.2,0.7,0.2,1,0.2c1.2,0,2.2-1,2.2-2.2c0,0,0,0,0,0
	c0-1.6-0.5-3.1-1.5-4.3C36.4,4.3,31.5,2,26.4,2C21,2,15.7,3.1,10.8,5.4l-0.4,0.2c-2.1,1-3,3.4-2,5.5c0.1,0.3,0.3,0.5,0.4,0.7l1.5,2
	C14.5,12.5,18.7,11.9,23,12L23,12z"/>
<path d="M14,14.2L13.7,13c-0.4-1.6-1.2-3.1-2.4-4.3l1.4-1.4c1.4,1.4,2.5,3.2,3,5.2l0.3,1.3L14,14.2z"/>
<path d="M21,13h-2c0-1.8-0.5-3.5-1.5-4.9l-0.3-0.5l1.7-1.1L19.2,7C20.4,8.7,21,10.8,21,13z"/>
<path d="M32,14.2L30,13.8l0.3-1.3c0.5-2,1.5-3.8,3-5.2l1.4,1.4c-1.2,1.2-2,2.7-2.4,4.3L32,14.2z"/>
<path d="M27,13h-2c0-2.1,0.6-4.2,1.8-6l0.3-0.5l1.7,1.1l-0.3,0.5C27.5,9.6,27,11.3,27,13z"/>
<path d="M28,31H18v-3c0-1.7,1.3-3,3-3h4c1.7,0,3,1.3,3,3V31z M20,29h6v-1c0-0.6-0.4-1-1-1h-4c-0.6,0-1,0.4-1,1V29z"/>
</svg>
